<svg width="26" height="26" viewBox="0 0 26 26" fill="none" xmlns="http://www.w3.org/2000/svg">
<path fill-rule="evenodd" clip-rule="evenodd" d="M15.5 9.5H12.5V6.5C12.5 6.2 12.3 6 12 6H10C9.7 6 9.5 6.2 9.5 6.5V9.5H6.5C6.2 9.5 6 9.7 6 10V12C6 12.3 6.2 12.5 6.5 12.5H9.5V15.5C9.5 15.8 9.7 16 10 16H12C12.3 16 12.5 15.8 12.5 15.5V12.5H15.5C15.8 12.5 16 12.3 16 12V10C16 9.7 15.8 9.5 15.5 9.5ZM24.8 22.6L19.05 16.9C20.25 15.25 21 13.2 21 11C21 5.5 16.5 1 11 1C5.5 1 1 5.5 1 11C1 16.5 5.5 21 11 21C13.2 21 15.25 20.25 16.9 19.05L22.65 24.8C22.95 25.1 23.4 25.1 23.7 24.8L24.75 23.75C25.05 23.45 25.05 22.95 24.8 22.6ZM11 18C7.15 18 4 14.85 4 11C4 7.15 7.15 4 11 4C14.85 4 18 7.15 18 11C18 14.85 14.85 18 11 18Z" fill="#706E6B"/>
</svg>
