<svg width="48" height="48" viewBox="0 0 48 48" fill="none" xmlns="http://www.w3.org/2000/svg">
<rect width="48" height="48" rx="4" fill="#B8C3CE"/>
<mask id="mask0_1518_27621" style="mask-type:luminance" maskUnits="userSpaceOnUse" x="0" y="0" width="48" height="48">
<rect width="48" height="48" rx="4" fill="white"/>
</mask>
<g mask="url(#mask0_1518_27621)">
<path opacity="0.5" d="M17.35 25.2C16.5 23.85 16 22.25 16 20.5C16 17.55 17.25 15.05 19.25 13.55C18.5 12.3 17.25 11.5 15.5 11.5C12.6 11.5 11 13.8 11 16.5C11 17.95 11.5 19.15 12.45 20.05C13 20.55 13.45 21.2 13.45 21.9C13.45 22.6 13.2 23.2 11.55 23.9C9.2 24.95 7.05 26.3 7 28.5C7 29.95 7.95 31 9.3 31H11.45C11.8 31 12.15 30.8 12.3 30.5C13.35 28.6 15.3 27.4 16.95 26.6C17.5 26.35 17.7 25.7 17.35 25.2Z" fill="white"/>
<path opacity="0.5" d="M36.45 23.9C34.8 23.2 34.55 22.55 34.55 21.9C34.55 21.2 35 20.55 35.55 20.05C36.5 19.15 37 17.95 37 16.5C37 13.8 35.4 11.5 32.5 11.5C30.75 11.5 29.5 12.3 28.75 13.55C30.75 15.05 32 17.5 32 20.5C32 22.25 31.55 23.85 30.65 25.2C30.3 25.7 30.5 26.35 31.05 26.65C32.7 27.45 34.65 28.65 35.7 30.55C35.85 30.85 36.2 31.05 36.55 31.05H38.7C40.05 31.05 41 30 41 28.55C40.95 26.35 38.8 24.95 36.45 23.9Z" fill="white"/>
<path opacity="0.5" d="M28.35 28.7C26.55 27.95 26.3 27.25 26.3 26.5C26.3 25.75 26.8 25 27.4 24.45C28.45 23.5 29.05 22.1 29.05 20.5C29.05 17.55 27.25 15 24.05 15C20.85 15 19.05 17.55 19.05 20.5C19.05 22.1 19.65 23.45 20.7 24.45C21.3 25 21.8 25.75 21.8 26.5C21.8 27.25 21.5 27.95 19.75 28.7C17.05 29.8 14.55 31.1 14.5 33.5C14.5 35.1 15.65 36.5 17.15 36.5H24H30.85C32.35 36.5 33.5 35.1 33.5 33.5C33.45 31.1 30.95 29.8 28.35 28.7Z" fill="white"/>
</g>
</svg>
