<svg width="26" height="26" viewBox="0 0 26 26" fill="none" xmlns="http://www.w3.org/2000/svg">
<path fill-rule="evenodd" clip-rule="evenodd" d="M18.2101 12.65V19.7C18.2101 20.05 17.9101 20.4 17.5101 20.4H10.4601L6.16007 24.7C6.46007 24.9 6.81007 25 7.16007 25H19.1601C20.1601 25 21.0101 24.15 21.0101 23.15V9.85L18.2101 12.65ZM13.1601 24.05C12.3601 24.05 11.7601 23.45 11.7601 22.65C11.7601 21.85 12.3601 21.25 13.1601 21.25C13.9601 21.25 14.5601 21.85 14.5601 22.65C14.5601 23.45 13.9601 24.05 13.1601 24.05ZM5.31007 22.8L8.16007 19.95V19.9L18.2601 9.8V9.85L21.0101 7.1V7.05L24.5101 3.55C24.8601 3.25 24.9101 2.7 24.6601 2.45L23.6601 1.5C23.3601 1.2 22.8601 1.25 22.5601 1.65L21.0101 3.2V2.85C21.0101 1.85 20.1601 1 19.1601 1H7.16007C6.16007 1 5.31007 1.85 5.31007 2.85V18.9L1.76007 22.45C1.46007 22.75 1.41007 23.25 1.66007 23.5L2.61007 24.5C2.91007 24.8 3.41007 24.75 3.71007 24.35L5.31007 22.8ZM8.06007 5.4C8.06007 5.05 8.36007 4.7 8.76007 4.7H17.5101C17.8601 4.7 18.2101 5 18.2101 5.4V6L8.06007 16.1V5.4Z" fill="#706E6B"/>
</svg>
