<svg width="26" height="26" viewBox="0 0 26 26" fill="none" xmlns="http://www.w3.org/2000/svg">
<path fill-rule="evenodd" clip-rule="evenodd" d="M20.5 9.5C20.5 6.5 18.1 4 15.25 4H7C6.45 4 6 4.45 6 5V21.5C6 22.05 6.45 22.5 7 22.5H15.25C18.1 22.5 20.5 20 20.5 17C20.5 15.55 19.95 14.25 19.05 13.25C19.95 12.25 20.5 10.95 20.5 9.5ZM15.25 19H9.5V15H15.25C16.2 15 17.05 15.95 17.05 17C17.05 18.05 16.2 19 15.25 19ZM15.25 11.5H9.5V7.5H15.25C16.2 7.5 17.05 8.45 17.05 9.5C17.05 10.55 16.2 11.5 15.25 11.5Z" fill="#706E6B"/>
</svg>
