<svg width="26" height="26" viewBox="0 0 26 26" fill="none" xmlns="http://www.w3.org/2000/svg">
<path fill-rule="evenodd" clip-rule="evenodd" d="M4.5 21.05C4.2 21.05 4 20.85 4 20.55V5.5C4 5.2 4.2 5 4.5 5H8.55C8.75 5 9 5.1 9.15 5.25L14.95 12.55C15.15 12.8 15.15 13.2 14.95 13.5L9.1 20.8C8.95 21 8.7 21.1 8.45 21.1L4.5 21.05ZM22.45 12.55L16.6 5.3C16.35 5 15.9 4.9 15.55 5.2L14.4 6.15C14.05 6.4 14 6.9 14.3 7.2L19.05 13.05L14.3 18.95C14.05 19.25 14.1 19.75 14.4 20L15.55 20.95C15.9 21.2 16.3 21.15 16.6 20.85L22.45 13.55C22.65 13.15 22.65 12.8 22.45 12.55Z" fill="#706E6B"/>
</svg>
