<svg width="26" height="26" viewBox="0 0 26 26" fill="none" xmlns="http://www.w3.org/2000/svg">
<path fill-rule="evenodd" clip-rule="evenodd" d="M24.717 1.32746C23.017 -0.422539 13.517 4.97746 7.71698 14.2775C7.46698 14.7275 7.61698 15.2775 8.06698 15.4775C9.36698 16.0775 10.417 17.1775 10.967 18.5275C11.167 19.0275 11.717 19.1775 12.167 18.8775C21.167 12.9275 26.417 3.07746 24.717 1.32746ZM5.96698 17.5775C5.21698 17.5775 4.51698 17.9775 4.01698 18.4775H3.96698C3.71698 18.4775 3.46698 18.8775 3.26698 19.2275C2.46698 20.5775 2.31698 22.1775 1.11698 23.9275C0.916978 24.2275 0.966978 24.6775 1.31698 24.7775C3.01698 25.3275 6.06698 24.8275 7.56698 23.7275V23.7775C8.06698 23.6775 7.91698 23.4775 8.06698 23.4775C8.61698 22.4775 9.06698 21.9775 9.06698 21.0275C9.01698 19.1775 7.71698 17.5775 5.96698 17.5775Z" fill="#706E6B"/>
</svg>
