<svg width="26" height="26" viewBox="0 0 26 26" fill="none" xmlns="http://www.w3.org/2000/svg">
<path d="M15.9991 5.99975C16.733 5.99926 17.4991 6.5664 17.4991 8.0674V13C17.4991 13.7567 18.189 14.0557 18.489 14.1557L21.9 15.4C23.35 15.95 24.25 17.5 23.85 19.1L22.25 24.2997C22.15 24.6997 21.8 24.9998 21.35 24.9998H13.3C12.9 24.9998 12.55 24.7998 12.4 24.4498C10.4659 19.9595 9.39349 17.4698 9.18268 16.9805C8.97186 16.4913 9.11097 16.0978 9.6 15.8C10.5 15.15 11.85 15.8198 12.4 16.7698L13.2079 17.8716C13.5258 18.4754 14.5 18.4754 14.5 17.5754V8.0674C14.5 6.5664 15.2652 6.00026 15.9991 5.99975ZM23 1C24.1 1 25 1.9 25 3V10.5C25 11.4412 24.0907 12.5015 23 12.5H20.0052C19.5 12.5 19.5 12.0941 19.5 12.0295V7.75C19.5 5.82735 18.5094 4 16 4C13.4906 4 12.5 5.59399 12.5 7.75V12.0295C12.5 12.2039 12.3676 12.5 11.9939 12.5H3C1.9 12.5 1 11.6 1 10.5V3C1 1.9 1.9 1 3 1H23Z" fill="#706E6B"/>
</svg>
