<svg width="48" height="48" viewBox="0 0 48 48" fill="none" xmlns="http://www.w3.org/2000/svg">
<rect width="48" height="48" rx="4" fill="#F2CF5B"/>
<mask id="mask0_1518_27473" style="mask-type:luminance" maskUnits="userSpaceOnUse" x="0" y="0" width="48" height="48">
<rect width="48" height="48" rx="4" fill="white"/>
</mask>
<g mask="url(#mask0_1518_27473)">
<path d="M14.0698 22.6509C14.0158 23.0287 14.0158 23.3525 14.0158 23.7302H10.7777C10.7777 23.3525 10.7777 23.0287 10.8317 22.6509H14.0698Z" fill="white"/>
<path d="M25.8888 8.61914C17.9015 8.61914 11.3714 14.8255 10.8317 22.6509C10.8317 22.8128 10.7777 23.0287 10.7777 23.1906H8.34916C7.64758 23.1906 7.2698 24.0001 7.70154 24.4858L11.7492 29.3969C12.073 29.7747 12.6666 29.7747 12.9904 29.3969L17.0381 24.4858C17.4698 23.9461 17.092 23.1906 16.3904 23.1906H14.0158C14.0158 23.0287 14.0158 22.8128 14.0158 22.6509C14.5555 16.6064 19.6825 11.8572 25.8349 11.8572C32.8507 11.8572 38.4095 17.9556 37.6539 25.0795C37.1142 30.2064 32.2571 35.0636 27.0761 35.5493C23.2444 35.9271 19.6285 34.5239 17.092 31.7715C16.7682 31.3937 16.3365 31.1779 15.9047 31.7176L14.6095 33.2826C14.3396 33.6064 14.5555 33.8223 14.8254 34.0922C17.7396 37.1683 21.7333 38.8953 26.0507 38.8414C33.8222 38.7334 40.3523 32.581 40.892 24.8096C41.5936 16.0128 34.5777 8.61914 25.8888 8.61914Z" fill="white"/>
<path d="M24.3777 19.8445C24.7555 19.3587 24.7555 18.6572 24.3237 18.1175L23.1904 16.7143C22.6507 16.0667 21.6793 16.0127 21.0856 16.6064L19.7904 17.9016C19.5205 18.1714 19.3586 18.5492 19.3586 18.981C19.5205 21.9492 20.8698 24.8095 22.8666 26.7524C24.8634 28.6952 27.6698 30.0984 30.638 30.2603C31.0158 30.2603 31.4475 30.1524 31.7174 29.8286L33.0126 28.5333C33.6063 27.9397 33.5523 26.9683 32.9047 26.4286L31.4475 25.2952C30.9618 24.9175 30.2602 24.8635 29.7205 25.2413L28.3174 26.2667C28.1555 26.4286 27.8856 26.3746 27.7237 26.2127L25.4571 24.1619L23.4063 21.8952C23.2444 21.7333 23.2444 21.4635 23.3523 21.3016L24.3777 19.8445Z" fill="white"/>
</g>
</svg>
