<svg width="48" height="48" viewBox="0 0 48 48" fill="none" xmlns="http://www.w3.org/2000/svg">
<g clip-path="url(#clip0_1518_28000)">
<mask id="mask0_1518_28000" style="mask-type:alpha" maskUnits="userSpaceOnUse" x="0" y="0" width="48" height="48">
<path d="M44 0H4C1.79086 0 0 1.79086 0 4V44C0 46.2091 1.79086 48 4 48H44C46.2091 48 48 46.2091 48 44V4C48 1.79086 46.2091 0 44 0Z" fill="white"/>
</mask>
<g mask="url(#mask0_1518_28000)">
<path d="M44 0H4C1.79086 0 0 1.79086 0 4V44C0 46.2091 1.79086 48 4 48H44C46.2091 48 48 46.2091 48 44V4C48 1.79086 46.2091 0 44 0Z" fill="#3C97DD"/>
<path d="M19.07 7C20.7133 7 22.0733 8.47333 21.8467 10.1167L21.45 13.8567C21.28 15.1033 20.3167 16.1233 19.07 16.35L15.67 16.86C15.2167 16.9167 14.8767 17.3133 14.8767 17.7667V30.1767C14.8767 30.63 15.2167 31.0267 15.67 31.14L19.07 31.65C20.3733 31.82 21.3367 32.8967 21.45 34.1433L21.9033 37.8833C22.13 39.5267 20.8267 41.0567 19.1267 40.9433H15.5C14.7067 40.9433 13.9133 40.66 13.4033 40.0367C9.32333 35.56 7.28333 29.61 7.28333 23.9433C7.28333 18.2767 9.37999 12.3267 13.3467 7.90667C13.8567 7.34 14.65 7 15.4433 7H19.07ZM29.5533 14.31C30.1767 14.31 30.63 14.7633 30.63 15.3867V32.84C30.63 33.4633 30.12 33.9167 29.5533 33.9167C28.9867 33.9167 28.4767 33.4633 28.4767 32.84V15.3867C28.4767 14.82 28.93 14.31 29.5533 14.31ZM24.7367 18.4467C25.36 18.4467 25.8133 18.9 25.8133 19.5233V28.7033C25.8133 29.27 25.3033 29.78 24.7367 29.78C24.17 29.78 23.66 29.3267 23.66 28.7033V19.5233C23.66 18.9567 24.1133 18.4467 24.7367 18.4467ZM34.4833 18.4467C35.1067 18.4467 35.56 18.9 35.56 19.5233V28.42C35.56 28.9867 35.05 29.44 34.4833 29.44C33.9167 29.44 33.4067 28.9867 33.4067 28.3633V19.5233C33.4067 18.9567 33.86 18.4467 34.4833 18.4467ZM39.5267 21.62C40.15 21.62 40.6033 22.0733 40.6033 22.6967V24.7367C40.6033 25.36 40.15 25.8133 39.5267 25.8133C38.96 25.8133 38.45 25.36 38.45 24.7367V22.6967C38.45 22.13 38.9033 21.62 39.5267 21.62Z" fill="white"/>
</g>
</g>
<defs>
<clipPath id="clip0_1518_28000">
<rect width="48" height="48" fill="white"/>
</clipPath>
</defs>
</svg>
