<svg width="48" height="48" viewBox="0 0 48 48" fill="none" xmlns="http://www.w3.org/2000/svg">
<rect width="48" height="48" rx="4" fill="#6BBD6E"/>
<mask id="mask0_1518_27483" style="mask-type:luminance" maskUnits="userSpaceOnUse" x="0" y="0" width="48" height="48">
<rect width="48" height="48" rx="4" fill="white"/>
</mask>
<g mask="url(#mask0_1518_27483)">
<path d="M38.8807 16.4634H37.3563V31.7237H38.8807C40.0498 31.7206 40.9969 30.7736 41 29.6044V18.5827C40.9969 17.4135 40.0498 16.4665 38.8807 16.4634Z" fill="white"/>
<path d="M7 18.5827V29.6044C7.00311 30.7736 7.95015 31.7206 9.11933 31.7237H10.6437V16.4634H9.11933C7.95015 16.4665 7.00311 17.4135 7 18.5827Z" fill="white"/>
<path fill-rule="evenodd" clip-rule="evenodd" d="M33.3273 14.5537H14.6727C13.5035 14.5568 12.5565 15.5039 12.5533 16.673V31.514C12.5565 32.6832 13.5035 33.6303 14.6727 33.6334H33.3273C34.4965 33.6303 35.4436 32.6832 35.4467 31.514V16.673C35.4436 15.5039 34.4965 14.5568 33.3273 14.5537ZM30.171 29.8197H17.0697C16.8269 29.8119 16.6064 29.6763 16.4899 29.4632C16.3735 29.2501 16.3784 28.9912 16.503 28.7827L20.4697 21.875C20.5407 21.7284 20.6893 21.6353 20.8522 21.6353C21.0151 21.6353 21.1637 21.7284 21.2347 21.875L23.6317 25.989C23.7099 26.1219 23.8495 26.2067 24.0035 26.2147C24.1575 26.2226 24.3052 26.1528 24.3967 26.0287L26.346 23.2294C26.4292 23.0986 26.5735 23.0194 26.7285 23.0194C26.8835 23.0194 27.0278 23.0986 27.111 23.2294L30.6697 28.896C30.8162 29.0739 30.8404 29.3228 30.731 29.5256C30.6215 29.7284 30.4001 29.8446 30.171 29.8197ZM28.029 19.8804C28.029 20.8756 28.8358 21.6824 29.831 21.6824V21.6767C30.824 21.6767 31.6299 20.8734 31.633 19.8804C31.633 18.8852 30.8262 18.0784 29.831 18.0784C28.8358 18.0784 28.029 18.8852 28.029 19.8804Z" fill="white"/>
</g>
</svg>
