<svg width="48" height="48" viewBox="0 0 48 48" fill="none" xmlns="http://www.w3.org/2000/svg">
<rect width="48" height="48" rx="4" fill="#F2CF5B"/>
<mask id="mask0_1518_27493" style="mask-type:luminance" maskUnits="userSpaceOnUse" x="0" y="0" width="48" height="48">
<rect width="48" height="48" rx="4" fill="white"/>
</mask>
<g mask="url(#mask0_1518_27493)">
<path fill-rule="evenodd" clip-rule="evenodd" d="M37.6 16.0669H10.4566C8.58664 16.0669 7.05664 17.5969 7.05664 19.4669V37.6002C7.05664 39.4702 8.58664 41.0002 10.4566 41.0002H37.6C39.47 41.0002 41 39.4702 41 37.6002V19.4669C41 17.5969 39.47 16.0669 37.6 16.0669ZM19.41 23.2069V35.6736C19.41 36.2402 19.0133 36.7502 18.4466 36.7502H18.39C17.8233 36.7502 17.37 36.2402 17.37 35.6736V23.2069C17.03 22.8669 16.86 22.4136 16.86 21.9602C16.8033 21.1102 17.4266 20.3736 18.2766 20.3169C19.1266 20.2602 19.8633 20.8836 19.92 21.7336V22.0169C19.92 22.4136 19.75 22.8669 19.41 23.2069ZM31.3666 31.4802C31.48 31.3669 31.5933 31.1969 31.5933 31.0269V23.5469C31.5933 23.4902 31.5933 23.4336 31.5366 23.3769C31.48 23.2636 31.31 23.2636 31.1966 23.3202C29.0759 24.5321 27.4573 23.9946 25.8385 23.4571C24.4295 22.9892 23.0204 22.5213 21.28 23.2069C21.0533 23.2636 20.94 23.4902 20.94 23.7169V30.8002V30.9702C21.0533 31.2536 21.3366 31.3669 21.62 31.3102C23.2465 30.7765 24.5881 31.2231 25.9259 31.6684C27.5709 32.2159 29.2103 32.7616 31.3666 31.4802Z" fill="white"/>
<path d="M17.2566 12.6667H19.5233C19.8066 12.6667 20.0899 12.44 20.0899 12.1567V12.1V10.4H28.0233V12.1C28.0233 12.3833 28.2499 12.6667 28.5333 12.6667H28.5899H30.8566C31.1399 12.6667 31.4233 12.44 31.4233 12.1567V12.1V10.4C31.4233 8.53 29.8933 7 28.0233 7H20.0899C18.2199 7 16.6899 8.53 16.6899 10.4V12.1C16.6899 12.3833 16.9166 12.6667 17.1999 12.6667H17.2566Z" fill="white"/>
</g>
</svg>
