<svg width="48" height="48" viewBox="0 0 48 48" fill="none" xmlns="http://www.w3.org/2000/svg">
<rect width="48" height="48" rx="4" fill="#F2CF5B"/>
<mask id="mask0_1518_27497" style="mask-type:luminance" maskUnits="userSpaceOnUse" x="0" y="0" width="48" height="48">
<rect width="48" height="48" rx="4" fill="white"/>
</mask>
<g mask="url(#mask0_1518_27497)">
<path d="M17.2 12.6667H19.4666C19.8066 12.6667 20.0333 12.44 20.0333 12.1V10.4H27.9666V12.1C27.9666 12.44 28.1933 12.6667 28.5333 12.6667H30.8C31.14 12.6667 31.3666 12.44 31.3666 12.1V10.4C31.3666 8.53 29.8366 7 27.9666 7H20.0333C18.1633 7 16.6333 8.53 16.6333 10.4V12.1C16.6333 12.44 16.86 12.6667 17.2 12.6667Z" fill="white"/>
<path d="M37.6 16.0669H10.4C8.53 16.0669 7 17.5969 7 19.4669V37.6002C7 39.4702 8.53 41.0002 10.4 41.0002H37.6C39.47 41.0002 41 39.4702 41 37.6002V19.4669C41 17.5969 39.47 16.0669 37.6 16.0669Z" fill="white"/>
</g>
</svg>
