<svg width="48" height="48" viewBox="0 0 48 48" fill="none" xmlns="http://www.w3.org/2000/svg">
<rect width="48" height="48" rx="4" fill="#F2CF5B"/>
<mask id="mask0_1518_27491" style="mask-type:luminance" maskUnits="userSpaceOnUse" x="0" y="0" width="48" height="48">
<rect width="48" height="48" rx="4" fill="white"/>
</mask>
<g mask="url(#mask0_1518_27491)">
<path d="M17.2 12.6667H19.4666C19.8066 12.6667 20.0333 12.44 20.0333 12.1V10.4H27.9666V12.1C27.9666 12.44 28.1933 12.6667 28.5333 12.6667H30.8C31.14 12.6667 31.3666 12.44 31.3666 12.1V10.4C31.3666 8.53 29.8366 7 27.9666 7H20.0333C18.1633 7 16.6333 8.53 16.6333 10.4V12.1C16.6333 12.44 16.86 12.6667 17.2 12.6667Z" fill="white"/>
<path fill-rule="evenodd" clip-rule="evenodd" d="M10.4 16.0669H37.6C39.47 16.0669 41 17.5969 41 19.4669V37.6002C41 39.4702 39.47 41.0002 37.6 41.0002H10.4C8.53 41.0002 7 39.4702 7 37.6002V19.4669C7 17.5969 8.53 16.0669 10.4 16.0669ZM29.7233 34.3702L30.97 33.1236C31.5367 32.5569 31.48 31.5936 30.9133 31.1402L29.4967 30.0069C29.0433 29.6102 28.3633 29.6102 27.8533 29.9502L26.4933 30.9136C26.3233 31.0269 26.0967 31.0269 25.9267 30.8569L23.7167 28.8736L21.7333 26.6636C21.5633 26.5502 21.5633 26.2669 21.6767 26.0969L22.64 24.7369C22.98 24.2269 22.98 23.5469 22.5833 23.0936L21.45 21.6769C20.94 21.0536 19.9767 20.9969 19.41 21.5636L18.1633 22.8102C17.88 23.0936 17.7667 23.4336 17.7667 23.8302C17.9367 26.7202 19.24 29.4402 21.1667 31.3669C23.0933 33.2936 25.8133 34.5969 28.7033 34.7669C29.1 34.7669 29.44 34.6536 29.7233 34.3702Z" fill="white"/>
</g>
</svg>
