<svg width="48" height="48" viewBox="0 0 48 48" fill="none" xmlns="http://www.w3.org/2000/svg">
<rect width="48" height="48" rx="4" fill="#027E46"/>
<mask id="mask0_1518_27499" style="mask-type:luminance" maskUnits="userSpaceOnUse" x="0" y="0" width="48" height="48">
<rect width="48" height="48" rx="4" fill="white"/>
</mask>
<g mask="url(#mask0_1518_27499)">
<path fill-rule="evenodd" clip-rule="evenodd" d="M7 34.6533V9.83333C7 8.24667 8.24667 7 9.83333 7H16.9167C18.5033 7 19.75 8.24667 19.75 9.83333V34.6533C19.75 38.1667 16.9167 41 13.4033 41C9.89 41 7 38.1667 7 34.6533ZM35.73 17.37L30.6867 12.3267C29.61 11.1933 27.74 11.1933 26.6633 12.3267L22.5833 16.4067V34.4267L35.73 21.3367C36.8633 20.26 36.8633 18.4467 35.73 17.37ZM41 38.1667V31.0833C41 29.5533 39.7533 28.25 38.1667 28.25H33.2367L20.4867 41H38.1667C39.7533 41 41 39.7533 41 38.1667ZM16.18 34.6533C16.18 36.24 14.9333 37.4867 13.3467 37.4867C11.8167 37.4867 10.5133 36.24 10.5133 34.6533C10.5133 33.0667 11.76 31.82 13.3467 31.82C14.9333 31.82 16.18 33.0667 16.18 34.6533Z" fill="white"/>
</g>
</svg>
