<svg width="48" height="48" viewBox="0 0 48 48" fill="none" xmlns="http://www.w3.org/2000/svg">
<rect width="48" height="48" rx="4" fill="#027E46"/>
<mask id="mask0_1518_27501" style="mask-type:luminance" maskUnits="userSpaceOnUse" x="0" y="0" width="48" height="48">
<rect width="48" height="48" rx="4" fill="white"/>
</mask>
<g mask="url(#mask0_1518_27501)">
<path d="M30.6867 12.3265L35.73 17.3698C36.8634 18.4465 36.8634 20.2598 35.73 21.3365L22.5834 34.4265V22.4698V16.4065L26.6634 12.2698C27.74 11.1931 29.61 11.1931 30.6867 12.3265Z" fill="white"/>
<path fill-rule="evenodd" clip-rule="evenodd" d="M9.83333 7H16.9167C18.4467 7 19.75 8.24667 19.6933 9.83333V34.6533C19.6933 38.1667 16.86 41 13.3467 41C9.83333 41 7 38.1667 7 34.6533V9.83333C7 8.24667 8.24667 7 9.83333 7ZM10.5133 34.6533C10.5133 36.24 11.76 37.4867 13.3467 37.4867C14.9333 37.4867 16.18 36.24 16.18 34.6533C16.18 33.0667 14.9333 31.82 13.3467 31.82C11.76 31.82 10.5133 33.0667 10.5133 34.6533Z" fill="white"/>
<path d="M38.1667 28.25H33.18L29.78 31.65H37.6L37.5434 37.6H23.8867L20.4867 41H38.1667C39.7534 41 41 39.7533 41 38.1667V31.0833C41 29.5533 39.7534 28.25 38.1667 28.25Z" fill="white"/>
</g>
</svg>
