<svg width="48" height="48" viewBox="0 0 48 48" fill="none" xmlns="http://www.w3.org/2000/svg">
<rect width="48" height="48" rx="4" fill="#0EB58A"/>
<mask id="mask0_1518_27509" style="mask-type:luminance" maskUnits="userSpaceOnUse" x="0" y="0" width="48" height="48">
<rect width="48" height="48" rx="4" fill="white"/>
</mask>
<g mask="url(#mask0_1518_27509)">
<path fill-rule="evenodd" clip-rule="evenodd" d="M24 7C14.65 7 7 14.65 7 24C7 33.35 14.65 41 24 41C33.35 41 41 33.35 41 24C41 14.65 33.35 7 24 7ZM37.4867 22.3H33.01C32.84 18.2767 31.9333 14.7633 30.5733 12.1C34.3133 14.1967 36.92 17.9367 37.4867 22.3ZM22.3 22.3V11.1367C20.3733 12.78 18.6733 16.9733 18.39 22.3H22.3ZM22.3 25.7V36.8633C20.3733 35.22 18.6733 31.0267 18.39 25.7H22.3ZM25.7 25.7V36.8633C27.6267 35.22 29.3267 31.0267 29.61 25.7H25.7ZM25.7 22.3V11.1367C27.6267 12.78 29.3267 16.9733 29.61 22.3H25.7ZM14.99 22.3C15.2167 18.2767 16.0667 14.7633 17.4267 12.1C13.6867 14.1967 11.08 17.9367 10.5133 22.3H14.99ZM10.5133 25.7H14.99C15.16 29.7233 16.0667 33.2367 17.4267 35.9C13.6867 33.8033 11.08 30.0633 10.5133 25.7ZM33.01 25.7C32.7833 29.7233 31.9333 33.2367 30.5733 35.9C34.3133 33.8033 36.92 30.0633 37.4867 25.7H33.01Z" fill="white"/>
</g>
</svg>
