<svg width="48" height="48" viewBox="0 0 48 48" fill="none" xmlns="http://www.w3.org/2000/svg">
<rect width="48" height="48" rx="4" fill="#0EB58A"/>
<mask id="mask0_1518_27507" style="mask-type:luminance" maskUnits="userSpaceOnUse" x="0" y="0" width="48" height="48">
<rect width="48" height="48" rx="4" fill="white"/>
</mask>
<g mask="url(#mask0_1518_27507)">
<path d="M23.8328 33.8098C23.8328 30.5213 25.3935 27.5672 27.8459 25.7279C27.1214 25.3934 26.3968 25.059 25.6164 24.7246C23.2197 23.7213 22.8853 22.8295 22.8853 21.8262C22.8853 20.823 23.5541 19.9311 24.3345 19.2066C25.7279 17.9246 26.5082 16.1967 26.5082 14.1344C26.5082 10.2885 24.1115 7 19.8755 7C15.6394 7 13.2427 10.2885 13.2427 14.1344C13.2427 16.1967 14.023 17.9803 15.4164 19.2066C16.1968 19.9311 16.8656 20.8787 16.8656 21.8262C16.8656 22.7738 16.4755 23.7213 14.1345 24.7246C10.6787 26.1738 7.39021 27.8459 7.33447 30.9672C7.33447 33.0295 8.89513 34.8689 10.8459 34.8689H23.4984C23.6656 34.8689 23.7771 34.8131 23.8886 34.8131C23.8886 34.4787 23.8328 34.1443 23.8328 33.8098Z" fill="white"/>
<path fill-rule="evenodd" clip-rule="evenodd" d="M34.0328 27.2329C30.4099 27.2329 27.4 30.187 27.4 33.8657C27.4 37.5444 30.4099 40.4985 34.0328 40.4985C37.6558 40.4985 40.6656 37.5444 40.6656 33.8657C40.6656 30.187 37.7115 27.2329 34.0328 27.2329ZM39.3279 33.1968H37.6C37.5443 31.6362 37.1541 30.2427 36.6525 29.2395C38.0459 30.0198 39.1049 31.5247 39.3279 33.1968ZM33.4197 33.1968V28.8493C32.6394 29.5182 31.9705 31.1345 31.9148 33.1968H33.4197ZM33.4197 34.5345V38.8821C32.6951 38.269 32.0263 36.5968 31.9148 34.5345H33.4197ZM34.7017 34.5345V38.8821C35.482 38.2132 36.1508 36.5968 36.2623 34.5345H34.7017ZM34.7017 33.1968V28.8493C35.4263 29.4624 36.0951 31.1345 36.2066 33.1968H34.7017ZM30.5213 33.1968C30.6328 31.6362 30.9115 30.2985 31.4689 29.2395C30.0197 30.0198 29.0164 31.5247 28.7935 33.1968H30.5213ZM28.7935 34.5345H30.5213C30.5771 36.0952 30.9672 37.4886 31.4689 38.4919C30.0197 37.6559 29.0164 36.2067 28.7935 34.5345ZM37.5443 34.5345C37.4328 36.0952 37.1541 37.4329 36.5967 38.4919C38.0459 37.6559 39.1049 36.2067 39.2722 34.5345H37.5443Z" fill="white"/>
</g>
</svg>
