<svg width="48" height="48" viewBox="0 0 48 48" fill="none" xmlns="http://www.w3.org/2000/svg">
<rect width="48" height="48" rx="4" fill="#00D2BE"/>
<mask id="mask0_1518_27515" style="mask-type:luminance" maskUnits="userSpaceOnUse" x="0" y="0" width="48" height="48">
<rect width="48" height="48" rx="4" fill="white"/>
</mask>
<g mask="url(#mask0_1518_27515)">
<path d="M20.8229 28.6262C22.8852 27.4557 24.836 26.8983 27.0098 26.8983C27.6229 26.8983 28.236 26.9541 28.7934 27.0098C29.0721 27.0655 29.1278 26.9541 28.8492 26.7869C27.7901 26.1737 26.6196 25.6164 25.3934 25.1147C22.9967 24.1114 22.6623 23.2196 22.6623 22.2164C22.6623 21.2131 23.3311 20.3213 24.1115 19.5967C25.5049 18.3147 26.2852 16.5869 26.2852 14.5246C26.2852 10.6787 23.8885 7.39014 19.6524 7.39014C15.4164 7.39014 13.0196 10.6787 13.0196 14.5246C13.0196 16.5869 13.8 18.3705 15.1934 19.5967C15.9737 20.3213 16.6426 21.2688 16.6426 22.2164C16.6426 23.1639 16.2524 24.1114 13.9115 25.1147C10.4557 26.5639 7.16719 28.236 7.11145 31.3573C7.11145 33.4196 8.67211 35.259 10.6229 35.259H18.5377C19.1508 35.259 19.6524 34.7574 19.6524 34.1442V30.5213C19.7082 29.741 20.0983 29.0164 20.8229 28.6262Z" fill="white"/>
<path fill-rule="evenodd" clip-rule="evenodd" d="M32.0042 31.2758C34.2582 31.9811 36.4748 32.6746 38.9377 31.9148C39.6623 31.6918 40.4426 32.2492 40.4426 32.9738V38.9377C40.4426 39.4394 40.1082 39.8295 39.718 39.9967C36.9704 41.1416 34.5461 40.3905 32.0678 39.6227C29.7197 38.8953 27.3233 38.1529 24.5574 38.9935C23.8328 39.2164 23.1639 38.7148 23.1639 37.9344V31.9705C23.1639 31.4689 23.3869 31.0787 23.8328 30.9115C26.875 29.671 29.4634 30.4808 32.0042 31.2758ZM29.741 35.259C29.741 36.4853 30.7443 37.4885 31.9705 37.4885C33.1967 37.4885 34.2 36.4853 34.2 35.259C34.2 34.0328 33.1967 33.0295 31.9705 33.0295C30.7443 33.0295 29.741 34.0328 29.741 35.259Z" fill="white"/>
</g>
</svg>
