<svg width="48" height="48" viewBox="0 0 48 48" fill="none" xmlns="http://www.w3.org/2000/svg">
<rect width="48" height="48" rx="4" fill="#54698D"/>
<mask id="mask0_1518_27521" style="mask-type:luminance" maskUnits="userSpaceOnUse" x="0" y="0" width="48" height="48">
<rect width="48" height="48" rx="4" fill="white"/>
</mask>
<g mask="url(#mask0_1518_27521)">
<path fill-rule="evenodd" clip-rule="evenodd" d="M37.4867 7H10.5133C8.58667 7 7 8.58667 7 10.5133V37.4867C7 39.4133 8.58667 41 10.5133 41H37.4867C39.4133 41 41 39.4133 41 37.4867V10.5133C41 8.58667 39.4133 7 37.4867 7ZM11.7033 10.5133H36.2967C36.92 10.5133 37.4867 11.0233 37.4867 11.7033V13.9133H10.5133V11.7033C10.5133 11.0233 11.0233 10.5133 11.7033 10.5133ZM11.7033 37.4867H36.2967C36.9767 37.4867 37.4867 36.9767 37.4867 36.2967V17.3133H10.5133V36.2967C10.5133 36.9767 11.08 37.4867 11.7033 37.4867Z" fill="white"/>
<path d="M22.13 31.5368L18.39 27.7968L22.13 24.0568C22.3567 23.8302 22.3567 23.4902 22.13 23.2635L20.5434 21.6768C20.3167 21.4502 19.9767 21.4502 19.75 21.6768L15.6134 25.8135L14.7634 26.6635L14.0267 27.4002C13.9134 27.5135 13.8567 27.6835 13.8567 27.7968C13.8567 27.9668 13.9134 28.0802 14.0267 28.1935L19.8067 33.9735C20.0334 34.2002 20.3734 34.2002 20.6 33.9735L22.1867 32.3868C22.3567 32.1035 22.3567 31.7635 22.13 31.5368Z" fill="white"/>
<path d="M34.03 27.3435L33.2934 26.6069L32.4434 25.7569L28.3067 21.6202C28.08 21.3935 27.74 21.3935 27.5134 21.6202L25.9267 23.2069C25.7 23.4335 25.7 23.7735 25.9267 24.0002L29.6667 27.7402L25.9267 31.4802C25.7 31.7069 25.7 32.0469 25.9267 32.2735L27.5134 33.8602C27.74 34.0869 28.08 34.0869 28.3067 33.8602L34.0867 28.0802C34.2 27.9669 34.2567 27.7969 34.2567 27.6835C34.2 27.6269 34.1434 27.4569 34.03 27.3435Z" fill="white"/>
</g>
</svg>
