<svg width="48" height="48" viewBox="0 0 48 48" fill="none" xmlns="http://www.w3.org/2000/svg">
<rect width="48" height="48" rx="4" fill="#54698D"/>
<mask id="mask0_1518_27527" style="mask-type:luminance" maskUnits="userSpaceOnUse" x="0" y="0" width="48" height="48">
<rect width="48" height="48" rx="4" fill="white"/>
</mask>
<g mask="url(#mask0_1518_27527)">
<path d="M40.6656 10.7342C40.4984 10.567 40.2197 10.4555 39.9967 10.4555C37.3213 10.3441 34.4787 10.567 31.8033 10.567L22.2164 10.6227C19.2623 10.6227 16.977 11.2359 14.7475 13.2424C13.2984 14.5801 11.9606 16.4195 10.9016 17.9801C10.7902 18.1473 10.7344 18.3703 10.7344 18.5932C10.7344 19.2063 11.2361 19.6523 11.7934 19.6523C12.4065 19.6523 12.5738 19.2621 12.8524 18.8162C13.1311 18.3703 13.5213 17.9244 13.9115 17.5342C15.3606 16.1408 17.4229 15.4162 19.4295 15.5834C17.7574 20.2654 15.3606 25.6719 11.9606 29.3506C10.5672 30.9113 8.17048 32.5277 7.6131 34.6457C7.05573 36.8195 9.28524 37.4326 11.0131 36.7637C13.1869 35.9277 14.4688 33.6982 15.5836 31.8031C16.9213 29.4063 18.0918 27.0096 19.1508 24.4457C20.2098 21.9932 21.2688 19.485 22.2721 17.0326C22.8852 15.5834 23.1082 15.5277 24.6131 15.5277H28.7934C27.2328 18.9277 25.7279 22.3834 24.3344 25.8949C23.2754 28.5703 21.3803 32.4162 22.718 35.3145C24.0557 38.1572 27.8459 37.0982 29.9082 35.649C32.0262 34.1998 33.3639 31.8031 34.5344 29.5736C34.7574 29.1834 34.9803 28.6818 34.8131 28.2359C34.6459 27.8457 34.2557 27.567 33.8098 27.567C32.8623 27.567 32.6393 28.7375 32.3606 29.4621C31.8033 30.6326 30.4656 31.7473 29.1279 31.5244C25.9508 31.0785 28.7934 25.449 29.3508 23.9441C29.9082 22.3834 30.577 20.8227 31.2459 19.3178C31.6361 18.426 31.9705 17.5342 32.4164 16.6982C32.9738 15.5834 32.9738 15.6391 34.2557 15.5834C35.3705 15.5277 38.4361 16.085 39.3836 15.4719C40.1082 14.9703 40.6098 13.1309 40.9443 11.7932C41.0557 11.3473 40.9443 10.9572 40.6656 10.7342Z" fill="white"/>
</g>
</svg>
