<svg width="48" height="48" viewBox="0 0 48 48" fill="none" xmlns="http://www.w3.org/2000/svg">
<rect width="48" height="48" rx="4" fill="#969492"/>
<mask id="mask0_1518_27531" style="mask-type:luminance" maskUnits="userSpaceOnUse" x="0" y="0" width="48" height="48">
<rect width="48" height="48" rx="4" fill="white"/>
</mask>
<g mask="url(#mask0_1518_27531)">
<path fill-rule="evenodd" clip-rule="evenodd" d="M10.1733 13.1201H37.8267C39.5833 13.1201 41 14.5368 41 16.2935V31.7068C41 33.4634 39.5833 34.8801 37.8267 34.8801H10.1733C8.41667 34.8801 7 33.4634 7 31.7068V16.2935C7 14.5368 8.41667 13.1201 10.1733 13.1201ZM10.1733 27.9668C12.27 27.9668 13.9133 29.6101 13.9133 31.7068H34.0867C34.0867 29.6101 35.73 27.9668 37.8267 27.9668V20.0335C35.73 20.0335 34.0867 18.3901 34.0867 16.2935H13.9133C13.9133 18.3901 12.27 20.0335 10.1733 20.0335V27.9668Z" fill="white"/>
<path d="M24 29.0435C26.9418 29.0435 29.3267 26.6586 29.3267 23.7168C29.3267 20.775 26.9418 18.3901 24 18.3901C21.0582 18.3901 18.6733 20.775 18.6733 23.7168C18.6733 26.6586 21.0582 29.0435 24 29.0435Z" fill="white"/>
</g>
</svg>
