<svg width="48" height="48" viewBox="0 0 48 48" fill="none" xmlns="http://www.w3.org/2000/svg">
<rect width="48" height="48" rx="4" fill="#969492"/>
<mask id="mask0_1518_27529" style="mask-type:luminance" maskUnits="userSpaceOnUse" x="0" y="0" width="48" height="48">
<rect width="48" height="48" rx="4" fill="white"/>
</mask>
<g mask="url(#mask0_1518_27529)">
<path d="M31.1967 32.3867C33.18 29.1567 32.7833 24.8501 29.95 22.0734C26.6633 18.7867 21.3367 18.7867 18.05 22.0734C15.2733 24.8501 14.82 29.1567 16.8033 32.3867H31.1967Z" fill="white"/>
<path fill-rule="evenodd" clip-rule="evenodd" d="M41 37.6V10.4C41 8.53 39.47 7 37.6 7H10.4C8.53 7 7 8.53 7 10.4V37.6C7 39.47 8.53 41 10.4 41H37.6C39.47 41 41 39.47 41 37.6ZM35.3333 36.41H12.6667C12.0433 36.41 11.5333 35.9 11.5333 35.2767V12.6667C11.5333 12.0433 12.0433 11.5333 12.6667 11.5333H35.3333C35.9567 11.5333 36.4667 12.0433 36.4667 12.6667V35.2767C36.4667 35.9 35.9567 36.41 35.3333 36.41Z" fill="white"/>
</g>
</svg>
