<svg width="48" height="48" viewBox="0 0 48 48" fill="none" xmlns="http://www.w3.org/2000/svg">
<rect width="48" height="48" rx="4" fill="#032E61"/>
<mask id="mask0_1518_27537" style="mask-type:luminance" maskUnits="userSpaceOnUse" x="0" y="0" width="48" height="48">
<rect width="48" height="48" rx="4" fill="white"/>
</mask>
<g mask="url(#mask0_1518_27537)">
<path d="M30.1019 27.9601V28.6378C30.1019 29.5002 29.4243 30.1779 28.5618 30.1779H16.4256C15.5632 30.1779 14.8855 29.5002 14.8855 28.6378V27.9601C14.8855 26.112 17.0417 25.0031 19.0746 24.1406C19.1362 24.1406 19.1978 24.079 19.2594 24.0174C19.3827 23.9558 19.5675 23.9558 19.7523 24.0174C20.5531 24.5718 21.4772 24.8799 22.4629 24.8799C23.4486 24.8799 24.3727 24.5718 25.1735 24.079C25.2967 23.9558 25.4815 23.9558 25.6664 24.079C25.728 24.079 25.7896 24.1406 25.8512 24.2022C27.9457 25.0031 30.1019 26.112 30.1019 27.9601Z" fill="white"/>
<path d="M22.5246 23.3397C24.6001 23.3397 26.2825 21.4642 26.2825 19.1506C26.2825 16.837 24.6001 14.9614 22.5246 14.9614C20.4492 14.9614 18.7667 16.837 18.7667 19.1506C18.7667 21.4642 20.4492 23.3397 22.5246 23.3397Z" fill="white"/>
<path fill-rule="evenodd" clip-rule="evenodd" d="M40.8827 22.6004C41.0675 23.0932 41.0675 23.6476 40.6363 24.0789L37.6176 27.1591C35.9543 33.9973 29.8554 39.0489 22.5244 39.0489C13.9614 39.0489 7 32.0875 7 23.5244C7 14.9614 13.9614 8 22.5244 8C30.7795 8 37.4944 14.4069 38.0489 22.5388L38.3569 22.2307C38.7265 21.8611 39.0961 21.7379 39.5274 21.7379C40.1434 21.7379 40.6363 22.0459 40.8827 22.6004ZM10.0803 23.5243C10.0803 30.3625 15.6247 35.9685 22.5245 35.9685C28.3769 35.9685 33.3053 31.9026 34.599 26.543L32.3812 24.3252C31.8268 23.7708 31.8268 22.9083 32.3196 22.2922C32.7509 21.7994 33.3669 21.6146 33.983 21.861C34.2294 21.9226 34.4142 22.0458 34.599 22.2306L34.907 22.5387C34.4142 16.1318 29.0546 11.0802 22.5245 11.0802C15.6863 11.0802 10.0803 16.6862 10.0803 23.5243Z" fill="white"/>
</g>
</svg>
