<svg width="48" height="48" viewBox="0 0 48 48" fill="none" xmlns="http://www.w3.org/2000/svg">
<rect width="48" height="48" rx="4" fill="#3C97DB"/>
<mask id="mask0_1518_27351" style="mask-type:luminance" maskUnits="userSpaceOnUse" x="0" y="0" width="48" height="48">
<rect width="48" height="48" rx="4" fill="white"/>
</mask>
<g mask="url(#mask0_1518_27351)">
<path d="M34.2 23.32C34.2 23.9433 33.69 24.4533 33.0666 24.4533H22.5266C21.9033 24.4533 21.3933 23.9433 21.3933 23.32V21.62C21.3933 20.9967 21.9033 20.4867 22.5266 20.4867H33.0666C33.69 20.4867 34.2 20.9967 34.2 21.62V23.32Z" fill="white"/>
<path d="M17.9934 23.32C17.9934 23.9433 17.4834 24.4533 16.86 24.4533H14.9334C14.31 24.4533 13.8 23.9433 13.8 23.32V21.62C13.8 20.9967 14.31 20.4867 14.9334 20.4867H16.86C17.4834 20.4867 17.9934 20.9967 17.9934 21.62V23.32Z" fill="white"/>
<path d="M17.9934 30.6867C17.9934 31.31 17.4834 31.82 16.86 31.82H14.9334C14.31 31.82 13.8 31.31 13.8 30.6867V28.9867C13.8 28.3633 14.31 27.8533 14.9334 27.8533H16.86C17.4834 27.8533 17.9934 28.3633 17.9934 28.9867V30.6867Z" fill="white"/>
<path d="M34.2 30.6867C34.2 31.31 33.69 31.82 33.0666 31.82H22.5266C21.9033 31.82 21.3933 31.31 21.3933 30.6867V28.9867C21.3933 28.3633 21.9033 27.8533 22.5266 27.8533H33.0666C33.69 27.8533 34.2 28.3633 34.2 28.9867V30.6867Z" fill="white"/>
<path fill-rule="evenodd" clip-rule="evenodd" d="M37.4867 7H10.5133C8.58667 7 7 8.58667 7 10.5133V37.4867C7 39.4133 8.58667 41 10.5133 41H37.4867C39.4133 41 41 39.4133 41 37.4867V10.5133C41 8.58667 39.4133 7 37.4867 7ZM22.5267 11.1933C22.5267 10.74 22.98 10.4 23.4333 10.4H36.6933C37.1467 10.4 37.4867 10.8533 37.4867 11.3067V13.0067C37.4867 13.46 37.0333 13.8 36.58 13.8H23.32C22.8667 13.8 22.5267 13.3467 22.5267 12.8933V11.1933ZM19.6933 12.1C19.6933 11.1367 18.9567 10.4 17.9933 10.4C17.03 10.4 16.2933 11.1367 16.2933 12.1C16.2933 13.0633 17.03 13.8 17.9933 13.8C18.9567 13.8 19.6933 13.0633 19.6933 12.1ZM12.1 10.4C13.0633 10.4 13.8 11.1367 13.8 12.1C13.8 13.0633 13.0633 13.8 12.1 13.8C11.1367 13.8 10.4 13.0633 10.4 12.1C10.4 11.1367 11.1367 10.4 12.1 10.4ZM36.6933 37.6C37.1467 37.6 37.6 37.26 37.6 36.8067V18.1067C37.6 17.6533 37.26 17.2 36.8067 17.2H11.3067C10.8533 17.2 10.4 17.54 10.4 17.9933V36.6933C10.4 37.1467 10.74 37.6 11.1933 37.6H13.8V36.2967C13.8 35.6733 14.31 35.1633 14.9333 35.1633H16.86C17.4833 35.1633 17.9933 35.6733 17.9933 36.2967V37.6H21.3933V36.2967C21.3933 35.6733 21.9033 35.1633 22.5267 35.1633H33.0667C33.69 35.1633 34.2 35.6733 34.2 36.2967V37.6H36.6933Z" fill="white"/>
</g>
</svg>
