<svg width="26" height="26" viewBox="0 0 26 26" fill="none" xmlns="http://www.w3.org/2000/svg">
<path fill-rule="evenodd" clip-rule="evenodd" d="M18.85 19.9C18.75 20.1 18.55 20.15 18.35 20.15H16C15.8 20.15 15.65 20 15.65 19.8C15.65 19.75 15.7 19.65 15.7 19.6L15.75 19.55L15.85 19.45L21 13.2C21.15 13 21.2 12.7 21.1 12.5C21.1 12.45 21.05 12.4 21.05 12.4L15.7 6.05C15.65 6 15.65 5.9 15.65 5.85C15.65 5.65 15.85 5.5 16 5.5H18.35C18.55 5.5 18.75 5.55 18.85 5.75L24.4 12.45C24.5 12.55 24.5 12.7 24.5 12.8C24.5 12.95 24.45 13.1 24.4 13.2L18.85 19.9ZM13.05 19.9C12.95 20.1 12.75 20.15 12.55 20.15H10.2C10 20.15 9.85 20 9.85 19.8C9.85 19.75 9.9 19.65 9.9 19.6L9.95 19.55L10.05 19.45L15.2 13.2C15.35 13 15.4 12.7 15.3 12.5C15.3 12.45 15.25 12.4 15.25 12.4L9.9 6.05C9.85 6 9.85 5.9 9.85 5.85C9.85 5.65 10.05 5.5 10.2 5.5H12.55C12.75 5.5 12.95 5.55 13.05 5.75L18.6 12.45C18.7 12.55 18.7 12.7 18.7 12.8C18.7 12.95 18.65 13.1 18.6 13.2L13.05 19.9ZM7.25 19.9C7.15 20.1 6.95 20.15 6.75 20.15H2.35C2.15 20.15 2 20 2 19.8C2 19.75 2.05 19.65 2.05 19.6L2.1 19.55L2.2 19.45L7.35 13.2C7.5 13 7.55 12.7 7.45 12.5C7.45 12.45 7.4 12.4 7.4 12.4L2.05 6.05C2 6 2 5.9 2 5.85C2 5.65 2.2 5.5 2.35 5.5H6.7C6.9 5.5 7.1 5.55 7.2 5.75L12.75 12.45C12.85 12.55 12.85 12.7 12.85 12.8C12.85 12.95 12.8 13.1 12.75 13.2L7.25 19.9Z" fill="#706E6B"/>
</svg>
