<svg width="26" height="26" viewBox="0 0 26 26" fill="none" xmlns="http://www.w3.org/2000/svg">
<path fill-rule="evenodd" clip-rule="evenodd" d="M14.1 10.525C13.9 10.325 13.6 10.325 13.4 10.525L1.45 22.475C0.85 23.075 0.85 23.975 1.45 24.575C2.05 25.175 2.95 25.175 3.55 24.575L15.5 12.625C15.7 12.425 15.7 12.125 15.5 11.925L14.1 10.525ZM17.6 10.525L19.2 8.925C19.5 8.625 19.5 8.175 19.2 7.875L18.15 6.825C17.85 6.525 17.4 6.525 17.1 6.825L15.5 8.425C15.3 8.625 15.3 8.925 15.5 9.125L16.9 10.525C17.1 10.725 17.4 10.725 17.6 10.525ZM5.2 5.825C7.1 6.425 8.6 7.875 9.2 9.825C9.3 10.125 9.7 10.125 9.8 9.825C10.4 7.925 11.85 6.425 13.8 5.825C14.1 5.725 14.1 5.325 13.8 5.225C11.9 4.625 10.4 3.175 9.8 1.225C9.7 0.925 9.3 0.925 9.2 1.225C8.6 3.125 7.15 4.625 5.2 5.225C4.95 5.325 4.95 5.725 5.2 5.825ZM24.8 15.275C23.1 14.725 21.8 13.425 21.25 11.725C21.15 11.475 20.8 11.475 20.7 11.725C20.15 13.425 18.85 14.725 17.15 15.275C16.9 15.375 16.9 15.725 17.15 15.825C18.85 16.375 20.15 17.675 20.7 19.375C20.8 19.625 21.15 19.625 21.25 19.375C21.8 17.675 23.1 16.375 24.8 15.825C25.05 15.725 25.05 15.325 24.8 15.275ZM19.15 4.225C20.45 4.625 21.4 5.575 21.8 6.875C21.85 7.075 22.15 7.075 22.2 6.875C22.6 5.575 23.55 4.625 24.85 4.225C25.05 4.175 25.05 3.875 24.85 3.825C23.55 3.425 22.6 2.475 22.2 1.175C22.15 0.975 21.85 0.975 21.8 1.175C21.4 2.475 20.45 3.425 19.15 3.825C18.95 3.875 18.95 4.175 19.15 4.225Z" fill="#706E6B"/>
</svg>
