<svg width="26" height="26" viewBox="0 0 26 26" fill="none" xmlns="http://www.w3.org/2000/svg">
<path fill-rule="evenodd" clip-rule="evenodd" d="M12.0375 3.0375L11.1875 2.1875C10.9375 1.9375 10.5875 1.9375 10.3375 2.1875L5.0375 7.4375L2.8875 5.3375C2.6375 5.0875 2.2875 5.0875 2.0375 5.3375L1.1875 6.1875C0.9375 6.4375 0.9375 6.7875 1.1875 7.0375L4.1375 9.9875C4.3875 10.2375 4.6875 10.3375 4.9875 10.3375C5.2875 10.3375 5.5875 10.2375 5.8375 9.9875L12.0375 3.8875C12.2375 3.6875 12.2375 3.2875 12.0375 3.0375ZM24.2375 8.7375H13.7875C13.3375 8.7375 12.9875 8.3875 12.9875 7.9375V6.3375C12.9875 5.8875 13.3375 5.5375 13.7875 5.5375H24.2375C24.6875 5.5375 25.0375 5.8875 25.0375 6.3375V7.9375C25.0375 8.3875 24.6875 8.7375 24.2375 8.7375ZM24.2375 15.8875H4.9375C4.4875 15.8875 4.1375 15.5375 4.1375 15.0875V13.4875C4.1375 13.0375 4.4875 12.6875 4.9375 12.6875H24.2375C24.6875 12.6875 25.0375 13.0375 25.0375 13.4875V15.0875C25.0375 15.5375 24.6875 15.8875 24.2375 15.8875ZM24.2375 23.0375H4.9375C4.4875 23.0375 4.1375 22.6875 4.1375 22.2375V20.6375C4.1375 20.1875 4.4875 19.8375 4.9375 19.8375H24.2375C24.6875 19.8375 25.0375 20.1875 25.0375 20.6375V22.2375C25.0375 22.6875 24.6875 23.0375 24.2375 23.0375Z" fill="#706E6B"/>
</svg>
