<svg width="26" height="26" viewBox="0 0 26 26" fill="none" xmlns="http://www.w3.org/2000/svg">
<path fill-rule="evenodd" clip-rule="evenodd" d="M24 1.75C24 1.35 23.65 1 23.25 1H7.75C7.35 1 7 1.35 7 1.75V4.25C7 4.65 7.35 5 7.75 5H23.25C23.65 5 24 4.65 24 4.25V1.75ZM5 7.75C5 7.35 4.65 7 4.25 7H2.75C2.35 7 2 7.35 2 7.75V14.25C2 14.65 2.35 15 2.75 15H4.25C4.65 15 5 14.65 5 14.25V7.75ZM5 17.75C5 17.35 4.65 17 4.25 17H2.75C2.35 17 2 17.35 2 17.75V24.25C2 24.65 2.35 25 2.75 25H4.25C4.65 25 5 24.65 5 24.25V17.75ZM14.5 7.75C14.5 7.35 14.15 7 13.75 7H7.75C7.35 7 7 7.35 7 7.75V9.25C7 9.65 7.35 10 7.75 10H13.75C14.15 10 14.5 9.65 14.5 9.25V7.75ZM24 7.75C24 7.35 23.65 7 23.25 7H17.25C16.85 7 16.5 7.35 16.5 7.75V9.25C16.5 9.65 16.85 10 17.25 10H23.25C23.65 10 24 9.65 24 9.25V7.75ZM14.5 12.75C14.5 12.35 14.15 12 13.75 12H7.75C7.35 12 7 12.35 7 12.75V14.25C7 14.65 7.35 15 7.75 15H13.75C14.15 15 14.5 14.65 14.5 14.25V12.75ZM24 12.75C24 12.35 23.65 12 23.25 12H17.25C16.85 12 16.5 12.35 16.5 12.75V14.25C16.5 14.65 16.85 15 17.25 15H23.25C23.65 15 24 14.65 24 14.25V12.75ZM14.5 17.75C14.5 17.35 14.15 17 13.75 17H7.75C7.35 17 7 17.35 7 17.75V19.25C7 19.65 7.35 20 7.75 20H13.75C14.15 20 14.5 19.65 14.5 19.25V17.75ZM24 17.75C24 17.35 23.65 17 23.25 17H17.25C16.85 17 16.5 17.35 16.5 17.75V19.25C16.5 19.65 16.85 20 17.25 20H23.25C23.65 20 24 19.65 24 19.25V17.75ZM14.5 22.75C14.5 22.35 14.15 22 13.75 22H7.75C7.35 22 7 22.35 7 22.75V24.25C7 24.65 7.35 25 7.75 25H13.75C14.15 25 14.5 24.65 14.5 24.25V22.75ZM24 22.75C24 22.35 23.65 22 23.25 22H17.25C16.85 22 16.5 22.35 16.5 22.75V24.25C16.5 24.65 16.85 25 17.25 25H23.25C23.65 25 24 24.65 24 24.25V22.75Z" fill="#706E6B"/>
</svg>
