<svg width="26" height="26" viewBox="0 0 26 26" fill="none" xmlns="http://www.w3.org/2000/svg">
<path fill-rule="evenodd" clip-rule="evenodd" d="M21.9071 22.025C19.1071 20.675 17.1071 18.275 16.1071 15.525C15.7071 14.525 15.4571 13.375 15.3571 12.375V10.625H20.7571C21.1571 10.625 21.4571 10.175 21.1571 9.725L14.0571 1.225C13.8071 0.925 13.2571 0.925 13.0571 1.225L6.15706 9.725C5.90706 10.025 6.15706 10.625 6.55706 10.625H12.0071V12.375C11.8571 13.425 11.6071 14.575 11.2571 15.525C10.2571 18.275 8.25706 20.675 5.45706 22.025C5.05706 22.175 4.90706 22.675 5.05706 23.025L5.70706 24.575C5.90706 24.975 6.35706 25.125 6.75706 24.875C9.75706 23.425 12.1571 21.125 13.6071 18.375C15.1071 21.125 17.4571 23.425 20.5071 24.875C20.9071 25.075 21.4071 25.025 21.5571 24.575L22.2071 23.025C22.5071 22.675 22.3071 22.225 21.9071 22.025Z" fill="#706E6B"/>
</svg>
