<svg width="26" height="26" viewBox="0 0 26 26" fill="none" xmlns="http://www.w3.org/2000/svg">
<path fill-rule="evenodd" clip-rule="evenodd" d="M22 3.5H19.5V2.5C19.5 1.7 18.85 1 18 1C17.2 1 16.5 1.65 16.5 2.5V3.5H9.5V2.5C9.5 1.7 8.85 1 8 1C7.2 1 6.5 1.65 6.5 2.5V3.5H4C2.9 3.5 2 4.4 2 5.5V6.75C2 7.15 2.35 7.5 2.75 7.5H23.25C23.65 7.5 24 7.15 24 6.75V5.5C24 4.4 23.1 3.5 22 3.5ZM23.25 10H2.75C2.35 10 2 10.35 2 10.75V23C2 24.1 2.9 25 4 25H22C23.1 25 24 24.1 24 23V10.75C24 10.35 23.65 10 23.25 10ZM10.55 22C9.35 22 8 21.55 7.6 20.9C7.55 20.8 7.5 20.7 7.5 20.55C7.5 20.1 7.9 19.75 8.3 19.75C8.45 19.75 8.6 19.8 8.75 19.85C9.3 20.15 9.95 20.35 10.5 20.35C11.5 20.35 12.05 19.9 12.05 19.3C12.05 18.65 11.55 18.35 10.4 18.35C9.75 18.45 9.3 18.15 9.3 17.55C9.3 17.1 9.6 16.8 10.1 16.8C11.15 16.85 11.9 16.6 11.9 15.9C11.9 15.25 11.25 14.95 10.4 14.95C9.85 14.95 9.3 15.1 8.8 15.4C8.7 15.5 8.55 15.5 8.4 15.5C8 15.5 7.65 15.2 7.65 14.75C7.65 14.55 7.75 14.35 7.9 14.2C8.55 13.65 9.45 13.3 10.6 13.3C12.5 13.3 13.7 14.15 13.7 15.55C13.7 16.6 12.8 17.25 11.9 17.45C12.75 17.55 13.8 18.2 13.8 19.4C13.75 21 12.5 22 10.55 22ZM18.5 21.05C18.5 21.5 18.25 22 17.75 22C17.3 22 17 21.55 17 21.05V15.9L15.95 16.85C15.8 17 15.6 17.05 15.4 17.05C15 17.05 14.65 16.75 14.65 16.3C14.65 16.1 14.7 15.95 14.85 15.8L16.75 13.9C16.95 13.7 17.2 13.55 17.5 13.55C18.05 13.55 18.5 14.05 18.5 14.6V21.05Z" fill="#706E6B"/>
</svg>
