<svg width="26" height="26" viewBox="0 0 26 26" fill="none" xmlns="http://www.w3.org/2000/svg">
<path fill-rule="evenodd" clip-rule="evenodd" d="M24.8125 12.6125L20.6625 8.1125C20.3625 7.8125 19.9625 8.0625 19.9625 8.5625V11.4625H14.9625C14.6625 11.4625 14.4625 11.2625 14.4625 10.9625V5.9625H17.4125C17.9125 5.9625 18.1625 5.5125 17.8625 5.2625L13.3625 1.1125C13.1625 0.9625 12.8625 0.9625 12.6625 1.1125L8.1625 5.2625C7.8625 5.5625 8.1125 5.9625 8.6125 5.9625H11.4625V10.9625C11.4625 11.2625 11.2625 11.4625 10.9625 11.4625H5.9625V8.5125C5.9625 8.0125 5.5125 7.7625 5.2625 8.0625L1.1125 12.5625C0.9625 12.7625 0.9625 13.0625 1.1125 13.2625L5.2625 17.7625C5.5625 18.0625 5.9625 17.8125 5.9625 17.3125V14.4625H10.9625C11.2625 14.4625 11.4625 14.6625 11.4625 14.9625V19.9625H8.5125C8.0125 19.9625 7.7625 20.4125 8.0625 20.6625L12.5625 24.8125C12.7625 24.9625 13.0625 24.9625 13.2625 24.8125L17.7625 20.6625C18.0625 20.3625 17.8125 19.9625 17.3125 19.9625H14.4625V14.9625C14.4625 14.6625 14.6625 14.4625 14.9625 14.4625H19.9625V17.4125C19.9625 17.9125 20.4125 18.1625 20.6625 17.8625L24.8125 13.3625C25.0125 13.1125 25.0125 12.8125 24.8125 12.6125Z" fill="#706E6B"/>
</svg>
