<svg width="26" height="26" viewBox="0 0 26 26" fill="none" xmlns="http://www.w3.org/2000/svg">
<path fill-rule="evenodd" clip-rule="evenodd" d="M24.6562 2.8L23.6063 1.75C23.3063 1.45 22.7563 1.5 22.4062 1.9L17.4062 6.9V4.95C17.4062 2.75 15.6562 1 13.4563 1H13.3562C11.1562 1 9.40625 2.75 9.40625 4.95V12.2C9.40625 12.95 9.60625 13.7 10.0063 14.3L8.25625 16.05C7.40625 15 6.90625 13.65 6.90625 12.2V10.2C6.90625 9.5 6.35625 9 5.65625 9C4.95625 9 4.40625 9.5 4.40625 10.2V12.2C4.40625 14.35 5.20625 16.3 6.50625 17.8L2.30625 22C1.95625 22.35 1.90625 22.9 2.15625 23.2L3.20625 24.25C3.50625 24.55 4.05625 24.5 4.40625 24.1L24.5063 4C24.9062 3.65 24.9562 3.1 24.6562 2.8ZM19.9062 11.6V12.2C19.9062 15.7 17.0062 18.6 13.4062 18.6H12.9563L11.0062 20.65C11.4062 20.75 11.9062 20.85 12.4062 20.95V22.5H10.1562C9.45625 22.5 8.90625 23.05 8.90625 23.75C8.90625 24.45 9.45625 25 10.1562 25H16.7063C17.4062 25 17.9563 24.45 17.9563 23.75C17.9563 23.05 17.3562 22.5 16.6562 22.5H14.4062V20.9C18.9062 20.3 22.4062 16.6 22.4062 12.2V10.2C22.4062 9.9 22.2563 9.6 22.1062 9.4L19.9062 11.6Z" fill="#706E6B"/>
</svg>
