<svg width="30" height="30" viewBox="0 0 30 30" fill="none" xmlns="http://www.w3.org/2000/svg">
<path d="M4.39062 0C3.07812 0 2 1.03125 2 2.34375V27.6094C2 28.9219 3.07812 30 4.39062 30H25.8594C27.1719 30 28.25 28.9219 28.25 27.6094V9.51562L19.3906 0H4.39062V0Z" fill="#8199AF"/>
<path d="M28.2499 9.5625V10.0312H22.2499C22.2499 10.0312 19.2968 9.42188 19.3437 6.84375C19.3437 6.84375 19.4843 9.5625 22.2031 9.5625H28.2499Z" fill="#617F9B"/>
<path opacity="0.5" d="M19.3906 0V6.84375C19.3906 7.59375 19.9062 9.5625 22.25 9.5625H28.25L19.3906 0Z" fill="white"/>
<path d="M14.4688 19.4531C14.9844 18.8906 14.9844 18.0469 14.4688 17.4844C13.9531 16.9219 13.0625 16.9688 12.5469 17.4844L8.23438 21.7969C7.71875 22.3125 7.71875 23.2031 8.23438 23.7188C8.75 24.2344 9.64062 24.2812 10.1562 23.7188L12.8281 21.0938C12.9688 20.9531 12.9688 20.7188 12.8281 20.5781C12.6875 20.4375 12.4062 20.3906 12.2656 20.5781L10.5781 22.2188C10.3438 22.4531 10.0156 22.4531 9.78125 22.2188C9.54688 21.9844 9.54688 21.6094 9.78125 21.375L11.4219 19.7344C12.0312 19.125 13.0156 19.125 13.625 19.7344C14.2344 20.3438 14.2344 21.3281 13.625 21.9375L11 24.5625C10.0156 25.5469 8.42188 25.5469 7.39062 24.5625C6.40625 23.5781 6.40625 21.9844 7.39062 21L11.7031 16.6875C12.6875 15.7031 14.3281 15.7031 15.3125 16.6875C16.2969 17.6719 16.2969 19.2656 15.3125 20.25L14.8906 20.6719C14.8438 20.25 14.7031 19.8281 14.4219 19.4531H14.4688Z" fill="white"/>
</svg>
