<svg width="30" height="30" viewBox="0 0 30 30" fill="none" xmlns="http://www.w3.org/2000/svg">
<path fill-rule="evenodd" clip-rule="evenodd" d="M4.39062 0C3.07812 0 2 1.07812 2 2.39062V27.6094C2 28.9219 3.07812 30 4.39062 30H25.8594C27.1719 30 28.25 28.9219 28.25 27.6094V9.51562L19.3438 0H4.39062V0Z" fill="#45B058"/>
<path fill-rule="evenodd" clip-rule="evenodd" d="M11.5156 20.25C11.5625 20.2969 11.6094 20.3906 11.6094 20.4844C11.6094 20.6719 11.4688 20.8125 11.2812 20.8125C11.1875 20.8125 11.0938 20.8125 11.0469 20.7188C10.7188 20.3438 10.1562 20.0625 9.64062 20.0625C8.42188 20.0625 7.48438 21 7.48438 22.3594C7.48438 23.6719 8.42188 24.6562 9.64062 24.6562C10.1562 24.6562 10.6719 24.4219 11.0469 24C11.0938 23.9531 11.1875 23.9062 11.2812 23.9062C11.4688 23.9062 11.6094 24.0469 11.6094 24.2344C11.6094 24.3281 11.5625 24.4219 11.5156 24.4688C11.0938 24.9375 10.4844 25.2656 9.64062 25.2656C8 25.2656 6.73438 24.0938 6.73438 22.3594C6.73438 20.625 8 19.4531 9.64062 19.4531C10.4844 19.4531 11.0938 19.7812 11.5156 20.25ZM14.7031 25.2656C13.8594 25.2656 13.2031 24.9844 12.7344 24.5625C12.6406 24.5156 12.6406 24.4219 12.6406 24.3281C12.6406 24.1406 12.7344 23.9531 12.9688 23.9531C13.0156 23.9531 13.1094 24 13.1562 24.0469C13.5312 24.375 14.0938 24.6562 14.75 24.6562C15.7344 24.6562 16.0625 24.0938 16.0625 23.6719C16.0625 23.0046 15.3607 22.8118 14.6017 22.6032C13.7078 22.3576 12.7344 22.0901 12.7344 21C12.7344 20.1094 13.5312 19.4531 14.6562 19.4531C15.3594 19.4531 16.0156 19.6875 16.4844 20.0625C16.5312 20.1094 16.5781 20.2031 16.5781 20.2969C16.5781 20.4844 16.4375 20.625 16.25 20.625C16.2031 20.625 16.1094 20.625 16.0625 20.5781C15.6406 20.25 15.125 20.0625 14.6094 20.0625C13.9062 20.0625 13.4375 20.4375 13.4375 20.9531C13.4375 21.5056 14.0716 21.6829 14.7862 21.8828C15.7088 22.1408 16.7656 22.4363 16.7656 23.625C16.7656 24.4219 16.2031 25.2656 14.7031 25.2656ZM20.7031 24.8438L22.6719 20.0156C22.6719 19.9922 22.6836 19.9688 22.6953 19.9453C22.707 19.9219 22.7188 19.8984 22.7188 19.875C22.7188 19.6875 22.5312 19.5 22.2969 19.5C22.1562 19.5 22.0156 19.5938 21.9688 19.7344L20.1406 24.4219L18.3125 19.7344C18.2656 19.5938 18.125 19.5 17.9844 19.5C17.75 19.5 17.6094 19.6875 17.6094 19.875C17.6094 19.9219 17.6094 19.9688 17.6562 20.0156L19.5781 24.8438C19.6719 25.0781 19.9062 25.2188 20.1406 25.2188H20.1875C20.4219 25.2188 20.6094 25.0781 20.7031 24.8438Z" fill="white"/>
<path d="M28.25 9.5625V10.0312H22.25C22.25 10.0312 19.2969 9.42188 19.3906 6.84375C19.3906 6.84375 19.4844 9.5625 22.2031 9.5625H28.25Z" fill="#349C42"/>
<path opacity="0.5" d="M19.3906 0V6.84375C19.3906 7.59375 19.9062 9.5625 22.25 9.5625H28.25L19.3906 0Z" fill="white"/>
</svg>
