<svg width="30" height="30" viewBox="0 0 30 30" fill="none" xmlns="http://www.w3.org/2000/svg">
<path fill-rule="evenodd" clip-rule="evenodd" d="M4.39062 0C3.07812 0 2 1.07812 2 2.39062V27.6094C2 28.9219 3.07812 30 4.39062 30H25.8594C27.1719 30 28.25 28.9219 28.25 27.6094V9.51562L19.3906 0H4.39062V0Z" fill="#8199AF"/>
<path d="M28.2499 9.5625V10.0312H22.2499C22.2499 10.0312 19.2968 9.42188 19.3437 6.89062C19.3437 6.89062 19.4374 9.5625 22.1562 9.5625H28.2499Z" fill="#617F9B"/>
<path opacity="0.5" d="M19.3906 0V6.84375C19.3906 7.59375 19.9062 9.5625 22.25 9.5625H28.25L19.3906 0Z" fill="white"/>
<path fill-rule="evenodd" clip-rule="evenodd" d="M15.875 25.3125C15.7344 25.3125 15.6406 25.3125 15.5938 25.2188L13.8594 22.875L12.0781 25.2188C12.0312 25.3125 11.9375 25.3125 11.8438 25.3125C11.6562 25.3125 11.5156 25.1719 11.5156 24.9844C11.5156 24.9375 11.5156 24.8438 11.5625 24.7969L13.3906 22.4062L11.7031 20.1094C11.6562 20.0625 11.6094 20.0156 11.6094 19.9219C11.6094 19.7812 11.75 19.5938 11.9844 19.5938C12.0781 19.5938 12.1719 19.6406 12.2188 19.7344L13.8594 21.8906L15.4531 19.7344C15.5 19.6406 15.5938 19.5938 15.7344 19.5938C15.875 19.5938 16.0625 19.7344 16.0625 19.9219C16.0625 20.0156 16.0625 20.0625 16.0156 20.1094L14.3281 22.3594L16.1094 24.7969C16.1562 24.8438 16.2031 24.9375 16.2031 24.9844C16.2031 25.1719 16.0156 25.3125 15.875 25.3125ZM10.2031 25.2656H7.25C6.96875 25.2656 6.73438 25.0312 6.73438 24.75V20.1562C6.73438 19.875 6.96875 19.6406 7.25 19.6406H10.2031C10.3438 19.6406 10.4844 19.7812 10.4844 19.9688C10.4844 20.1562 10.3438 20.25 10.2031 20.25H7.4375V22.0781H10.1094C10.2969 22.0781 10.4375 22.2188 10.4375 22.4062C10.4375 22.5938 10.2969 22.6875 10.1094 22.6875H7.4375V24.6562H10.2031C10.3438 24.6562 10.4844 24.7969 10.4844 24.9375C10.4844 25.125 10.3438 25.2656 10.2031 25.2656ZM17.9844 25.2656H20.8906C21.0781 25.2656 21.2188 25.125 21.2188 24.9375C21.2188 24.7969 21.0781 24.6562 20.8906 24.6562H18.1719V22.6875H20.8438C21.0312 22.6875 21.1719 22.5938 21.1719 22.4062C21.1719 22.2188 21.0312 22.0781 20.8438 22.0781H18.1719V20.25H20.8906C21.0781 20.25 21.2188 20.1562 21.2188 19.9688C21.2188 19.7812 21.0781 19.6406 20.8906 19.6406H17.9844C17.7031 19.6406 17.4688 19.875 17.4688 20.1562V24.75C17.4688 25.0312 17.7031 25.2656 17.9844 25.2656Z" fill="white"/>
</svg>
