<svg width="30" height="30" viewBox="0 0 30 30" fill="none" xmlns="http://www.w3.org/2000/svg">
<path fill-rule="evenodd" clip-rule="evenodd" d="M4.39062 0C3.07812 0 2 1.07812 2 2.39062V27.6094C2 28.9219 3.07812 30 4.39062 30H25.8594C27.1719 30 28.25 28.9219 28.25 27.6094V9.51562L19.3906 0H4.39062V0Z" fill="#3C8CEA"/>
<path fill-rule="evenodd" clip-rule="evenodd" d="M16.8594 17.5312H6.73438V18.5156H16.8594V17.5312ZM16.8594 19.7812H6.73438V20.7656H16.8594V19.7812ZM6.73438 22.0312H16.8594V23.0156H6.73438V22.0312ZM12.5 24.2812H6.73438V25.2656H12.5V24.2812Z" fill="white"/>
<path d="M28.25 9.5625V10.0312H22.25C22.25 10.0312 19.25 9.42188 19.3437 6.89062C19.3437 6.89062 19.4375 9.5625 22.1562 9.5625H28.25Z" fill="#2D6FE4"/>
<path opacity="0.5" d="M19.3906 0V6.84375C19.3906 7.59375 19.9062 9.5625 22.25 9.5625H28.25L19.3906 0Z" fill="white"/>
</svg>
