<svg width="30" height="30" viewBox="0 0 30 30" fill="none" xmlns="http://www.w3.org/2000/svg">
<path d="M4.39062 0C3.07812 0 2 1.03125 2 2.34375V27.6094C2 28.9219 3.07812 30 4.39062 30H25.8594C27.1719 30 28.25 28.9219 28.25 27.6094V9.51562L19.3906 0H4.39062V0Z" fill="#673AB7"/>
<path d="M28.2499 9.5625V10.0312H22.2499C22.2499 10.0312 19.2968 9.42188 19.3437 6.84375C19.3437 6.84375 19.4843 9.5625 22.2031 9.5625H28.2499Z" fill="#45317C"/>
<path opacity="0.5" d="M19.3906 0V6.84375C19.3906 7.59375 19.9062 9.5625 22.25 9.5625H28.25L19.3906 0Z" fill="white"/>
<path fill-rule="evenodd" clip-rule="evenodd" d="M7.625 18.1406C7.8125 18.1406 7.95312 18.2812 7.95312 18.4688V19.0781C7.95312 19.2656 7.8125 19.4062 7.625 19.4062H7.01562C6.82812 19.4062 6.6875 19.2656 6.6875 19.0781V18.4688C6.6875 18.2812 6.82812 18.1406 7.01562 18.1406H7.625ZM16.4375 18.1406C16.625 18.1406 16.7656 18.2812 16.7656 18.4688V19.0781C16.7656 19.2656 16.625 19.4062 16.4375 19.4062H9.07812C8.89062 19.4062 8.75 19.2656 8.75 19.0781V18.4688C8.75 18.2812 8.89062 18.1406 9.07812 18.1406H16.4375ZM7.95312 21.4219C7.95312 21.2344 7.8125 21.0938 7.625 21.0938H7.01562C6.82812 21.0938 6.6875 21.2344 6.6875 21.4219V22.0312C6.6875 22.2188 6.82812 22.3594 7.01562 22.3594H7.625C7.8125 22.3594 7.95312 22.2188 7.95312 22.0312V21.4219ZM16.3906 21.0938C16.5781 21.0938 16.7656 21.2344 16.7656 21.4219V22.0312C16.7656 22.2188 16.5781 22.3594 16.3906 22.3594H9.125C8.9375 22.3594 8.75 22.2188 8.75 22.0312V21.4219C8.75 21.2344 8.9375 21.0938 9.125 21.0938H16.3906ZM7.95312 24.3281C7.95312 24.1406 7.8125 24 7.625 24H7.01562C6.82812 24 6.6875 24.1406 6.6875 24.3281V24.9375C6.6875 25.125 6.82812 25.2656 7.01562 25.2656H7.625C7.8125 25.2656 7.95312 25.125 7.95312 24.9375V24.3281ZM16.4375 24C16.625 24 16.7656 24.1406 16.7656 24.3281V24.9375C16.7656 25.125 16.625 25.2656 16.4375 25.2656H9.07812C8.89062 25.2656 8.75 25.125 8.75 24.9375V24.3281C8.75 24.1406 8.89062 24 9.07812 24H16.4375Z" fill="white"/>
</svg>
