<svg width="30" height="30" viewBox="0 0 30 30" fill="none" xmlns="http://www.w3.org/2000/svg">
<path fill-rule="evenodd" clip-rule="evenodd" d="M4.39062 0C3.07812 0 2.04688 1.07812 2.04688 2.39062V27.6094C2.04688 28.9219 3.07812 30 4.39062 30H25.8594C27.1719 30 28.25 28.9219 28.25 27.6094V9.51562L19.3906 0H4.39062V0Z" fill="#F7622C"/>
<path d="M28.2499 9.5625V10.0312H22.2499C22.2499 10.0312 19.2968 9.42188 19.3437 6.84375C19.3437 6.84375 19.4843 9.5625 22.2031 9.5625H28.2499Z" fill="#F54921"/>
<path opacity="0.5" d="M19.3906 0V6.84375C19.3906 7.59375 19.9062 9.5625 22.25 9.5625H28.25L19.3906 0Z" fill="white"/>
<path fill-rule="evenodd" clip-rule="evenodd" d="M14.8438 18.6562L12.7812 24.8906C12.6875 25.0781 12.5469 25.1719 12.3594 25.1719C12.0781 25.1719 11.8906 24.9844 11.8906 24.75C11.8906 24.7266 11.9023 24.7031 11.9141 24.6797C11.9258 24.6562 11.9375 24.6328 11.9375 24.6094L14 18.4219C14.0938 18.2344 14.2344 18.0938 14.4219 18.0938C14.7031 18.0938 14.8438 18.2812 14.8438 18.5156V18.6562ZM10.8594 23.8125H10.7188L7.15625 22.2188C6.92188 22.125 6.78125 21.8906 6.78125 21.6094C6.78125 21.375 6.92188 21.1406 7.15625 21.0469L10.7188 19.4531C10.7422 19.4531 10.7656 19.4414 10.7891 19.4297C10.8125 19.418 10.8359 19.4062 10.8594 19.4062C11.0938 19.4062 11.2812 19.5938 11.2812 19.8281C11.2812 20.0156 11.1875 20.1562 11.0469 20.25L7.76562 21.6562L11.0469 23.0156C11.1875 23.1094 11.2812 23.25 11.2812 23.4375C11.2812 23.6719 11.0938 23.8125 10.8594 23.8125ZM16.0625 23.8125L19.625 22.2188C19.8594 22.125 20 21.8906 20 21.6094C20 21.375 19.8594 21.1406 19.625 21.0469L16.0625 19.4531C16.0391 19.4531 16.0156 19.4414 15.9922 19.4297C15.9688 19.418 15.9453 19.4062 15.9219 19.4062C15.6875 19.4062 15.5 19.5938 15.5 19.8281C15.5 20.0156 15.5938 20.1562 15.7344 20.25L19.0625 21.6562L15.7344 23.0156C15.5938 23.1094 15.5 23.25 15.5 23.4375C15.5 23.6719 15.6875 23.8125 15.9219 23.8125H16.0625Z" fill="white"/>
</svg>
