<svg width="30" height="30" viewBox="0 0 30 30" fill="none" xmlns="http://www.w3.org/2000/svg">
<path fill-rule="evenodd" clip-rule="evenodd" d="M4.39062 0C3.07812 0 2.04688 1.07812 2.04688 2.39062V27.6094C2.04688 28.9219 3.07812 30 4.39062 30H25.8594C27.1719 30 28.25 28.9219 28.25 27.6094V9.51562L19.3906 0H4.39062V0Z" fill="#DB7A2A"/>
<path d="M28.2499 9.5625V10.0312H22.2499C22.2499 10.0312 19.2968 9.42188 19.3437 6.84375C19.3437 6.84375 19.4843 9.5625 22.2031 9.5625H28.2499Z" fill="#D25B1F"/>
<path opacity="0.5" d="M19.3906 0V6.84375C19.3906 7.59375 19.9062 9.5625 22.25 9.5625H28.25L19.3906 0Z" fill="white"/>
<path fill-rule="evenodd" clip-rule="evenodd" d="M10.3438 25.3125C10.25 25.3125 10.1562 25.2656 10.1094 25.2188L8.04688 22.7344L7.4375 23.3906V24.9844C7.4375 25.1719 7.29688 25.3125 7.10938 25.3125C6.92188 25.3125 6.73438 25.1719 6.73438 24.9844V19.9219C6.73438 19.7344 6.92188 19.5938 7.10938 19.5938C7.29688 19.5938 7.4375 19.7344 7.4375 19.9219V22.5469L9.875 19.6875C9.96875 19.6406 10.0625 19.5938 10.1094 19.5938C10.2969 19.5938 10.4844 19.7344 10.4844 19.9219C10.4844 19.9688 10.4375 20.0625 10.3906 20.1094L8.46875 22.3125L10.625 24.7969C10.6719 24.8438 10.6719 24.8906 10.6719 24.9844C10.6719 25.125 10.5312 25.3125 10.3438 25.3125ZM15.4531 25.2656H12.5469C12.2656 25.2656 12.0312 25.0312 12.0312 24.75V20.1562C12.0312 19.875 12.2656 19.6406 12.5469 19.6406H15.4531C15.6406 19.6406 15.7812 19.7812 15.7812 19.9688C15.7812 20.1094 15.6406 20.25 15.4531 20.25H12.7344V22.0781H15.4062C15.5938 22.0781 15.7344 22.2188 15.7344 22.4062C15.7344 22.5469 15.5938 22.6875 15.4062 22.6875H12.7344V24.6562H15.4531C15.6406 24.6562 15.7812 24.75 15.7812 24.9375C15.7812 25.125 15.6406 25.2656 15.4531 25.2656ZM19.3906 22.875L21.2656 20.1094C21.3125 20.0625 21.3125 19.9688 21.3125 19.9219C21.3125 19.7344 21.1719 19.5938 20.9844 19.5938C20.8906 19.5938 20.75 19.6406 20.7031 19.7344L19.0156 22.2656L17.375 19.7344C17.2812 19.6406 17.1875 19.5938 17.0469 19.5938C16.8594 19.5938 16.7188 19.7344 16.7188 19.9219C16.7188 19.9453 16.7305 19.9805 16.7422 20.0156C16.7539 20.0508 16.7656 20.0859 16.7656 20.1094L18.6875 22.875V24.9844C18.6875 25.1719 18.8281 25.3125 19.0156 25.3125C19.25 25.3125 19.3906 25.1719 19.3906 24.9844V22.875Z" fill="white"/>
</svg>
