<svg width="30" height="30" viewBox="0 0 30 30" fill="none" xmlns="http://www.w3.org/2000/svg">
<path fill-rule="evenodd" clip-rule="evenodd" d="M4.4375 0C3.125 0 2.04688 1.07812 2.04688 2.39062V27.6094C2.04688 28.9219 3.07812 30 4.4375 30H25.8594C27.1719 30 28.25 28.9219 28.25 27.6094V9.51562L19.3906 0H4.4375V0Z" fill="#0C8FE8"/>
<path d="M28.2499 9.5625V10.0312H22.2499C22.2499 10.0312 19.2968 9.42188 19.3437 6.84375C19.3437 6.84375 19.4843 9.5625 22.2031 9.5625H28.2499Z" fill="#0973E2"/>
<path opacity="0.5" d="M19.3906 0V6.84375C19.3906 7.59375 19.9062 9.5625 22.25 9.5625H28.25L19.3906 0Z" fill="white"/>
<path fill-rule="evenodd" clip-rule="evenodd" d="M11.7031 16.6875C12.6875 15.7031 14.2812 15.7031 15.2656 16.6875C16.2031 17.6719 16.2031 19.2656 15.2188 20.25L13.9531 21.5156C14 21.0469 13.9062 20.5781 13.7656 20.1094L14.4219 19.4062C14.9375 18.8906 14.9375 18.0469 14.4219 17.4844C13.9062 16.9688 13.0625 16.9688 12.5469 17.4844L11.0938 18.9375C10.5781 19.4531 10.5781 20.2969 11.0938 20.8594C11.3281 21.0938 11.3281 21.4219 11.0938 21.6562C10.8594 21.8906 10.4844 21.8906 10.25 21.6562C9.3125 20.6719 9.3125 19.0781 10.25 18.1406L11.7031 16.6875ZM11.6094 20.2969C11.4219 20.0625 11.4219 19.6875 11.6094 19.5C11.8438 19.2656 12.2188 19.2656 12.4531 19.5C13.4375 20.4844 13.4375 22.0312 12.4531 23.0156L11 24.4688C10.0625 25.4531 8.46875 25.4531 7.48438 24.4688C6.5 23.4844 6.5 21.8906 7.48438 20.9062L8.79688 19.5938C8.75 20.1094 8.79688 20.5781 8.98438 21.0469L8.28125 21.75C7.76562 22.2656 7.76562 23.1094 8.28125 23.625C8.84375 24.1406 9.6875 24.1406 10.2031 23.625L11.6094 22.2188C12.1719 21.7031 12.1719 20.8125 11.6094 20.2969Z" fill="white"/>
</svg>
