<svg width="30" height="30" viewBox="0 0 30 30" fill="none" xmlns="http://www.w3.org/2000/svg">
<path d="M4.39062 0C3.07812 0 2 1.07812 2 2.39062V27.6094C2 28.9219 3.07812 30 4.39062 30H25.8594C27.1719 30 28.25 28.9219 28.25 27.6094V9.51562L19.3906 0H4.39062V0Z" fill="#9B64B2"/>
<path d="M28.2499 9.5625V10.0312H22.2499C22.2499 10.0312 19.2968 9.42188 19.3437 6.84375C19.3437 6.84375 19.4843 9.5625 22.2031 9.5625H28.2499Z" fill="#824B9E"/>
<path opacity="0.5" d="M19.3906 0V6.84375C19.3906 7.59375 19.9062 9.5625 22.25 9.5625H28.25L19.3906 0Z" fill="white"/>
<path fill-rule="evenodd" clip-rule="evenodd" d="M11.8906 25.2656C11.7031 25.2656 11.5625 25.125 11.5625 24.8906V20.5781L9.6875 25.125C9.64062 25.2188 9.59375 25.2656 9.5 25.2656C9.40625 25.2656 9.35938 25.2188 9.3125 25.125L7.4375 20.5781V24.8906C7.4375 25.125 7.29688 25.2656 7.10938 25.2656C6.92188 25.2656 6.73438 25.125 6.73438 24.8906V20.1094C6.73438 19.7812 7.01562 19.5469 7.34375 19.5469C7.57812 19.5469 7.8125 19.6875 7.90625 19.875L9.5 23.8125L11.1406 19.875C11.2344 19.6875 11.4219 19.5469 11.6562 19.5469C11.9844 19.5469 12.2656 19.7812 12.2656 20.1094V24.8906C12.2656 25.125 12.125 25.2656 11.8906 25.2656ZM16.0625 22.9688H14.4688V24.8906C14.4688 25.125 14.3281 25.2656 14.1406 25.2656C13.9531 25.2656 13.7656 25.125 13.7656 24.8906V20.0625C13.7656 19.7812 14 19.5938 14.2812 19.5938H16.0625C17.1875 19.5938 17.7969 20.3438 17.7969 21.2812C17.7969 22.1719 17.1406 22.9688 16.0625 22.9688ZM14.4688 20.2031H15.9688C16.625 20.2031 17.0938 20.625 17.0938 21.2812C17.0938 21.8906 16.625 22.3594 15.9688 22.3594H14.4688V20.2031ZM22.4844 23.7656H21.9219V24.8906C21.9219 25.125 21.7812 25.2656 21.5938 25.2656C21.4062 25.2656 21.2188 25.125 21.2188 24.8906V23.7656H18.875C18.6875 23.7656 18.5 23.625 18.5 23.3906C18.5 23.3438 18.5469 23.25 18.5938 23.1562L20.8438 19.7812C20.9375 19.6406 21.125 19.5469 21.3594 19.5469C21.6406 19.5469 21.9219 19.7812 21.9219 20.1094V23.1562H22.4844C22.625 23.1562 22.7656 23.2969 22.7656 23.4844C22.7656 23.625 22.625 23.7656 22.4844 23.7656ZM19.25 23.1562L21.2188 20.2031V23.1562H19.25Z" fill="white"/>
</svg>
