<svg width="30" height="30" viewBox="0 0 30 30" fill="none" xmlns="http://www.w3.org/2000/svg">
<path fill-rule="evenodd" clip-rule="evenodd" d="M4.4375 0C3.125 0 2.04688 1.07812 2.04688 2.39062V27.6094C2.04688 28.9219 3.07812 30 4.4375 30H25.8594C27.1719 30 28.25 28.9219 28.25 27.6094V9.51562L19.3906 0H4.4375V0Z" fill="#A382D8"/>
<path d="M28.2499 9.5625V10.0312H22.2499C22.2499 10.0312 19.2968 9.42188 19.3437 6.84375C19.3437 6.84375 19.4843 9.5625 22.2031 9.5625H28.2499Z" fill="#8C62CE"/>
<path opacity="0.5" d="M19.3906 0V6.84375C19.3906 7.59375 19.9062 9.5625 22.25 9.5625H28.25L19.3906 0Z" fill="white"/>
<path fill-rule="evenodd" clip-rule="evenodd" d="M6.73438 22.7812V16.1719H13.625V18.7031H9.26562V22.7812H6.73438ZM9.26562 22.7812V25.2656H16.1562V18.7031H13.625V22.7812H9.26562Z" fill="white"/>
<path d="M9.26562 18.7031H13.625V22.7812H9.26562V18.7031Z" fill="#CBBBEF"/>
</svg>
