<svg width="30" height="30" viewBox="0 0 30 30" fill="none" xmlns="http://www.w3.org/2000/svg">
<path d="M2.39062 0C1.07812 0 0 1.07812 0 2.39062V27.6094C0 28.9219 1.07812 30 2.39062 30H23.8125C25.125 30 26.2031 28.9219 26.2031 27.6094V9.51562L17.3438 0H2.39062V0Z" fill="#DDD965"/>
<path d="M26.2499 9.5625V10.0312H20.2499C20.2499 10.0312 17.2968 9.42188 17.3437 6.84375C17.3437 6.84375 17.4843 9.5625 20.2031 9.5625H26.2499Z" fill="#C1BC45"/>
<path opacity="0.5" d="M17.3906 0V6.84375C17.3906 7.59375 17.9062 9.5625 20.25 9.5625H26.25L17.3906 0Z" fill="white"/>
<path d="M13.7812 16.3125H5.53125C5.10938 16.3125 4.78125 16.6406 4.78125 17.0625V24.5625C4.78125 24.9375 5.10938 25.2656 5.53125 25.2656H11.6719L14.5312 22.4531V17.0625C14.5312 16.6406 14.2031 16.3125 13.7812 16.3125Z" fill="white"/>
<path fill-rule="evenodd" clip-rule="evenodd" d="M6.42188 18.75H12.8438V19.5H6.42188V18.75ZM6.42188 20.4375H12.8438V21.1875H6.42188V20.4375ZM10.5938 22.0781H6.42188V22.875H10.5938V22.0781Z" fill="#DBD75D"/>
</svg>
