<svg width="30" height="30" viewBox="0 0 30 30" fill="none" xmlns="http://www.w3.org/2000/svg">
<path fill-rule="evenodd" clip-rule="evenodd" d="M4.4375 0C3.125 0 2.04688 1.03125 2.04688 2.34375V27.6094C2.04688 28.9219 3.07812 30 4.4375 30H25.8594C27.1719 30 28.25 28.9219 28.25 27.6094V9.51562L19.3906 0H4.4375V0Z" fill="#F9CA06"/>
<path d="M28.25 9.51562V9.98438H22.25C22.25 9.98438 19.2969 9.42188 19.3906 6.84375C19.3906 6.84375 19.4844 9.51562 22.2031 9.51562H28.25Z" fill="#F7BC04"/>
<path opacity="0.5" d="M19.3906 0V6.79688C19.3906 7.59375 19.9062 9.51562 22.25 9.51562H28.25L19.3906 0Z" fill="white"/>
<path fill-rule="evenodd" clip-rule="evenodd" d="M16.2969 25.2188C16.1562 25.2188 16.0625 25.2188 16.0156 25.125L14.2812 22.7812L12.5 25.125C12.4531 25.2188 12.3594 25.2188 12.2656 25.2188C12.0781 25.2188 11.9375 25.0781 11.9375 24.8906C11.9375 24.8438 11.9375 24.75 11.9844 24.7031L13.8125 22.3125L12.125 20.0156C12.0781 19.9688 12.0781 19.9219 12.0781 19.8281C12.0781 19.6875 12.1719 19.5 12.4062 19.5C12.5 19.5 12.5938 19.5469 12.6875 19.6406L14.2812 21.7969L15.875 19.6406C15.9688 19.5469 16.0625 19.5 16.1562 19.5C16.3438 19.5 16.4844 19.6406 16.4844 19.8281C16.4844 19.9219 16.4844 19.9688 16.4375 20.0156L14.75 22.2656L16.5781 24.7031C16.5781 24.7266 16.5898 24.7617 16.6016 24.7969C16.6133 24.832 16.625 24.8672 16.625 24.8906C16.625 25.0781 16.4844 25.2188 16.2969 25.2188ZM10.8125 20.1562H9.26562V24.8906C9.26562 25.0781 9.125 25.2188 8.89062 25.2188C8.70312 25.2188 8.5625 25.0781 8.5625 24.8906V20.1562H7.01562C6.875 20.1562 6.73438 20.0625 6.73438 19.875C6.73438 19.6875 6.875 19.5469 7.01562 19.5469H10.8125C10.9531 19.5469 11.0938 19.6875 11.0938 19.875C11.0938 20.0625 10.9531 20.1562 10.8125 20.1562ZM20 20.1562H21.5469C21.6875 20.1562 21.8281 20.0625 21.8281 19.875C21.8281 19.6875 21.6875 19.5469 21.5469 19.5469H17.75C17.6094 19.5469 17.4688 19.6875 17.4688 19.875C17.4688 20.0625 17.6094 20.1562 17.75 20.1562H19.2969V24.8906C19.2969 25.0781 19.4375 25.2188 19.625 25.2188C19.8594 25.2188 20 25.0781 20 24.8906V20.1562Z" fill="white"/>
</svg>
