<svg width="30" height="30" viewBox="0 0 30 30" fill="none" xmlns="http://www.w3.org/2000/svg">
<path fill-rule="evenodd" clip-rule="evenodd" d="M4.4375 0C3.125 0 2.04688 1.07812 2.04688 2.39062V27.6094C2.04688 28.9219 3.125 30 4.4375 30H25.8594C27.1719 30 28.25 28.9219 28.25 27.6094V9.51562L19.3906 0H4.4375V0Z" fill="#8E4C9E"/>
<path d="M28.2499 9.5625V10.0312H22.2499C22.2499 10.0312 19.2968 9.42188 19.3437 6.84375C19.3437 6.84375 19.4843 9.5625 22.2031 9.5625H28.2499Z" fill="#713985"/>
<path opacity="0.5" d="M19.3906 0V6.84375C19.3906 7.59375 19.9062 9.5625 22.25 9.5625H28.25L19.3906 0Z" fill="white"/>
<path d="M13.4844 21.3281C13.4844 21.5156 13.4375 21.7031 13.2969 21.7969C13.2031 21.8906 10.8125 23.8594 7.71875 25.125C7.67188 25.1719 7.57812 25.1719 7.48438 25.1719C7.39062 25.1719 7.29688 25.125 7.20312 25.0781C7.01562 24.9844 6.92188 24.8438 6.875 24.6094C6.875 24.5625 6.73438 23.0156 6.73438 21.3281C6.73438 19.6406 6.875 18.1406 6.875 18.0469C6.92188 17.8594 7.01562 17.7188 7.20312 17.5781C7.29688 17.5312 7.39062 17.4844 7.48438 17.4844C7.57812 17.4844 7.67188 17.5312 7.71875 17.5781C10.8125 18.7969 13.2031 20.8125 13.2969 20.9062C13.4375 21 13.4844 21.1875 13.4844 21.3281Z" fill="white"/>
</svg>
