<svg width="30" height="30" viewBox="0 0 30 30" fill="none" xmlns="http://www.w3.org/2000/svg">
<path fill-rule="evenodd" clip-rule="evenodd" d="M4.39062 0C3.07812 0 2 1.07812 2 2.39062V27.6094C2 28.9219 3.07812 30 4.39062 30H25.8594C27.1719 30 28.25 28.9219 28.25 27.6094V9.51562L19.3906 0H4.39062V0Z" fill="#496AB3"/>
<path d="M28.2499 9.5625V10.0312H22.2499C22.2499 10.0312 19.2968 9.42188 19.3437 6.84375C19.3437 6.84375 19.4843 9.5625 22.2031 9.5625H28.2499Z" fill="#374FA0"/>
<path opacity="0.5" d="M19.3906 0V6.84375C19.3906 7.59375 19.9062 9.5625 22.25 9.5625H28.25L19.3906 0Z" fill="white"/>
<path fill-rule="evenodd" clip-rule="evenodd" d="M15.0312 24.5625C15.5 24.9844 16.1562 25.2656 17 25.2656C18.5 25.2656 19.0625 24.4688 19.0625 23.625C19.0625 22.4363 18.0057 22.1557 17.0831 21.9106C16.3685 21.7208 15.7344 21.5524 15.7344 21C15.7344 20.4375 16.2031 20.1094 16.8594 20.1094C17.375 20.1094 17.8906 20.25 18.3125 20.5781C18.3376 20.5907 18.3594 20.6032 18.3796 20.6149C18.4347 20.6468 18.4782 20.6719 18.5469 20.6719C18.7344 20.6719 18.875 20.4844 18.875 20.3438C18.875 20.25 18.8281 20.1562 18.7344 20.0625C18.2656 19.6875 17.6562 19.4531 16.9531 19.4531C15.8281 19.4531 14.9844 20.1094 14.9844 21.0469C14.9844 22.1058 15.9473 22.3646 16.8372 22.6038C17.6018 22.8093 18.3125 23.0004 18.3125 23.6719C18.3125 24.1406 18.0312 24.6562 17 24.6562C16.3438 24.6562 15.8281 24.375 15.4062 24.0469C15.3594 24 15.3125 23.9531 15.2188 23.9531C15.0312 23.9531 14.8906 24.1406 14.8906 24.3281C14.8906 24.4219 14.9375 24.5156 15.0312 24.5625ZM11.7969 20.0156L9.875 24.8438C9.78125 25.0781 9.54688 25.2188 9.3125 25.2188H9.26562C9.03125 25.2188 8.79688 25.0781 8.70312 24.8438L6.78125 20.0156C6.73438 19.9688 6.73438 19.9219 6.73438 19.875C6.73438 19.6875 6.92188 19.5 7.10938 19.5C7.25 19.5 7.39062 19.5938 7.48438 19.7344L9.3125 24.4219L11.0938 19.7344C11.1406 19.5938 11.2812 19.5 11.4688 19.5C11.6562 19.5 11.8438 19.6875 11.8438 19.875C11.8438 19.8984 11.832 19.9219 11.8203 19.9453C11.8086 19.9688 11.7969 19.9922 11.7969 20.0156ZM13.2969 25.2188C13.0625 25.2188 12.9219 25.0781 12.9219 24.8906V19.8281C12.9219 19.6406 13.0625 19.5 13.2969 19.5C13.4844 19.5 13.625 19.6406 13.625 19.8281V24.8906C13.625 25.0781 13.4844 25.2188 13.2969 25.2188Z" fill="white"/>
</svg>
