<svg width="30" height="30" viewBox="0 0 30 30" fill="none" xmlns="http://www.w3.org/2000/svg">
<path fill-rule="evenodd" clip-rule="evenodd" d="M4.39062 0C3.07812 0 2 1.07812 2 2.39062V27.6094C2 28.9219 3.07812 30 4.39062 30H25.8594C27.1719 30 28.25 28.9219 28.25 27.6094V9.51562L19.3906 0H4.39062V0Z" fill="#45B058"/>
<path fill-rule="evenodd" clip-rule="evenodd" d="M17.0938 24.6094C17.5625 25.0312 18.2188 25.3125 19.0625 25.3125C20.5625 25.3125 21.125 24.4688 21.125 23.6719C21.125 22.4832 20.0682 22.2025 19.1456 21.9575C18.431 21.7677 17.7969 21.5993 17.7969 21.0469C17.7969 20.4844 18.2656 20.1562 18.9688 20.1562C19.4844 20.1562 20 20.2969 20.4219 20.625C20.4688 20.6719 20.5625 20.7188 20.6094 20.7188C20.7969 20.7188 20.9375 20.5312 20.9375 20.3438C20.9375 20.25 20.8906 20.1562 20.7969 20.1094C20.375 19.7344 19.7188 19.5 19.0156 19.5C17.8906 19.5 17.0938 20.1562 17.0938 21.0938C17.0938 22.1527 18.0567 22.4115 18.9466 22.6507C19.7112 22.8562 20.4219 23.0472 20.4219 23.7188C20.4219 24.1406 20.0938 24.7031 19.1094 24.7031C18.4531 24.7031 17.8906 24.4219 17.5156 24.0938C17.4688 24.0469 17.375 24 17.3281 24C17.0938 24 17 24.1875 17 24.375C17 24.4688 17 24.5625 17.0938 24.6094ZM11.0938 25.2656C11 25.2656 10.9062 25.2188 10.8594 25.1719L9.125 22.8281L7.34375 25.1719C7.29688 25.2188 7.20312 25.2656 7.10938 25.2656C6.92188 25.2656 6.78125 25.125 6.78125 24.9375C6.78125 24.8906 6.78125 24.7969 6.82812 24.75L8.65625 22.3594L6.96875 20.0625C6.92188 20.0156 6.875 19.9688 6.875 19.875C6.875 19.7344 7.01562 19.5469 7.20312 19.5469C7.34375 19.5469 7.4375 19.5938 7.48438 19.6875L9.125 21.8438L10.7188 19.6875C10.7656 19.5938 10.8594 19.5469 10.9531 19.5469C11.1406 19.5469 11.3281 19.6875 11.3281 19.875C11.3281 19.9299 11.312 19.9688 11.2987 20.0009C11.2893 20.0237 11.2812 20.0431 11.2812 20.0625L9.54688 22.3125L11.375 24.75C11.4219 24.7969 11.4688 24.8906 11.4688 24.9375C11.4688 25.125 11.2812 25.2656 11.0938 25.2656ZM15.7812 25.2188H13.25C12.9688 25.2188 12.7344 24.9844 12.7344 24.7031V19.875C12.7344 19.6875 12.875 19.5469 13.1094 19.5469C13.2969 19.5469 13.4375 19.6875 13.4375 19.875V24.6094H15.7812C15.9688 24.6094 16.1094 24.75 16.1094 24.8906C16.1094 25.0781 15.9688 25.2188 15.7812 25.2188Z" fill="white"/>
<path fill-rule="evenodd" clip-rule="evenodd" d="M28.25 9.5625V10.0312H22.25C22.25 10.0312 19.25 9.42188 19.3437 6.84375C19.3437 6.84375 19.4375 9.5625 22.1562 9.5625H28.25Z" fill="#349C42"/>
<path opacity="0.5" fill-rule="evenodd" clip-rule="evenodd" d="M19.3438 0V6.84375C19.3438 7.59375 19.9062 9.5625 22.25 9.5625H28.25L19.3438 0Z" fill="white"/>
</svg>
