<svg width="30" height="30" viewBox="0 0 30 30" fill="none" xmlns="http://www.w3.org/2000/svg">
<path fill-rule="evenodd" clip-rule="evenodd" d="M4.39062 0C3.07812 0 2 1.03125 2 2.34375V27.6094C2 28.9219 3.07812 30 4.39062 30H25.8594C27.1719 30 28.25 28.9219 28.25 27.6094V9.51562L19.3906 0H4.39062V0Z" fill="#8199AF"/>
<path d="M28.2499 9.5625V10.0312H22.2499C22.2499 10.0312 19.2968 9.42188 19.3437 6.84375C19.3437 6.84375 19.4843 9.5625 22.2031 9.5625H28.2499Z" fill="#617F9B"/>
<path opacity="0.5" d="M19.3906 0V6.84375C19.3906 7.59375 19.9062 9.5625 22.25 9.5625H28.25L19.3906 0Z" fill="white"/>
<path fill-rule="evenodd" clip-rule="evenodd" d="M12.1719 24.9844C12.1719 25.1719 12.3125 25.3125 12.5 25.3125C12.7344 25.3125 12.875 25.1719 12.875 24.9844V19.9219C12.875 19.7344 12.7344 19.5938 12.5469 19.5938C12.3125 19.5938 12.1719 19.7344 12.1719 19.9219V24.9844ZM7.10938 25.2656H10.625C10.8125 25.2656 10.9531 25.125 10.9531 24.9375C10.9531 24.7969 10.8125 24.6562 10.625 24.6562H7.67188L10.8125 20.25C10.8594 20.2031 10.8594 20.1094 10.8594 20.0156C10.8594 19.7812 10.7188 19.6406 10.5312 19.6406H7.01562C6.875 19.6406 6.73438 19.7812 6.73438 19.9219C6.73438 20.1094 6.875 20.25 7.01562 20.25H9.92188L6.82812 24.6562C6.78125 24.7031 6.73438 24.7969 6.73438 24.8906C6.73438 25.125 6.92188 25.2656 7.10938 25.2656ZM16.6719 23.0156H15.125V24.9844C15.125 25.1719 14.9375 25.3125 14.75 25.3125C14.5625 25.3125 14.4219 25.1719 14.4219 24.9844V20.1562C14.4219 19.875 14.6094 19.6406 14.8906 19.6406H16.6719C17.7969 19.6406 18.4531 20.4375 18.4531 21.3281C18.4531 22.2188 17.7969 23.0156 16.6719 23.0156ZM15.125 20.25H16.5781C17.2344 20.25 17.7031 20.7188 17.7031 21.3281C17.7031 21.9844 17.2344 22.4062 16.5781 22.4062H15.125V20.25Z" fill="white"/>
</svg>
