<svg width="26" height="26" viewBox="0 0 26 26" fill="none" xmlns="http://www.w3.org/2000/svg">
<path fill-rule="evenodd" clip-rule="evenodd" d="M10.9722 18.0015C10.9722 16.6515 11.4222 15.1015 12.1222 13.9015C12.9722 12.4015 13.9222 11.8015 14.6722 10.7015C15.9222 8.8515 16.1722 6.2015 15.3722 4.2015C14.5722 2.1515 12.6722 0.951503 10.4722 1.0015C8.27222 1.0515 6.47222 2.4015 5.77222 4.4515C4.97222 6.7015 5.32222 9.4015 7.12222 11.1015C7.87222 11.8015 8.57222 12.9015 8.17222 13.9515C7.82222 14.9515 6.62222 15.4015 5.77222 15.8015C3.82222 16.6515 1.47222 17.8515 1.07222 20.1515C0.672217 22.0515 1.97222 24.0015 4.02222 24.0015H12.5222C12.9222 24.0015 13.1722 23.5015 12.9222 23.2015C11.6722 21.7515 10.9722 19.9015 10.9722 18.0015ZM18.9722 12.0015C15.6722 12.0015 12.9722 14.7015 12.9722 18.0015C12.9722 21.3015 15.6722 24.0015 18.9722 24.0015C22.2722 24.0015 24.9722 21.3015 24.9722 18.0015C24.9722 14.7015 22.2722 12.0015 18.9722 12.0015ZM22.0222 18.5015C22.0222 18.8015 21.7722 19.0015 21.4722 19.0015H20.0222V20.5015C20.0222 20.8015 19.7722 21.0015 19.4722 21.0015H18.4722C18.1722 21.0015 18.0222 20.8015 18.0222 20.5015V19.0015H16.4722C16.1722 19.0015 16.0222 18.8015 16.0222 18.5015V17.5015C16.0222 17.2015 16.1722 17.0015 16.4722 17.0015H18.0222V15.5015C18.0222 15.2015 18.1722 15.0015 18.4722 15.0015H19.4722C19.7722 15.0015 20.0222 15.2015 20.0222 15.5015V17.0015H21.4722C21.7722 17.0015 22.0222 17.2015 22.0222 17.5015V18.5015Z" fill="#706E6B"/>
</svg>
