<svg width="26" height="26" viewBox="0 0 26 26" fill="none" xmlns="http://www.w3.org/2000/svg">
<path fill-rule="evenodd" clip-rule="evenodd" d="M21.5 3.45V2C21.5 1.6 21.15 1.25 20.75 1.25H5.90002C5.50002 1.25 5.15002 1.6 5.15002 2V3.55C5.15002 3.7 5.15002 3.9 5.30002 4.05L12.6 13L5.30002 21.95C5.20002 22.1 5.15002 22.25 5.15002 22.45V24C5.15002 24.4 5.50002 24.75 5.90002 24.75H20.75C21.15 24.75 21.5 24.4 21.5 24V22.55C21.5 22.15 21.15 21.8 20.75 21.8H9.20002L15.85 13.65C16 13.45 16.05 13.25 16.05 12.95C16.05 12.7 15.95 12.45 15.8 12.25L9.20002 4.2H20.75C21.15 4.2 21.5 3.85 21.5 3.45Z" fill="#706E6B"/>
</svg>
