<svg width="26" height="26" viewBox="0 0 26 26" fill="none" xmlns="http://www.w3.org/2000/svg">
<path fill-rule="evenodd" clip-rule="evenodd" d="M8.8873 2.76542C10.1786 2.28717 11.5655 2.04805 13.0003 2.04805C14.435 2.04805 15.8219 2.28717 17.1132 2.76542C17.5436 2.04805 18.3088 1.52197 19.2175 1.52197C20.5566 1.52197 21.6088 2.57412 21.6088 3.91323C21.6088 4.29583 21.5131 4.67843 21.3696 5.0132C21.9435 5.49146 22.3261 7.06968 22.5653 9.65224C22.7566 11.087 24 15.4391 24 16.3477C24.0479 20.1738 20.3653 22.852 13.0003 24.478C5.68302 22.8998 2.00049 20.1738 2.00049 16.3477C2.00049 15.3434 3.19612 11.1348 3.43524 9.65224C3.72219 7.11751 4.15262 5.58711 4.67869 5.06103C4.48739 4.72625 4.39174 4.34365 4.39174 3.91323C4.39174 2.57412 5.44389 1.52197 6.783 1.52197C7.69167 1.52197 8.45688 2.04805 8.8873 2.76542ZM10.609 11.4218C9.74815 11.6609 9.22208 12.4739 9.2699 13.3826L9.4612 16.3477C9.55685 18.2129 11.1351 19.6955 13.0003 19.6955C14.8654 19.6955 16.4437 18.2129 16.5393 16.3477L16.7306 13.4304C16.7784 12.5217 16.2524 11.7565 15.3915 11.4696C14.5307 11.2305 13.6698 11.087 12.809 11.087C12.0438 11.087 11.2786 11.1826 10.609 11.4218ZM17.7828 11.5652C18.5958 11.5652 19.2175 10.7044 19.2175 9.65224C19.2175 8.60009 18.5958 7.73923 17.7828 7.73923C16.9697 7.73923 16.348 8.60009 16.348 9.65224C16.348 10.7044 16.9697 11.5652 17.7828 11.5652ZM8.21775 11.5652C9.03078 11.5652 9.6525 10.7044 9.6525 9.65224C9.6525 8.60009 9.03078 7.73923 8.21775 7.73923C7.40472 7.73923 6.783 8.60009 6.783 9.65224C6.783 10.7044 7.40472 11.5652 8.21775 11.5652ZM14.4828 13.813C13.622 14.7695 12.2351 14.7695 11.422 13.813C10.609 12.8565 11.2786 12.0435 12.9524 12.0435C14.6263 12.0435 15.2959 12.8565 14.4828 13.813Z" fill="#706E6B"/>
</svg>
