<svg width="26" height="26" viewBox="0 0 26 26" fill="none" xmlns="http://www.w3.org/2000/svg">
<path fill-rule="evenodd" clip-rule="evenodd" d="M13 2C6.35 2 1 6.9 1 13C1 14.95 1.55 16.75 2.5 18.4C2.6 18.6 2.65 18.85 2.6 19.05L1.5 22.5C1.3 23.15 1.9 23.7 2.55 23.5L6.05 22.3C6.3 22.2 6.55 22.25 6.75 22.4C8.6 23.45 10.75 24.05 13.05 24.05C19.7 24.05 25.05 19.15 25.05 13.05C24.95 6.9 19.6 2 13 2ZM18.75 10.55L12.65 16.55C12.4 16.8 12.15 16.9 11.8 16.9C11.5 16.9 11.2 16.8 10.95 16.55L8 13.65C7.75 13.4 7.75 13.05 8 12.85L8.85 12.05C9.1 11.8 9.45 11.8 9.7 12.05L11.8 14.15L17.05 8.95C17.3 8.7 17.65 8.7 17.9 8.95L18.75 9.75C18.95 9.95 18.95 10.35 18.75 10.55Z" fill="#706E6B"/>
</svg>
