<svg width="26" height="26" viewBox="0 0 26 26" fill="none" xmlns="http://www.w3.org/2000/svg">
<path fill-rule="evenodd" clip-rule="evenodd" d="M13.1 9.05002L18.65 3.50002C18.95 3.20002 18.95 2.75002 18.65 2.45002L17.45 1.25002C17.15 0.950024 16.7 0.950024 16.4 1.25002L10.85 6.80002L13.1 9.05002ZM19.2 15.35L24.75 9.80002C25.05 9.50002 25.05 9.05002 24.75 8.75002L23.55 7.55002C23.25 7.25002 22.8 7.25002 22.5 7.55002L16.95 13.1L19.2 15.35ZM18.4 19.95C18.5 19.85 18.55 19.7 18.6 19.55C18.65 19.35 18.6 19.15 18.5 19C18.45 18.95 18.45 18.9 18.4 18.9L7.15003 7.65002C7.05003 7.50002 6.80003 7.45002 6.60003 7.45002C6.40003 7.45002 6.20003 7.55002 6.05003 7.70002C5.95003 7.80002 5.85003 7.85002 5.75003 7.95002C5.70003 8.00002 5.65003 8.10002 5.60003 8.15002C5.55003 8.25002 5.45003 8.30002 5.40003 8.40002C5.35003 8.50002 5.25003 8.60002 5.20003 8.70002C5.10003 8.80002 5.05003 8.95002 5.00003 9.10002C4.90003 9.25002 4.85003 9.40002 4.80003 9.55002C4.70003 9.70002 4.65003 9.90002 4.60003 10.1C4.50003 10.3 4.45003 10.5 4.40003 10.7C4.35003 10.95 4.25003 11.15 4.20003 11.4C4.15003 11.65 4.10003 11.9 4.05003 12.2C4.00003 12.5 3.95003 12.8 3.90003 13.05C3.85003 13.35 3.80003 13.7 3.80003 14C3.75003 14.35 3.75003 14.7 3.75003 15.1V16.3C3.75003 16.75 3.75003 17.15 3.80003 17.6C3.80003 18.05 3.85003 18.55 3.90003 19C3.90003 19.15 3.95003 19.25 3.95003 19.4H4.00003L1.40003 22C1.00003 22.2 1.00003 22.7 1.25003 23L3.10003 24.85C3.40003 25.15 3.85003 25.15 4.15003 24.85L6.75003 22.25C7.70003 22.35 8.60003 22.4 9.55003 22.4C10.35 22.4 11.1 22.4 11.9 22.35C12.55 22.3 13.2 22.25 13.8 22.1C14.3 22 14.8 21.9 15.3 21.75C15.7 21.65 16.1 21.5 16.45 21.3C16.75 21.15 17.05 21 17.3 20.85C17.65 20.65 18 20.35 18.3 20.05L18.4 19.95Z" fill="#706E6B"/>
</svg>
