<svg width="26" height="26" viewBox="0 0 26 26" fill="none" xmlns="http://www.w3.org/2000/svg">
<path fill-rule="evenodd" clip-rule="evenodd" d="M22.6 14.6088H18.2C16.9 14.6088 15.8 13.5088 15.8 12.2088C16 8.65882 17.65 8.45882 17.8 6.15882C17.95 3.75882 16.45 1.60882 14.1 1.10882C11 0.458821 8.2 2.80882 8.2 5.80882C8.2 8.45882 10 8.45882 10.2 12.2088C10.2 13.5088 9.1 14.6088 7.8 14.6088H3.4C2.1 14.6088 1 15.6588 1 17.0088V18.6088C1 19.0588 1.35 19.4088 1.8 19.4088H24.2C24.65 19.4088 25 19.0588 25 18.6088V17.0088C25 15.6588 23.9 14.6088 22.6 14.6088ZM22.65 21.8088H3.35C2.9 21.8088 2.6 22.1588 2.6 22.5588V22.6088C2.6 23.9088 3.7 25.0088 5 25.0088H21.05C22.35 25.0088 23.4 23.9088 23.4 22.6088V22.5588C23.4 22.1588 23.05 21.8088 22.65 21.8088Z" fill="#706E6B"/>
</svg>
