<svg width="26" height="26" viewBox="0 0 26 26" fill="none" xmlns="http://www.w3.org/2000/svg">
<path fill-rule="evenodd" clip-rule="evenodd" d="M21.7 11C22.1 10.6 22.1 10.05 21.7 9.65L14.2 2.3C13.8 1.9 13.2 1.9 12.8 2.3L5.3 9.65C4.9 10.05 4.9 10.6 5.3 11L6.7 12.35C7.1 12.75 7.7 12.75 8.1 12.35L10.45 10.05C10.85 9.65 11.55 9.95 11.55 10.5V24C11.55 24.5 12 25 12.55 25H14.55C15.1 25 15.55 24.45 15.55 24V10.5C15.55 9.9 16.25 9.65 16.65 10.05L19 12.35C19.4 12.75 20 12.75 20.4 12.35L21.7 11Z" fill="#706E6B"/>
</svg>
