<svg width="26" height="26" viewBox="0 0 26 26" fill="none" xmlns="http://www.w3.org/2000/svg">
<path fill-rule="evenodd" clip-rule="evenodd" d="M5.3 16C4.9 16.4 4.9 16.95 5.3 17.35L12.8 24.7C13.2 25.1 13.8 25.1 14.2 24.7L21.75 17.35C22.15 16.95 22.15 16.4 21.75 16L20.35 14.65C19.95 14.25 19.35 14.25 18.95 14.65L16.6 16.95C16.2 17.35 15.5 17.1 15.5 16.5V3C15.5 2.5 15.05 2 14.5 2H12.5C11.95 2 11.5 2.55 11.5 3V16.5C11.5 17.1 10.8 17.35 10.4 16.95L8.05 14.65C7.65 14.25 7.05 14.25 6.65 14.65L5.3 16Z" fill="#706E6B"/>
</svg>
