<svg width="40" height="40" viewBox="0 0 40 40" fill="none" xmlns="http://www.w3.org/2000/svg">
<rect width="40" height="40" rx="20" fill="#56AADF"/>
<mask id="mask0_1518_28362" style="mask-type:luminance" maskUnits="userSpaceOnUse" x="0" y="0" width="40" height="40">
<rect width="40" height="40" rx="20" fill="white"/>
</mask>
<g mask="url(#mask0_1518_28362)">
<path d="M9.5 8C8.65 8 8 8.65 8 9.5V30.5C8 31.3 8.65 32 9.5 32C10.3 32 11 31.35 11 30.5V9.5C11 8.65 10.35 8 9.5 8Z" fill="white"/>
<path fill-rule="evenodd" clip-rule="evenodd" d="M21.774 10.423C24.8362 11.2417 27.9252 12.0676 31.4 10.25C31.65 10.1 32 10.3 32 10.6V22.4C32 22.7 31.8 22.95 31.55 23.1C27.9935 25.045 24.8384 24.1952 21.7244 23.3565C19.2347 22.686 16.7713 22.0225 14.15 22.8C13.6 22.95 13 22.55 13 22V10.8C13 10.45 13.3 10.15 13.6 10.05C16.4623 9.00282 19.108 9.71018 21.774 10.423ZM29.75 21.7L30 21.6H30.05V18.75C29.15 19.15 28.1 19.5 27.15 19.5H27.05V16.3H27.25C28.2 16.3 29.15 16.2 30.05 15.95V12.95L29.45 13.15C29.0909 13.2039 28.7898 13.2642 28.5143 13.3194C28.0227 13.4179 27.6127 13.5 27.1 13.5H27V16.25C26.2 16.25 24.85 16.15 24 16V13.15C23.0048 13.0078 22.0096 12.7309 21.1421 12.4895C21.0944 12.4762 21.047 12.4631 21 12.45V15.35C20.975 15.35 20.9375 15.3375 20.9 15.325C20.8625 15.3125 20.825 15.3 20.8 15.3C19.9852 15.0737 18.9244 14.8473 18.2115 14.6952C18.137 14.6793 18.0662 14.6642 18 14.65V11.75C17.45 11.6 15.95 11.5 15.45 11.55L15 11.6V14.7C15.5 14.55 17.45 14.55 18 14.65V17.65C17.8728 17.6269 17.7723 17.6064 17.685 17.5886C17.3948 17.5295 17.2497 17.5 16.75 17.5C16.1 17.5 15.5 17.5 15 17.6V20.5L15.8 20.45C16.15 20.4 16.35 20.4 16.6 20.4C17.1377 20.4 17.3332 20.4342 17.7243 20.5026C17.8061 20.5169 17.8963 20.5327 18 20.55V17.7C18.2787 17.7656 18.6057 17.8365 18.9494 17.9111C19.6541 18.0639 20.4287 18.232 21 18.4V21.15C21.081 21.1703 21.1703 21.1987 21.2644 21.2287C21.4026 21.2728 21.5513 21.3203 21.7 21.35C22.35 21.5 23.15 21.65 24 21.8V19.15C24.9 19.35 26.25 19.5 27 19.5V22H27.1C28.45 22 29.25 21.95 29.75 21.7Z" fill="white"/>
<path d="M21 15.3496V18.3496C21.2 18.3996 21.4 18.4496 21.6 18.5496C22.35 18.7496 23.15 18.9996 24 19.1496V16.0496C22.95 15.8496 21.9 15.5996 21 15.3496Z" fill="white"/>
</g>
</svg>
