<svg width="26" height="26" viewBox="0 0 26 26" fill="none" xmlns="http://www.w3.org/2000/svg">
<path fill-rule="evenodd" clip-rule="evenodd" d="M0.75 7H19.25C19.65 7 20 7.35 20 7.75V8.95H25.25C25.65 8.95 26 9.3 26 9.7V16.2C26 16.6 25.65 16.95 25.25 16.95H20V18.25C20 18.65 19.65 19 19.25 19H0.75C0.35 19 0 18.65 0 18.25V7.75C0 7.35 0.35 7 0.75 7ZM23.55 14.95H20V13.6H24.05V14.45C24.05 14.75 23.85 14.95 23.55 14.95ZM24.05 11.45C24.05 11.15 23.85 10.95 23.55 10.95H20V12.4H24.05V11.45ZM10.5 16.05C8.8 16.05 7.45 14.7 7.45 13C7.45 11.3 8.8 9.95 10.5 9.95C12.2 9.95 13.55 11.3 13.55 13C13.55 14.7 12.2 16.05 10.5 16.05ZM10.5 13.6C10.8314 13.6 11.1 13.3314 11.1 13C11.1 12.6686 10.8314 12.4 10.5 12.4C10.1686 12.4 9.9 12.6686 9.9 13C9.9 13.3314 10.1686 13.6 10.5 13.6Z" fill="#706E6B"/>
</svg>
