<svg width="48" height="48" viewBox="0 0 48 48" fill="none" xmlns="http://www.w3.org/2000/svg">
<rect width="48" height="48" rx="4" fill="#3C97DD"/>
<mask id="mask0_1518_27810" style="mask-type:luminance" maskUnits="userSpaceOnUse" x="0" y="0" width="48" height="48">
<rect width="48" height="48" rx="4" fill="white"/>
</mask>
<g mask="url(#mask0_1518_27810)">
<path fill-rule="evenodd" clip-rule="evenodd" d="M30.9115 28.4033L40.164 37.6C40.5541 38.0459 40.5541 38.7148 40.1082 39.2164L38.659 40.6656C38.2689 41.0558 37.6 41.0558 37.2099 40.6656L27.9574 31.4131C25.282 33.2525 21.9935 34.2558 18.4262 33.7541C12.4623 32.9181 7.72461 27.9574 7.16723 21.9935C6.33116 13.7443 13.2984 6.77708 21.4918 7.61314C27.5672 8.17052 32.4164 12.9082 33.2525 18.8722C33.7541 22.4394 32.8066 25.7836 30.9115 28.4033ZM26.118 25.059V27.4558C28.0131 25.8394 29.2394 23.3869 29.2394 20.6558C29.2394 15.6951 25.2262 11.682 20.2656 11.682C15.3607 11.682 11.3476 15.6394 11.2918 20.4886L14.7476 17.7574C15.0262 17.5345 15.4721 17.5345 15.7508 17.7574L19.5967 20.6558L23.3312 16.4754H20.823C20.3771 16.4754 19.9869 16.0295 19.9869 15.5836C19.9869 15.1377 20.3771 14.7476 20.823 14.7476H25.282C25.7279 14.7476 26.118 15.1377 26.118 15.5836V20.6C26.118 21.0459 25.7279 21.4361 25.282 21.4361C24.8361 21.4361 24.4459 21.0459 24.4459 20.6V17.7017L20.3213 22.2722C20.0426 22.6066 19.541 22.6623 19.2066 22.3836L15.2492 19.4295L11.459 22.4394C11.9049 24.4459 12.964 26.1181 14.4131 27.4V25.059C14.4131 24.6131 14.8033 24.223 15.2492 24.223C15.6951 24.223 16.0853 24.6131 16.0853 25.059V28.5705C17.0885 29.1279 18.2033 29.4623 19.4295 29.5738V26.2295C19.4295 25.7836 19.8197 25.3935 20.2656 25.3935C20.7115 25.3935 21.1017 25.7836 21.1017 26.2295V29.5738C22.3279 29.4623 23.4426 29.1279 24.4459 28.5705V25.059C24.4459 24.6131 24.8361 24.223 25.282 24.223C25.7279 24.223 26.118 24.6131 26.118 25.059Z" fill="white"/>
</g>
</svg>
