<svg width="48" height="48" viewBox="0 0 48 48" fill="none" xmlns="http://www.w3.org/2000/svg">
<rect width="48" height="48" rx="4" fill="#2A739E"/>
<mask id="mask0_1518_27808" style="mask-type:luminance" maskUnits="userSpaceOnUse" x="0" y="0" width="48" height="48">
<rect width="48" height="48" rx="4" fill="white"/>
</mask>
<g mask="url(#mask0_1518_27808)">
<path fill-rule="evenodd" clip-rule="evenodd" d="M38.0533 21.1666C37.6566 19.24 36.8633 17.4833 35.8433 15.9533C36.8633 14.82 36.8633 13.12 35.7866 12.0433C35.22 11.4766 34.4833 11.1933 33.8033 11.1933C33.1233 11.1933 32.3866 11.4766 31.8766 11.9866C30.3466 11.0233 28.7033 10.2866 26.8333 9.88997C26.8333 8.30331 25.5866 7.05664 24 7.05664C22.4133 7.05664 21.1666 8.30331 21.1666 9.88997C19.2966 10.2866 17.54 11.0233 16.01 12.0433C15.4433 11.4766 14.7066 11.1933 14.0266 11.1933C13.29 11.1933 12.5533 11.4766 12.0433 12.0433C10.91 13.1766 10.91 14.9333 12.0433 16.0666C10.9666 17.54 10.2866 19.2966 9.83331 21.1666C8.30331 21.1666 7.05664 22.47 7.05664 24C7.05664 25.53 8.30331 26.8333 9.83331 26.8333C10.1733 28.6466 10.91 30.4033 11.93 31.8766C11.9016 31.8766 11.8875 31.8908 11.8733 31.905C11.8591 31.9191 11.845 31.9333 11.8166 31.9333C10.6833 33.0666 10.6833 34.8233 11.8166 35.9566C12.3833 36.5233 13.12 36.8066 13.8 36.8066C14.5366 36.8066 15.2733 36.5233 15.7833 35.9566L15.84 35.9C17.4266 36.9766 19.1833 37.7133 21.11 38.11C21.11 39.6966 22.3566 40.9433 23.9433 40.9433C25.53 40.9433 26.7766 39.6966 26.7766 38.11C28.6466 37.7133 30.3466 36.9766 31.8766 36.0133C32.4433 36.58 33.18 36.8633 33.86 36.8633C34.5966 36.8633 35.3333 36.58 35.8433 36.0133C36.9766 34.88 36.9766 33.1233 35.8433 31.99C36.8633 30.46 37.6 28.7033 37.9966 26.8333H38.0533C39.64 26.8333 40.8866 25.5866 40.8866 24C40.8866 22.4133 39.5833 21.1666 38.0533 21.1666ZM32.9533 13.2333C33.01 13.1766 33.1233 13.12 33.2366 13.0633C33.4066 12.95 33.5766 12.95 33.7466 12.95C34.03 12.95 34.3133 13.0633 34.54 13.29C34.88 13.63 34.9366 14.1966 34.71 14.5933C34.6816 14.65 34.6533 14.6925 34.625 14.735L34.625 14.735C34.5966 14.7775 34.5683 14.82 34.54 14.8766C34.3133 15.1033 34.03 15.2166 33.7466 15.2166C33.4633 15.2166 33.18 15.1033 32.9533 14.8766C32.4433 14.3666 32.4433 13.6866 32.9533 13.2333ZM23.8866 8.75664C23.32 8.75664 22.8666 9.15331 22.7533 9.66331V9.88997C22.7533 10.5133 23.2633 11.0233 23.8866 11.0233C24.51 11.0233 25.02 10.5133 25.02 9.88997V9.66331C24.9066 9.15331 24.4533 8.75664 23.8866 8.75664ZM13.12 13.2333C13.3466 13.0066 13.63 12.8933 13.9133 12.8933C14.14 12.8933 14.3666 12.95 14.5366 13.0633L14.7066 13.2333C15.16 13.6866 15.16 14.3666 14.7066 14.82C14.48 15.0466 14.1966 15.16 13.9133 15.16C13.63 15.16 13.3466 15.0466 13.12 14.82L12.95 14.65C12.6666 14.1966 12.6666 13.63 13.12 13.2333ZM8.69997 24C8.69997 24.51 9.03997 24.9633 9.54997 25.0766C9.66331 25.1333 9.71997 25.1333 9.83331 25.1333C10.4 25.1333 10.9666 24.6233 10.9666 24C10.9666 23.3766 10.4566 22.8666 9.83331 22.8666C9.77664 22.8666 9.73414 22.8808 9.69164 22.895C9.64914 22.9091 9.60664 22.9233 9.54997 22.9233C9.09664 23.0366 8.69997 23.49 8.69997 24ZM14.4233 34.8233C14.2533 34.9933 13.97 35.05 13.7433 35.05C13.46 35.05 13.1766 34.9366 12.95 34.71C12.7233 34.4833 12.61 34.2 12.61 33.9166C12.61 33.6333 12.7233 33.4066 12.8366 33.2366C12.8366 33.2083 12.8508 33.1941 12.865 33.18C12.8791 33.1658 12.8933 33.1516 12.8933 33.1233C13.12 32.8966 13.4033 32.7833 13.6866 32.7833C13.97 32.7833 14.2533 32.8966 14.48 33.1233C14.99 33.5766 14.99 34.2566 14.5366 34.71L14.4233 34.8233ZM23.8866 39.2433C24.4533 39.2433 24.9066 38.8466 25.02 38.3366V38.11C25.02 37.4866 24.51 36.9766 23.8866 36.9766C23.2633 36.9766 22.7533 37.4866 22.7533 38.11V38.3366C22.8666 38.8466 23.32 39.2433 23.8866 39.2433ZM36.3533 26.2666C36.0133 28.08 35.3333 29.7233 34.3133 31.1966C34.2283 31.1966 34.1575 31.1825 34.0866 31.1683C34.0158 31.1541 33.945 31.14 33.86 31.14C33.1233 31.14 32.3866 31.4233 31.8766 31.99C31.1966 32.67 30.97 33.5766 31.0833 34.4833C29.6666 35.4466 28.0233 36.1833 26.21 36.5233C25.7 35.7866 24.85 35.3333 23.8866 35.3333C22.9233 35.3333 22.0733 35.7866 21.5633 36.5233C19.6933 36.1833 17.9933 35.4466 16.52 34.37C16.6333 33.52 16.35 32.67 15.7266 31.99C15.16 31.4233 14.4233 31.14 13.7433 31.14C13.63 31.14 13.5166 31.14 13.4033 31.1966C12.44 29.78 11.7033 28.1366 11.3633 26.3233C12.1 25.8133 12.61 24.9633 12.61 24C12.61 23.0366 12.1 22.1866 11.3633 21.6766C11.7033 19.92 12.3833 18.2766 13.4033 16.8033C13.4883 16.8033 13.5591 16.8175 13.63 16.8316L13.63 16.8316C13.7008 16.8458 13.7716 16.86 13.8566 16.86C14.5933 16.86 15.33 16.5766 15.84 16.01C16.52 15.33 16.7466 14.4233 16.6333 13.5166C18.1066 12.4966 19.75 11.8166 21.5633 11.4766C22.0733 12.2133 22.9233 12.6666 23.8866 12.6666C24.85 12.6666 25.6433 12.2133 26.21 11.4766C27.91 11.8166 29.5533 12.44 30.9133 13.4033C30.7433 14.31 30.97 15.2733 31.7066 15.9533C32.2733 16.52 33.01 16.8033 33.69 16.8033C33.86 16.8033 34.0866 16.8033 34.2566 16.7466C35.2766 18.22 35.9566 19.8633 36.2966 21.6766C35.6166 22.1866 35.1066 23.0366 35.1066 23.9433C35.1066 24.85 35.6166 25.7 36.3533 26.2666ZM37.9966 25.1333H38.1666C38.7333 25.02 39.13 24.5666 39.13 24C39.13 23.4333 38.6766 22.98 38.1666 22.8666H37.9966C37.3733 22.8666 36.8633 23.3766 36.8633 24C36.8633 24.6233 37.3733 25.1333 37.9966 25.1333Z" fill="white"/>
<path d="M26.72 25.3597C25.53 24.8497 25.3033 24.3397 25.3033 23.8863C25.3033 23.3763 25.6433 22.8663 26.04 22.5263C26.72 21.8463 27.1167 20.9397 27.1167 19.9197C27.1167 17.9363 25.9267 16.2363 23.7733 16.2363C21.62 16.2363 20.43 17.9363 20.43 19.9197C20.43 20.9963 20.8267 21.903 21.5067 22.5263C21.9033 22.923 22.2433 23.3763 22.2433 23.8863C22.2433 24.3963 22.0733 24.8497 20.8267 25.3597C19.07 26.0963 17.4267 26.9463 17.37 28.533C17.37 29.6097 18.1633 30.4597 19.1833 30.4597H28.42C29.44 30.4597 30.2333 29.6097 30.2333 28.533C30.1767 26.9463 28.4767 26.153 26.72 25.3597Z" fill="white"/>
</g>
</svg>
