<svg width="48" height="48" viewBox="0 0 48 48" fill="none" xmlns="http://www.w3.org/2000/svg">
<rect width="48" height="48" rx="4" fill="#F39E58"/>
<mask id="mask0_1518_27814" style="mask-type:luminance" maskUnits="userSpaceOnUse" x="0" y="0" width="48" height="48">
<rect width="48" height="48" rx="4" fill="white"/>
</mask>
<g mask="url(#mask0_1518_27814)">
<path fill-rule="evenodd" clip-rule="evenodd" d="M37.6 12.667H10.4C8.53 12.667 7 14.197 7 16.067V31.9337C7 33.8037 8.53 35.3337 10.4 35.3337H37.6C39.47 35.3337 41 33.8037 41 31.9337V16.067C41 14.197 39.47 12.667 37.6 12.667ZM9.83333 25.7003C8.87 25.7003 8.13333 24.9637 8.13333 24.0003C8.13333 23.037 8.87 22.3003 9.83333 22.3003C10.7967 22.3003 11.5333 23.037 11.5333 24.0003C11.5333 24.9637 10.7967 25.7003 9.83333 25.7003ZM35.3333 31.9337C35.9567 31.9337 36.4667 31.4237 36.4667 30.8003V17.2003C36.4667 16.577 35.9567 16.067 35.3333 16.067H13.8C13.1767 16.067 12.6667 16.577 12.6667 17.2003V30.8003C12.6667 31.4237 13.1767 31.9337 13.8 31.9337H35.3333Z" fill="white"/>
<path d="M31.9333 19.4668H17.2C16.5767 19.4668 16.0667 19.9768 16.0667 20.6001V27.4001C16.0667 28.0235 16.5767 28.5335 17.2 28.5335H31.9333C32.5567 28.5335 33.0667 28.0235 33.0667 27.4001V20.6001C33.0667 19.9768 32.5567 19.4668 31.9333 19.4668Z" fill="white"/>
</g>
</svg>
