<svg width="48" height="48" viewBox="0 0 48 48" fill="none" xmlns="http://www.w3.org/2000/svg">
<rect width="48" height="48" rx="4" fill="#1589EE"/>
<mask id="mask0_1518_27816" style="mask-type:luminance" maskUnits="userSpaceOnUse" x="0" y="0" width="48" height="48">
<rect width="48" height="48" rx="4" fill="white"/>
</mask>
<g mask="url(#mask0_1518_27816)">
<path fill-rule="evenodd" clip-rule="evenodd" d="M41 9.83333C41 8.24667 39.7533 7 38.1667 7H9.83333C8.24667 7 7 8.24667 7 9.83333V29.4967C7 31.0833 8.24667 32.33 9.83333 32.33H38.1667C39.7533 32.33 41 31.0833 41 29.4967V9.83333ZM36.75 27.0033C36.75 27.57 36.24 28.08 35.6733 28.08H12.3267C11.76 28.08 11.25 27.57 11.25 27.0033V12.3267C11.25 11.76 11.76 11.25 12.3267 11.25H35.6733C36.24 11.25 36.75 11.76 36.75 12.3267V27.0033ZM16.18 39.5833C16.18 37.9967 17.4267 36.75 19.0133 36.75H28.9867C30.5733 36.75 31.82 37.9967 31.82 39.5833V39.9233C31.82 40.49 31.31 41 30.7433 41H17.2567C16.69 41 16.18 40.49 16.18 39.9233V39.5833Z" fill="white"/>
<path d="M18.4467 24.5103H15.2733C14.99 24.5103 14.7067 24.227 14.7067 23.9437V15.3303C14.7067 14.9903 14.99 14.7637 15.2733 14.7637H18.4467C18.73 14.7637 19.0133 14.9903 19.0133 15.3303V23.9437C19.0133 24.227 18.73 24.5103 18.4467 24.5103Z" fill="white"/>
<path d="M32.7266 24.5103H23.0366C22.7533 24.5103 22.47 24.227 22.47 23.9437V15.3303C22.47 15.047 22.7533 14.7637 23.0366 14.7637H32.7266C33.01 14.7637 33.2933 15.047 33.2933 15.3303V23.9437C33.2933 24.2837 33.01 24.5103 32.7266 24.5103Z" fill="white"/>
</g>
</svg>
