<svg width="48" height="48" viewBox="0 0 48 48" fill="none" xmlns="http://www.w3.org/2000/svg">
<rect width="48" height="48" rx="4" fill="#62B7ED"/>
<mask id="mask0_1518_27818" style="mask-type:luminance" maskUnits="userSpaceOnUse" x="0" y="0" width="48" height="48">
<rect width="48" height="48" rx="4" fill="white"/>
</mask>
<g mask="url(#mask0_1518_27818)">
<path fill-rule="evenodd" clip-rule="evenodd" d="M30.9115 27.957L40.164 37.1537C40.5541 37.5996 40.5541 38.2685 40.1082 38.7701L38.659 40.2193C38.2689 40.6095 37.6 40.6095 37.2099 40.2193L27.9574 30.9669C25.282 32.8062 21.9935 33.8095 18.4262 33.3078C12.4623 32.4718 7.72461 27.5111 7.16723 21.5472C6.33116 13.298 13.2984 6.33079 21.4918 7.16685C27.5672 7.72423 32.4164 12.4619 33.2525 18.4259C33.7541 21.9931 32.8066 25.3373 30.9115 27.957ZM20.2656 11.2357C15.3049 11.2357 11.2918 15.3046 11.2918 20.2095C11.2918 25.2259 15.3049 29.1832 20.2656 29.1832C25.2262 29.1832 29.2394 25.1701 29.2394 20.2095C29.2394 15.2488 25.2262 11.2357 20.2656 11.2357Z" fill="white"/>
</g>
</svg>
