<svg width="48" height="48" viewBox="0 0 48 48" fill="none" xmlns="http://www.w3.org/2000/svg">
<g clip-path="url(#clip0_1518_27966)">
<mask id="mask0_1518_27966" style="mask-type:alpha" maskUnits="userSpaceOnUse" x="0" y="0" width="48" height="48">
<path d="M44 0H4C1.79086 0 0 1.79086 0 4V44C0 46.2091 1.79086 48 4 48H44C46.2091 48 48 46.2091 48 44V4C48 1.79086 46.2091 0 44 0Z" fill="white"/>
</mask>
<g mask="url(#mask0_1518_27966)">
<path d="M44 0H4C1.79086 0 0 1.79086 0 4V44C0 46.2091 1.79086 48 4 48H44C46.2091 48 48 46.2091 48 44V4C48 1.79086 46.2091 0 44 0Z" fill="#F28B00"/>
<path d="M40.32 21.2233L39.7533 19.6366L26.89 24.2266L26.6067 24.9633C26.4251 25.4853 26.0892 25.9399 25.6433 26.2666C24.7965 26.8938 23.6673 26.9864 22.7296 26.5056C21.7919 26.0247 21.2081 25.0536 21.2233 23.9999C21.2305 23.229 21.5117 22.4858 22.0167 21.9033L22.3567 21.4499V7.16992L20.3167 7.62326C16.7344 8.42199 13.5226 10.3969 11.1933 13.2333C8.68362 16.2396 7.30089 20.0271 7.28333 23.9433C7.28333 33.2069 14.793 40.7166 24.0567 40.7166C33.3203 40.7166 40.83 33.2069 40.83 23.9433C40.7863 23.0174 40.6147 22.102 40.32 21.2233ZM33.4633 33.5199C30.9607 36.0393 27.5511 37.4481 24 37.4301C20.4519 37.433 17.0478 36.0265 14.5367 33.5199C9.6437 28.6259 9.29939 20.805 13.7433 15.4999C15.1631 13.8088 16.9713 12.4867 19.0133 11.6466V20.4299C18.284 21.4995 17.8895 22.762 17.88 24.0566C17.8721 25.6959 18.5259 27.2691 19.6933 28.4199C20.8534 29.5736 22.4206 30.2249 24.0567 30.2333C25.3623 30.2386 26.6346 29.8211 27.6833 29.0433C28.4484 28.5013 29.0707 27.7818 29.4967 26.9466L37.43 24.1133C37.3896 27.6471 35.9655 31.0242 33.4633 33.5199Z" fill="white"/>
<path d="M27.1733 20.544L38.2233 16.634C38.4188 16.5777 38.5721 16.4254 38.6295 16.2302C38.6869 16.035 38.6406 15.8239 38.5066 15.6707L38.3933 15.444C35.8408 11.2027 31.55 8.30075 26.6633 7.51071C26.4031 7.47406 26.14 7.55355 25.9436 7.72811C25.7472 7.90268 25.6374 8.15469 25.6433 8.41738V19.524C25.6385 19.6586 25.6577 19.7929 25.7 19.9207C25.9356 20.4988 26.5943 20.7775 27.1733 20.544Z" fill="white"/>
</g>
</g>
<defs>
<clipPath id="clip0_1518_27966">
<rect width="48" height="48" fill="white"/>
</clipPath>
</defs>
</svg>
