<svg width="48" height="48" viewBox="0 0 48 48" fill="none" xmlns="http://www.w3.org/2000/svg">
<rect width="48" height="48" rx="4" fill="#7E8BE4"/>
<mask id="mask0_1518_27830" style="mask-type:luminance" maskUnits="userSpaceOnUse" x="0" y="0" width="48" height="48">
<rect width="48" height="48" rx="4" fill="white"/>
</mask>
<g mask="url(#mask0_1518_27830)">
<path fill-rule="evenodd" clip-rule="evenodd" d="M35.6971 7.54819H11.8258C9.39211 7.48952 7.36351 9.39836 7.27417 11.8311V36.1685C7.35449 38.5748 9.34153 40.4766 11.749 40.4514H17.7813C18.3845 37.9617 21.3238 36.5195 24.4387 35.2472C26.7638 34.2601 27.1203 33.4156 27.1203 32.4285C27.1203 31.4414 26.4129 30.5256 25.6397 29.8182C24.2208 28.5801 23.4419 26.764 23.5229 24.8827C23.5229 21.214 25.9193 17.973 30.1035 17.973C34.2877 17.973 36.6842 21.1482 36.6842 24.8827C36.7035 26.7522 35.9352 28.5436 34.5674 29.8182C33.7942 30.5914 33.0868 31.4634 33.0868 32.4285C33.0868 33.3937 33.3664 34.2601 35.7684 35.2472C37.2617 35.8105 38.6917 36.5292 40.0348 37.3914C40.1453 36.9936 40.1934 36.5811 40.1774 36.1685V11.8311C40.2542 9.50045 38.2142 7.54819 35.6971 7.54819ZM22.4151 14.8692C22.3866 15.6921 21.7246 16.3517 20.9016 16.3772H13.1858C12.3585 16.3574 11.6901 15.6962 11.6613 14.8692V13.3611C11.6898 12.5382 12.3518 11.8785 13.1748 11.853H20.9016C21.7246 11.8785 22.3866 12.5382 22.4151 13.3611V14.8692Z" fill="white"/>
</g>
</svg>
