<svg width="48" height="48" viewBox="0 0 48 48" fill="none" xmlns="http://www.w3.org/2000/svg">
<rect width="48" height="48" rx="4" fill="#7E8BE4"/>
<mask id="mask0_1518_27834" style="mask-type:luminance" maskUnits="userSpaceOnUse" x="0" y="0" width="48" height="48">
<rect width="48" height="48" rx="4" fill="white"/>
</mask>
<g mask="url(#mask0_1518_27834)">
<path fill-rule="evenodd" clip-rule="evenodd" d="M20.0187 19.7662C20.0243 18.721 20.4488 17.7217 21.1971 16.992C21.9454 16.2623 22.955 15.863 23.9999 15.8836C26.1289 15.9437 27.812 17.7078 27.7722 19.8372C27.7323 21.9667 25.9845 23.6665 23.8547 23.647C21.725 23.6275 20.0085 21.896 20.0077 19.7662H20.0187Z" fill="white"/>
<path fill-rule="evenodd" clip-rule="evenodd" d="M23.9506 7.54838C18.3111 7.49957 13.1987 10.8562 11.0016 16.0503C8.80441 21.2444 9.95614 27.2508 13.9187 31.2638C17.8814 35.2768 23.8728 36.5043 29.0942 34.3729C34.3156 32.2415 37.7366 27.1719 37.759 21.5322C37.759 13.97 31.5951 7.54838 23.9506 7.54838ZM24.499 31.6171C24.2018 31.8755 23.7597 31.8755 23.4625 31.6171C21.7351 30.3229 16.0264 25.2284 16.0264 19.7939C16.1853 15.5172 19.6984 12.1321 23.978 12.1321C28.2577 12.1321 31.7708 15.5172 31.9296 19.7939C31.9406 25.2339 26.2319 30.2406 24.5045 31.6171H24.499Z" fill="white"/>
<path fill-rule="evenodd" clip-rule="evenodd" d="M10.8387 31.793H10.1422C8.71002 31.799 7.55134 32.9601 7.54834 34.3923V37.8526C7.54834 39.2861 8.70877 40.449 10.1422 40.452H37.8577C39.2899 40.446 40.4486 39.2848 40.4516 37.8526V34.3923C40.4516 32.9589 39.2911 31.796 37.8577 31.793H37.0132C33.8823 35.8459 29.05 38.2192 23.9287 38.2192C18.8073 38.2192 13.975 35.8459 10.8441 31.793L10.8387 31.793Z" fill="white"/>
</g>
</svg>
