<svg width="48" height="48" viewBox="0 0 48 48" fill="none" xmlns="http://www.w3.org/2000/svg">
<rect width="48" height="48" rx="4" fill="#7E8BE4"/>
<mask id="mask0_1518_27822" style="mask-type:luminance" maskUnits="userSpaceOnUse" x="0" y="0" width="48" height="48">
<rect width="48" height="48" rx="4" fill="white"/>
</mask>
<g mask="url(#mask0_1518_27822)">
<rect x="29.3796" y="30.0264" width="3.00516" height="3.00516" rx="0.91" fill="white"/>
<rect x="29.3796" y="35.0332" width="3.00516" height="3.00516" rx="0.91" fill="white"/>
<rect x="24.3674" y="30.0264" width="3.00516" height="3.00516" rx="0.91" fill="white"/>
<rect x="24.3674" y="35.0332" width="3.00516" height="3.00516" rx="0.91" fill="white"/>
<rect x="19.3551" y="30.0264" width="3.00516" height="3.00516" rx="0.91" fill="white"/>
<rect x="19.3551" y="35.0332" width="3.00516" height="3.00516" rx="0.91" fill="white"/>
<path fill-rule="evenodd" clip-rule="evenodd" d="M35.6971 7.54819H11.8258C9.39211 7.48952 7.36351 9.39836 7.27417 11.8311V36.1685C7.35449 38.5748 9.34153 40.4766 11.749 40.4514H14.9845C14.8398 40.1698 14.7646 39.8577 14.7651 39.5411V27.2901C14.7675 26.8798 15.0901 26.5428 15.5 26.5224H36.07C36.4863 26.5342 36.8185 26.8736 36.8213 27.2901V39.5411C36.8216 39.8187 36.7637 40.0934 36.6513 40.3472C38.657 39.9466 40.1199 38.2131 40.1774 36.1685V11.8311C40.2542 9.50045 38.2142 7.54819 35.6971 7.54819ZM13.1858 16.3772C12.3585 16.3574 11.6901 15.6962 11.6613 14.8692V13.3611C11.6898 12.5382 12.3518 11.8785 13.1748 11.853H20.9016C21.7246 11.8785 22.3866 12.5382 22.4151 13.3611V14.8692C22.3866 15.6921 21.7246 16.3517 20.9016 16.3772H13.1858ZM36.8213 24.1314C36.8098 24.5415 36.4801 24.8712 36.07 24.8827H15.5C15.0899 24.8712 14.7602 24.5415 14.7487 24.1314V22.903C14.7547 21.7979 15.6507 20.9044 16.7558 20.9014H19.2619V19.8759C19.2619 19.0461 19.9346 18.3734 20.7645 18.3734C21.5943 18.3734 22.2671 19.0461 22.2671 19.8759V20.874H29.2864V19.8759C29.2864 19.0461 29.9592 18.3734 30.789 18.3734C31.6189 18.3734 32.2916 19.0461 32.2916 19.8759V20.874H34.7977C35.3362 20.871 35.8535 21.084 36.2338 21.4654C36.6141 21.8467 36.8257 22.3645 36.8213 22.903V24.1314Z" fill="white"/>
</g>
</svg>
