<svg width="48" height="48" viewBox="0 0 48 48" fill="none" xmlns="http://www.w3.org/2000/svg">
<rect width="48" height="48" rx="4" fill="#7E8BE4"/>
<mask id="mask0_1518_27824" style="mask-type:luminance" maskUnits="userSpaceOnUse" x="0" y="0" width="48" height="48">
<rect width="48" height="48" rx="4" fill="white"/>
</mask>
<g mask="url(#mask0_1518_27824)">
<path d="M38.0636 21.682H35.2303V18.4366C35.2303 14.1608 32.809 10.4517 29.306 8.54566V14.1608C29.306 17.0457 26.9363 19.4154 24.0515 19.4154C21.1666 19.4154 18.7969 17.0457 18.7969 14.1608V8.49414C15.1909 10.3487 12.7181 14.1093 12.7181 18.4881V21.7335H9.88481C9.11208 21.7335 8.44238 22.3517 8.44238 23.176V23.4335C8.44238 24.2063 9.06056 24.876 9.88481 24.876H38.0121C38.7848 24.876 39.4545 24.2578 39.4545 23.4335V23.176C39.506 22.3517 38.8363 21.682 38.0636 21.682Z" fill="white"/>
<path d="M24.0515 16.3242C25.2363 16.3242 26.2151 15.3454 26.2151 14.1606V7.41212C25.4939 7.25757 24.7727 7.20605 23.9999 7.20605C23.2787 7.20605 22.609 7.25757 21.9393 7.41212V14.1606C21.9393 15.3454 22.8666 16.3242 24.0515 16.3242Z" fill="white"/>
<path d="M24 40.7936C17.4576 40.7936 12.1515 34.9724 12.1515 27.8633H15.2424C15.2424 33.2724 19.1575 37.7027 24 37.7027C28.8424 37.7027 32.7575 33.2724 32.7575 27.8633H35.8485C35.8485 34.9724 30.5424 40.7936 24 40.7936Z" fill="white"/>
</g>
</svg>
