<svg width="48" height="48" viewBox="0 0 48 48" fill="none" xmlns="http://www.w3.org/2000/svg">
<rect width="48" height="48" rx="4" fill="#8A76F0"/>
<mask id="mask0_1518_27401" style="mask-type:luminance" maskUnits="userSpaceOnUse" x="0" y="0" width="48" height="48">
<rect width="48" height="48" rx="4" fill="white"/>
</mask>
<g mask="url(#mask0_1518_27401)">
<path fill-rule="evenodd" clip-rule="evenodd" d="M33.4714 18.8029C33.4714 18.2686 33.0342 17.8315 32.5 17.8315H25.7C24.0971 17.8315 22.7857 16.52 22.7857 14.9172V8.11718C22.7857 7.58289 22.3485 7.14575 21.8142 7.14575H12.1C10.4971 7.14575 9.18567 8.45718 9.18567 10.06V33.3743C9.18567 34.9772 10.4971 36.2886 12.1 36.2886H21.96C22.7371 36.2886 22.9314 35.7543 22.8828 34.9286L22.8783 34.8541C22.8202 33.9077 22.6099 30.4794 24.9714 27.74C27.4 24.9229 31.3828 24.7286 31.9657 24.7286C32.5485 24.7286 33.52 24.68 33.4714 23.8543C33.4228 23.0286 33.4714 18.8029 33.4714 18.8029ZM33.2771 13.7515L26.8657 7.34004C26.72 7.19432 26.5742 7.14575 26.38 7.14575C25.9914 7.14575 25.7 7.43718 25.7 7.82575V12.9743C25.7 14.0429 26.5742 14.9172 27.6428 14.9172H32.7914C33.18 14.9172 33.4714 14.6258 33.4714 14.2372C33.4714 14.0429 33.4228 13.8972 33.2771 13.7515ZM14.9657 12.9258L12.5857 13.2658C12.44 13.3143 12.3428 13.5086 12.3914 13.6058L14.14 15.3058C14.1885 15.3543 14.1885 15.4515 14.1885 15.5L13.8 17.88C13.7514 18.0258 13.9457 18.1715 14.0914 18.0743L16.2285 16.9572C16.2771 16.9086 16.3742 16.9086 16.4228 16.9572L18.56 18.0743C18.7057 18.1715 18.9 18.0258 18.8514 17.88L18.4628 15.5C18.4628 15.4029 18.4628 15.3543 18.5114 15.3058L20.26 13.6058C20.4057 13.5086 20.3085 13.3143 20.1628 13.2658L17.7828 12.9258C17.7342 12.9258 17.6857 12.8772 17.6371 12.8286L16.5685 10.6429C16.4714 10.4972 16.2771 10.4972 16.18 10.6429L15.1114 12.8286C15.1114 12.8772 15.0142 12.9258 14.9657 12.9258ZM21.3285 29.4886C21.3285 30.0229 20.8914 30.46 20.3571 30.46H14.0428C13.5085 30.46 13.0714 30.0229 13.0714 29.4886V28.5172C13.0714 27.9829 13.5085 27.5458 14.0428 27.5458H20.3571C20.8914 27.5458 21.3285 27.9829 21.3285 28.5172V29.4886ZM25.7 24.6315C26.2342 24.6315 26.6714 24.1943 26.6714 23.66V22.6886C26.6714 22.1543 26.2342 21.7172 25.7 21.7172H14.0428C13.5085 21.7172 13.0714 22.1543 13.0714 22.6886V23.66C13.0714 24.1943 13.5085 24.6315 14.0428 24.6315H25.7Z" fill="white"/>
<path fill-rule="evenodd" clip-rule="evenodd" d="M24.9714 33.9572C24.9714 30.12 28.08 27.0115 31.9172 27.0115C35.7057 27.0115 38.8629 30.12 38.8629 33.9572C38.8629 37.7943 35.7543 40.9029 31.9172 40.9029C28.08 40.9029 24.9714 37.7943 24.9714 33.9572ZM29.8771 37.1143L32.5486 34.4915C32.7429 34.54 32.9371 34.5886 33.1314 34.5886C34.3943 34.6858 35.4143 33.7143 35.4629 32.5C35.4629 32.3058 35.4143 32.1115 35.3657 31.9172C35.3657 31.82 35.22 31.82 35.1714 31.8686L34.0057 33.0343C33.9086 33.1315 33.7629 33.1315 33.6657 33.0343L32.84 32.2086C32.7429 32.16 32.7429 31.9658 32.84 31.9172L34.0057 30.7029C34.0543 30.6058 34.0543 30.5086 33.9571 30.5086C33.7629 30.46 33.5686 30.4115 33.3743 30.4115C32.16 30.4115 31.1886 31.5286 31.2857 32.7429C31.2857 32.9372 31.3343 33.1315 31.3829 33.2772L28.7114 35.9486C28.42 36.2886 28.42 36.8229 28.7114 37.1143C28.9057 37.3086 29.0514 37.3572 29.2943 37.3572C29.4886 37.3572 29.6829 37.3086 29.8771 37.1143Z" fill="white"/>
</g>
</svg>
