<svg width="48" height="48" viewBox="0 0 48 48" fill="none" xmlns="http://www.w3.org/2000/svg">
<rect width="48" height="48" rx="4" fill="#0079BC"/>
<mask id="mask0_1518_27820" style="mask-type:luminance" maskUnits="userSpaceOnUse" x="0" y="0" width="48" height="48">
<rect width="48" height="48" rx="4" fill="white"/>
</mask>
<g mask="url(#mask0_1518_27820)">
<path d="M36.4666 10.4H33.6333V9.26667C33.6333 8.02 32.6133 7 31.3666 7C30.12 7 29.1 8.02 29.1 9.26667V10.4H18.9V9.26667C18.9 8.02 17.88 7 16.6333 7C15.3866 7 14.3666 8.02 14.3666 9.26667V10.4H11.5333C9.6633 10.4 8.1333 11.93 8.1333 13.8V14.9333C8.1333 15.5567 8.6433 16.0667 9.26663 16.0667H38.7333C39.3566 16.0667 39.8666 15.5567 39.8666 14.9333V13.8C39.8666 11.93 38.3366 10.4 36.4666 10.4Z" fill="white"/>
<path fill-rule="evenodd" clip-rule="evenodd" d="M9.26663 19.4668H38.7333C39.3566 19.4668 39.8666 19.9768 39.8666 20.6001V37.6001C39.8666 39.4701 38.3366 41.0001 36.4666 41.0001H11.5333C9.6633 41.0001 8.1333 39.4701 8.1333 37.6001V20.6001C8.1333 19.9768 8.6433 19.4668 9.26663 19.4668ZM23.9433 38.6768C28.59 38.7335 32.3866 34.9368 32.4433 30.2901C32.4433 25.7001 28.7033 21.7901 24.0566 21.7901C19.41 21.7335 15.6133 25.5301 15.5566 30.1768C15.5 34.8235 19.2966 38.6201 23.9433 38.6768Z" fill="white"/>
<path d="M23.8866 24.1133V30.5733H29.9499C29.9499 30.5733 30.2899 28.3067 28.1933 26.1533C26.0966 24 23.8866 24.1133 23.8866 24.1133Z" fill="white"/>
</g>
</svg>
