<svg width="48" height="48" viewBox="0 0 48 48" fill="none" xmlns="http://www.w3.org/2000/svg">
<rect width="48" height="48" rx="4" fill="#7E8BE4"/>
<mask id="mask0_1518_27828" style="mask-type:luminance" maskUnits="userSpaceOnUse" x="0" y="0" width="48" height="48">
<rect width="48" height="48" rx="4" fill="white"/>
</mask>
<g mask="url(#mask0_1518_27828)">
<path fill-rule="evenodd" clip-rule="evenodd" d="M36.3534 9.83319H35.2201C35.0669 9.82306 34.9168 9.8795 34.8082 9.98805C34.6997 10.0966 34.6433 10.2467 34.6534 10.3999V12.6665C34.6535 15.1548 32.6479 17.1781 30.1597 17.1999H17.8234C15.3352 17.1781 13.3296 15.1548 13.3297 12.6665V10.3999C13.3399 10.2467 13.2834 10.0966 13.1749 9.98805C13.0663 9.8795 12.9162 9.82306 12.7631 9.83319H11.6297C9.76303 9.84875 8.25799 11.3664 8.25806 13.2332V37.5999C8.25799 39.4666 9.76303 40.9843 11.6297 40.9999H36.3534C38.2201 40.9843 39.7251 39.4666 39.7251 37.5999V13.2332C39.7251 11.3664 38.2201 9.84875 36.3534 9.83319ZM20.0674 33.0665C20.0674 33.6924 19.56 34.1999 18.9341 34.1999H17.8007C17.1748 34.1999 16.6674 33.6924 16.6674 33.0665V27.3999C16.6674 26.7739 17.1748 26.2665 17.8007 26.2665H18.9341C19.56 26.2665 20.0674 26.7739 20.0674 27.3999V33.0665ZM25.7001 33.0665C25.7001 33.6924 25.1926 34.1999 24.5667 34.1999H23.4334C22.8075 34.1999 22.3001 33.6924 22.3001 33.0665V22.2999C22.3001 21.6739 22.8075 21.1665 23.4334 21.1665H24.5667C25.1926 21.1665 25.7001 21.6739 25.7001 22.2999V33.0665ZM31.3157 33.0665C31.3157 33.6924 30.8083 34.1999 30.1824 34.1999H29.0491C28.4231 34.1999 27.9157 33.6924 27.9157 33.0665V24.5665C27.9157 23.9406 28.4231 23.4332 29.0491 23.4332H30.1824C30.8083 23.4332 31.3157 23.9406 31.3157 24.5665V33.0665Z" fill="white"/>
<path fill-rule="evenodd" clip-rule="evenodd" d="M17.8233 13.8H30.1767C30.8026 13.8 31.31 13.2926 31.31 12.6667V10.4C31.3101 8.53324 29.805 7.01556 27.9383 7H20.0673C18.2007 7.01556 16.6956 8.53324 16.6957 10.4V12.6667C16.6957 13.2904 17.1996 13.7969 17.8233 13.8Z" fill="white"/>
</g>
</svg>
