<svg width="48" height="48" viewBox="0 0 48 48" fill="none" xmlns="http://www.w3.org/2000/svg">
<rect width="48" height="48" rx="4" fill="#04844B"/>
<mask id="mask0_1518_27838" style="mask-type:luminance" maskUnits="userSpaceOnUse" x="0" y="0" width="48" height="48">
<rect width="48" height="48" rx="4" fill="white"/>
</mask>
<g mask="url(#mask0_1518_27838)">
<path fill-rule="evenodd" clip-rule="evenodd" d="M38.7147 28.738L36.1508 26.5642C36.318 25.7839 36.3737 24.9479 36.3737 24.1675C36.3737 23.3872 36.318 22.5511 36.1508 21.7708L38.7147 19.597C39.5508 18.8724 39.8295 17.6462 39.2721 16.6429L38.1573 14.6921C37.7114 13.9675 36.9868 13.5774 36.1508 13.5774C35.8721 13.5774 35.5934 13.6331 35.3705 13.7446L32.1377 14.9151C30.8557 13.8003 29.4623 13.02 28.0131 12.5183L27.4557 9.22982C27.2327 8.11507 26.2852 7.50195 25.1705 7.50195H22.9409C21.8262 7.50195 20.8229 8.11507 20.6557 9.22982L20.0983 12.4626C18.5377 12.9642 17.1442 13.8003 15.918 14.8593L12.6295 13.6888C12.529 13.6687 12.4357 13.6414 12.3445 13.6146C12.1827 13.5672 12.0273 13.5216 11.8491 13.5216C11.0131 13.5216 10.2327 13.9675 9.84258 14.6364L8.72783 16.5872C8.17045 17.5905 8.3934 18.8167 9.28521 19.5413L11.8491 21.7151C11.6819 22.4954 11.6262 23.3315 11.6262 24.1118C11.6262 24.9479 11.6819 25.7282 11.8491 26.5085L9.28521 28.6823C8.44914 29.4069 8.17045 30.6331 8.72783 31.6364L9.84258 33.5872C10.2885 34.3118 11.0131 34.702 11.8491 34.702C12.1278 34.702 12.4065 34.6462 12.6295 34.5347L15.8623 33.3642C17.1442 34.479 18.5377 35.2593 19.9868 35.761L20.5442 39.1052C20.7672 40.22 21.659 41.0003 22.8295 41.0003H25.059C26.1737 41.0003 27.177 40.1642 27.3442 39.0495L27.9016 35.7052C29.518 35.1479 30.9672 34.3118 32.2491 33.1413L35.259 34.3118C35.3519 34.3304 35.4448 34.3551 35.5377 34.3799L35.5377 34.3799C35.7235 34.4295 35.9093 34.479 36.095 34.479C36.9311 34.479 37.7114 34.0331 38.1016 33.3642L39.1606 31.5249C39.8295 30.6888 39.5508 29.4626 38.7147 28.738ZM24.0557 19.4298C21.3245 19.4298 19.1508 21.6036 19.1508 24.3347C19.1508 27.0659 21.3245 29.2397 24.0557 29.2397C26.7868 29.2397 28.9606 27.0659 28.9606 24.3347C28.9606 21.6036 26.7868 19.4298 24.0557 19.4298ZM16.3639 24.3347C16.3639 28.5708 19.7639 32.0265 24.0557 32.0265C28.2918 32.0265 31.7475 28.5708 31.7475 24.3347C31.7475 20.0987 28.2918 16.6429 24.0557 16.6429C19.8196 16.6429 16.3639 20.0987 16.3639 24.3347Z" fill="white"/>
</g>
</svg>
