<svg width="48" height="48" viewBox="0 0 48 48" fill="none" xmlns="http://www.w3.org/2000/svg">
<g clip-path="url(#clip0_1518_27964)">
<mask id="mask0_1518_27964" style="mask-type:alpha" maskUnits="userSpaceOnUse" x="0" y="0" width="48" height="48">
<path d="M44 0H4C1.79086 0 0 1.79086 0 4V44C0 46.2091 1.79086 48 4 48H44C46.2091 48 48 46.2091 48 44V4C48 1.79086 46.2091 0 44 0Z" fill="white"/>
</mask>
<g mask="url(#mask0_1518_27964)">
<path d="M44 0H4C1.79086 0 0 1.79086 0 4V44C0 46.2091 1.79086 48 4 48H44C46.2091 48 48 46.2091 48 44V4C48 1.79086 46.2091 0 44 0Z" fill="#EB7092"/>
<path d="M36.4666 10.4H33.6333V9.26667C33.6333 8.01482 32.6185 7 31.3666 7C30.1148 7 29.1 8.01482 29.1 9.26667V10.4H18.9V9.26667C18.9 8.01482 17.8851 7 16.6333 7C15.3815 7 14.3666 8.01482 14.3666 9.26667V10.4H11.5333C9.65553 10.4 8.1333 11.9222 8.1333 13.8V14.9333C8.1333 15.5593 8.64071 16.0667 9.26663 16.0667H38.7333C39.3592 16.0667 39.8666 15.5593 39.8666 14.9333V13.8C39.8666 11.9222 38.3444 10.4 36.4666 10.4ZM38.7333 19.4667H9.26663C8.64071 19.4667 8.1333 19.9741 8.1333 20.6V37.6C8.1333 39.4778 9.65553 41 11.5333 41H36.4666C38.3444 41 39.8666 39.4778 39.8666 37.6V20.6C39.8666 19.9741 39.3592 19.4667 38.7333 19.4667ZM24 38.6767C19.3368 38.6767 15.5566 34.8965 15.5566 30.2333C15.5566 25.5702 19.3368 21.79 24 21.79C28.6631 21.79 32.4433 25.5702 32.4433 30.2333C32.4308 34.8913 28.6579 38.6642 24 38.6767ZM20.1466 33.7467C20.1312 34.0125 20.0071 34.2602 19.8034 34.4317C19.5998 34.6032 19.3345 34.6834 19.07 34.6533H18.39C18.1884 34.6634 18.0141 34.5141 17.9933 34.3133V29.1C17.9933 28.8733 18.1633 28.76 18.39 28.76H19.75C19.9515 28.7499 20.1258 28.8993 20.1466 29.1V33.7467ZM29.8933 32.7267C29.8933 34.71 28.0233 34.88 25.9833 34.88C24.1133 34.88 23.4333 34.2567 21.62 34.2C21.4381 34.1865 21.2935 34.0419 21.28 33.86V29.3267C21.28 29.1 21.45 28.9867 21.6766 28.9867C22.9492 28.9318 23.9506 27.8804 23.9433 26.6067V25.2467C23.9433 25.02 24.1133 24.9067 24.34 24.9067H25.02C25.2845 24.8766 25.5498 24.9568 25.7534 25.1283C25.9571 25.2998 26.0812 25.5475 26.0966 25.8133V28.1367C26.1121 28.4025 26.2362 28.6502 26.4398 28.8217C26.6435 28.9932 26.9088 29.0734 27.1733 29.0433H28.76C29.3053 29.0038 29.7828 29.4059 29.8366 29.95L29.8933 32.7267Z" fill="white"/>
</g>
</g>
<defs>
<clipPath id="clip0_1518_27964">
<rect width="48" height="48" fill="white"/>
</clipPath>
</defs>
</svg>
