<svg width="48" height="48" viewBox="0 0 48 48" fill="none" xmlns="http://www.w3.org/2000/svg">
<rect width="48" height="48" rx="4" fill="#EB7092"/>
<mask id="mask0_1518_27842" style="mask-type:luminance" maskUnits="userSpaceOnUse" x="0" y="0" width="48" height="48">
<rect width="48" height="48" rx="4" fill="white"/>
</mask>
<g mask="url(#mask0_1518_27842)">
<path d="M36.4666 10.4H33.6333V9.26667C33.6333 8.02 32.6133 7 31.3666 7C30.12 7 29.1 8.02 29.1 9.26667V10.4H18.9V9.26667C18.9 8.02 17.88 7 16.6333 7C15.3866 7 14.3666 8.02 14.3666 9.26667V10.4H11.5333C9.6633 10.4 8.1333 11.93 8.1333 13.8V14.9333C8.1333 15.5567 8.6433 16.0667 9.26663 16.0667H38.7333C39.3566 16.0667 39.8666 15.5567 39.8666 14.9333V13.8C39.8666 11.93 38.3366 10.4 36.4666 10.4Z" fill="white"/>
<path fill-rule="evenodd" clip-rule="evenodd" d="M9.26663 19.4668H38.7333C39.3566 19.4668 39.8666 19.9768 39.8666 20.6001V37.6001C39.8666 39.4701 38.3366 41.0001 36.4666 41.0001H11.5333C9.6633 41.0001 8.1333 39.4701 8.1333 37.6001V20.6001C8.1333 19.9768 8.6433 19.4668 9.26663 19.4668ZM15.5566 30.2335C15.5566 34.8801 19.3533 38.6768 24 38.6768C28.6466 38.6768 32.4433 34.8801 32.4433 30.2335C32.4433 25.5868 28.6466 21.7901 24 21.7901C19.3533 21.7901 15.5566 25.5868 15.5566 30.2335Z" fill="white"/>
<path d="M22.6967 33.6897C22.47 33.6897 22.3 33.5763 22.13 33.463L19.2967 30.6297C19.1833 30.5163 19.1833 30.2897 19.2967 30.1197L19.92 29.4963C20.0333 29.383 20.26 29.383 20.43 29.4963L22.6967 31.763L27.5133 26.9463C27.6267 26.833 27.8533 26.833 28.0233 26.9463L28.6467 27.5697C28.76 27.683 28.76 27.9097 28.6467 28.0797L23.2067 33.5197C23.0933 33.5763 22.9233 33.6897 22.6967 33.6897Z" fill="white"/>
</g>
</svg>
