<svg width="48" height="48" viewBox="0 0 48 48" fill="none" xmlns="http://www.w3.org/2000/svg">
<rect width="48" height="48" rx="4" fill="#7E8BE4"/>
<mask id="mask0_1518_27844" style="mask-type:luminance" maskUnits="userSpaceOnUse" x="0" y="0" width="48" height="48">
<rect width="48" height="48" rx="4" fill="white"/>
</mask>
<g mask="url(#mask0_1518_27844)">
<path fill-rule="evenodd" clip-rule="evenodd" d="M24.5763 21.8675L37.0237 14.8947C37.3119 14.7218 37.3695 14.376 37.1966 14.0879L37.0237 13.915C34.2576 12.3591 25.7864 7.51839 25.7864 7.51839C24.6915 6.88449 23.3085 6.88449 22.2136 7.51839C22.2136 7.51839 13.7424 12.3014 10.9763 13.915C10.6881 14.0879 10.6305 14.4336 10.8034 14.7218L10.9763 14.8947L23.4237 21.8675C23.7695 22.0404 24.2305 22.0404 24.5763 21.8675ZM25.7288 25.7862V39.8472C25.7288 40.193 25.9593 40.4235 26.3051 40.4235C26.4203 40.4235 26.5356 40.4235 26.5932 40.3659C29.3593 38.8099 37.7729 34.0269 37.7729 34.0269C38.8678 33.393 39.5593 32.2404 39.5593 30.9726V18.3523C39.5593 18.0065 39.3288 17.776 38.983 17.776C38.8678 17.776 38.7525 17.776 38.6949 17.8336L26.3051 24.8065C25.9593 24.9794 25.7288 25.3828 25.7288 25.7862ZM9.30508 17.8336L21.6949 24.8065C22.0407 24.9794 22.2712 25.3828 22.2712 25.7862V39.7896C22.2712 39.8472 22.2712 39.9625 22.2136 40.0777C22.0407 40.3659 21.6949 40.4811 21.4068 40.3082C18.6407 38.7523 10.2271 33.9692 10.2271 33.9692C9.1322 33.3353 8.44067 32.1828 8.44067 30.915V18.3523C8.44067 18.237 8.44067 18.1218 8.4983 18.0642C8.67118 17.776 9.01695 17.6608 9.30508 17.8336Z" fill="white"/>
</g>
</svg>
