<svg width="48" height="48" viewBox="0 0 48 48" fill="none" xmlns="http://www.w3.org/2000/svg">
<rect width="48" height="48" rx="4" fill="#FA975C"/>
<mask id="mask0_1518_27848" style="mask-type:luminance" maskUnits="userSpaceOnUse" x="0" y="0" width="48" height="48">
<rect width="48" height="48" rx="4" fill="white"/>
</mask>
<g mask="url(#mask0_1518_27848)">
<path fill-rule="evenodd" clip-rule="evenodd" d="M24.0399 27.9295C22.6648 27.958 21.4092 27.1515 20.8631 25.8892C20.3171 24.6268 20.5891 23.1595 21.5515 22.1768C22.5138 21.1942 23.9751 20.8915 25.2486 21.4111C26.5221 21.9306 27.3546 23.1691 27.3549 24.5445C27.3716 26.3936 25.889 27.9076 24.0399 27.9295Z" fill="white"/>
<path fill-rule="evenodd" clip-rule="evenodd" d="M39.395 22.32H36.61V12.35C36.5832 10.513 35.1019 9.02952 33.265 9H14.735C12.8961 9.02959 11.4141 10.516 11.39 12.355V22.32H8.60498C7.71407 22.3687 7.0166 23.1053 7.0166 23.9975C7.0166 24.8897 7.71407 25.6263 8.60498 25.675H11.39V35.65C11.4168 37.487 12.898 38.9705 14.735 39H33.265C35.1039 38.9704 36.5859 37.484 36.61 35.645V25.68H39.395C40.2859 25.6313 40.9834 24.8947 40.9834 24.0025C40.9834 23.1103 40.2859 22.3737 39.395 22.325V22.32ZM32.36 28.72L31.775 29.72C31.5346 30.0812 31.1337 30.3031 30.7 30.315C30.5489 30.3057 30.4003 30.2719 30.26 30.215L28.65 29.57C27.9689 30.1838 27.1738 30.6577 26.31 30.965L26 32.8C25.8969 33.396 25.3848 33.8347 24.78 33.845H23.58C22.9752 33.8347 22.4631 33.396 22.36 32.8L22.065 30.96C21.2317 30.696 20.4657 30.2542 19.82 29.665L18.115 30.31C17.9747 30.3669 17.8261 30.4007 17.675 30.41C17.2278 30.4002 16.8191 30.1549 16.6 29.765L16 28.72C15.6975 28.1873 15.822 27.5143 16.295 27.125L17.71 25.93C17.6161 25.4878 17.5675 25.0371 17.565 24.585C17.5677 24.1494 17.6163 23.7154 17.71 23.29L16.315 22.1C15.8287 21.718 15.6947 21.0378 16 20.5L16.585 19.455C16.7953 19.0567 17.2095 18.8081 17.66 18.81C17.8111 18.8193 17.9597 18.8531 18.1 18.91L19.805 19.555C20.4612 18.9683 21.2231 18.5119 22.05 18.21L22.36 16.5C22.447 15.9014 22.976 15.4679 23.58 15.5H24.8C25.3719 15.4748 25.8787 15.8655 26 16.425L26.295 18.215C27.1239 18.494 27.8913 18.9303 28.555 19.5L30.26 18.855C30.4003 18.7981 30.5489 18.7643 30.7 18.755C31.1471 18.7648 31.5559 19.0101 31.775 19.4L32.36 20.445C32.6366 20.9818 32.5153 21.6377 32.065 22.04L30.65 23.235C30.7465 23.6768 30.7951 24.1278 30.795 24.58C30.7923 25.0156 30.7437 25.4496 30.65 25.875L32.065 27.07C32.5465 27.4779 32.6703 28.1705 32.36 28.72Z" fill="white"/>
</g>
</svg>
