<svg width="48" height="48" viewBox="0 0 48 48" fill="none" xmlns="http://www.w3.org/2000/svg">
<rect width="48" height="48" rx="4" fill="#A094ED"/>
<mask id="mask0_1518_27854" style="mask-type:luminance" maskUnits="userSpaceOnUse" x="0" y="0" width="48" height="48">
<rect width="48" height="48" rx="4" fill="white"/>
</mask>
<g mask="url(#mask0_1518_27854)">
<path fill-rule="evenodd" clip-rule="evenodd" d="M7.27869 21.38C7.27869 14.6915 12.4066 9.45215 19.1508 9.45215H21.1574C21.7705 9.45215 22.2721 9.95379 22.2721 10.5669V12.7964C22.2721 13.4095 21.7705 13.9112 21.1574 13.9112H19.2066C15.4721 13.9112 11.7934 17.6456 11.7934 21.38V23.6095H21.1016C21.7148 23.6095 22.2164 24.1112 22.2164 24.7243V37.4325C22.2164 38.0456 21.7148 38.5472 21.1016 38.5472H8.39344C7.78033 38.5472 7.27869 38.0456 7.27869 37.4325V21.38ZM25.8393 21.38C25.8393 14.6915 30.9672 9.45215 37.7115 9.45215H39.6623C40.2754 9.45215 40.777 9.95379 40.777 10.5669V12.7964C40.777 13.4095 40.2754 13.9112 39.6623 13.9112H37.7115C33.977 13.9112 30.2984 17.6456 30.2984 21.38V23.6095H39.6623C40.2754 23.6095 40.777 24.1112 40.777 24.7243V37.4325C40.777 38.0456 40.2754 38.5472 39.6623 38.5472H26.9541C26.341 38.5472 25.8393 38.0456 25.8393 37.4325V21.38Z" fill="white"/>
</g>
</svg>
