<svg width="48" height="48" viewBox="0 0 48 48" fill="none" xmlns="http://www.w3.org/2000/svg">
<rect width="48" height="48" rx="4" fill="#0EB58A"/>
<mask id="mask0_1518_27856" style="mask-type:luminance" maskUnits="userSpaceOnUse" x="0" y="0" width="48" height="48">
<rect width="48" height="48" rx="4" fill="white"/>
</mask>
<g mask="url(#mask0_1518_27856)">
<path fill-rule="evenodd" clip-rule="evenodd" d="M31.412 15.5684H30.732C30.528 15.5684 30.392 15.7044 30.392 15.9084V17.2684C30.392 18.7644 29.168 19.9544 27.706 19.9544H20.294C18.798 19.9544 17.608 18.7304 17.608 17.2684V15.9084C17.608 15.7044 17.472 15.5684 17.268 15.5684H16.588C15.466 15.5684 14.582 16.4864 14.582 17.5744V32.0584C14.582 33.1804 15.5 34.0644 16.588 34.0644H31.412C32.534 34.0644 33.418 33.1464 33.418 32.0584V17.6084C33.452 16.4864 32.534 15.5684 31.412 15.5684ZM22.062 23.3204C22.062 23.3204 22.062 23.5924 21.858 23.6264C21.6835 23.67 21.5789 23.7136 21.5174 23.7393C21.4831 23.7536 21.4622 23.7624 21.45 23.7624C21.348 23.8644 21.314 24.0344 21.314 24.3404V25.3944C21.314 25.7684 21.246 26.0744 21.144 26.3124C21.076 26.4824 20.94 26.6524 20.804 26.7884C20.804 26.7884 20.566 26.9584 20.804 27.2304C20.906 27.2984 20.974 27.4004 21.042 27.5024C21.212 27.7744 21.314 28.1144 21.314 28.5564V29.7804C21.314 30.0524 21.382 30.2224 21.484 30.3244C21.518 30.3584 21.586 30.3924 21.688 30.4264C21.705 30.4264 21.722 30.4349 21.739 30.4434C21.756 30.4519 21.773 30.4604 21.79 30.4604C21.892 30.5284 22.028 30.6304 22.028 30.8684V31.4804V31.5484C22.028 31.6164 21.96 31.7184 21.756 31.7184H21.45C20.974 31.7184 20.532 31.5484 20.158 31.2764C19.75 30.9704 19.546 30.5284 19.546 29.9844V28.5224C19.546 28.2164 19.444 27.9784 19.274 27.8084C19.172 27.7064 19.002 27.6384 18.764 27.5704C18.73 27.5704 18.594 27.5024 18.594 27.2984V26.7544C18.594 26.6864 18.628 26.5844 18.764 26.5164C19.104 26.4144 19.24 26.3124 19.308 26.2444C19.478 26.0744 19.546 25.8024 19.546 25.4624V24.2384C19.546 24.0684 19.58 23.8644 19.648 23.6604C19.75 23.3204 19.954 23.0144 20.192 22.8104C20.43 22.6404 20.702 22.5044 21.008 22.4364C21.178 22.4024 21.416 22.3684 21.722 22.3684C21.824 22.3684 22.028 22.4364 22.028 22.6744V23.3204H22.062ZM29.202 27.6044C29.338 27.5364 29.372 27.4344 29.372 27.3664H29.406V26.8224C29.406 26.6184 29.27 26.5504 29.236 26.5504C28.998 26.4824 28.828 26.4144 28.726 26.3124C28.556 26.1424 28.454 25.9044 28.454 25.5984V24.1364C28.454 23.5924 28.25 23.1504 27.842 22.8444C27.468 22.5724 27.026 22.4024 26.55 22.4024H26.244C26.04 22.4024 25.972 22.5044 25.972 22.5724V22.6404V23.3204C25.972 23.5584 26.108 23.6604 26.21 23.7284C26.227 23.7284 26.244 23.7369 26.261 23.7454C26.278 23.7539 26.295 23.7624 26.312 23.7624C26.414 23.7964 26.482 23.8304 26.516 23.8644C26.618 23.9664 26.686 24.1364 26.686 24.4084V25.5644C26.686 26.0064 26.788 26.3464 26.958 26.6184C27.026 26.7204 27.094 26.8224 27.196 26.8904C27.434 27.1624 27.196 27.3324 27.196 27.3324C27.06 27.4684 26.924 27.6384 26.856 27.8084C26.754 28.0464 26.686 28.3524 26.686 28.7264V29.7804C26.686 30.0864 26.652 30.2564 26.55 30.3584C26.5379 30.3584 26.5169 30.3671 26.4826 30.3814C26.4211 30.4071 26.3166 30.4507 26.142 30.4944C25.938 30.5284 25.938 30.8004 25.938 30.8004V31.4464C25.938 31.6844 26.142 31.7524 26.244 31.7524C26.55 31.7524 26.788 31.7184 26.958 31.6844C27.264 31.6164 27.536 31.4804 27.774 31.3104C28.012 31.1064 28.216 30.8004 28.318 30.4604C28.386 30.2564 28.42 30.0524 28.42 29.8824V28.6584C28.42 28.3184 28.488 28.0464 28.658 27.8764C28.726 27.8084 28.862 27.7064 29.202 27.6044Z" fill="white"/>
<path d="M20.294 17.9483H27.706C28.08 17.9483 28.386 17.6423 28.386 17.2683V15.9083C28.386 14.7863 27.468 13.9023 26.38 13.9023H21.654C20.532 13.9023 19.648 14.8203 19.648 15.9083V17.2683C19.614 17.6423 19.92 17.9483 20.294 17.9483Z" fill="white"/>
</g>
</svg>
