<svg width="48" height="48" viewBox="0 0 48 48" fill="none" xmlns="http://www.w3.org/2000/svg">
<rect width="48" height="48" rx="4" fill="#54698D"/>
<mask id="mask0_1518_27858" style="mask-type:luminance" maskUnits="userSpaceOnUse" x="0" y="0" width="48" height="48">
<rect width="48" height="48" rx="4" fill="white"/>
</mask>
<g mask="url(#mask0_1518_27858)">
<path d="M15.1378 16.1963C12.741 21.4914 12.741 23.6094 15.1378 28.9602C15.8623 28.9602 16.1968 28.9602 16.9214 28.9602C14.8033 24.2783 14.8033 20.8225 16.8656 16.1963C16.1968 16.1963 15.8066 16.1963 15.1378 16.1963Z" fill="white"/>
<path d="M31.5803 26.2849C31.9147 26.2291 32.3049 26.1734 32.6393 26.1734C32.918 26.1734 33.141 26.1734 33.4196 26.2291C34.6459 22.6619 34.3115 20.4882 32.3606 16.1406C31.636 16.1406 31.3016 16.1406 30.577 16.1406C32.2492 19.8751 32.5836 22.8849 31.5803 26.2849Z" fill="white"/>
<path d="M21.2689 32.6393H11.2361C10.4557 32.6393 9.84262 32.0262 9.84262 31.2459V12.6852H18.3705H29.0721H37.6V27.4557C38.659 27.5672 39.6066 27.9574 40.4426 28.459V18.0361V9.84262C40.4426 8.28197 39.1607 7 37.6 7H29.0721H18.3705H9.84262C8.28197 7 7 8.28197 7 9.84262V18.0361V32.6393C7 34.2 8.28197 35.482 9.84262 35.482H20.3213C20.377 34.423 20.7115 33.4754 21.2689 32.6393Z" fill="white"/>
<path d="M30.4098 29.908C30.9672 29.3506 31.7475 28.9605 32.6393 28.9605C33.8098 28.9605 34.8131 29.5736 35.3705 30.5211C35.8164 30.3539 36.3738 30.1867 36.9312 30.1867C38.9934 30.1867 40.7213 31.9146 40.7213 33.9211C40.7213 35.9834 38.9934 37.6556 36.9312 37.6556C36.7082 37.6556 36.4295 37.6556 36.2066 37.5998C35.7607 38.4359 34.8131 38.9933 33.8098 38.9933C33.3639 38.9933 32.9738 38.8818 32.5836 38.7146C32.082 39.8293 30.9672 40.6097 29.6853 40.6097C28.2918 40.6097 27.1771 39.7736 26.7312 38.6031C26.5639 38.6031 26.341 38.6588 26.118 38.6588C24.5016 38.6588 23.1639 37.3769 23.1639 35.7605C23.1639 34.7015 23.7213 33.7539 24.6131 33.2523C24.4459 32.8621 24.3344 32.4162 24.3344 31.9146C24.3344 30.0752 25.8951 28.5703 27.7344 28.5703C28.8492 28.6261 29.7967 29.1277 30.4098 29.908Z" fill="white"/>
<path d="M21.7705 25.8954C22.2721 25.0593 22.8295 24.1118 22.8295 24.1118C22.9967 24.8921 23.1082 25.5052 23.2197 25.7839C23.3869 26.2855 23.7213 26.6757 24.1672 26.9544C25.1705 26.2298 26.3967 25.8396 27.7344 25.8396C27.7902 25.8396 27.8459 25.8396 27.9017 25.8396C27.9017 25.3937 27.5672 25.0593 27.1213 25.0593C27.0098 25.0593 26.8984 25.115 26.7869 25.115C26.7869 25.115 25.9508 25.5609 25.6721 25.2265C25.4492 24.8364 25.282 24.3347 25.1705 23.6659C25.059 23.1085 24.8918 22.4396 24.7803 21.7708L25.6164 20.5446C25.6164 20.5446 26.5639 20.879 27.0098 20.879C27.4557 20.879 28.459 20.4888 28.459 19.2068C28.459 17.9249 27.5672 17.8691 27.2885 17.8691C26.7312 17.8691 26.1738 18.2593 25.6721 19.0954C25.1705 19.9314 24.6131 20.879 24.6131 20.879C24.5016 20.2659 24.3902 19.7642 24.3344 19.5413C24.223 19.0396 23.6098 17.8691 22.3836 17.8691C21.1017 17.8691 19.9869 18.5937 19.9869 18.5937C19.7639 18.7052 19.6525 18.9839 19.6525 19.2626C19.6525 19.7085 19.9869 20.0429 20.4328 20.0429C20.5443 20.0429 20.6557 19.9872 20.7672 19.9872C20.7672 19.9872 21.7148 19.4298 21.9377 19.9872C21.9935 20.1544 22.0492 20.3216 22.1049 20.5446C22.3279 21.3806 22.5508 22.3282 22.7738 23.22L21.9377 24.3905C21.9377 24.3905 20.9902 24.056 20.5443 24.056C20.0984 24.056 19.0951 24.4462 19.0951 25.7282C19.0951 27.0101 19.9869 27.0659 20.2656 27.0659C20.7672 27.1773 21.3246 26.7314 21.7705 25.8954Z" fill="white"/>
</g>
</svg>
