<svg width="48" height="48" viewBox="0 0 48 48" fill="none" xmlns="http://www.w3.org/2000/svg">
<rect width="48" height="48" rx="4" fill="#EA74A2"/>
<mask id="mask0_1518_27862" style="mask-type:luminance" maskUnits="userSpaceOnUse" x="0" y="0" width="48" height="48">
<rect width="48" height="48" rx="4" fill="white"/>
</mask>
<g mask="url(#mask0_1518_27862)">
<path d="M35.3333 28.5342C32.6133 28.5342 30.29 30.4608 29.78 33.0675H22.3C21.96 33.0675 21.7333 33.3508 21.7333 33.6908C21.7333 33.8608 21.7333 34.0308 21.7333 34.2008C21.7333 34.7675 21.6766 35.2775 21.5633 35.7875C21.5066 36.1275 21.79 36.4675 22.13 36.4675H30.12C30.97 38.4508 33.01 39.8675 35.3333 39.8675C38.45 39.8675 41 37.3175 41 34.2008C41 31.0842 38.45 28.5342 35.3333 28.5342Z" fill="white"/>
<path d="M20.2033 22.0176C19.5233 21.7343 18.9 21.3376 18.3333 20.8843C18.05 20.6576 17.6533 20.7709 17.4833 21.0543L13.46 28.5909C13.2333 28.5343 12.95 28.5343 12.6667 28.5343C9.55 28.5343 7 31.0843 7 34.2009C7 37.3176 9.55 39.8676 12.6667 39.8676C15.7833 39.8676 18.3333 37.3176 18.3333 34.2009C18.3333 32.5576 17.6533 31.1409 16.5767 30.0643L20.4867 22.8109C20.6 22.5276 20.4867 22.1876 20.2033 22.0176Z" fill="white"/>
<path d="M24 19.4671C24.5667 19.4671 25.0767 19.4105 25.5867 19.2405L29.4967 26.4371C29.6667 26.7205 30.0067 26.8338 30.29 26.6638C30.9134 26.2671 31.5367 25.9271 32.2167 25.7005C32.5567 25.5871 32.67 25.1905 32.5 24.9071L28.42 17.3138C29.1567 16.3505 29.6667 15.1038 29.6667 13.8005C29.6667 10.6838 27.1167 8.13379 24 8.13379C20.8834 8.13379 18.3334 10.6838 18.3334 13.8005C18.3334 16.9171 20.8834 19.4671 24 19.4671Z" fill="white"/>
</g>
</svg>
