<svg width="48" height="48" viewBox="0 0 48 48" fill="none" xmlns="http://www.w3.org/2000/svg">
<rect width="48" height="48" rx="4" fill="#8FC972"/>
<mask id="mask0_1518_27864" style="mask-type:luminance" maskUnits="userSpaceOnUse" x="0" y="0" width="48" height="48">
<rect width="48" height="48" rx="4" fill="white"/>
</mask>
<g mask="url(#mask0_1518_27864)">
<path d="M22.3836 7.61333C16.9213 8.22645 12.518 12.5183 12.0721 17.8691C11.7377 21.7707 13.4656 25.3379 16.2524 27.6232C17.0885 28.292 17.5901 29.2953 17.5901 30.3543V30.4101C17.5901 31.9707 18.8721 33.2527 20.4885 33.2527H26.9541C28.5705 33.2527 29.8524 31.9707 29.8524 30.4101V30.3543C29.8524 29.2953 30.3541 28.292 31.1901 27.6232C33.7541 25.5051 35.4262 22.3838 35.4262 18.8724C35.4262 12.1838 29.4623 6.88874 22.3836 7.61333Z" fill="white"/>
<path d="M28.7376 36.541H18.7048C18.0917 36.541 17.5901 37.0427 17.5901 37.6558C17.5901 39.4951 19.095 41 20.9344 41H26.5081C28.3475 41 29.8524 39.4951 29.8524 37.6558C29.8524 37.0427 29.3507 36.541 28.7376 36.541Z" fill="white"/>
</g>
</svg>
