<svg width="48" height="48" viewBox="0 0 48 48" fill="none" xmlns="http://www.w3.org/2000/svg">
<rect width="48" height="48" rx="4" fill="#54698D"/>
<mask id="mask0_1518_27868" style="mask-type:luminance" maskUnits="userSpaceOnUse" x="0" y="0" width="48" height="48">
<rect width="48" height="48" rx="4" fill="white"/>
</mask>
<g mask="url(#mask0_1518_27868)">
<path fill-rule="evenodd" clip-rule="evenodd" d="M7.51512 24.2057C7.41209 15.139 14.6757 7.61778 23.7939 7.51475C32.8606 7.41172 40.3818 14.6754 40.4848 23.7935C40.5878 32.8602 33.3242 40.3814 24.206 40.4845C15.1394 40.5875 7.61815 33.3238 7.51512 24.2057ZM30.5939 11.2754C28.5848 10.2451 26.2666 9.62688 23.7939 9.67839C21.4757 9.67839 19.3121 10.2966 17.406 11.2754L19.6212 14.9845C20.9091 14.3148 22.4545 13.9541 24 13.9541C25.5454 13.9541 27.0394 14.3148 28.3788 14.9845L30.5939 11.2754ZM14.9848 28.3784L11.2757 30.5935C10.2969 28.6875 9.67876 26.4723 9.67876 24.1541C9.62724 21.6814 10.2454 19.3632 11.2757 17.3541L14.9848 19.5693C14.3151 20.9087 13.9545 22.4026 13.9545 23.9481C13.9545 25.4935 14.3151 27.0905 14.9848 28.3784ZM17.406 36.7238C19.4151 37.7541 21.7333 38.3723 24.206 38.3208C26.5242 38.3208 28.6878 37.7026 30.5939 36.7238L28.3788 33.0148C27.0909 33.6845 25.5454 34.0451 24 34.0451C22.4545 34.0451 20.9606 33.6845 19.6212 33.0148L17.406 36.7238ZM24 31.8814C19.6212 31.8814 16.1182 28.3269 16.1182 23.9996C16.1182 19.6208 19.6727 16.1178 24 16.1178C28.3788 16.1178 31.8818 19.6723 31.8818 23.9996C31.8818 28.3784 28.3788 31.8814 24 31.8814ZM34.0454 23.9996C34.0454 25.5451 33.6848 27.039 33.0151 28.3784L36.7242 30.6451C37.7545 28.636 38.3727 26.3178 38.3212 23.8451C38.3212 21.5269 37.703 19.3117 36.7242 17.4057L33.0151 19.6208C33.6848 20.9087 34.0454 22.4541 34.0454 23.9996Z" fill="white"/>
</g>
</svg>
