<svg width="48" height="48" viewBox="0 0 48 48" fill="none" xmlns="http://www.w3.org/2000/svg">
<rect width="48" height="48" rx="4" fill="#FF9A3C"/>
<mask id="mask0_1518_27872" style="mask-type:luminance" maskUnits="userSpaceOnUse" x="0" y="0" width="48" height="48">
<rect width="48" height="48" rx="4" fill="white"/>
</mask>
<g mask="url(#mask0_1518_27872)">
<path d="M38.2033 26.3027C39.4753 26.3027 40.5065 25.2716 40.5065 23.9995C40.5065 22.7275 39.4753 21.6963 38.2033 21.6963C36.9312 21.6963 35.9 22.7275 35.9 23.9995C35.9 25.2716 36.9312 26.3027 38.2033 26.3027Z" fill="white"/>
<path d="M23.8903 26.3027C25.1623 26.3027 26.1935 25.2716 26.1935 23.9995C26.1935 22.7275 25.1623 21.6963 23.8903 21.6963C22.6182 21.6963 21.587 22.7275 21.587 23.9995C21.587 25.2716 22.6182 26.3027 23.8903 26.3027Z" fill="white"/>
<path d="M9.79676 26.3027C11.0688 26.3027 12.1 25.2716 12.1 23.9995C12.1 22.7275 11.0688 21.6963 9.79676 21.6963C8.52472 21.6963 7.49353 22.7275 7.49353 23.9995C7.49353 25.2716 8.52472 26.3027 9.79676 26.3027Z" fill="white"/>
<path fill-rule="evenodd" clip-rule="evenodd" d="M23.9452 33.8708C18.5162 33.8708 14.0742 29.4289 14.0742 23.9999C14.0742 18.5708 18.5162 14.1289 23.9452 14.1289C29.3742 14.1289 33.8162 18.5708 33.8162 23.9999C33.8162 29.4289 29.3742 33.8708 23.9452 33.8708ZM23.9452 30.5805C27.5645 30.5805 30.5258 27.6192 30.5258 23.9999C30.5258 20.3805 27.5645 17.4192 23.9452 17.4192C20.3258 17.4192 17.3645 20.3805 17.3645 23.9999C17.3645 27.6192 20.3258 30.5805 23.9452 30.5805Z" fill="white"/>
</g>
</svg>
