<svg width="48" height="48" viewBox="0 0 48 48" fill="none" xmlns="http://www.w3.org/2000/svg">
<rect width="48" height="48" rx="4" fill="#3C97DD"/>
<mask id="mask0_1518_27876" style="mask-type:luminance" maskUnits="userSpaceOnUse" x="0" y="0" width="48" height="48">
<rect width="48" height="48" rx="4" fill="white"/>
</mask>
<g mask="url(#mask0_1518_27876)">
<path fill-rule="evenodd" clip-rule="evenodd" d="M29.7234 21.2803H39.4134C40.2634 21.2803 41.0001 22.0169 40.9434 22.8669C40.9434 23.1503 40.7167 23.3769 40.4334 23.3769H28.6467C28.3634 23.3769 28.1367 23.1503 28.1367 22.8669C28.1367 22.0169 28.8167 21.2803 29.7234 21.2803ZM29.7801 25.0203H39.4134C39.6967 25.0203 39.9234 25.2469 39.8667 25.5869V36.8069C39.8667 37.0903 39.6401 37.3169 39.3567 37.3169H36.4101C36.1267 37.3169 35.9001 37.0903 35.9001 36.8069V34.6536C35.9001 34.3703 35.6167 34.1436 35.3334 34.1436H33.8034C33.5201 34.1436 33.2367 34.3703 33.2367 34.6536V36.8069C33.2367 37.0903 33.0101 37.3169 32.7267 37.3169H29.7801C29.4967 37.3169 29.2701 37.0903 29.2701 36.8069V25.5303C29.2701 25.2469 29.4967 25.0203 29.7801 25.0203ZM33.7467 32.2736C33.7467 32.5569 33.5201 32.7836 33.2367 32.7836H32.1601C31.8767 32.7836 31.6501 32.5569 31.6501 32.2736V31.1969C31.6501 30.9136 31.8767 30.6869 32.1601 30.6869H33.2367C33.5201 30.6869 33.7467 30.9136 33.7467 31.1969V32.2736ZM33.2367 29.0436C33.5201 29.0436 33.7467 28.8169 33.7467 28.5336V27.4569C33.7467 27.1736 33.5201 26.9469 33.2367 26.9469H32.1601C31.8767 26.9469 31.6501 27.1736 31.6501 27.4569V28.5336C31.6501 28.8169 31.8767 29.0436 32.1601 29.0436H33.2367ZM37.5434 32.2736C37.5434 32.5569 37.3167 32.7836 37.0334 32.7836H35.9001C35.6167 32.7836 35.3901 32.5569 35.3901 32.2736V31.1969C35.3901 30.9136 35.6167 30.6869 35.9001 30.6869H36.9767C37.2601 30.6869 37.4867 30.9136 37.4867 31.1969V32.2736H37.5434ZM37.0334 29.0436C37.3167 29.0436 37.5434 28.8169 37.5434 28.5336H37.4867V27.4569C37.4867 27.1736 37.2601 26.9469 36.9767 26.9469H35.9001C35.6167 26.9469 35.3901 27.1736 35.3901 27.4569V28.5336C35.3901 28.8169 35.6167 29.0436 35.9001 29.0436H37.0334Z" fill="white"/>
<path fill-rule="evenodd" clip-rule="evenodd" d="M9.60667 10.627H25.7567C27.1733 10.627 28.3633 11.8736 28.42 13.2336V13.2903C28.42 13.8003 28.0233 14.197 27.5133 14.197H7.90667C7.39667 14.197 7 13.8003 7 13.2903V13.2336C7 11.817 8.13333 10.627 9.60667 10.627ZM9.66333 16.8603H25.7C26.21 16.8603 26.6067 17.257 26.6067 17.767V36.467C26.6067 36.977 26.21 37.3736 25.7 37.3736H20.7133C20.2033 37.3736 19.8633 36.977 19.8633 36.467V32.897C19.8633 32.387 19.4667 31.9903 18.9567 31.9903H16.35C15.8967 31.9903 15.4433 32.387 15.4433 32.897V36.467C15.4433 36.977 15.1033 37.3736 14.5933 37.3736H9.66333C9.15333 37.3736 8.75667 36.977 8.75667 36.467V17.767C8.75667 17.257 9.15333 16.8603 9.66333 16.8603ZM16.35 28.8736C16.35 29.3836 15.9533 29.7803 15.4433 29.7803H13.6867C13.1767 29.7803 12.78 29.3836 12.78 28.8736V27.117C12.78 26.607 13.1767 26.2103 13.6867 26.2103H15.4433C15.9533 26.2103 16.35 26.607 16.35 27.117V28.8736ZM15.4433 23.547C15.9533 23.547 16.35 23.1503 16.35 22.6403V20.8836C16.35 20.3736 15.9533 19.977 15.4433 19.977H13.6867C13.1767 19.977 12.78 20.3736 12.78 20.8836V22.6403C12.78 23.1503 13.1767 23.547 13.6867 23.547H15.4433ZM22.5833 28.8736C22.5833 29.3836 22.1867 29.7803 21.6767 29.7803H19.92C19.41 29.7803 19.0133 29.3836 19.0133 28.8736V27.117C19.0133 26.607 19.41 26.2103 19.92 26.2103H21.6767C22.1867 26.2103 22.5833 26.607 22.5833 27.117V28.8736ZM21.6767 23.547C22.1867 23.547 22.5833 23.1503 22.5833 22.6403V20.8836C22.5833 20.3736 22.1867 19.977 21.6767 19.977H19.92C19.41 19.977 19.0133 20.3736 19.0133 20.8836V22.6403C19.0133 23.1503 19.41 23.547 19.92 23.547H21.6767Z" fill="white"/>
</g>
</svg>
