<svg width="48" height="48" viewBox="0 0 48 48" fill="none" xmlns="http://www.w3.org/2000/svg">
<rect width="48" height="48" rx="4" fill="#54698D"/>
<mask id="mask0_1518_27880" style="mask-type:luminance" maskUnits="userSpaceOnUse" x="0" y="0" width="48" height="48">
<rect width="48" height="48" rx="4" fill="white"/>
</mask>
<g mask="url(#mask0_1518_27880)">
<path fill-rule="evenodd" clip-rule="evenodd" d="M25.8959 35.3432C30.9422 35.4974 31.135 36.4615 31.1424 40.4354L31.1426 40.9233C29.1782 40.9233 29.1782 39.3075 28.2881 39.3075C28.2881 39.8472 27.8123 40.3858 26.8608 40.9233C26.3314 39.8461 25.8556 39.3075 25.4335 39.3075C25.4335 39.8154 25.012 40.3224 24.1692 40.8284L24.0062 40.9233C23.0547 40.3858 22.5789 39.8472 22.5789 39.3075C22.1568 39.3075 21.681 39.8461 21.1516 40.9233C20.2001 40.3858 19.7243 39.8472 19.7243 39.3075C18.8342 39.3075 18.8342 40.9233 16.8697 40.9233L16.8704 40.2791C16.883 36.5282 17.125 35.5421 21.7671 35.3556C21.7513 35.4577 21.7434 35.5625 21.7434 35.6692C21.7434 36.8299 22.6786 37.7708 23.8321 37.7708C24.9857 37.7708 25.9208 36.8299 25.9208 35.6692C25.9208 35.5583 25.9123 35.4495 25.8959 35.3432ZM26.9584 10.4845C29.1027 13.039 28.6268 14.2036 28.7203 15.0175C31.0459 14.5217 32.9402 14.9563 34.2172 15.5842C35.4942 16.2121 36.2609 17.2132 36.3314 17.9215C35.2743 18.134 34.5696 18.4882 34.2172 18.984C35.4857 19.4798 37.2359 20.2277 38.5161 21.7463C39.7963 23.2649 40.1369 24.0128 40.8417 25.7127C40.9826 25.9252 40.9122 26.2085 40.8417 26.2794C39.9255 27.2002 39.3218 27.7999 38.657 28.2626C37.9923 28.7253 36.12 30.0333 35.7676 30.175C36.8952 30.8833 37.459 31.5207 37.5294 32.229C36.3314 32.6012 35.6075 32.8396 34.8412 33.1258C34.4793 33.261 33.7824 33.5107 33.0022 33.7741C34.1429 26.3609 29.4636 25.6864 27.3907 25.6864C25.8893 25.6864 25.0836 26.9156 23.8201 26.9156C22.5567 26.9156 21.7816 25.6889 20.2368 25.6889C18.6479 25.6889 14.2971 26.9407 15.0646 33.3386C14.6753 33.1792 14.2467 33.0229 13.7799 32.8665C12.6523 32.5123 11.4543 32.2999 10.2562 32.229C9.99998 32.229 9.8602 32.0534 9.8369 31.8086L9.83341 31.7332V31.5916C10.1858 30.175 11.0628 29.0337 11.5248 28.5459C11.9868 28.0581 12.9342 27.4126 13.2866 27.4835C12.8537 26.7274 11.9476 25.8491 10.8905 25.2878C9.8334 24.7265 7.86015 24.4378 7.50778 24.367C7.15542 24.2962 6.95748 24.2962 7.15542 23.6587C8.35346 20.613 9.76293 18.7007 11.4543 17.8507C13.1457 17.0008 14.6256 16.6466 15.6827 16.7883C15.4384 15.9104 15.176 15.3893 14.993 15.0175C14.81 14.6458 14.6327 14.2885 14.1323 13.6718C13.9913 13.4593 13.9913 13.1051 14.2028 12.9635C14.2732 12.9635 14.3437 12.8927 14.4142 12.8927C15.1189 12.751 15.8236 12.8218 16.5988 13.0343C17.5855 13.3176 18.5016 13.9551 19.3473 14.9467C19.2768 12.0427 18.9949 9.56369 18.3607 7.6513C18.2902 6.09306 24.8142 7.9299 26.9584 10.4845ZM21.6992 29.7146C22.276 29.7146 22.7436 30.4987 22.7436 31.4659C22.7436 32.4332 22.276 33.2173 21.6992 33.2173C21.1224 33.2173 20.6549 32.4332 20.6549 31.4659C20.6549 30.4987 21.1224 29.7146 21.6992 29.7146ZM26.302 29.7146C26.8788 29.7146 27.3464 30.4987 27.3464 31.4659C27.3464 32.4332 26.8788 33.2173 26.302 33.2173C25.7252 33.2173 25.2577 32.4332 25.2577 31.4659C25.2577 30.4987 25.7252 29.7146 26.302 29.7146Z" fill="white"/>
</g>
</svg>
