<svg width="40" height="40" viewBox="0 0 40 40" fill="none" xmlns="http://www.w3.org/2000/svg">
<rect width="40" height="40" rx="20" fill="#A094ED"/>
<mask id="mask0_1518_28018" style="mask-type:luminance" maskUnits="userSpaceOnUse" x="0" y="0" width="40" height="40">
<rect width="40" height="40" rx="20" fill="white"/>
</mask>
<g mask="url(#mask0_1518_28018)">
<path fill-rule="evenodd" clip-rule="evenodd" d="M10.4 11.84H29.6C30.944 11.84 32 12.896 32 14.24V25.76C32 27.104 30.944 28.16 29.6 28.16H10.4C9.104 28.16 8 27.056 8 25.76V14.24C8 12.896 9.104 11.84 10.4 11.84ZM15.968 25.376H19.424C20.192 25.376 20.816 24.56 20.672 23.744C20.624 22.544 19.376 21.776 18.08 21.2C17.12 20.864 17.024 20.48 17.024 20.096C17.024 19.664 17.264 19.328 17.6 19.04C18.128 18.608 18.416 17.888 18.416 17.072C18.416 15.584 17.504 14.288 15.92 14.288C14.336 14.288 13.424 15.536 13.424 17.072C13.424 17.84 13.712 18.56 14.24 19.04C14.576 19.328 14.816 19.712 14.816 20.096C14.816 20.48 14.672 20.864 13.76 21.248C12.464 21.824 11.216 22.544 11.168 23.744C11.168 24.56 11.744 25.376 12.512 25.376H15.968ZM28.784 22.592C28.784 23.024 28.4 23.408 27.968 23.408H24.368C23.936 23.408 23.552 23.072 23.552 22.592V21.392C23.552 20.96 23.936 20.576 24.368 20.576H27.968C28.4 20.576 28.784 20.912 28.784 21.392V22.592ZM27.968 19.04C28.4 19.04 28.784 18.656 28.784 18.224H28.832V17.024C28.832 16.544 28.448 16.208 28.016 16.208H22.016C21.584 16.208 21.2 16.592 21.2 17.024V18.224C21.2 18.704 21.584 19.04 22.016 19.04H27.968Z" fill="white"/>
</g>
</svg>
