<svg width="40" height="40" viewBox="0 0 40 40" fill="none" xmlns="http://www.w3.org/2000/svg">
<rect width="40" height="40" rx="20" fill="#FE8F60"/>
<mask id="mask0_1518_28026" style="mask-type:luminance" maskUnits="userSpaceOnUse" x="0" y="0" width="40" height="40">
<rect width="40" height="40" rx="20" fill="white"/>
</mask>
<g mask="url(#mask0_1518_28026)">
<path d="M18.3837 29.7469L17.747 29.2572C17.0612 28.7674 17.0612 27.7878 17.0612 27.298V25.8776C17.0612 25.4857 16.7184 25.1429 16.3265 25.1429H13.3878C12.9959 25.1429 12.6531 25.4857 12.6531 25.8776V29.649C12.6531 30.9714 13.4367 32 14.6612 32H17.0612C18.4816 32 18.5796 31.0204 18.5796 31.0204C18.5796 31.0204 18.8245 30.1388 18.3837 29.7469Z" fill="white"/>
<path d="M29.3061 16.3265V9.66531C29.3061 9.66531 29.3061 9.66531 29.3061 9.61633C29.3061 8.44082 27.8367 8.09797 27.053 8.88164L22.6939 12.9959C22.0081 13.5837 21.1265 13.8286 20.2449 13.8286H12.8C10.253 13.8776 8.24487 16.0816 8.24487 18.6286V18.7265C8.24487 21.2735 10.253 23.1837 12.8 23.1837H20.2449C21.1755 23.1837 22.0571 23.5755 22.7428 24.1633L27.053 28.3755C27.8367 29.1592 29.3061 28.8653 29.3061 27.6898C29.3061 27.6898 29.3061 27.6898 29.3061 27.6408V21.0286C30.7755 21.0286 31.6571 20 31.6571 18.6776C31.6571 17.3551 30.7755 16.3265 29.3061 16.3265Z" fill="white"/>
</g>
</svg>
