<svg width="48" height="48" viewBox="0 0 48 48" fill="none" xmlns="http://www.w3.org/2000/svg">
<rect width="48" height="48" rx="4" fill="#22B0E6"/>
<mask id="mask0_1518_27656" style="mask-type:luminance" maskUnits="userSpaceOnUse" x="0" y="0" width="48" height="48">
<rect width="48" height="48" rx="4" fill="white"/>
</mask>
<g mask="url(#mask0_1518_27656)">
<path fill-rule="evenodd" clip-rule="evenodd" d="M7 24C7 14.65 14.5893 7 24 7C33.4107 7 41 14.65 41 24C41 33.35 33.4107 41 24 41C14.65 41 7 33.35 7 24ZM9.00357 24C9.00357 32.3179 15.7429 38.9964 24 38.9964C32.2571 38.9964 38.9964 32.2571 38.9964 24C38.9964 15.6821 32.2571 9.00357 24 9.00357C15.6821 9.00357 9.00357 15.7429 9.00357 24Z" fill="white"/>
<path fill-rule="evenodd" clip-rule="evenodd" d="M22.5428 27.2784C23.0892 26.2462 23.3928 24.9712 23.3928 23.5141C23.3928 21.6927 23.0892 20.4784 22.3607 19.5069C21.6321 18.5355 20.4785 18.0498 19.0214 18.0498C18.1107 18.0498 17.3214 18.2319 16.6535 18.5962C15.9857 18.9605 15.4999 19.4462 15.1357 20.1141C14.7714 20.7819 14.5892 21.5105 14.5892 22.2998C14.5892 23.0891 14.7107 23.7569 15.0749 24.3641C15.4392 24.9712 15.8642 25.3962 16.4714 25.6998C17.0785 26.0034 17.7464 26.1855 18.4749 26.1855C19.8107 26.1855 20.9642 25.6998 21.9357 24.7284C21.8142 26.1855 21.2678 27.3391 20.2357 28.1284C19.2035 28.9177 17.8071 29.3427 16.0464 29.3427V30.5569C17.6249 30.5569 18.9607 30.2534 20.0535 29.7069C21.1464 29.0998 21.9964 28.3105 22.5428 27.2784ZM21.2678 20.1748C21.6928 20.8427 21.9357 21.8748 21.9357 23.2712C21.9247 23.2837 21.9138 23.2962 21.903 23.3086C21.4918 23.7787 21.1323 24.1898 20.5999 24.4855C20.0535 24.7891 19.5071 24.9105 18.8392 24.9105C17.9892 24.9105 17.3214 24.6677 16.8357 24.1819C16.3499 23.6962 16.1071 23.0284 16.1071 22.1177C16.1071 21.2069 16.3499 20.4784 16.8357 19.9319C17.3821 19.3855 18.1107 19.1427 19.0214 19.1427C20.0535 19.1427 20.8428 19.5069 21.2678 20.1748Z" fill="white"/>
<path fill-rule="evenodd" clip-rule="evenodd" d="M32.925 27.2784C33.4714 26.2462 33.775 24.9712 33.775 23.5141C33.775 21.6927 33.4714 20.4784 32.7429 19.5069C32.0143 18.5355 30.8607 18.0498 29.4036 18.0498C28.4929 18.0498 27.7036 18.2319 27.0357 18.5962C26.3679 18.9605 25.8821 19.4462 25.5179 20.1141C25.1536 20.7819 24.9714 21.5105 24.9714 22.2998C24.9714 23.0891 25.0929 23.7569 25.4571 24.3641C25.8214 24.9712 26.2464 25.3962 26.8536 25.6998C27.4607 26.0034 28.1286 26.1855 28.8571 26.1855C30.1929 26.1855 31.3464 25.6998 32.3179 24.7284C32.1964 26.1855 31.65 27.3391 30.6179 28.1284C29.5857 28.9177 28.1893 29.3427 26.4286 29.3427V30.5569C28.0071 30.5569 29.3429 30.2534 30.4357 29.7069C31.5286 29.0998 32.3786 28.3105 32.925 27.2784ZM31.5893 20.1748C32.0143 20.8427 32.2571 21.8748 32.2571 23.2712C31.8929 23.7569 31.4679 24.1819 30.9214 24.4855C30.375 24.7891 29.8286 24.9105 29.1607 24.9105C28.3107 24.9105 27.6429 24.6677 27.1571 24.1819C26.6714 23.6962 26.4286 23.0284 26.4286 22.1177C26.4286 21.2069 26.6714 20.4784 27.1571 19.9319C27.7036 19.3855 28.4321 19.1427 29.3429 19.1427C30.375 19.1427 31.1643 19.5069 31.5893 20.1748Z" fill="white"/>
</g>
</svg>
