<svg width="48" height="48" viewBox="0 0 48 48" fill="none" xmlns="http://www.w3.org/2000/svg">
<rect width="48" height="48" rx="4" fill="#7E8BE4"/>
<mask id="mask0_1518_27361" style="mask-type:luminance" maskUnits="userSpaceOnUse" x="0" y="0" width="48" height="48">
<rect width="48" height="48" rx="4" fill="white"/>
</mask>
<g mask="url(#mask0_1518_27361)">
<path d="M7.27869 38.1574C7.27869 39.718 8.50492 40.9443 10.0656 40.9443H39.6066C40.2197 40.9443 40.7213 40.4426 40.7213 39.8295V38.659C40.7213 38.0459 40.2197 37.5443 39.6066 37.5443H11.682C11.1246 37.5443 10.6229 37.0426 10.6229 36.4853V8.6164C10.6229 8.00329 10.1213 7.50165 9.50819 7.50165H8.39344C7.78033 7.50165 7.27869 8.00329 7.27869 8.6164V38.1574Z" fill="white"/>
<path d="M15.8623 29.2394C15.4164 29.2394 15.0263 29.0721 14.6918 28.7377C14.023 28.0689 14.023 27.0098 14.6918 26.3967L23.6099 17.5344C24.2787 16.8656 25.3377 16.8656 25.9508 17.5344L30.2426 21.8262L37.7672 14.1902C38.4361 13.5213 39.4951 13.5213 40.1082 14.1902C40.7771 14.859 40.7771 15.918 40.1082 16.5312L31.4689 25.282C31.1344 25.6164 30.7443 25.7836 30.2984 25.7836C29.8525 25.7836 29.4066 25.6164 29.1279 25.282L24.7803 20.9902L17.0885 28.7377C16.7541 29.0721 16.3082 29.2394 15.8623 29.2394Z" fill="white"/>
</g>
</svg>
