<svg width="48" height="48" viewBox="0 0 48 48" fill="none" xmlns="http://www.w3.org/2000/svg">
<rect width="48" height="48" rx="4" fill="#7A9AE6"/>
<mask id="mask0_1518_27664" style="mask-type:luminance" maskUnits="userSpaceOnUse" x="0" y="0" width="48" height="48">
<rect width="48" height="48" rx="4" fill="white"/>
</mask>
<g mask="url(#mask0_1518_27664)">
<path d="M24.8226 34.6394C24.3291 34.5846 23.8904 34.5298 23.3968 34.4201C22.9033 34.3104 22.4097 34.2007 21.9162 34.0362C21.642 33.9265 21.313 33.9814 21.0936 34.2007L20.7646 34.5298C18.7904 36.504 15.6097 36.7233 13.471 34.9136C11.1678 32.8846 11.0581 29.3749 13.1968 27.2362L18.4065 22.0265C19.0646 21.3685 19.8872 20.8749 20.7646 20.6556C21.8613 20.3814 23.013 20.4362 24.0549 20.8749C24.713 21.1491 25.3162 21.533 25.8097 22.0265C26.0839 22.3007 26.3033 22.6298 26.4678 22.9588C26.742 23.3975 27.3452 23.5072 27.7291 23.1233C28.3323 22.5201 29.1549 21.6975 29.6484 21.204C29.9226 20.9298 29.9775 20.491 29.7033 20.162C29.4291 19.7781 29.1001 19.3943 28.771 19.0652C28.2775 18.5717 27.7291 18.133 27.1259 17.7491C26.1388 17.1459 25.042 16.7072 23.9452 16.4878C21.8065 16.0491 19.5033 16.3781 17.5291 17.4749C16.7613 17.9136 16.0484 18.4072 15.3904 19.0652L10.3452 24.1104C6.72586 27.7298 6.45167 33.5975 9.90651 37.3265C13.5807 41.2749 19.7226 41.3846 23.5065 37.6007L25.2065 35.9007C25.7549 35.5169 25.4807 34.6943 24.8226 34.6394Z" fill="white"/>
<path d="M37.4356 10.0164C33.7066 6.56153 27.784 6.83572 24.2195 10.4551L22.6291 11.9357C22.1356 12.4293 22.4646 13.197 23.1227 13.2519C24.1098 13.3067 25.042 13.526 26.0291 13.8551C26.3033 13.9648 26.6324 13.8551 26.8517 13.6906L27.1807 13.3615C29.1549 11.3873 32.3356 11.168 34.4743 12.9777C36.7775 15.0067 36.8872 18.5164 34.7485 20.6551L29.5388 25.8648C28.8807 26.5228 28.0582 27.0164 27.1807 27.2357C26.084 27.5099 24.9324 27.4551 23.8904 27.0164C23.2324 26.7422 22.6291 26.3583 22.1356 25.8648C21.8614 25.5906 21.642 25.3164 21.4775 24.9873C21.2033 24.5486 20.6001 24.4389 20.2162 24.8228L18.2969 26.7422C18.0227 27.0164 17.9678 27.4551 18.242 27.7841C18.5162 28.168 18.8453 28.5519 19.1743 28.8809C19.6678 29.3744 20.2162 29.8131 20.8195 30.197C21.8066 30.7454 22.9033 31.1293 24.0001 31.3486C26.1388 31.7873 28.442 31.4583 30.4162 30.3615C31.184 29.9228 31.8969 29.4293 32.5549 28.7712L37.7646 23.5615C41.4388 19.8325 41.384 13.6357 37.4356 10.0164Z" fill="white"/>
</g>
</svg>
