<svg width="48" height="48" viewBox="0 0 48 48" fill="none" xmlns="http://www.w3.org/2000/svg">
<rect width="48" height="48" rx="4" fill="#8BAEB5"/>
<mask id="mask0_1518_27666" style="mask-type:luminance" maskUnits="userSpaceOnUse" x="0" y="0" width="48" height="48">
<rect width="48" height="48" rx="4" fill="white"/>
</mask>
<g mask="url(#mask0_1518_27666)">
<path d="M32.171 15.7197H13.1968C11.7162 15.7197 10.5646 16.9262 10.5646 18.352V18.7907C10.5646 19.01 10.7839 19.2294 11.0033 19.2294H28.6065C30.0872 19.2294 31.2388 20.4359 31.2388 21.8617V34.4746C31.2388 34.6939 31.4581 34.9133 31.6775 34.9133H32.1162C33.5968 34.9133 34.7484 33.7068 34.7484 32.281V18.352C34.8033 16.9262 33.5968 15.7197 32.171 15.7197Z" fill="white"/>
<path d="M37.8743 10.0713H18.9001C17.4194 10.0713 16.2678 11.2777 16.2678 12.7035V13.1423C16.2678 13.3616 16.4872 13.581 16.7065 13.581H34.3098C35.7904 13.581 36.942 14.7874 36.942 16.2132V28.8261C36.942 29.0455 37.1614 29.2648 37.3807 29.2648H37.8194C39.3001 29.2648 40.4517 28.0584 40.4517 26.6326V12.7035C40.5065 11.2777 39.3001 10.0713 37.8743 10.0713Z" fill="white"/>
<path fill-rule="evenodd" clip-rule="evenodd" d="M18.6258 31.7871C18.3516 32.0613 17.9678 32.0613 17.6936 31.7871L7.65809 22.5193C7.27422 22.0806 7.71293 21.5871 8.26132 21.5871L28.0581 21.5322C28.771 21.5322 28.8258 22.1355 28.6613 22.4645L18.6258 31.7871ZM27.9484 25.7C28.2774 25.3709 28.8258 25.6451 28.8258 26.0838H28.771V36.1742C28.771 37.1064 28.0033 37.929 27.0162 37.929H9.30325C8.37099 37.929 7.54841 37.1613 7.54841 36.1742C7.54841 36.1742 7.54841 25.9742 7.60325 26.0838C7.60325 25.5903 8.15164 25.3709 8.48067 25.7L16.2678 32.9935C16.8162 33.4322 17.4742 33.7064 18.1871 33.7064C18.9 33.7064 19.5581 33.4322 20.1065 32.9387L27.9484 25.7Z" fill="white"/>
</g>
</svg>
