<svg width="48" height="48" viewBox="0 0 48 48" fill="none" xmlns="http://www.w3.org/2000/svg">
<rect width="48" height="48" rx="4" fill="#F68960"/>
<mask id="mask0_1518_27668" style="mask-type:luminance" maskUnits="userSpaceOnUse" x="0" y="0" width="48" height="48">
<rect width="48" height="48" rx="4" fill="white"/>
</mask>
<g mask="url(#mask0_1518_27668)">
<path fill-rule="evenodd" clip-rule="evenodd" d="M23.7213 8.22656C14.4689 8.22656 7 15.1938 7 23.8331C7 26.62 7.78033 29.1839 9.11803 31.4692C9.28525 31.7479 9.34098 32.0823 9.22951 32.361L7.66885 37.3216C7.39016 38.2134 8.22623 38.9938 9.11803 38.7151L14.023 36.9872C14.3574 36.8757 14.6918 36.9315 14.9705 37.0987C17.5344 38.6036 20.5443 39.4397 23.7771 39.4397C33.0295 39.4397 40.4984 32.4725 40.4984 23.8331C40.4426 15.1938 32.918 8.22656 23.7213 8.22656ZM20.6557 22.9971C21.9934 22.4397 22.1607 21.938 22.1607 21.3807C22.1607 20.7675 21.8262 20.2659 21.3803 19.8757C20.6 19.2069 20.1541 18.2036 20.1541 17.0889C20.1541 14.9708 21.4918 13.1872 23.7213 13.1872C25.9508 13.1872 27.2328 14.9708 27.2328 17.0889C27.2328 18.2036 26.8426 19.2069 26.0623 19.8757C25.6164 20.2659 25.282 20.7675 25.282 21.3807C25.282 21.938 25.4492 22.4397 26.7311 22.9413C28.6262 23.7216 30.2984 24.8364 30.4098 26.5085C30.5213 27.6233 29.6852 28.7938 28.6262 28.7938H18.9279C17.8689 28.7938 17.0328 27.6233 17.0328 26.5085C17.0328 24.8364 18.8164 23.8331 20.6557 22.9971ZM16.8098 32.6954C16.8098 33.643 17.5902 34.4233 18.5377 34.4233C19.4852 34.4233 20.2656 33.643 20.2656 32.6954C20.2656 31.7479 19.4852 30.9675 18.5377 30.9675C17.5902 30.9675 16.8098 31.7479 16.8098 32.6954ZM23.7213 34.4233C22.7738 34.4233 21.9934 33.643 21.9934 32.6954C21.9934 31.7479 22.7738 30.9675 23.7213 30.9675C24.6689 30.9675 25.4492 31.7479 25.4492 32.6954C25.4492 33.643 24.6689 34.4233 23.7213 34.4233ZM27.177 32.6954C27.177 33.643 27.9574 34.4233 28.9049 34.4233C29.7967 34.4233 30.6328 33.643 30.6328 32.6954C30.6328 31.7479 29.8525 30.9675 28.9049 30.9675C27.9574 30.9675 27.177 31.7479 27.177 32.6954Z" fill="white"/>
</g>
</svg>
