<svg width="48" height="48" viewBox="0 0 48 48" fill="none" xmlns="http://www.w3.org/2000/svg">
<rect width="48" height="48" rx="4" fill="#4BC076"/>
<mask id="mask0_1518_27672" style="mask-type:luminance" maskUnits="userSpaceOnUse" x="0" y="0" width="48" height="48">
<rect width="48" height="48" rx="4" fill="white"/>
</mask>
<g mask="url(#mask0_1518_27672)">
<path fill-rule="evenodd" clip-rule="evenodd" d="M39.6291 12.912L29.7581 7.97647C29.3011 7.77143 28.7783 7.77143 28.3213 7.97647L19.2016 12.572L10.0162 7.97647C9.47418 7.68648 8.81788 7.71164 8.2997 8.04228C7.82309 8.33558 7.53729 8.85921 7.54841 9.41873V34.0961C7.54833 34.7063 7.89494 35.2634 8.44228 35.5329L18.3132 40.4684C18.7718 40.6751 19.297 40.6751 19.7555 40.4684L28.9355 35.8784L38.0552 40.4739C38.281 40.6121 38.5418 40.6825 38.8065 40.6768C39.1241 40.6812 39.435 40.5853 39.6949 40.4026C40.1719 40.1116 40.4596 39.5903 40.4516 39.0316V14.3542C40.482 13.7542 40.1609 13.1913 39.6291 12.912ZM37.0242 16.0487V29.0894C37.0465 29.4344 36.8935 29.7674 36.6172 29.9752C36.3409 30.183 35.9785 30.2375 35.6532 30.1203C34.278 29.6005 34.251 28.1154 34.2214 26.4928C34.1964 25.1198 34.1697 23.6483 33.3226 22.58C32.5668 21.6431 31.7184 21.5451 30.8243 21.4419C29.6881 21.3107 28.4781 21.171 27.2903 19.2897C25.2997 16.0487 27.9758 13.7345 30.4436 12.5007C30.7487 12.3632 31.0981 12.3632 31.4032 12.5007L36.4758 15.0397C36.8342 15.2458 37.0462 15.6359 37.0242 16.0487ZM22.0094 34.9845C22.3587 35.267 22.8404 35.3205 23.2432 35.1216L23.9945 34.8365C24.2648 34.6943 24.4635 34.4459 24.5429 34.151C24.6176 33.9021 24.6923 33.6306 24.7702 33.3473C25.1216 32.0695 25.5397 30.5494 26.3252 29.7639C26.987 29.1133 27.3598 28.2242 27.3598 27.2962C27.3598 26.3681 26.987 25.479 26.3252 24.8284C25.2284 23.7316 24.68 23.1832 21.3897 24.28C18.8275 25.1341 18.2605 24.3255 17.6171 23.4078C17.4343 23.1471 17.2453 22.8776 17.0026 22.6349C16.4542 22.0865 15.7687 22.0865 15.1518 22.0865C14.5349 22.0865 13.9865 22.0865 13.7123 21.5381C13.1639 20.4413 14.8091 19.3445 16.4542 19.8929C17.0257 20.0834 17.4562 20.4473 17.8237 20.7578C18.5142 21.3414 18.9822 21.7369 19.7445 20.4413C20.77 18.6591 21.2526 17.4965 18.7849 16.0542L18.582 15.9171C18.5453 15.879 18.4971 15.8539 18.4449 15.8458L12.5497 12.8955C12.2235 12.7167 11.8258 12.7298 11.5119 12.9295C11.1981 13.1292 11.0179 13.4839 11.0416 13.8552V23.8742C11.0192 24.1833 11.137 24.4861 11.3624 24.6987C11.5878 24.9114 11.897 25.0114 12.2042 24.971C14.8803 24.6968 18.0336 25.3878 18.0336 28.0584C18.0336 29.9858 18.9745 30.596 19.7539 31.1015C20.3051 31.459 20.7755 31.7641 20.7755 32.4455C20.8243 33.4244 21.2698 34.3413 22.0094 34.9845Z" fill="white"/>
</g>
</svg>
