<svg width="48" height="48" viewBox="0 0 48 48" fill="none" xmlns="http://www.w3.org/2000/svg">
<rect width="48" height="48" rx="4" fill="#48C3CC"/>
<mask id="mask0_1518_27674" style="mask-type:luminance" maskUnits="userSpaceOnUse" x="0" y="0" width="48" height="48">
<rect width="48" height="48" rx="4" fill="white"/>
</mask>
<g mask="url(#mask0_1518_27674)">
<path fill-rule="evenodd" clip-rule="evenodd" d="M14.99 7H36.2966C38.1666 7 39.8666 8.36 39.8666 10.23V37.43C39.8666 39.3 38.1666 41 36.2966 41H14.99C13.12 41 11.5333 39.3 11.5333 37.6V36.4667H10.4C9.1533 36.4667 8.1333 35.4467 8.1333 34.2C8.1333 32.9533 9.1533 31.9333 10.4 31.9333H11.5333V26.2667H10.4C9.1533 26.2667 8.1333 25.2467 8.1333 24C8.1333 22.7533 9.1533 21.7333 10.4 21.7333H11.5333V16.0667H10.4C9.1533 16.0667 8.1333 15.0467 8.1333 13.8C8.1333 12.5533 9.1533 11.5333 10.4 11.5333H11.5333V10.4C11.5333 8.7 13.12 7 14.99 7ZM32.67 31.4233L34.2566 29.8367C34.9933 29.1 34.9366 27.8533 34.2566 27.4L32.4433 25.9267C31.82 25.4167 30.9133 25.4167 30.29 25.87L28.5333 27.1167C28.3066 27.2867 28.0233 27.2867 27.7966 27.06L24.9066 24.4533L22.3 21.5633C22.0733 21.3933 22.0733 21.0533 22.2433 20.8267L23.49 19.07C23.9433 18.39 23.9433 17.54 23.4333 16.9167L21.96 15.1033C21.3366 14.2533 20.09 14.1967 19.3533 14.9333L17.7666 16.52C17.4266 16.86 17.2566 17.3133 17.2566 17.8233C17.4266 21.5633 19.1266 25.0767 21.62 27.57C24.1133 30.0067 27.6266 31.7067 31.3666 31.9333C31.82 31.99 32.33 31.7633 32.67 31.4233Z" fill="white"/>
</g>
</svg>
