<svg width="48" height="48" viewBox="0 0 48 48" fill="none" xmlns="http://www.w3.org/2000/svg">
<rect width="48" height="48" rx="4" fill="#00A1DF"/>
<mask id="mask0_1518_27676" style="mask-type:luminance" maskUnits="userSpaceOnUse" x="0" y="0" width="48" height="48">
<rect width="48" height="48" rx="4" fill="white"/>
</mask>
<g mask="url(#mask0_1518_27676)">
<path fill-rule="evenodd" clip-rule="evenodd" d="M22.9799 7.56703C23.4333 7.17036 24.0566 7.17036 24.4533 7.56703C24.4533 7.56703 33.8033 17.0304 33.9166 17.0304C34.3133 17.4837 34.3133 18.107 33.9166 18.5037L32.4433 19.977C31.9899 20.3737 31.3666 20.3737 30.9699 19.977L27.0599 16.067C26.5499 15.6704 25.8699 15.9537 25.8699 16.577V31.2537C25.8699 31.707 25.3033 32.2737 24.7366 32.2737H22.6399C22.0733 32.2737 21.6766 31.8204 21.6766 31.2537V16.5204C21.6766 15.897 20.8266 15.6137 20.4299 16.0104L16.5199 19.9204C16.0666 20.317 15.4433 20.317 15.0466 19.9204L13.5733 18.447C13.1766 17.9937 13.1766 17.3704 13.5733 16.9737L22.9799 7.56703ZM37.3166 27.5137H39.4133C39.9799 27.5137 40.4333 28.0237 40.4899 28.5337V37.9404C40.4899 39.4704 39.2433 40.717 37.7133 40.717H9.88995C8.35995 40.717 7.11328 39.4704 7.11328 37.9404V28.5337C7.11328 28.0804 7.56661 27.5137 8.13328 27.5137H10.2299C10.7399 27.5137 11.2499 28.0237 11.2499 28.5337V35.5037C11.2499 36.0137 11.7033 36.5237 12.2699 36.5237H35.2766C35.7866 36.5237 36.2966 36.0704 36.2966 35.5037V28.5337C36.2966 28.0804 36.7499 27.5137 37.3166 27.5137Z" fill="white"/>
</g>
</svg>
