<svg width="48" height="48" viewBox="0 0 48 48" fill="none" xmlns="http://www.w3.org/2000/svg">
<rect width="48" height="48" rx="4" fill="#FF9A3C"/>
<mask id="mask0_1518_27363" style="mask-type:luminance" maskUnits="userSpaceOnUse" x="0" y="0" width="48" height="48">
<rect width="48" height="48" rx="4" fill="white"/>
</mask>
<g mask="url(#mask0_1518_27363)">
<path d="M39.0167 28.7033C39.0167 28.76 39.0167 28.8167 38.96 28.8167C38.79 29.44 38.5633 30.0633 38.3367 30.6867C38.0533 31.3667 37.77 31.99 37.43 32.6133C36.75 33.86 35.9 34.9933 34.88 36.0133C33.9167 37.0333 32.7833 37.94 31.5367 38.6767C30.29 39.4133 28.9867 39.98 27.57 40.3767C26.1533 40.7733 24.68 41 23.2067 41C14.2533 41 7 33.7467 7 24.7367C7 15.7267 14.2533 8.53 23.2067 8.53C26.21 8.53 29.0433 9.38 31.48 10.7967C31.48 10.7967 31.48 10.7967 31.5367 10.7967C32.7267 11.4767 33.8033 12.3267 34.71 13.29C34.9933 13.5167 35.1633 13.6867 35.39 13.97C35.9 14.4233 36.2967 14.14 36.2967 13.46V8.13333C36.2967 7.51 36.8067 7 37.43 7H39.6967C40.32 7 40.83 7.51 40.9433 8.13333V22.0167C40.9433 22.5267 40.49 23.0367 39.9233 23.0367H26.04C25.4167 23.0367 24.9633 22.5833 24.9633 21.96V19.58C24.9633 18.9567 25.4733 18.4467 26.0967 18.4467H31.4233C31.8767 18.4467 32.2167 18.3333 32.3867 18.05C30.3467 15.2167 26.9467 13.3467 23.2067 13.3467C16.9167 13.3467 11.8167 18.4467 11.8167 24.7367C11.8167 31.0267 16.9167 36.1267 23.2067 36.1267C28.1367 36.1267 32.33 33.01 33.9167 28.59C33.9167 28.59 34.0867 27.57 34.88 27.57C35.6733 27.57 37.6 27.57 38.11 27.57C38.5633 27.57 39.0167 27.91 39.0167 28.42C39.0167 28.5333 39.0167 28.59 39.0167 28.7033Z" fill="white"/>
</g>
</svg>
