<svg width="48" height="48" viewBox="0 0 48 48" fill="none" xmlns="http://www.w3.org/2000/svg">
<rect width="48" height="48" rx="4" fill="#47CFD2"/>
<mask id="mask0_1518_27471" style="mask-type:luminance" maskUnits="userSpaceOnUse" x="0" y="0" width="48" height="48">
<rect width="48" height="48" rx="4" fill="white"/>
</mask>
<g mask="url(#mask0_1518_27471)">
<path d="M13.7433 23.8299C13.4033 23.8866 13.0633 23.8866 12.6667 23.8866C12.3267 23.8866 11.9867 23.8866 11.59 23.8299C11.25 23.7732 10.9667 24.0566 10.9667 24.3966V39.8666C10.9667 40.4899 11.4767 40.9999 12.1 40.9999H13.2333C13.8567 40.9999 14.3667 40.4899 14.3667 39.8666V24.3966C14.3667 23.9999 14.0833 23.7732 13.7433 23.8299Z" fill="white"/>
<path d="M25.0766 35.7301C24.7366 35.7867 24.3966 35.7867 23.9999 35.7867C23.6599 35.7867 23.3199 35.7867 22.9233 35.7301C22.5833 35.6734 22.2999 35.9567 22.2999 36.2967V39.8667C22.2999 40.4901 22.8099 41.0001 23.4333 41.0001H24.5666C25.1899 41.0001 25.6999 40.4901 25.6999 39.8667V36.2967C25.6999 35.9001 25.4166 35.6734 25.0766 35.7301Z" fill="white"/>
<path d="M36.41 27.2301C36.07 27.2867 35.73 27.2867 35.3333 27.2867C34.9933 27.2867 34.6533 27.2867 34.2566 27.2301C33.9166 27.1734 33.6333 27.4567 33.6333 27.7967V39.8667C33.6333 40.4901 34.1433 41.0001 34.7666 41.0001H35.9C36.5233 41.0001 37.0333 40.4901 37.0333 39.8667V27.7967C37.0333 27.4001 36.75 27.1734 36.41 27.2301Z" fill="white"/>
<path d="M14.3666 13.0633V8.13333C14.3666 7.51 13.8566 7 13.2333 7H12.1C11.4766 7 10.9666 7.51 10.9666 8.13333V13.0633C9.60662 13.6867 8.69995 15.0467 8.69995 16.6333C8.69995 18.8433 10.4566 20.6 12.6666 20.6C14.8766 20.6 16.6333 18.8433 16.6333 16.6333C16.6333 15.0467 15.7266 13.6867 14.3666 13.0633Z" fill="white"/>
<path d="M25.7 24.9633V8.13333C25.7 7.51 25.19 7 24.5667 7H23.4333C22.81 7 22.3 7.51 22.3 8.13333V24.9633C20.94 25.5867 20.0333 26.9467 20.0333 28.5333C20.0333 30.7433 21.79 32.5 24 32.5C26.21 32.5 27.9667 30.7433 27.9667 28.5333C27.9667 26.9467 27.06 25.5867 25.7 24.9633Z" fill="white"/>
<path d="M37.0332 16.4633V8.13333C37.0332 7.51 36.5232 7 35.8999 7H34.7666C34.1432 7 33.6332 7.51 33.6332 8.13333V16.4633C32.2732 17.0867 31.3666 18.4467 31.3666 20.0333C31.3666 22.2433 33.1232 24 35.3332 24C37.5432 24 39.2999 22.2433 39.2999 20.0333C39.2999 18.4467 38.3932 17.0867 37.0332 16.4633Z" fill="white"/>
</g>
</svg>
