<svg width="48" height="48" viewBox="0 0 48 48" fill="none" xmlns="http://www.w3.org/2000/svg">
<rect width="48" height="48" rx="4" fill="#F2CF5B"/>
<mask id="mask0_1518_27475" style="mask-type:luminance" maskUnits="userSpaceOnUse" x="0" y="0" width="48" height="48">
<rect width="48" height="48" rx="4" fill="white"/>
</mask>
<g mask="url(#mask0_1518_27475)">
<path d="M39.718 32.0263L36.2622 29.2394C35.0918 28.2919 33.4196 28.2356 32.1934 29.128L28.9049 31.5247C28.459 31.8591 27.8464 31.8034 27.4557 31.4132L22.0491 26.5083L17.0885 21.046C16.6983 20.6558 16.6426 20.0427 16.977 19.5968L19.3737 16.3083C20.2655 15.0821 20.2098 13.4099 19.2622 12.2394L16.4754 8.7837C15.2491 7.22304 12.9081 7.11157 11.5147 8.50501L8.50487 11.5148C7.83601 12.1837 7.50159 13.1312 7.50159 14.023C7.89175 21.1017 11.1245 27.846 15.8622 32.5837C20.5999 37.3214 27.2885 40.5542 34.4229 40.9444C35.3704 41.0001 36.2622 40.6094 36.9311 39.9405L39.9409 36.9312C41.4458 35.5935 41.2786 33.2526 39.718 32.0263Z" fill="white"/>
</g>
</svg>
