<svg width="48" height="48" viewBox="0 0 48 48" fill="none" xmlns="http://www.w3.org/2000/svg">
<rect width="48" height="48" rx="4" fill="#F49756"/>
<mask id="mask0_1518_27479" style="mask-type:luminance" maskUnits="userSpaceOnUse" x="0" y="0" width="48" height="48">
<rect width="48" height="48" rx="4" fill="white"/>
</mask>
<g mask="url(#mask0_1518_27479)">
<path fill-rule="evenodd" clip-rule="evenodd" d="M7 24C7 14.65 14.65 7 24 7C33.35 7 41 14.65 41 24C41 33.35 33.35 41 24 41C14.65 41 7 33.35 7 24ZM10.4 24C10.4 31.48 16.52 37.6 24 37.6C31.48 37.6 37.6 31.48 37.6 24C37.6 16.52 31.48 10.4 24 10.4C16.52 10.4 10.4 16.52 10.4 24Z" fill="white"/>
<path fill-rule="evenodd" clip-rule="evenodd" d="M13.8 23.9998C13.8 18.3898 18.39 13.7998 24 13.7998C29.61 13.7998 34.2 18.3898 34.2 23.9998C34.2 29.6098 29.61 34.1998 24 34.1998C18.39 34.1998 13.8 29.6098 13.8 23.9998ZM17.2 23.9998C17.2 27.7398 20.26 30.7998 24 30.7998C27.74 30.7998 30.8 27.7398 30.8 23.9998C30.8 20.2598 27.74 17.1998 24 17.1998C20.26 17.1998 17.2 20.2598 17.2 23.9998Z" fill="white"/>
<path d="M24 20.6001C22.13 20.6001 20.6 22.1301 20.6 24.0001C20.6 25.8701 22.13 27.4001 24 27.4001C25.87 27.4001 27.4 25.8701 27.4 24.0001C27.4 22.1301 25.87 20.6001 24 20.6001Z" fill="white"/>
</g>
</svg>
