<svg width="48" height="48" viewBox="0 0 48 48" fill="none" xmlns="http://www.w3.org/2000/svg">
<rect width="48" height="48" rx="4" fill="#F49756"/>
<mask id="mask0_1518_27477" style="mask-type:luminance" maskUnits="userSpaceOnUse" x="0" y="0" width="48" height="48">
<rect width="48" height="48" rx="4" fill="white"/>
</mask>
<g mask="url(#mask0_1518_27477)">
<path fill-rule="evenodd" clip-rule="evenodd" d="M41 41.0001V24.8501L24.85 41.0001H41ZM37.0475 35.9001C37.0475 36.1551 37.1325 36.3676 37.685 36.5801C38.4925 36.8776 39.3 37.2601 39.3 38.0251C39.3 38.4926 38.9175 38.9176 38.45 38.9176H36.325H34.2C33.7325 38.9176 33.35 38.4926 33.35 38.0251C33.35 37.3026 34.1575 36.9201 34.965 36.5801C35.5175 36.3251 35.6025 36.1126 35.6025 35.9001C35.6025 35.6876 35.4325 35.4751 35.2625 35.3051C34.9225 35.0501 34.7525 34.6251 34.7525 34.1576C34.7525 33.3076 35.305 32.5426 36.325 32.5426C37.345 32.5426 37.8975 33.2651 37.8975 34.1576C37.8975 34.6251 37.7275 35.0076 37.3875 35.3051C37.2175 35.4751 37.0475 35.6876 37.0475 35.9001Z" fill="white" fill-opacity="0.65"/>
<path fill-rule="evenodd" clip-rule="evenodd" d="M7 19.75C7 12.7375 12.7375 7 19.75 7C26.7625 7 32.5 12.7375 32.5 19.75C32.5 26.7625 26.7625 32.5 19.75 32.5C12.7375 32.5 7 26.7625 7 19.75ZM9.55 19.75C9.55 25.36 14.14 29.95 19.75 29.95C25.36 29.95 29.95 25.36 29.95 19.75C29.95 14.14 25.36 9.55 19.75 9.55C14.14 9.55 9.55 14.14 9.55 19.75Z" fill="white"/>
<path fill-rule="evenodd" clip-rule="evenodd" d="M12.1 19.7501C12.1 15.5426 15.5425 12.1001 19.75 12.1001C23.9575 12.1001 27.4 15.5426 27.4 19.7501C27.4 23.9576 23.9575 27.4001 19.75 27.4001C15.5425 27.4001 12.1 23.9576 12.1 19.7501ZM14.65 19.7501C14.65 22.5551 16.945 24.8501 19.75 24.8501C22.555 24.8501 24.85 22.5551 24.85 19.7501C24.85 16.9451 22.555 14.6501 19.75 14.6501C16.945 14.6501 14.65 16.9451 14.65 19.7501Z" fill="white"/>
<path d="M19.75 17.2C18.3475 17.2 17.2 18.3475 17.2 19.75C17.2 21.1525 18.3475 22.3 19.75 22.3C21.1525 22.3 22.3 21.1525 22.3 19.75C22.3 18.3475 21.1525 17.2 19.75 17.2Z" fill="white"/>
</g>
</svg>
