<svg width="48" height="48" viewBox="0 0 48 48" fill="none" xmlns="http://www.w3.org/2000/svg">
<g clip-path="url(#clip0_1518_27998)">
<mask id="mask0_1518_27998" style="mask-type:alpha" maskUnits="userSpaceOnUse" x="0" y="0" width="48" height="48">
<path d="M44 0H4C1.79086 0 0 1.79086 0 4V44C0 46.2091 1.79086 48 4 48H44C46.2091 48 48 46.2091 48 44V4C48 1.79086 46.2091 0 44 0Z" fill="white"/>
</mask>
<g mask="url(#mask0_1518_27998)">
<path d="M44 0H4C1.79086 0 0 1.79086 0 4V44C0 46.2091 1.79086 48 4 48H44C46.2091 48 48 46.2091 48 44V4C48 1.79086 46.2091 0 44 0Z" fill="#969492"/>
<path d="M33.0552 24.9717C37.4536 24.9717 41 28.6665 41 33.0175C40.9871 36.2623 39.0188 39.1792 36.0146 40.4055C33.0104 41.6318 29.5632 40.9255 27.2833 38.6166C25.0034 36.3077 24.3407 32.8519 25.6049 29.8634C26.869 26.8749 29.8105 24.9437 33.0552 24.9717ZM37.1628 28.0536C36.9731 27.864 36.6655 27.8641 36.476 28.054L32.9353 31.5976L29.5872 28.2409C29.587 28.2408 29.5869 28.2406 29.5867 28.2405L29.541 28.2001C29.3504 28.0519 29.0749 28.0654 28.8998 28.2405L28.0943 29.046C27.9048 29.2355 27.9046 29.5427 28.0939 29.7325L31.4429 33.0901L28.1138 36.4163L28.0731 36.462C27.925 36.6525 27.9385 36.9281 28.1137 37.103L28.9224 37.9117C29.112 38.1014 29.4196 38.1014 29.6093 37.9117L32.9385 34.5825L36.4604 38.1102C36.4602 38.1105 36.4603 38.1106 36.4604 38.1107L36.5062 38.1511C36.6967 38.2993 36.9722 38.2858 37.147 38.1104L37.9525 37.3049C38.1418 37.1151 38.142 36.8078 37.9528 36.6178L34.4309 33.0901L37.9715 29.5495C38.1612 29.3598 38.1612 29.0522 37.9715 28.8626L37.1628 28.0539C37.1629 28.0537 37.1629 28.0537 37.1628 28.0536ZM20.0171 32.2571C21.573 32.2571 22.8343 33.5184 22.8343 35.0743C22.8343 36.6301 21.573 37.8914 20.0171 37.8914C18.4613 37.8914 17.2 36.6301 17.2 35.0743C17.2 33.5184 18.4613 32.2571 20.0171 32.2571ZM11.3935 7C12.107 7 12.7656 7.49179 12.9851 8.20214L13.4242 9.73214H38.4514C39.1649 9.73214 39.7138 10.3879 39.4937 11.0982L36.5299 21.4804C36.4761 21.7216 36.343 21.9234 36.1632 22.0664C35.1577 21.7723 34.0958 21.6151 32.9991 21.6151C31.6387 21.6151 30.332 21.857 29.12 22.2998L19.2968 22.3C18.254 22.3 17.4308 23.3382 17.815 24.3764V24.4311C17.9796 25.0868 18.6382 25.5786 19.3517 25.5786L24.3835 25.5787C23.5494 26.545 22.8742 27.6518 22.3995 28.8574H16.9368C16.1684 28.8574 15.5647 28.3654 15.3452 27.655L10.1861 10.2786H8.6493C7.71626 10.2786 6.94788 9.45893 7.00277 8.53C7.05765 7.65571 7.88092 7 8.75906 7H11.3935Z" fill="white"/>
</g>
</g>
<defs>
<clipPath id="clip0_1518_27998">
<rect width="48" height="48" fill="white"/>
</clipPath>
</defs>
</svg>
