<svg width="48" height="48" viewBox="0 0 48 48" fill="none" xmlns="http://www.w3.org/2000/svg">
<rect width="48" height="48" rx="4" fill="#8199AF"/>
<mask id="mask0_1518_27481" style="mask-type:luminance" maskUnits="userSpaceOnUse" x="0" y="0" width="48" height="48">
<rect width="48" height="48" rx="4" fill="white"/>
</mask>
<g mask="url(#mask0_1518_27481)">
<path d="M37.5434 33.01C37.43 34.9367 37.2034 37.0333 36.8634 39.0167C36.75 39.64 36.1834 40.2067 35.56 40.2633C31.7067 40.7733 27.8534 41 24 41C20.2034 41 16.35 40.7733 12.5534 40.2633C11.93 40.2067 11.3634 39.5833 11.25 39.0167C10.6834 35.8433 10.4 32.6133 10.4 29.44C10.4 26.21 10.6834 22.98 11.1934 19.8633C11.3067 19.24 11.8734 18.6733 12.4967 18.56C14.82 18.2767 17.1434 18.1067 19.41 17.9933C19.41 17.9933 21.28 17.88 21.1667 16.18C21.0534 14.5933 18.3334 13.5733 18.3334 10.8533C18.3334 8.7 20.4867 7 23.9434 7C27.4 7 29.5534 8.75667 29.5534 10.8533C29.5534 13.5167 26.89 14.5933 26.7767 16.18C26.6634 17.9367 28.4767 17.9933 28.4767 17.9933C30.8 18.1067 33.18 18.2767 35.5034 18.56C36.1267 18.6733 36.6934 19.24 36.8067 19.8633C37.2034 22.0733 37.43 24.0567 37.5434 26.21C37.6 26.8333 37.0334 27.3433 36.3534 27.3433C36.1267 27.3433 35.9567 27.2867 35.73 27.2867C35.05 27.2867 34.0867 26.89 33.6334 26.38C33.6334 26.38 32.1034 24.85 30.5167 24.85C27.91 24.7933 25.87 27.1733 25.87 29.6667C25.87 32.16 27.8534 34.54 30.46 34.4833C32.0467 34.4267 33.5767 32.84 33.5767 32.84C34.0867 32.3867 34.9934 31.9333 35.6734 31.9333C35.9 31.8767 36.07 31.8767 36.2967 31.8767C37.09 31.9333 37.6 32.4433 37.5434 33.01Z" fill="white"/>
</g>
</svg>
