<svg width="48" height="48" viewBox="0 0 48 48" fill="none" xmlns="http://www.w3.org/2000/svg">
<rect width="48" height="48" rx="4" fill="#F2CF5B"/>
<mask id="mask0_1518_27487" style="mask-type:luminance" maskUnits="userSpaceOnUse" x="0" y="0" width="48" height="48">
<rect width="48" height="48" rx="4" fill="white"/>
</mask>
<g mask="url(#mask0_1518_27487)">
<path d="M17.2 12.6667H19.4666C19.8066 12.6667 20.0333 12.44 20.0333 12.1V10.4H27.9666V12.1C27.9666 12.44 28.1933 12.6667 28.5333 12.6667H30.8C31.14 12.6667 31.3666 12.44 31.3666 12.1V10.4C31.3666 8.53 29.8366 7 27.9666 7H20.0333C18.1633 7 16.6333 8.53 16.6333 10.4V12.1C16.6333 12.44 16.86 12.6667 17.2 12.6667Z" fill="white"/>
<path fill-rule="evenodd" clip-rule="evenodd" d="M10.4 16.0669H37.6C39.47 16.0669 41 17.5969 41 19.4669V37.6002C41 39.4702 39.47 41.0002 37.6 41.0002H10.4C8.53 41.0002 7 39.4702 7 37.6002V19.4669C7 17.5969 8.53 16.0669 10.4 16.0669ZM20.9967 33.2936C22.0167 33.8602 23.2067 34.2002 24.51 34.2002C28.1933 34.2002 31.1967 31.4236 31.1967 27.9102C31.1967 24.4536 28.1933 21.6769 24.51 21.6769C20.8267 21.6769 17.8233 24.4536 17.8233 27.9102C17.8233 29.0436 18.1067 30.0636 18.6733 30.9702C18.73 31.0269 18.7867 31.1969 18.73 31.3102L17.7667 33.6336C17.6533 33.9736 17.9933 34.3136 18.3333 34.2002L20.6 33.2369C20.77 33.2369 20.8833 33.2369 20.9967 33.2936Z" fill="white"/>
</g>
</svg>
