<svg width="48" height="48" viewBox="0 0 48 48" fill="none" xmlns="http://www.w3.org/2000/svg">
<g clip-path="url(#clip0_1518_27996)">
<mask id="mask0_1518_27996" style="mask-type:alpha" maskUnits="userSpaceOnUse" x="0" y="0" width="48" height="48">
<path d="M44 0H4C1.79086 0 0 1.79086 0 4V44C0 46.2091 1.79086 48 4 48H44C46.2091 48 48 46.2091 48 44V4C48 1.79086 46.2091 0 44 0Z" fill="white"/>
</mask>
<g mask="url(#mask0_1518_27996)">
<path d="M44 0H4C1.79086 0 0 1.79086 0 4V44C0 46.2091 1.79086 48 4 48H44C46.2091 48 48 46.2091 48 44V4C48 1.79086 46.2091 0 44 0Z" fill="#F2CF5B"/>
<path d="M16.5868 12.9078H18.8163C18.967 12.9177 19.1146 12.8622 19.2214 12.7554C19.3282 12.6487 19.3837 12.501 19.3737 12.3504V10.6782H28.1803V12.3504C28.1703 12.501 28.2258 12.6487 28.3326 12.7554C28.4394 12.8622 28.587 12.9177 28.7377 12.9078H30.9672C31.1178 12.9177 31.2655 12.8622 31.3722 12.7554C31.479 12.6487 31.5345 12.501 31.5245 12.3504V10.6782C31.5245 8.83126 30.0273 7.33398 28.1803 7.33398H19.3737C17.5267 7.33398 16.0295 8.83126 16.0295 10.6782V12.3504C16.0195 12.501 16.075 12.6487 16.1818 12.7554C16.2885 12.8622 16.4362 12.9177 16.5868 12.9078Z" fill="white"/>
<path d="M37.0983 16.252H10.4557C8.60873 16.252 7.11145 17.7492 7.11145 19.5962V37.3208C7.11145 39.1678 8.60873 40.6651 10.4557 40.6651H37.0983C38.9453 40.6651 40.4426 39.1678 40.4426 37.3208V19.5962C40.3985 17.7678 38.9268 16.296 37.0983 16.252ZM32.2492 25.2257L22.5508 34.9241C22.197 35.2808 21.7155 35.4815 21.2131 35.4815C20.7107 35.4815 20.2291 35.2808 19.8754 34.9241L15.1934 30.2421C15.0063 30.0701 14.8998 29.8275 14.8998 29.5733C14.8998 29.319 15.0063 29.0765 15.1934 28.9044L16.5311 27.5667C16.7032 27.3796 16.9458 27.273 17.2 27.273C17.4542 27.273 17.6968 27.3796 17.8688 27.5667L21.2131 30.911L29.5737 22.5503C29.7458 22.3632 29.9884 22.2566 30.2426 22.2566C30.4968 22.2566 30.7394 22.3632 30.9115 22.5503L32.2492 23.888C32.5848 24.2708 32.5848 24.843 32.2492 25.2257Z" fill="white"/>
</g>
</g>
<defs>
<clipPath id="clip0_1518_27996">
<rect width="48" height="48" fill="white"/>
</clipPath>
</defs>
</svg>
