<svg width="48" height="48" viewBox="0 0 48 48" fill="none" xmlns="http://www.w3.org/2000/svg">
<rect width="48" height="48" rx="4" fill="#F2CF5B"/>
<mask id="mask0_1518_27485" style="mask-type:luminance" maskUnits="userSpaceOnUse" x="0" y="0" width="48" height="48">
<rect width="48" height="48" rx="4" fill="white"/>
</mask>
<g mask="url(#mask0_1518_27485)">
<path d="M17.2 12.6667H19.4666C19.8066 12.6667 20.0333 12.44 20.0333 12.1V10.4H27.9666V12.1C27.9666 12.44 28.1933 12.6667 28.5333 12.6667H30.8C31.14 12.6667 31.3666 12.44 31.3666 12.1V10.4C31.3666 8.53 29.8366 7 27.9666 7H20.0333C18.1633 7 16.6333 8.53 16.6333 10.4V12.1C16.6333 12.44 16.86 12.6667 17.2 12.6667Z" fill="white"/>
<path fill-rule="evenodd" clip-rule="evenodd" d="M10.4 16.0669H37.6C39.47 16.0669 41 17.5969 41 19.4669V37.6002C41 39.4702 39.47 41.0002 37.6 41.0002H10.4C8.53 41.0002 7 39.4702 7 37.6002V19.4669C7 17.5969 8.53 16.0669 10.4 16.0669ZM22.8667 35.7302L28.8167 28.5902C29.2133 28.1369 28.8733 27.4002 28.3067 27.4002H25.36L27.91 23.3202C28.1933 22.8669 27.8533 22.3569 27.3433 22.3569H26.4933H22.64C22.0733 22.3569 21.62 22.6969 21.3933 23.2069L19.0133 29.3269C18.8433 29.7802 19.1833 30.2336 19.6367 30.2336H23.5467L22.0733 35.3336C21.96 35.7869 22.5267 36.0702 22.8667 35.7302Z" fill="white"/>
</g>
</svg>
