<svg width="48" height="48" viewBox="0 0 48 48" fill="none" xmlns="http://www.w3.org/2000/svg">
<rect width="48" height="48" rx="4" fill="#F2CF5B"/>
<mask id="mask0_1518_27489" style="mask-type:luminance" maskUnits="userSpaceOnUse" x="0" y="0" width="48" height="48">
<rect width="48" height="48" rx="4" fill="white"/>
</mask>
<g mask="url(#mask0_1518_27489)">
<path d="M17.2 12.6667H19.4666C19.8066 12.6667 20.0333 12.44 20.0333 12.1V10.4H27.9666V12.1C27.9666 12.44 28.1933 12.6667 28.5333 12.6667H30.8C31.14 12.6667 31.3666 12.44 31.3666 12.1V10.4C31.3666 8.53 29.8366 7 27.9666 7H20.0333C18.1633 7 16.6333 8.53 16.6333 10.4V12.1C16.6333 12.44 16.86 12.6667 17.2 12.6667Z" fill="white"/>
<path fill-rule="evenodd" clip-rule="evenodd" d="M37.6 16.0669H10.4C8.53 16.0669 7 17.5969 7 19.4669V37.6002C7 39.4702 8.53 41.0002 10.4 41.0002H37.6C39.47 41.0002 41 39.4702 41 37.6002V19.4669C41 17.5969 39.47 16.0669 37.6 16.0669ZM17.1433 22.3569H30.9133C31.3667 22.3569 31.4233 22.7536 31.31 22.9802L24.34 29.4402C24.17 29.6102 23.8867 29.6102 23.66 29.4402L16.7467 23.0369C16.4633 22.6969 16.7467 22.3569 17.1433 22.3569ZM29.6667 33.6336C30.46 33.6336 31.3667 32.7269 31.3667 31.9336C31.3667 31.7636 31.3667 26.1536 31.31 25.6436C31.31 25.3602 30.9133 25.2469 30.6867 25.4736L25.3033 30.5169C24.9633 30.8569 24.4533 31.0269 24 31.0269C23.5467 31.0269 23.0367 30.8569 22.6967 30.5169L17.2567 25.4736C17.03 25.2469 16.6333 25.4169 16.6333 25.7569V31.9336C16.6333 32.7269 17.54 33.6336 18.3333 33.6336H29.6667Z" fill="white"/>
</g>
</svg>
