<svg width="48" height="48" viewBox="0 0 48 48" fill="none" xmlns="http://www.w3.org/2000/svg">
<rect width="48" height="48" rx="4" fill="#0EB58A"/>
<mask id="mask0_1518_27505" style="mask-type:luminance" maskUnits="userSpaceOnUse" x="0" y="0" width="48" height="48">
<rect width="48" height="48" rx="4" fill="white"/>
</mask>
<g mask="url(#mask0_1518_27505)">
<path d="M39.8483 22.4643L37.8193 21.5321C37.5451 21.3676 37.1612 21.3676 36.887 21.5321L30.8547 24.4385C31.8418 24.1095 32.8838 23.945 33.9257 23.945C35.6257 23.945 37.216 24.3837 38.6418 25.1514L39.7934 24.603C40.7257 24.1095 40.7257 22.903 39.8483 22.4643Z" fill="white"/>
<path d="M8.2064 16.816L22.9032 23.7805C23.5612 24.1096 24.3838 24.1096 25.0419 23.7805L39.7935 16.816C40.6709 16.3773 40.6709 15.2257 39.7935 14.787L25.0419 7.82246C24.3838 7.49343 23.5612 7.49343 22.9032 7.82246L8.2064 14.8418C7.27414 15.2257 7.27414 16.4321 8.2064 16.816Z" fill="white"/>
<path d="M8.2064 24.4934L22.9032 31.5127C23.287 31.7321 23.7258 31.7869 24.1645 31.7321C24.7128 29.0998 26.3032 26.9063 28.4967 25.4805L25.0967 27.1256C24.4387 27.4547 23.6161 27.4547 22.958 27.1256L11.1677 21.5321C10.8935 21.3676 10.5096 21.3676 10.2354 21.5321L8.2064 22.4643C7.27414 22.903 7.27414 24.0547 8.2064 24.4934Z" fill="white"/>
<path d="M24 35.0771C23.6161 35.0771 23.287 34.9674 22.958 34.8577L11.1129 29.2093C10.8387 29.0448 10.4548 29.0448 10.1806 29.2093L8.2064 30.1416C7.32899 30.5803 7.32899 31.7319 8.2064 32.1706L22.9032 39.19C23.5612 39.519 24.3838 39.519 25.0419 39.19L25.3709 39.0255C24.658 37.819 24.1645 36.5029 24 35.0771Z" fill="white"/>
<path fill-rule="evenodd" clip-rule="evenodd" d="M33.9806 27.3999C30.4161 27.3999 27.4548 30.3064 27.4548 33.9257C27.4548 37.5451 30.3613 40.4515 33.9806 40.4515C37.6 40.4515 40.5064 37.5451 40.5064 33.9257C40.5064 30.3064 37.5452 27.3999 33.9806 27.3999ZM39.1355 33.2676H37.4355C37.3806 31.7322 36.9968 30.3612 36.5032 29.3741C37.929 30.1967 38.9161 31.6225 39.1355 33.2676ZM33.3226 33.2676V28.9902C32.5548 29.6483 31.9516 31.2386 31.8419 33.2676H33.3226ZM33.3226 34.5838V38.8612C32.6097 38.258 31.9516 36.6128 31.8419 34.5838H33.3226ZM34.6387 34.5838V38.8612C35.3516 38.258 36.0097 36.6128 36.1194 34.5838H34.6387ZM34.6387 33.2676V28.9902C35.3516 29.5935 36.0097 31.2386 36.1194 33.2676H34.6387ZM30.5258 33.2676C30.6355 31.7322 30.9097 30.416 31.4581 29.3741C30.0323 30.1967 28.9903 31.6225 28.8258 33.2676H30.5258ZM28.8258 34.5838H30.5258C30.5806 36.1193 30.9645 37.4902 31.4581 38.4773C30.0323 37.7096 28.9903 36.2838 28.8258 34.5838ZM37.4355 34.5838C37.3258 36.1193 37.0516 37.4354 36.5032 38.4773C37.929 37.7096 38.9161 36.2838 39.1355 34.5838H37.4355Z" fill="white"/>
</g>
</svg>
