<svg width="48" height="48" viewBox="0 0 48 48" fill="none" xmlns="http://www.w3.org/2000/svg">
<rect width="48" height="48" rx="4" fill="#0EB58A"/>
<mask id="mask0_1518_27503" style="mask-type:luminance" maskUnits="userSpaceOnUse" x="0" y="0" width="48" height="48">
<rect width="48" height="48" rx="4" fill="white"/>
</mask>
<g mask="url(#mask0_1518_27503)">
<path d="M13.5213 22.9409C14.0787 16.8655 19.2066 12.1278 25.3377 12.1278C32.3607 12.1278 37.9344 18.2032 37.1541 25.3376C36.5967 30.4655 31.7476 35.3147 26.564 35.8163C22.7181 36.2065 19.0951 34.8131 16.5869 32.0262C16.2525 31.636 15.8066 31.4131 15.4164 31.9704L14.1344 33.5311C13.8558 33.8655 14.0787 34.0885 14.3574 34.3672C17.2558 37.4327 21.2689 39.1606 25.6164 39.1049C33.4197 38.9934 39.941 32.8622 40.4426 25.059C41.1115 16.2524 34.0885 8.89502 25.3935 8.89502C17.423 8.89502 10.8459 15.0819 10.3443 22.9409C10.3443 23.1081 10.2885 23.3311 10.2885 23.4983H7.83608C7.11149 23.4983 6.77707 24.3344 7.16723 24.7803L11.2361 29.6852C11.5705 30.0753 12.1279 30.0753 12.4623 29.6852L16.5312 24.7803C16.9771 24.2229 16.5869 23.4983 15.8623 23.4983H13.4656L13.5213 22.9409Z" fill="white"/>
<path fill-rule="evenodd" clip-rule="evenodd" d="M25.4492 17.3672C21.8262 17.3672 18.8164 20.377 18.8164 24C18.8164 27.6229 21.8262 30.6328 25.4492 30.6328C29.0721 30.6328 32.082 27.6229 32.082 24C32.082 20.377 29.1279 17.3672 25.4492 17.3672ZM30.7443 23.3311H29.0164C28.9607 21.7705 28.5705 20.377 28.0689 19.3737C29.518 20.1541 30.5213 21.659 30.7443 23.3311ZM24.8361 23.3311V18.9836C24.0558 19.6524 23.3869 21.2688 23.3312 23.3311H24.8361ZM24.8361 24.6688V29.0164C24.1115 28.4033 23.4426 26.7311 23.3312 24.6688H24.8361ZM26.118 24.6688V29.0164C26.8984 28.3475 27.5672 26.7311 27.623 24.6688H26.118ZM26.118 23.3311V18.9836C26.8426 19.5967 27.5115 21.2688 27.623 23.3311H26.118ZM21.9935 23.3311C22.1049 21.7705 22.3836 20.4328 22.941 19.3737C21.4361 20.1541 20.4328 21.659 20.2656 23.3311H21.9935ZM20.2098 24.6688H21.9377C21.9935 26.2295 22.3836 27.6229 22.8853 28.6262C21.4361 27.8459 20.4328 26.341 20.2098 24.6688ZM28.9607 24.6688C28.8492 26.2295 28.5705 27.5672 28.0131 28.6262C29.518 27.8459 30.5213 26.341 30.6885 24.6688H28.9607Z" fill="white"/>
</g>
</svg>
