<svg width="48" height="48" viewBox="0 0 48 48" fill="none" xmlns="http://www.w3.org/2000/svg">
<rect width="48" height="48" rx="4" fill="#1FCAA0"/>
<mask id="mask0_1518_27511" style="mask-type:luminance" maskUnits="userSpaceOnUse" x="0" y="0" width="48" height="48">
<rect width="48" height="48" rx="4" fill="white"/>
</mask>
<g mask="url(#mask0_1518_27511)">
<path d="M16.5869 27.8462C17.3672 29.5741 18.7606 30.9118 20.4885 31.7479C20.9902 31.9708 21.2131 32.4725 21.2131 32.9741V39.384C21.2131 40.2758 20.377 40.9446 19.4852 40.7217C13.6885 39.161 9.11803 34.5905 7.55737 28.7938C7.33442 27.9577 8.00327 27.0659 8.89508 27.0659H15.3607C15.8623 27.0659 16.3639 27.3446 16.5869 27.8462Z" fill="white"/>
<path d="M19.541 7.39038C20.377 7.16743 21.2688 7.83628 21.2688 8.72808V15.1379C21.2688 15.6396 20.9902 16.1412 20.5443 16.3642C18.8164 17.1445 17.4787 18.5379 16.6426 20.2658C16.4197 20.7674 15.918 20.9904 15.4164 20.9904H8.89508C8.00327 20.9904 7.33442 20.1543 7.55737 19.2625C9.17376 13.5215 13.7443 8.95103 19.541 7.39038Z" fill="white"/>
<path d="M41 24.056C41 32.0264 35.9279 38.7707 28.9607 40.7215C28.1246 40.9445 27.2886 40.2756 27.2886 39.3838V32.8625C27.2886 32.3051 27.5673 31.8035 28.0132 31.5248C30.6328 30.1871 32.4722 27.3445 32.4722 24.056C32.4722 20.7674 30.6328 17.8691 28.0132 16.5871C27.5673 16.3641 27.2886 15.8068 27.2886 15.2494V8.72808C27.2886 7.83628 28.1246 7.16743 28.9607 7.39038C35.9279 9.3412 41 16.0855 41 24.056Z" fill="white"/>
</g>
</svg>
