<svg width="48" height="48" viewBox="0 0 48 48" fill="none" xmlns="http://www.w3.org/2000/svg">
<rect width="48" height="48" rx="4" fill="#88C651"/>
<mask id="mask0_1518_27517" style="mask-type:luminance" maskUnits="userSpaceOnUse" x="0" y="0" width="48" height="48">
<rect width="48" height="48" rx="4" fill="white"/>
</mask>
<g mask="url(#mask0_1518_27517)">
<path d="M29.8933 12.8936C28.76 12.8936 27.74 13.0069 26.7767 13.3469C27.9667 14.3102 28.9867 15.5002 29.8367 16.8036H29.8933C33.86 16.8036 37.09 20.0336 37.09 24.0002C37.09 27.9669 33.86 31.1969 29.8933 31.1969C28.93 31.1969 27.91 31.0269 27.06 30.6302C27.57 29.8936 28.0233 29.1002 28.3633 28.3636C28.4767 28.0236 28.6467 27.7969 28.7033 27.4569C29.0433 26.4369 29.2133 25.2469 29.2133 24.0569C29.2133 17.9369 24.2267 12.9502 18.1067 12.9502C11.9867 12.9502 7 17.8802 7 24.0002C7 30.1202 11.9867 35.1069 18.1067 35.1069C19.24 35.1069 20.26 34.9936 21.2233 34.6536C20.0333 33.6902 19.0133 32.5002 18.1633 31.1969H18.1067C14.14 31.1969 10.91 27.9669 10.91 24.0002C10.91 20.0336 14.14 16.8036 18.1067 16.8036C19.07 16.8036 20.09 16.9736 20.9967 17.3702C19.6367 19.1836 18.7867 21.5069 18.7867 24.0002C18.7867 30.1202 23.7733 35.1069 29.8933 35.1069C36.0133 35.1069 41 30.1202 41 24.0002C41 17.8802 36.0133 12.8936 29.8933 12.8936Z" fill="white"/>
</g>
</svg>
