<svg width="48" height="48" viewBox="0 0 48 48" fill="none" xmlns="http://www.w3.org/2000/svg">
<rect width="48" height="48" rx="4" fill="#F67594"/>
<mask id="mask0_1518_27519" style="mask-type:luminance" maskUnits="userSpaceOnUse" x="0" y="0" width="48" height="48">
<rect width="48" height="48" rx="4" fill="white"/>
</mask>
<g mask="url(#mask0_1518_27519)">
<path d="M22.3278 25.9507C21.6033 25.9507 20.8787 26.2294 20.377 26.7867C19.318 27.8458 19.318 29.6294 20.377 30.7441C20.8787 31.2458 21.6033 31.5802 22.3278 31.5802C23.0524 31.5802 23.777 31.3015 24.2787 30.7441C25.3377 29.6851 25.3377 27.9015 24.2787 26.7867C23.777 26.2294 23.0524 25.9507 22.3278 25.9507Z" fill="white"/>
<path fill-rule="evenodd" clip-rule="evenodd" d="M40.4984 13.4655L36.7082 8.00325C36.3738 7.50162 35.7049 7.39014 35.2033 7.66883L16.5869 19.2065C14.8033 20.2655 13.2426 21.8262 12.2393 24.1672C11.2361 26.5639 11.0131 29.1278 11.6262 31.5246C9.22951 31.7475 7.27869 33.7541 7.27869 36.2623C7.27869 38.8819 9.39672 41 12.0164 41C13.9672 41 15.6393 39.8295 16.3639 38.1574C20.6557 40.8885 26.4525 40.3869 30.2426 36.5967C33.6426 33.1967 34.3672 28.1246 32.4721 23.9442C31.8033 22.4951 32.1934 20.7115 33.5311 19.7639L40.2754 14.9705C40.7213 14.6918 40.8328 13.9672 40.4984 13.4655ZM12.0164 37.6557C11.2361 37.6557 10.6229 37.0426 10.6229 36.2623C10.6229 35.4819 11.2361 34.8688 12.0164 34.8688C12.7967 34.8688 13.4098 35.4819 13.4098 36.2623C13.4098 37.0426 12.7967 37.6557 12.0164 37.6557ZM22.3279 34.8688C23.9443 34.8688 25.5049 34.2557 26.6754 33.0852C29.0721 30.6885 29.0721 26.7869 26.6754 24.3901C25.5049 23.2196 23.9443 22.6065 22.3279 22.6065C20.6557 22.6065 19.1508 23.2196 17.9803 24.3901C15.5836 26.7869 15.5836 30.6885 17.9803 33.0852C19.1508 34.2557 20.7115 34.8688 22.3279 34.8688Z" fill="white"/>
</g>
</svg>
