<svg width="48" height="48" viewBox="0 0 48 48" fill="none" xmlns="http://www.w3.org/2000/svg">
<rect width="48" height="48" rx="4" fill="#54698D"/>
<mask id="mask0_1518_27523" style="mask-type:luminance" maskUnits="userSpaceOnUse" x="0" y="0" width="48" height="48">
<rect width="48" height="48" rx="4" fill="white"/>
</mask>
<g mask="url(#mask0_1518_27523)">
<path fill-rule="evenodd" clip-rule="evenodd" d="M10.5133 7H37.4867C39.4133 7 41 8.58667 41 10.5133V37.4867C41 39.4133 39.4133 41 37.4867 41H10.5133C8.58667 41 7 39.4133 7 37.4867V10.5133C7 8.58667 8.58667 7 10.5133 7ZM35.73 34.9367H35.7867V13.1767C35.7867 12.7233 35.4467 12.27 34.9933 12.27H13.0067C12.5533 12.27 12.1 12.61 12.1 13.0633V34.8233C12.1 35.2767 12.44 35.73 12.8933 35.73H34.8233C35.2767 35.73 35.73 35.39 35.73 34.9367Z" fill="white"/>
<path d="M28.9867 21.5065C29.7233 21.5065 31.1967 20.8832 31.1967 18.9565C31.1967 17.0298 29.78 16.9165 29.3833 16.9165C28.5333 16.9165 27.6833 17.5398 26.9467 18.8432C26.21 20.1465 25.36 21.6198 25.36 21.6198H25.3033C25.1333 20.7132 24.9633 19.9198 24.9067 19.5798C24.7367 18.7865 23.83 17.0298 21.9033 17.0298C19.9767 17.0298 18.22 18.1632 18.22 18.1632C17.88 18.3898 17.6533 18.7298 17.6533 19.1832C17.6533 19.8065 18.1633 20.3732 18.8433 20.3732C19.0133 20.3732 19.1833 20.3165 19.3533 20.2598C19.3533 20.2598 20.8267 19.4665 21.11 20.2598C21.2233 20.4865 21.28 20.7698 21.3933 21.0532C21.79 22.2998 22.13 23.8298 22.4133 25.1898L21.1667 27.0032C21.1667 27.0032 19.75 26.4932 19.0133 26.4932C18.2767 26.4932 16.8033 27.1165 16.8033 29.0432C16.8033 30.9698 18.22 31.0832 18.6167 31.0832C19.4667 31.0832 20.3167 30.4598 21.0533 29.1565C21.79 27.8532 22.64 26.3798 22.64 26.3798C22.8667 27.5698 23.0933 28.5332 23.2067 28.9298C23.7167 30.2898 24.7933 31.1398 26.2667 31.1398C26.2667 31.1398 27.7967 31.1398 29.5533 30.1198C30.0067 29.9498 30.29 29.4965 30.29 29.0432C30.29 28.4198 29.78 27.8532 29.1 27.8532C28.93 27.8532 28.76 27.9098 28.59 27.9665C28.59 27.9665 27.2867 28.7032 26.89 28.1365C26.55 27.5698 26.3233 26.7765 26.0967 25.7565C25.9267 24.9065 25.7 23.8865 25.4733 22.8665L26.7767 20.9965C26.8333 20.9965 28.25 21.5065 28.9867 21.5065Z" fill="white"/>
</g>
</svg>
