<svg width="48" height="48" viewBox="0 0 48 48" fill="none" xmlns="http://www.w3.org/2000/svg">
<rect width="48" height="48" rx="4" fill="#9895EE"/>
<mask id="mask0_1518_27525" style="mask-type:luminance" maskUnits="userSpaceOnUse" x="0" y="0" width="48" height="48">
<rect width="48" height="48" rx="4" fill="white"/>
</mask>
<g mask="url(#mask0_1518_27525)">
<path fill-rule="evenodd" clip-rule="evenodd" d="M10.5172 7H37.4828C39.4172 7 41 8.58276 41 10.5172V37.4828C41 39.4172 39.4172 41 37.4828 41H10.5172C8.58276 41 7 39.4172 7 37.4828V10.5172C7 8.58276 8.58276 7 10.5172 7ZM11.6897 37.4828H36.3103C36.9552 37.4828 37.4828 36.9552 37.4828 36.3103V11.6897C37.4828 11.0448 36.9552 10.5172 36.3103 10.5172H11.6897C11.0448 10.5172 10.5172 11.0448 10.5172 11.6897V36.3103C10.5172 36.9552 11.0448 37.4828 11.6897 37.4828Z" fill="white"/>
<path d="M28.9827 22.2415H25.1724L28.5138 16.7312C28.8655 16.145 28.4552 15.207 27.7517 15.207H26.6379H22.8862C22.1827 15.207 21.5379 15.676 21.2448 16.3208L18.1965 24.4105C17.9621 24.9967 18.3724 25.7588 19.0172 25.7588H22.8862L21.0103 32.1484C20.8345 32.7346 21.5965 33.0863 22.0069 32.6174L29.6862 23.5898C30.1552 23.0036 29.7448 22.2415 28.9827 22.2415Z" fill="white"/>
</g>
</svg>
