<svg width="48" height="48" viewBox="0 0 48 48" fill="none" xmlns="http://www.w3.org/2000/svg">
<rect width="48" height="48" rx="4" fill="#6EC06E"/>
<mask id="mask0_1518_27349" style="mask-type:luminance" maskUnits="userSpaceOnUse" x="0" y="0" width="48" height="48">
<rect width="48" height="48" rx="4" fill="white"/>
</mask>
<g mask="url(#mask0_1518_27349)">
<path d="M37.9401 14.7067L30.4601 7.22667C30.2901 7.05667 30.1201 7 29.8934 7C29.4401 7 29.1001 7.34 29.1001 7.79333V13.8C29.1001 15.0467 30.1201 16.0667 31.3668 16.0667H37.3734C37.8268 16.0667 38.1668 15.7267 38.1668 15.2733C38.1668 15.0467 38.1101 14.8767 37.9401 14.7067Z" fill="white"/>
<path fill-rule="evenodd" clip-rule="evenodd" d="M29.1 19.4667H37.0334C37.6567 19.4667 38.1667 19.9767 38.1667 20.6V37.6C38.1667 39.47 36.6367 41 34.7667 41H13.2334C11.3634 41 9.83337 39.47 9.83337 37.6V10.4C9.83337 8.53 11.3634 7 13.2334 7H24.5667C25.19 7 25.7 7.51 25.7 8.13333V16.0667C25.7 17.9367 27.23 19.4667 29.1 19.4667ZM16.5767 13.7433L13.8 14.14C13.63 14.1967 13.5167 14.4233 13.5734 14.5367L15.6134 16.52C15.67 16.5767 15.67 16.69 15.67 16.7467L15.2167 19.5233C15.16 19.6933 15.3867 19.8633 15.5567 19.75L18.05 18.4467C18.1067 18.39 18.22 18.39 18.2767 18.4467L20.77 19.75C20.94 19.8633 21.1667 19.6933 21.11 19.5233L20.6567 16.7467C20.6567 16.6333 20.6567 16.5767 20.7134 16.52L22.7534 14.5367C22.9234 14.4233 22.81 14.1967 22.64 14.14L19.8634 13.7433C19.8067 13.7433 19.75 13.6867 19.6934 13.63L18.4467 11.08C18.3334 10.91 18.1067 10.91 17.9934 11.08L16.7467 13.63C16.7467 13.6867 16.6334 13.7433 16.5767 13.7433ZM31.3667 33.0667C31.3667 33.69 30.8567 34.2 30.2334 34.2H15.5C14.8767 34.2 14.3667 33.69 14.3667 33.0667V31.9333C14.3667 31.31 14.8767 30.8 15.5 30.8H30.2334C30.8567 30.8 31.3667 31.31 31.3667 31.9333V33.0667ZM32.5 27.4C33.1234 27.4 33.6334 26.89 33.6334 26.2667V25.1333C33.6334 24.51 33.1234 24 32.5 24H15.5C14.8767 24 14.3667 24.51 14.3667 25.1333V26.2667C14.3667 26.89 14.8767 27.4 15.5 27.4H32.5Z" fill="white"/>
</g>
</svg>
