<svg width="48" height="48" viewBox="0 0 48 48" fill="none" xmlns="http://www.w3.org/2000/svg">
<rect width="48" height="48" rx="4" fill="#FB8954"/>
<mask id="mask0_1518_27343" style="mask-type:luminance" maskUnits="userSpaceOnUse" x="0" y="0" width="48" height="48">
<rect width="48" height="48" rx="4" fill="white"/>
</mask>
<g mask="url(#mask0_1518_27343)">
<path d="M23.5541 24.7803C23.1639 24.8918 22.941 25.3934 23.2754 25.7279L26.341 28.8492C26.6754 29.1836 26.6754 29.6852 26.341 30.0197L25.1705 31.1902C24.836 31.5246 24.3344 31.5246 24 31.1902L16.4754 23.6656C16.141 23.3311 16.141 22.8295 16.4754 22.4951L24 14.9705C24.3344 14.6361 24.836 14.6361 25.1705 14.9705L26.341 16.1967C26.6754 16.5311 26.6754 17.0328 26.341 17.3672L23.2196 20.4885C22.8852 20.823 23.4983 21.4361 23.4983 21.4361C30.6328 21.659 36.1508 26.341 37.8787 32.7508C39.718 30.2984 40.8328 27.2885 40.8328 24.0557C40.777 15.4164 33.3082 8.61639 24.0557 8.61639C14.7475 8.61639 7.33439 15.4721 7.33439 23.8885C7.33439 26.5639 8.11472 29.0721 9.34095 31.3016C9.5639 31.6361 9.61964 32.082 9.50816 32.4721L7.33439 38.4361C7.11144 38.9934 7.66882 39.4951 8.2262 39.3279L14.2459 37.0426C14.5803 36.8754 15.0262 36.9869 15.4164 37.2098C17.9246 38.6033 20.9344 39.4393 24.1672 39.4393C28.3475 39.3836 32.1377 37.9344 35.036 35.5934C34.3672 29.6295 29.518 25.0033 23.5541 24.7803Z" fill="white"/>
</g>
</svg>
