<svg width="48" height="48" viewBox="0 0 48 48" fill="none" xmlns="http://www.w3.org/2000/svg">
<rect width="48" height="48" rx="4" fill="#A094ED"/>
<mask id="mask0_1518_27345" style="mask-type:luminance" maskUnits="userSpaceOnUse" x="0" y="0" width="48" height="48">
<rect width="48" height="48" rx="4" fill="white"/>
</mask>
<g mask="url(#mask0_1518_27345)">
<path fill-rule="evenodd" clip-rule="evenodd" d="M10.4 12.3833H37.6C39.47 12.3833 41 13.9133 41 15.7833V32.2167C41 34.0867 39.47 35.6167 37.6 35.6167H10.4C8.53 35.6167 7 34.0867 7 32.2167V15.7833C7 13.9133 8.53 12.3833 10.4 12.3833ZM18.3333 31.65H23.2067C24.2833 31.65 25.1333 30.46 25.02 29.3267C24.9633 27.6267 23.2067 26.4933 21.3367 25.7C20.0333 25.19 19.8633 24.68 19.8633 24.1133C19.8633 23.5467 20.2033 23.0367 20.6567 22.64C21.45 21.96 21.8467 20.94 21.8467 19.8067C21.8467 17.6533 20.5433 15.84 18.2767 15.84C16.01 15.84 14.7067 17.6533 14.7067 19.8067C14.7067 20.94 15.16 21.96 15.8967 22.64C16.35 23.0367 16.69 23.5467 16.69 24.1133C16.69 24.68 16.52 25.19 15.2167 25.7567C13.3467 26.6067 11.59 27.6267 11.5333 29.3267C11.5333 30.46 12.3833 31.65 13.46 31.65H18.3333ZM36.4667 27.6833C36.4667 28.3067 35.9567 28.8167 35.3333 28.8167H30.2333C29.61 28.8167 29.1 28.3067 29.1 27.6833V25.9833C29.1 25.36 29.61 24.85 30.2333 24.85H35.3333C35.9567 24.85 36.4667 25.36 36.4667 25.9833V27.6833ZM35.3333 22.5833C35.9567 22.5833 36.4667 22.0733 36.4667 21.45V19.75C36.4667 19.1267 35.9567 18.6167 35.3333 18.6167H26.8333C26.21 18.6167 25.7 19.1267 25.7 19.75V21.45C25.7 22.0733 26.21 22.5833 26.8333 22.5833H35.3333Z" fill="white"/>
</g>
</svg>
