<svg width="48" height="48" viewBox="0 0 48 48" fill="none" xmlns="http://www.w3.org/2000/svg">
<rect width="48" height="48" rx="4" fill="#A094ED"/>
<mask id="mask0_1518_27341" style="mask-type:luminance" maskUnits="userSpaceOnUse" x="0" y="0" width="48" height="48">
<rect width="48" height="48" rx="4" fill="white"/>
</mask>
<g mask="url(#mask0_1518_27341)">
<path fill-rule="evenodd" clip-rule="evenodd" d="M11.6263 7.39017C9.11808 7.39017 7.05579 9.34099 7.05579 11.7377V36.4295C7.05579 38.8262 9.11808 40.7771 11.6263 40.7771H35.9279C38.4361 40.7771 40.4984 38.8262 40.4984 36.4295V11.7377C40.4984 9.34099 38.4361 7.39017 35.9279 7.39017H11.6263ZM17.7017 17.5344C17.7017 18.3148 17.0328 18.9836 16.1968 18.9836H14.6919C13.8558 18.9836 13.1869 18.3148 13.1869 17.5344V16.0852C13.1869 15.3049 13.8558 14.6361 14.6919 14.6361H16.1968C17.0328 14.6361 17.7017 15.3049 17.7017 16.0852V17.5344ZM32.9181 18.9836C33.7541 18.9836 34.423 18.3148 34.423 17.5344V16.0852C34.423 15.3049 33.7541 14.6361 32.9181 14.6361H22.2722C21.4361 14.6361 20.7673 15.3049 20.7673 16.0852V17.5344C20.7673 18.3148 21.4361 18.9836 22.2722 18.9836H32.9181ZM17.7017 24.8361C17.7017 25.6164 17.0328 26.2852 16.1968 26.2852H14.6919C13.8558 26.2852 13.1869 25.6164 13.1869 24.8361V23.3869C13.1869 22.6066 13.8558 21.9377 14.6919 21.9377H16.1968C17.0328 21.9377 17.7017 22.6066 17.7017 23.3869V24.8361ZM30.1312 26.2852C30.9673 26.2852 31.6361 25.6164 31.6361 24.8361V23.3869C31.6361 22.6066 30.9673 21.9377 30.1312 21.9377H22.2722C21.4361 21.9377 20.7673 22.6066 20.7673 23.3869V24.8361C20.7673 25.6164 21.4361 26.2852 22.2722 26.2852H30.1312ZM17.7017 32.082C17.7017 32.8623 17.0328 33.5312 16.1968 33.5312H14.6919C13.8558 33.5312 13.1869 32.8623 13.1869 32.082V30.6328C13.1869 29.8525 13.8558 29.1836 14.6919 29.1836H16.1968C17.0328 29.1836 17.7017 29.8525 17.7017 30.6328V32.082ZM32.9181 33.5312C33.7541 33.5312 34.423 32.8623 34.423 32.082V30.6328C34.423 29.8525 33.7541 29.1836 32.9181 29.1836H22.2722C21.4361 29.1836 20.7673 29.8525 20.7673 30.6328V32.082C20.7673 32.8623 21.4361 33.5312 22.2722 33.5312H32.9181Z" fill="white"/>
</g>
</svg>
