<svg width="48" height="48" viewBox="0 0 48 48" fill="none" xmlns="http://www.w3.org/2000/svg">
<rect width="48" height="48" rx="4" fill="#0EB58A"/>
<mask id="mask0_1518_27539" style="mask-type:luminance" maskUnits="userSpaceOnUse" x="0" y="0" width="48" height="48">
<rect width="48" height="48" rx="4" fill="white"/>
</mask>
<g mask="url(#mask0_1518_27539)">
<path d="M19.6367 27.2868C23.4549 27.2868 26.5501 23.8618 26.5501 19.6368C26.5501 15.4118 23.4549 11.9868 19.6367 11.9868C15.8186 11.9868 12.7234 15.4118 12.7234 19.6368C12.7234 23.8618 15.8186 27.2868 19.6367 27.2868Z" fill="white"/>
<path d="M26.04 28.1934C24.2833 29.7801 22.0733 30.7434 19.6367 30.7434C17.2 30.7434 14.9333 29.7801 13.2333 28.1367C10.1167 29.5534 7 31.3667 7 34.2001V35.3901C7 36.8067 8.13333 37.9401 9.55 37.9401H29.78C31.1967 37.9401 32.33 36.8067 32.33 35.3901V34.2001C32.2733 31.3667 29.2133 29.6101 26.04 28.1934Z" fill="white"/>
<path d="M34.7667 22.5268C34.6534 22.4702 34.5967 22.4135 34.4834 22.3568C34.2567 22.2435 33.9734 22.2435 33.7467 22.4135C32.5567 23.1502 31.1401 23.6035 29.6667 23.6035C29.4967 23.6035 29.2701 23.6035 29.1001 23.6035C28.8167 24.3402 28.5334 25.0768 28.1367 25.7002C28.3634 25.8135 28.6467 25.8702 28.9301 26.0402C32.1601 27.4568 34.4267 29.2135 36.0134 31.5935H38.7334C39.9801 31.5935 41.0001 30.5735 41.0001 29.3268V28.2502C41.0001 25.4735 37.7701 23.7735 34.7667 22.5268Z" fill="white"/>
<path d="M34.1433 15.0468C34.1433 12.2701 32.1033 10.0034 29.6666 10.0034C28.42 10.0034 27.3433 10.5701 26.4933 11.4201C28.4766 13.4601 29.7233 16.3501 29.7233 19.5801C29.7233 19.7501 29.7233 19.8634 29.7233 20.0334C32.16 20.0334 34.1433 17.8234 34.1433 15.0468Z" fill="white"/>
</g>
</svg>
