<svg width="48" height="48" viewBox="0 0 48 48" fill="none" xmlns="http://www.w3.org/2000/svg">
<rect width="48" height="48" rx="4" fill="#6BB7E4"/>
<mask id="mask0_1518_27533" style="mask-type:luminance" maskUnits="userSpaceOnUse" x="0" y="0" width="48" height="48">
<rect width="48" height="48" rx="4" fill="white"/>
</mask>
<g mask="url(#mask0_1518_27533)">
<path d="M26.1013 8.04207L24 18.2086C23.9779 18.38 24.0365 18.552 24.1587 18.6742C24.2809 18.7965 24.4529 18.8551 24.6243 18.8329H35.5043C35.8698 18.8654 36.196 19.0757 36.3764 19.3953C36.5568 19.7149 36.5683 20.1028 36.4072 20.4326L24.5574 39.885C24.3401 40.3139 23.8554 40.5357 23.3888 40.4197C22.9223 40.3038 22.5978 39.8808 22.6066 39.4001L24.6967 27.4276C24.6967 27.0096 24.3512 27.149 23.9331 27.149H12.5292C11.7656 27.149 11.2082 26.0342 11.6263 25.3375L24.1561 7.55715C24.3827 7.14464 24.8588 6.93656 25.3155 7.05041C25.7722 7.16425 26.0949 7.57145 26.1013 8.04207Z" fill="white"/>
</g>
</svg>
