<svg width="48" height="48" viewBox="0 0 48 48" fill="none" xmlns="http://www.w3.org/2000/svg">
<g clip-path="url(#clip0_1518_27956)">
<mask id="mask0_1518_27956" style="mask-type:alpha" maskUnits="userSpaceOnUse" x="0" y="0" width="48" height="48">
<path d="M44 0H4C1.79086 0 0 1.79086 0 4V44C0 46.2091 1.79086 48 4 48H44C46.2091 48 48 46.2091 48 44V4C48 1.79086 46.2091 0 44 0Z" fill="white"/>
</mask>
<g mask="url(#mask0_1518_27956)">
<path d="M44 0H4C1.79086 0 0 1.79086 0 4V44C0 46.2091 1.79086 48 4 48H44C46.2091 48 48 46.2091 48 44V4C48 1.79086 46.2091 0 44 0Z" fill="#9274DF"/>
<path d="M28.1935 17.7098C28.1621 23.3669 23.5563 27.9306 17.8991 27.9098C12.242 27.8889 7.66985 23.2916 7.68019 17.6344C7.69057 11.9772 12.2795 7.39648 17.9367 7.39648C20.6659 7.39947 23.2815 8.48882 25.206 10.4239C27.1305 12.359 28.2054 14.9807 28.1935 17.7098ZM14.14 13.0632C13.4034 13.0632 12.8367 13.7998 12.8367 14.8198C12.8367 15.7265 13.3467 16.5765 14.14 16.5765C14.9334 16.5765 15.4434 15.8398 15.4434 14.8198C15.33 13.8565 14.82 13.0632 14.14 13.0632ZM21.79 13.0632C21.0534 13.0632 20.4867 13.7998 20.4867 14.8198C20.4867 15.7265 20.9967 16.5765 21.79 16.5765C22.5834 16.5765 23.0934 15.8398 23.0934 14.8198C23.0934 13.7998 22.5834 13.0632 21.79 13.0632ZM11.5334 19.0132C11.8167 22.2432 14.1967 25.0198 17.88 25.0198C21.313 25.093 24.1905 22.4407 24.3967 19.0132H11.5334Z" fill="white"/>
<path d="M40.7733 21.6769C40.778 21.4651 40.6959 21.2606 40.5461 21.1107C40.3963 20.9609 40.1918 20.8789 39.98 20.8836L31.7067 20.8269C31.5012 20.8093 31.2979 20.8793 31.1469 21.0195C30.9958 21.1598 30.911 21.3574 30.9133 21.5636V23.0369C30.9086 23.2487 30.9907 23.4532 31.1405 23.603C31.2903 23.7528 31.4949 23.8349 31.7067 23.8302L34.2567 23.8869C34.453 23.8972 34.6253 24.0207 34.6983 24.2032C34.7713 24.3857 34.7317 24.594 34.5967 24.7369L23.2633 36.1269C23.085 36.1744 22.8947 36.1321 22.7533 36.0136L16.69 29.8369C16.4121 29.5654 15.9763 29.5412 15.67 29.7802L15.6133 29.8369L14.5367 30.9136C14.5367 30.9448 14.5113 30.9702 14.48 30.9702L7.33999 38.1102C7.05643 38.4131 7.05643 38.884 7.33999 39.1869L8.41666 40.2636C8.71954 40.5471 9.19045 40.5471 9.49333 40.2636L15.3867 34.4269C15.782 34.0134 16.4341 33.9883 16.86 34.3702L22.64 40.2069C22.7646 40.3802 22.9649 40.4829 23.1783 40.4829C23.3917 40.4829 23.5921 40.3802 23.7167 40.2069L36.8633 26.9469C37.0044 26.8067 37.2154 26.7637 37.4 26.8376C37.5847 26.9115 37.7079 27.088 37.7133 27.2869L37.77 29.8369C37.7653 30.0487 37.8474 30.2532 37.9972 30.403C38.147 30.5528 38.3515 30.6349 38.5633 30.6302H40.0367C40.2421 30.6478 40.4454 30.5778 40.5965 30.4376C40.7475 30.2973 40.8323 30.0997 40.83 29.8936L40.7733 21.6769Z" fill="white"/>
</g>
</g>
<defs>
<clipPath id="clip0_1518_27956">
<rect width="48" height="48" fill="white"/>
</clipPath>
</defs>
</svg>
