<svg width="27" height="26" viewBox="0 0 27 26" fill="none" xmlns="http://www.w3.org/2000/svg">
<path fill-rule="evenodd" clip-rule="evenodd" d="M10.9 6C11.75 5.15 12.9 4.6 14.2 4.6C15.9 4.6 17.4 5.55 18.2 6.95C18.9 6.65 19.65 6.45 20.45 6.45C23.55 6.45 26.05 8.95 26.05 12.05C26.05 15.15 23.55 17.65 20.45 17.65C20.05 17.65 19.7 17.6 19.35 17.55C18.65 18.8 17.3 19.65 15.75 19.65C15.1 19.65 14.5 19.5 13.95 19.25C13.25 20.9 11.6 22.05 9.65 22.05C7.65 22.05 5.9 20.8 5.25 19C4.95 19.05 4.65 19.1 4.35 19.1C1.95 19.1 0 17.15 0 14.75C0 13.15 0.85 11.75 2.15 11C1.9 10.4 1.75 9.7 1.75 9C1.75 6.25 4 4 6.8 4C8.55 4.05 10 4.8 10.9 6Z" fill="#706E6B"/>
</svg>
