<svg width="26" height="26" viewBox="0 0 26 26" fill="none" xmlns="http://www.w3.org/2000/svg">
<path fill-rule="evenodd" clip-rule="evenodd" d="M18.55 2V8.8C18.55 9.3 18.15 9.75 17.6 9.75H6.95C6.45 9.75 6 9.35 6 8.8V2H4C2.9 2 2 2.9 2 4V22C2 23.1 2.9 24 4 24H22C23.1 24 24 23.1 24 22V5.6L20.4 2H18.55ZM22.05 21.05C22.05 21.55 21.65 22 21.1 22H4.95C4.45 22 4 21.6 4 21.05V12.7C4 12.2 4.4 11.75 4.95 11.75H21.1C21.6 11.75 22.05 12.15 22.05 12.7V21.05ZM12.4 6.8C12.4 7.3 12.8 7.75 13.35 7.75H15.65C16.15 7.75 16.6 7.35 16.6 6.8V2H12.45L12.4 6.8Z" fill="#706E6B"/>
</svg>
