<svg width="26" height="26" viewBox="0 0 26 26" fill="none" xmlns="http://www.w3.org/2000/svg">
<path fill-rule="evenodd" clip-rule="evenodd" d="M25 3C25 1.9 24.1 1 23 1H3C1.9 1 1 1.9 1 3V16.85C1 17.95 1.9 18.85 3 18.85H23C24.1 18.85 25 17.95 25 16.85V3ZM22 15.1C22 15.5 21.65 15.85 21.25 15.85H4.75C4.35 15.85 4 15.5 4 15.1V4.75C4 4.35 4.35 4 4.75 4H21.25C21.65 4 22 4.35 22 4.75V15.1ZM9.5 22C8.4 22 7.5 22.9 7.5 24V24.25C7.5 24.65 7.85 25 8.25 25H17.75C18.15 25 18.5 24.65 18.5 24.25V24C18.5 22.9 17.6 22 16.5 22H9.5ZM9 13.35H6.95C6.65 13.35 6.45 13.1 6.45 12.85V7C6.45 6.7 6.65 6.5 6.95 6.5H9C9.25 6.5 9.5 6.7 9.5 7V12.85C9.5 13.15 9.25 13.35 9 13.35ZM19.05 13.35H12.4C12.1 13.35 11.9 13.15 11.9 12.85V7C11.9 6.7 12.1 6.5 12.4 6.5H19.05C19.3 6.5 19.55 6.7 19.55 7V12.85C19.55 13.15 19.3 13.35 19.05 13.35Z" fill="#706E6B"/>
</svg>
