<svg width="26" height="26" viewBox="0 0 26 26" fill="none" xmlns="http://www.w3.org/2000/svg">
<path fill-rule="evenodd" clip-rule="evenodd" d="M24.799 22.649L18.099 15.999C19.449 14.099 20.149 11.699 19.799 9.14895C19.199 4.84895 15.699 1.44895 11.349 1.04895C5.44896 0.448954 0.448962 5.44895 1.04896 11.399C1.44896 15.699 4.84896 19.249 9.14896 19.849C11.699 20.199 14.099 19.499 15.999 18.149L22.649 24.799C22.949 25.099 23.399 25.099 23.699 24.799L24.749 23.749C25.049 23.449 25.049 22.949 24.799 22.649ZM3.99896 10.449C3.99896 6.89895 6.89896 3.99895 10.449 3.99895C13.999 3.99895 16.899 6.89895 16.899 10.449C16.899 13.999 13.999 16.899 10.449 16.899C6.89896 16.899 3.99896 14.049 3.99896 10.449Z" fill="#706E6B"/>
</svg>
