<svg width="26" height="26" viewBox="0 0 26 26" fill="none" xmlns="http://www.w3.org/2000/svg">
<path fill-rule="evenodd" clip-rule="evenodd" d="M1.05 22.2497L3.25 14.0997H12.55C12.8 14.0997 13.05 13.8497 13.05 13.5997V12.5997C13.05 12.3497 12.8 12.0997 12.55 12.0997H3.25L1.1 4.09971C1.05 3.99971 1 3.84971 1 3.69971C1 3.34971 1.35 2.99971 1.75 3.04971C1.85 3.04971 1.9 3.09971 2 3.09971L24.5 12.3497C24.8 12.4497 25 12.7497 25 13.0497C25 13.3497 24.8 13.5997 24.55 13.6997L2 23.1997C1.9 23.2497 1.8 23.2497 1.7 23.2497C1.3 23.1997 1 22.8997 1 22.4997C1 22.3997 1 22.3497 1.05 22.2497Z" fill="#706E6B"/>
</svg>
