<svg width="26" height="26" viewBox="0 0 26 26" fill="none" xmlns="http://www.w3.org/2000/svg">
<path fill-rule="evenodd" clip-rule="evenodd" d="M20.5 8H24.4C24.6 8 24.75 7.75 24.6 7.55L20.45 3.4C20.25 3.25 20 3.4 20 3.6V7.5C20 7.8 20.2 8 20.5 8ZM24.5 10H19C18.45 10 18 9.55 18 9V3.5C18 3.2 17.8 3 17.5 3H10.75C10.35 3 10 3.35 10 3.75V5.75C10 5.95 10.1 6.15 10.2 6.3L13 9.1C13.4 9.5 13.7 10.05 13.8 10.65C13.9 11.45 13.65 12.2 13.1 12.8L12.3 13.55C12.05 13.8 11.8 13.95 11.5 14.1C11.85 14.25 12.25 14.35 12.65 14.4C13.95 14.5 15 15.6 15 16.95V18.05C15 18.75 14.65 19.45 14.15 19.9C13.65 20.4 12.9 20.6 12.2 20.55C11.65 20.5 11.15 20.4 10.6 20.3C10.3 20.2 10 20.45 10 20.8V22.35C10 22.75 10.35 23.1 10.75 23.1H24.25C24.65 23.1 25 22.75 25 22.35V10.55C25 10.25 24.8 10.05 24.5 10ZM13 17.95V16.85C13 16.55 12.75 16.35 12.45 16.3C9.75 16.05 7.5 13.75 7.5 10.9V10.3C7.5 10 7.9 9.8 8.1 10.05L10.1 12.05C10.3 12.25 10.65 12.25 10.85 12.05L11.6 11.3C11.8 11.1 11.8 10.75 11.6 10.55L6.75 5.7C6.55 5.5 6.2 5.5 6 5.7L1.15 10.55C0.95 10.75 0.95 11.1 1.15 11.3L1.9 12.05C2.1 12.25 2.45 12.3 2.65 12.1L4.75 10.1C5 9.85 5.45 10.05 5.45 10.35V11.3C5.45 14.9 8.6 18.2 12.4 18.5C12.75 18.5 13 18.25 13 17.95Z" fill="#706E6B"/>
</svg>
