<svg width="26" height="26" viewBox="0 0 26 26" fill="none" xmlns="http://www.w3.org/2000/svg">
<path fill-rule="evenodd" clip-rule="evenodd" d="M2.4 7.025H23.6C24.1 7.025 24.5 6.525 24.35 6.025C23.85 4.375 23.15 2.875 22.2 1.525C21.9 1.125 21.35 1.075 21.05 1.425C20.1 2.325 18.75 2.825 17.35 2.825C15.85 2.825 14.5 2.225 13.5 1.225C13.2 0.925 12.7 0.925 12.4 1.225C11.4 2.225 10.05 2.825 8.55 2.825C7.15 2.825 5.85 2.325 4.85 1.425C4.5 1.125 3.95 1.175 3.7 1.525C2.75 2.825 2 4.375 1.55 6.025C1.5 6.525 1.9 7.025 2.4 7.025ZM25 10.225C25 9.775 24.65 9.525 24.2 9.525H1.8C1.35 9.525 1 9.775 1 10.225V10.375C1 17.875 6.2 24.075 13 25.025C19.8 24.075 25 17.875 25 10.425V10.225Z" fill="#706E6B"/>
</svg>
