<svg width="26" height="26" viewBox="0 0 26 26" fill="none" xmlns="http://www.w3.org/2000/svg">
<path d="M23.1539 19.7856C23.6616 19.7856 24.0769 20.201 24.0769 20.7087V23.3394C24.0769 23.8471 23.6616 24.2625 23.1539 24.2625H13.8308C13.3231 24.2625 12.9077 23.8471 12.9077 23.3394V20.7087C12.9077 20.201 13.3231 19.7856 13.8308 19.7856H23.1539ZM23.1539 9.07788C23.6616 9.07788 24.0769 9.49327 24.0769 10.001V16.2779C24.0769 16.7856 23.6616 17.201 23.1539 17.201H2.84617C2.33848 17.201 1.9231 16.7856 1.9231 16.2779V10.001C1.9231 9.49327 2.33848 9.07788 2.84617 9.07788H23.1539ZM12.1692 2.0625C12.6769 2.0625 13.0923 2.47788 13.0923 2.98558V5.61635C13.0923 6.12404 12.6769 6.53942 12.1692 6.53942H2.84617C2.33848 6.53942 1.9231 6.12404 1.9231 5.61635V2.98558C1.9231 2.47788 2.33848 2.0625 2.84617 2.0625H12.1692Z" fill="#706E6B"/>
</svg>
