<svg width="26" height="26" viewBox="0 0 26 26" fill="none" xmlns="http://www.w3.org/2000/svg">
<path fill-rule="evenodd" clip-rule="evenodd" d="M22 9.6C22 8.5 21.1 7.6 20 7.6H19.65C19.4 4.2 16.55 1.5 13.05 1.5C9.55 1.5 6.75 4.2 6.45 7.6H6C4.9 7.6 4 8.5 4 9.6L3 22.1C3 23.2 3.9 24.1 5 24.1H21C22.1 24.1 23 23.2 23 22.1L22 9.6ZM13.05 4.5C14.9 4.5 16.4 5.85 16.65 7.6H9.45C9.75 5.85 11.25 4.5 13.05 4.5ZM15.9 13.6H10.1C9.25 13.6 8.6 12.9 8.6 12.1C8.6 11.3 9.3 10.6 10.1 10.6H15.95C16.8 10.6 17.45 11.3 17.45 12.1C17.45 12.9 16.75 13.6 15.9 13.6Z" fill="#706E6B"/>
</svg>
