<svg width="26" height="26" viewBox="0 0 26 26" fill="none" xmlns="http://www.w3.org/2000/svg">
<path fill-rule="evenodd" clip-rule="evenodd" d="M6.04997 1.34961H19.3C19.75 1.34961 20.1 1.69961 20.1 2.14961C20.1 2.39961 20 2.59961 19.85 2.74961L16.25 6.34961C18.45 8.29961 24.6 15.0996 17.4 23.7996L17.3 23.8996C17.3 23.9496 17.25 23.9496 17.2 23.9996C17.05 24.1996 16.8 24.3496 16.5 24.3496C16.05 24.3496 15.7 23.9996 15.7 23.5496V23.3996C15.7 23.3496 15.7 23.2996 15.75 23.2996C16 22.1996 17.55 14.6996 10.95 11.5996L6.59997 15.9496C6.44997 16.0996 6.24997 16.1996 6.04997 16.1996C5.59997 16.1996 5.24997 15.8496 5.24997 15.3996V2.19961C5.19997 1.74961 5.59997 1.34961 6.04997 1.34961V1.34961Z" fill="#706E6B"/>
</svg>
