<svg width="26" height="26" viewBox="0 0 26 26" fill="none" xmlns="http://www.w3.org/2000/svg">
<path fill-rule="evenodd" clip-rule="evenodd" d="M24.25 2H10.75C10.35 2 10 2.35 10 2.75V23.25C10 23.65 10.35 24 10.75 24H24.25C24.65 24 25 23.65 25 23.25V2.75C25 2.35 24.65 2 24.25 2ZM7.25 2H1.75C1.35 2 1 2.35 1 2.75V5.25C1 5.65 1.35 6 1.75 6H7.25C7.65 6 8 5.65 8 5.25V2.75C8 2.35 7.65 2 7.25 2ZM7.25 8H1.75C1.35 8 1 8.35 1 8.75V11.25C1 11.65 1.35 12 1.75 12H7.25C7.65 12 8 11.65 8 11.25V8.75C8 8.35 7.65 8 7.25 8ZM7.25 14H1.75C1.35 14 1 14.35 1 14.75V17.25C1 17.65 1.35 18 1.75 18H7.25C7.65 18 8 17.65 8 17.25V14.75C8 14.35 7.65 14 7.25 14ZM7.25 20H1.75C1.35 20 1 20.35 1 20.75V23.25C1 23.65 1.35 24 1.75 24H7.25C7.65 24 8 23.65 8 23.25V20.75C8 20.35 7.65 20 7.25 20Z" fill="#706E6B"/>
</svg>
