<svg width="26" height="26" viewBox="0 0 26 26" fill="none" xmlns="http://www.w3.org/2000/svg">
<path fill-rule="evenodd" clip-rule="evenodd" d="M24.7625 4.5L22.6625 2.95C22.3625 2.75 22.0625 2.65 21.7125 2.65H14.6125V1.8C14.6125 1.35 14.2625 1 13.8125 1H12.2125C11.7625 1 11.4125 1.35 11.4125 1.8V2.6H3.4125C2.9625 2.6 2.6125 2.95 2.6125 3.4V6.6C2.6125 7.05 2.9625 7.4 3.4125 7.4H21.7125C22.0625 7.4 22.4125 7.3 22.6625 7.1L24.7625 5.55C25.1125 5.25 25.1125 4.75 24.7625 4.5ZM22.6125 11.4H14.6125V10.2C14.6125 9.95 14.4625 9.8 14.2125 9.8H11.8125C11.5625 9.8 11.4125 9.95 11.4125 10.2V11.4H4.3125C3.9625 11.4 3.6125 11.5 3.3625 11.7L1.2625 13.25C0.9125 13.5 0.9125 14 1.2625 14.3L3.3625 15.85C3.6625 16.05 3.9625 16.15 4.3125 16.15H22.6125C23.0625 16.15 23.4125 15.8 23.4125 15.35V12.15C23.4125 11.75 23.0625 11.4 22.6125 11.4ZM14.6125 21.65V19C14.6125 18.75 14.4625 18.6 14.2125 18.6H11.8125C11.5625 18.6 11.4125 18.75 11.4125 19V21.65C9.8125 22.1 8.9125 23.05 8.6625 24.25C8.5625 24.6 8.8625 25 9.2625 25H16.8125C17.2125 25 17.5125 24.65 17.4125 24.25C17.1125 23.05 16.2125 22.1 14.6125 21.65Z" fill="#706E6B"/>
</svg>
