<svg width="26" height="26" viewBox="0 0 26 26" fill="none" xmlns="http://www.w3.org/2000/svg">
<path d="M13.2449 4.37991V1.78399C13.2449 1.53909 12.951 1.39216 12.7061 1.53909L7.66118 5.70236C7.46526 5.8493 7.46526 6.14318 7.66118 6.29011L12.7061 10.4044C12.902 10.6003 13.2449 10.4044 13.2449 10.2085V7.56358C17.1632 7.56358 20.3959 10.7473 20.3959 14.7146C20.3959 18.682 17.1632 21.8166 13.2449 21.8166C9.32648 21.8166 6.09383 18.633 6.09383 14.6656C6.09383 13.5391 6.33873 12.4615 6.82852 11.482C6.82852 11.482 6.82852 11.433 6.8775 11.384C6.97546 11.1881 7.07342 10.9432 7.17138 10.7962C7.31832 10.5513 7.46526 10.1595 7.17138 9.9146C6.8775 9.66971 5.65301 8.64114 5.55505 8.59216C5.45709 8.54318 5.11424 8.20032 4.77138 8.69011C4.57546 8.98399 4.33056 9.42481 4.13465 9.76767C4.13465 9.81665 4.08567 9.81664 4.08567 9.86562C3.98771 10.0126 3.93873 10.1595 3.88975 10.2085C3.25301 11.5309 2.91016 13.0493 2.91016 14.6656C2.91016 20.3473 7.51424 24.9513 13.1959 24.9513C18.8775 24.9513 23.4816 20.3473 23.4816 14.6656C23.4816 8.98399 18.9265 4.37991 13.2449 4.37991Z" fill="#706E6B"/>
</svg>
