<svg width="26" height="26" viewBox="0 0 26 26" fill="none" xmlns="http://www.w3.org/2000/svg">
<path d="M12.7551 4.37991V1.78399C12.7551 1.53909 13.049 1.39216 13.2938 1.53909L18.3387 5.70236C18.5347 5.8493 18.5347 6.14318 18.3387 6.29011L13.2938 10.4044C13.0979 10.6003 12.7551 10.4044 12.7551 10.2085V7.56358C8.83671 7.56358 5.60405 10.7473 5.60405 14.7146C5.60405 18.682 8.83671 21.8166 12.7551 21.8166C16.6734 21.8166 19.9061 18.633 19.9061 14.6656C19.9061 13.5391 19.6612 12.4615 19.1714 11.482C19.1714 11.482 19.1714 11.433 19.1224 11.384C19.0245 11.1881 18.9265 10.9432 18.8285 10.7962C18.6816 10.5513 18.5347 10.1595 18.8285 9.9146C19.1224 9.66971 20.3469 8.64114 20.4449 8.59216C20.5428 8.54318 20.8857 8.20032 21.2285 8.69011C21.4245 8.98399 21.6694 9.42481 21.8653 9.76767C21.8653 9.81665 21.9143 9.81664 21.9143 9.86562C22.0122 10.0126 22.0612 10.1595 22.1102 10.2085C22.7469 11.5309 23.0898 13.0493 23.0898 14.6656C23.0898 20.3473 18.4857 24.9513 12.8041 24.9513C7.12242 24.9513 2.46936 20.3962 2.46936 14.7146C2.46936 9.03297 7.07344 4.37991 12.7551 4.37991Z" fill="#706E6B"/>
</svg>
