<svg width="26" height="26" viewBox="0 0 26 26" fill="none" xmlns="http://www.w3.org/2000/svg">
<path fill-rule="evenodd" clip-rule="evenodd" d="M19.95 16.15V16.5C19.95 17 20.3 17 20.6 16.7L23.05 14.25C23.3 13.95 23.8 13.95 24.1 14.25L25.15 15.3C25.45 15.55 25.45 16.05 25.15 16.35L18.7 22.8C18.45 23.05 18.05 23.05 17.8 22.8L11.3 16.3C11.05 16 11.05 15.65 11.35 15.35L12.45 14.25C12.75 13.95 13.2 13.9 13.5 14.2L15.95 16.65C16.3 17 16.6 17.1 16.8 16.7C16.85 16.55 16.85 16.15 16.85 16.15V12.5C16.85 8.95 14 6.1 10.45 6.1C6.9 6.1 4.05 8.9 4.05 12.45V19.1C4.05 19.5 3.7 19.8 3.3 19.8H1.7C1.3 19.8 1 19.55 1 19.15V12.45C1 7.25 5.2 3 10.45 3C15.7 3 19.9 7.25 19.9 12.45L19.95 16.15Z" fill="#706E6B"/>
</svg>
