<svg width="26" height="26" viewBox="0 0 26 26" fill="none" xmlns="http://www.w3.org/2000/svg">
<path d="M8 19C9.65 19 11 20.35 11 22C11 23.65 9.65 25 8 25C6.9 25 5.9 24.4 5.4 23.5H2C1.45 23.5 1 23.05 1 22.5V21.5C1 20.95 1.45 20.5 2 20.5H5.4C5.9 19.6 6.9 19 8 19ZM13.4145 20.5424L13.5 20.55H24C24.55 20.55 25 21 25 21.55V22.55C25 23.1 24.55 23.55 24 23.55H13.5C13.2 23.55 13.05 23.3 13.1 23.05C13.1 23.05 13.25 22.55 13.25 22.05C13.25 21.55 13.1 21 13.1 21C13.05 20.7 13.2 20.5 13.5 20.55L13.4145 20.5424ZM16 10C17.65 10 19 11.35 19 13C19 14.65 17.65 16 16 16C14.9 16 13.9 15.4 13.4 14.5H2C1.45 14.5 1 14.05 1 13.5V12.5C1 11.95 1.45 11.5 2 11.5H13.4C13.9 10.6 14.9 10 16 10ZM21.5 11.55H24C24.55 11.55 25 12 25 12.55V13.55C25 14.1 24.55 14.55 24 14.55H21.5C21.2 14.55 21.05 14.3 21.1 14.05C21.1 14.05 21.25 13.55 21.25 13.05C21.25 12.55 21.1 12 21.1 12C21.05 11.7 21.25 11.5 21.5 11.55ZM10 1C11.65 1 13 2.35 13 4C13 5.65 11.65 7 10 7C8.9 7 7.9 6.4 7.4 5.5H2C1.45 5.5 1 5.05 1 4.5V3.5C1 2.95 1.45 2.5 2 2.5H7.4C7.9 1.6 8.9 1 10 1ZM15.4267 2.54235L15.5 2.55H24C24.55 2.55 25 3 25 3.55V4.55C25 5.1 24.55 5.55 24 5.55H15.5C15.2 5.55 15.05 5.3 15.1 5.05C15.1 5.05 15.25 4.55 15.25 4.05C15.25 3.55 15.1 3 15.1 3C15.05 2.7 15.25 2.5 15.5 2.55L15.4267 2.54235Z" fill="#706E6B"/>
</svg>
