<svg width="26" height="26" viewBox="0 0 26 26" fill="none" xmlns="http://www.w3.org/2000/svg">
<path fill-rule="evenodd" clip-rule="evenodd" d="M7.25 3H1.75C1.35 3 1 3.35 1 3.75V10.25C1 10.65 1.35 11 1.75 11H7.25C7.65 11 8 10.65 8 10.25V3.75C8 3.35 7.65 3 7.25 3ZM24.25 3H10.75C10.35 3 10 3.35 10 3.75V5.25C10 5.65 10.35 6 10.75 6H24.25C24.65 6 25 5.65 25 5.25V3.75C25 3.35 24.65 3 24.25 3ZM10.75 11H19.25C19.65 11 20 10.65 20 10.25V8.75C20 8.35 19.65 8 19.25 8H10.75C10.35 8 10 8.35 10 8.75V10.25C10 10.65 10.35 11 10.75 11ZM7.25 15H1.75C1.35 15 1 15.35 1 15.75V22.25C1 22.65 1.35 23 1.75 23H7.25C7.65 23 8 22.65 8 22.25V15.75C8 15.35 7.65 15 7.25 15ZM24.25 15H10.75C10.35 15 10 15.35 10 15.75V17.25C10 17.65 10.35 18 10.75 18H24.25C24.65 18 25 17.65 25 17.25V15.75C25 15.35 24.65 15 24.25 15ZM19.25 20H10.75C10.35 20 10 20.35 10 20.75V22.25C10 22.65 10.35 23 10.75 23H19.25C19.65 23 20 22.65 20 22.25V20.75C20 20.35 19.65 20 19.25 20Z" fill="#706E6B"/>
</svg>
