<svg width="26" height="26" viewBox="0 0 26 26" fill="none" xmlns="http://www.w3.org/2000/svg">
<path fill-rule="evenodd" clip-rule="evenodd" d="M20.5 16.05C19.2 16.05 18.05 16.6 17.25 17.45L9.95 13.8C10 13.55 10 13.3 10 13C10 12.75 9.95 12.45 9.95 12.2L17.25 8.55C18.05 9.45 19.25 10 20.55 10C23.05 10 25.05 8 25.05 5.5C25.05 3 23.05 1 20.55 1C18.05 1 16.05 3 16.05 5.5V5.8L8.5 9.6C7.65 8.95 6.65 8.55 5.5 8.55C3 8.55 1 10.55 1 13.05C1 15.55 3 17.55 5.5 17.55C6.65 17.55 7.65 17.15 8.45 16.45L16 20.2V20.55C16 23.05 18 25.05 20.5 25.05C23 25.05 25 23.05 25 20.55C25 18.05 23 16.05 20.5 16.05Z" fill="#706E6B"/>
</svg>
