<svg width="26" height="26" viewBox="0 0 26 26" fill="none" xmlns="http://www.w3.org/2000/svg">
<path fill-rule="evenodd" clip-rule="evenodd" d="M13.725 8.025C14.025 7.725 14.025 7.275 13.725 6.975L8.025 1.225C7.725 0.925 7.275 0.925 6.975 1.225L1.225 6.975C0.925 7.275 0.925 7.725 1.225 8.025L2.275 9.075C2.575 9.375 3.025 9.375 3.325 9.075L5.125 7.275C5.425 6.975 5.975 7.175 5.975 7.625V18.225C5.975 18.625 6.325 18.975 6.725 18.975H8.225C8.625 18.975 8.975 18.575 8.975 18.225V7.625C8.975 7.175 9.525 6.975 9.825 7.275L11.625 9.075C11.925 9.375 12.375 9.375 12.675 9.075L13.725 8.025ZM24.725 18.025L23.675 17.025C23.375 16.725 22.925 16.725 22.625 17.025L20.825 18.825C20.525 19.125 19.975 18.925 19.975 18.475V7.775C19.975 7.375 19.625 7.025 19.225 7.025H17.725C17.325 7.025 16.975 7.425 16.975 7.775V18.375C16.975 18.825 16.425 19.025 16.125 18.725L14.325 16.925C14.025 16.625 13.575 16.625 13.275 16.925L12.225 18.025C11.925 18.325 11.925 18.775 12.225 19.075L17.975 24.825C18.275 25.125 18.725 25.125 19.025 24.825L24.775 19.075C25.025 18.775 25.025 18.275 24.725 18.025Z" fill="#706E6B"/>
</svg>
