<svg width="26" height="26" viewBox="0 0 26 26" fill="none" xmlns="http://www.w3.org/2000/svg">
<path fill-rule="evenodd" clip-rule="evenodd" d="M23.35 11.3008C22.75 11.3008 22.2 11.6508 21.9 12.1008H20.1C19.65 8.55078 16.65 5.80078 12.95 5.80078C9.25 5.80078 6.25 8.55078 5.8 12.1008H4.15C3.85 11.6008 3.3 11.3008 2.7 11.3008C1.75 11.3008 1 12.0508 1 13.0008C1 13.9508 1.75 14.7008 2.7 14.7008C3.3 14.7008 3.8 14.4008 4.1 13.9008H5.85C6.3 17.4508 9.35 20.2008 13 20.2008C16.65 20.2008 19.65 17.4508 20.15 13.9008H21.95C22.25 14.3508 22.75 14.7008 23.35 14.7008C24.3 14.7008 25.05 13.9508 25.05 13.0008C25.05 12.0508 24.3 11.3008 23.35 11.3008ZM13 17.8008C10.35 17.8008 8.2 15.6508 8.2 13.0008C8.2 10.3508 10.35 8.20078 13 8.20078C15.65 8.20078 17.8 10.3508 17.8 13.0008C17.8 15.6508 15.6 17.8008 13 17.8008ZM14.65 13.0008C14.65 13.9397 13.8889 14.7008 12.95 14.7008C12.0111 14.7008 11.25 13.9397 11.25 13.0008C11.25 12.0619 12.0111 11.3008 12.95 11.3008C13.8889 11.3008 14.65 12.0619 14.65 13.0008Z" fill="#706E6B"/>
</svg>
