<svg width="26" height="26" viewBox="0 0 26 26" fill="none" xmlns="http://www.w3.org/2000/svg">
<path fill-rule="evenodd" clip-rule="evenodd" d="M22.2 25.1004H18.7V22.7004H22.2V25.1004ZM15.15 25.1004H11.65V22.7004H15.15V25.1004ZM8.15005 25.1004H4.65005V22.7004H8.15005V25.1004ZM3.45005 22.1504H1.05005V18.6504H3.45005V22.1504ZM24.95 21.3004H22.55V17.8004H24.95V21.3004ZM3.45005 15.1504H1.05005V11.6504H3.45005V15.1504ZM24.95 14.3004H22.55V10.8004H24.95V14.3004ZM3.45005 8.15039H1.05005V4.65039H3.45005V8.15039ZM24.95 7.35039H22.55V3.85039H24.95V7.35039ZM21.3 3.30039H17.8V0.900391H21.3V3.30039ZM14.3 3.30039H10.8V0.900391H14.3V3.30039ZM7.35005 3.30039H3.85005V0.900391H7.35005V3.30039Z" fill="#706E6B"/>
</svg>
