<svg width="26" height="26" viewBox="0 0 26 26" fill="none" xmlns="http://www.w3.org/2000/svg">
<path fill-rule="evenodd" clip-rule="evenodd" d="M6.05 9.05C5.95 8.55 5.9 7.95 5.9 7.35C5.9 6.7 6.05 5.95 6.35 5.25C6.65 4.5 7.1 3.8 7.75 3.2C8.35 2.6 9.2 2.05 10.15 1.65C11.15 1.25 12.3 1 13.7 1C14.95 1 16.15 1.15 17.3 1.5C18.2 1.8 19.05 2.3 19.8 3C20.1 3.3 20.1 3.8 19.75 4.1L18.4 5.35C18.1 5.6 17.65 5.65 17.35 5.35C17 5 16.6 4.7 16.15 4.45C15.45 4.1 14.65 3.9 13.7 3.9C12.85 3.9 12.1 4 11.55 4.25C11 4.5 10.5 4.75 10.15 5.15C9.8 5.55 9.55 5.9 9.4 6.3C9.25 6.7 9.2 7.1 9.2 7.4C9.2 7.95 9.3 8.4 9.45 8.8C9.6 9.15 9.35 9.5 9 9.5H6.55C6.3 9.5 6.1 9.25 6.05 9.05ZM19.95 16.5H17.45C17.1 16.5 16.85 16.85 17 17.15C17.15 17.45 17.2 17.85 17.2 18.25C17.2 18.85 17.05 19.4 16.8 19.9C16.5 20.4 16.15 20.75 15.7 21.1C15.25 21.4 14.75 21.65 14.2 21.8C13.65 21.95 13.15 22.05 12.6 22.05C11.65 22.05 10.75 21.85 9.9 21.45C9.25 21.15 8.7 20.75 8.2 20.2C7.95 19.9 7.45 19.85 7.15 20.1L5.75 21.3C5.45 21.55 5.4 22.05 5.7 22.35C6.4 23.15 7.3 23.75 8.35 24.15C9.65 24.65 11.05 24.9 12.55 24.9C13.65 24.9 14.7 24.75 15.65 24.4C16.6 24.1 17.45 23.6 18.2 23C18.9 22.4 19.5 21.65 19.9 20.75C20.3 19.85 20.55 18.9 20.55 17.8C20.55 17.4 20.55 17.15 20.5 16.8C20.4 16.7 20.2 16.5 19.95 16.5ZM24.95 11.95C24.85 11.65 24.55 11.5 24.25 11.5H1.75C1.4 11.5 1.15 11.65 1.05 11.95C1 12.05 1 12.1 1 12.2V13.7C1 14.1 1.35 14.5 1.75 14.5H24.25C24.65 14.5 25 14.1 25 13.7V12.2C25 12.1 25 12.05 24.95 11.95Z" fill="#706E6B"/>
</svg>
