<svg width="26" height="26" viewBox="0 0 26 26" fill="none" xmlns="http://www.w3.org/2000/svg">
<path fill-rule="evenodd" clip-rule="evenodd" d="M13 1C6.35 1 1 6.35 1 13C1 19.65 6.35 25 13 25C19.65 25 25 19.65 25 13C25 6.35 19.65 1 13 1ZM19.7 10L12.05 17.75C11.75 18.05 11.25 18.05 10.95 17.75L6.75 13.5C6.45 13.2 6.45 12.7 6.75 12.4L7.85 11.3C8.15 11 8.65 11 8.95 11.3L11.15 13.55C11.35 13.75 11.7 13.75 11.9 13.55L17.5 7.75C17.8 7.45 18.3 7.45 18.6 7.75L19.7 8.85C20.05 9.15 20.05 9.65 19.7 10Z" fill="#706E6B"/>
</svg>
