<svg width="26" height="26" viewBox="0 0 26 26" fill="none" xmlns="http://www.w3.org/2000/svg">
<path fill-rule="evenodd" clip-rule="evenodd" d="M24.25 1H1.75C1.35 1 1 1.35 1 1.75V4.25C1 4.65 1.35 5 1.75 5H24.25C24.65 5 25 4.65 25 4.25V1.75C25 1.35 24.65 1 24.25 1ZM10.25 7H6.75C6.35 7 6 7.35 6 7.75V9.25C6 9.65 6.35 10 6.75 10H10.25C10.65 10 11 9.65 11 9.25V7.75C11 7.35 10.65 7 10.25 7ZM17.25 7H13.75C13.35 7 13 7.35 13 7.75V9.25C13 9.65 13.35 10 13.75 10H17.25C17.65 10 18 9.65 18 9.25V7.75C18 7.35 17.65 7 17.25 7ZM24.25 7H20.75C20.35 7 20 7.35 20 7.75V9.25C20 9.65 20.35 10 20.75 10H24.25C24.65 10 25 9.65 25 9.25V7.75C25 7.35 24.65 7 24.25 7ZM10.25 17H6.75C6.35 17 6 17.35 6 17.75V19.25C6 19.65 6.35 20 6.75 20H10.25C10.65 20 11 19.65 11 19.25V17.75C11 17.35 10.65 17 10.25 17ZM17.25 17H13.75C13.35 17 13 17.35 13 17.75V19.25C13 19.65 13.35 20 13.75 20H17.25C17.65 20 18 19.65 18 19.25V17.75C18 17.35 17.65 17 17.25 17ZM24.25 17H20.75C20.35 17 20 17.35 20 17.75V19.25C20 19.65 20.35 20 20.75 20H24.25C24.65 20 25 19.65 25 19.25V17.75C25 17.35 24.65 17 24.25 17ZM24.25 22H4.75C4.35 22 4 21.65 4 21.25V17.75C4 17.35 3.65 17 3.25 17H1.75C1.35 17 1 17.35 1 17.75V24.25C1 24.65 1.35 25 1.75 25H24.25C24.65 25 25 24.65 25 24.25V22.75C25 22.35 24.65 22 24.25 22ZM24.25 12H4.75C4.35 12 4 11.65 4 11.25V7.75C4 7.35 3.65 7 3.25 7H1.75C1.35 7 1 7.35 1 7.75V14.25C1 14.65 1.35 15 1.75 15H24.25C24.65 15 25 14.65 25 14.25V12.75C25 12.35 24.65 12 24.25 12Z" fill="#706E6B"/>
</svg>
