<svg width="26" height="26" viewBox="0 0 26 26" fill="none" xmlns="http://www.w3.org/2000/svg">
<path fill-rule="evenodd" clip-rule="evenodd" d="M2.6 2H20.4C21.25 2 22 2.75 22 3.65V5.35C22 6.25 21.25 7 20.4 7H2.6C1.75 7 1 6.25 1 5.35V3.65C1 2.75 1.75 2 2.6 2ZM12.4 9C13.3936 9 14 9.75 14 10.65V12.35C14 13.25 13.3 14 12.4 14H2.6C1.7 14 1 13.25 1 12.35V10.65C1 9.75 1.7 9 2.6 9H12.4ZM19.5 13C22.5 13 25 15.45 25 18.5C25 21.55 22.5 24 19.5 24C16.5 24 14 21.5 14 18.5C14 15.5 16.45 13 19.5 13ZM23 16.95C23.15 16.85 23.15 16.55 23 16.45L22.45 15.9C22.3 15.75 22.05 15.75 21.9 15.9L18.9 19.3L17.55 17.9C17.4 17.75 17.15 17.75 17 17.9L16.4 18.45C16.25 18.55 16.25 18.8 16.4 18.95L18.35 20.85C18.5 21 18.7 21.1 18.9 21.1C19.15 21.1 19.3 21 19.45 20.85L23 16.95ZM2.6 15.5H11.9C11.55 16.45 11.4 17.3 11.4 18C11.35 18.9 11.45 19.7 11.65 20.5H2.6C1.7 20.5 1 19.75 1 18.85V17.15C1 16.25 1.7 15.5 2.6 15.5Z" fill="#706E6B"/>
</svg>
