<svg width="26" height="26" viewBox="0 0 26 26" fill="none" xmlns="http://www.w3.org/2000/svg">
<path fill-rule="evenodd" clip-rule="evenodd" d="M16.75 14L17.25 12H18.75L18.25 14H16.75ZM16.4 15.5H17.9L17.5 17H19L19.4 15.5H21V14H19.75L20.25 12H21.75V10.5H20.65L21 9H19.5L19.15 10.5H17.65L18 9H16.5L16.15 10.5H14.5V12H15.75L15.25 14H13.5V15.5H14.9L14.5 17H16L16.4 15.5ZM2 3H24C24.55 3 25 3.45 25 4V22C25 22.55 24.55 23 24 23H2C1.45 23 1 22.55 1 22V4C1 3.45 1.45 3 2 3ZM11.9 13.4C12.2 13.2 12.45 13 12.65 12.8C12.85 12.65 13 12.4 13.15 12.15C13.3 11.9 13.35 11.55 13.35 11.2C13.35 10.8 13.25 10.35 13 10C12.8 9.65 12.45 9.4 12.05 9.2C11.65 9 11.2 8.9 10.65 8.9C10.05 8.9 9.5 9 9.05 9.25C8.6 9.45 8.2 9.8 7.85 10.25L7.75 10.35L8.8 11.25L8.9 11.15C9.15 10.85 9.4 10.65 9.65 10.5C9.9 10.4 10.2 10.3 10.55 10.3C10.9 10.3 11.15 10.4 11.35 10.6C11.55 10.75 11.65 11 11.65 11.3C11.65 11.5 11.55 11.7 11.4 11.9C11.25 12.05 11 12.25 10.7 12.5C10.3 12.75 10.05 13 9.85 13.25C9.65 13.5 9.5 13.8 9.5 14.15V14.5H11.1V14.35C11.1 14.2 11.15 14.05 11.25 13.95C11.4 13.8 11.6 13.6 11.9 13.4ZM5 9V14.5H6.5V9H5ZM5.75 17.25C6.3 17.25 6.75 16.8 6.75 16.25C6.75 15.7 6.3 15.25 5.75 15.25C5.2 15.25 4.75 15.7 4.75 16.25C4.75 16.8 5.2 17.25 5.75 17.25ZM10.25 17.25C10.8 17.25 11.25 16.8 11.25 16.25C11.25 15.7 10.8 15.25 10.25 15.25C9.7 15.25 9.25 15.7 9.25 16.25C9.25 16.8 9.7 17.25 10.25 17.25Z" fill="#706E6B"/>
</svg>
