<svg width="26" height="26" viewBox="0 0 26 26" fill="none" xmlns="http://www.w3.org/2000/svg">
<path fill-rule="evenodd" clip-rule="evenodd" d="M23.95 14.25C23.95 13.85 23.6 13.5 23.2 13.5H21.45C21.05 13.5 20.75 13.8 20.75 14.2C20.75 14.3 20.75 14.45 20.7 14.55C20.55 15.2 20.3 15.8 19.95 16.4C18.55 18.85 16.1 20.2 13.5 20.2C11.5 20.2 9.6 19.4 8.2 18C7.95 17.8 7.75 17.55 7.6 17.3C7.45 16.9 7.8 16.7 8.25 16.7H11.75C12.15 16.7 12.5 16.35 12.5 15.95V14.4C12.5 14 12.2 13.7 11.8 13.7H2.65C2.3 13.7 2 14 2 14.35V23.45C2.05 23.85 2.4 24.2 2.8 24.2H4.3C4.7 24.2 5.05 23.85 5.05 23.45V19.95C5.05 19.5 5.3 19.3 5.65 19.6C5.8 19.8 5.95 19.95 6.15 20.1C8.65 22.6 12.15 23.65 15.75 22.95C17 22.7 18.2 22.2 19.25 21.5C21.85 19.8 23.5 17.2 23.95 14.35V14.25ZM2.05 10.95C2.05 11.35 2.4 11.7 2.8 11.7H4.55C4.95 11.7 5.25 11.4 5.25 11C5.25 10.9 5.25 10.75 5.3 10.65C5.45 10 5.7 9.4 6.05 8.8C7.45 6.35 9.9 5 12.5 5C14.5 5 16.4 5.8 17.8 7.2C18.05 7.4 18.25 7.65 18.4 7.9C18.55 8.3 18.2 8.5 17.75 8.5H14.25C13.85 8.5 13.5 8.85 13.5 9.25V10.8C13.5 11.2 13.8 11.5 14.2 11.5H23.35C23.7 11.5 24 11.2 24 10.85V1.75C23.95 1.35 23.6 1 23.2 1H21.7C21.3 1 20.95 1.35 20.95 1.75V5.25C20.95 5.7 20.7 5.9 20.35 5.6C20.2 5.4 20.05 5.25 19.85 5.1C17.35 2.6 13.85 1.55 10.25 2.25C9 2.5 7.8 3 6.75 3.7C4.15 5.4 2.5 8 2.05 10.85V10.95Z" fill="#706E6B"/>
</svg>
