<svg width="26" height="26" viewBox="0 0 26 26" fill="none" xmlns="http://www.w3.org/2000/svg">
<path fill-rule="evenodd" clip-rule="evenodd" d="M12.5 23.25C12.5 21.75 13.2 20.65 14.2 20V18.5C13.7 18.15 13.3 17.6 13.1 17C12.9 16.15 13.2 15.2 13.7 14.5C13.8 14.35 14 14.2 14.15 14C14.3 13.85 14.5 13.7 14.7 13.65C15.75 13.1 16.95 12.7 18.15 12.7C19.25 12.7 20.2 13.15 20.85 13.8C21.8 12.85 22.8 12.65 23.4 12.65C23.95 12.65 24.5 12.75 24.95 13V12.9C25 6.4 19.6 1 13 1C6.4 1 1 6.4 1 13C1 19.6 6.35 25 12.9 25C12.65 24.5 12.5 23.95 12.5 23.25ZM22.5 11.8H19.35C19.25 9 18.6 6.5 17.65 4.6C20.3 6.1 22.1 8.75 22.5 11.8ZM14.2 3.95C15.55 5.1 16.75 8.05 16.95 11.85H14.2V3.95ZM3.5 14.2H6.65C6.75 17.05 7.4 19.5 8.35 21.4C5.7 19.95 3.9 17.3 3.5 14.2ZM6.65 11.8H3.5C3.9 8.7 5.75 6.1 8.4 4.6C7.4 6.5 6.8 9 6.65 11.8ZM11.8 22.1C10.45 20.95 9.25 18 9.05 14.2H11.8V22.1ZM11.8 11.8H9.05C9.25 8.05 10.45 5.1 11.8 3.9V11.8ZM23.2 18C23.7 18 24.75 17.55 24.75 16.2C24.75 14.85 23.75 14.75 23.45 14.75C22.85 14.75 22.25 15.2 21.75 16.1C21.2 17 20.6 18.05 20.6 18.05H20.55C20.45 17.4 20.3 16.85 20.25 16.6C20.15 16.05 19.5 14.8 18.15 14.8C16.8 14.8 15.55 15.6 15.55 15.6C15.3 15.75 15.15 16 15.15 16.3C15.15 16.75 15.5 17.15 16 17.15C16.1 17.15 16.25 17.1 16.35 17.05C16.35 17.05 17.4 16.5 17.6 17.05C17.7 17.2 17.7 17.4 17.8 17.6C18.1 18.5 18.3 19.55 18.5 20.5L17.6 21.75C17.6 21.75 16.6 21.4 16.1 21.4C15.6 21.4 14.55 21.85 14.55 23.2C14.55 24.55 15.55 24.65 15.85 24.65C16.45 24.65 17.05 24.2 17.55 23.3C18.05 22.4 18.65 21.35 18.65 21.35C18.8 22.2 18.95 22.85 19.05 23.15C19.4 24.1 20.15 24.7 21.2 24.7C21.2 24.7 22.3 24.7 23.5 24C23.8 23.9 24 23.55 24 23.25C24 22.8 23.65 22.4 23.15 22.4C23.05 22.4 22.9 22.45 22.8 22.5C22.8 22.5 21.9 23 21.6 22.6C21.35 22.2 21.2 21.65 21.05 20.9C20.95 20.3 20.75 19.6 20.6 18.85L21.5 17.55C21.7 17.6 22.7 18 23.2 18Z" fill="#706E6B"/>
</svg>
