<svg width="40" height="40" viewBox="0 0 40 40" fill="none" xmlns="http://www.w3.org/2000/svg">
<rect width="40" height="40" rx="20" fill="#0070D2"/>
<mask id="mask0_1518_28330" style="mask-type:luminance" maskUnits="userSpaceOnUse" x="0" y="0" width="40" height="40">
<rect width="40" height="40" rx="20" fill="white"/>
</mask>
<g mask="url(#mask0_1518_28330)">
<path fill-rule="evenodd" clip-rule="evenodd" d="M8 18.1864C8 13.4398 11.6267 9.75977 16.32 9.75977H17.7067C18.1333 9.75977 18.5067 10.1331 18.5067 10.5598V12.1598C18.5067 12.5864 18.1333 12.9598 17.7067 12.9598H16.32C13.7067 12.9598 11.1467 15.5731 11.1467 18.1864V19.7331H17.7067C18.1333 19.7331 18.5067 20.1064 18.5067 20.5331V29.4398C18.5067 29.8664 18.1333 30.2398 17.7067 30.2398H8.8C8.37333 30.2398 8 29.8664 8 29.4398V18.1864ZM21.0133 18.1331C21.0133 13.4398 24.64 9.75977 29.3333 9.75977H30.6667C31.0933 9.75977 31.4667 10.1331 31.4667 10.5598V12.1598C31.4667 12.5864 31.0933 12.9598 30.6667 12.9598H29.28C26.6667 12.9598 24.1067 15.5731 24.1067 18.1864V19.7331H30.72C31.1467 19.7331 31.52 20.1064 31.52 20.5331V29.3864C31.52 29.8131 31.1467 30.1864 30.72 30.1864H21.8133C21.3867 30.1864 21.0133 29.8131 21.0133 29.3864V18.1331Z" fill="white"/>
</g>
</svg>
