<svg width="40" height="40" viewBox="0 0 40 40" fill="none" xmlns="http://www.w3.org/2000/svg">
<rect width="40" height="40" rx="20" fill="#BAAC93"/>
<mask id="mask0_1518_28332" style="mask-type:luminance" maskUnits="userSpaceOnUse" x="0" y="0" width="40" height="40">
<rect width="40" height="40" rx="20" fill="white"/>
</mask>
<g mask="url(#mask0_1518_28332)">
<path d="M27.5 14.7498H31.4C31.6 14.7498 31.75 14.4998 31.6 14.2998L27.45 10.1498C27.25 9.9998 27 10.1498 27 10.3498V14.2498C27 14.5498 27.2 14.7498 27.5 14.7498Z" fill="white"/>
<path d="M31.5 16.75H26C25.45 16.75 25 16.3 25 15.75V10.25C25 9.95 24.8 9.75 24.5 9.75H17.75C17.35 9.75 17 10.1 17 10.5V12.5C17 12.7 17.1 12.9 17.2 13.05L20 15.85C20.4 16.25 20.7 16.8 20.8 17.4C20.9 18.2 20.65 18.95 20.1 19.55L19.3 20.25C19.05 20.5 18.8 20.65 18.5 20.8C18.85 20.95 19.25 21.05 19.65 21.1C20.95 21.2 22 22.3 22 23.65V24.75C22 25.45 21.65 26.15 21.15 26.6C20.65 27.1 19.9 27.3 19.2 27.25C18.65 27.2 18.15 27.1 17.6 27C17.3 26.9 17 27.15 17 27.5V29.05C17 29.45 17.35 29.8 17.75 29.8H31.25C31.65 29.8 32 29.45 32 29.05V17.25C32 16.95 31.8 16.75 31.5 16.75Z" fill="white"/>
<path d="M20 24.6998V23.5998C20 23.2998 19.75 23.0998 19.45 23.0498C16.75 22.7998 14.5 20.4998 14.5 17.6498V17.0498C14.5 16.7498 14.9 16.5498 15.1 16.7998L17.1 18.7998C17.3 18.9998 17.65 18.9998 17.85 18.7998L18.6 18.0498C18.8 17.8498 18.8 17.4998 18.6 17.2998L13.75 12.4498C13.55 12.2498 13.2 12.2498 13 12.4498L8.15 17.2998C7.95 17.4998 7.95 17.8498 8.15 18.0498L8.9 18.7998C9.1 18.9998 9.45 19.0498 9.65 18.8498L11.75 16.8498C12 16.5998 12.45 16.7998 12.45 17.0998V18.0498C12.45 21.6498 15.6 24.9498 19.4 25.2498C19.75 25.2498 20 24.9998 20 24.6998Z" fill="white"/>
</g>
</svg>
