<svg width="40" height="40" viewBox="0 0 40 40" fill="none" xmlns="http://www.w3.org/2000/svg">
<rect width="40" height="40" rx="20" fill="#7A9AE6"/>
<mask id="mask0_1518_28334" style="mask-type:luminance" maskUnits="userSpaceOnUse" x="0" y="0" width="40" height="40">
<rect width="40" height="40" rx="20" fill="white"/>
</mask>
<g mask="url(#mask0_1518_28334)">
<path d="M20.8326 27.4449C20.4898 27.3959 20.1469 27.347 19.804 27.298C19.4612 27.249 19.1183 27.151 18.7755 27.0041C18.5796 26.9551 18.3347 27.0041 18.1877 27.151L17.9428 27.3959C16.5224 28.8163 14.2204 28.9633 12.751 27.6898C11.0857 26.2694 11.0367 23.7225 12.5551 22.2041L16.2775 18.4816C16.7673 17.9919 17.3551 17.698 17.9428 17.5021C18.7265 17.3061 19.5592 17.3551 20.2938 17.649C20.7347 17.8449 21.1755 18.0898 21.5673 18.4816C21.7632 18.6776 21.9102 18.8735 22.0571 19.1184C22.253 19.4612 22.6938 19.5102 22.9387 19.2163C23.3796 18.7755 23.9673 18.1878 24.3102 17.8449C24.5061 17.649 24.5061 17.3551 24.3592 17.1102C24.1632 16.8163 23.9183 16.5714 23.6734 16.3265C23.3306 15.9837 22.9387 15.6408 22.4979 15.3959C21.8122 14.9551 21.0285 14.6612 20.1959 14.5143C18.6775 14.2204 17.0122 14.4653 15.6408 15.2C15.102 15.4939 14.5632 15.8857 14.1224 16.3265L10.5469 19.9021C7.95099 22.498 7.75507 26.7102 10.253 29.3551C12.8489 32.1959 17.2571 32.2449 19.951 29.551L21.1755 28.3265C21.5183 28.0816 21.2734 27.4939 20.8326 27.4449Z" fill="white"/>
<path d="M29.8448 9.86143C27.1509 7.36347 22.9387 7.55939 20.3918 10.1553L19.2652 11.2329C18.9224 11.5757 19.1673 12.1635 19.6081 12.2124C20.2938 12.2614 20.9795 12.4084 21.6652 12.6043C21.8611 12.6533 22.106 12.6043 22.253 12.4573L22.4979 12.2124C23.9183 10.792 26.2203 10.6451 27.6897 11.9186C29.355 13.339 29.404 15.8859 27.8856 17.4043L24.1632 21.1267C23.6734 21.6165 23.0856 21.9104 22.4979 22.1063C21.7142 22.3022 20.8815 22.2533 20.1469 21.9594C19.706 21.7635 19.2652 21.5186 18.8734 21.1267C18.6775 20.9308 18.5305 20.7349 18.3836 20.49C18.1877 20.1471 17.7469 20.0982 17.502 20.392L16.1305 21.7635C15.9346 21.9594 15.9346 22.2533 16.0815 22.4982C16.2775 22.792 16.5224 23.0369 16.7673 23.2818C17.1101 23.6247 17.5509 23.9675 17.9428 24.2124C18.6285 24.6533 19.4122 24.9471 20.1958 25.0941C21.7142 25.388 23.3795 25.1431 24.7509 24.4084C25.2897 24.1145 25.8285 23.7227 26.2693 23.2818L29.9918 19.5594C32.7346 16.8655 32.6366 12.4573 29.8448 9.86143Z" fill="white"/>
</g>
</svg>
