<svg width="40" height="40" viewBox="0 0 40 40" fill="none" xmlns="http://www.w3.org/2000/svg">
<rect width="40" height="40" rx="20" fill="#E9696E"/>
<mask id="mask0_1518_28338" style="mask-type:luminance" maskUnits="userSpaceOnUse" x="0" y="0" width="40" height="40">
<rect width="40" height="40" rx="20" fill="white"/>
</mask>
<g mask="url(#mask0_1518_28338)">
<path fill-rule="evenodd" clip-rule="evenodd" d="M29.6 14H26.1C27.1 12.45 27 10.35 25.8 9.1C25.1 8.4 24.2 8 23.25 8C22.2 8 21.15 8.5 20.4 9.3C20.25 9.45 20.1 9.6 20 9.8C19.9 9.6 19.75 9.45 19.6 9.3C18.85 8.45 17.8 8 16.75 8C15.8 8 14.9 8.4 14.25 9.1C13 10.4 12.95 12.45 13.95 14H10.45C9.1 14 8 15.1 8 16.4V18C8 18.45 8.35 18.8 8.8 18.8H31.2C31.65 18.8 32 18.45 32 18V16.4C32 15.1 30.9 14 29.6 14ZM18.8 14C17.95 14 16.75 13.7 16.1 12.95C15.5 12.3 15.4 11.25 16 10.75C16.25 10.5 16.5 10.45 16.75 10.45C17.15 10.45 17.55 10.65 17.85 10.95C18.55 11.7 18.8 13 18.8 13.8V14ZM21.2 14C22 14 23.2 13.65 23.9 12.95C24.5 12.3 24.55 11.3 24.05 10.7C23.75 10.45 23.45 10.4 23.25 10.4C22.85 10.4 22.45 10.6 22.15 10.9C21.5 11.65 21.2 12.95 21.2 13.75V14Z" fill="white"/>
<path d="M29.6 21.2002H21.2V32.0002H28.1C29.4 32.0002 30.4 30.9502 30.4 29.7002V22.0002C30.4 21.5502 30.05 21.2002 29.6 21.2002Z" fill="white"/>
<path d="M9.59998 22.0002V29.6002C9.59998 30.9002 10.7 32.0002 12 32.0002H18.8V21.2002H10.4C9.94998 21.2002 9.59998 21.5502 9.59998 22.0002Z" fill="white"/>
</g>
</svg>
