<svg width="40" height="40" viewBox="0 0 40 40" fill="none" xmlns="http://www.w3.org/2000/svg">
<rect width="40" height="40" rx="20" fill="#50CC7A"/>
<mask id="mask0_1518_28342" style="mask-type:luminance" maskUnits="userSpaceOnUse" x="0" y="0" width="40" height="40">
<rect width="40" height="40" rx="20" fill="white"/>
</mask>
<g mask="url(#mask0_1518_28342)">
<path d="M29.4041 21.812H25.0939C23.8204 21.812 22.7428 20.7345 22.7428 19.461C22.9388 15.9835 24.5551 15.7876 24.702 13.5345C24.849 11.1835 23.3796 9.07735 21.0775 8.58756C18.0408 7.95082 15.2979 10.2529 15.2979 13.1916C15.2979 15.7876 17.0612 15.7876 17.2571 19.461C17.2571 20.7345 16.1796 21.812 14.9061 21.812H10.5959C9.32242 21.812 8.24487 22.8406 8.24487 24.1631V25.7304C8.24487 26.1712 8.58773 26.5141 9.02855 26.5141H30.9714C31.4122 26.5141 31.7551 26.1712 31.7551 25.7304V24.1631C31.7551 22.8406 30.6775 21.812 29.4041 21.812Z" fill="white"/>
<path d="M29.4531 28.8652H10.5469C10.1061 28.8652 9.81226 29.2081 9.81226 29.5999V29.6489C9.81226 30.9224 10.8898 31.9999 12.1633 31.9999H27.8857C29.1592 31.9999 30.1878 30.9224 30.1878 29.6489V29.5999C30.1878 29.2081 29.8449 28.8652 29.4531 28.8652Z" fill="white"/>
</g>
</svg>
