<svg width="48" height="48" viewBox="0 0 48 48" fill="none" xmlns="http://www.w3.org/2000/svg">
<rect width="48" height="48" rx="4" fill="#3C97DD"/>
<mask id="mask0_1518_27652" style="mask-type:luminance" maskUnits="userSpaceOnUse" x="0" y="0" width="48" height="48">
<rect width="48" height="48" rx="4" fill="white"/>
</mask>
<g mask="url(#mask0_1518_27652)">
<path fill-rule="evenodd" clip-rule="evenodd" d="M39.6623 7.50195C40.2197 7.50195 40.7213 8.00359 40.7213 8.56097V12.0167C40.7213 12.5741 40.2197 13.0757 39.6623 13.0757H8.3377C7.78033 13.0757 7.27869 12.5741 7.27869 12.0167V8.56097C7.27869 8.00359 7.78033 7.50195 8.3377 7.50195H39.6623ZM14.5803 17.2561C15.1377 17.2561 15.6393 17.7577 15.6393 18.3151V39.8856C15.6393 40.4429 15.1377 40.9446 14.5803 40.9446H8.3377C7.78033 40.9446 7.27869 40.4429 7.27869 39.8856V18.3151C7.27869 17.7577 7.78033 17.2561 8.3377 17.2561H14.5803ZM27.1213 17.2561C27.6787 17.2561 28.1803 17.7577 28.1803 18.3151V37.0987C28.1803 37.6561 27.6787 38.1577 27.1213 38.1577H20.8787C20.3213 38.1577 19.8197 37.6561 19.8197 37.0987V18.3151C19.8197 17.7577 20.3213 17.2561 20.8787 17.2561H27.1213ZM40.7213 18.3151C40.7213 17.7577 40.2197 17.2561 39.6623 17.2561H33.4197C32.8623 17.2561 32.3607 17.7577 32.3607 18.3151V34.3118C32.3607 34.8692 32.8623 35.3708 33.4197 35.3708H39.6623C40.2197 35.3708 40.7213 34.8692 40.7213 34.3118V18.3151Z" fill="white"/>
</g>
</svg>
