<svg width="40" height="40" viewBox="0 0 40 40" fill="none" xmlns="http://www.w3.org/2000/svg">
<rect width="40" height="40" rx="20" fill="#32AF5C"/>
<mask id="mask0_1518_28316" style="mask-type:luminance" maskUnits="userSpaceOnUse" x="0" y="0" width="40" height="40">
<rect width="40" height="40" rx="20" fill="white"/>
</mask>
<g mask="url(#mask0_1518_28316)">
<path d="M20.9306 26.1223H18.4816C18.0898 26.1223 17.7959 25.8284 17.7959 25.4366V24.7019C17.7959 22.6447 19.1183 20.7835 21.0775 20.0978C21.6653 19.9019 22.204 19.559 22.6449 19.0692C25.0938 16.1304 22.8408 12.6039 19.902 12.5059C18.8245 12.457 17.7959 12.8488 17.0122 13.5835C16.3755 14.1713 15.9836 14.9059 15.8857 15.7386C15.8367 16.0325 15.5428 16.2774 15.151 16.2774H12.702C12.2612 16.2774 11.9183 15.9345 11.9673 15.4937C12.1632 13.6325 12.9959 11.9672 14.3183 10.6447C15.8857 9.17533 17.8938 8.39166 20.0489 8.44064C24.1143 8.58758 27.4449 11.9182 27.5918 15.9835C27.7387 19.4121 25.6326 22.4978 22.4489 23.6733C22.0081 23.8692 21.7143 24.2121 21.7143 24.6529V25.3876C21.7143 25.8284 21.3224 26.1223 20.9306 26.1223Z" fill="white"/>
<path d="M21.7143 31.2652C21.7143 31.6571 21.3714 31.9999 20.9796 31.9999H18.5306C18.1388 31.9999 17.7959 31.6571 17.7959 31.2652V28.8162C17.7959 28.4244 18.1388 28.0815 18.5306 28.0815H20.9796C21.3714 28.0815 21.7143 28.4244 21.7143 28.8162V31.2652Z" fill="white"/>
</g>
</svg>
