<svg width="40" height="40" viewBox="0 0 40 40" fill="none" xmlns="http://www.w3.org/2000/svg">
<rect width="40" height="40" rx="20" fill="#88C651"/>
<mask id="mask0_1518_28318" style="mask-type:luminance" maskUnits="userSpaceOnUse" x="0" y="0" width="40" height="40">
<rect width="40" height="40" rx="20" fill="white"/>
</mask>
<g mask="url(#mask0_1518_28318)">
<path d="M24.5 18.5H15.5C15.2 18.5 15 18.7 15 19V20.5C15 20.8 15.2 21 15.5 21H24.5C24.8 21 25 20.8 25 20.5V19C25 18.7 24.8 18.5 24.5 18.5Z" fill="white"/>
<path d="M23.5 23H16.5C16.2 23 16 23.2 16 23.5V25C16 25.3 16.2 25.5 16.5 25.5H23.5C23.8 25.5 24 25.3 24 25V23.5C24 23.2 23.8 23 23.5 23Z" fill="white"/>
<path fill-rule="evenodd" clip-rule="evenodd" d="M29.9 13.15L25.1 8.55C24.7 8.2 24.2 8 23.7 8H20H16.3C15.8 8 15.3 8.2 14.9 8.55L10.1 13.15C9.7 13.55 9.5 14.05 9.5 14.6V30C9.5 31.1 10.4 32 11.5 32H20H28.5C29.6 32 30.5 31.1 30.5 30V14.6C30.5 14.05 30.3 13.55 29.9 13.15ZM20 9.5C21.1 9.5 22 10.4 22 11.5C22 12.6 21.1 13.5 20 13.5C18.9 13.5 18 12.6 18 11.5C18 10.4 18.9 9.5 20 9.5ZM26.75 29C27.15 29 27.5 28.65 27.5 28.25V15.75C27.5 15.35 27.15 15 26.75 15H13.25C12.85 15 12.5 15.35 12.5 15.75V28.25C12.5 28.65 12.85 29 13.25 29H20H26.75Z" fill="white"/>
</g>
</svg>
