<svg width="48" height="48" viewBox="0 0 48 48" fill="none" xmlns="http://www.w3.org/2000/svg">
<rect width="48" height="48" rx="4" fill="#8A76F0"/>
<mask id="mask0_1518_27704" style="mask-type:luminance" maskUnits="userSpaceOnUse" x="0" y="0" width="48" height="48">
<rect width="48" height="48" rx="4" fill="white"/>
</mask>
<g mask="url(#mask0_1518_27704)">
<path fill-rule="evenodd" clip-rule="evenodd" d="M32.7486 12.9587C29.3897 14.3099 27.6178 17.5747 27.4189 22.9534H32.7626C33.2271 21.1486 34.8655 19.8149 36.8154 19.8149C39.1265 19.8149 41 21.6885 41 23.9996C41 26.3107 39.1265 28.1842 36.8154 28.1842C34.8655 28.1842 33.2271 26.8506 32.7626 25.0457H27.4189C27.6178 30.4244 29.3897 33.6892 32.7486 35.0404C33.1933 33.2071 34.8453 31.8457 36.8154 31.8457C39.1265 31.8457 41 33.7192 41 36.0303C41 38.3414 39.1265 40.215 36.8154 40.215C34.9414 40.215 33.3551 38.9831 32.8221 37.285C28.0651 35.8315 25.5605 31.6687 25.3259 25.0457H22.1692C21.5915 25.0457 21.1231 24.5773 21.1231 23.9996C21.1231 23.4218 21.5915 22.9534 22.1692 22.9534H25.3259C25.5605 16.3304 28.0651 12.1676 32.8221 10.7141C33.3551 9.01602 34.9414 7.78418 36.8154 7.78418C39.1265 7.78418 41 9.6577 41 11.9688C41 14.2799 39.1265 16.1534 36.8154 16.1534C34.8453 16.1534 33.1933 14.792 32.7486 12.9587ZM36.8154 14.0611C37.9709 14.0611 38.9077 13.1243 38.9077 11.9688C38.9077 10.8132 37.9709 9.87649 36.8154 9.87649C35.6598 9.87649 34.7231 10.8132 34.7231 11.9688C34.7231 13.1243 35.6598 14.0611 36.8154 14.0611ZM38.9077 36.0303C38.9077 37.1859 37.9709 38.1226 36.8154 38.1226C35.6598 38.1226 34.7231 37.1859 34.7231 36.0303C34.7231 34.8748 35.6598 33.938 36.8154 33.938C37.9709 33.938 38.9077 34.8748 38.9077 36.0303ZM36.8154 26.0919C37.9709 26.0919 38.9077 25.1551 38.9077 23.9996C38.9077 22.844 37.9709 21.9073 36.8154 21.9073C35.6598 21.9073 34.7231 22.844 34.7231 23.9996C34.7231 25.1551 35.6598 26.0919 36.8154 26.0919ZM9.33439 33.4149H21.162C22.4848 33.4149 23.4964 32.1699 23.652 30.7693C23.5742 28.6684 21.3954 27.579 19.1388 26.5674C17.5826 25.8671 17.3491 25.2446 17.3491 24.6221C17.3491 23.9218 17.7382 23.2992 18.2829 22.8324C19.2167 21.9764 19.6835 20.8092 19.6835 19.4086C19.6835 16.8408 18.1273 14.5842 15.326 14.5842C12.5247 14.5842 10.9685 16.8408 10.9685 19.4086C10.9685 20.8092 11.4353 21.9764 12.3691 22.8324C12.836 23.2992 13.3029 23.9218 13.3029 24.6221C13.3029 25.3224 13.0694 25.8671 11.5132 26.5674C9.25658 27.579 7.07781 28.6684 7 30.7693C7 32.1699 8.01157 33.4149 9.33439 33.4149Z" fill="white"/>
</g>
</svg>
