<svg width="48" height="48" viewBox="0 0 48 48" fill="none" xmlns="http://www.w3.org/2000/svg">
<rect width="48" height="48" rx="4" fill="#7E8BE4"/>
<mask id="mask0_1518_27708" style="mask-type:luminance" maskUnits="userSpaceOnUse" x="0" y="0" width="48" height="48">
<rect width="48" height="48" rx="4" fill="white"/>
</mask>
<g mask="url(#mask0_1518_27708)">
<path fill-rule="evenodd" clip-rule="evenodd" d="M23.9659 28.2162C23.9659 25.3942 26.2779 23.1162 29.0659 23.1162C31.8539 23.1162 34.1659 25.3942 34.1659 28.2162C34.1659 31.0382 31.8879 33.3162 29.0659 33.3162C26.2439 33.3162 23.9659 31.0042 23.9659 28.2162ZM30.5959 28.5222L31.5479 27.5702C31.761 27.3876 31.5927 27.314 31.5062 27.2762C31.4961 27.2717 31.4871 27.2678 31.4799 27.2642H31.4459L30.1879 27.0942H30.0859C30.0728 27.0877 30.0585 27.0811 30.0436 27.0743C29.9812 27.0459 29.9094 27.0131 29.8819 26.9582L29.2359 25.6662C29.0999 25.3942 28.9639 25.4962 28.9299 25.5982L28.2839 26.9242C28.2499 26.9922 28.1479 27.0602 27.9779 27.0942L26.7879 27.2642C26.4139 27.3322 26.4819 27.5022 26.5839 27.6042L26.6859 27.7062L27.5359 28.5222C27.5359 28.5305 27.5441 28.5429 27.5559 28.5609C27.5923 28.6163 27.6636 28.7248 27.6379 28.9302L27.3999 30.2562C27.3999 30.3922 27.3999 30.5622 27.7059 30.3922L28.8959 29.7802C28.8959 29.7802 29.0659 29.6782 29.2359 29.7802L30.3919 30.3922C30.3919 30.3922 30.7659 30.6302 30.6979 30.2222L30.4599 28.7942C30.4599 28.7262 30.4939 28.6242 30.5959 28.5222Z" fill="white"/>
<path d="M23.626 33.2484C23.966 33.2484 24.17 32.8404 23.966 32.5684C22.878 31.3444 22.266 29.7804 22.266 28.1484C22.266 26.9924 22.64 25.7004 23.252 24.6804C23.966 23.4564 24.782 22.9464 25.428 21.9944C26.482 20.4304 26.686 18.1864 26.006 16.4864C25.326 14.7524 23.728 13.7324 21.858 13.7664C19.988 13.8004 18.458 14.9564 17.88 16.6904C17.2 18.5944 17.506 20.9064 19.036 22.3344C19.682 22.9124 20.226 23.8304 19.92 24.7144C19.852 24.8844 19.648 25.1564 19.172 25.3604C17.234 26.2104 15.262 27.2304 14.378 28.6584C14.208 28.9304 13.868 29.6104 13.834 30.5624C13.834 30.8004 13.834 31.0044 13.868 31.3104C13.868 31.4464 13.868 31.4464 13.902 31.5824C14.004 32.1604 14.344 32.6705 14.854 32.9764C15.058 33.0784 15.534 33.2484 16.452 33.2484H23.626Z" fill="white"/>
</g>
</svg>
