<svg width="48" height="48" viewBox="0 0 48 48" fill="none" xmlns="http://www.w3.org/2000/svg">
<rect width="48" height="48" rx="4" fill="#FF9A3C"/>
<mask id="mask0_1518_27367" style="mask-type:luminance" maskUnits="userSpaceOnUse" x="0" y="0" width="48" height="48">
<rect width="48" height="48" rx="4" fill="white"/>
</mask>
<g mask="url(#mask0_1518_27367)">
<path d="M30.7443 13.9115C30.7443 13.8557 30.6885 13.8557 30.6328 13.8C30.2426 13.4098 29.5738 13.4656 29.2394 13.9115L27.7344 15.3606C27.7344 15.3606 27.7344 15.3606 27.6787 15.4164C27.2885 15.8065 27.2885 16.4754 27.7344 16.8098L31.6361 20.7115C31.7476 20.8229 31.859 20.9901 31.859 21.2131C31.859 21.6033 31.5803 21.9377 31.1344 21.9377H16.3639C15.8066 21.9377 15.3607 22.3836 15.3049 22.941V25.059C15.3607 25.6164 15.8066 26.0623 16.3639 26.1737H31.1902C31.3574 26.1737 31.4689 26.2295 31.5803 26.341C31.9148 26.5639 31.9705 27.0656 31.6918 27.3442L27.7902 31.2459C27.7902 31.2459 27.7902 31.2459 27.7344 31.3016C27.3443 31.6918 27.3443 32.3606 27.7902 32.6951L29.2394 34.2C29.2394 34.2 29.2394 34.2 29.2951 34.2557C29.6853 34.6459 30.3541 34.6459 30.6885 34.2L40.1082 24.7803C40.1082 24.7803 40.1082 24.7803 40.1639 24.7246C40.5541 24.3344 40.5541 23.6656 40.1082 23.3311L30.7443 13.9115Z" fill="white"/>
<path d="M20.2098 17.8131H22.2721C22.8295 17.8131 23.3311 17.3115 23.3311 16.7541V10.0656C23.3311 8.50492 22.1049 7.27869 20.5443 7.27869H19.2066H11.8492H9.78689C8.22623 7.27869 7 8.50492 7 10.0656V37.9344C7 39.4951 8.22623 40.7213 9.78689 40.7213H11.8492H19.2066H20.5443C22.1049 40.7213 23.3311 39.4951 23.3311 37.9344V31.3574C23.3311 30.8 22.8295 30.2984 22.2721 30.2984H20.2098C19.6525 30.2984 19.1508 30.8 19.1508 31.3574V35.482C19.1508 36.0393 18.6492 36.541 18.0918 36.541H12.2393C11.682 36.541 11.1803 36.0393 11.1803 35.482V12.518C11.1803 11.9607 11.682 11.459 12.2393 11.459H18.0918C18.6492 11.459 19.1508 11.9607 19.1508 12.518V16.7541C19.1508 17.3115 19.5967 17.8131 20.2098 17.8131Z" fill="white"/>
</g>
</svg>
