<svg width="48" height="48" viewBox="0 0 48 48" fill="none" xmlns="http://www.w3.org/2000/svg">
<rect width="48" height="48" rx="4" fill="#2A739E"/>
<mask id="mask0_1518_27399" style="mask-type:luminance" maskUnits="userSpaceOnUse" x="0" y="0" width="48" height="48">
<rect width="48" height="48" rx="4" fill="white"/>
</mask>
<g mask="url(#mask0_1518_27399)">
<path d="M7.09714 32.84L13.9943 24.4857C14.1886 24.1457 14.1886 23.7571 13.9943 23.4657L7.09714 15.2085C7.04857 15.1114 7 15.0143 7 14.9171C7 14.6257 7.24286 14.4314 7.48571 14.4314H17.54C17.8314 14.4314 18.0743 14.5285 18.22 14.7714L25.4571 23.5143C25.6514 23.8057 25.6514 24.1943 25.4571 24.5343L18.2686 33.2771C18.1229 33.4714 17.8314 33.6171 17.5886 33.6171H7.53429C7.24286 33.6171 7.04857 33.4228 7.04857 33.1314C7 33.0343 7.04857 32.8885 7.09714 32.84Z" fill="white"/>
<path d="M22.4458 32.84L29.2943 24.4857C29.4886 24.1457 29.4886 23.7571 29.2943 23.4657L22.3972 15.2085C22.3486 15.1114 22.3 15.0143 22.3 14.9171C22.3 14.6257 22.5429 14.4314 22.7858 14.4314H32.84C33.1315 14.4314 33.3743 14.5285 33.52 14.7714L40.7572 23.5143C40.9515 23.8057 40.9515 24.1943 40.7572 24.5343L33.5686 33.2771C33.4229 33.4714 33.1315 33.6171 32.8886 33.6171H22.8343C22.5429 33.6171 22.3486 33.4228 22.3486 33.1314C22.3486 33.0343 22.3972 32.8885 22.4458 32.84Z" fill="white"/>
</g>
</svg>
