<svg width="48" height="48" viewBox="0 0 48 48" fill="none" xmlns="http://www.w3.org/2000/svg">
<rect width="48" height="48" rx="4" fill="#00A1DF"/>
<mask id="mask0_1518_27812" style="mask-type:luminance" maskUnits="userSpaceOnUse" x="0" y="0" width="48" height="48">
<rect width="48" height="48" rx="4" fill="white"/>
</mask>
<g mask="url(#mask0_1518_27812)">
<path d="M33.0852 22.8297C33.2524 22.8297 33.4754 22.774 33.5868 22.6625C34.0327 22.3838 34.1442 21.7707 33.8655 21.3248L30.354 15.974C30.2983 15.8625 30.2426 15.8068 30.1311 15.751C29.7409 15.4166 29.1278 15.5281 28.7934 15.9183L25.0032 20.8232L20.5442 14.1904C20.4885 14.0789 20.377 14.0232 20.2655 13.9117C19.8196 13.633 19.2065 13.7445 18.9278 14.1904L14.1344 21.3248C14.0229 21.492 13.9672 21.6592 13.9672 21.8822C13.9672 22.3838 14.4131 22.8297 14.9147 22.8297H33.0852Z" fill="white"/>
<path d="M14.636 25.9512H33.5311C34.0327 25.9512 34.4786 26.3971 34.4786 26.8987C34.4786 27.4004 34.0327 27.8463 33.5311 27.8463H14.636C14.1344 27.8463 13.6885 27.4004 13.6885 26.8987C13.6885 26.3413 14.1344 25.9512 14.636 25.9512Z" fill="white"/>
<path d="M16.5868 30.6885H31.636C32.1376 30.6885 32.5835 31.1344 32.5835 31.636C32.5835 32.1377 32.1376 32.5836 31.636 32.5836H16.5868C16.0852 32.5836 15.6393 32.1377 15.6393 31.636C15.6393 31.1344 16.0294 30.6885 16.5868 30.6885Z" fill="white"/>
<path fill-rule="evenodd" clip-rule="evenodd" d="M38.0459 14.7475C38.4918 14.1344 38.7705 13.4098 38.7705 12.5737C38.7705 10.5671 37.1541 9.00648 35.2033 9.00648C34.3672 9.00648 33.6426 9.28517 33.0295 9.73107C30.4098 8.05894 27.3443 7.05566 24 7.05566C14.7475 7.05566 7.27869 14.5245 7.27869 23.777C7.27869 27.9573 8.7836 31.7475 11.2918 34.6458C11.1246 34.9803 11.0689 35.3704 11.0689 35.7606C11.0689 37.2098 12.2393 38.3803 13.6885 38.3803C14.2459 38.3803 14.6918 38.213 15.1377 37.9344C17.7016 39.5507 20.7672 40.4983 24 40.4983C33.2525 40.4983 40.7213 33.0294 40.7213 23.777C40.7213 20.4327 39.718 17.3671 38.0459 14.7475ZM35.2033 10.8458C36.1508 10.8458 36.9311 11.6262 36.9311 12.5737C36.9311 13.5212 36.1508 14.2458 35.2033 14.2458C34.2557 14.2458 33.4754 13.5212 33.4754 12.5737C33.4754 11.6262 34.2557 10.8458 35.2033 10.8458ZM16.2525 36.3737C18.482 37.8229 21.1574 38.6032 24 38.6032C32.1377 38.6032 38.8262 31.9704 38.882 23.777C38.882 20.8786 38.0459 18.1475 36.5967 15.8622C36.1508 16.0294 35.7049 16.1409 35.259 16.1409C33.3082 16.1409 31.6918 14.5803 31.6918 12.5737C31.6918 12.0721 31.8033 11.6262 31.9705 11.236C29.6852 9.78681 26.9541 8.95075 24.0557 8.95075C15.8623 8.95075 9.22951 15.5835 9.22951 23.777C9.22951 27.3999 10.5672 30.7442 12.741 33.3081C13.0197 33.1409 13.3541 33.0852 13.7443 33.0852C15.1934 33.0852 16.3639 34.2557 16.3639 35.7048C16.3639 35.9278 16.3082 36.1507 16.2525 36.3737L16.2525 36.3737Z" fill="white"/>
</g>
</svg>
