<svg width="48" height="48" viewBox="0 0 48 48" fill="none" xmlns="http://www.w3.org/2000/svg">
<rect width="48" height="48" rx="4" fill="#54698D"/>
<mask id="mask0_1518_27397" style="mask-type:luminance" maskUnits="userSpaceOnUse" x="0" y="0" width="48" height="48">
<rect width="48" height="48" rx="4" fill="white"/>
</mask>
<g mask="url(#mask0_1518_27397)">
<path d="M19.0951 33.3082C19.4852 33.6984 20.1541 33.6984 20.5443 33.3082L29.0721 24.8361C29.518 24.4459 29.518 23.7771 29.1836 23.3869L29.0721 23.2754L20.5443 14.7476C20.1541 14.3017 19.4852 14.3017 19.0951 14.6361L18.9836 14.7476L17.423 16.3082C16.977 16.6984 16.977 17.3672 17.3115 17.7574L17.423 17.8689L20.0984 20.5443C20.377 20.823 20.377 21.3246 20.0984 21.6033C19.9869 21.7148 19.7639 21.8263 19.5967 21.8263H8.17049C7.55738 21.8263 7 22.3279 7 22.941V25.1705C7.05574 25.7836 7.55738 26.2295 8.17049 26.2853H19.7082C20.0984 26.2853 20.4328 26.6197 20.4328 27.0099C20.4328 27.1771 20.377 27.4 20.2098 27.5115L17.5344 30.1869C17.0885 30.5771 17.0885 31.2459 17.423 31.6361L17.5344 31.7476L19.0951 33.3082Z" fill="white"/>
<path d="M31.2459 27.5115L28.5705 30.1869C28.1246 30.5771 28.1246 31.2459 28.459 31.6361L28.5705 31.7476L30.1311 33.3082C30.5213 33.6984 31.1901 33.6984 31.5803 33.3082L40.1082 24.8361C40.5541 24.4459 40.5541 23.7771 40.2196 23.3869L40.1082 23.2754L31.5803 14.7476C31.1901 14.3017 30.5213 14.3017 30.1311 14.6361L30.0196 14.7476L28.459 16.3082C28.0131 16.6984 28.0131 17.3672 28.3475 17.7574L28.459 17.8689L31.1344 20.5443L34.7016 24.0558L31.2459 27.5115Z" fill="white"/>
</g>
</svg>
