<svg width="48" height="48" viewBox="0 0 48 48" fill="none" xmlns="http://www.w3.org/2000/svg">
<rect width="48" height="48" rx="4" fill="#54698D"/>
<mask id="mask0_1518_27806" style="mask-type:luminance" maskUnits="userSpaceOnUse" x="0" y="0" width="48" height="48">
<rect width="48" height="48" rx="4" fill="white"/>
</mask>
<g mask="url(#mask0_1518_27806)">
<path d="M26.8334 9.83301C23.83 9.83301 20.9967 10.7963 18.73 12.4397L20.77 14.4797C22.5267 13.3463 24.6234 12.723 26.8334 12.723C33.0667 12.723 38.1667 17.823 38.1667 24.0563C38.1667 30.2897 33.0667 35.3897 26.8334 35.3897C24.6234 35.3897 22.5267 34.7663 20.77 33.633L18.6167 35.6163C20.9967 37.203 23.7734 38.1663 26.8334 38.1663C34.6534 38.1663 41 31.8197 41 23.9997C41 16.1797 34.6534 9.83301 26.8334 9.83301Z" fill="white"/>
<path d="M26.8333 26.833C28.42 26.833 29.6667 25.5863 29.6667 23.9997C29.6667 22.413 28.42 21.1663 26.8333 21.1663C25.9267 21.1663 25.1333 21.6197 24.6233 22.2997L18.4467 16.1797C18.1067 15.783 17.54 15.783 17.2 16.0663L17.0867 16.1797L15.7833 17.483C15.3867 17.823 15.3867 18.3897 15.67 18.7297L15.7833 18.843L18.05 21.1097C18.2767 21.3363 18.2767 21.7897 18.05 22.0163C17.9367 22.1297 17.7667 22.1863 17.5967 22.1863H8.02C7.51 22.1863 7 22.6397 7 23.1497V25.0197C7.05667 25.5297 7.45333 25.9263 8.02 25.983H17.7667C18.1067 25.983 18.39 26.2663 18.39 26.6063C18.39 26.7197 18.3333 26.9463 18.22 27.0597L15.9533 29.3263C15.5567 29.6663 15.5567 30.233 15.84 30.573L15.9533 30.6863L17.2567 31.9897C17.5967 32.3297 18.1633 32.3297 18.5033 31.9897L24.68 25.8697C25.1333 26.4363 25.9267 26.833 26.8333 26.833Z" fill="white"/>
<path d="M26.8334 29.6667C26.21 29.6667 25.5867 29.5533 25.02 29.3833L22.8667 31.5367C24.0567 32.16 25.4167 32.5 26.8334 32.5C31.48 32.5 35.3334 28.6467 35.3334 24C35.3334 19.3533 31.48 15.5 26.8334 15.5C25.4167 15.5 24.0567 15.84 22.8667 16.52L24.9634 18.6733C25.53 18.4467 26.1534 18.3333 26.8334 18.3333C29.95 18.3333 32.5 20.8833 32.5 24C32.5 27.1167 29.95 29.6667 26.8334 29.6667Z" fill="white"/>
</g>
</svg>
