<svg width="48" height="48" viewBox="0 0 48 48" fill="none" xmlns="http://www.w3.org/2000/svg">
<g clip-path="url(#clip0_1518_27972)">
<mask id="mask0_1518_27972" style="mask-type:alpha" maskUnits="userSpaceOnUse" x="0" y="0" width="48" height="48">
<path d="M44 0H4C1.79086 0 0 1.79086 0 4V44C0 46.2091 1.79086 48 4 48H44C46.2091 48 48 46.2091 48 44V4C48 1.79086 46.2091 0 44 0Z" fill="white"/>
</mask>
<g mask="url(#mask0_1518_27972)">
<path d="M44 0H4C1.79086 0 0 1.79086 0 4V44C0 46.2091 1.79086 48 4 48H44C46.2091 48 48 46.2091 48 44V4C48 1.79086 46.2091 0 44 0Z" fill="#2A739E"/>
<path d="M38.7333 19.4668H9.26663C8.64071 19.4668 8.1333 19.9742 8.1333 20.6001V37.6001C8.1333 39.4779 9.65553 41.0001 11.5333 41.0001H36.4666C38.3444 41.0001 39.8666 39.4779 39.8666 37.6001V20.6001C39.8666 19.9742 39.3592 19.4668 38.7333 19.4668ZM24 38.7901C19.2743 38.7901 15.4433 34.9592 15.4433 30.2335C15.4433 25.5077 19.2743 21.6768 24 21.6768C28.7257 21.6768 32.5566 25.5077 32.5566 30.2335C32.5411 34.9527 28.7192 38.7746 24 38.7901Z" fill="white"/>
<path d="M23.9999 24.5098C20.839 24.5098 18.2766 27.0722 18.2766 30.2331C18.2766 33.394 20.839 35.9564 23.9999 35.9564C27.1609 35.9564 29.7233 33.394 29.7233 30.2331C29.7109 27.0773 27.1557 24.5222 23.9999 24.5098ZM23.9999 33.0664C22.4453 33.0421 21.1909 31.7877 21.1666 30.2331C21.1666 28.6683 22.4351 27.3998 23.9999 27.3998C25.5648 27.3998 26.8333 28.6683 26.8333 30.2331C26.809 31.7877 25.5546 33.0421 23.9999 33.0664Z" fill="white"/>
<path d="M36.4666 10.4H33.6333V9.26667C33.6333 8.01482 32.6185 7 31.3666 7C30.1148 7 29.1 8.01482 29.1 9.26667V10.4H18.9V9.26667C18.9 8.01482 17.8851 7 16.6333 7C15.3815 7 14.3666 8.01482 14.3666 9.26667V10.4H11.5333C9.65553 10.4 8.1333 11.9222 8.1333 13.8V14.9333C8.1333 15.5593 8.64071 16.0667 9.26663 16.0667H38.7333C39.3592 16.0667 39.8666 15.5593 39.8666 14.9333V13.8C39.8666 11.9222 38.3444 10.4 36.4666 10.4Z" fill="white"/>
</g>
</g>
<defs>
<clipPath id="clip0_1518_27972">
<rect width="48" height="48" fill="white"/>
</clipPath>
</defs>
</svg>
