<svg width="48" height="48" viewBox="0 0 48 48" fill="none" xmlns="http://www.w3.org/2000/svg">
<g clip-path="url(#clip0_1518_27970)">
<mask id="mask0_1518_27970" style="mask-type:alpha" maskUnits="userSpaceOnUse" x="0" y="0" width="48" height="48">
<path d="M44 0H4C1.79086 0 0 1.79086 0 4V44C0 46.2091 1.79086 48 4 48H44C46.2091 48 48 46.2091 48 44V4C48 1.79086 46.2091 0 44 0Z" fill="white"/>
</mask>
<g mask="url(#mask0_1518_27970)">
<path d="M44 0H4C1.79086 0 0 1.79086 0 4V44C0 46.2091 1.79086 48 4 48H44C46.2091 48 48 46.2091 48 44V4C48 1.79086 46.2091 0 44 0Z" fill="#EB7092"/>
<path d="M38.7333 19.4668H9.26663C8.64071 19.4668 8.1333 19.9742 8.1333 20.6001V37.6001C8.1333 39.4779 9.65553 41.0001 11.5333 41.0001H36.4666C38.3444 41.0001 39.8666 39.4779 39.8666 37.6001V20.6001C39.8666 19.9742 39.3592 19.4668 38.7333 19.4668ZM24 21.7901C25.662 21.7918 27.2865 22.2847 28.6693 23.2068L16.9733 34.9028C16.0481 33.5215 15.5549 31.896 15.5566 30.2335C15.5691 25.5755 19.342 21.8026 24 21.7901ZM24 38.6768C22.3619 38.6776 20.7598 38.1968 19.393 37.2941L31.0606 25.6265C31.9633 26.9933 32.4441 28.5954 32.4433 30.2335C32.4308 34.8914 28.6579 38.6643 24 38.6768Z" fill="white"/>
<path d="M36.4666 10.4H33.6333V9.26667C33.6333 8.01482 32.6185 7 31.3666 7C30.1148 7 29.1 8.01482 29.1 9.26667V10.4H18.9V9.26667C18.9 8.01482 17.8851 7 16.6333 7C15.3815 7 14.3666 8.01482 14.3666 9.26667V10.4H11.5333C9.65553 10.4 8.1333 11.9222 8.1333 13.8V14.9333C8.1333 15.5593 8.64071 16.0667 9.26663 16.0667H38.7333C39.3592 16.0667 39.8666 15.5593 39.8666 14.9333V13.8C39.8666 11.9222 38.3444 10.4 36.4666 10.4Z" fill="white"/>
</g>
</g>
<defs>
<clipPath id="clip0_1518_27970">
<rect width="48" height="48" fill="white"/>
</clipPath>
</defs>
</svg>
