<svg width="48" height="48" viewBox="0 0 48 48" fill="none" xmlns="http://www.w3.org/2000/svg">
<g clip-path="url(#clip0_1518_27968)">
<mask id="mask0_1518_27968" style="mask-type:alpha" maskUnits="userSpaceOnUse" x="0" y="0" width="48" height="48">
<path d="M44 0H4C1.79086 0 0 1.79086 0 4V44C0 46.2091 1.79086 48 4 48H44C46.2091 48 48 46.2091 48 44V4C48 1.79086 46.2091 0 44 0Z" fill="white"/>
</mask>
<g mask="url(#mask0_1518_27968)">
<path d="M44 0H4C1.79086 0 0 1.79086 0 4V44C0 46.2091 1.79086 48 4 48H44C46.2091 48 48 46.2091 48 44V4C48 1.79086 46.2091 0 44 0Z" fill="#EB7092"/>
<path d="M10.1127 32.8601C10.0722 33.6007 10.3354 34.3258 10.8415 34.868C11.3475 35.4102 12.0528 35.7227 12.7944 35.7334C12.7944 35.7334 28.3099 35.877 28.262 35.7334L27.9268 35.0629C27.367 34.4249 27.0455 33.6126 27.0169 32.7643C27.0548 31.9264 27.3565 31.122 27.8789 30.4657C27.935 29.596 28.3102 28.7775 28.9324 28.1672C29.5408 27.6428 30.2904 27.3096 31.0874 27.2094H31.1352C31.7733 26.6496 32.5855 26.3281 33.4338 26.2995C34.2717 26.3375 35.0762 26.6391 35.7324 27.1615C36.1413 27.2102 36.5432 27.3066 36.9296 27.4488V18.4939C36.9296 17.6319 35.9719 17.4883 35.9719 17.4883H11.0705C10.5415 17.4883 10.1127 17.9171 10.1127 18.446V32.8601Z" fill="white"/>
<path d="M32.1888 37.2168L29.6986 40.7605L29.0761 39.0844H27.4L29.555 36.1633C29.9358 36.342 30.3382 36.4708 30.7521 36.5464C30.8436 36.5819 30.9414 36.5982 31.0395 36.5943C31.1125 36.6526 31.193 36.7009 31.2789 36.7379C31.5535 36.9469 31.861 37.1088 32.1888 37.2168ZM36.2113 36.1154C35.8304 36.2942 35.428 36.4229 35.0141 36.4985C34.907 36.5378 34.7928 36.5541 34.6789 36.5464C34.6058 36.6047 34.5253 36.653 34.4395 36.69C34.1577 36.9137 33.8526 37.1064 33.5296 37.2647L36.0197 40.7605L36.6423 39.0844H38.3183L36.2113 36.1154ZM32.8592 30.5605C32.0393 30.5605 31.3747 31.2251 31.3747 32.045C31.3747 32.8648 32.0393 33.5295 32.8592 33.5295C33.679 33.5295 34.3437 32.8648 34.3437 32.045C34.3385 31.2273 33.6769 30.5657 32.8592 30.5605ZM36.9296 32.045C36.9296 32.5717 36.355 32.9548 36.2113 33.3858C36.0676 33.8168 36.1155 34.5351 35.7803 34.8703C35.4451 35.2055 34.7747 35.1097 34.2958 35.3013C33.8169 35.4928 33.4338 36.0196 32.955 36.0196C32.4761 36.0196 32.0451 35.445 31.6141 35.3013C31.1831 35.1576 30.4648 35.2055 30.1296 34.8703C29.7944 34.5351 29.8902 33.8647 29.6986 33.3858C29.5071 32.9069 28.9803 32.5238 28.9803 32.045C28.9803 31.5661 29.555 31.1351 29.6986 30.7041C29.8423 30.2731 29.7944 29.5548 30.1296 29.2196C30.4648 28.8844 31.1352 28.9802 31.6141 28.7886C32.093 28.5971 32.4761 28.0703 32.955 28.0703C33.4338 28.0703 33.8648 28.645 34.2958 28.7886C34.7268 28.9323 35.4451 28.8844 35.7803 29.2196C36.1155 29.5548 36.0197 30.2252 36.2113 30.7041C36.4028 31.183 36.9296 31.5661 36.9296 32.045ZM35.6366 32.045C35.6366 30.511 34.3931 29.2675 32.8592 29.2675C31.3252 29.2675 30.0817 30.511 30.0817 32.045C30.0659 32.7863 30.3534 33.502 30.8778 34.0264C31.4021 34.5507 32.1178 34.8383 32.8592 34.8224C33.5982 34.8302 34.3091 34.5401 34.8317 34.0175C35.3543 33.4949 35.6444 32.7839 35.6366 32.045Z" fill="white"/>
<path d="M34.0563 9.87324H31.662V8.91549C31.662 7.8576 30.8044 7 29.7465 7C28.6886 7 27.831 7.8576 27.831 8.91549V9.87324H19.2113V8.91549C19.2113 7.8576 18.3537 7 17.2958 7C16.2379 7 15.3803 7.8576 15.3803 8.91549V9.87324H12.9859C11.3991 9.87324 10.1127 11.1596 10.1127 12.7465V13.7042C10.1127 14.2332 10.5415 14.662 11.0704 14.662H35.9718C36.5008 14.662 36.9296 14.2332 36.9296 13.7042V12.7465C36.9296 11.1596 35.6432 9.87324 34.0563 9.87324Z" fill="white"/>
<path d="M22.5635 31.039C22.5635 31.7094 22.2283 32.284 21.7494 32.284H13.4649C13.0339 32.284 12.6029 31.7094 12.6029 31.039V29.7939C12.6029 29.1235 12.986 28.5488 13.4649 28.5488H21.7015C22.1325 28.5488 22.5635 29.1235 22.5635 29.7939V31.039Z" fill="white"/>
<path d="M26.8254 23.4726C26.8254 24.143 26.4423 24.7176 25.9156 24.7176H13.5607C13.0339 24.7176 12.6029 24.143 12.6029 23.4726V22.2275C12.6029 21.5571 13.0339 20.9824 13.5607 20.9824H25.9156C26.4423 20.9824 26.8733 21.5571 26.8733 22.2275V23.4726H26.8254Z" fill="white"/>
</g>
</g>
<defs>
<clipPath id="clip0_1518_27968">
<rect width="48" height="48" fill="white"/>
</clipPath>
</defs>
</svg>
