<svg width="48" height="48" viewBox="0 0 48 48" fill="none" xmlns="http://www.w3.org/2000/svg">
<rect width="48" height="48" rx="4" fill="#7E8BE4"/>
<mask id="mask0_1518_27832" style="mask-type:luminance" maskUnits="userSpaceOnUse" x="0" y="0" width="48" height="48">
<rect width="48" height="48" rx="4" fill="white"/>
</mask>
<g mask="url(#mask0_1518_27832)">
<path d="M33.3639 29.0165C32.1377 29.0165 31.1901 28.0689 31.1344 26.8427C31.1344 25.6165 32.1377 24.6689 33.3639 24.6689C34.5901 24.6689 35.5377 25.6165 35.5934 26.8427C35.5934 28.0132 34.5901 29.0165 33.3639 29.0165Z" fill="white"/>
<path d="M22.8295 29.0165C21.6033 29.0165 20.6557 28.0689 20.6 26.8427C20.6 25.6165 21.6033 24.6689 22.8295 24.6689C24.0557 24.6689 25.0033 25.6165 25.059 26.8427C25.0033 28.0132 24.0557 28.9607 22.8295 29.0165Z" fill="white"/>
<path d="M28.0689 29.0165C26.8426 29.0165 25.8951 28.0689 25.8394 26.8427C25.8394 25.6165 26.8426 24.6689 28.0689 24.6689C29.2951 24.6689 30.2426 25.6165 30.2984 26.8427C30.2984 28.0132 29.2951 29.0165 28.0689 29.0165Z" fill="white"/>
<path fill-rule="evenodd" clip-rule="evenodd" d="M12.0722 7.11152H36.3181C38.8263 7.11152 40.9443 9.06234 40.9443 11.4591V36.2066C40.8328 38.6591 38.8263 40.5541 36.3738 40.5541H29.7967C32.6394 38.0459 37.3771 32.9181 37.3771 27.4558C37.3771 22.105 33.0853 17.8132 27.7344 17.8132C22.3836 17.8132 18.0918 22.105 18.0918 27.4558C18.0918 32.8623 22.7738 38.0459 25.6164 40.5541H12.0164C9.56396 40.6099 7.5574 38.6591 7.44592 36.2066V11.4591C7.5574 9.0066 9.61969 7.05578 12.0722 7.11152ZM21.2131 16.0853C22.0492 16.0295 22.7181 15.3607 22.7738 14.5246V12.964C22.7738 12.1279 22.0492 11.4033 21.2131 11.4033H13.3541C12.5181 11.4591 11.8492 12.1279 11.7935 12.964V14.5246C11.7935 15.3607 12.5181 16.0853 13.3541 16.0853H21.2131Z" fill="white"/>
</g>
</svg>
