<svg width="48" height="48" viewBox="0 0 48 48" fill="none" xmlns="http://www.w3.org/2000/svg">
<rect width="48" height="48" rx="4" fill="#7E8BE4"/>
<mask id="mask0_1518_27836" style="mask-type:luminance" maskUnits="userSpaceOnUse" x="0" y="0" width="48" height="48">
<rect width="48" height="48" rx="4" fill="white"/>
</mask>
<g mask="url(#mask0_1518_27836)">
<path fill-rule="evenodd" clip-rule="evenodd" d="M27.3616 30.6412C25.153 30.6507 23.3434 28.8899 23.2926 26.6818C23.2997 25.6148 23.7342 24.5952 24.499 23.8511C25.2637 23.107 26.2948 22.7004 27.3616 22.7225C28.8103 22.6685 30.1727 23.4106 30.913 24.657C31.6534 25.9034 31.6534 27.4548 30.913 28.7012C30.1727 29.9475 28.8103 30.6896 27.3616 30.6357V30.6412Z" fill="white"/>
<path fill-rule="evenodd" clip-rule="evenodd" d="M35.6971 7.54819H11.8258C9.39211 7.48952 7.36351 9.39836 7.27417 11.8311V36.1685C7.35449 38.5748 9.34153 40.4766 11.749 40.4514H25.1351C22.3548 37.9727 17.6935 32.8946 17.6935 27.5424C17.6935 22.2952 21.9472 18.0416 27.1943 18.0416C32.4415 18.0416 36.6951 22.2952 36.6951 27.5424C36.6951 32.9275 32.0064 37.9617 29.2316 40.4514H35.6971C38.1067 40.4796 40.097 38.5769 40.1774 36.1685V11.8311C40.2542 9.50045 38.2142 7.54819 35.6971 7.54819ZM22.4151 14.8692C22.3866 15.6921 21.7246 16.3517 20.9016 16.3772H13.1858C12.3585 16.3574 11.6901 15.6962 11.6613 14.8692V13.3611C11.6898 12.5382 12.3518 11.8785 13.1748 11.853H20.9016C21.7246 11.8785 22.3866 12.5382 22.4151 13.3611V14.8692Z" fill="white"/>
</g>
</svg>
