<svg width="48" height="48" viewBox="0 0 48 48" fill="none" xmlns="http://www.w3.org/2000/svg">
<rect width="48" height="48" rx="4" fill="#FA975C"/>
<mask id="mask0_1518_27826" style="mask-type:luminance" maskUnits="userSpaceOnUse" x="0" y="0" width="48" height="48">
<rect width="48" height="48" rx="4" fill="white"/>
</mask>
<g mask="url(#mask0_1518_27826)">
<path d="M29.5387 24.7139H27.5097V22.301C27.5097 19.0655 25.7 16.2687 23.0677 14.8978V19.0655C23.0677 21.2591 21.3129 23.0139 19.1193 23.0139C16.9258 23.0139 15.1709 21.2591 15.1709 19.0655V14.7881C12.4839 16.2139 10.6193 19.0107 10.6193 22.2462V24.6591H8.64514C7.98708 24.6591 7.49353 25.1526 7.49353 25.8107C7.49353 26.4687 7.98708 26.9623 8.64514 26.9623H29.5387C30.1968 26.9623 30.6903 26.4687 30.6903 25.8107C30.6903 25.1526 30.1968 24.7139 29.5387 24.7139Z" fill="white"/>
<path d="M19.1742 20.6555C20.0516 20.6555 20.7645 19.9426 20.7645 19.0651V14.02C20.2162 13.9103 19.6678 13.8555 19.1194 13.8555C18.571 13.8555 18.0774 13.9103 17.5839 14.02V19.0651C17.5291 19.9426 18.242 20.6555 19.1742 20.6555Z" fill="white"/>
<path d="M19.1193 38.9709C14.2387 38.9709 10.2903 34.6387 10.2903 29.3193H12.4838C12.4838 33.4322 15.4451 36.7774 19.1193 36.7774C22.7935 36.7774 25.7548 33.4322 25.7548 29.3193H27.9483C27.8935 34.6387 23.9451 38.9709 19.1193 38.9709Z" fill="white"/>
<path d="M32.3904 13.8551C32.9936 13.8551 33.542 13.3616 33.542 12.7035V9.13897C33.1581 9.08414 32.7742 9.0293 32.3904 9.0293C32.0065 9.0293 31.6775 9.08414 31.2936 9.13897V12.7035C31.2387 13.3067 31.7871 13.8551 32.3904 13.8551Z" fill="white"/>
<path d="M32.3354 28.1133V25.9197C34.6935 25.9197 36.6677 23.7262 36.6677 21.0391H38.8613C38.8613 24.9326 35.9548 28.1133 32.3354 28.1133Z" fill="white"/>
<path d="M39.3549 16.3778H38.2581V14.952C38.2581 12.7036 36.9968 10.7294 35.1323 9.74234V12.7036C35.1323 14.2391 33.871 15.4456 32.3904 15.4456C30.8549 15.4456 29.6484 14.1843 29.6484 12.7036V9.6875C27.8387 10.6198 26.5775 12.4843 26.4678 14.6778C27.6194 15.8294 28.442 17.2004 28.9904 18.681H39.3549C40.0129 18.681 40.5065 18.1875 40.5065 17.5294C40.5065 16.8714 40.0129 16.3778 39.3549 16.3778Z" fill="white"/>
</g>
</svg>
