<svg width="48" height="48" viewBox="0 0 48 48" fill="none" xmlns="http://www.w3.org/2000/svg">
<g clip-path="url(#clip0_1518_27962)">
<mask id="mask0_1518_27962" style="mask-type:alpha" maskUnits="userSpaceOnUse" x="0" y="0" width="48" height="48">
<path d="M44 0H4C1.79086 0 0 1.79086 0 4V44C0 46.2091 1.79086 48 4 48H44C46.2091 48 48 46.2091 48 44V4C48 1.79086 46.2091 0 44 0Z" fill="white"/>
</mask>
<g mask="url(#mask0_1518_27962)">
<path d="M44 0H4C1.79086 0 0 1.79086 0 4V44C0 46.2091 1.79086 48 4 48H44C46.2091 48 48 46.2091 48 44V4C48 1.79086 46.2091 0 44 0Z" fill="#EB7092"/>
<path d="M36.4666 10.4H33.6333V9.26667C33.6333 8.01482 32.6185 7 31.3666 7C30.1148 7 29.1 8.01482 29.1 9.26667V10.4H18.9V9.26667C18.9 8.01482 17.8851 7 16.6333 7C15.3815 7 14.3666 8.01482 14.3666 9.26667V10.4H11.5333C9.65553 10.4 8.1333 11.9222 8.1333 13.8V14.9333C8.1333 15.5593 8.64071 16.0667 9.26663 16.0667H38.7333C39.3592 16.0667 39.8666 15.5593 39.8666 14.9333V13.8C39.8666 11.9222 38.3444 10.4 36.4666 10.4ZM38.7333 19.4667H9.26663C8.64071 19.4667 8.1333 19.9741 8.1333 20.6V37.6C8.1333 39.4778 9.65553 41 11.5333 41H36.4666C38.3444 41 39.8666 39.4778 39.8666 37.6V20.6C39.8666 19.9741 39.3592 19.4667 38.7333 19.4667ZM21.3366 37.6567C21.3099 37.9799 21.0376 38.2274 20.7133 38.2234H16.6333C16.31 38.1966 16.0626 37.9243 16.0666 37.6V29.61C16.0934 29.2867 16.3656 29.0393 16.69 29.0433H20.8266C21.1499 29.0701 21.3974 29.3423 21.3934 29.6667L21.3366 37.6567ZM32.6133 37.77C32.5865 38.0933 32.3143 38.3407 31.99 38.3367H24.3966C24.0734 38.3099 23.8259 38.0377 23.8299 37.7133V29.61C23.8567 29.2867 24.129 29.0393 24.4533 29.0433H32.1033C32.4266 29.0701 32.674 29.3423 32.67 29.6667L32.6133 37.77ZM32.7266 26.0967C32.6999 26.4199 32.4276 26.6674 32.1033 26.6633H16.6333C16.31 26.6366 16.0626 26.3643 16.0666 26.04V22.47C16.0934 22.1467 16.3656 21.8993 16.69 21.9033H32.1033C32.4266 21.9301 32.674 22.2023 32.67 22.5267C32.7266 22.5267 32.7266 26.0967 32.7266 26.0967Z" fill="white"/>
</g>
</g>
<defs>
<clipPath id="clip0_1518_27962">
<rect width="48" height="48" fill="white"/>
</clipPath>
</defs>
</svg>
