<svg width="48" height="48" viewBox="0 0 48 48" fill="none" xmlns="http://www.w3.org/2000/svg">
<rect width="48" height="48" rx="4" fill="#EB7092"/>
<mask id="mask0_1518_27840" style="mask-type:luminance" maskUnits="userSpaceOnUse" x="0" y="0" width="48" height="48">
<rect width="48" height="48" rx="4" fill="white"/>
</mask>
<g mask="url(#mask0_1518_27840)">
<path d="M36.4666 10.4H33.6333V9.26667C33.6333 8.02 32.6133 7 31.3666 7C30.12 7 29.1 8.02 29.1 9.26667V10.4H18.9V9.26667C18.9 8.02 17.88 7 16.6333 7C15.3866 7 14.3666 8.02 14.3666 9.26667V10.4H11.5333C9.6633 10.4 8.1333 11.93 8.1333 13.8V14.9333C8.1333 15.5567 8.6433 16.0667 9.26663 16.0667H38.7333C39.3566 16.0667 39.8666 15.5567 39.8666 14.9333V13.8C39.8666 11.93 38.3366 10.4 36.4666 10.4Z" fill="white"/>
<path fill-rule="evenodd" clip-rule="evenodd" d="M38.7333 19.4668H9.26663C8.6433 19.4668 8.1333 19.9768 8.1333 20.6001V37.6001C8.1333 39.4701 9.6633 41.0001 11.5333 41.0001H36.4666C38.3366 41.0001 39.8666 39.4701 39.8666 37.6001V20.6001C39.8666 19.9768 39.3566 19.4668 38.7333 19.4668ZM19.6366 29.6101C19.6366 29.2701 19.92 28.9868 20.26 28.9868H31.2533C31.5933 28.9868 31.8766 29.2701 31.8766 29.6101V30.8568C31.8766 31.1968 31.5933 31.4801 31.2533 31.4801H20.26C19.92 31.4801 19.6366 31.1968 19.6366 30.8568V29.6101ZM16.52 37.0901C16.86 37.0901 17.1433 36.8068 17.0866 36.4668V35.2201C17.0866 34.8801 16.8033 34.5968 16.4633 34.5968H15.2166C14.8766 34.5968 14.5933 34.8801 14.5933 35.2201V36.4668C14.5933 36.8068 14.8766 37.0901 15.2166 37.0901H16.4633H16.52ZM17.0866 30.8568C17.1433 31.1968 16.86 31.4801 16.52 31.4801H16.4633H15.2166C14.8766 31.4801 14.5933 31.1968 14.5933 30.8568V29.6101C14.5933 29.2701 14.8766 28.9868 15.2166 28.9868H16.4633C16.8033 28.9868 17.0866 29.2701 17.0866 29.6101V30.8568ZM16.52 25.8701C16.86 25.8701 17.1433 25.5868 17.0866 25.2468V24.0001C17.0866 23.6601 16.8033 23.3768 16.4633 23.3768H15.2166C14.8766 23.3768 14.5933 23.6601 14.5933 24.0001V25.2468C14.5933 25.5868 14.8766 25.8701 15.2166 25.8701H16.4633H16.52ZM33.4066 36.4668C33.4066 36.8068 33.1233 37.0901 32.7833 37.0901H20.26C19.92 37.0901 19.6366 36.8068 19.6366 36.4668V35.2201C19.6366 34.8801 19.92 34.5968 20.26 34.5968H32.7833C33.1233 34.5968 33.4066 34.8801 33.4066 35.2201V36.4668ZM32.7833 25.8701C33.1233 25.8701 33.4066 25.5868 33.4066 25.2468V24.0001C33.4066 23.6601 33.1233 23.3768 32.7833 23.3768H20.26C19.92 23.3768 19.6366 23.6601 19.6366 24.0001V25.2468C19.6366 25.5868 19.92 25.8701 20.26 25.8701H32.7833Z" fill="white"/>
</g>
</svg>
