<svg width="48" height="48" viewBox="0 0 48 48" fill="none" xmlns="http://www.w3.org/2000/svg">
<rect width="48" height="48" rx="4" fill="#8B9AE3"/>
<mask id="mask0_1518_27846" style="mask-type:luminance" maskUnits="userSpaceOnUse" x="0" y="0" width="48" height="48">
<rect width="48" height="48" rx="4" fill="white"/>
</mask>
<g mask="url(#mask0_1518_27846)">
<path fill-rule="evenodd" clip-rule="evenodd" d="M35.3333 21.11L39.47 27.23C39.7533 27.57 39.81 28.3067 39.5833 28.76C39.3566 29.2133 38.8466 29.6667 38.3366 29.6667H35.39C35.3333 31.9333 34.88 33.8033 34.54 35.1067C34.2 36.2967 33.1233 37.0333 31.8766 37.0333H31.0833C30.4033 37.0333 29.8366 37.4867 29.7233 38.1667C29.7233 38.3933 29.6666 38.62 29.61 38.8467C29.3833 40.0933 28.25 41 26.9466 41H15.7833C14.9333 41 14.1966 40.66 13.6866 39.98C13.12 39.3 12.95 38.45 13.1766 37.6C14.14 33.9167 12.5533 31.1967 10.1733 27.7967C8.8133 25.87 8.1333 23.3767 8.1333 20.6C8.1333 14.31 12.4966 8.75667 18.5033 7.39667C19.58 7.11333 20.6566 7 21.7333 7C29.2133 7 35.3333 13.12 35.3333 20.6V21.11ZM27.7966 20.6C29.1 20.6 30.0066 20.2033 30.46 19.4667C31.0837 18.4791 30.6108 17.253 30.4846 16.9258C30.4732 16.8963 30.4647 16.8741 30.46 16.86C28.9866 13.3467 25.53 11.0233 21.6766 11.0233C20.8833 11.0233 20.1466 11.1367 19.3533 11.3067C15.2166 12.27 12.1566 16.1233 12.1566 20.5433C12.1566 22.47 12.78 24 13.4033 25.3033C13.63 25.8133 14.0833 26.1533 14.5366 26.4933C15.2166 27.0033 15.8966 27.57 16.1233 28.59C16.35 29.5533 17.1433 30.2333 18.1066 30.2333H18.2766C19.41 30.2333 20.3166 29.27 20.3166 28.1367C20.3166 25.7 20.8266 20.6 27.7966 20.6Z" fill="white"/>
</g>
</svg>
