<svg width="48" height="48" viewBox="0 0 48 48" fill="none" xmlns="http://www.w3.org/2000/svg">
<rect width="48" height="48" rx="4" fill="#FA975C"/>
<mask id="mask0_1518_27850" style="mask-type:luminance" maskUnits="userSpaceOnUse" x="0" y="0" width="48" height="48">
<rect width="48" height="48" rx="4" fill="white"/>
</mask>
<g mask="url(#mask0_1518_27850)">
<path fill-rule="evenodd" clip-rule="evenodd" d="M20.622 22.2226C19.0092 22.1894 17.7257 20.8605 17.7487 19.2475C17.7717 17.6345 19.0926 16.3427 20.7056 16.3556C22.3187 16.3684 23.6188 17.6811 23.6162 19.2942C23.5951 20.9284 22.2563 22.2378 20.622 22.2226Z" fill="white"/>
<path fill-rule="evenodd" clip-rule="evenodd" d="M38.9875 27.1256L35.0007 21.203V20.7095C35.0008 13.4684 29.1516 7.5874 21.9107 7.54818C20.862 7.54045 19.8167 7.66949 18.8013 7.93205C12.9198 9.37165 8.79113 14.6544 8.81521 20.7095C8.73878 23.1775 9.42425 25.6092 10.7784 27.674C13.0707 30.9643 14.6171 33.5966 13.6684 37.1611C13.4404 37.9632 13.6253 38.8261 14.162 39.4643C14.633 40.1033 15.3865 40.4718 16.18 40.4514H26.9284C28.1698 40.4594 29.242 39.5851 29.4839 38.3675C29.5471 38.1535 29.584 37.9325 29.5936 37.7095C29.6949 37.0677 30.2546 36.5993 30.9042 36.6127H31.6775C32.8582 36.6497 33.9141 35.8825 34.2439 34.7482C34.7205 33.0314 34.993 31.2643 35.0555 29.4837H37.8907C38.4162 29.4196 38.8708 29.0874 39.0917 28.6062C39.3075 28.1265 39.2683 27.5704 38.9875 27.1256ZM28.1075 22.5356L27.5591 23.3966C27.3371 23.7114 26.9791 23.9026 26.5939 23.9121C26.4585 23.9035 26.3253 23.8739 26.1991 23.8243L24.7459 23.2759C24.1259 23.8096 23.4091 24.2192 22.6346 24.4824L22.3713 26.0782C22.2772 26.608 21.8126 26.9913 21.2746 26.983H20.1778C19.6397 26.9913 19.1751 26.608 19.081 26.0782L18.8178 24.4824C18.0733 24.264 17.3836 23.8902 16.7942 23.3856L15.2533 23.934C15.127 23.9836 14.9938 24.0132 14.8584 24.0217C14.464 24.0163 14.0999 23.8094 13.8933 23.4733L13.3449 22.5685C13.0754 22.1085 13.1879 21.5201 13.6081 21.1921L14.8859 20.1556C14.8011 19.7738 14.757 19.3841 14.7542 18.993C14.7587 18.6238 14.8029 18.2561 14.8859 17.8962L13.6355 16.805C13.2109 16.4796 13.0976 15.8876 13.3723 15.4285L13.9207 14.5237C14.1193 14.1795 14.4886 13.9697 14.8859 13.9753C15.0212 13.9838 15.1544 14.0134 15.2807 14.063L16.8217 14.6114C17.4181 14.1016 18.1043 13.7073 18.8452 13.4488L19.0646 11.9353C19.1583 11.4113 19.6301 11.0409 20.1613 11.0743H21.2581C21.7749 11.0398 22.24 11.3863 22.3549 11.8914L22.6181 13.4433C23.3552 13.6795 24.0415 14.0515 24.6417 14.5401L26.1826 13.9917C26.3089 13.9421 26.4421 13.9125 26.5775 13.904C26.9719 13.9094 27.3361 14.1163 27.5426 14.4524L28.091 15.3572C28.3643 15.8234 28.2572 16.4192 27.8388 16.7611L26.561 17.7975C26.6481 18.1789 26.6923 18.5689 26.6926 18.9601C26.6881 19.3294 26.644 19.6971 26.561 20.0569L27.8388 21.1153C28.2718 21.4544 28.3867 22.0618 28.1075 22.5356Z" fill="white"/>
</g>
</svg>
