<svg width="48" height="48" viewBox="0 0 48 48" fill="none" xmlns="http://www.w3.org/2000/svg">
<rect width="48" height="48" rx="4" fill="#88C651"/>
<mask id="mask0_1518_27852" style="mask-type:luminance" maskUnits="userSpaceOnUse" x="0" y="0" width="48" height="48">
<rect width="48" height="48" rx="4" fill="white"/>
</mask>
<g mask="url(#mask0_1518_27852)">
<path fill-rule="evenodd" clip-rule="evenodd" d="M7.43872 23.8907C7.43872 15.4455 14.7871 8.64551 24.0548 8.64551C33.2678 8.64551 40.7258 15.4455 40.7807 24.0552C40.7807 32.4455 33.3226 39.3003 24.329 39.4649C21.0936 39.4649 18.1323 38.5874 15.6097 37.2165C15.171 36.9971 14.7323 36.8874 14.4032 37.052L8.42582 39.3552C7.82259 39.4649 7.2742 38.9713 7.49356 38.4229L9.63227 32.5003C9.74195 32.0616 9.68711 31.6229 9.46775 31.2939C8.20646 29.0455 7.43872 26.5229 7.43872 23.8907ZM17.2455 26.6502L17.2457 26.6499L17.2458 26.6498C17.2856 26.5883 17.325 26.5273 17.3645 26.4681C17.5839 26.1391 17.6387 25.7003 17.6936 25.2616C17.6936 24.7132 17.5839 24.2745 17.3645 23.9455C17.1452 23.6713 16.9258 23.3971 16.5968 23.1778C16.4426 23.0853 16.2538 23.0101 16.0595 22.9328L16.0595 22.9328C15.9082 22.8726 15.7537 22.8111 15.6097 22.7391C15.3879 22.7074 15.2027 22.6391 15.0329 22.5764C14.9089 22.5307 14.7932 22.488 14.6774 22.4649L14.6028 22.4352C14.3723 22.3439 14.2232 22.2849 14.0742 22.1358C13.9645 22.081 13.9097 22.0262 13.9097 21.8068C13.9097 21.6971 13.9097 21.5874 13.9645 21.5326L14.0742 21.3681C14.129 21.2584 14.1839 21.2036 14.3484 21.2036C14.7871 21.1487 15.2807 21.2036 15.6097 21.4229C15.6318 21.4229 15.654 21.4498 15.6834 21.4854C15.7268 21.538 15.7858 21.6096 15.8839 21.6423C16.0484 21.8068 16.2129 21.8068 16.3774 21.6423L17.4194 20.6003C17.529 20.4358 17.6387 20.2165 17.4742 20.1616L17.2549 19.9971C17.1851 19.9622 17.0987 19.9107 16.9991 19.8513C16.7857 19.7241 16.5121 19.5609 16.2129 19.4487C15.3355 19.1745 14.5129 19.1745 13.6903 19.3939C13.2516 19.4487 12.9226 19.6681 12.6484 19.8874C12.3194 20.1068 12.1 20.381 11.8807 20.71C11.6613 21.0391 11.6065 21.4778 11.6065 21.9713C11.6065 22.5197 11.7161 22.9584 11.9355 23.2874C12.1548 23.5616 12.3742 23.8358 12.7032 24.0552C12.8574 24.1477 13.0463 24.2229 13.2406 24.3002L13.2406 24.3002C13.3918 24.3604 13.5463 24.4219 13.6903 24.4939C13.9122 24.5256 14.0974 24.5939 14.2671 24.6565C14.3911 24.7022 14.5068 24.7449 14.6226 24.7681C14.8968 24.8229 15.0613 24.9326 15.2258 25.0971C15.3355 25.2068 15.3903 25.2616 15.3903 25.5358C15.3903 25.5907 15.3903 25.7552 15.3355 25.81L15.1161 26.0294C15.0065 26.1391 14.9516 26.1939 14.7871 26.1939C14.4032 26.2487 14.0194 26.2487 13.6903 26.0294L13.6174 25.975C13.4335 25.8384 13.2877 25.7302 13.1419 25.5358C13.1419 25.5358 13.0323 25.3713 12.9774 25.3165C12.9226 25.2068 12.8129 25.2068 12.6484 25.3713L11.5516 26.4132C11.3871 26.5229 11.3323 26.6874 11.3871 26.7423L11.5516 26.9068C11.8807 27.3455 12.3742 27.6197 12.8678 27.8391C13.3613 28.0584 13.8548 28.1133 14.4032 28.1133C14.8419 28.1133 15.2807 28.1133 15.6097 27.9487C16.0484 27.8391 16.3774 27.6197 16.6516 27.4003C16.8764 27.2206 17.0643 26.9302 17.2455 26.6502ZM28.9355 27.4552C28.9355 27.8939 28.6065 28.1681 28.1678 28.1681H27.4548C27.0161 28.1681 26.8516 27.8939 26.8516 27.4552V23.3423C26.8516 22.9036 26.3032 22.8487 26.1387 23.1778L24.9323 26.3036C24.8774 26.5778 24.6032 26.7423 24.329 26.7423H23.8355C23.5613 26.7423 23.2871 26.5229 23.2323 26.3036L21.971 23.1778C21.8065 22.8487 21.2581 22.9036 21.2581 23.3423V27.4552C21.2581 27.8939 20.929 28.1681 20.4903 28.1681H19.7774C19.3387 28.1681 19.1742 27.8939 19.1742 27.4552V19.7778C19.1742 19.3391 19.4484 19.0649 19.7774 19.0649H21.5871C21.8613 19.0649 22.1355 19.2842 22.1903 19.5036L23.5613 23.1229C23.7258 23.3971 24.1097 23.3971 24.1645 23.1229L25.5355 19.5036C25.5903 19.2294 25.8645 19.0649 26.1387 19.0649H28.0032C28.4419 19.0649 28.771 19.3391 28.771 19.7778C28.9355 19.7778 28.9355 27.4552 28.9355 27.4552ZM36.1357 26.6652C36.167 26.6171 36.198 26.5695 36.229 26.5229C36.4484 26.1939 36.5581 25.7003 36.3936 25.481C36.3936 24.9326 36.2839 24.4939 36.0645 24.1649C35.9951 24.0954 35.9292 24.026 35.8641 23.9575C35.6722 23.7553 35.4877 23.5609 35.2419 23.3971C35.0878 23.3046 34.8989 23.2294 34.7046 23.1521C34.5534 23.0919 34.3989 23.0304 34.2548 22.9584C34.033 22.9267 33.8478 22.8584 33.6781 22.7958C33.5541 22.7501 33.4383 22.7074 33.3226 22.6842C33.2968 22.6739 33.2719 22.6641 33.248 22.6546C33.0174 22.5632 32.8684 22.5042 32.7194 22.3552C32.6097 22.3003 32.5548 22.2455 32.5548 22.0262C32.5548 21.9713 32.5548 21.8068 32.6097 21.752L32.829 21.5326C32.8839 21.4229 32.9387 21.3681 33.1032 21.3681C33.5419 21.3132 34.0355 21.3681 34.3645 21.5874C34.3867 21.5874 34.4088 21.6143 34.4382 21.6499C34.4816 21.7025 34.5407 21.7741 34.6387 21.8068C34.8032 21.9713 34.9678 21.9713 35.1323 21.8068L36.1742 20.7649C36.2839 20.6003 36.3936 20.381 36.229 20.3262L36.0097 20.1068C35.7903 19.9423 35.4065 19.6681 34.9678 19.5036C34.0903 19.2294 33.2678 19.2294 32.4452 19.4487C32.1161 19.5036 31.6774 19.7229 31.4032 19.9423C31.0742 20.1616 30.8548 20.4358 30.6355 20.7649C30.4161 21.0939 30.3613 21.5326 30.3613 22.0262C30.3613 22.5745 30.471 23.0132 30.6903 23.3423C30.9097 23.6165 31.1839 23.8907 31.5129 24.11C31.6671 24.2025 31.856 24.2777 32.0502 24.355C32.2015 24.4152 32.356 24.4767 32.5 24.5487C32.7218 24.5804 32.907 24.6487 33.0768 24.7113C33.2008 24.7571 33.3165 24.7998 33.4323 24.8229C33.7065 24.8778 33.871 24.9874 34.0355 25.152C34.1452 25.2616 34.2 25.3165 34.2 25.5907C34.2 25.6455 34.1452 25.8649 34.1452 25.8649L33.9258 26.0842C33.8842 26.1674 33.8111 26.1875 33.7065 26.2163C33.6731 26.2254 33.6365 26.2355 33.5968 26.2487C33.2678 26.3036 32.829 26.3036 32.5 26.0842C32.475 26.0655 32.4507 26.0474 32.427 26.0298C32.2431 25.8933 32.0974 25.785 31.9516 25.5907C31.9516 25.5907 31.8419 25.481 31.7871 25.3713C31.7323 25.2616 31.6226 25.2616 31.4581 25.4262L30.3613 26.4681C30.1968 26.5778 30.1419 26.7423 30.1968 26.7971L30.3613 26.9616C30.6903 27.4003 31.1839 27.6745 31.6774 27.8939C32.171 28.1133 32.6645 28.1681 33.2129 28.1681H33.2129C33.6516 28.1681 33.9807 28.1681 34.4194 28.0036C34.8581 27.8939 35.1871 27.6745 35.4613 27.4552C35.7438 27.2669 35.9454 26.9572 36.1357 26.6652Z" fill="white"/>
</g>
</svg>
