<svg width="48" height="48" viewBox="0 0 48 48" fill="none" xmlns="http://www.w3.org/2000/svg">
<rect width="48" height="48" rx="4" fill="#969492"/>
<mask id="mask0_1518_27860" style="mask-type:luminance" maskUnits="userSpaceOnUse" x="0" y="0" width="48" height="48">
<rect width="48" height="48" rx="4" fill="white"/>
</mask>
<g mask="url(#mask0_1518_27860)">
<path d="M10.3451 8.97363C11.4419 8.97363 11.9903 8.97363 13.1419 8.97363C9.85156 16.322 9.85156 21.8059 13.1419 29.1543C12.0451 29.1543 11.4967 29.1543 10.3451 29.1543C6.56123 20.7091 6.56123 17.4188 10.3451 8.97363Z" fill="white"/>
<path d="M22.4096 21.5315C22.6838 22.7928 22.8483 23.7799 23.0128 24.2186C23.2322 24.8218 23.5612 25.3154 23.9999 25.6992C25.0419 24.8767 26.358 24.4379 27.729 24.4379C28.6064 24.4379 29.429 24.6573 30.2515 24.9863C30.3612 24.8218 30.4161 24.6025 30.4161 24.3831C30.4161 23.725 29.8677 23.1767 29.2096 23.1767C28.9903 23.1767 28.8257 23.2315 28.6612 23.2863C28.6612 23.2863 27.3451 24.0541 26.9064 23.4509C26.5773 22.8476 26.3032 22.025 26.0838 20.9831C25.9193 20.1057 25.6451 19.0089 25.4806 18.0218L26.7967 16.1025C26.7967 16.1025 28.2773 16.6509 29.0451 16.6509C29.8128 16.6509 31.3483 16.0476 31.3483 14.0186C31.3483 11.9896 29.8677 11.8799 29.429 11.8799C28.5515 11.8799 27.6741 12.5379 26.9064 13.8541C26.1386 15.225 25.2612 16.7057 25.2612 16.7057H25.2064C24.987 15.7186 24.8773 14.9509 24.7677 14.6218C24.6032 13.7992 23.6161 11.9896 21.6419 11.9896C19.6128 11.9896 17.8032 13.1412 17.8032 13.1412C17.4741 13.3605 17.2548 13.7444 17.2548 14.1831C17.2548 14.8412 17.8032 15.3896 18.4612 15.3896C18.6806 15.3896 18.8451 15.3347 19.0096 15.2799C19.0096 15.2799 20.5451 14.4025 20.8741 15.2799C20.9838 15.5541 21.0386 15.8283 21.1483 16.1025C21.5322 17.4186 21.9161 18.9541 22.1903 20.3799L20.8741 22.2992C20.8741 22.2992 19.3935 21.7509 18.6257 21.7509C17.858 21.7509 16.3225 22.3541 16.3225 24.3831C16.3225 26.4121 17.8032 26.5218 18.2419 26.5218C19.1193 26.5218 19.9967 25.8638 20.7644 24.5476C21.5322 23.0121 22.4096 21.5315 22.4096 21.5315Z" fill="white"/>
<path d="M36.0644 25.9189C36.1193 25.9738 36.1193 25.9738 36.1741 25.9738C36.3935 25.9738 36.558 25.9189 36.7773 25.9189C37.4902 25.9189 38.1483 26.0286 38.7515 26.248C41.2741 19.777 40.8902 16.3222 37.5451 8.91895C36.4483 8.91895 35.8999 8.91895 34.7483 8.91895C37.5999 15.2254 37.9838 20.106 36.0644 25.9189Z" fill="white"/>
<path d="M30.416 28.4411C30.9644 27.8927 31.7321 27.5089 32.6096 27.5089C33.7612 27.5089 34.7483 28.1121 35.2967 29.0444C35.7354 28.8798 36.2838 28.7153 36.8321 28.7153C38.8612 28.7153 40.5612 30.4153 40.5612 32.3895C40.5612 34.4185 38.8612 36.0637 36.8321 36.0637C36.6128 36.0637 36.3386 36.0637 36.1192 36.0089C35.6805 36.8315 34.7483 37.3798 33.7612 37.3798C33.3225 37.3798 32.9386 37.2702 32.5547 37.1056C32.0612 38.2024 30.9644 38.9702 29.7031 38.9702C28.3321 38.9702 27.2354 38.1476 26.7967 36.996C26.6321 36.996 26.4128 37.0508 26.1934 37.0508C24.6031 37.0508 23.287 35.7895 23.287 34.1992C23.287 33.1573 23.8354 32.225 24.7128 31.7315C24.5483 31.3476 24.4386 30.9089 24.4386 30.4153C24.4386 28.6056 25.9741 27.125 27.7838 27.125C28.8257 27.125 29.8128 27.6185 30.416 28.4411Z" fill="white"/>
</g>
</svg>
