<svg width="48" height="48" viewBox="0 0 48 48" fill="none" xmlns="http://www.w3.org/2000/svg">
<rect width="48" height="48" rx="4" fill="#1539EE"/>
<mask id="mask0_1518_27866" style="mask-type:luminance" maskUnits="userSpaceOnUse" x="0" y="0" width="48" height="48">
<rect width="48" height="48" rx="4" fill="white"/>
</mask>
<g mask="url(#mask0_1518_27866)">
<path fill-rule="evenodd" clip-rule="evenodd" d="M25.059 15.4165C25.4492 15.8067 25.4492 16.4755 25.059 16.8657L23.5541 18.3149C23.1639 18.705 22.4951 18.705 22.1049 18.3149L19.5967 15.8067C19.2065 15.4165 18.4262 15.6952 18.4262 16.3083V31.0231C18.4262 31.5247 17.9246 32.0821 17.3672 32.0821H15.3049C14.7475 32.0821 14.2459 31.5804 14.2459 31.0231V16.3083C14.2459 15.6952 13.4656 15.4165 13.0754 15.8067L10.5672 18.3149C10.177 18.705 9.50819 18.705 9.11802 18.3149L7.66884 16.8657C7.27868 16.4755 7.27868 15.8067 7.66884 15.4165L15.6393 7.39028C16.0295 7.00012 16.6984 7.00012 17.0885 7.39028L25.059 15.4165ZM38.882 29.3509L40.3311 30.7444C40.777 31.0788 40.777 31.8034 40.3869 32.1936L32.4164 40.164C32.0262 40.5542 31.3574 40.5542 30.9672 40.164L22.9967 32.1936C22.6065 31.8034 22.6065 31.1345 22.9967 30.7444L24.4459 29.2395C24.8361 28.8493 25.5049 28.8493 25.8951 29.2395L28.4033 31.7477C28.7934 32.1378 29.5738 31.8591 29.5738 31.246V16.5313C29.5738 16.0296 30.0754 15.4722 30.6328 15.4722H32.6951C33.2525 15.4722 33.7541 15.9739 33.7541 16.5313V31.3575C33.7541 31.9706 34.5344 32.2493 34.9246 31.8591L37.4328 29.3509C37.8229 28.9608 38.4918 28.9608 38.882 29.3509Z" fill="white"/>
</g>
</svg>
