<svg width="48" height="48" viewBox="0 0 48 48" fill="none" xmlns="http://www.w3.org/2000/svg">
<rect width="48" height="48" rx="4" fill="#FF9A3C"/>
<mask id="mask0_1518_27870" style="mask-type:luminance" maskUnits="userSpaceOnUse" x="0" y="0" width="48" height="48">
<rect width="48" height="48" rx="4" fill="white"/>
</mask>
<g mask="url(#mask0_1518_27870)">
<path d="M24.1672 26.3402C25.46 26.3402 26.5081 25.2921 26.5081 23.9992C26.5081 22.7063 25.46 21.6582 24.1672 21.6582C22.8743 21.6582 21.8262 22.7063 21.8262 23.9992C21.8262 25.2921 22.8743 26.3402 24.1672 26.3402Z" fill="white"/>
<path fill-rule="evenodd" clip-rule="evenodd" d="M36.7081 22.8291C37.0983 22.1045 37.8786 21.6586 38.7147 21.6586C39.9967 21.6586 40.9999 22.7176 40.9999 23.9996C40.9999 25.2816 39.9409 26.3406 38.659 26.3406C37.8229 26.3406 37.0983 25.9504 36.6524 25.2816H34.1442C33.5311 30.1865 29.295 34.0324 24.2229 34.0324C19.1508 34.0324 14.9147 30.1865 14.3016 25.2258H11.8491C11.4032 25.8389 10.6786 26.2848 9.84257 26.2848C8.5606 26.2848 7.50159 25.2258 7.50159 23.9438C7.50159 22.6619 8.5606 21.6029 9.84257 21.6029C10.6786 21.6029 11.459 22.1045 11.8491 22.7734H14.2458C14.859 17.8127 19.095 13.9668 24.2229 13.9668C29.3508 13.9668 33.5868 17.8127 34.1999 22.8291H36.7081ZM17.5344 23.9996C17.5344 27.6783 20.5442 30.6881 24.2229 30.6881C27.9016 30.6881 30.9114 27.6783 30.9114 23.9996C30.9114 20.3209 27.9016 17.3111 24.2229 17.3111C20.5442 17.3111 17.5344 20.3209 17.5344 23.9996Z" fill="white"/>
</g>
</svg>
