<svg width="48" height="48" viewBox="0 0 48 48" fill="none" xmlns="http://www.w3.org/2000/svg">
<rect width="48" height="48" rx="4" fill="#54698D"/>
<mask id="mask0_1518_27874" style="mask-type:luminance" maskUnits="userSpaceOnUse" x="0" y="0" width="48" height="48">
<rect width="48" height="48" rx="4" fill="white"/>
</mask>
<g mask="url(#mask0_1518_27874)">
<path fill-rule="evenodd" clip-rule="evenodd" d="M30.5807 10.6741H35.4065V7.38379H30.5807V10.6741ZM40.3968 16.2128H37.1065V11.387H40.3968V16.2128ZM7.60327 17.3644H10.8936V12.5386H7.60327V17.3644ZM40.3968 25.8096H37.1065V20.9838H40.3968V25.8096ZM7.60327 26.9612H10.8936V22.1354H7.60327V26.9612ZM40.3968 35.4064H37.1065V30.5806H40.3968V35.4064ZM7.60327 36.558H10.8936V31.7322H7.60327V36.558ZM17.3646 40.616H12.5388V37.3257H17.3646V40.616ZM22.1355 40.616H26.9613V37.3257H22.1355V40.616ZM31.7871 40.616H36.6129V39.0257V37.3257H31.7871V40.616ZM25.8097 10.6741H20.9839V7.38379H25.8097V10.6741ZM11.442 10.6741H16.2129H16.2678V7.38379H11.442V10.6741Z" fill="white"/>
</g>
</svg>
