<svg width="48" height="48" viewBox="0 0 48 48" fill="none" xmlns="http://www.w3.org/2000/svg">
<rect width="48" height="48" rx="4" fill="#04844B"/>
<mask id="mask0_1518_27878" style="mask-type:luminance" maskUnits="userSpaceOnUse" x="0" y="0" width="48" height="48">
<rect width="48" height="48" rx="4" fill="white"/>
</mask>
<g mask="url(#mask0_1518_27878)">
<path fill-rule="evenodd" clip-rule="evenodd" d="M31.2081 25.4962H31.3101C31.4461 25.5302 31.6161 25.5982 31.6841 25.9382V30.9362V32.0922C31.6841 32.5682 31.3441 32.6362 31.2421 32.6362H30.0521C29.9501 32.6362 29.6101 32.5682 29.6101 32.0922V30.9362V27.8422C29.6101 27.5362 29.4741 27.4342 29.3381 27.4002H29.1341H25.5641C25.2241 27.4002 25.1561 27.5362 25.1221 27.6722V30.9362V32.1602C25.1221 32.2962 25.0541 32.6022 24.6461 32.6702H16.7581C16.3501 32.6022 16.2821 32.2962 16.2821 32.1602V30.9362V25.8362C16.2821 25.5302 16.5541 25.5302 16.5541 25.5302C17.3701 25.4962 18.0841 25.2242 18.7301 24.7142C18.7301 24.7142 18.9341 24.5442 19.1381 24.7142C19.1551 24.7312 19.1721 24.7397 19.1891 24.7482C19.2061 24.7567 19.2231 24.7652 19.2401 24.7822C19.8861 25.2922 20.6341 25.5302 21.4841 25.5302C22.3681 25.5302 23.1501 25.2582 23.8301 24.7142C23.8301 24.7142 24.0001 24.5442 24.2381 24.7142C24.9181 25.2242 25.6661 25.4962 26.5501 25.4962C27.4001 25.4962 28.1141 25.2582 28.7601 24.7822L28.7941 24.7482C28.8961 24.6802 29.1341 24.5782 29.3721 24.7822L29.4401 24.8502C29.9841 25.2242 30.5281 25.4282 31.2081 25.4962ZM22.8101 30.5282V30.3922V27.9442C22.8101 27.5022 22.5381 27.4002 22.4021 27.4002H18.7981C18.6621 27.4002 18.3221 27.4342 18.3221 28.0462V30.4602V30.6302C18.3561 30.8002 18.4581 30.9702 18.8321 30.9702H22.3001C22.7081 30.9702 22.8101 30.6982 22.8101 30.5282Z" fill="white"/>
<path d="M30.936 23.7961C31.854 24.0341 32.67 23.8641 33.35 23.2181C33.792 22.8101 34.064 22.3001 34.132 21.7221C34.132 21.6881 34.132 21.6541 34.132 21.6541C34.064 21.4501 33.962 21.2121 33.894 21.0761C32.874 19.2401 31.888 17.4041 30.902 15.5681C30.766 15.3301 30.494 15.3301 30.392 15.3301H17.472C17.472 15.3301 17.098 15.3301 16.962 15.5681C15.942 17.4041 14.956 19.2741 13.97 21.0761C13.902 21.2121 13.8 21.4501 13.8 21.6881C13.8 21.7221 13.8 21.7221 13.8 21.7561C13.868 22.3341 14.14 22.8441 14.582 23.2521C15.33 23.9321 16.214 24.1021 17.2 23.7621C17.744 23.5581 18.152 23.2181 18.492 22.7081C18.526 22.6741 18.56 22.6061 18.628 22.5721C18.832 22.4361 19.104 22.4701 19.274 22.7081C19.444 22.9801 19.648 23.2181 19.92 23.3881C20.634 23.9321 21.45 24.0341 22.3 23.7621C22.844 23.5921 23.286 23.2181 23.592 22.7081C23.762 22.4361 24.17 22.4021 24.374 22.7081C24.442 22.8101 24.51 22.9121 24.578 23.0141C25.02 23.5241 25.564 23.8301 26.21 23.8981C26.822 23.9661 27.4 23.8301 27.944 23.4561C28.25 23.2521 28.488 22.9801 28.658 22.7081C28.862 22.4361 29.236 22.4361 29.406 22.7081C29.746 23.2521 30.188 23.5921 30.8 23.7621L30.936 23.7961Z" fill="white"/>
</g>
</svg>
