<svg width="48" height="48" viewBox="0 0 48 48" fill="none" xmlns="http://www.w3.org/2000/svg">
<rect width="48" height="48" rx="4" fill="#4BC071"/>
<mask id="mask0_1518_27882" style="mask-type:luminance" maskUnits="userSpaceOnUse" x="0" y="0" width="48" height="48">
<rect width="48" height="48" rx="4" fill="white"/>
</mask>
<g mask="url(#mask0_1518_27882)">
<path fill-rule="evenodd" clip-rule="evenodd" d="M38.3129 18.9545H32.7742C31.5677 18.9545 30.5806 19.9416 30.5806 21.148V22.519H25.4258V11.7157C25.4258 11.3867 25.0968 11.0028 24.7129 11.0028H23.8355H23.2322H17.4193V9.68671C17.4193 8.48026 16.4322 7.49316 15.2258 7.49316H9.68708C8.48063 7.49316 7.49353 8.48026 7.49353 9.68671V15.2254C7.49353 16.4319 8.48063 17.419 9.68708 17.419H15.2258C16.4322 17.419 17.4193 16.4319 17.4193 15.2254V13.9093H22.5193V22.519H17.4193V21.2577C17.4193 20.0512 16.4322 19.0641 15.2258 19.0641H9.68708C8.48063 19.0641 7.49353 20.0512 7.49353 21.2577V26.7416C7.49353 27.948 8.48063 28.9351 9.68708 28.9351H15.2258C16.4322 28.9351 17.4193 27.948 17.4193 26.7416V25.4254H22.5193V34.0351H17.4193V32.7738C17.4193 31.5674 16.4322 30.5803 15.2258 30.5803H9.68708C8.48063 30.5803 7.49353 31.5674 7.49353 32.7738V38.3125C7.49353 39.519 8.48063 40.5061 9.68708 40.5061H15.2258C16.4322 40.5061 17.4193 39.519 17.4193 38.3125V36.9964H23.2322H23.8355H24.7129C25.0968 36.9964 25.4258 36.6125 25.4258 36.2835V25.4803H30.5806V26.6867C30.5806 27.8932 31.5677 28.8803 32.7742 28.8803H38.3129C39.5193 28.8803 40.5064 27.8932 40.5064 26.6867V21.148C40.5064 19.9416 39.5193 18.9545 38.3129 18.9545ZM15.2258 15.2254H9.68708V9.68671H15.2258V15.2254ZM15.2258 26.7416H9.68708V21.2577H15.2258V26.7416ZM15.2258 38.3125H9.68708V32.7738H15.2258V38.3125ZM38.3129 26.6867H32.7742V21.148H38.3129V26.6867Z" fill="white"/>
</g>
</svg>
