<svg width="48" height="48" viewBox="0 0 48 48" fill="none" xmlns="http://www.w3.org/2000/svg">
<rect width="48" height="48" rx="4" fill="#319FD6"/>
<mask id="mask0_1518_27403" style="mask-type:luminance" maskUnits="userSpaceOnUse" x="0" y="0" width="48" height="48">
<rect width="48" height="48" rx="4" fill="white"/>
</mask>
<g mask="url(#mask0_1518_27403)">
<path d="M9.26667 7.84998H34.2C35.4467 7.84998 36.4667 8.86998 36.4667 10.1166V12.3833C36.4667 13.63 35.4467 14.65 34.2 14.65H9.26667C8.02 14.65 7 13.63 7 12.3833V10.1166C7 8.86998 8.02 7.84998 9.26667 7.84998Z" fill="white"/>
<path d="M9.26667 18.0499H23.4333C24.68 18.0499 25.7 19.0699 25.7 20.3166V22.5833C25.7 23.8299 24.68 24.8499 23.4333 24.8499H9.26667C8.02 24.8499 7 23.8299 7 22.5833V20.3166C7 19.0699 8.02 18.0499 9.26667 18.0499Z" fill="white"/>
<path fill-rule="evenodd" clip-rule="evenodd" d="M33.01 24.2833C37.3733 24.2833 40.9433 27.8533 40.9433 32.2167C40.9433 36.58 37.3733 40.15 33.01 40.15C28.6467 40.15 25.0767 36.58 25.0767 32.2167C25.0767 27.8533 28.6467 24.2833 33.01 24.2833ZM37.4867 30.46C37.6567 30.29 37.6567 29.8933 37.4867 29.7233L36.6933 28.9867C36.4667 28.76 36.1267 28.76 35.9 28.9867L31.65 33.7467L29.7233 31.82C29.4967 31.5933 29.1567 31.5933 28.93 31.82L28.1367 32.5567C27.91 32.7267 27.91 33.0667 28.1367 33.2933L30.8567 35.9567C31.0833 36.1833 31.3667 36.2967 31.65 36.2967C31.99 36.2967 32.2167 36.1833 32.4433 35.9567L37.4867 30.46ZM22.4133 28.25H9.26667C8.02 28.25 7 29.27 7 30.5167V32.7833C7 34.03 8.02 35.05 9.26667 35.05H22.0733C21.79 33.9733 21.6767 32.84 21.7333 31.65C21.7333 30.6867 21.96 29.5533 22.4133 28.25Z" fill="white"/>
</g>
</svg>
