<svg width="48" height="48" viewBox="0 0 48 48" fill="none" xmlns="http://www.w3.org/2000/svg">
<rect width="48" height="48" rx="4" fill="#54698D"/>
<mask id="mask0_1518_27884" style="mask-type:luminance" maskUnits="userSpaceOnUse" x="0" y="0" width="48" height="48">
<rect width="48" height="48" rx="4" fill="white"/>
</mask>
<g mask="url(#mask0_1518_27884)">
<path fill-rule="evenodd" clip-rule="evenodd" d="M23.3311 38.5479C23.3311 36.4856 24.3344 34.9249 25.6721 34.0331V31.9708C24.9475 31.4692 24.3902 30.7446 24.1672 29.9085C23.8885 28.738 24.2787 27.4003 25.0033 26.4528C25.1705 26.2298 25.3934 26.0069 25.6164 25.7839C25.8393 25.561 26.118 25.3938 26.3967 25.2823C27.8459 24.502 29.518 23.9446 31.1902 23.9446C32.6951 23.9446 34.0328 24.5577 34.9803 25.4495C36.318 24.1118 37.7115 23.8331 38.5475 23.8331C39.3279 23.8331 40.0525 24.0003 40.7213 24.3347V24.2233C40.7213 15.0265 33.1967 7.50195 24 7.50195C14.8033 7.50195 7.27869 15.0823 7.27869 24.279C7.27869 33.42 14.7475 40.9446 23.8885 41.0003C23.4984 40.2757 23.3311 39.4954 23.3311 38.5479ZM37.2656 22.6069H32.8623C32.6951 18.6495 31.8033 15.1938 30.4656 12.5741C34.1443 14.6364 36.7082 18.3151 37.2656 22.6069ZM29.518 22.6069C29.2393 17.3675 27.5672 13.2429 25.6721 11.6265V22.6069H29.518ZM10.7344 25.9511H15.1377C15.3049 29.9085 16.1967 33.3642 17.5344 35.9839C13.8557 33.9216 11.2918 30.2429 10.7344 25.9511ZM10.7344 22.6069H15.1377C15.3607 18.6495 16.1967 15.1938 17.5344 12.5741C13.8557 14.6364 11.2918 18.3151 10.7344 22.6069ZM22.3279 36.9315C20.4328 35.3151 18.7607 31.1905 18.482 25.9511H22.3279V36.9315ZM18.482 22.6069H22.3279V11.6265C20.4328 13.2429 18.7607 17.3675 18.482 22.6069Z" fill="white"/>
<path d="M38.2131 31.1905C38.9377 31.1905 40.3869 30.5774 40.3869 28.6823C40.3869 26.7873 38.9935 26.6758 38.6033 26.6758C37.7672 26.6758 36.9312 27.2889 36.2066 28.5709C35.4262 29.8528 34.5902 31.302 34.5902 31.302H34.5344C34.3672 30.4102 34.2 29.6299 34.1443 29.2955C33.9771 28.5151 33.0853 26.7873 31.1902 26.7873C29.2951 26.7873 27.5672 27.902 27.5672 27.902C27.2328 28.125 27.0098 28.4594 27.0098 28.9053C27.0098 29.5184 27.5115 30.0758 28.1803 30.0758C28.3476 30.0758 28.5148 30.02 28.682 29.9643C28.682 29.9643 30.1312 29.184 30.4098 29.9643C30.5213 30.1873 30.5771 30.4659 30.6885 30.7446C31.0787 31.9709 31.4131 33.4758 31.6918 34.8135L30.4098 36.5414C30.4098 36.5414 29.0164 36.0397 28.2918 36.0397C27.5672 36.0397 26.118 36.6528 26.118 38.5479C26.118 40.443 27.5115 40.5545 27.9016 40.5545C28.7377 40.5545 29.5738 39.9414 30.2984 38.6594C31.023 37.3774 31.859 35.9282 31.859 35.9282C32.082 37.0987 32.3049 38.0463 32.4164 38.4364C32.918 39.7741 33.9771 40.6102 35.4262 40.6102C35.4262 40.6102 36.9312 40.6102 38.659 39.6069C39.1049 39.4397 39.3836 38.9938 39.3836 38.5479C39.3836 37.9348 38.882 37.3774 38.2131 37.3774C38.0459 37.3774 37.8787 37.4332 37.7115 37.4889C37.7115 37.4889 36.4295 38.2135 36.0394 37.6561C35.7049 37.0987 35.482 36.3184 35.259 35.3151C35.0918 34.4791 34.8689 33.4758 34.6459 32.4725L35.9279 30.6332C36.0951 30.6889 37.4885 31.1905 38.2131 31.1905Z" fill="white"/>
</g>
</svg>
