<svg width="48" height="48" viewBox="0 0 48 48" fill="none" xmlns="http://www.w3.org/2000/svg">
<rect width="48" height="48" rx="4" fill="#54698F"/>
<mask id="mask0_1518_27461" style="mask-type:luminance" maskUnits="userSpaceOnUse" x="0" y="0" width="48" height="48">
<rect width="48" height="48" rx="4" fill="white"/>
</mask>
<g mask="url(#mask0_1518_27461)">
<path d="M24.0557 10.7903C28.0688 10.7903 31.3016 14.0231 31.3016 18.0362V19.8755C28.9049 19.5968 26.4524 19.4854 24.0557 19.4854C21.659 19.4854 19.2065 19.5968 16.8098 19.8755V18.0362C16.8098 14.0788 20.0426 10.7903 24.0557 10.7903Z" fill="white"/>
<path d="M37.2098 31.9706L37.9344 25.6165C39.5508 25.8951 40.7771 27.2328 40.7771 28.7378C40.7771 30.5214 39.1607 31.9706 37.2098 31.9706Z" fill="white"/>
<path d="M10.8459 31.9706C8.89508 31.9706 7.27869 30.5214 7.27869 28.7378C7.27869 27.1771 8.50492 25.8951 10.1213 25.6165L10.8459 31.9706Z" fill="white"/>
<path fill-rule="evenodd" clip-rule="evenodd" d="M24.1115 20.8789C27.5114 20.8789 31.0229 21.0461 34.7016 21.4363C35.9278 21.5478 36.7639 22.6068 36.7639 23.833L35.6492 34.6461C35.5377 35.6494 34.7016 36.4855 33.6983 36.5969C30.577 36.9871 27.4 37.1543 24.1672 37.1543C20.9344 37.1543 17.7574 36.9871 14.636 36.5969C13.577 36.4855 12.7967 35.6494 12.6852 34.6461L11.5705 23.833C11.4033 22.6625 12.2951 21.5478 13.5213 21.4363C17.1442 21.0461 20.7115 20.8789 24.1115 20.8789ZM16.3639 29.1838C16.3639 30.3543 17.0328 31.2461 17.9246 31.2461C18.8164 31.2461 19.4852 30.3543 19.4852 29.1838C19.4852 28.0133 18.7606 27.1215 17.9246 27.1215C17.0885 27.1215 16.3639 28.0133 16.3639 29.1838ZM27.2328 33.5314C27.2328 33.6428 27.177 33.7543 27.1213 33.8101C27.0655 33.8658 26.9541 33.9215 26.8426 33.9215H21.3246C21.2131 33.9215 21.1016 33.8658 21.0459 33.8101C20.9901 33.7543 20.9344 33.6428 20.9344 33.5314V32.5281C20.9344 32.3051 21.1016 32.1379 21.3246 32.1379H21.436C21.659 32.1379 21.8262 32.3051 21.8262 32.5281V33.0297H26.341V32.5281C26.341 32.3051 26.5082 32.1379 26.7311 32.1379H26.8426C27.0655 32.1379 27.2328 32.3051 27.2328 32.5281V33.5314ZM28.6262 29.1838C28.6262 30.3543 29.2951 31.2461 30.1869 31.2461C31.0787 31.2461 31.7475 30.3543 31.7475 29.1838C31.7475 28.0133 31.0229 27.1215 30.1869 27.1215C29.3508 27.1215 28.6262 28.0133 28.6262 29.1838Z" fill="white"/>
</g>
</svg>
