<svg width="48" height="48" viewBox="0 0 48 48" fill="none" xmlns="http://www.w3.org/2000/svg">
<rect width="48" height="48" rx="4" fill="#5876A3"/>
<mask id="mask0_1518_27459" style="mask-type:luminance" maskUnits="userSpaceOnUse" x="0" y="0" width="48" height="48">
<rect width="48" height="48" rx="4" fill="white"/>
</mask>
<g mask="url(#mask0_1518_27459)">
<path d="M26.5226 30.0322C25.9742 30.2515 25.4258 30.416 24.7678 30.4709C20.7646 30.9096 17.4194 27.7838 17.4194 23.8902C17.4194 23.2322 17.5291 22.5741 17.6936 21.916C17.8033 21.6418 18.1323 21.587 18.2968 21.7515L22.0258 25.4805C22.3 25.7547 22.7387 25.7547 23.0678 25.4805L25.7 22.8483C25.9742 22.5741 25.9742 22.1354 25.7 21.8063L21.971 18.0773C21.8065 17.858 21.8613 17.5289 22.1355 17.4741C22.7387 17.3096 23.3968 17.1999 24.0549 17.1999C27.9484 17.1999 31.0742 20.5451 30.6355 24.5483C30.5807 25.1515 30.4162 25.6999 30.1968 26.3031L37.1065 33.2128C39.2452 30.6902 40.5065 27.4547 40.5065 23.9999C40.4516 15.4999 33.1033 8.80957 24 8.80957C14.842 8.80957 7.54843 15.5547 7.54843 23.8354C7.54843 26.4676 8.31617 28.9354 9.52262 31.1289C9.74197 31.458 9.79681 31.8967 9.68713 32.2805L7.54843 38.1483C7.32907 38.6967 7.87746 39.1902 8.42584 39.0257L14.4033 36.7773C14.7323 36.6128 15.171 36.7225 15.5549 36.9418C18.0226 38.3128 20.9839 39.1354 24.1646 39.1354C27.4549 39.0805 30.5258 38.1483 33.1033 36.6128L26.5226 30.0322Z" fill="white"/>
</g>
</svg>
