<svg width="48" height="48" viewBox="0 0 48 48" fill="none" xmlns="http://www.w3.org/2000/svg">
<rect width="48" height="48" rx="4" fill="#E9696E"/>
<mask id="mask0_1518_27339" style="mask-type:luminance" maskUnits="userSpaceOnUse" x="0" y="0" width="48" height="48">
<rect width="48" height="48" rx="4" fill="white"/>
</mask>
<g mask="url(#mask0_1518_27339)">
<path d="M11.6613 35.2419C13.5258 31.4032 16.8161 28.6613 20.6 27.2903C22.0258 26.7419 23.5064 26.4129 24.9322 26.2484H27.3451V33.7064C27.3451 34.3097 28.0032 34.6387 28.5516 34.2548L40.1774 24.5484C40.6161 24.2194 40.6161 23.4516 40.1774 23.1774L28.5516 13.6903C28.1129 13.3613 27.3451 13.6903 27.3451 14.2387V21.7516H24.9322C23.4516 21.5871 21.9161 21.2032 20.6 20.7097C16.8709 19.2839 13.5258 16.5968 11.6613 12.7581C11.4419 12.2097 10.7838 11.9903 10.2355 12.2097L8.15158 13.0871C7.54835 13.3613 7.38384 13.9645 7.71287 14.5677C9.68706 18.7355 12.8677 21.971 16.5967 24C12.8129 26.029 9.68706 29.2645 7.71287 33.4871C7.43868 34.0903 7.49352 34.6935 8.15158 34.9677L10.2355 35.8452C10.7838 36.0645 11.4419 35.7903 11.6613 35.2419Z" fill="white"/>
</g>
</svg>
