<svg width="48" height="48" viewBox="0 0 48 48" fill="none" xmlns="http://www.w3.org/2000/svg">
<rect width="48" height="48" rx="4" fill="#04844B"/>
<mask id="mask0_1518_27467" style="mask-type:luminance" maskUnits="userSpaceOnUse" x="0" y="0" width="48" height="48">
<rect width="48" height="48" rx="4" fill="white"/>
</mask>
<g mask="url(#mask0_1518_27467)">
<path d="M31.2533 33.6332H38.7899C39.0166 33.6332 39.2433 33.4632 39.2433 33.2365L40.6033 28.3632C40.7166 28.0232 40.4333 27.7399 40.1499 27.7399H32.1599H28.5333L28.3633 27.0032C28.2499 26.6632 27.9666 26.4365 27.6266 26.4365H26.3799C25.9833 26.4365 25.5866 26.7765 25.5866 27.1732C25.5299 27.6265 25.9266 27.9665 26.3233 27.9665H27.0599L27.7399 30.2332L29.4399 36.0699C29.5533 36.4099 29.8366 36.6365 30.1766 36.6365H39.0166C39.4133 36.6365 39.8099 36.2965 39.8099 35.8999C39.8666 35.4465 39.4699 35.1065 39.0733 35.1065H31.2533C30.9133 35.1065 30.6299 34.8799 30.5166 34.5965V34.5399C30.4033 34.0865 30.7433 33.6332 31.2533 33.6332Z" fill="white"/>
<path d="M31.4233 40.7165C32.1118 40.7165 32.67 40.1583 32.67 39.4698C32.67 38.7813 32.1118 38.2231 31.4233 38.2231C30.7348 38.2231 30.1766 38.7813 30.1766 39.4698C30.1766 40.1583 30.7348 40.7165 31.4233 40.7165Z" fill="white"/>
<path d="M37.5433 40.7165C38.2318 40.7165 38.79 40.1583 38.79 39.4698C38.79 38.7813 38.2318 38.2231 37.5433 38.2231C36.8548 38.2231 36.2966 38.7813 36.2966 39.4698C36.2966 40.1583 36.8548 40.7165 37.5433 40.7165Z" fill="white"/>
<path fill-rule="evenodd" clip-rule="evenodd" d="M30.8566 7.79321H8.75663C7.50997 7.79321 7.33997 9.09655 7.33997 9.20988V37.2599C7.39663 37.9965 7.84997 39.1299 9.8333 39.1299H25.87C27.6833 39.1299 27.57 37.9399 27.4566 37.4865L27.4 37.3165L27.23 36.6932L27.1166 36.3532L25.36 30.5165C25.2466 30.1199 24.7933 29.9499 24.7933 29.9499C24.51 29.7799 24.2266 29.6099 24.0566 29.3832C23.49 28.7599 23.2066 27.9099 23.2633 27.1165C23.3766 25.5299 24.7366 24.2832 26.3233 24.2832H27.57C28.42 24.2832 29.1566 24.6232 29.7233 25.1899L29.78 25.2465C29.8933 25.3599 30.12 25.5299 30.46 25.5299H31.2533C31.9043 25.5299 32.0242 24.9104 32.0825 24.6099L32.0825 24.6098L32.0825 24.6095L32.0825 24.6095L32.0825 24.6094C32.0902 24.57 32.0967 24.5361 32.1033 24.5099L32.16 18.5599V9.54988C32.2166 8.18988 31.2533 7.79321 30.8566 7.79321ZM14.5933 34.5399C14.5933 35.2765 14.0266 35.8432 13.29 35.8432H11.9866C11.25 35.8432 10.6833 35.2765 10.6833 34.5399V33.2365C10.6833 32.4999 11.25 31.9332 11.9866 31.9332H13.29C14.0266 31.9332 14.5933 32.4999 14.5933 33.2365V34.5399ZM13.29 29.0999C14.0266 29.0999 14.5933 28.5332 14.5933 27.7965V26.4932C14.5933 25.7565 14.0266 25.1899 13.29 25.1899H11.9866C11.25 25.1899 10.6833 25.7565 10.6833 26.4932V27.7965C10.6833 28.5332 11.25 29.0999 11.9866 29.0999H13.29ZM14.5933 21.1665C14.5933 21.9032 14.0266 22.4699 13.29 22.4699H11.9866C11.25 22.4699 10.6833 21.9032 10.6833 21.1665V19.8632C10.6833 19.1265 11.25 18.5599 11.9866 18.5599H13.29C14.0266 18.5599 14.5933 19.1265 14.5933 19.8632V21.1665ZM13.29 15.7832C14.0266 15.7832 14.5933 15.2165 14.5933 14.4799V13.1765C14.5933 12.4399 14.0266 11.8732 13.29 11.8732H11.9866C11.25 11.8732 10.6833 12.4399 10.6833 13.1765V14.4799C10.6833 15.2165 11.25 15.7832 11.9866 15.7832H13.29ZM21.79 34.5399C21.79 35.2765 21.2233 35.8432 20.4866 35.8432H19.1833C18.4466 35.8432 17.88 35.2765 17.88 34.5399V33.2365C17.88 32.4999 18.4466 31.9332 19.1833 31.9332H20.4866C21.2233 31.9332 21.79 32.4999 21.79 33.2365V34.5399ZM20.4866 29.0999C21.2233 29.0999 21.79 28.5332 21.79 27.7965V26.4932C21.79 25.7565 21.2233 25.1899 20.4866 25.1899H19.1833C18.4466 25.1899 17.88 25.7565 17.88 26.4932V27.7965C17.88 28.5332 18.4466 29.0999 19.1833 29.0999H20.4866ZM21.79 21.1665C21.79 21.9032 21.2233 22.4699 20.4866 22.4699H19.1833C18.4466 22.4699 17.88 21.9032 17.88 21.1665V19.8632C17.88 19.1265 18.4466 18.5599 19.1833 18.5599H20.4866C21.2233 18.5599 21.79 19.1265 21.79 19.8632V21.1665ZM20.4866 15.7832C21.2233 15.7832 21.79 15.2165 21.79 14.4799V13.1765C21.79 12.4399 21.2233 11.8732 20.4866 11.8732H19.1833C18.4466 11.8732 17.88 12.4399 17.88 13.1765V14.4799C17.88 15.2165 18.4466 15.7832 19.1833 15.7832H20.4866ZM28.9866 21.1665C28.9866 21.9032 28.42 22.4699 27.6833 22.4699H26.38C25.6433 22.4699 25.0766 21.9032 25.0766 21.1665V19.8632C25.0766 19.1265 25.6433 18.5599 26.38 18.5599H27.6833C28.42 18.5599 28.9866 19.1265 28.9866 19.8632V21.1665ZM27.6833 15.7832C28.42 15.7832 28.9866 15.2165 28.9866 14.4799V13.1765C28.9866 12.4399 28.42 11.8732 27.6833 11.8732H26.38C25.6433 11.8732 25.0766 12.4399 25.0766 13.1765V14.4799C25.0766 15.2165 25.6433 15.7832 26.38 15.7832H27.6833Z" fill="white"/>
</g>
</svg>
