<svg width="48" height="48" viewBox="0 0 48 48" fill="none" xmlns="http://www.w3.org/2000/svg">
<rect width="48" height="48" rx="4" fill="#04844B"/>
<mask id="mask0_1518_27469" style="mask-type:luminance" maskUnits="userSpaceOnUse" x="0" y="0" width="48" height="48">
<rect width="48" height="48" rx="4" fill="white"/>
</mask>
<g mask="url(#mask0_1518_27469)">
<path d="M29.4967 40.9433C30.1852 40.9433 30.7433 40.3851 30.7433 39.6966C30.7433 39.0081 30.1852 38.45 29.4967 38.45C28.8082 38.45 28.25 39.0081 28.25 39.6966C28.25 40.3851 28.8082 40.9433 29.4967 40.9433Z" fill="white"/>
<path d="M35.6167 40.9433C36.3052 40.9433 36.8633 40.3851 36.8633 39.6966C36.8633 39.0081 36.3052 38.45 35.6167 38.45C34.9281 38.45 34.37 39.0081 34.37 39.6966C34.37 40.3851 34.9281 40.9433 35.6167 40.9433Z" fill="white"/>
<path d="M17.3699 20.6567C16.5199 19.2967 16.0099 17.71 16.0099 15.9533C16.0099 13.0067 17.2566 10.5133 19.2399 9.04C18.5033 7.79333 17.2566 7 15.4999 7C12.6099 7 11.0233 9.32333 11.0233 11.9867C11.0233 13.46 11.5333 14.65 12.4966 15.5567C13.0633 16.0667 13.5166 16.69 13.5166 17.4267C13.5166 18.1067 13.2899 18.73 11.6466 19.41C9.32328 20.4867 7.16995 21.79 7.11328 24C7.11328 25.4733 8.07661 26.4933 9.43661 26.4933H11.5899C11.9299 26.4933 12.2699 26.2667 12.4399 25.9833C13.5166 24.1133 15.4433 22.8667 17.0866 22.0733C17.4833 21.79 17.7099 21.11 17.3699 20.6567Z" fill="white"/>
<path d="M29.3266 33.86H36.8633C37.09 33.86 37.3166 33.69 37.3166 33.4633L38.6766 28.59C38.79 28.25 38.5066 27.9667 38.2233 27.9667H30.2333H26.6066L26.4366 27.23C26.3233 26.89 26.04 26.6633 25.7 26.6633H24.4533C24.0566 26.6633 23.66 27.0033 23.66 27.4C23.6033 27.8533 24 28.1933 24.3966 28.1933H25.1333L25.8133 30.46L27.5133 36.2967C27.6266 36.6367 27.91 36.8633 28.25 36.8633H37.09C37.4866 36.8633 37.8833 36.5233 37.8833 36.1267C37.94 35.6733 37.5433 35.3333 37.1466 35.3333H29.3266C28.9866 35.3333 28.7033 35.1067 28.59 34.8233V34.7667C28.4766 34.3133 28.8166 33.86 29.3266 33.86Z" fill="white"/>
<path d="M23.66 31.1401L23.4333 30.2901C22.9233 30.1201 22.5266 29.8368 22.1866 29.4401C21.6766 28.8168 21.3933 28.0801 21.45 27.2868C21.5066 25.7001 22.9233 24.4535 24.51 24.4535H25.7C26.72 24.4535 27.6266 24.9635 28.1933 25.7568H30.2333H31.4233C30.5166 25.1335 29.44 24.6235 28.3633 24.1701C26.55 23.4335 26.3233 22.6968 26.3233 21.9601C26.3233 21.2235 26.8333 20.4868 27.4 19.9201C28.4766 18.9568 29.0433 17.5968 29.0433 15.9535C29.0433 13.0068 27.23 10.4568 24.0566 10.4568C20.8833 10.4568 19.07 13.0068 19.07 15.9535C19.07 17.5401 19.6933 18.9001 20.7133 19.9201C21.3366 20.4868 21.79 21.2235 21.79 21.9601C21.79 22.6968 21.5066 23.4335 19.75 24.1701C17.03 25.2468 14.5366 26.5501 14.48 28.9868C14.48 30.5735 15.6133 31.9901 17.1433 31.9901H23.83L23.66 31.1401Z" fill="white"/>
<path d="M31.99 15.9533C31.99 17.71 31.5367 19.2967 30.63 20.6567C30.29 21.1667 30.46 21.79 31.0267 22.13C32.6133 22.8667 34.4267 24 35.5033 25.7567H38.2233C38.79 25.7567 39.3 25.9267 39.7533 26.2667C40.49 25.87 40.9433 25.0767 40.9433 24.0567C40.8867 21.8467 38.7333 20.4867 36.41 19.41C34.7667 18.73 34.54 18.05 34.54 17.4267C34.54 16.7467 34.9933 16.0667 35.56 15.5567C36.5233 14.65 37.0333 13.46 37.0333 11.9867C37.0333 9.26667 35.4467 7 32.5567 7C30.8 7 29.5533 7.79333 28.8167 9.04C30.7433 10.5133 31.99 12.95 31.99 15.9533Z" fill="white"/>
</g>
</svg>
