<svg width="40" height="40" viewBox="0 0 40 40" fill="none" xmlns="http://www.w3.org/2000/svg">
<rect width="40" height="40" rx="20" fill="#E7806F"/>
<mask id="mask0_1518_28262" style="mask-type:luminance" maskUnits="userSpaceOnUse" x="0" y="0" width="40" height="40">
<rect width="40" height="40" rx="20" fill="white"/>
</mask>
<g mask="url(#mask0_1518_28262)">
<path d="M29.8939 15.7876C30.0408 15.9346 30.2857 15.9346 30.4327 15.7876L30.9714 15.2489C32.2939 13.9264 32.3429 11.8693 31.0694 10.5958C31.0694 10.5958 29.4041 8.8815 29.3551 8.8815C28.0327 7.80395 26.1714 8.29375 25.1429 9.3713L24.6041 9.91008C24.4572 10.057 24.4572 10.3019 24.6041 10.4489L29.8939 15.7876Z" fill="white"/>
<path fill-rule="evenodd" clip-rule="evenodd" d="M22.3021 12.0653C22.449 11.9183 22.6939 11.9183 22.8409 12.0653L28.1796 17.502C28.3266 17.649 28.3266 17.8939 28.1796 18.0408L17.4531 28.7673C16.8654 29.3551 16.1796 29.7959 15.396 30.0408C13.6327 30.5796 10.0082 31.7061 10.0082 31.7061C9.91026 31.7551 9.76332 31.7551 9.66536 31.7551C9.27353 31.7551 8.88169 31.5592 8.63679 31.1673C8.44087 30.8734 8.44087 30.4816 8.53883 30.1877L10.2531 24.8979C10.498 24.0653 10.9388 23.3796 11.5266 22.7918L22.3021 12.0653ZM11.4286 28.8163C12.5552 28.4734 13.8286 28.0816 14.6613 27.7877C15.0531 27.6898 15.445 27.4449 15.7878 27.151L13.1429 24.5061C12.8001 24.8 12.5552 25.1428 12.4572 25.5836L11.4286 28.8163Z" fill="white"/>
</g>
</svg>
