<svg width="40" height="40" viewBox="0 0 40 40" fill="none" xmlns="http://www.w3.org/2000/svg">
<rect width="40" height="40" rx="20" fill="#22A48A"/>
<mask id="mask0_1518_28276" style="mask-type:luminance" maskUnits="userSpaceOnUse" x="0" y="0" width="40" height="40">
<rect width="40" height="40" rx="20" fill="white"/>
</mask>
<g mask="url(#mask0_1518_28276)">
<path d="M30.4817 10.645L20.9307 12.0164V25.4858C20.9307 25.7307 20.7838 25.8776 20.5389 25.8776H18.9715C18.7266 25.8776 18.5797 25.7307 18.5797 25.4858V12.4082L9.37152 13.7797C9.27356 13.7797 9.27356 13.7797 9.22458 13.7797C8.63682 13.7797 8.14703 13.3388 8.04907 12.7511C7.95111 12.1144 8.39193 11.4776 8.97968 11.4286L16.2776 10.3511C16.9634 9.1266 18.2368 8.29395 19.7062 8.29395C20.7838 8.29395 21.7634 8.73476 22.4491 9.42048L30.1389 8.34292C30.7756 8.24497 31.4123 8.68578 31.4613 9.32252C31.5593 9.91027 31.1674 10.498 30.4817 10.645Z" fill="white"/>
<path fill-rule="evenodd" clip-rule="evenodd" d="M16.5225 23.8204C16.7184 24.2612 16.6694 24.702 16.3756 25.0449C15.1021 26.6122 13.6817 27.3959 12.2613 27.3959C10.0349 27.3959 8.57768 25.4529 8.25753 25.0261C8.22552 24.9834 8.20487 24.9558 8.19597 24.9469C8.00005 24.6041 7.95107 24.2122 8.09801 23.8694L11.2327 16.4245C11.4286 15.9837 11.8205 15.7388 12.3103 15.7388C12.8001 15.7388 13.2409 15.9837 13.3878 16.4245L16.5225 23.8204ZM13.9756 23.9184L12.3103 19.902L10.6449 23.9184H13.9756Z" fill="white"/>
<path fill-rule="evenodd" clip-rule="evenodd" d="M27.2 13.3877C27.6408 13.3877 28.0817 13.6326 28.2776 14.0734L31.4123 21.4693C31.6082 21.9101 31.5592 22.351 31.2653 22.6938C29.9919 24.2612 28.6204 25.0448 27.151 25.0448C24.9247 25.0448 23.4675 23.1018 23.1473 22.675C23.1153 22.6323 23.0946 22.6048 23.0857 22.5959C22.8898 22.253 22.8408 21.8612 22.9878 21.5183L26.1225 14.0734C26.3184 13.6816 26.7102 13.3877 27.2 13.3877ZM28.8653 21.5673L27.2 17.551L25.4857 21.5673H28.8653Z" fill="white"/>
<path d="M19.7551 28.2285C17.551 28.2285 15.3469 29.0122 13.7796 30.3346C13.6327 30.4816 13.4857 30.6775 13.4857 30.9224V30.9714C13.4857 31.4122 13.8286 31.755 14.2694 31.755H25.2408C25.6816 31.755 26.0245 31.4122 26.0245 30.9714V30.9224C26.0245 30.6775 25.9265 30.4816 25.7306 30.3346C24.1633 29.0122 21.9592 28.2285 19.7551 28.2285Z" fill="white"/>
</g>
</svg>
