<svg width="40" height="40" viewBox="0 0 40 40" fill="none" xmlns="http://www.w3.org/2000/svg">
<rect width="40" height="40" rx="20" fill="#3ABEB1"/>
<mask id="mask0_1518_28134" style="mask-type:luminance" maskUnits="userSpaceOnUse" x="0" y="0" width="40" height="40">
<rect width="40" height="40" rx="20" fill="white"/>
</mask>
<g mask="url(#mask0_1518_28134)">
<path d="M31.2321 13.376C31.1361 13.088 30.8001 13.04 30.5601 13.232L26.6721 17.12C26.3841 17.408 25.9041 17.408 25.6161 17.12L22.8801 14.384C22.5921 14.096 22.5921 13.616 22.8801 13.328L26.8161 9.43998C27.0081 9.24798 26.9121 8.91198 26.6721 8.76798C26.0001 8.57598 25.2801 8.47998 24.6081 8.47998C20.5281 8.47998 17.2641 11.984 17.7441 16.16C17.8401 16.832 17.9841 17.408 18.2241 17.984L9.24805 26.912C8.19205 27.968 8.19205 29.696 9.24805 30.704C9.77605 31.232 10.4961 31.52 11.1681 31.52C11.8401 31.52 12.5601 31.232 13.0881 30.704L22.0161 21.776C22.5921 22.016 23.2161 22.16 23.8401 22.256C28.0161 22.736 31.5201 19.472 31.5201 15.392C31.5201 14.672 31.4241 14 31.2321 13.376Z" fill="white"/>
</g>
</svg>
