<svg width="40" height="40" viewBox="0 0 40 40" fill="none" xmlns="http://www.w3.org/2000/svg">
<rect width="40" height="40" rx="20" fill="#D876E5"/>
<mask id="mask0_1518_28270" style="mask-type:luminance" maskUnits="userSpaceOnUse" x="0" y="0" width="40" height="40">
<rect width="40" height="40" rx="20" fill="white"/>
</mask>
<g mask="url(#mask0_1518_28270)">
<path fill-rule="evenodd" clip-rule="evenodd" d="M9.95 8H29.55C30.25 8 30.75 8.5 30.9 9.2V28.4C30.9 29.1 30.35 29.6 29.7 29.6H29.3V30.8C29.3 31.5 28.75 32 28.1 32H27.3C26.6 32 26.1 31.5 26.1 30.8V29.6H13.55V30.8C13.55 31.5 13 32 12.35 32H11.55C10.85 32 10.35 31.5 10.35 30.8V29.6H9.95C9.25 29.6 8.75 29.1 8.75 28.4V9.2C8.75 8.5 9.25 8 9.95 8ZM11.1 26C11.1 26.7 11.65 27.2 12.3 27.2H27.25C27.95 27.2 28.45 26.7 28.45 26V11.6C28.45 10.9 27.9 10.4 27.25 10.4H12.3C11.6 10.4 11.1 10.9 11.1 11.6V26Z" fill="white"/>
<path fill-rule="evenodd" clip-rule="evenodd" d="M14.25 12.7998H25.25C25.7 12.7998 26.05 13.1498 26.05 13.5998V23.9998C26.05 24.4498 25.7 24.7998 25.25 24.7998H14.25C13.8 24.7998 13.45 24.4498 13.45 23.9998V13.5998C13.45 13.1498 13.8 12.7998 14.25 12.7998ZM20.15 19.9998H23.4C24 19.9998 24.45 19.3998 24.4 18.7998C24.4 18.1998 23.95 17.5998 23.35 17.5998H20.15C19.75 16.7998 18.8 15.9998 17.7 15.9998C16.25 15.9998 15.05 17.2998 15.05 18.7998C15.05 20.2998 16.2 21.5998 17.7 21.5998C18.8 21.5998 19.7 20.7998 20.15 19.9998Z" fill="white"/>
</g>
</svg>
