<svg width="40" height="40" viewBox="0 0 40 40" fill="none" xmlns="http://www.w3.org/2000/svg">
<rect width="40" height="40" rx="20" fill="#8D9BFB"/>
<mask id="mask0_1518_28240" style="mask-type:luminance" maskUnits="userSpaceOnUse" x="0" y="0" width="40" height="40">
<rect width="40" height="40" rx="20" fill="white"/>
</mask>
<g mask="url(#mask0_1518_28240)">
<path fill-rule="evenodd" clip-rule="evenodd" d="M9.17551 8.24512H30.3347C31.0204 8.24512 31.5592 8.73491 31.5592 9.42063C31.5592 10.1063 31.0694 10.5961 30.3837 10.5961H20.9796V12.9472C25.1918 13.5349 28.4245 17.1104 28.4245 21.4696V24.2125C28.4245 27.1023 26.1224 29.4043 23.2816 29.4043H16.3265C13.3878 29.4043 11.1347 27.0533 11.1347 24.2125V21.5186C11.1347 17.1594 14.3673 13.5839 18.5796 13.0451V10.5961H9.17551C8.4898 10.5961 8 10.1063 8 9.42063C8 8.73491 8.4898 8.24512 9.17551 8.24512ZM23.1837 23.5268C24.3592 23.5268 25.2408 22.5961 25.2408 21.4696C25.1918 18.5308 22.7918 16.0819 19.8041 16.0819H19.6571C16.7294 16.0819 14.3365 18.4638 14.27 21.4843C14.2698 21.4794 14.2696 21.4745 14.2694 21.4696V21.5186C14.2696 21.5071 14.2698 21.4957 14.27 21.4843C14.3257 22.6524 15.2047 23.5268 16.3265 23.5268H23.1837Z" fill="white"/>
<path d="M10.351 31.7553C11.2167 31.7553 11.9184 31.0536 11.9184 30.188C11.9184 29.3223 11.2167 28.6206 10.351 28.6206C9.48542 28.6206 8.78369 29.3223 8.78369 30.188C8.78369 31.0536 9.48542 31.7553 10.351 31.7553Z" fill="white"/>
<path d="M29.1591 31.7553C30.0248 31.7553 30.7265 31.0536 30.7265 30.188C30.7265 29.3223 30.0248 28.6206 29.1591 28.6206C28.2935 28.6206 27.5918 29.3223 27.5918 30.188C27.5918 31.0536 28.2935 31.7553 29.1591 31.7553Z" fill="white"/>
</g>
</svg>
