<svg width="40" height="40" viewBox="0 0 40 40" fill="none" xmlns="http://www.w3.org/2000/svg">
<rect width="40" height="40" rx="20" fill="#E6D478"/>
<mask id="mask0_1518_28370" style="mask-type:luminance" maskUnits="userSpaceOnUse" x="0" y="0" width="40" height="40">
<rect width="40" height="40" rx="20" fill="white"/>
</mask>
<g mask="url(#mask0_1518_28370)">
<path fill-rule="evenodd" clip-rule="evenodd" d="M26.8571 27.1506L27.298 26.7098C27.4939 26.5628 27.5918 26.6118 27.5918 26.8567V27.8853C27.5918 29.1588 26.5143 30.2363 25.2408 30.2363H21.7143H12.702C11.4286 30.2363 10.351 29.4526 10.351 27.8853H9.56735C8.68571 27.8853 8 27.1996 8 26.3179C8 25.4853 8.68571 24.7506 9.56735 24.7506H10.351V21.5669H9.56735C8.68571 21.5669 8 20.8812 8 19.9996C8 19.1179 8.68571 18.4322 9.56735 18.4322H10.351V15.2486H9.56735C8.68571 15.2486 8 14.5628 8 13.6812C8 12.7996 8.68571 12.0649 9.56735 12.0649H10.351C10.351 10.8894 11.4286 9.71387 12.702 9.71387H25.2408C26.5143 9.71387 27.5918 10.7914 27.5918 12.0649V16.1302C27.5918 16.3261 27.4449 16.669 27.298 16.8159L22.0082 22.2037L21.9873 22.2328C21.7391 22.5794 21.3224 23.1615 21.3224 24.1139V25.3384C21.3224 26.9547 22.5959 27.8853 23.7714 27.8853H25.0449C25.7306 27.8853 26.3673 27.6404 26.8571 27.1506ZM22.498 16.4241C22.9388 16.4241 23.2816 16.0812 23.2816 15.6404V14.8567C23.2816 14.4159 22.9388 14.0731 22.498 14.0731H14.6612C14.2204 14.0731 13.8776 14.4159 13.8776 14.8567V15.6404C13.8776 16.0812 14.2204 16.4241 14.6612 16.4241H22.498ZM19.7551 25.1424C19.7551 25.5833 19.4122 25.9261 18.9714 25.9261H14.6612C14.2204 25.9261 13.8776 25.5833 13.8776 25.1424V24.3588C13.8776 23.9179 14.2204 23.5751 14.6612 23.5751H18.9714C19.4122 23.5751 19.7551 23.9179 19.7551 24.3588V25.1424ZM20.1469 21.1751C20.5878 21.1751 20.9306 20.8322 20.9306 20.3914V19.6077C20.9306 19.1669 20.5878 18.8241 20.1469 18.8241H14.6612C14.2204 18.8241 13.8776 19.1669 13.8776 19.6077V20.3914C13.8776 20.8322 14.2204 21.1751 14.6612 21.1751H20.1469Z" fill="white"/>
<path d="M31.2653 18.2366L30.7755 17.7468C30.4816 17.4529 29.9918 17.4529 29.698 17.7468L23.7224 23.9182C23.6735 23.9182 23.6735 24.0162 23.6735 24.0162V25.3386C23.6735 25.4366 23.6735 25.5345 23.7714 25.5345H25.0449C25.0939 25.5345 25.1428 25.4856 25.1918 25.4856L31.2163 19.4121C31.6082 19.0692 31.6082 18.5794 31.2653 18.2366Z" fill="white"/>
</g>
</svg>
