<svg width="40" height="40" viewBox="0 0 40 40" fill="none" xmlns="http://www.w3.org/2000/svg">
<rect width="40" height="40" rx="20" fill="#F88962"/>
<mask id="mask0_1518_28302" style="mask-type:luminance" maskUnits="userSpaceOnUse" x="0" y="0" width="40" height="40">
<rect width="40" height="40" rx="20" fill="white"/>
</mask>
<g mask="url(#mask0_1518_28302)">
<path d="M19.9999 15.1522C21.9086 15.1522 23.4559 13.6049 23.4559 11.6962C23.4559 9.78754 21.9086 8.24023 19.9999 8.24023C18.0912 8.24023 16.5439 9.78754 16.5439 11.6962C16.5439 13.6049 18.0912 15.1522 19.9999 15.1522Z" fill="white"/>
<path d="M30.752 17.4561H20H9.24798C8.47998 17.4561 8.19198 18.4161 8.81598 18.8481L14.432 22.4481C14.72 22.6401 14.864 22.9761 14.72 23.3121L12.656 30.3201C12.416 31.0881 13.424 31.6161 14 31.0401L19.472 25.2801C19.76 24.9441 20.336 24.9441 20.624 25.2801L26.096 31.0401C26.624 31.6161 27.632 31.0881 27.44 30.3201L25.28 23.2641C25.184 22.9761 25.328 22.5921 25.568 22.4001L31.184 18.8001C31.808 18.4161 31.52 17.4561 30.752 17.4561Z" fill="white"/>
</g>
</svg>
