<svg width="40" height="40" viewBox="0 0 40 40" fill="none" xmlns="http://www.w3.org/2000/svg">
<rect width="40" height="40" rx="20" fill="#EA70B1"/>
<mask id="mask0_1518_28204" style="mask-type:luminance" maskUnits="userSpaceOnUse" x="0" y="0" width="40" height="40">
<rect width="40" height="40" rx="20" fill="white"/>
</mask>
<g mask="url(#mask0_1518_28204)">
<path d="M10.9 20.2C13.5 19.75 15.8 18.7 18.25 17.55C19.05 17.2 20.55 16.5 21.25 16.2C21.5 16.1 21.65 15.85 21.55 15.55C21.35 14.4 20.4 13.45 19.2 13.45H18.4V11.95C18.4 11.5 18 11.15 17.6 11.15V9.55C17.6 9.1 17.25 8.75 16.8 8.75H15.2C14.75 8.75 14.4 9.1 14.4 9.55V11.15C14 11.15 13.6 11.5 13.6 11.95V13.45H12.8C11.5 13.45 10.4 14.65 10.4 16V19.75C10.4 20.05 10.65 20.25 10.9 20.2Z" fill="white"/>
<path fill-rule="evenodd" clip-rule="evenodd" d="M32 17.3002C31.7 23.6002 28.8 28.1002 28.8 28.1002C29.2 28.5502 29.4 29.2502 29.5 29.9002C29.6 30.4002 29.1 30.9002 28.6 30.8002C23.45 29.9502 14.45 29.3502 10.25 29.1002C9 29.0002 8 28.0002 8 26.7002V23.7002C8 23.3002 8.3 22.9002 8.75 22.9002C12.8397 22.7308 15.9924 21.2965 19.2342 19.8217C22.6904 18.2492 26.2479 16.6308 31.15 16.4502C31.65 16.4502 32 16.8502 32 17.3002ZM27.2 19.7502C27.2 20.4502 27.7 20.9502 28.4 20.9502C29.1 20.9502 29.6 20.4502 29.6 19.7502C29.6 19.0502 29.1 18.5502 28.4 18.5502C27.7 18.5502 27.2 19.0502 27.2 19.7502Z" fill="white"/>
</g>
</svg>
