<svg width="40" height="40" viewBox="0 0 40 40" fill="none" xmlns="http://www.w3.org/2000/svg">
<rect width="40" height="40" rx="20" fill="#D15B97"/>
<mask id="mask0_1518_28260" style="mask-type:luminance" maskUnits="userSpaceOnUse" x="0" y="0" width="40" height="40">
<rect width="40" height="40" rx="20" fill="white"/>
</mask>
<g mask="url(#mask0_1518_28260)">
<path fill-rule="evenodd" clip-rule="evenodd" d="M23.5265 17.5508H31.2653C31.6572 17.5508 32 17.8936 32 18.2855V20.2447C32 20.6365 31.7551 20.9304 31.4123 20.9794L25.1918 22.3508C24.849 22.3998 24.5551 22.7916 24.6041 23.1345C24.6531 23.3304 24.6531 23.5753 24.6531 23.7712C24.6531 27.3467 21.6653 30.2365 18.0898 30.0406C15.9347 29.9426 14.0245 28.7181 12.9959 26.9059C12.6531 27.0528 12.2123 27.1018 11.8204 27.1018C9.95919 27.1018 8.39185 25.5834 8.39185 23.7712C8.39185 21.9589 9.86123 20.4896 11.7225 20.4896C12.1143 20.4896 12.5061 20.5385 12.898 20.6855C13.9265 18.9222 15.8367 17.6487 17.9918 17.5508H19.8041C20.1959 17.5508 20.5388 17.8936 20.5388 18.2855V18.6283C20.5388 19.2161 21.0776 19.7059 21.6653 19.7059C22.302 19.7059 22.7918 19.2161 22.7918 18.6283V18.2855C22.7918 17.8936 23.1347 17.5508 23.5265 17.5508ZM10.6449 23.8202C10.6449 24.4079 11.1347 24.8977 11.7714 24.8977C11.9184 24.8977 12.0653 24.8487 12.2123 24.7998C12.2051 24.7712 12.198 24.7436 12.191 24.7167C12.15 24.5589 12.1143 24.4212 12.1143 24.212C12.1143 23.7712 12.1143 23.2814 12.2123 22.8406C12.1143 22.7916 11.9184 22.7426 11.7714 22.7426C11.1347 22.7426 10.6449 23.2324 10.6449 23.8202Z" fill="white"/>
<path d="M21.7143 14.955C22.351 14.955 22.8408 14.4652 22.8408 13.8774V10.5468C22.7919 9.95903 22.3021 9.46924 21.7143 9.46924C21.0776 9.46924 20.5878 9.95903 20.5878 10.5468V13.8774C20.5878 14.5141 21.0776 14.955 21.7143 14.955Z" fill="white"/>
<path d="M16.4245 15.347C16.6694 15.5919 16.9632 15.6898 17.2571 15.6898C17.502 15.6898 17.7959 15.6409 17.9918 15.4449C18.4816 15.0531 18.5306 14.3674 18.0898 13.9266L15.8857 11.3796C15.4939 10.8898 14.7592 10.8898 14.3183 11.2817C13.8285 11.6735 13.7796 12.3592 14.2204 12.8L16.4245 15.347Z" fill="white"/>
<path d="M26.1225 15.6895C26.4164 15.6895 26.7592 15.5425 26.9552 15.3466L29.1592 12.7997C29.5511 12.3099 29.5021 11.6242 29.0613 11.2813C28.5715 10.8895 27.8858 10.9385 27.4939 11.3793L25.2899 13.9262C24.898 14.416 24.947 15.1017 25.3878 15.4446C25.5837 15.6405 25.8776 15.6895 26.1225 15.6895Z" fill="white"/>
</g>
</svg>
