<svg width="40" height="40" viewBox="0 0 40 40" fill="none" xmlns="http://www.w3.org/2000/svg">
<rect width="40" height="40" rx="20" fill="#E9AF67"/>
<mask id="mask0_1518_28128" style="mask-type:luminance" maskUnits="userSpaceOnUse" x="0" y="0" width="40" height="40">
<rect width="40" height="40" rx="20" fill="white"/>
</mask>
<g mask="url(#mask0_1518_28128)">
<path d="M28.4 27.9999H28V19.1999C28 18.7499 27.65 18.3999 27.2 18.3999H26.4C25.95 18.3999 25.6 18.7499 25.6 19.1999V27.9999H23.25V19.1999C23.25 18.7499 22.9 18.3999 22.45 18.3999H21.65C21.2 18.3999 20.85 18.7499 20.85 19.1999V27.9999H18.5V19.1999C18.5 18.7499 18.15 18.3999 17.7 18.3999H16.9C16.45 18.3999 16.1 18.7499 16.1 19.1999V27.9999H13.75V19.1999C13.75 18.7499 13.4 18.3999 12.95 18.3999H12.15C11.7 18.3999 11.35 18.7499 11.35 19.1999V27.9999H11.1C9.8 27.9999 8.75 29.0999 8.75 30.3999V31.1999C8.75 31.6499 9.1 31.9999 9.55 31.9999H30C30.45 31.9999 30.8 31.6499 30.8 31.1999V30.3999C30.75 29.0999 29.7 27.9999 28.4 27.9999Z" fill="white"/>
<path fill-rule="evenodd" clip-rule="evenodd" d="M20.65 8.3L30.35 13.75C30.6 13.9 30.75 14.2 30.8 14.5V15.2C30.8 15.65 30.45 16 30 16H28.8H19.75H10.75H9.55C9.1 16 8.75 15.65 8.75 15.2V14.45C8.75 14.15 8.9 13.9 9.15 13.75L18.85 8.3C19.1 8.1 19.45 8 19.75 8C20.05 8 20.4 8.1 20.65 8.3ZM17.8 12.4C17.8 13.5 18.65 14.4 19.75 14.4C20.85 14.4 21.7 13.5 21.7 12.4C21.7 11.3 20.85 10.4 19.75 10.4C18.65 10.4 17.8 11.3 17.8 12.4Z" fill="white"/>
</g>
</svg>
