<svg width="40" height="40" viewBox="0 0 40 40" fill="none" xmlns="http://www.w3.org/2000/svg">
<rect width="40" height="40" rx="20" fill="#E46FBE"/>
<mask id="mask0_1518_28146" style="mask-type:luminance" maskUnits="userSpaceOnUse" x="0" y="0" width="40" height="40">
<rect width="40" height="40" rx="20" fill="white"/>
</mask>
<g mask="url(#mask0_1518_28146)">
<path d="M31.424 11.264C31.136 9.82404 29.984 8.67204 28.496 8.48004C27.44 8.33604 26.48 8.67204 25.76 9.24804C25.52 9.44004 25.568 9.72804 25.856 9.92004C27.632 10.832 29.12 12.176 30.272 13.808C30.416 14.048 30.752 14.048 30.944 13.808C31.424 13.088 31.616 12.224 31.424 11.264Z" fill="white"/>
<path d="M14.096 9.92006C14.336 9.82406 14.384 9.44006 14.192 9.24806C13.472 8.62406 12.512 8.33606 11.456 8.48006C10.016 8.67206 8.81599 9.82406 8.52799 11.2641C8.38399 12.1761 8.57599 13.0881 9.00799 13.7601C9.15199 14.0001 9.48799 14.0001 9.67999 13.7601C10.832 12.2241 12.32 10.8801 14.096 9.92006Z" fill="white"/>
<path fill-rule="evenodd" clip-rule="evenodd" d="M9.63195 21.1522C9.63195 15.4402 14.2879 10.7842 19.9999 10.7842C25.7119 10.7842 30.3679 15.4402 30.3199 21.1522C30.3199 23.4562 29.5519 25.6162 28.3039 27.2962L29.8879 28.8802C30.5119 29.5042 30.5119 30.4642 29.8879 31.0882C29.5999 31.4242 29.2159 31.5682 28.8319 31.5682C28.4479 31.5682 28.0639 31.3762 27.7279 31.0882L26.1439 29.5042C24.4639 30.7522 22.3039 31.5202 19.9999 31.5202C17.6959 31.5202 15.5359 30.7522 13.7599 29.5042L12.1759 31.0882C11.8879 31.4242 11.5039 31.5682 11.1199 31.5682C10.7359 31.5682 10.3519 31.3762 10.0639 31.0882C9.43995 30.4642 9.43995 29.5042 10.0639 28.8802L11.6479 27.2962C10.3999 25.6162 9.63195 23.4562 9.63195 21.1522ZM19.9999 13.8562C15.9679 13.8562 12.7039 17.1202 12.7039 21.1522C12.7039 25.1842 15.9679 28.4482 19.9999 28.4482C24.0319 28.4482 27.2959 25.1842 27.2959 21.1522C27.2959 17.1202 24.0319 13.8562 19.9999 13.8562Z" fill="white"/>
<path d="M21.152 20.6719V17.6959C21.152 17.0239 20.672 16.5439 20 16.5439C19.328 16.5439 18.848 17.0239 18.848 17.6959V21.1519C18.848 21.4399 18.944 21.7759 19.184 21.9679L21.872 24.6559C22.112 24.8959 22.4 24.9919 22.688 24.9919C22.976 24.9919 23.264 24.8959 23.504 24.6559C23.984 24.1759 23.984 23.4559 23.504 23.0239L21.152 20.6719Z" fill="white"/>
</g>
</svg>
