<svg width="40" height="40" viewBox="0 0 40 40" fill="none" xmlns="http://www.w3.org/2000/svg">
<rect width="40" height="40" rx="20" fill="#48C7C8"/>
<mask id="mask0_1518_28136" style="mask-type:luminance" maskUnits="userSpaceOnUse" x="0" y="0" width="40" height="40">
<rect width="40" height="40" rx="20" fill="white"/>
</mask>
<g mask="url(#mask0_1518_28136)">
<path d="M15.2979 19.3632C15.2979 19.0693 14.9061 18.8734 14.6612 19.0693L9.17549 23.2326C8.58773 23.6734 8.24487 24.4081 8.24487 25.1428V26.7591C8.24487 27.053 8.53875 27.2489 8.73467 27.102L14.7592 24.8489C15.053 24.751 15.249 24.4571 15.249 24.1142C15.2979 24.0653 15.2979 19.3632 15.2979 19.3632Z" fill="white"/>
<path d="M23.9674 30.2858L22.351 29.2082V27.6409V23.7225V16.7184V14.7592V11.4776C22.351 10.4001 21.2245 9.22455 20.4898 8.6368C20.1959 8.3919 19.8041 8.3919 19.5102 8.6368C18.8245 9.22455 17.649 10.4001 17.649 11.4776V14.7592V16.7184V23.7715V27.6899V29.2572L15.8367 30.4327C15.5429 30.6776 15.298 31.0205 15.298 31.4123V31.6572C15.298 31.8531 15.4449 32.0001 15.6408 32.0001H20.049H24.3102C24.5061 32.0001 24.751 31.8531 24.751 31.6572C24.7021 31.0695 24.4082 30.6286 23.9674 30.2858Z" fill="white"/>
<path d="M30.8245 23.2328L25.3388 19.0205C25.0449 18.8246 24.702 19.0205 24.702 19.3144V24.1144C24.702 24.4083 24.8979 24.7511 25.1918 24.8491L31.2653 27.1511C31.5592 27.2491 31.7551 27.0532 31.7551 26.8083V25.1919C31.7551 24.4083 31.4122 23.6736 30.8245 23.2328Z" fill="white"/>
</g>
</svg>
