<svg width="40" height="40" viewBox="0 0 40 40" fill="none" xmlns="http://www.w3.org/2000/svg">
<rect width="40" height="40" rx="20" fill="#6D9DE3"/>
<mask id="mask0_1518_28288" style="mask-type:luminance" maskUnits="userSpaceOnUse" x="0" y="0" width="40" height="40">
<rect width="40" height="40" rx="20" fill="white"/>
</mask>
<g mask="url(#mask0_1518_28288)">
<path d="M31.28 11.84L29.264 10.352C28.976 10.16 28.688 10.064 28.352 10.064H21.536V9.24798C21.536 8.81598 21.2 8.47998 20.768 8.47998H19.232C18.8 8.47998 18.464 8.81598 18.464 9.24798V10.016H10.784C10.352 10.016 10.016 10.352 10.016 10.784V12.416V13.856C10.016 14.288 10.352 14.624 10.784 14.624H18.464H21.536H28.352C28.688 14.624 29.024 14.528 29.264 14.336L31.28 12.848C31.616 12.56 31.616 12.08 31.28 11.84Z" fill="white"/>
<path d="M29.216 18.4642H21.536V17.3122C21.536 17.0722 21.392 16.9282 21.152 16.9282H18.848C18.608 16.9282 18.464 17.0722 18.464 17.3122V18.4642H11.648C11.312 18.4642 10.976 18.5602 10.736 18.7522L8.72002 20.2402C8.38402 20.4802 8.38402 20.9602 8.72002 21.2482L10.736 22.7362C11.024 22.9282 11.312 23.0242 11.648 23.0242H18.464H21.536H29.216C29.648 23.0242 29.984 22.6882 29.984 22.2562V20.6242V19.1842C29.984 18.8002 29.648 18.4642 29.216 18.4642Z" fill="white"/>
<path d="M21.536 28.304V25.76C21.536 25.52 21.392 25.376 21.152 25.376H18.848C18.608 25.376 18.464 25.52 18.464 25.76V28.304C16.928 28.736 16.064 29.648 15.824 30.8C15.728 31.136 16.016 31.52 16.4 31.52H23.648C24.032 31.52 24.32 31.184 24.224 30.8C23.936 29.648 23.072 28.736 21.536 28.304Z" fill="white"/>
</g>
</svg>
