<svg width="40" height="40" viewBox="0 0 40 40" fill="none" xmlns="http://www.w3.org/2000/svg">
<rect width="40" height="40" rx="20" fill="#E36EE3"/>
<mask id="mask0_1518_28238" style="mask-type:luminance" maskUnits="userSpaceOnUse" x="0" y="0" width="40" height="40">
<rect width="40" height="40" rx="20" fill="white"/>
</mask>
<g mask="url(#mask0_1518_28238)">
<path d="M28.5 12.4502C26.15 10.1502 23 8.9002 19.65 9.0002C13.25 9.2002 8 14.6002 8 21.0002V24.7002C8 26.0002 9.1 27.0502 10.4 27.0502H12V28.9502C12 29.9502 12.75 30.8502 13.8 31.0002C15 31.1002 16 30.2002 16 29.0502V22.0502C16 21.0502 15.25 20.1502 14.2 20.0002C13 19.9002 12 20.8002 12 21.9502V24.7002H11.2C10.75 24.7002 10.4 24.3502 10.4 23.9002V21.0002C10.4 15.8002 14.6 11.5002 19.7 11.3502C22.35 11.2502 24.8 12.2002 26.65 14.0002C28.55 15.8002 29.55 18.2002 29.55 20.7502V23.9002C29.55 24.3502 29.2 24.7002 28.75 24.7002H28V22.0502C28 21.0502 27.25 20.1502 26.2 20.0002C25 19.9002 24 20.8002 24 21.9502V28.9502C24 29.9502 24.75 30.8502 25.8 31.0002C27 31.1002 28 30.2002 28 29.0502V27.1002H29.6C30.9 27.1002 32 26.0502 32 24.7502V21.0002C32 17.8502 30.8 14.7502 28.5 12.4502Z" fill="white"/>
</g>
</svg>
