<svg width="40" height="40" viewBox="0 0 40 40" fill="none" xmlns="http://www.w3.org/2000/svg">
<rect width="40" height="40" rx="20" fill="#8B85F9"/>
<mask id="mask0_1518_28140" style="mask-type:luminance" maskUnits="userSpaceOnUse" x="0" y="0" width="40" height="40">
<rect width="40" height="40" rx="20" fill="white"/>
</mask>
<g mask="url(#mask0_1518_28140)">
<path d="M30.608 25.328L28.208 23.408C27.392 22.736 26.24 22.736 25.424 23.312L23.168 24.944C22.88 25.184 22.448 25.136 22.16 24.848L18.416 21.488L15.008 17.744C14.72 17.456 14.72 17.072 14.912 16.736L16.544 14.48C17.168 13.616 17.12 12.464 16.448 11.696L14.528 9.29604C13.76 8.24004 12.176 8.14404 11.216 9.10404L9.15198 11.216C8.67198 11.696 8.47998 12.32 8.47998 12.944C8.76798 17.84 10.976 22.496 14.24 25.76C17.504 29.024 22.112 31.232 27.008 31.52C27.68 31.568 28.256 31.28 28.736 30.848L30.8 28.784C31.808 27.776 31.712 26.192 30.608 25.328Z" fill="white"/>
</g>
</svg>
