<svg width="40" height="40" viewBox="0 0 40 40" fill="none" xmlns="http://www.w3.org/2000/svg">
<rect width="40" height="40" rx="20" fill="#F26979"/>
<mask id="mask0_1518_28232" style="mask-type:luminance" maskUnits="userSpaceOnUse" x="0" y="0" width="40" height="40">
<rect width="40" height="40" rx="20" fill="white"/>
</mask>
<g mask="url(#mask0_1518_28232)">
<path fill-rule="evenodd" clip-rule="evenodd" d="M20 8C13.4 8 8 13.4 8 20C8 26.6 13.4 32 20 32C26.6 32 32 26.6 32 20C32 13.4 26.6 8 20 8ZM29.5 18.8H26.35C26.25 15.95 25.6 13.5 24.65 11.6C27.3 13.1 29.1 15.7 29.5 18.8ZM18.8 18.8V10.9C17.45 12.1 16.25 15.05 16.05 18.8H18.8ZM18.8 21.2V29.1C17.45 27.95 16.25 25 16.05 21.2H18.8ZM21.2 21.2V29.1C22.55 27.9 23.75 24.95 23.95 21.2H21.2ZM21.2 18.8V10.9C22.55 12.05 23.75 15 23.95 18.8H21.2ZM13.65 18.8C13.8 15.95 14.4 13.5 15.35 11.6C12.7 13.1 10.9 15.7 10.5 18.8H13.65ZM10.5 21.2H13.65C13.75 24.05 14.4 26.5 15.35 28.4C12.7 26.9 10.9 24.3 10.5 21.2ZM26.35 21.2C26.2 24.05 25.6 26.5 24.65 28.4C27.3 26.9 29.1 24.3 29.5 21.2H26.35Z" fill="white"/>
</g>
</svg>
