<svg width="40" height="40" viewBox="0 0 40 40" fill="none" xmlns="http://www.w3.org/2000/svg">
<rect width="40" height="40" rx="20" fill="#B55D5B"/>
<mask id="mask0_1518_28250" style="mask-type:luminance" maskUnits="userSpaceOnUse" x="0" y="0" width="40" height="40">
<rect width="40" height="40" rx="20" fill="white"/>
</mask>
<g mask="url(#mask0_1518_28250)">
<path d="M12.75 16.8H14.3C14.55 16.8 14.7 16.65 14.7 16.4V15.8C14.7 12.75 16.95 10.4 19.8 10.4C22.65 10.4 24.9 12.75 24.9 15.8V16.4C24.9 16.65 25.05 16.8 25.3 16.8H26.85C27.1 16.8 27.25 16.65 27.25 16.4V15.8C27.25 11.45 24 8 19.8 8C15.6 8 12.35 11.45 12.35 15.8V16.4C12.35 16.65 12.5 16.8 12.75 16.8Z" fill="white"/>
<path fill-rule="evenodd" clip-rule="evenodd" d="M12.35 19.2002H27.65C28.95 19.2002 30 20.3002 30 21.6002V29.6002C30 30.9002 28.95 32.0002 27.65 32.0002H12.35C11.05 32.0002 10 30.9002 10 29.6002V21.6002C10 20.3002 11.05 19.2002 12.35 19.2002ZM21.5 27.5002C21.35 26.8502 21.55 26.2002 21.9 25.6502C22.1 25.2502 22.25 24.8002 22.25 24.3002C22.25 22.8502 20.85 21.6502 19.25 21.9502C18.3 22.1502 17.5 22.9002 17.3 23.8502C17.2 24.5002 17.35 25.1502 17.7 25.6502C18.05 26.1502 18.25 26.8002 18.1 27.4502L17.85 28.7002C17.75 29.1002 18.1 29.6002 18.55 29.6002H21.05C21.5 29.6002 21.85 29.1502 21.75 28.7002L21.5 27.5002Z" fill="white"/>
</g>
</svg>
