<svg width="40" height="40" viewBox="0 0 40 40" fill="none" xmlns="http://www.w3.org/2000/svg">
<rect width="40" height="40" rx="20" fill="#F279AB"/>
<mask id="mask0_1518_28226" style="mask-type:luminance" maskUnits="userSpaceOnUse" x="0" y="0" width="40" height="40">
<rect width="40" height="40" rx="20" fill="white"/>
</mask>
<g mask="url(#mask0_1518_28226)">
<path d="M28.2 26.3501H8.75C8.35 26.3501 8 26.7001 8 27.1001V27.1501C8 28.4501 9.05 29.5001 10.35 29.5001H26.65C27.95 29.5001 29 28.4501 29 27.1001V27.0501C28.95 26.7001 28.6 26.3501 28.2 26.3501Z" fill="white"/>
<path fill-rule="evenodd" clip-rule="evenodd" d="M26.6 10.5H27.4C29.95 10.5 32 12.65 32 15.25C32 17.85 29.9 20 27.35 20C26.8 20 26.3 19.9 25.85 19.75C25 21.45 23.65 22.9 22.15 23.85C22.1187 23.8604 22.0895 23.8709 22.0617 23.8809C21.956 23.9187 21.8687 23.95 21.75 23.95H13.65C13.5 23.95 13.35 23.95 13.25 23.85C10.6 22.2 8.64997 19.1 8.14997 15.4C7.99997 14.25 7.99997 12.35 8.09997 11.3C8.09997 10.85 8.44997 10.5 8.79997 10.5H22.35H26.6ZM26.8 17.5C27 17.55 27.2 17.6 27.4 17.6C28.65 17.6 29.75 16.55 29.75 15.2C29.75 13.85 28.7 12.8 27.4 12.8V13.45C27.4 14.9 27.2 16.25 26.8 17.5L26.8 17.5Z" fill="white"/>
</g>
</svg>
