<svg width="40" height="40" viewBox="0 0 40 40" fill="none" xmlns="http://www.w3.org/2000/svg">
<rect width="40" height="40" rx="20" fill="#DD6085"/>
<mask id="mask0_1518_28290" style="mask-type:luminance" maskUnits="userSpaceOnUse" x="0" y="0" width="40" height="40">
<rect width="40" height="40" rx="20" fill="white"/>
</mask>
<g mask="url(#mask0_1518_28290)">
<path fill-rule="evenodd" clip-rule="evenodd" d="M24.1 12.15V21.65C25.35 22.8 26 24.3 26 26C26 29.3 23.3 32 20 32C16.7 32 14 29.3 14 26C14 24.35 14.65 22.8 15.85 21.65V12.15C15.85 9.85 17.65 8 19.95 8H20C22.3 8 24.1 9.8 24.1 12.15ZM16.85 26H23.15C23.5 26 23.75 25.65 23.65 25.2C23.5 24.35 23 23.5 22.3 22.95C22.05 22.7 21.9 22.45 21.85 22.1H20.75C20.15 22.1 19.65 21.6 19.65 21C19.65 20.4 20.1 19.9 20.75 19.9H21.85V18.4H20.75C20.15 18.4 19.65 17.9 19.65 17.3C19.65 16.7 20.1 16.2 20.75 16.2H21.85V14.7H20.75C20.15 14.7 19.65 14.2 19.65 13.6C19.65 13 20.1 12.5 20.75 12.5H21.85V12.15C21.85 11.1 21.05 10.25 20 10.25H19.95C18.9 10.25 18.1 11.05 18.1 12.15V22.15C18.1 22.5 17.9 22.8 17.65 23.05C16.95 23.6 16.45 24.4 16.3 25.3C16.25 25.65 16.5 26 16.85 26Z" fill="white"/>
</g>
</svg>
