<svg width="40" height="40" viewBox="0 0 40 40" fill="none" xmlns="http://www.w3.org/2000/svg">
<rect width="40" height="40" rx="20" fill="#5A95DD"/>
<mask id="mask0_1518_28252" style="mask-type:luminance" maskUnits="userSpaceOnUse" x="0" y="0" width="40" height="40">
<rect width="40" height="40" rx="20" fill="white"/>
</mask>
<g mask="url(#mask0_1518_28252)">
<path fill-rule="evenodd" clip-rule="evenodd" d="M30.8245 11.6735L23.7714 8.14694C23.4776 8 23.0857 8 22.6939 8.14694L16.2286 11.3796L9.66531 8.14694C9.32245 7.95102 8.88163 7.95102 8.53878 8.14694C8.19592 8.39184 8 8.78367 8 9.17551V26.8082C8 27.249 8.2449 27.6898 8.68571 27.8857L15.7388 31.4122C16.0327 31.5592 16.4245 31.5592 16.8163 31.4122L23.3306 28.1796L29.8939 31.4122C30.0408 31.5102 30.2367 31.5102 30.3837 31.5102C30.5225 31.5102 30.6859 31.461 30.839 31.415L30.839 31.4149C30.902 31.396 30.9633 31.3775 31.0204 31.3633C31.3633 31.1184 31.5592 30.7265 31.5592 30.3347V12.702C31.5102 12.2612 31.2653 11.8694 30.8245 11.6735ZM29.1592 23.2327C29.1592 23.7714 28.6204 24.1633 28.0816 23.9673C27.0909 23.5925 27.0663 22.515 27.0395 21.3431C27.0173 20.3713 26.9936 19.3345 26.4163 18.5796C25.8775 17.9115 25.2629 17.8408 24.6182 17.7667C23.7978 17.6724 22.9289 17.5725 22.1061 16.2286C20.6367 13.9265 22.5959 12.2612 24.3592 11.3796C24.6041 11.2816 24.849 11.2816 25.0449 11.3796L28.6694 13.2408C29.0122 13.3388 29.1592 13.6327 29.1592 13.9265V23.2327ZM18.2857 27.4449C18.5306 27.6408 18.8735 27.6898 19.1673 27.5429L19.6571 27.3469C19.8531 27.249 19.951 27.0531 20.049 26.8571C20.0937 26.7008 20.1383 26.5353 20.1844 26.3648C20.4413 25.4137 20.741 24.3039 21.3224 23.7224C22.498 22.5469 22.1061 20.9796 21.3224 20.1959C20.5388 19.4122 20.1469 19.0204 17.7959 19.8041C15.9651 20.4143 15.56 19.8365 15.1003 19.1809C14.9697 18.9946 14.8346 18.802 14.6612 18.6286C14.2694 18.2367 13.7796 18.2367 13.3388 18.2367C12.898 18.2367 12.5061 18.2367 12.3102 17.8449C11.9184 17.0612 13.0939 16.2776 14.2694 16.6694C14.6777 16.8055 14.9856 17.0657 15.2484 17.2879C15.7422 17.7052 16.077 17.9882 16.6204 17.0612C17.3551 15.7878 17.698 14.9551 15.9347 13.9265L15.7878 13.8286C15.7878 13.8286 15.7388 13.7796 15.6898 13.7796L11.4776 11.6735C10.9878 11.3796 10.351 11.7714 10.351 12.3592V19.4612C10.351 19.951 10.7429 20.2939 11.2327 20.2449C13.1429 20.049 15.4449 20.6367 15.4449 22.498C15.4449 23.8752 16.1172 24.3112 16.6741 24.6723C17.0679 24.9277 17.4041 25.1457 17.4041 25.6327C17.4041 26.3184 17.7959 27.0041 18.2857 27.4449Z" fill="white"/>
</g>
</svg>
