<svg width="40" height="40" viewBox="0 0 40 40" fill="none" xmlns="http://www.w3.org/2000/svg">
<rect width="40" height="40" rx="20" fill="#618FD8"/>
<mask id="mask0_1518_28224" style="mask-type:luminance" maskUnits="userSpaceOnUse" x="0" y="0" width="40" height="40">
<rect width="40" height="40" rx="20" fill="white"/>
</mask>
<g mask="url(#mask0_1518_28224)">
<path fill-rule="evenodd" clip-rule="evenodd" d="M8 20C8 13.4 13.4 8 20 8C26.6 8 32 13.4 32 20C32 26.6 26.6 32 20 32C13.4 32 8 26.6 8 20ZM11.2 20C11.2 24.85 15.15 28.8 20 28.8C24.85 28.8 28.8 24.85 28.8 20C28.8 15.15 24.85 11.2 20 11.2C15.15 11.2 11.2 15.15 11.2 20Z" fill="white"/>
<path fill-rule="evenodd" clip-rule="evenodd" d="M18.0001 17.2498L24.6501 14.8498C24.9501 14.6998 25.3001 15.0498 25.1501 15.3498L22.7501 21.9998C22.6501 22.3498 22.3501 22.6498 22.0001 22.7498L15.3501 25.1498C15.0501 25.2998 14.7501 24.9498 14.8501 24.6498L17.2501 17.9998C17.3501 17.6498 17.6501 17.3498 18.0001 17.2498ZM18.4001 19.9998C18.4001 20.8998 19.1001 21.5998 20.0001 21.5998C20.9001 21.5998 21.6001 20.8998 21.6001 19.9998C21.6001 19.0998 20.9001 18.3998 20.0001 18.3998C19.1001 18.3998 18.4001 19.0998 18.4001 19.9998Z" fill="white"/>
</g>
</svg>
