<svg width="40" height="40" viewBox="0 0 40 40" fill="none" xmlns="http://www.w3.org/2000/svg">
<rect width="40" height="40" rx="20" fill="#97CF5D"/>
<mask id="mask0_1518_28162" style="mask-type:luminance" maskUnits="userSpaceOnUse" x="0" y="0" width="40" height="40">
<rect width="40" height="40" rx="20" fill="white"/>
</mask>
<g mask="url(#mask0_1518_28162)">
<path fill-rule="evenodd" clip-rule="evenodd" d="M14.75 16.6499H25.6C26.05 16.6499 26.4 16.9999 26.4 17.3999V20.3499C26.4 20.7499 26.05 21.0999 25.65 21.0999H14.75C14.35 21.0999 14 20.7499 14 20.3499V17.3999C14 16.9999 14.35 16.6499 14.75 16.6499ZM19.3 18.8999C19.3 19.4999 19.75 19.9999 20.4 19.9999C21 19.9999 21.5 19.4999 21.5 18.8999C21.5 18.2999 21 17.7999 20.4 17.7999C19.8 17.7999 19.3 18.2499 19.3 18.8999Z" fill="white"/>
<path d="M31.25 11.5H8.75C8.35 11.5 8 11.85 8 12.25V13C8 13.8 8.65 14.5 9.5 14.5V27.8C9.5 28.15 9.85 28.5 10.25 28.5H11C11.4 28.5 11.75 28.15 11.75 27.75V14.45H28.65V27.75C28.65 28.15 29 28.5 29.4 28.5H30.15C30.55 28.5 30.9 28.15 30.9 27.75V14.45H30.5C31.3 14.45 32 13.8 32 12.95V12.2C32 11.85 31.65 11.5 31.25 11.5Z" fill="white"/>
</g>
</svg>
