<svg width="40" height="40" viewBox="0 0 40 40" fill="none" xmlns="http://www.w3.org/2000/svg">
<rect width="40" height="40" rx="20" fill="#EE8E6F"/>
<mask id="mask0_1518_28200" style="mask-type:luminance" maskUnits="userSpaceOnUse" x="0" y="0" width="40" height="40">
<rect width="40" height="40" rx="20" fill="white"/>
</mask>
<g mask="url(#mask0_1518_28200)">
<path d="M31.7061 13.9267C31.804 12.6533 31.7061 11.4288 31.5102 10.2043C31.3632 9.1757 30.5795 8.39203 29.551 8.24509C28.2775 8.04917 27.102 7.95121 25.8285 8.04917C25.4857 8.04917 25.3387 8.48999 25.5347 8.73489L31.0204 14.2206C31.3142 14.4165 31.7061 14.2206 31.7061 13.9267Z" fill="white"/>
<path fill-rule="evenodd" clip-rule="evenodd" d="M21.7143 8.68589C21.9592 8.58793 22.2531 8.68589 22.449 8.88181L30.8735 17.3063C31.0694 17.5022 31.1673 17.7471 31.0694 18.041C30.2367 21.0287 28.6204 23.8206 26.3184 26.1226C24.0653 28.3757 21.3224 29.8941 18.4816 30.7757C18.1878 30.8736 17.8939 30.7757 17.698 30.5798L9.17551 22.0573C8.97959 21.8614 8.88163 21.5675 8.97959 21.2736C9.81225 18.4328 11.3796 15.69 13.6327 13.4369C15.9347 11.0859 18.7755 9.51854 21.7143 8.68589ZM17.502 24.2614C17.9429 24.7512 18.6776 24.7512 19.1673 24.2614C19.6571 23.8206 19.6571 23.0859 19.1673 22.5961L16.9633 20.392C16.5224 19.9022 15.7878 19.9022 15.298 20.392C14.8082 20.8328 14.8082 21.5675 15.298 22.0573L17.502 24.2614ZM21.9102 21.5185C21.4204 22.0083 20.6857 22.0083 20.2449 21.5185L18.0408 19.3145C17.551 18.8247 17.551 18.09 18.0408 17.6492C18.5306 17.1594 19.2653 17.1594 19.7061 17.6492L21.9102 19.8532C22.4 20.343 22.4 21.0777 21.9102 21.5185ZM22.9878 18.7757C23.4286 19.2655 24.1633 19.2655 24.6531 18.7757C25.1429 18.3349 25.1429 17.6002 24.6531 17.1104L22.449 14.9063C22.0082 14.4165 21.2735 14.4165 20.7837 14.9063C20.2939 15.3471 20.2939 16.0818 20.7837 16.5716L22.9878 18.7757Z" fill="white"/>
<path d="M8.29388 25.3391C8.19592 26.6616 8.2449 27.984 8.4898 29.3555C8.63674 30.384 9.42041 31.1677 10.449 31.3147C11.7714 31.5106 13.0939 31.6085 14.4653 31.5106C14.8082 31.4616 14.9551 31.0698 14.7592 30.8249L8.93062 25.0453C8.7347 24.8494 8.29388 24.9963 8.29388 25.3391Z" fill="white"/>
</g>
</svg>
