<svg width="40" height="40" viewBox="0 0 40 40" fill="none" xmlns="http://www.w3.org/2000/svg">
<rect width="40" height="40" rx="20" fill="#F77E75"/>
<mask id="mask0_1518_28126" style="mask-type:luminance" maskUnits="userSpaceOnUse" x="0" y="0" width="40" height="40">
<rect width="40" height="40" rx="20" fill="white"/>
</mask>
<g mask="url(#mask0_1518_28126)">
<path d="M27.9999 18.45C26.5999 17.85 26.3999 17.35 26.3999 16.75C26.3999 16.15 26.7999 15.65 27.2999 15.2C28.1499 14.45 28.5999 13.4 28.5999 12.2C28.5999 9.95 27.1999 8 24.6499 8C22.4999 8 21.1499 9.45 20.7999 11.3C20.7499 11.45 20.8499 11.6 20.9499 11.7C22.7499 13 23.8499 15.15 23.8499 17.75C23.8499 19.55 23.2499 21.2 22.1499 22.45C21.9999 22.65 22.0499 22.95 22.2999 23.1C22.9999 23.4 23.7999 23.8 24.5999 24.2C24.8499 24.35 25.0999 24.45 25.3999 24.45H29.9999C31.0999 24.45 31.9999 23.55 31.9999 22.5V22.2C31.9999 20.3 30.0499 19.3 27.9999 18.45Z" fill="white"/>
<path d="M20.85 25.05C19.15 24.35 18.95 23.75 18.95 23.05C18.95 22.35 19.45 21.75 20 21.2C20.95 20.3 21.5 19.1 21.5 17.7C21.5 15.05 19.8 12.8 16.85 12.8C13.9 12.8 12.2 15.1 12.2 17.7C12.2 19.15 12.7 20.35 13.7 21.2C14.25 21.7 14.75 22.35 14.75 23.05C14.75 23.75 14.5 24.35 12.85 25.05C10.4 26.05 8.09998 27.2 8.04998 29.35V29.7C7.99998 30.95 9.09998 32 10.45 32H16.9H23.25C24.55 32 25.65 30.95 25.65 29.7V29.35C25.6 27.2 23.3 26.05 20.85 25.05Z" fill="white"/>
</g>
</svg>
