<svg width="40" height="40" viewBox="0 0 40 40" fill="none" xmlns="http://www.w3.org/2000/svg">
<rect width="40" height="40" rx="20" fill="#E769B4"/>
<mask id="mask0_1518_28236" style="mask-type:luminance" maskUnits="userSpaceOnUse" x="0" y="0" width="40" height="40">
<rect width="40" height="40" rx="20" fill="white"/>
</mask>
<g mask="url(#mask0_1518_28236)">
<path fill-rule="evenodd" clip-rule="evenodd" d="M14.6 20.9504L19.2 25.5004C20.15 26.4504 20.15 28.0004 19.25 28.9004L16.35 31.7504C16.05 32.0504 15.5 32.0504 15.2 31.7504L14.3 30.9004L14 30.6004L9.35002 26.0504L8.80002 25.5004L8.25002 24.9004C7.95002 24.6504 7.95002 24.1004 8.25002 23.8004L11.15 20.9504C12.1 20.0504 13.65 20.0504 14.6 20.9504ZM12.3 23.2504L11.7 23.8004C11.35 24.1004 11.35 24.6004 11.7 24.9004L15.2 28.3004C15.5 28.6004 16 28.6004 16.3 28.3004L16.9 27.7504C17.2 27.5004 17.2 26.9504 16.9 26.6504L13.4 23.2504C13.1 22.9504 12.6 22.9504 12.3 23.2504Z" fill="white"/>
<path d="M16.7001 19.6502L20.4501 23.3002C20.5501 23.4002 20.6001 23.4002 20.7501 23.4002L22.4501 23.3502C22.6501 23.3502 22.8001 23.2002 22.8001 23.0002L22.8501 21.5002C22.8501 21.3002 23.0001 21.1502 23.2001 21.1502L24.7001 21.1002C24.9001 21.1002 25.0501 20.9502 25.0501 20.7502L25.1001 19.2502C25.1001 19.0502 25.2501 18.9002 25.4501 18.9002L26.9501 18.8502C27.1501 18.8502 27.3001 18.7002 27.3001 18.5002L27.3501 17.0002C27.3501 16.8002 27.5001 16.6502 27.7001 16.6502L29.2001 16.6002C29.4001 16.6002 29.5501 16.4502 29.5501 16.2502L29.6001 14.7502C29.6001 14.5502 29.7501 14.4502 29.9001 14.4002L31.5501 14.1502C31.8501 14.1002 32.0001 13.8002 31.8501 13.5502L28.4001 8.35017C28.1001 7.95017 27.5501 7.90017 27.2001 8.25017L16.6501 18.6502C16.4001 18.9002 16.4001 19.3502 16.7001 19.6502Z" fill="white"/>
</g>
</svg>
