<svg width="40" height="40" viewBox="0 0 40 40" fill="none" xmlns="http://www.w3.org/2000/svg">
<rect width="40" height="40" rx="20" fill="#F26891"/>
<mask id="mask0_1518_28266" style="mask-type:luminance" maskUnits="userSpaceOnUse" x="0" y="0" width="40" height="40">
<rect width="40" height="40" rx="20" fill="white"/>
</mask>
<g mask="url(#mask0_1518_28266)">
<path d="M31.2 9.6H17.6H16.8H11.2V8.8C11.2 8.35 10.85 8 10.4 8H8.8C8.35 8 8 8.35 8 8.8V10.4V12V23.2V24.8V31.2C8 31.65 8.35 32 8.8 32H10.4C10.85 32 11.2 31.65 11.2 31.2V24.8V23.2V12.8H16.8H17.6H31.2C31.65 12.8 32 12.45 32 12V10.4C32 9.95 31.65 9.6 31.2 9.6Z" fill="white"/>
<path fill-rule="evenodd" clip-rule="evenodd" d="M16 15.2002H29.6C30.9 15.2002 32 16.3002 32 17.6002V26.4002C32 27.7002 30.9 28.8002 29.6 28.8002H16C14.7 28.8002 13.6 27.7002 13.6 26.4002V17.6002C13.6 16.3002 14.7 15.2002 16 15.2002ZM26.4 22.0002H27.4C27.6 22.0002 27.7 21.7502 27.6 21.6502L23.1 17.3002C22.95 17.2002 22.75 17.2002 22.6 17.3002L18.1 21.6502C17.9 21.7502 18 22.0002 18.2 22.0002H19.2V26.0002C19.2 26.2502 19.35 26.4002 19.6 26.4002H21.2C21.45 26.4002 21.6 26.2502 21.6 26.0002V23.6002C21.6 23.3502 21.75 23.2002 22 23.2002H23.6C23.85 23.2002 24 23.3502 24 23.6002V26.0002C24 26.2502 24.15 26.4002 24.4 26.4002H26C26.25 26.4002 26.4 26.2502 26.4 26.0002V22.0002Z" fill="white"/>
</g>
</svg>
