<svg width="40" height="40" viewBox="0 0 40 40" fill="none" xmlns="http://www.w3.org/2000/svg">
<rect width="40" height="40" rx="20" fill="#5A9CDD"/>
<mask id="mask0_1518_28210" style="mask-type:luminance" maskUnits="userSpaceOnUse" x="0" y="0" width="40" height="40">
<rect width="40" height="40" rx="20" fill="white"/>
</mask>
<g mask="url(#mask0_1518_28210)">
<path d="M21.1755 21.2244V31.1183C21.1755 31.4611 21.5184 31.6081 21.7633 31.4611C23.6735 30.3836 29.5021 27.004 29.5021 27.004C30.2368 26.5632 30.7266 25.7305 30.7266 24.8489V15.9836C30.7266 15.6407 30.3837 15.4938 30.1388 15.6407L21.5674 20.5387C21.3715 20.6856 21.1755 20.9305 21.1755 21.2244Z" fill="white"/>
<path d="M20.3919 18.4326L29.0123 13.5347C29.3062 13.3877 29.3062 12.9959 29.0123 12.8489C27.1021 11.7714 21.2245 8.34282 21.2245 8.34282C20.4899 7.902 19.5103 7.902 18.7266 8.34282C18.7266 8.34282 12.849 11.7224 10.9388 12.8489C10.6939 12.9959 10.6939 13.3877 10.9878 13.5347L19.6082 18.4326C19.8531 18.5796 20.147 18.5796 20.3919 18.4326Z" fill="white"/>
<path d="M18.3837 20.4898L9.81224 15.5918C9.56734 15.4449 9.22449 15.6408 9.22449 15.9837V24.849C9.22449 25.7306 9.71428 26.5633 10.449 27.0041C10.449 27.0041 16.2775 30.3837 18.1878 31.4612C18.4816 31.6082 18.7755 31.4122 18.7755 31.1184V21.2245C18.8245 20.9306 18.6286 20.6857 18.3837 20.4898Z" fill="white"/>
</g>
</svg>
