<svg width="40" height="40" viewBox="0 0 40 40" fill="none" xmlns="http://www.w3.org/2000/svg">
<rect width="40" height="40" rx="20" fill="#83B6FF"/>
<mask id="mask0_1518_28300" style="mask-type:luminance" maskUnits="userSpaceOnUse" x="0" y="0" width="40" height="40">
<rect width="40" height="40" rx="20" fill="white"/>
</mask>
<g mask="url(#mask0_1518_28300)">
<path d="M15.6076 20.9054C14.9736 19.9545 14.6566 18.8677 14.6566 17.6451C14.6566 15.562 15.517 13.8413 16.8755 12.7998C16.4227 11.9847 15.517 11.396 14.3397 11.396C12.3472 11.396 11.2151 13.0262 11.2151 14.8828C11.2151 15.879 11.5321 16.7394 12.2114 17.3281C12.5736 17.6903 12.8906 18.1432 12.8906 18.596C12.8906 19.0488 12.7095 19.5017 11.5774 19.9998C9.94722 20.7243 8.45288 21.7205 8.40759 23.2149C8.45288 24.2111 9.08684 24.9809 10.0378 24.9809H11.5321C11.7585 24.9809 11.985 24.8451 12.1208 24.6186C12.8453 23.3054 14.2038 22.4903 15.3359 21.9017C15.7434 21.7205 15.834 21.2224 15.6076 20.9054Z" fill="white"/>
<path d="M28.8302 19.9998C27.6981 19.5017 27.517 19.0941 27.517 18.596C27.517 18.0979 27.834 17.6451 28.1963 17.3281C28.8755 16.6941 29.1925 15.879 29.1925 14.8828C29.1925 13.0262 28.1057 11.396 26.0679 11.396C24.8906 11.396 23.9849 11.9847 23.4868 12.7998C24.8453 13.8413 25.7057 15.562 25.7057 17.6451C25.7057 18.8677 25.3887 19.9545 24.7547 20.9054C24.5283 21.2677 24.6642 21.7205 25.0264 21.9017C26.1585 22.4451 27.517 23.3054 28.2415 24.6186C28.3774 24.8451 28.6038 24.9809 28.8302 24.9809H30.3246C31.2755 24.9809 31.9095 24.2111 31.9095 23.2149C31.9547 21.7205 30.4604 20.7243 28.8302 19.9998Z" fill="white"/>
<path d="M23.2151 23.3055C21.9925 22.7621 21.7661 22.264 21.7661 21.7658C21.7661 21.2224 22.1283 20.7243 22.5359 20.3621C23.2604 19.6828 23.6679 18.7319 23.6679 17.6451C23.6679 15.6073 22.4453 13.8413 20.2264 13.8413C18.0076 13.8413 16.7849 15.6073 16.7849 17.6451C16.7849 18.7319 17.1925 19.6828 17.917 20.3621C18.3246 20.7696 18.6868 21.2677 18.6868 21.7658C18.6868 22.3092 18.5057 22.7621 17.2378 23.3055C15.4264 24.0753 13.7057 24.9356 13.6604 26.5658C13.6604 27.6526 14.4755 28.5583 15.517 28.5583H20.2264H24.9359C25.9774 28.5583 26.7925 27.6526 26.7925 26.5658C26.7472 24.9356 25.0264 24.1206 23.2151 23.3055Z" fill="white"/>
</g>
</svg>
