<svg width="40" height="40" viewBox="0 0 40 40" fill="none" xmlns="http://www.w3.org/2000/svg">
<rect width="40" height="40" rx="20" fill="#3CC2B3"/>
<mask id="mask0_1518_28124" style="mask-type:luminance" maskUnits="userSpaceOnUse" x="0" y="0" width="40" height="40">
<rect width="40" height="40" rx="20" fill="white"/>
</mask>
<g mask="url(#mask0_1518_28124)">
<path d="M31.2 12.85H28.8C28.3 12.85 27.75 12.6 27.35 12.25L25.45 10.6C25.05 10.25 24.5 10 24 10H19.3C18.7 10 18.15 10.25 17.7 10.7L15.2 12.75C15 12.9 15 13.25 15.15 13.45L15.9 14.2C16.4 14.6 17.1 14.7 17.6 14.3L19.8 12.95C20.1 12.75 20.5 12.85 20.7 13.05L27.6 19.85C27.75 20 27.9 20.25 27.9 20.5V22.3C27.9 22.8 28.25 23.3 28.7 23.3H31.1C31.55 23.3 31.9 22.95 31.9 22.45V13.65C32 13.15 31.65 12.85 31.2 12.85Z" fill="white"/>
<path d="M24.4 20.1L20.1 15.85L18.9 16.6C18.3 16.95 17.6 17.15 16.95 17.15C16.1 17.15 15.25 16.85 14.55 16.25L12.95 15C12.6 14.7 12.4 14.4 12.35 13.95C12.25 13.5 11.95 13.25 11.55 13.25H9.65H8.8C8.35 13.25 8 13.5 8 13.95V21.3C8 21.8 8.35 22.1 8.8 22.1H10.4C10.5 22.1 10.7 21.65 10.85 21.45C11.45 20.65 12.35 20.2 13.3 20.05C14.25 19.95 15.2 20.3 15.95 21L20.95 25.6C21.4 26 21.7 26.45 21.9 27C22 27.3 22.35 27.35 22.55 27.15L24.45 25.25C25.4 24.3 26.15 22 25.25 20.95L24.4 20.1Z" fill="white"/>
<path d="M14.35 23.0999C13.85 22.5999 13.05 22.6999 12.65 23.2499C12.2 23.7999 12.3 24.6499 12.8 25.0999L17.8 29.6499C18.05 29.8999 18.35 29.9499 18.7 29.9499C19 29.8999 19.3 29.7499 19.5 29.4499C19.95 28.8999 19.85 28.0499 19.35 27.5999L14.35 23.0999Z" fill="white"/>
</g>
</svg>
