<svg width="40" height="40" viewBox="0 0 40 40" fill="none" xmlns="http://www.w3.org/2000/svg">
<rect width="40" height="40" rx="20" fill="#4FBE75"/>
<mask id="mask0_1518_28174" style="mask-type:luminance" maskUnits="userSpaceOnUse" x="0" y="0" width="40" height="40">
<rect width="40" height="40" rx="20" fill="white"/>
</mask>
<g mask="url(#mask0_1518_28174)">
<path d="M25.3388 11.8695C25.2408 11.5756 24.898 11.3797 24.6041 11.4286L8.78368 16.5225C8.39184 16.6205 8.19593 17.0613 8.29388 17.4531L8.93062 19.9021C9.02858 20.294 9.42041 20.5878 9.81225 20.4899L13.8286 19.9511C13.9265 20.3919 14.1225 20.8327 14.4163 21.1756L10.9878 30.4327C10.7429 31.0205 11.0367 31.7062 11.6735 31.9021C11.7714 31.9511 11.9674 32.0001 12.0653 32.0001C12.5551 32.0001 12.9959 31.7062 13.1429 31.2164L16.3755 22.4491C16.6694 22.547 16.8653 22.547 17.1592 22.547C17.4531 22.547 17.698 22.498 17.9429 22.4491L21.1755 31.2164C21.3225 31.7062 21.8123 32.0001 22.2531 32.0001C22.351 32.0001 22.5469 31.9511 22.6449 31.9021C23.2816 31.6572 23.5755 31.0205 23.3306 30.3837L19.902 21.0776C20.3429 20.4899 20.5878 19.7552 20.5878 18.9715V18.9225L26.1225 18.1388C26.4653 18.0899 26.7102 17.747 26.6123 17.4042L25.3388 11.8695Z" fill="white"/>
<path d="M31.7062 17.4041L29.5511 9.37146C29.4041 8.73473 28.7184 8.34289 28.0817 8.48983C27.4449 8.63677 27.0531 9.32248 27.2 9.95922L29.3551 17.9429C29.5021 18.5796 30.1878 18.9715 30.8245 18.8245C31.4613 18.6776 31.8531 17.9919 31.7062 17.4041Z" fill="white"/>
</g>
</svg>
