<svg width="40" height="40" viewBox="0 0 40 40" fill="none" xmlns="http://www.w3.org/2000/svg">
<rect width="40" height="40" rx="20" fill="#6B92DC"/>
<mask id="mask0_1518_28220" style="mask-type:luminance" maskUnits="userSpaceOnUse" x="0" y="0" width="40" height="40">
<rect width="40" height="40" rx="20" fill="white"/>
</mask>
<g mask="url(#mask0_1518_28220)">
<path d="M30.8 27.6001H9.2C8.55 27.6001 8 28.1001 8 28.8001C8 29.4501 8.5 30.0001 9.2 30.0001H30.8C31.45 30.0001 32 29.5001 32 28.8001C32 28.1001 31.5 27.6001 30.8 27.6001Z" fill="white"/>
<path fill-rule="evenodd" clip-rule="evenodd" d="M9.60005 25.2H23.2V23.6C23.2 23.15 23.55 22.8 24 22.8H28C28.4501 22.8 28.8 23.15 28.8 23.6V25.2H30.4C30.85 25.2 31.2 24.85 31.2 24.4V10.8C31.2 10.35 30.85 10 30.4 10H9.60005C9.15005 10 8.80005 10.35 8.80005 10.8V24.4C8.80005 24.85 9.15005 25.2 9.60005 25.2ZM13.2 14.8C13.2 14.35 13.55 14 14 14H25.6C26.05 14 26.4 14.35 26.4 14.8V15.6C26.4 16.05 26.05 16.4 25.6 16.4H14C13.55 16.4 13.2 16.05 13.2 15.6V14.8ZM14 18.8C13.55 18.8 13.2 19.15 13.2 19.6V20.4C13.2 20.85 13.55 21.2 14 21.2H21.6C22.05 21.2 22.4 20.85 22.4 20.4V19.6C22.4 19.15 22.05 18.8 21.6 18.8H14Z" fill="white"/>
</g>
</svg>
