<svg width="40" height="40" viewBox="0 0 40 40" fill="none" xmlns="http://www.w3.org/2000/svg">
<rect width="40" height="40" rx="20" fill="#E25C80"/>
<mask id="mask0_1518_28194" style="mask-type:luminance" maskUnits="userSpaceOnUse" x="0" y="0" width="40" height="40">
<rect width="40" height="40" rx="20" fill="white"/>
</mask>
<g mask="url(#mask0_1518_28194)">
<path fill-rule="evenodd" clip-rule="evenodd" d="M16.4 19.9999C16.4 17.9999 18 16.3999 20 16.3999C22 16.3999 23.6 17.9999 23.6 19.9999C23.6 21.9999 22 23.5999 20 23.5999C18 23.5999 16.4 21.9999 16.4 19.9999ZM18 19.9999C18 21.0999 18.9 21.9999 20 21.9999C21.1 21.9999 22 21.0999 22 19.9999C22 18.8999 21.1 17.9999 20 17.9999C18.9 17.9999 18 18.8999 18 19.9999Z" fill="white"/>
<path fill-rule="evenodd" clip-rule="evenodd" d="M8 20C8 13.35 13.35 8 20 8C26.65 8 32 13.35 32 20C32 26.65 26.65 32 20 32C13.35 32 8 26.65 8 20ZM19.1 29.95C19.6 30 20 29.65 20 29.15V28.35C20 27.95 19.7 27.6 19.3 27.55C15.7 27.2 12.8 24.3 12.45 20.7C12.4 20.3 12.05 20 11.65 20H10.85C10.35 20 10 20.4 10 20.85C10.45 25.7 14.3 29.55 19.1 29.95ZM20 26C16.7 26 14 23.3 14 20C14 16.7 16.7 14 20 14C23.3 14 26 16.7 26 20C26 23.3 23.3 26 20 26ZM28.35 20H29.15C29.65 20 30 19.6 30 19.15C29.6 14.35 25.75 10.45 20.9 10.05C20.4 10 20 10.35 20 10.85V11.65C20 12.05 20.3 12.4 20.7 12.45C24.3 12.8 27.2 15.7 27.55 19.3C27.6 19.7 27.95 20 28.35 20Z" fill="white"/>
</g>
</svg>
