<svg width="40" height="40" viewBox="0 0 40 40" fill="none" xmlns="http://www.w3.org/2000/svg">
<rect width="40" height="40" rx="20" fill="#41C8A0"/>
<mask id="mask0_1518_28244" style="mask-type:luminance" maskUnits="userSpaceOnUse" x="0" y="0" width="40" height="40">
<rect width="40" height="40" rx="20" fill="white"/>
</mask>
<g mask="url(#mask0_1518_28244)">
<path d="M22.05 29.2002H17.95C17.5 29.2002 17.15 29.5502 17.15 30.0002V31.2002C17.15 31.6502 17.5 32.0002 17.95 32.0002H22.05C22.5 32.0002 22.85 31.6502 22.85 31.2002V30.0002C22.85 29.5502 22.5 29.2002 22.05 29.2002Z" fill="white"/>
<path fill-rule="evenodd" clip-rule="evenodd" d="M11 16.4C11 11.75 15 8 20 8C25 8 29 11.75 28.95 16.4C28.95 19.4 27.3 22 24.8 23.5C23.8 24.05 23.15 25 22.95 26.1C22.9 26.45 22.55 26.75 22.15 26.75H17.9C17.5 26.75 17.2 26.45 17.1 26.1C16.9 25 16.25 24.05 15.25 23.5C12.7 22.05 11 19.4 11 16.4ZM15.9 16.5C15.95 15.05 16.4 13.25 17.2 11.75C17.4 11.45 17.05 11.1 16.7 11.15C12.65 12.5 12.4 19.4 16.15 21.3C16.5 21.5 16.85 21.15 16.7 20.8C16.2 19.4 15.9 18 15.9 16.5ZM20.35 21.3C20.25 21.6 19.75 21.6 19.6 21.3C18.95 19.75 18.8 17.9 18.75 16.2C18.8 14.5 18.95 12.7 19.6 11.1C19.7 10.8 20.2 10.8 20.35 11.1C21 12.65 21.15 14.5 21.2 16.2C21.2 17.9 21 19.7 20.35 21.3ZM23.15 20.85C23 21.2 23.35 21.5 23.7 21.35C27.5 19.5 27.25 12.55 23.2 11.25C22.85 11.1 22.55 11.5 22.7 11.8C23.5 13.25 23.95 15 24 16.3C23.95 17.8 23.7 19.4 23.15 20.85Z" fill="white"/>
</g>
</svg>
