<svg width="40" height="40" viewBox="0 0 40 40" fill="none" xmlns="http://www.w3.org/2000/svg">
<rect width="40" height="40" rx="20" fill="#8BCF6A"/>
<mask id="mask0_1518_28286" style="mask-type:luminance" maskUnits="userSpaceOnUse" x="0" y="0" width="40" height="40">
<rect width="40" height="40" rx="20" fill="white"/>
</mask>
<g mask="url(#mask0_1518_28286)">
<path fill-rule="evenodd" clip-rule="evenodd" d="M21.2 10.4V12.1C26.15 12.7 30 16.9 30 22C30 27.5 25.5 32 20 32C14.5 32 10 27.5 10 22C10 16.9 13.85 12.7 18.8 12.1V10.4H18.4C17.7 10.4 17.2 9.85 17.2 9.2C17.2 8.5 17.75 8 18.4 8H21.6C22.3 8 22.8 8.55 22.8 9.2C22.8 9.9 22.25 10.4 21.6 10.4H21.2ZM12.4 22C12.4 26.2 15.8 29.6 20 29.6C24.2 29.6 27.6 26.2 27.6 22C27.6 17.8 24.2 14.4 20 14.4C15.8 14.4 12.4 17.8 12.4 22Z" fill="white"/>
<path d="M22.65 17.9001L20.8 19.7501C20.55 19.6501 20.3 19.6001 20 19.6001C18.7 19.6001 17.6 20.7001 17.6 22.0001C17.6 23.3001 18.7 24.4001 20 24.4001C21.3 24.4001 22.4 23.3001 22.4 22.0001C22.4 21.7001 22.35 21.4501 22.25 21.2001L24.1 19.3501C24.5 18.9501 24.5 18.3001 24.1 17.9001C23.7 17.5001 23.05 17.5001 22.65 17.9001Z" fill="white"/>
</g>
</svg>
