<svg width="40" height="40" viewBox="0 0 40 40" fill="none" xmlns="http://www.w3.org/2000/svg">
<rect width="40" height="40" rx="20" fill="#38C393"/>
<mask id="mask0_1518_28160" style="mask-type:luminance" maskUnits="userSpaceOnUse" x="0" y="0" width="40" height="40">
<rect width="40" height="40" rx="20" fill="white"/>
</mask>
<g mask="url(#mask0_1518_28160)">
<path fill-rule="evenodd" clip-rule="evenodd" d="M31.4 14.1L22.05 19.45C21.85 19.55 21.65 19.6 21.45 19.6C21 19.6 20.55 19.35 20.35 18.9C20.05 18.35 20.35 17.6 20.9 17.3L24 15.55V12.5C24 12.2 23.7 12 23.4 12.15L12 18.65C11.8 18.75 11.6 18.8 11.4 18.8C11 18.8 10.55 18.6 10.35 18.2C10.05 17.65 10.25 16.9 10.8 16.55L12.75 15.45V8.8C12.8 8.35 12.45 8 12 8H8.8C8.35 8 8 8.35 8 8.8V29.6C8 30.9 9.1 32 10.4 32H12.8H17.2C17.65 32 18 31.65 18 31.2V28.4C18 27.95 18.35 27.6 18.8 27.6H21.2C21.65 27.6 22 27.95 22 28.4V31.2C22 31.65 22.35 32 22.8 32H29.6C30.9 32 32 30.9 32 29.6V16.3V14.5C32 14.15 31.7 13.95 31.4 14.1ZM14 25.2C14 25.65 13.65 26 13.2 26H12.4C11.95 26 11.6 25.65 11.6 25.2V22.8C11.6 22.35 11.95 22 12.4 22H13.2C13.65 22 14 22.35 14 22.8V25.2ZM18 26C18.45 26 18.8 25.65 18.8 25.2V22.8C18.8 22.35 18.45 22 18 22H17.2C16.75 22 16.4 22.35 16.4 22.8V25.2C16.4 25.65 16.75 26 17.2 26H18ZM23.6 25.2C23.6 25.65 23.25 26 22.8 26H22C21.55 26 21.2 25.65 21.2 25.2V22.8C21.2 22.35 21.55 22 22 22H22.8C23.25 22 23.6 22.35 23.6 22.8V25.2ZM27.6 26C28.05 26 28.4 25.65 28.4 25.2V22.8C28.4 22.35 28.05 22 27.6 22H26.8C26.35 22 26 22.35 26 22.8V25.2C26 25.65 26.35 26 26.8 26H27.6Z" fill="white"/>
</g>
</svg>
