<svg width="40" height="40" viewBox="0 0 40 40" fill="none" xmlns="http://www.w3.org/2000/svg">
<rect width="40" height="40" rx="20" fill="#DB6D7A"/>
<mask id="mask0_1518_28248" style="mask-type:luminance" maskUnits="userSpaceOnUse" x="0" y="0" width="40" height="40">
<rect width="40" height="40" rx="20" fill="white"/>
</mask>
<g mask="url(#mask0_1518_28248)">
<path d="M19.951 22.4002C19.8531 22.1063 19.5102 21.8614 19.1673 21.9104C19.0694 21.9104 18.9224 21.9104 18.8245 21.9104C14.4163 21.9104 10.8408 18.3839 10.8408 14.0247C10.8408 13.9267 10.8408 13.9267 10.8408 13.8288C10.8408 13.4369 10.302 13.29 10.1061 13.5839C9.81224 13.9757 9.61633 14.4655 9.46939 14.9553C8.78367 17.2083 9.66531 19.6573 11.5755 21.0288C12.4571 21.6655 13.3878 21.9594 14.3184 22.0573L14.6122 22.792C14.6612 22.89 14.7102 22.9879 14.8082 23.0369L15.9837 23.5267C16.1796 23.6247 16.2776 23.8206 16.1796 24.0165L15.7878 25.143C15.6898 25.339 15.8367 25.5349 15.9837 25.6328L16.6204 25.9267C16.8163 26.0247 16.9143 26.2206 16.8163 26.4165L16.4735 27.641C16.4245 27.8369 16.5224 28.0328 16.6694 28.1308L17.6 28.5226C17.7959 28.6206 17.8939 28.8165 17.7959 29.0124L17.4531 30.2369C17.4041 30.4328 17.502 30.6288 17.698 30.7267L20.3918 31.9512C20.5878 32.0492 20.8327 31.9512 20.9306 31.7553L22.1061 29.1104C22.2041 28.9145 22.2041 28.7186 22.1551 28.5226L19.951 22.4002Z" fill="white"/>
<path fill-rule="evenodd" clip-rule="evenodd" d="M24.1633 15.4448L30.5307 22.0081C30.6776 22.1061 30.7756 22.302 30.7266 22.4979V25.3877C30.7266 25.6326 30.5796 25.7795 30.3347 25.7795H27.347C27.1511 25.7795 27.0041 25.6816 26.9551 25.4857L26.7592 24.2122C26.7592 23.9673 26.6123 23.8204 26.3674 23.8204H25.3878C25.1919 23.8204 25.0449 23.7224 24.996 23.5265L24.8 22.253C24.8 22.0081 24.6531 21.8612 24.4082 21.8612H23.6245C23.4286 21.8612 23.2327 21.7142 23.2327 21.5183L23.1347 20.2938C23.1347 20.0489 22.9878 19.902 22.7429 19.902H21.3715C21.2245 19.902 21.1756 19.902 21.0776 19.804L20.5388 19.2163C19.6572 19.5102 18.6286 19.6081 17.6 19.4122C15.249 18.9714 13.4858 17.0122 13.1919 14.6612C12.849 11.2326 15.6409 8.3428 19.0694 8.48974C21.3715 8.63668 23.3307 10.155 24.0653 12.2612C24.4572 13.3877 24.4572 14.4653 24.1633 15.4448ZM15.9837 13.1918C15.9837 14.2693 16.8653 15.151 17.9919 15.151C19.1184 15.151 20 14.2693 20 13.1918C20 12.1142 19.1184 11.2326 17.9919 11.2326C16.8653 11.2326 15.9837 12.1142 15.9837 13.1918Z" fill="white"/>
</g>
</svg>
