<svg width="40" height="40" viewBox="0 0 40 40" fill="none" xmlns="http://www.w3.org/2000/svg">
<rect width="40" height="40" rx="20" fill="#8C89F2"/>
<mask id="mask0_1518_28170" style="mask-type:luminance" maskUnits="userSpaceOnUse" x="0" y="0" width="40" height="40">
<rect width="40" height="40" rx="20" fill="white"/>
</mask>
<g mask="url(#mask0_1518_28170)">
<path fill-rule="evenodd" clip-rule="evenodd" d="M29 22.25H31.25C31.65 22.25 32 22.6 32 23V24.8C32 25.25 31.65 25.65 31.25 25.65H29.75V25.95V29.7C29.75 30.1 29.4 30.5 29 30.5H26.75C26.35 30.5 26 30.1 26 29.7V28.2C26 26.95 25 26 23.75 26H16.25C15 26 14 26.95 14 28.2V29.7C14 30.1 13.65 30.5 13.25 30.5H11C10.6 30.5 10.25 30.1 10.25 29.7V25.95V25.65H8.75C8.35 25.65 8 25.2 8 24.8V23C8 22.6 8.35 22.25 8.75 22.15H11H13.7V17.75C12.7 18.6 11.35 19.15 9.95 19.15C9.35 19.15 8.85 18.65 8.85 18.05C8.85 17.45 9.3 16.95 9.95 16.95C12 16.95 13.7 15.15 13.7 12.85V11.75C13.3 11.75 12.95 11.4 12.95 11V10.25C12.95 9.85 13.3 9.5 13.7 9.5H15.95C16.35 9.5 16.7 9.85 16.7 10.25V11C16.7 11.4 16.35 11.75 15.95 11.75V12.85C15.95 15.1 17.8 16.95 20.05 16.95C22.3 16.95 24.15 15.15 24.15 12.85V11.75C23.75 11.75 23.4 11.4 23.4 11V10.25C23.4 9.85 23.75 9.5 24.15 9.5H26.4C26.8 9.5 27.15 9.85 27.15 10.25V11C27.15 11.4 26.8 11.75 26.4 11.75V12.95C26.4 15.2 28.1 17.05 30.15 17.05C30.75 17.05 31.25 17.55 31.25 18.15C31.25 18.75 30.8 19.25 30.15 19.25C28.7 19.25 27.4 18.7 26.4 17.85V22.25H29ZM20 19.25C18.45 19.25 17 18.65 15.9 17.7V22.25H24.1V17.7C23 18.7 21.55 19.25 20 19.25Z" fill="white"/>
</g>
</svg>
