<svg width="40" height="40" viewBox="0 0 40 40" fill="none" xmlns="http://www.w3.org/2000/svg">
<rect width="40" height="40" rx="20" fill="#D58A6A"/>
<mask id="mask0_1518_28164" style="mask-type:luminance" maskUnits="userSpaceOnUse" x="0" y="0" width="40" height="40">
<rect width="40" height="40" rx="20" fill="white"/>
</mask>
<g mask="url(#mask0_1518_28164)">
<path d="M16.928 12.08H23.072C23.504 12.08 23.84 11.648 23.744 11.216C23.36 9.53599 21.824 8.23999 20 8.23999C18.176 8.23999 16.64 9.53599 16.256 11.216C16.16 11.648 16.496 12.08 16.928 12.08Z" fill="white"/>
<path d="M30.368 22.064C31.04 22.064 31.568 21.536 31.52 20.816C31.472 20.24 30.944 19.76 30.272 19.76H26.912V17.84C29.12 16.976 30.704 14.576 30.752 11.744C30.752 11.168 30.368 10.688 29.792 10.544C29.072 10.448 28.448 10.976 28.448 11.696C28.448 13.328 27.68 14.768 26.576 15.44C26.144 14.768 25.424 14.384 24.608 14.384H15.392C14.576 14.384 13.856 14.816 13.424 15.44C12.32 14.768 11.552 13.376 11.552 11.744C11.552 11.12 11.072 10.544 10.496 10.496C9.82396 10.448 9.24796 10.976 9.24796 11.648C9.24796 14.48 10.88 16.928 13.088 17.792V19.712H9.72796C9.10396 19.712 8.52796 20.192 8.47996 20.768C8.43196 21.44 8.95996 22.016 9.63196 22.016H13.088V23.936C10.88 24.8 9.29596 27.2 9.24796 30.032C9.24796 30.608 9.63196 31.088 10.208 31.232C10.928 31.328 11.552 30.8 11.552 30.08C11.552 28.448 12.272 27.056 13.376 26.336C14.048 28.496 15.728 30.176 17.84 30.848C18.32 30.992 18.848 30.608 18.848 30.128V21.008C18.848 20.384 19.328 19.808 19.904 19.76C20.576 19.712 21.152 20.24 21.152 20.912V30.176C21.152 30.704 21.632 31.04 22.16 30.896C24.272 30.224 25.952 28.496 26.624 26.384C27.68 27.056 28.448 28.448 28.448 30.032C28.448 30.656 28.928 31.232 29.504 31.28C30.176 31.328 30.752 30.8 30.752 30.128C30.752 27.296 29.12 24.848 26.912 23.984V22.064H30.368Z" fill="white"/>
</g>
</svg>
