<svg width="40" height="40" viewBox="0 0 40 40" fill="none" xmlns="http://www.w3.org/2000/svg">
<rect width="40" height="40" rx="20" fill="#D8C760"/>
<mask id="mask0_1518_28198" style="mask-type:luminance" maskUnits="userSpaceOnUse" x="0" y="0" width="40" height="40">
<rect width="40" height="40" rx="20" fill="white"/>
</mask>
<g mask="url(#mask0_1518_28198)">
<path d="M16.3266 10.2042C17.3062 10.8899 18.2368 12.4573 18.6286 13.6818C18.7266 13.9756 18.9225 14.1716 19.2164 14.1716C19.5102 14.2695 19.7062 14.2695 20 14.2695C20.4409 14.2695 20.7837 14.2695 21.1266 14.1226C22.1062 13.7797 22.9878 13.3389 23.7225 12.6042C24.898 11.3797 25.3388 9.66544 24.898 8.24503C23.4776 7.80421 21.7633 8.19605 20.5878 9.42054C20.2449 9.7634 19.9511 10.1552 19.7551 10.5961C19.1184 9.61646 18.3837 8.73483 17.5511 8.19605C16.9633 7.85319 16.2286 8.04911 15.8858 8.63687C15.5919 9.17564 15.8368 9.86136 16.3266 10.2042Z" fill="white"/>
<path d="M28.1796 15.935C24.2123 13.682 23.3796 16.7187 20 16.7187C16.6204 16.7187 15.7878 13.682 11.8204 15.935C8.00002 18.1391 9.12655 25.3391 10.6449 28.082C12.0163 30.482 14.5143 32.9309 19.6572 30.5799C19.8531 30.482 20.098 30.482 20.2939 30.5799C25.4368 32.9309 27.9837 30.433 29.3061 28.082C30.8735 25.3391 32 18.1391 28.1796 15.935Z" fill="white"/>
</g>
</svg>
