<svg width="40" height="40" viewBox="0 0 40 40" fill="none" xmlns="http://www.w3.org/2000/svg">
<rect width="40" height="40" rx="20" fill="#ECB46C"/>
<mask id="mask0_1518_28102" style="mask-type:luminance" maskUnits="userSpaceOnUse" x="0" y="0" width="40" height="40">
<rect width="40" height="40" rx="20" fill="white"/>
</mask>
<g mask="url(#mask0_1518_28102)">
<path d="M20 15.053C17.4041 15.053 15.298 17.1591 15.298 19.755C15.298 22.3509 17.4041 24.4571 20 24.4571C22.5959 24.4571 24.7021 22.3509 24.7021 19.755C24.7021 17.1591 22.5959 15.053 20 15.053Z" fill="white"/>
<path fill-rule="evenodd" clip-rule="evenodd" d="M29.7856 17.9143C30.7666 18.4563 31.7551 19.0024 31.7551 19.7551C31.7551 20.5042 30.776 21.0487 29.7917 21.5962C28.9739 22.051 28.1524 22.5078 27.8857 23.0857C27.6366 23.6518 27.89 24.5633 28.1426 25.4719C28.4363 26.5286 28.7289 27.5812 28.2285 28.0816C27.7231 28.5871 26.6686 28.2978 25.6065 28.0065C24.7132 27.7615 23.8144 27.515 23.2326 27.7388C22.6802 27.9819 22.2374 28.7833 21.7918 29.5897C21.2498 30.5707 20.7037 31.5592 19.951 31.5592C19.2035 31.5592 18.6597 30.5696 18.1213 29.59C17.672 28.7724 17.2264 27.9616 16.6694 27.7388C16.1033 27.4897 15.1917 27.7431 14.2832 27.9956C13.2265 28.2894 12.1738 28.582 11.6734 28.0816C11.1676 27.5491 11.4722 26.4811 11.777 25.4126C12.0328 24.5155 12.2888 23.618 12.0653 23.0367C11.8222 22.4843 11.0208 22.0415 10.2143 21.5959C9.23333 21.0539 8.24487 20.5078 8.24487 19.7551C8.24487 19.0148 9.20116 18.4743 10.1583 17.9333C10.9743 17.4721 11.7909 17.0105 12.0163 16.4245C12.263 15.8639 12.0066 14.9644 11.75 14.0646C11.4463 12.9991 11.1424 11.9331 11.6734 11.4286C12.2059 10.9227 13.2739 11.2273 14.3425 11.5321C15.2396 11.788 16.1371 12.044 16.7183 11.8204C17.2708 11.5773 17.7136 10.7759 18.1592 9.96946C18.7012 8.98846 19.2473 8 20 8C20.7403 8 21.2808 8.95628 21.8218 9.91346C22.283 10.7294 22.7446 11.546 23.3306 11.7714C23.8912 12.0181 24.7907 11.7617 25.6905 11.5052C26.756 11.2014 27.822 10.8975 28.3265 11.4286C28.8324 11.9611 28.5278 13.0291 28.223 14.0976C27.9671 14.9947 27.7111 15.8922 27.9347 16.4735C28.1778 17.0259 28.9792 17.4687 29.7856 17.9143ZM12.9469 19.7551C12.9469 23.6245 16.1306 26.8082 20 26.8082C23.8694 26.8082 27.053 23.6245 27.053 19.7551C27.053 15.8857 23.8694 12.702 20 12.702C16.1306 12.702 12.9469 15.8857 12.9469 19.7551Z" fill="white"/>
</g>
</svg>
