<svg width="40" height="40" viewBox="0 0 40 40" fill="none" xmlns="http://www.w3.org/2000/svg">
<rect width="40" height="40" rx="20" fill="#D8BE5F"/>
<mask id="mask0_1518_28228" style="mask-type:luminance" maskUnits="userSpaceOnUse" x="0" y="0" width="40" height="40">
<rect width="40" height="40" rx="20" fill="white"/>
</mask>
<g mask="url(#mask0_1518_28228)">
<path fill-rule="evenodd" clip-rule="evenodd" d="M30.8245 22.1062L25.1428 16.3756C24.2612 15.4939 22.7918 15.4939 21.9102 16.3756L16.1306 22.1062C15.249 22.9878 15.249 24.4572 16.1306 25.3388L21.8612 31.0695C22.7428 31.9511 24.2122 31.9511 25.0939 31.0695L30.8245 25.3388C31.7551 24.5062 31.7551 22.9878 30.8245 22.1062ZM20.049 24.7021C19.5102 25.2409 18.6285 25.2409 18.1387 24.7021C17.6 24.1633 17.6 23.2817 18.1387 22.7919C18.6775 22.2531 19.5592 22.2531 20.049 22.7919C20.5387 23.3307 20.5387 24.1633 20.049 24.7021ZM22.5469 29.1593C23.0367 29.698 23.9183 29.698 24.4571 29.1593C24.9469 28.6205 24.9469 27.7388 24.4571 27.249C23.9673 26.7103 23.0857 26.7103 22.5469 27.249C22.0081 27.7388 22.0081 28.6205 22.5469 29.1593ZM24.4571 20.2939C23.9183 20.8327 23.0367 20.8327 22.5469 20.2939C22.0081 19.7552 22.0081 18.8735 22.5469 18.3837C23.0857 17.845 23.9673 17.845 24.4571 18.3837C24.9469 18.8735 24.9469 19.7552 24.4571 20.2939ZM26.9551 24.7021C27.4449 25.2409 28.3265 25.2409 28.8653 24.7021C29.453 24.1633 29.453 23.3307 28.8653 22.7919C28.3755 22.2531 27.4938 22.2531 26.9551 22.7919C26.4163 23.2817 26.4163 24.1633 26.9551 24.7021Z" fill="white"/>
<path fill-rule="evenodd" clip-rule="evenodd" d="M20.9306 10.5961V13.5349C20.9306 13.7798 20.8327 14.0247 20.6367 14.1716C20.4408 14.3186 20.2939 14.4655 20.1469 14.6125L14.3673 20.3921C14.2939 20.49 14.2082 20.5757 14.1286 20.6553C14.049 20.7349 13.9755 20.8084 13.9265 20.8819C13.7796 21.0778 13.5347 21.1757 13.2898 21.1757H10.351C9.07755 21.1757 8 20.0982 8 18.8247V10.5961C8 9.32267 9.07755 8.24512 10.351 8.24512H18.5796C19.8531 8.24512 20.9306 9.32267 20.9306 10.5961ZM9.95918 17.8451C9.95918 18.5798 10.5959 19.2165 11.3306 19.2165C12.0653 19.2165 12.702 18.5798 12.702 17.8451C12.702 17.1104 12.0653 16.4737 11.3306 16.4737C10.5959 16.4737 9.95918 17.1104 9.95918 17.8451ZM14.4653 16.0819C13.7306 16.0819 13.0939 15.4451 13.0939 14.7104C13.0939 13.9757 13.7306 13.339 14.4653 13.339C15.2 13.339 15.8367 13.9757 15.8367 14.7104C15.8367 15.4451 15.2 16.0819 14.4653 16.0819ZM16.2286 11.5757C16.2286 12.3104 16.8653 12.9472 17.6 12.9472C18.3347 12.9472 18.9714 12.3104 18.9714 11.5757C18.9714 10.841 18.3347 10.2043 17.6 10.2043C16.8653 10.2043 16.2286 10.841 16.2286 11.5757Z" fill="white"/>
</g>
</svg>
