<svg width="40" height="40" viewBox="0 0 40 40" fill="none" xmlns="http://www.w3.org/2000/svg">
<rect width="40" height="40" rx="20" fill="#E1BE5C"/>
<mask id="mask0_1518_28292" style="mask-type:luminance" maskUnits="userSpaceOnUse" x="0" y="0" width="40" height="40">
<rect width="40" height="40" rx="20" fill="white"/>
</mask>
<g mask="url(#mask0_1518_28292)">
<path d="M31.3143 18.0898L28.4245 15.2C28.2776 15.053 28.0817 14.9551 27.9347 14.9551H24.947C24.5551 14.9551 24.2123 15.2979 24.2123 15.6898V21.6163C24.2123 21.8612 24.4572 22.0571 24.7511 21.9592C25.2409 21.7143 25.8286 21.6163 26.4164 21.6163C28.0817 21.6163 29.5021 22.5469 30.2857 23.9183C30.3837 24.1143 30.6776 24.1632 30.8245 24.0163C31.2653 23.6245 31.5592 23.0367 31.5592 22.351V18.5796C31.5102 18.4326 31.4613 18.2367 31.3143 18.0898Z" fill="white"/>
<path d="M26.3673 28.3266C27.5846 28.3266 28.5714 27.3398 28.5714 26.1225C28.5714 24.9053 27.5846 23.9185 26.3673 23.9185C25.15 23.9185 24.1632 24.9053 24.1632 26.1225C24.1632 27.3398 25.15 28.3266 26.3673 28.3266Z" fill="white"/>
<path d="M21.2245 11.6733H8.73469C8.34286 11.6733 8 12.0162 8 12.408V22.3999C8 23.0856 8.29388 23.6733 8.73469 24.0652C8.93061 24.2121 9.17551 24.1631 9.27347 23.9672C10.0082 22.5958 11.4776 21.6652 13.1429 21.6652C15.0041 21.6652 16.5224 22.7917 17.2082 24.408C17.2571 24.555 17.4041 24.6529 17.551 24.6529H19.7551C20.9796 24.6529 21.9592 23.6733 21.9592 22.4488V12.408C21.9592 12.0162 21.6163 11.6733 21.2245 11.6733Z" fill="white"/>
<path d="M13.1428 28.3266C14.3601 28.3266 15.3469 27.3398 15.3469 26.1225C15.3469 24.9053 14.3601 23.9185 13.1428 23.9185C11.9255 23.9185 10.9387 24.9053 10.9387 26.1225C10.9387 27.3398 11.9255 28.3266 13.1428 28.3266Z" fill="white"/>
</g>
</svg>
