<svg width="40" height="40" viewBox="0 0 40 40" fill="none" xmlns="http://www.w3.org/2000/svg">
<rect width="40" height="40" rx="20" fill="#DA627F"/>
<mask id="mask0_1518_28258" style="mask-type:luminance" maskUnits="userSpaceOnUse" x="0" y="0" width="40" height="40">
<rect width="40" height="40" rx="20" fill="white"/>
</mask>
<g mask="url(#mask0_1518_28258)">
<path fill-rule="evenodd" clip-rule="evenodd" d="M29.5755 8.5144C29.9551 8.50216 30.3347 8.48991 30.5306 8.48991C31.2163 8.44093 31.7551 8.97971 31.7551 9.66542V26.5634C31.7551 28.7185 29.649 30.4817 27.053 30.4817C24.4571 30.4817 22.351 28.7185 22.351 26.5634C22.351 24.4083 24.4571 22.645 27.053 22.645C27.5918 22.645 28.2285 22.743 28.6204 22.8899V18.8246C28.6204 18.3348 28.2775 17.992 27.7877 18.0409C22.8408 18.3348 20.1469 18.8246 18.2367 19.3144C17.8939 19.3634 17.649 19.7062 17.649 20.0491V28.0328C17.649 30.1879 15.5428 31.9511 12.9469 31.9511C10.351 31.9511 8.24487 30.1879 8.24487 28.0328C8.24487 25.8777 10.351 24.1144 12.9469 24.1144C13.4857 24.1144 14.1224 24.2124 14.5143 24.3593V11.5266C14.5143 11.0858 14.8081 10.596 15.2979 10.4491C15.6408 10.3511 22.5959 8.83277 28.6204 8.53889C28.8163 8.53889 29.1959 8.52664 29.5755 8.5144ZM18.5796 15.9348C20.6857 15.445 23.0857 15.0042 27.8857 14.7103C28.3265 14.7103 28.6204 14.3675 28.6204 13.8777V12.6532C28.6204 12.1634 28.2775 11.8205 27.7877 11.8695C22.7918 12.1634 20.3428 12.6532 18.2857 13.143C17.8939 13.2409 17.649 13.5838 17.649 13.9266V15.1511C17.649 15.6409 18.0898 16.0328 18.5796 15.9348Z" fill="white"/>
</g>
</svg>
