<svg width="40" height="40" viewBox="0 0 40 40" fill="none" xmlns="http://www.w3.org/2000/svg">
<rect width="40" height="40" rx="20" fill="#E6D478"/>
<mask id="mask0_1518_28304" style="mask-type:luminance" maskUnits="userSpaceOnUse" x="0" y="0" width="40" height="40">
<rect width="40" height="40" rx="20" fill="white"/>
</mask>
<g mask="url(#mask0_1518_28304)">
<path fill-rule="evenodd" clip-rule="evenodd" d="M14 8H29C30.1 8 31 8.9 31 10V30C31 31.1 30.1 32 29 32H14C12.9 32 12 31.1 12 30V28.5H10.5C9.65 28.5 9 27.85 9 27C9 26.15 9.65 25.5 10.5 25.5H12V21.5H10.5C9.65 21.5 9 20.85 9 20C9 19.15 9.65 18.5 10.5 18.5H12V14.5H10.5C9.65 14.5 9 13.85 9 13C9 12.15 9.65 11.5 10.5 11.5H12V10C12 8.9 12.9 8 14 8ZM25 25.5C25.3 25.5 25.5 25.3 25.5 25V24C25.5 23.7 25.3 23.5 25 23.5H18C17.7 23.5 17.5 23.7 17.5 24V25C17.5 25.3 17.7 25.5 18 25.5H25ZM26.5 21C26.5 21.3 26.3 21.5 26 21.5H17C16.7 21.5 16.5 21.3 16.5 21V20C16.5 19.7 16.7 19.5 17 19.5H26C26.3 19.5 26.5 19.7 26.5 20V21ZM27 16.5C27.3 16.5 27.5 16.3 27.5 16V13C27.5 12.7 27.3 12.5 27 12.5H16C15.7 12.5 15.5 12.7 15.5 13V16C15.5 16.3 15.7 16.5 16 16.5H27Z" fill="white"/>
</g>
</svg>
