<svg width="40" height="40" viewBox="0 0 40 40" fill="none" xmlns="http://www.w3.org/2000/svg">
<rect width="40" height="40" rx="20" fill="#34B59D"/>
<mask id="mask0_1518_28212" style="mask-type:luminance" maskUnits="userSpaceOnUse" x="0" y="0" width="40" height="40">
<rect width="40" height="40" rx="20" fill="white"/>
</mask>
<g mask="url(#mask0_1518_28212)">
<path d="M26.6122 18.1878C25.9265 18.1878 25.3877 17.6491 25.4367 16.9144C25.4857 16.2776 26.0245 15.8368 26.7102 15.8368H30.0898C30.2367 15.8368 30.3836 15.7389 30.4326 15.6409C30.7265 15.1021 30.9714 14.5634 31.1673 14.0246C31.2653 13.7307 31.0694 13.4858 30.8245 13.4858H28.3265C27.6898 13.4858 27.102 12.996 27.053 12.4082C27.0041 11.7225 27.5428 11.1348 28.2285 11.1348H31.3632C31.6081 11.1348 31.7551 10.9878 31.7551 10.7429V9.56743C31.7551 9.12662 31.4122 8.78376 30.9714 8.78376H26.8081C25.6326 8.78376 24.702 9.71437 24.702 10.8899V10.9389C24.702 13.1429 23.2326 15.1021 21.1755 15.6409V12.4082C22.0081 11.9185 22.4979 11.0368 22.351 10.0082C22.2041 8.97968 21.3224 8.14703 20.2939 8.04907C18.8734 7.90213 17.649 8.97968 17.649 10.4001C17.649 11.2817 18.1388 12.0164 18.8245 12.4572V15.7389C16.7673 15.2001 15.2979 13.2409 15.2979 11.0368V10.9389C15.2979 9.76335 14.3673 8.83274 13.1918 8.83274H9.02855C8.58773 8.83274 8.24487 9.1756 8.24487 9.61641V10.7919C8.24487 11.0368 8.39181 11.1838 8.63671 11.1838H11.6734C12.3102 11.1838 12.8979 11.6736 12.9469 12.2613C12.9959 12.947 12.4571 13.5348 11.7714 13.5348H9.22446C8.93059 13.5348 8.73467 13.8287 8.88161 14.0736C9.07753 14.5634 9.32242 15.1511 9.6163 15.6899C9.71426 15.7878 9.81222 15.8858 9.95916 15.8858H13.3388C13.9755 15.8858 14.5632 16.3756 14.6122 16.9634C14.6612 17.6491 14.1224 18.2368 13.4367 18.2368H12.5061C12.1632 18.2368 11.9673 18.7266 12.2612 18.9225C13.9265 20.3429 16.0816 21.3225 18.9224 21.3225V30.2368C18.9224 30.8736 19.4122 31.4613 20 31.5103C20.6857 31.5593 21.2734 31.0205 21.2734 30.3348V21.3225C24.1143 21.3225 26.2694 20.294 27.9347 18.9225C28.2285 18.6776 28.0326 18.2368 27.6898 18.2368H26.6122V18.1878Z" fill="white"/>
</g>
</svg>
