<svg width="40" height="40" viewBox="0 0 40 40" fill="none" xmlns="http://www.w3.org/2000/svg">
<rect width="40" height="40" rx="20" fill="#D66EE0"/>
<mask id="mask0_1518_28206" style="mask-type:luminance" maskUnits="userSpaceOnUse" x="0" y="0" width="40" height="40">
<rect width="40" height="40" rx="20" fill="white"/>
</mask>
<g mask="url(#mask0_1518_28206)">
<path d="M13.2499 23.4H18.1499C18.5499 23.4 18.8999 23.05 18.8999 22.65V11.7C18.8999 10.9 18.1499 10.25 17.3999 10.25H13.3999C12.8999 10.25 12.5499 10.6 12.5499 11.1V21.95V22.7C12.4999 23.05 12.8499 23.4 13.2499 23.4Z" fill="white"/>
<path d="M29.75 12.4502V24.1502C29.75 24.9502 29.05 25.6002 28.25 25.6002H11.75C10.9 25.6002 10.25 24.9502 10.25 24.1502V12.4502C9 12.4502 8 13.4502 8 14.6502V25.6002C8 26.8002 9 27.8002 10.25 27.8002H17.35C17.75 27.8002 18.1 28.1502 18.1 28.5502C18.1 28.9502 18.45 29.3002 18.85 29.3002H21.1C21.5 29.3002 21.85 28.9502 21.85 28.5502C21.85 28.1502 22.2 27.8002 22.6 27.8002H29.7C30.95 27.8002 31.95 26.8002 31.95 25.6002V14.6502C32 13.4502 31 12.4502 29.75 12.4502Z" fill="white"/>
<path d="M21.9 23.4H26.65C27.15 23.4 27.5 23.05 27.5 22.55V21.95V11C27.5 10.6 27.15 10.25 26.75 10.25H22.65C21.9 10.25 21.15 10.9 21.15 11.7V22.65C21.1 23.05 21.45 23.4 21.9 23.4Z" fill="white"/>
</g>
</svg>
