<svg width="40" height="40" viewBox="0 0 40 40" fill="none" xmlns="http://www.w3.org/2000/svg">
<rect width="40" height="40" rx="20" fill="#F2CF5B"/>
<mask id="mask0_1518_28094" style="mask-type:luminance" maskUnits="userSpaceOnUse" x="0" y="0" width="40" height="40">
<rect width="40" height="40" rx="20" fill="white"/>
</mask>
<g mask="url(#mask0_1518_28094)">
<path d="M14.5 13.5H16.5C16.8 13.5 17 13.3 17 13V12H23V13C23 13.3 23.2 13.5 23.5 13.5H25.5C25.8 13.5 26 13.3 26 13V11.75C26 10.25 24.75 9 23.25 9H16.7C15.2 9 14 10.2 14 11.7V13C14 13.3 14.2 13.5 14.5 13.5Z" fill="white"/>
<path d="M30 15.5H10C8.9 15.5 8 16.4 8 17.5V29C8 30.1 8.9 31 10 31H30C31.1 31 32 30.1 32 29V17.5C32 16.4 31.1 15.5 30 15.5Z" fill="white"/>
</g>
</svg>
