<svg width="40" height="40" viewBox="0 0 40 40" fill="none" xmlns="http://www.w3.org/2000/svg">
<rect width="40" height="40" rx="20" fill="#996FE6"/>
<mask id="mask0_1518_28272" style="mask-type:luminance" maskUnits="userSpaceOnUse" x="0" y="0" width="40" height="40">
<rect width="40" height="40" rx="20" fill="white"/>
</mask>
<g mask="url(#mask0_1518_28272)">
<path d="M31.25 28H8.75C8.35 28 8 28.3 8 28.7V28.75C8 30.55 10.25 32 12 32H28C29.75 32 32 30.55 32 28.75V28.7C32 28.3 31.65 28 31.25 28Z" fill="white"/>
<path d="M9.19996 25.5997H16.4C16.85 25.5997 17.2 25.1497 17.2 24.6997V10.9497C17.2 10.7497 16.9 10.6497 16.85 10.8497L8.84996 24.9497C8.69996 25.2497 8.89996 25.5997 9.19996 25.5997Z" fill="white"/>
<path d="M20.4 25.5999H30.4C30.9 25.5999 31.25 25.1499 31.2 24.6999C30.85 21.7999 30.35 12.8499 20.15 8.0499C19.9 7.9499 19.6 8.0999 19.6 8.3999V24.6999C19.6 25.1499 19.95 25.5999 20.4 25.5999Z" fill="white"/>
</g>
</svg>
