<svg width="40" height="40" viewBox="0 0 40 40" fill="none" xmlns="http://www.w3.org/2000/svg">
<rect width="40" height="40" rx="20" fill="#49BCD3"/>
<mask id="mask0_1518_28196" style="mask-type:luminance" maskUnits="userSpaceOnUse" x="0" y="0" width="40" height="40">
<rect width="40" height="40" rx="20" fill="white"/>
</mask>
<g mask="url(#mask0_1518_28196)">
<path d="M30.08 22.5439C29.216 22.9759 28.208 23.2159 27.152 23.2159C25.904 23.2159 24.704 22.8799 23.696 22.3039C23.6 22.2079 23.408 22.2079 23.312 22.3039C22.304 22.9279 21.104 23.2159 19.856 23.2159C18.608 23.2159 17.408 22.8799 16.4 22.3039C16.304 22.2079 16.112 22.2079 16.016 22.3039C15.008 22.9279 13.808 23.2159 12.56 23.2159C11.504 23.2159 10.496 22.9759 9.63203 22.5439C9.34403 22.3999 9.05603 22.5919 9.05603 22.8799V27.5839C9.05603 28.4959 9.58403 29.3119 10.448 29.7439C12.368 30.6079 14.432 31.2319 16.64 31.5199C17.12 31.6159 17.504 31.2319 17.504 30.7519V27.8239C17.504 26.5279 18.56 25.5199 19.76 25.5199H19.808C21.056 25.5199 22.064 26.5759 22.064 27.8239V30.7519C22.064 31.2319 22.496 31.5679 22.928 31.5199C25.088 31.2319 27.152 30.6079 29.12 29.7439C29.984 29.3599 30.512 28.5439 30.512 27.5839V22.8799C30.608 22.5919 30.32 22.3999 30.08 22.5439Z" fill="white"/>
<path d="M12.512 20.8641C13.904 20.8641 15.104 20.2881 15.872 19.3281C16.016 19.1361 16.304 19.1361 16.448 19.3281C17.216 20.2401 18.464 20.8641 19.808 20.8641C21.2 20.8641 22.4 20.2881 23.168 19.3281C23.312 19.1361 23.6 19.1361 23.744 19.3281C24.512 20.2401 25.76 20.8641 27.104 20.8641C29.264 20.8641 31.088 19.3281 31.28 17.4561C31.328 17.1681 31.184 16.9281 30.992 16.7361L21.2 8.96005C20.336 8.28805 19.136 8.28805 18.368 8.96005L8.52799 16.7361C8.33599 16.8801 8.23999 17.1681 8.23999 17.4561C8.52799 19.3761 10.352 20.8641 12.512 20.8641Z" fill="white"/>
</g>
</svg>
