<svg width="40" height="40" viewBox="0 0 40 40" fill="none" xmlns="http://www.w3.org/2000/svg">
<rect width="40" height="40" rx="20" fill="#FF7B84"/>
<mask id="mask0_1518_28098" style="mask-type:luminance" maskUnits="userSpaceOnUse" x="0" y="0" width="40" height="40">
<rect width="40" height="40" rx="20" fill="white"/>
</mask>
<g mask="url(#mask0_1518_28098)">
<path d="M21.9102 29.551C20.9796 30.5306 19.4613 30.5306 18.5306 29.551C15.6898 26.5632 10.3021 20.8816 10.3021 20.8326C7.85309 18.3346 7.85309 14.1714 10.3021 11.6244C11.4776 10.3999 13.0449 9.71423 14.7102 9.71423C16.3755 9.71423 17.9429 10.351 19.1184 11.6244L19.6082 12.2122C19.9021 12.604 20.5388 12.604 20.8817 12.2122L21.2735 11.7224C21.3225 11.6734 21.3225 11.6734 21.3225 11.6734C22.547 10.3999 24.1143 9.71423 25.7306 9.71423C27.3959 9.71423 28.9633 10.351 30.1388 11.6244C32.5878 14.1224 32.5878 18.2857 30.1388 20.8326C30.1388 20.8816 24.8 26.5632 21.9102 29.551Z" fill="white"/>
</g>
</svg>
