<svg width="40" height="40" viewBox="0 0 40 40" fill="none" xmlns="http://www.w3.org/2000/svg">
<rect width="40" height="40" rx="20" fill="#89C059"/>
<mask id="mask0_1518_28152" style="mask-type:luminance" maskUnits="userSpaceOnUse" x="0" y="0" width="40" height="40">
<rect width="40" height="40" rx="20" fill="white"/>
</mask>
<g mask="url(#mask0_1518_28152)">
<path fill-rule="evenodd" clip-rule="evenodd" d="M25.6 8H14.4C13.1 8 12 9.1 12 10.4V29.6C12 30.9 13.1 32 14.4 32H25.6C26.9 32 28 30.9 28 29.6V10.4C28 9.1 26.9 8 25.6 8ZM20 31.2C19.3 31.2 18.8 30.7 18.8 30C18.8 29.3 19.3 28.8 20 28.8C20.7 28.8 21.2 29.3 21.2 30C21.2 30.7 20.7 31.2 20 31.2ZM24.8 28C25.25 28 25.6 27.65 25.6 27.2V12C25.6 11.55 25.25 11.2 24.8 11.2H15.2C14.75 11.2 14.4 11.55 14.4 12V27.2C14.4 27.65 14.75 28 15.2 28H24.8Z" fill="white"/>
</g>
</svg>
