<svg width="48" height="48" viewBox="0 0 48 48" fill="none" xmlns="http://www.w3.org/2000/svg">
<g clip-path="url(#clip0_1518_27960)">
<mask id="mask0_1518_27960" style="mask-type:alpha" maskUnits="userSpaceOnUse" x="0" y="0" width="48" height="48">
<path d="M44 0H4C1.79086 0 0 1.79086 0 4V44C0 46.2091 1.79086 48 4 48H44C46.2091 48 48 46.2091 48 44V4C48 1.79086 46.2091 0 44 0Z" fill="white"/>
</mask>
<g mask="url(#mask0_1518_27960)">
<path d="M44 0H4C1.79086 0 0 1.79086 0 4V44C0 46.2091 1.79086 48 4 48H44C46.2091 48 48 46.2091 48 44V4C48 1.79086 46.2091 0 44 0Z" fill="#B070E6"/>
<path d="M39.3278 29.5744C39.9435 29.5744 40.4426 30.0735 40.4426 30.6891V39.6072C40.4426 40.2228 39.9435 40.7219 39.3278 40.7219H30.4098C29.7942 40.7219 29.2951 40.2228 29.2951 39.6072V30.6891C29.2951 30.0735 29.7942 29.5744 30.4098 29.5744H39.3278ZM18.259 11.125L25.4492 11.2367C25.6284 11.2304 25.8022 11.2988 25.929 11.4256C26.0559 11.5525 26.1243 11.7263 26.118 11.9055L26.2295 19.0957C26.2358 19.2749 26.1673 19.4487 26.0405 19.5756C25.9137 19.7024 25.7399 19.7708 25.5606 19.7645H24.2787C24.0994 19.7708 23.9256 19.7024 23.7988 19.5756C23.672 19.4487 23.6035 19.2749 23.6098 19.0957L23.5541 16.8662C23.5638 16.6904 23.4652 16.5266 23.3054 16.4528C23.1456 16.379 22.9569 16.4103 22.8295 16.5318L18.4262 20.935C18.9872 21.8581 19.277 22.9205 19.2623 24.0006C19.2621 25.2324 18.8933 26.436 18.2033 27.4563L22.8295 32.0826C22.9569 32.204 23.1456 32.2353 23.3054 32.1615C23.4652 32.0878 23.5638 31.9239 23.5541 31.7481L23.6098 29.5186C23.6035 29.3394 23.672 29.1656 23.7988 29.0388C23.9256 28.9119 24.0994 28.8435 24.2787 28.8498L25.6164 28.7941C25.7956 28.7878 25.9694 28.8562 26.0963 28.983C26.2231 29.1098 26.2915 29.2837 26.2852 29.4629L26.1737 36.6531C26.18 36.8323 26.1116 37.0061 25.9848 37.1329C25.858 37.2598 25.6841 37.3282 25.5049 37.3219L18.3147 37.4334C18.1355 37.4397 17.9617 37.3712 17.8349 37.2444C17.708 37.1176 17.6396 36.9438 17.6459 36.7645V35.4826C17.6396 35.3033 17.708 35.1295 17.8349 35.0027C17.9617 34.8759 18.1355 34.8074 18.3147 34.8137L20.5442 34.758C20.72 34.7677 20.8839 34.6691 20.9576 34.5093C21.0314 34.3495 21.0001 34.1608 20.8787 34.0334L16.1967 29.3514C15.2584 29.8695 14.2029 30.1382 13.1311 30.1318C10.5002 30.1269 8.1657 28.4442 7.32932 25.9498C6.49294 23.4553 7.34119 20.7054 9.43738 19.1156C11.5336 17.5257 14.4104 17.4504 16.5869 18.9285L20.9344 14.5809C21.0558 14.4535 21.0871 14.2648 21.0134 14.105C20.9396 13.9452 20.7757 13.8466 20.6 13.8563L18.3705 13.8006C18.1912 13.8069 18.0174 13.7385 17.8906 13.6116C17.7638 13.4848 17.6953 13.311 17.7016 13.1318L17.6459 11.7941C17.6265 11.6212 17.6828 11.4484 17.8004 11.3202C17.9179 11.192 18.0851 11.1209 18.259 11.125ZM37.0983 32.9186H32.6393V37.3777H37.0983V32.9186ZM13.1311 21.2137C11.592 21.2137 10.3442 22.4615 10.3442 24.0006C10.3442 25.5398 11.592 26.7875 13.1311 26.7875C14.6703 26.7875 15.918 25.5398 15.918 24.0006C15.918 22.4615 14.6703 21.2137 13.1311 21.2137ZM39.3278 7.2793C39.9435 7.2793 40.4426 7.77839 40.4426 8.39405V17.3121C40.4426 17.9277 39.9435 18.4268 39.3278 18.4268H30.4098C29.7942 18.4268 29.2951 17.9277 29.2951 17.3121V8.39405C29.2951 7.77839 29.7942 7.2793 30.4098 7.2793H39.3278ZM37.0983 10.6236H32.6393V15.0826H37.0983V10.6236Z" fill="white"/>
</g>
</g>
<defs>
<clipPath id="clip0_1518_27960">
<rect width="48" height="48" fill="white"/>
</clipPath>
</defs>
</svg>
