<svg width="48" height="48" viewBox="0 0 48 48" fill="none" xmlns="http://www.w3.org/2000/svg">
<rect width="48" height="48" rx="4" fill="#FCB95B"/>
<mask id="mask0_1518_27419" style="mask-type:luminance" maskUnits="userSpaceOnUse" x="0" y="0" width="48" height="48">
<rect width="48" height="48" rx="4" fill="white"/>
</mask>
<g mask="url(#mask0_1518_27419)">
<path d="M23.0367 37.8833C23.6033 37.8833 24.0567 37.4299 24.0567 36.8633L24.1133 25.0766C24.17 24.5099 23.66 24.0566 23.2067 23.9999H23.0367H11.1933C10.6267 23.9433 10.1733 24.4533 10.1167 24.9066V25.0766V27.2299C10.06 27.7966 10.57 28.2499 11.0233 28.3066H11.1933H14.9333C15.33 28.3066 15.67 28.6466 15.67 29.0433C15.67 29.2133 15.6133 29.4399 15.5 29.5533L7.56668 37.4866C7.11334 37.9399 7.11334 38.6766 7.51001 39.0733L9.04001 40.6033C9.49334 40.9999 10.1733 40.9433 10.6267 40.5466L18.6167 32.5566C18.9 32.2733 19.3533 32.2733 19.6367 32.5566C19.75 32.6699 19.8633 32.8399 19.8067 33.0666V36.8066C19.75 37.3733 20.26 37.8266 20.7133 37.8833H20.8833H23.0367Z" fill="white"/>
<path fill-rule="evenodd" clip-rule="evenodd" d="M36.07 35.1633C33.5767 37.5999 30.46 39.1299 27.23 39.6966L27.3433 36.3533C29.6667 35.8433 31.9333 34.6533 33.7467 32.8399C38.8467 27.7399 38.8467 19.3533 33.7467 14.2533C28.6467 9.15328 20.26 9.15328 15.16 14.2533C13.3467 16.1233 12.1567 18.3333 11.6467 20.7133H8.30334C8.87001 17.4833 10.3433 14.4233 12.8367 11.9299C19.24 5.52661 29.6667 5.52661 36.07 11.9299C42.4733 18.3333 42.4733 28.7599 36.07 35.1633ZM31.4233 30.5166C30.29 31.7066 28.8733 32.4999 27.4 32.9533V29.3833C28.0233 29.0433 28.59 28.6466 29.1 28.1366C31.65 25.5866 31.65 21.3933 29.1 18.8433C26.55 16.2933 22.3567 16.2933 19.8067 18.8433C19.2967 19.4099 18.8433 19.9766 18.56 20.6566H15.0467C15.5 19.1833 16.2933 17.7666 17.4833 16.5766C21.3367 12.7233 27.57 12.7233 31.4233 16.5766C35.2767 20.4299 35.2767 26.6633 31.4233 30.5166Z" fill="white"/>
</g>
</svg>
