<svg width="48" height="48" viewBox="0 0 48 48" fill="none" xmlns="http://www.w3.org/2000/svg">
<rect width="48" height="48" rx="4" fill="#4BC076"/>
<mask id="mask0_1518_27421" style="mask-type:luminance" maskUnits="userSpaceOnUse" x="0" y="0" width="48" height="48">
<rect width="48" height="48" rx="4" fill="white"/>
</mask>
<g mask="url(#mask0_1518_27421)">
<path fill-rule="evenodd" clip-rule="evenodd" d="M14.6253 11.4119C17.1074 8.9173 20.481 7.51414 24 7.5127C27.5181 7.51562 30.8902 8.91944 33.3711 11.4139C35.8519 13.9084 37.2373 17.2881 37.221 20.8061C37.221 29.9917 27.8236 38.3468 24.903 40.6432C24.3982 41.06 23.6687 41.06 23.1639 40.6432C20.2489 38.4137 10.7735 29.9917 10.7735 20.8061C10.7572 17.2871 12.1433 13.9065 14.6253 11.4119ZM18.4262 20.7281C18.4262 23.8064 20.9217 26.3019 24 26.3019C27.0783 26.3019 29.5738 23.8064 29.5738 20.7281C29.5738 17.6498 27.0783 15.1543 24 15.1543C20.9217 15.1543 18.4262 17.6498 18.4262 20.7281Z" fill="white"/>
</g>
</svg>
