<svg width="48" height="48" viewBox="0 0 48 48" fill="none" xmlns="http://www.w3.org/2000/svg">
<rect width="48" height="48" rx="4" fill="#62B7ED"/>
<mask id="mask0_1518_27427" style="mask-type:luminance" maskUnits="userSpaceOnUse" x="0" y="0" width="48" height="48">
<rect width="48" height="48" rx="4" fill="white"/>
</mask>
<g mask="url(#mask0_1518_27427)">
<path d="M21.7333 37.7699L20.8267 37.0333C19.8067 36.3533 19.8067 34.9366 19.8067 34.1999V32.1599C19.8067 31.5933 19.2967 31.0833 18.73 31.0833H14.48C13.9133 31.0833 13.4033 31.5933 13.4033 32.1599V37.5999C13.4033 39.5266 14.5367 40.9999 16.2933 40.9999H19.8067C21.8467 40.9999 22.0167 39.5833 22.0167 39.5833C22.0167 39.5833 22.3567 38.3366 21.7333 37.7699Z" fill="white"/>
<path d="M37.6 18.39V8.75669C37.6 8.75669 37.6 8.75669 37.6 8.70002C37.6 7.00002 35.4467 6.49002 34.3133 7.62335L27.9667 13.5734C26.9467 14.4234 25.7 14.7634 24.3967 14.7634H13.63C9.89 14.82 7 17.9934 7 21.6767V21.79C7 25.4734 9.89 28.25 13.63 28.25H24.4533C25.8133 28.25 27.06 28.8167 28.08 29.6667L34.3133 35.73C35.4467 36.8634 37.6 36.41 37.6 34.7667C37.6 34.7667 37.6 34.7667 37.6 34.71V25.1334C39.7533 25.1334 41 23.66 41 21.7334C41 19.8634 39.6967 18.39 37.6 18.39Z" fill="white"/>
</g>
</svg>
