<svg width="48" height="48" viewBox="0 0 48 48" fill="none" xmlns="http://www.w3.org/2000/svg">
<rect width="48" height="48" rx="4" fill="#F2CF5B"/>
<mask id="mask0_1518_27429" style="mask-type:luminance" maskUnits="userSpaceOnUse" x="0" y="0" width="48" height="48">
<rect width="48" height="48" rx="4" fill="white"/>
</mask>
<g mask="url(#mask0_1518_27429)">
<path fill-rule="evenodd" clip-rule="evenodd" d="M7.20984 19.3827C7.20984 12.8766 12.8345 7.62964 19.8024 7.62964C26.7703 7.62964 32.395 12.8766 32.437 19.3827C32.437 25.8889 26.8123 31.1358 19.8444 31.1358C17.4098 31.1358 15.1432 30.5062 13.2123 29.3728C13.0024 29.2469 12.7506 29.2049 12.4987 29.2889L8.8049 30.5901C8.1333 30.8 7.50367 30.2124 7.71354 29.5408L8.88885 25.8049C8.9728 25.5951 8.93083 25.3432 8.8049 25.1333C7.79749 23.4124 7.20984 21.4815 7.20984 19.3827ZM19.4247 23.2025L25.8469 16.7803C26.0987 16.5704 26.0987 16.1506 25.8469 15.8988L24.9654 15.0173C24.7135 14.7654 24.3358 14.7654 24.0839 15.0173L18.5432 20.558L16.3185 18.3333C16.0666 18.0815 15.6889 18.0815 15.437 18.3333L14.5555 19.2148C14.3037 19.4667 14.3037 19.8445 14.5555 20.0963L17.6617 23.2025C17.9135 23.4543 18.2074 23.5803 18.5432 23.5803C18.879 23.5803 19.1728 23.4543 19.4247 23.2025Z" fill="white"/>
<path fill-rule="evenodd" clip-rule="evenodd" d="M40.9999 24.6296V40.5803H25.0493L40.9999 24.6296ZM37.9357 36.2568L39.237 34.9136C39.3209 34.7877 39.3209 34.6198 39.153 34.6198L37.3481 34.3259C37.3061 34.3259 37.2641 34.284 37.2222 34.242L36.4246 32.521C36.3407 32.3951 36.1728 32.3951 36.1308 32.521L35.3333 34.242C35.2913 34.284 35.2493 34.3259 35.2073 34.3259L33.4024 34.6198C33.2765 34.6617 33.2345 34.7877 33.3185 34.9136L34.6197 36.2568C34.6617 36.2568 34.6617 36.3407 34.6617 36.3827L34.3678 38.2716C34.3259 38.3975 34.4518 38.4815 34.5777 38.4395L36.2567 37.558C36.2987 37.5161 36.3407 37.5161 36.3827 37.558L37.9777 38.4395C38.0617 38.5235 38.2296 38.3975 38.1876 38.2716L37.8938 36.3827C37.8938 36.3407 37.8938 36.2988 37.9357 36.2568Z" fill="white" fill-opacity="0.65"/>
</g>
</svg>
