<svg width="48" height="48" viewBox="0 0 48 48" fill="none" xmlns="http://www.w3.org/2000/svg">
<rect width="48" height="48" rx="4" fill="#9895EE"/>
<mask id="mask0_1518_27443" style="mask-type:luminance" maskUnits="userSpaceOnUse" x="0" y="0" width="48" height="48">
<rect width="48" height="48" rx="4" fill="white"/>
</mask>
<g mask="url(#mask0_1518_27443)">
<path fill-rule="evenodd" clip-rule="evenodd" d="M10.5172 7H37.4828C39.4172 7 41 8.58276 41 10.5172V37.4828C41 39.4172 39.4172 41 37.4828 41H10.5172C8.58276 41 7 39.4172 7 37.4828V10.5172C7 8.58276 8.58276 7 10.5172 7ZM11.6897 37.4828H36.3103C36.9552 37.4828 37.4828 36.9552 37.4828 36.3103V11.6897C37.4828 11.0448 36.9552 10.5172 36.3103 10.5172H11.6897C11.0448 10.5172 10.5172 11.0448 10.5172 11.6897V36.3103C10.5172 36.9552 11.0448 37.4828 11.6897 37.4828Z" fill="white"/>
<path d="M21.0689 14.0344H15.2068C14.562 14.0344 14.0344 14.562 14.0344 15.2068V21.0689C14.0344 21.7137 14.562 22.2413 15.2068 22.2413H21.0689C21.7137 22.2413 22.2413 21.7137 22.2413 21.0689V15.2068C22.2413 14.562 21.7137 14.0344 21.0689 14.0344Z" fill="white"/>
<path d="M32.7931 14.0344H26.9311C26.2863 14.0344 25.7587 14.562 25.7587 15.2068V21.0689C25.7587 21.7137 26.2863 22.2413 26.9311 22.2413H32.7931C33.438 22.2413 33.9656 21.7137 33.9656 21.0689V15.2068C33.9656 14.562 33.438 14.0344 32.7931 14.0344Z" fill="white"/>
<path d="M21.0689 25.7585H15.2068C14.562 25.7585 14.0344 26.2861 14.0344 26.931V32.793C14.0344 33.4379 14.562 33.9654 15.2068 33.9654H21.0689C21.7137 33.9654 22.2413 33.4379 22.2413 32.793V26.931C22.2413 26.2861 21.7137 25.7585 21.0689 25.7585Z" fill="white"/>
<path d="M32.7931 25.7585H26.9311C26.2863 25.7585 25.7587 26.2861 25.7587 26.931V32.793C25.7587 33.4379 26.2863 33.9654 26.9311 33.9654H32.7931C33.438 33.9654 33.9656 33.4379 33.9656 32.793V26.931C33.9656 26.2861 33.438 25.7585 32.7931 25.7585Z" fill="white"/>
</g>
</svg>
