<svg width="48" height="48" viewBox="0 0 48 48" fill="none" xmlns="http://www.w3.org/2000/svg">
<g clip-path="url(#clip0_1518_28004)">
<mask id="mask0_1518_28004" style="mask-type:alpha" maskUnits="userSpaceOnUse" x="0" y="0" width="48" height="48">
<path d="M44 0H4C1.79086 0 0 1.79086 0 4V44C0 46.2091 1.79086 48 4 48H44C46.2091 48 48 46.2091 48 44V4C48 1.79086 46.2091 0 44 0Z" fill="white"/>
</mask>
<g mask="url(#mask0_1518_28004)">
<path d="M44 0H4C1.79086 0 0 1.79086 0 4V44C0 46.2091 1.79086 48 4 48H44C46.2091 48 48 46.2091 48 44V4C48 1.79086 46.2091 0 44 0Z" fill="#317A92"/>
<path d="M37.7133 7.11328H10.2866C9.41791 7.13132 8.71799 7.83124 8.69995 8.69995V36.1266C8.71799 36.9953 9.41791 37.6952 10.2866 37.7133H13.8V39.2999C13.818 40.1687 14.5179 40.8686 15.3866 40.8866H17.2C18.0687 40.8686 18.7686 40.1687 18.7866 39.2999V37.6566H29.2133V39.2999C29.2313 40.1687 29.9312 40.8686 30.8 40.8866H32.6133C33.482 40.8686 34.1819 40.1687 34.2 39.2999V37.6566H37.7133C38.582 37.6386 39.2819 36.9387 39.3 36.0699V8.69995C39.2819 7.83124 38.582 7.13132 37.7133 7.11328ZM14.9333 18.1066C14.9232 17.9534 14.9796 17.8033 15.0881 17.6948C15.1967 17.5863 15.3468 17.5298 15.5 17.5399H17.7666C17.9198 17.5298 18.0699 17.5863 18.1784 17.6948C18.287 17.8033 18.3434 17.9534 18.3333 18.1066V26.6066C18.3434 26.7598 18.287 26.9099 18.1784 27.0184C18.0699 27.127 17.9198 27.1834 17.7666 27.1733H15.5C15.3468 27.1834 15.1967 27.127 15.0881 27.0184C14.9796 26.9099 14.9232 26.7598 14.9333 26.6066V18.1066ZM33.0666 29.3833C33.0768 29.5365 33.0203 29.6866 32.9118 29.7951C32.8032 29.9036 32.6531 29.9601 32.5 29.9499H15.5C15.3468 29.9601 15.1967 29.9036 15.0881 29.7951C14.9796 29.6866 14.9232 29.5365 14.9333 29.3833V28.8166C14.9232 28.6634 14.9796 28.5133 15.0881 28.4048C15.1967 28.2963 15.3468 28.2398 15.5 28.2499H32.5C32.6531 28.2398 32.8032 28.2963 32.9118 28.4048C33.0203 28.5133 33.0768 28.6634 33.0666 28.8166V29.3833ZM19.4666 26.6066V18.1066C19.4565 17.9534 19.5129 17.8033 19.6215 17.6948C19.73 17.5863 19.8801 17.5298 20.0333 17.5399H21.1666C21.3198 17.5298 21.4699 17.5863 21.5784 17.6948C21.687 17.8033 21.7434 17.9534 21.7333 18.1066V26.6066C21.7434 26.7598 21.687 26.9099 21.5784 27.0184C21.4699 27.127 21.3198 27.1834 21.1666 27.1733H20.0333C19.8801 27.1834 19.73 27.127 19.6215 27.0184C19.5129 26.9099 19.4565 26.7598 19.4666 26.6066ZM23.4333 26.6066V18.1066C23.4232 17.9534 23.4796 17.8033 23.5881 17.6948C23.6967 17.5863 23.8468 17.5298 24 17.5399H26.2666C26.4198 17.5298 26.5699 17.5863 26.6784 17.6948C26.787 17.8033 26.8434 17.9534 26.8333 18.1066V26.6066C26.8434 26.7598 26.787 26.9099 26.6784 27.0184C26.5699 27.127 26.4198 27.1834 26.2666 27.1733H24C23.8468 27.1834 23.6967 27.127 23.5881 27.0184C23.4796 26.9099 23.4232 26.7598 23.4333 26.6066ZM27.91 26.6066V18.1066C27.91 17.7937 28.1637 17.5399 28.4766 17.5399C28.7896 17.5399 29.0433 17.7937 29.0433 18.1066V26.6066C29.0433 26.9196 28.7896 27.1733 28.4766 27.1733C28.1637 27.1733 27.91 26.9196 27.91 26.6066ZM30.6866 26.6066V18.1066C30.6765 17.9534 30.7329 17.8033 30.8415 17.6948C30.95 17.5863 31.1001 17.5298 31.2533 17.5399H32.3866C32.5398 17.5298 32.6899 17.5863 32.7984 17.6948C32.907 17.8033 32.9634 17.9534 32.9533 18.1066V26.6066C32.9634 26.7598 32.907 26.9099 32.7984 27.0184C32.6899 27.127 32.5398 27.1834 32.3866 27.1733H31.2533C31.1001 27.1834 30.95 27.127 30.8415 27.0184C30.7329 26.9099 30.6765 26.7598 30.6866 26.6066ZM33.0666 15.8399C33.0768 15.9931 33.0203 16.1432 32.9118 16.2518C32.8032 16.3603 32.6531 16.4167 32.5 16.4066H15.5C15.3468 16.4167 15.1967 16.3603 15.0881 16.2518C14.9796 16.1432 14.9232 15.9931 14.9333 15.8399V15.2733C14.9232 15.1201 14.9796 14.97 15.0881 14.8615C15.1967 14.7529 15.3468 14.6965 15.5 14.7066H32.5C32.6531 14.6965 32.8032 14.7529 32.9118 14.8615C33.0203 14.97 33.0768 15.1201 33.0666 15.2733V15.8399Z" fill="white"/>
</g>
</g>
<defs>
<clipPath id="clip0_1518_28004">
<rect width="48" height="48" fill="white"/>
</clipPath>
</defs>
</svg>
