<svg width="48" height="48" viewBox="0 0 48 48" fill="none" xmlns="http://www.w3.org/2000/svg">
<g clip-path="url(#clip0_1518_28006)">
<mask id="mask0_1518_28006" style="mask-type:alpha" maskUnits="userSpaceOnUse" x="0" y="0" width="48" height="48">
<path d="M44 0H4C1.79086 0 0 1.79086 0 4V44C0 46.2091 1.79086 48 4 48H44C46.2091 48 48 46.2091 48 44V4C48 1.79086 46.2091 0 44 0Z" fill="white"/>
</mask>
<g mask="url(#mask0_1518_28006)">
<path d="M44 0H4C1.79086 0 0 1.79086 0 4V44C0 46.2091 1.79086 48 4 48H44C46.2091 48 48 46.2091 48 44V4C48 1.79086 46.2091 0 44 0Z" fill="#317A92"/>
<path d="M22.3928 34.0771C22.2768 32.1752 22.7286 30.2817 23.6909 28.6371H14.1709C14.0202 28.6483 13.8721 28.5933 13.7652 28.4865C13.6584 28.3796 13.6034 28.2315 13.6146 28.0808V27.5244C13.6034 27.3737 13.6584 27.2256 13.7652 27.1187C13.8721 27.0118 14.0202 26.9568 14.1709 26.968H24.8655C25.2272 26.5858 25.6201 26.2343 26.04 25.9171C25.8892 25.8245 25.796 25.6614 25.7928 25.4844V17.5717C25.7928 17.2644 26.0418 17.0153 26.3491 17.0153C26.6564 17.0153 26.9055 17.2644 26.9055 17.5717V25.4226C27.3888 25.1139 27.9078 24.8649 28.4509 24.6808V17.5717C28.4397 17.421 28.4947 17.2728 28.6016 17.166C28.7085 17.0591 28.8566 17.0041 29.0073 17.0153H30.0582C30.2089 17.0041 30.357 17.0591 30.4639 17.166C30.5708 17.2728 30.6258 17.421 30.6146 17.5717V24.1862C30.7382 24.1862 30.9237 24.1244 31.0473 24.1244C32.9689 24.0083 34.8821 24.4598 36.5491 25.4226V8.73168C36.5391 7.91647 35.8807 7.25805 35.0655 7.24805H9.34911C8.5339 7.25805 7.87548 7.91647 7.86548 8.73168V34.3862C7.87548 35.2014 8.5339 35.8599 9.34911 35.8699H12.6255V37.4153C12.6355 38.2305 13.2939 38.889 14.1091 38.899H15.84C16.6552 38.889 17.3137 38.2305 17.3237 37.4153V35.8699H22.7018C22.5042 35.2925 22.3999 34.6873 22.3928 34.0771ZM20.0437 25.5462C20.0549 25.6969 19.9999 25.8451 19.893 25.9519C19.7861 26.0588 19.638 26.1138 19.4873 26.1026H18.4364C18.2857 26.1138 18.1376 26.0588 18.0307 25.9519C17.9238 25.8451 17.8688 25.6969 17.88 25.5462V17.5717C17.8688 17.421 17.9238 17.2728 18.0307 17.166C18.1376 17.0591 18.2857 17.0041 18.4364 17.0153H19.4873C19.638 17.0041 19.7861 17.0591 19.893 17.166C19.9999 17.2728 20.0549 17.421 20.0437 17.5717V25.5462ZM24.8037 25.5462C24.8149 25.6969 24.7599 25.8451 24.653 25.9519C24.5461 26.0588 24.398 26.1138 24.2473 26.1026H22.1455C21.9948 26.1138 21.8466 26.0588 21.7398 25.9519C21.6329 25.8451 21.5779 25.6969 21.5891 25.5462V17.5717C21.5779 17.421 21.6329 17.2728 21.7398 17.166C21.8466 17.0591 21.9948 17.0041 22.1455 17.0153H24.2473C24.398 17.0041 24.5461 17.0591 24.653 17.166C24.7599 17.2728 24.8149 17.421 24.8037 17.5717V25.5462ZM13.6764 14.9135C13.6652 14.7628 13.7202 14.6147 13.827 14.5078C13.9339 14.4009 14.082 14.3459 14.2328 14.3571H30.12C30.2707 14.3459 30.4189 14.4009 30.5257 14.5078C30.6326 14.6147 30.6876 14.7628 30.6764 14.9135V15.4699C30.6876 15.6206 30.6326 15.7687 30.5257 15.8756C30.4189 15.9824 30.2707 16.0374 30.12 16.0262H14.1709C14.0202 16.0374 13.8721 15.9824 13.7652 15.8756C13.6584 15.7687 13.6034 15.6206 13.6146 15.4699V14.9135H13.6764ZM13.6764 17.5717C13.6652 17.421 13.7202 17.2728 13.827 17.166C13.9339 17.0591 14.082 17.0041 14.2328 17.0153H16.3346C16.4853 17.0041 16.6334 17.0591 16.7403 17.166C16.8471 17.2728 16.9021 17.421 16.8909 17.5717V25.5462C16.9021 25.6969 16.8471 25.8451 16.7403 25.9519C16.6334 26.0588 16.4853 26.1138 16.3346 26.1026H14.2328C14.082 26.1138 13.9339 26.0588 13.827 25.9519C13.7202 25.8451 13.6652 25.6969 13.6764 25.5462V17.5717Z" fill="white"/>
<path d="M31.2328 29.8122H31.9746C32.173 29.827 32.3308 29.9847 32.3455 30.1831V33.5213C32.3455 33.6449 32.2837 33.7067 32.2219 33.8304L30.0583 35.994C29.8934 36.1177 29.6668 36.1177 29.5019 35.994L29.0692 35.4377C28.9455 35.2728 28.9455 35.0461 29.0692 34.8813L30.8619 33.0886V30.1831C30.8584 30.0837 30.8964 29.9873 30.9667 29.917C31.037 29.8467 31.1334 29.8087 31.2328 29.8122ZM39.9492 33.1504H38.8364V32.9031C38.5617 29.0372 35.2602 26.092 31.3881 26.2587C27.516 26.4253 24.4798 29.6432 24.5382 33.5185C24.5966 37.3937 27.7284 40.5187 31.6037 40.5686C33.611 40.6129 35.543 39.8042 36.9201 38.3431C37.0437 38.2195 37.1674 38.0958 37.0437 37.9722L36.4255 37.2304C36.3602 37.1422 36.257 37.0903 36.1474 37.0903C36.0377 37.0903 35.9345 37.1422 35.8692 37.2304C34.6547 38.5462 32.8899 39.2109 31.1092 39.0231C28.5325 38.6584 26.4986 36.6496 26.1019 34.0777C25.8032 31.0023 28.0408 28.2617 31.1137 27.9391C34.1866 27.6166 36.9446 29.8328 37.291 32.9031V33.1504H36.1783C35.9799 33.1651 35.8221 33.3229 35.8074 33.5213C35.8074 33.6449 35.8074 33.7067 35.8692 33.7686L37.7855 36.1177C37.8641 36.2058 37.9766 36.2561 38.0946 36.2561C38.2127 36.2561 38.3251 36.2058 38.4037 36.1177L40.3201 33.7686C40.4437 33.6037 40.4437 33.3771 40.3201 33.2122C40.202 33.1663 40.0757 33.1453 39.9492 33.1504Z" fill="white"/>
</g>
</g>
<defs>
<clipPath id="clip0_1518_28006">
<rect width="48" height="48" fill="white"/>
</clipPath>
</defs>
</svg>
