<svg width="48" height="48" viewBox="0 0 48 48" fill="none" xmlns="http://www.w3.org/2000/svg">
<g clip-path="url(#clip0_1518_28008)">
<mask id="mask0_1518_28008" style="mask-type:alpha" maskUnits="userSpaceOnUse" x="0" y="0" width="48" height="48">
<path d="M44 0H4C1.79086 0 0 1.79086 0 4V44C0 46.2091 1.79086 48 4 48H44C46.2091 48 48 46.2091 48 44V4C48 1.79086 46.2091 0 44 0Z" fill="white"/>
</mask>
<g mask="url(#mask0_1518_28008)">
<path d="M44 0H4C1.79086 0 0 1.79086 0 4V44C0 46.2091 1.79086 48 4 48H44C46.2091 48 48 46.2091 48 44V4C48 1.79086 46.2091 0 44 0Z" fill="#317A92"/>
<path d="M31.0518 38.1031C30.4138 38.0968 29.8057 37.832 29.3665 37.3691C28.9274 36.9062 28.6949 36.285 28.7222 35.6475V34.3253C28.597 33.6106 28.8326 32.8802 29.3518 32.3735L36.6555 25.0697V9.39197C36.6453 8.56166 35.9747 7.89105 35.1444 7.88086H9.07776C8.24746 7.89105 7.57684 8.56166 7.56665 9.39197V35.5216C7.57684 36.3519 8.24746 37.0225 9.07776 37.0327H12.4148V38.6068C12.425 39.4371 13.0956 40.1077 13.9259 40.1179H15.6889C16.5192 40.1077 17.1898 39.4371 17.2 38.6068V37.0327H27.1481V38.6068C27.1583 39.4371 27.8289 40.1077 28.6592 40.1179H30.4222C31.2525 40.1077 31.9231 39.4371 31.9333 38.6068V38.1031H31.0518ZM13.4852 15.6883C13.4737 15.5348 13.5298 15.3839 13.6386 15.2751C13.7475 15.1662 13.8983 15.1102 14.0518 15.1216H30.2333C30.3868 15.1102 30.5377 15.1662 30.6465 15.2751C30.7554 15.3839 30.8114 15.5348 30.8 15.6883V16.2549C30.8114 16.4084 30.7554 16.5593 30.6465 16.6681C30.5377 16.777 30.3868 16.833 30.2333 16.8216H13.9889C13.8354 16.833 13.6845 16.777 13.5757 16.6681C13.4668 16.5593 13.4108 16.4084 13.4222 16.2549V15.6883H13.4852ZM30.6111 18.3957V26.5179C30.6225 26.6714 30.5665 26.8223 30.4576 26.9311C30.3488 27.04 30.1979 27.096 30.0444 27.0846H28.9741C28.8205 27.096 28.6697 27.04 28.5608 26.9311C28.452 26.8223 28.396 26.6714 28.4074 26.5179V18.3957C28.396 18.2422 28.452 18.0913 28.5608 17.9825C28.6697 17.8736 28.8205 17.8176 28.9741 17.829H30.0444C30.4222 17.892 30.6111 18.0809 30.6111 18.3957ZM26.8963 18.3957V26.5179C26.8963 26.8309 26.6426 27.0846 26.3296 27.0846C26.0167 27.0846 25.7629 26.8309 25.7629 26.5179V18.3957C25.7515 18.2422 25.8076 18.0913 25.9164 17.9825C26.0252 17.8736 26.1761 17.8176 26.3296 17.829C26.7074 17.892 26.8963 18.0809 26.8963 18.3957ZM24.8185 18.3957V26.5179C24.8299 26.6714 24.7739 26.8223 24.6651 26.9311C24.5562 27.04 24.4053 27.096 24.2518 27.0846H22.1111C21.9576 27.096 21.8067 27.04 21.6979 26.9311C21.589 26.8223 21.533 26.6714 21.5444 26.5179V18.3957C21.533 18.2422 21.589 18.0913 21.6979 17.9825C21.8067 17.8736 21.9576 17.8176 22.1111 17.829H24.2518C24.5667 17.892 24.8185 18.0809 24.8185 18.3957ZM19.9704 18.3957V26.5179C19.9818 26.6714 19.9257 26.8223 19.8169 26.9311C19.7081 27.04 19.5572 27.096 19.4037 27.0846H18.3333C18.1798 27.096 18.0289 27.04 17.9201 26.9311C17.8113 26.8223 17.7552 26.6714 17.7667 26.5179V18.3957C17.7552 18.2422 17.8113 18.0913 17.9201 17.9825C18.0289 17.8736 18.1798 17.8176 18.3333 17.829H19.4037C19.7185 17.892 19.9704 18.0809 19.9704 18.3957ZM13.4852 18.3957C13.4737 18.2422 13.5298 18.0913 13.6386 17.9825C13.7475 17.8736 13.8983 17.8176 14.0518 17.829H16.1926C16.3461 17.8176 16.4969 17.8736 16.6058 17.9825C16.7146 18.0913 16.7707 18.2422 16.7592 18.3957V26.5179C16.7707 26.6714 16.7146 26.8223 16.6058 26.9311C16.4969 27.04 16.3461 27.096 16.1926 27.0846H14.0518C13.8983 27.096 13.7475 27.04 13.6386 26.9311C13.5298 26.8223 13.4737 26.6714 13.4852 26.5179V18.3957ZM13.9889 29.666C13.8354 29.6775 13.6845 29.6214 13.5757 29.5126C13.4668 29.4037 13.4108 29.2529 13.4222 29.0994V28.5327C13.4108 28.3792 13.4668 28.2283 13.5757 28.1195C13.6845 28.0107 13.8354 27.9546 13.9889 27.966H30.1704C30.3239 27.9546 30.4747 28.0107 30.5836 28.1195C30.6924 28.2283 30.7484 28.3792 30.737 28.5327V29.0994C30.7484 29.2529 30.6924 29.4037 30.5836 29.5126C30.4747 29.6214 30.3239 29.6775 30.1704 29.666H13.9889Z" fill="white"/>
<path d="M40.3704 26.9592L39.8037 26.3926C39.4192 26.015 38.8031 26.015 38.4185 26.3926L30.9259 33.8852C30.863 33.9481 30.9259 34.0111 30.9259 34.074V35.6481C30.9259 35.774 30.9259 35.9 31.0519 35.9H32.6889C32.7519 35.9 32.8148 35.837 32.8778 35.837L40.3704 28.4074C40.5807 28.2256 40.7016 27.9613 40.7016 27.6833C40.7016 27.4053 40.5807 27.141 40.3704 26.9592Z" fill="white"/>
</g>
</g>
<defs>
<clipPath id="clip0_1518_28008">
<rect width="48" height="48" fill="white"/>
</clipPath>
</defs>
</svg>
