<svg width="48" height="48" viewBox="0 0 48 48" fill="none" xmlns="http://www.w3.org/2000/svg">
<rect width="48" height="48" rx="4" fill="#B8C3CE"/>
<mask id="mask0_1518_27455" style="mask-type:luminance" maskUnits="userSpaceOnUse" x="0" y="0" width="48" height="48">
<rect width="48" height="48" rx="4" fill="white"/>
</mask>
<g mask="url(#mask0_1518_27455)">
<g opacity="0.5">
<path d="M41 36.0134V37.6001C41 39.4701 39.47 41.0001 37.6 41.0001H10.4C8.53 41.0001 7 39.4701 7 37.6001V36.0134C7 31.8768 11.8167 29.3834 16.35 27.4001C16.52 27.3434 16.6333 27.2868 16.8033 27.1734C17.1433 27.0034 17.54 27.0034 17.88 27.2301C19.6933 28.4201 21.79 29.1001 24 29.1001C26.21 29.1001 28.3067 28.4201 30.12 27.2868C30.46 27.0601 30.8567 27.0601 31.1967 27.2301C31.3667 27.2868 31.48 27.3434 31.65 27.4568C36.1833 29.3834 41 31.8768 41 36.0134Z" fill="white"/>
<path d="M24 25.7C28.6631 25.7 32.4433 21.5139 32.4433 16.35C32.4433 11.1861 28.6631 7 24 7C19.3369 7 15.5566 11.1861 15.5566 16.35C15.5566 21.5139 19.3369 25.7 24 25.7Z" fill="white"/>
</g>
</g>
</svg>
