<svg width="26" height="26" viewBox="0 0 26 26" fill="none" xmlns="http://www.w3.org/2000/svg">
<path fill-rule="evenodd" clip-rule="evenodd" d="M8.60005 5.8H17.4C17.85 5.8 18.2 5.45 18.2 5V3.4C18.2 2.1 17.1 1 15.8 1H10.2C8.90005 1 7.80005 2.1 7.80005 3.4V5C7.80005 5.45 8.15005 5.8 8.60005 5.8ZM21.8 3H21C20.75 3 20.6 3.15 20.6 3.4V5C20.6 6.75 19.15 8.2 17.4 8.2H8.60005C6.85005 8.2 5.40005 6.75 5.40005 5V3.4C5.40005 3.15 5.25005 3 5.00005 3H4.20005C2.90005 3 1.80005 4.1 1.80005 5.4V22.6C1.80005 23.9 2.90005 25 4.20005 25H21.8C23.1 25 24.2 23.9 24.2 22.6V5.4C24.2 4.1 23.1 3 21.8 3ZM17.15 21.2C17.15 21.9 16.6 22.4 15.95 22.4H10.05C9.35005 22.4 8.85005 21.85 8.85005 21.2V16.05C8.85005 15.85 9.00005 15.7 9.20005 15.7H16.8C17 15.7 17.15 15.85 17.15 16.05V21.2ZM18.15 13.75C18.15 13.95 18 14.1 17.8 14.1H8.25005C8.05005 14.1 7.90005 13.95 7.90005 13.75V13C7.90005 12.8 8.05005 12.65 8.25005 12.65H11.3V11.65C11.3 11.1 11.75 10.65 12.3 10.65H13.75C14.3 10.65 14.75 11.1 14.75 11.65V12.65H17.8C18 12.65 18.15 12.8 18.15 13V13.75ZM12 17.4H11.5C11.35 17.4 11.25 17.5 11.25 17.65V20.5C11.25 20.65 11.35 20.75 11.5 20.75H12C12.15 20.75 12.25 20.65 12.25 20.5V17.65C12.25 17.5 12.15 17.4 12 17.4ZM14.45 17.4H13.95C13.8 17.4 13.7 17.5 13.7 17.65V20.5C13.7 20.65 13.8 20.75 13.95 20.75H14.45C14.6 20.75 14.7 20.65 14.7 20.5V17.65C14.7 17.5 14.6 17.4 14.45 17.4ZM13.5 11.7H12.5C12.35 11.7 12.25 11.8 12.25 11.95V12.7H13.7V11.95C13.75 11.8 13.65 11.7 13.5 11.7Z" fill="#706E6B"/>
</svg>
