<svg width="26" height="26" viewBox="0 0 26 26" fill="none" xmlns="http://www.w3.org/2000/svg">
<path d="M20.5428 10.7966C20.9346 10.7966 21.2285 11.1395 21.1795 11.5313V22.6497C21.1795 23.9721 20.151 25.0007 18.8285 25.0007H7.46525C6.1428 25.0007 5.11423 23.9721 5.11423 22.6497V11.5313C5.11423 11.1395 5.45708 10.7966 5.84892 10.7966H20.5428ZM17.4571 17.5558C17.2612 17.2129 16.8203 17.115 16.5265 17.3109C16.4285 17.3599 16.3795 17.4578 16.2816 17.5558C16.1836 17.7517 16.1836 17.9966 16.2816 18.1925L17.4571 20.2497C17.5061 20.2987 17.555 20.5436 17.4081 20.8374C17.2612 21.1313 16.8693 21.1803 15.6448 21.1803L15.6938 20.4456C15.6938 20.3476 15.6938 20.2987 15.5959 20.2497C15.4979 20.2007 15.4979 20.2497 15.3999 20.2987L13.8816 21.6211L13.7836 21.7191C13.7836 21.7191 13.6857 21.866 13.7836 21.964L15.204 23.4334C15.302 23.5313 15.351 23.4823 15.3999 23.4823C15.4489 23.4823 15.4979 23.4334 15.4979 23.3354L15.5469 22.5027C17.0163 22.5517 17.9959 22.5517 18.5836 21.4742C19.1224 20.4946 18.6816 19.7599 18.6326 19.613L17.4571 17.5558ZM9.95958 17.3116L9.91423 17.3109L9.76729 17.3599L7.90606 17.8007C7.8081 17.8497 7.75913 17.8497 7.75913 17.9476C7.75913 18.0456 7.75913 18.0946 7.85708 18.1436L8.5428 18.5844C7.8081 19.8089 7.31831 20.6905 7.95504 21.7191C8.5428 22.6497 9.42443 22.6497 9.52239 22.6497L11.9224 22.6007C12.3142 22.6007 12.6081 22.2578 12.5591 21.964C12.5591 21.866 12.5591 21.7191 12.4612 21.6211C12.3142 21.4252 12.1183 21.3272 11.8734 21.3272L9.52239 21.3762C9.52239 21.3762 9.27749 21.3272 9.08157 21.0334C8.93464 20.7395 9.03259 20.3966 9.66933 19.3191L10.2571 19.7109C10.355 19.7599 10.404 19.7599 10.502 19.7109C10.5999 19.6619 10.5999 19.613 10.5999 19.515L10.2081 17.6048L10.1591 17.4578C10.0612 17.3109 10.0122 17.3109 9.91423 17.3109L9.95958 17.3116ZM13.1959 12.4619C12.1183 12.4619 11.6285 13.1966 11.5795 13.2946L10.355 15.3027C10.1591 15.6456 10.2571 16.0374 10.551 16.2334C10.6489 16.2823 10.7959 16.3313 10.8938 16.3313C11.1387 16.3313 11.3836 16.2334 11.4816 16.0374L12.7061 14.0293C12.755 13.9803 12.853 13.7844 13.2448 13.7844C13.5877 13.7844 13.7836 14.0783 14.3714 15.2048L13.7346 15.4987C13.6857 15.5476 13.6367 15.5966 13.6367 15.6946C13.6367 15.7925 13.6367 15.8415 13.7836 15.8415L15.6938 16.5762H15.8408C15.8897 16.5762 15.9387 16.5272 15.9387 16.4783L16.5265 14.5681C16.5755 14.4701 16.5265 14.4211 16.4775 14.3721C16.4285 14.3232 16.3795 14.2742 16.2816 14.3232L15.5469 14.666C14.8612 13.3925 14.4203 12.4619 13.1959 12.4619ZM19.3183 8.34764L19.3673 9.76805H10.7469L19.3183 8.34764ZM13.5877 1.4905C14.6163 1.34356 15.5959 2.02928 15.7428 3.05785L16.0367 4.91907L21.9142 3.98846C22.2571 3.93948 22.6489 4.23336 22.6979 4.57622L22.9428 5.94764C22.9918 6.33948 22.7469 6.73132 22.355 6.7803L4.18361 9.71907C3.79178 9.76805 3.39994 9.52315 3.35096 9.13132L3.10606 7.75989C3.05708 7.36805 3.30198 6.97622 3.69382 6.92724L9.47341 5.99662L9.17953 4.1354C9.03259 3.10683 9.71831 2.12724 10.7469 1.9803L13.5877 1.4905ZM13.4731 3.48953L13.3918 3.49866L11.5306 3.79254C11.2367 3.84152 11.0897 4.08642 11.1387 4.33132L11.3836 5.70275L14.1265 5.26193L13.9306 3.8905C13.8816 3.59662 13.6367 3.44968 13.3918 3.49866L13.4731 3.48953Z" fill="#706E6B"/>
</svg>
