<svg width="26" height="26" viewBox="0 0 26 26" fill="none" xmlns="http://www.w3.org/2000/svg">
<path fill-rule="evenodd" clip-rule="evenodd" d="M23.3017 2H21.8017C21.4017 2 21.0517 2.35 21.0517 2.75V6.25C21.0517 6.7 20.8017 6.9 20.4517 6.6C20.3017 6.4 20.1517 6.25 19.9517 6.1C17.4517 3.6 13.9517 2.55 10.3517 3.25C9.10171 3.5 7.90171 4 6.85171 4.7C3.80171 6.7 2.05171 9.95 2.00171 13.45C1.95171 16.15 3.00171 18.85 4.90171 20.8C6.90171 22.9 9.60171 24.05 12.5017 24.05C15.0517 24.05 17.4517 23.15 19.3517 21.55C19.7017 21.25 19.7017 20.75 19.4017 20.45L18.3517 19.4C18.1017 19.15 17.6517 19.1 17.3517 19.35C15.5517 20.85 13.1017 21.45 10.6517 20.85C10.0017 20.7 9.35171 20.4 8.75171 20.05C5.90171 18.3 4.55171 15 5.35171 11.7C5.50171 11.05 5.80171 10.4 6.15171 9.8C7.55171 7.35 10.0017 6 12.6017 6C14.6017 6 16.5017 6.8 17.9017 8.2C18.1517 8.4 18.3517 8.65 18.5017 8.9C18.6517 9.3 18.3017 9.5 17.8517 9.5H14.3517C13.9517 9.5 13.6017 9.85 13.6017 10.25V11.8C13.6017 12.2 13.9017 12.5 14.3017 12.5H23.4517C23.8017 12.5 24.1017 12.2 24.1017 11.85V2.75C24.0517 2.35 23.7017 2 23.3017 2V2Z" fill="#706E6B"/>
</svg>
