<svg width="26" height="26" viewBox="0 0 26 26" fill="none" xmlns="http://www.w3.org/2000/svg">
<path fill-rule="evenodd" clip-rule="evenodd" d="M25.3487 3.98465C25.0487 2.48465 23.7987 1.23465 22.2487 1.03465C21.1487 0.884645 20.1487 1.23465 19.3487 1.83465C19.0987 2.03465 19.1487 2.38465 19.4487 2.53465C21.2987 3.53465 22.8987 4.93464 24.1487 6.63464C24.2987 6.88464 24.6987 6.88464 24.8487 6.63464C25.3487 5.88464 25.5487 4.98465 25.3487 3.98465ZM6.94872 2.58465C7.19872 2.48465 7.24872 2.08465 7.04872 1.88465C6.29872 1.23465 5.24872 0.884645 4.14872 1.08465C2.59872 1.28465 1.29872 2.48465 1.04872 3.98465C0.898718 4.98465 1.09872 5.88464 1.59872 6.63464C1.74872 6.88464 2.14872 6.88464 2.29872 6.63464C3.49872 4.98465 5.04872 3.53465 6.94872 2.58465ZM13.1987 3.48465C7.14872 3.48465 2.19872 8.43465 2.19872 14.4846C2.19872 16.9346 2.99872 19.1846 4.34872 20.9846L2.69872 22.6346C2.04872 23.2846 2.04872 24.2846 2.69872 24.9346C3.04872 25.2846 3.44872 25.4346 3.84872 25.4346C4.24872 25.4346 4.64872 25.2846 4.99872 24.9346L6.64872 23.2846C8.49872 24.6346 10.7487 25.4346 13.1987 25.4346C15.6487 25.4346 17.8987 24.6346 19.6987 23.2846L21.3487 24.9346C21.6987 25.2846 22.0987 25.4346 22.5487 25.4346C22.9487 25.4346 23.3487 25.2846 23.6987 24.9346C24.3487 24.2846 24.3487 23.2846 23.6987 22.6346L22.0487 20.9846C23.3987 19.1846 24.1987 16.9346 24.1987 14.4846C24.1987 8.38465 19.2987 3.48465 13.1987 3.48465ZM5.44872 14.4346C5.44872 10.1846 8.94872 6.73464 13.1987 6.73464C17.4487 6.73464 20.9487 10.1846 20.9487 14.4846C20.9487 18.7846 17.4987 22.1846 13.1987 22.1846C8.89872 22.1846 5.44872 18.7346 5.44872 14.4346ZM14.4487 13.9846V10.7846C14.4487 10.0846 13.8987 9.58465 13.2487 9.58465C12.5987 9.58465 12.0487 10.1346 12.0487 10.7846V14.4346C12.0487 14.7846 12.1487 15.0846 12.3987 15.2846L15.2487 18.1346C15.4987 18.3846 15.7987 18.4846 16.0987 18.4846C16.3987 18.4846 16.6987 18.3846 16.9487 18.1346C17.4487 17.6346 17.4487 16.8846 16.9487 16.4346L14.4487 13.9846Z" fill="#706E6B"/>
</svg>
