<svg width="26" height="26" viewBox="0 0 26 26" fill="none" xmlns="http://www.w3.org/2000/svg">
<path fill-rule="evenodd" clip-rule="evenodd" d="M22.55 20.45L24.85 18.15C25.05 17.95 25.05 17.65 24.85 17.45L23.45 16.05C23.25 15.85 22.95 15.85 22.75 16.05L20.5 18.4L18.35 16.25C18.15 16.05 17.85 16.05 17.65 16.25L16.25 17.65C16.05 17.85 16.05 18.15 16.25 18.35L18.4 20.5L16.3 22.6C16.1 22.8 16.1 23.1 16.3 23.3L17.7 24.7C17.9 24.9 18.2 24.9 18.4 24.7L20.5 22.6L22.75 24.85C22.95 25.05 23.25 25.05 23.45 24.85L24.85 23.45C25.05 23.25 25.05 22.95 24.85 22.75L22.55 20.45ZM2.4 4H7.8L5.75 15.6C5.65 16.1 6 16.5 6.45 16.5H9C9.35 16.5 9.7 16.25 9.75 15.9L11.85 4H17.35C17.7 4 18.05 3.75 18.1 3.35L18.35 1.85C18.45 1.4 18.1 1 17.6 1H2.6C2.25 1 1.95 1.25 1.9 1.65L1.65 3.15C1.55 3.6 1.9 4 2.4 4ZM14 19.25C14 18.85 13.65 18.5 13.25 18.5H1.75C1.35 18.5 1 18.85 1 19.25V20.75C1 21.15 1.35 21.5 1.75 21.5H13.25C13.65 21.5 14 21.15 14 20.75V19.25Z" fill="#706E6B"/>
</svg>
