<svg width="27" height="26" viewBox="0 0 27 26" fill="none" xmlns="http://www.w3.org/2000/svg">
<path fill-rule="evenodd" clip-rule="evenodd" d="M12.775 9.025C12.775 9.025 12.225 8.475 12.525 8.175L15.325 5.375C15.625 5.075 15.625 4.625 15.325 4.325L14.275 3.225C13.975 2.925 13.525 2.925 13.225 3.225L6.475 9.975C6.175 10.275 6.175 10.725 6.475 11.025L13.225 17.775C13.525 18.075 13.975 18.075 14.275 17.775L15.325 16.725C15.625 16.425 15.625 15.975 15.325 15.675L12.575 12.875C12.275 12.575 12.475 12.125 12.825 12.025C18.375 12.225 22.875 16.675 23.225 22.325C23.225 22.725 23.575 23.025 23.975 23.025H25.475C25.925 23.025 26.175 22.675 26.125 22.225C25.775 14.975 20.275 9.275 12.775 9.025ZM3.275 10.175L9.075 4.375C9.375 4.075 9.375 3.625 9.075 3.325L9.025 3.225C8.725 2.925 8.275 2.925 7.975 3.225L1.225 9.975C0.925 10.275 0.925 10.725 1.225 11.025L7.975 17.775C8.275 18.075 8.725 18.075 9.025 17.775L9.075 17.725C9.375 17.425 9.375 16.975 9.075 16.675L3.325 10.875C3.325 10.875 2.975 10.575 3.275 10.175Z" fill="#706E6B"/>
</svg>
