<svg width="26" height="26" viewBox="0 0 26 26" fill="none" xmlns="http://www.w3.org/2000/svg">
<path fill-rule="evenodd" clip-rule="evenodd" d="M9.525 9.025C9.525 9.025 8.975 8.475 9.275 8.175L12.075 5.375C12.375 5.075 12.375 4.625 12.075 4.325L11.025 3.225C10.725 2.925 10.275 2.925 9.975 3.225L3.225 9.975C2.925 10.275 2.925 10.725 3.225 11.025L9.975 17.775C10.275 18.075 10.725 18.075 11.025 17.775L12.075 16.725C12.375 16.425 12.375 15.975 12.075 15.675L9.325 12.875C9.025 12.575 9.225 12.125 9.575 12.025C15.125 12.225 19.625 16.675 19.975 22.325C19.975 22.725 20.325 23.025 20.725 23.025H22.225C22.675 23.025 22.925 22.675 22.875 22.225C22.525 14.975 17.025 9.275 9.525 9.025Z" fill="#706E6B"/>
</svg>
