<svg width="26" height="26" viewBox="0 0 26 26" fill="none" xmlns="http://www.w3.org/2000/svg">
<path fill-rule="evenodd" clip-rule="evenodd" d="M16.6781 12.585C16.6781 13.084 16.8771 13.483 17.5761 13.483C18.2751 13.483 18.5241 13.084 18.4741 12.585C18.4741 12.085 18.2751 11.686 17.5761 11.686C16.8771 11.686 16.6781 12.085 16.6781 12.585ZM18.3251 4.846H16.8771V8.34L16.9761 10.637H18.1751L18.3251 8.34V4.846ZM9.73714 9.239C9.73714 5.245 13.1321 2 17.3761 2C21.5201 2 24.9661 5.245 24.9151 9.239C24.9151 13.233 21.5201 16.528 17.2761 16.528C15.8791 16.528 14.4801 16.129 13.2821 15.431C13.1821 15.33 13.0331 15.33 12.8831 15.38L10.6361 16.179C10.5361 16.23 10.4361 16.23 10.3361 16.179C10.0871 16.079 9.88714 15.83 9.98714 15.53L10.8361 13.233C10.8361 13.084 10.7851 12.934 10.7361 12.834C10.0871 11.735 9.73714 10.487 9.73714 9.239ZM6.19234 14.3819C7.62634 14.3819 8.78834 15.6559 8.78834 17.2279C8.78834 18.7999 7.62634 20.0729 6.19234 20.0729C4.75834 20.0729 3.59634 18.7999 3.59634 17.2279C3.59634 15.6559 4.75834 14.3819 6.19234 14.3819ZM11.3852 23.2188V23.7178C11.3852 24.3178 10.9352 24.7668 10.3362 24.7668H2.04824C1.44924 24.7668 1.00024 24.3178 1.00024 23.7178V23.2188C1.00024 21.9708 2.49824 21.1718 3.84524 20.5728C3.89624 20.5728 3.94624 20.5228 3.99524 20.4728C4.09524 20.4228 4.24524 20.4228 4.34524 20.4728C4.89424 20.8228 5.54324 21.0228 6.24224 21.0228C6.89124 21.0228 7.54024 20.8228 8.13924 20.4728C8.23924 20.4228 8.33924 20.4228 8.43924 20.4728C8.48924 20.4728 8.53924 20.5228 8.58924 20.5728C9.93724 21.2218 11.3852 21.9708 11.3852 23.2188Z" fill="#706E6B"/>
</svg>
