<svg width="26" height="26" viewBox="0 0 26 26" fill="none" xmlns="http://www.w3.org/2000/svg">
<path fill-rule="evenodd" clip-rule="evenodd" d="M13.9222 13.9515C14.9222 12.5015 15.9722 11.8015 16.6722 10.7015C17.9222 8.8515 18.1722 6.2015 17.3722 4.2015C16.5722 2.1515 14.6722 0.951503 12.4722 1.0015C10.2722 1.0515 8.47222 2.4015 7.77222 4.4515C6.97222 6.7015 7.32222 9.4015 9.12222 11.1015C9.87222 11.8015 10.5722 12.9015 10.1722 13.9515C9.82222 14.9515 8.62222 15.4015 7.77222 15.8015C5.82222 16.6515 3.47222 17.8515 3.07222 20.1515C2.67222 22.0515 3.97222 24.0015 6.02222 24.0015H15.0222C15.4222 24.0015 15.7722 23.5515 15.5222 23.2515C14.2722 21.8015 12.9722 19.9015 12.9722 18.0015C12.8722 16.6515 13.2722 15.1515 13.9222 13.9515ZM19.4222 19.1515C18.3722 19.1515 17.4722 18.3015 17.4722 17.2515C17.4722 16.2015 18.3222 15.3515 19.4222 15.3515C20.4722 15.3515 21.3722 16.2015 21.3722 17.2515C21.3722 18.3015 20.4722 19.1515 19.4222 19.1515ZM19.4222 12.6515C16.8722 12.6515 14.8222 14.7015 14.8222 17.2515C14.8222 20.4015 18.1222 23.3515 19.1222 24.1015C19.2722 24.2515 19.5222 24.2515 19.7222 24.1015C20.7222 23.3015 24.0222 20.4015 24.0222 17.2515C24.0222 14.7015 21.9722 12.6515 19.4222 12.6515Z" fill="#706E6B"/>
</svg>
