<svg width="26" height="26" viewBox="0 0 26 26" fill="none" xmlns="http://www.w3.org/2000/svg">
<path fill-rule="evenodd" clip-rule="evenodd" d="M26 5.75C26 5.35 25.65 5 25.25 5H16.75C16.35 5 16 5.35 16 5.75V7.25C16 7.65 16.35 8 16.75 8H25.25C25.65 8 26 7.65 26 7.25V5.75ZM24 17.75C24 17.35 23.65 17 23.25 17H16.75C16.35 17 16 17.35 16 17.75V19.25C16 19.65 16.35 20 16.75 20H23.25C23.65 20 24 19.65 24 19.25V17.75ZM26 11.75C26 11.35 25.65 11 25.25 11H16.75C16.35 11 16 11.35 16 11.75V13.25C16 13.65 16.35 14 16.75 14H25.25C25.65 14 26 13.65 26 13.25V11.75ZM14 2.75C14 2.35 13.65 2 13.25 2H11.75C11.35 2 11 2.35 11 2.75V23.25C11 23.65 11.35 24 11.75 24H13.25C13.65 24 14 23.65 14 23.25V2.75ZM4.7 7.65C4.4 7.35 4 7.6 4 8.1V11H0.75C0.35 11 0 11.35 0 11.75V13.25C0 13.65 0.35 14 0.75 14H4V16.95C4 17.45 4.45 17.7 4.7 17.4L8.85 12.9C9 12.7 9 12.4 8.85 12.2L4.7 7.65Z" fill="#706E6B"/>
</svg>
