<svg width="26" height="26" viewBox="0 0 26 26" fill="none" xmlns="http://www.w3.org/2000/svg">
<path fill-rule="evenodd" clip-rule="evenodd" d="M8.1625 11H4.9625V8.05C4.9625 7.55 4.5125 7.3 4.2625 7.6L0.1125 12.1C-0.0375 12.3 -0.0375 12.6 0.1125 12.8L4.2625 17.3C4.5625 17.6 4.9625 17.35 4.9625 16.85V14H8.1625C8.5625 14 8.9625 13.65 8.9625 13.25V11.75C8.9625 11.35 8.5625 11 8.1625 11ZM25.9625 5.75C25.9625 5.35 25.6125 5 25.2125 5H16.7125C16.3125 5 15.9625 5.35 15.9625 5.75V7.25C15.9625 7.65 16.3125 8 16.7125 8H25.2125C25.6125 8 25.9625 7.65 25.9625 7.25V5.75ZM23.9625 17.75C23.9625 17.35 23.6125 17 23.2125 17H16.7125C16.3125 17 15.9625 17.35 15.9625 17.75V19.25C15.9625 19.65 16.3125 20 16.7125 20H23.2125C23.6125 20 23.9625 19.65 23.9625 19.25V17.75ZM25.9625 11.75C25.9625 11.35 25.6125 11 25.2125 11H16.7125C16.3125 11 15.9625 11.35 15.9625 11.75V13.25C15.9625 13.65 16.3125 14 16.7125 14H25.2125C25.6125 14 25.9625 13.65 25.9625 13.25V11.75ZM13.9625 2.75C13.9625 2.35 13.6125 2 13.2125 2H11.7125C11.3125 2 10.9625 2.35 10.9625 2.75V23.25C10.9625 23.65 11.3125 24 11.7125 24H13.2125C13.6125 24 13.9625 23.65 13.9625 23.25V2.75Z" fill="#706E6B"/>
</svg>
