<svg width="26" height="26" viewBox="0 0 26 26" fill="none" xmlns="http://www.w3.org/2000/svg">
<path fill-rule="evenodd" clip-rule="evenodd" d="M24.25 1H22.75C22.35 1 22 1.35 22 1.75V5.25C22 5.7 21.5 6 21.2 5.65C18.85 3.05 15.5 1.7 11.85 2.05C10.55 2.15 9.3 2.55 8.15 3.15C7.55 3.45 6.95 3.8 6.45 4.2C6.1 4.45 6.05 5 6.35 5.35L7.4 6.4C7.65 6.65 8.05 6.7 8.35 6.5C8.95 6.1 9.6 5.75 10.3 5.45C10.6 5.35 10.95 5.25 11.3 5.15C14.45 4.55 17.45 5.8 19.15 7.85C19.75 8.55 19.3 9 18.8 9H15.3C14.9 9 14.5 9.35 14.5 9.75V11.25C14.5 11.65 14.9 12 15.3 12H24.4C24.75 12 25 11.7 25 11.35V1.75C25 1.35 24.65 1 24.25 1ZM19.7 18.7C19.4 18.4 18.95 18.4 18.65 18.7C17.85 19.5 16.85 20.15 15.75 20.55C15.45 20.65 15.1 20.75 14.75 20.85C11.6 21.45 8.6 20.2 6.9 18.15C6.3 17.45 6.75 17 7.25 17H10.75C11.15 17 11.5 16.65 11.5 16.25V14.75C11.5 14.35 11.15 14 10.75 14H1.65C1.3 14 1 14.3 1 14.65V24.25C1 24.65 1.35 25 1.75 25H3.25C3.65 25 4 24.65 4 24.25V20.75C4 20.3 4.5 20 4.8 20.35C7.1 22.95 10.5 24.3 14.15 23.95C15.45 23.85 16.7 23.45 17.85 22.85C18.95 22.3 19.9 21.6 20.7 20.8C21 20.5 21 20 20.7 19.75L19.7 18.7Z" fill="#706E6B"/>
</svg>
