<svg width="26" height="26" viewBox="0 0 26 26" fill="none" xmlns="http://www.w3.org/2000/svg">
<path fill-rule="evenodd" clip-rule="evenodd" d="M23.25 7H2.75C2.35 7 2 6.65 2 6.25V4.75C2 4.35 2.35 4 2.75 4H23.25C23.65 4 24 4.35 24 4.75V6.25C24 6.65 23.65 7 23.25 7ZM23.25 14.45H2.75C2.35 14.45 2 14.1 2 13.7V12.2C2 11.85 2.35 11.5 2.75 11.5H23.25C23.65 11.5 24 11.85 24 12.25V13.75C24 14.1 23.65 14.45 23.25 14.45ZM23.25 22H2.75C2.35 22 2 21.65 2 21.25V19.75C2 19.35 2.35 19 2.75 19H23.25C23.65 19 24 19.35 24 19.75V21.25C24 21.65 23.65 22 23.25 22Z" fill="#706E6B"/>
</svg>
