<svg width="48" height="48" viewBox="0 0 48 48" fill="none" xmlns="http://www.w3.org/2000/svg">
<rect width="48" height="48" rx="4" fill="#F2CF5B"/>
<mask id="mask0_1518_27888" style="mask-type:luminance" maskUnits="userSpaceOnUse" x="0" y="0" width="48" height="48">
<rect width="48" height="48" rx="4" fill="white"/>
</mask>
<g mask="url(#mask0_1518_27888)">
<path d="M27.2903 20.71H24H20.7096C18.9 20.71 17.4193 22.1906 17.4193 24.0003V28.9358C17.4193 29.539 17.6935 30.0874 18.0774 30.4713C18.4612 30.8551 19.0096 31.1293 19.6129 31.1293V36.0648C19.6129 37.8745 21.0935 39.3551 22.9032 39.3551H24H25.0967C26.9064 39.3551 28.3871 37.8745 28.3871 36.0648V31.1293C28.9903 31.1293 29.5387 30.91 29.9225 30.4713C30.3064 30.0874 30.5806 29.539 30.5806 28.9358V24.0003C30.5806 22.1906 29.1 20.71 27.2903 20.71Z" fill="white"/>
<path d="M24 18.5163C26.12 18.5163 27.8387 16.7976 27.8387 14.6776C27.8387 12.5575 26.12 10.8389 24 10.8389C21.8799 10.8389 20.1613 12.5575 20.1613 14.6776C20.1613 16.7976 21.8799 18.5163 24 18.5163Z" fill="white"/>
<path d="M16.1032 33.1585C15.9935 33.0489 15.829 32.9392 15.7194 32.8295C14.6774 31.7327 14.0742 30.3618 14.0742 28.936V24.0005C14.0742 22.2456 14.7871 20.6005 15.9387 19.4489C16.2677 19.1198 15.9935 18.5166 15.5548 18.5166C14.6226 18.5166 13.5806 18.5166 13.5806 18.5166H10.2903C8.48065 18.5166 7 19.9972 7 21.8069V26.7424C7 27.3456 7.27419 27.894 7.65806 28.2779C8.04194 28.6618 8.59032 28.936 9.19355 28.936V33.8714C9.19355 35.6811 10.6742 37.1618 12.4839 37.1618H13.5806H14.6774C15.171 37.1618 15.6097 37.0521 15.9935 36.8876C16.2129 36.7779 16.3226 36.6134 16.3226 36.394C16.3226 35.736 16.3226 34.2005 16.3226 33.5972C16.3226 33.4327 16.2677 33.2682 16.1032 33.1585Z" fill="white"/>
<path d="M13.5807 16.3229C15.7007 16.3229 17.4194 14.6043 17.4194 12.4842C17.4194 10.3642 15.7007 8.64551 13.5807 8.64551C11.4606 8.64551 9.74194 10.3642 9.74194 12.4842C9.74194 14.6043 11.4606 16.3229 13.5807 16.3229Z" fill="white"/>
<path d="M37.7096 18.5166H34.4193C34.4193 18.5166 33.3774 18.5166 32.4451 18.5166C31.9516 18.5166 31.7322 19.065 32.0612 19.4489C33.2129 20.6553 33.9258 22.2456 33.9258 24.0005V28.936C33.9258 30.3618 33.3774 31.7327 32.2806 32.8295C32.1709 32.9392 32.0612 33.0489 31.8967 33.1585C31.787 33.2682 31.6774 33.4327 31.6774 33.5972C31.6774 34.2005 31.6774 35.6811 31.6774 36.394C31.6774 36.6134 31.787 36.8327 32.0064 36.8876C32.3903 37.0521 32.829 37.1618 33.3225 37.1618H34.4193H35.5161C37.3258 37.1618 38.8064 35.6811 38.8064 33.8714V28.936C39.4096 28.936 39.958 28.7166 40.3419 28.2779C40.7258 27.894 40.9999 27.3456 40.9999 26.7424V21.8069C40.9999 19.9972 39.5193 18.5166 37.7096 18.5166Z" fill="white"/>
<path d="M34.4194 16.3229C36.5395 16.3229 38.2581 14.6043 38.2581 12.4842C38.2581 10.3642 36.5395 8.64551 34.4194 8.64551C32.2993 8.64551 30.5807 10.3642 30.5807 12.4842C30.5807 14.6043 32.2993 16.3229 34.4194 16.3229Z" fill="white"/>
</g>
</svg>
