<svg width="48" height="48" viewBox="0 0 48 48" fill="none" xmlns="http://www.w3.org/2000/svg">
<rect width="48" height="48" rx="4" fill="#3C97DD"/>
<mask id="mask0_1518_27407" style="mask-type:luminance" maskUnits="userSpaceOnUse" x="0" y="0" width="48" height="48">
<rect width="48" height="48" rx="4" fill="white"/>
</mask>
<g mask="url(#mask0_1518_27407)">
<path fill-rule="evenodd" clip-rule="evenodd" d="M10.5133 7H37.4867C39.4133 7 41 8.58667 41 10.5133V37.4867C41 39.4133 39.4133 41 37.4867 41H10.5133C8.58667 41 7 39.4133 7 37.4867V10.5133C7 8.58667 8.58667 7 10.5133 7ZM18.73 35.6167C19.1833 35.6167 19.6367 35.2767 19.6367 34.8233H19.6933V23.4333C19.6933 22.98 19.3533 22.5267 18.9 22.5267H13.0067C12.5533 22.5267 12.1 22.8667 12.1 23.32V34.71C12.1 35.1633 12.44 35.6167 12.8933 35.6167H13.0067H18.73ZM35.73 34.9367C35.73 35.39 35.2767 35.73 34.8233 35.73H23.9433C23.49 35.73 23.15 35.2767 23.15 34.8233V23.32C23.15 22.8667 23.6033 22.5267 24.0567 22.5267H34.88H34.9933C35.4467 22.5267 35.7867 22.98 35.7867 23.4333V34.9367H35.73ZM34.9367 19.07C35.39 19.07 35.8433 18.73 35.8433 18.2767V13.1767C35.8433 12.7233 35.5033 12.27 35.05 12.27H13.0067C12.5533 12.27 12.1 12.61 12.1 13.0633V18.1633C12.1 18.6167 12.44 19.07 12.8933 19.07H13.0067H34.9367Z" fill="white"/>
</g>
</svg>
