<svg width="48" height="48" viewBox="0 0 48 48" fill="none" xmlns="http://www.w3.org/2000/svg">
<rect width="48" height="48" rx="4" fill="#54698D"/>
<mask id="mask0_1518_27409" style="mask-type:luminance" maskUnits="userSpaceOnUse" x="0" y="0" width="48" height="48">
<rect width="48" height="48" rx="4" fill="white"/>
</mask>
<g mask="url(#mask0_1518_27409)">
<path fill-rule="evenodd" clip-rule="evenodd" d="M19.75 31.7633V31.82V32.3867H14.14H9.88997C8.30331 32.3867 7.05664 31.0833 7.05664 29.5533V25.3033V9.83333C7.05664 8.24667 8.35997 7 9.88997 7H29.5533C31.14 7 32.3866 8.30333 32.3866 9.83333V21.5633C31.48 21.62 30.5733 22.0167 29.95 22.6967L28.8166 23.7733L28.7033 23.8867C27.57 25.1333 27.4 26.89 28.1933 28.25H23.4333C21.45 28.25 19.8633 29.78 19.75 31.7067V31.7633ZM11.9866 10.6833C11.59 10.6833 11.3066 10.9667 11.3066 11.3633V13.3467C11.3066 13.7433 11.59 14.0267 11.9866 14.0267H16.2366C16.6333 14.0267 16.9166 13.7433 16.9166 13.3467V11.3633C16.9166 10.9667 16.6333 10.6833 16.2366 10.6833H11.9866ZM11.3066 17.54C11.3066 17.1433 11.59 16.86 11.9866 16.86H27.4566C27.8533 16.86 28.1366 17.1433 28.1366 17.54V19.5233C28.1366 19.92 27.8533 20.2033 27.4566 20.2033H12.0433C11.6466 20.2033 11.3633 19.92 11.3633 19.5233V17.54H11.3066ZM11.3066 23.7167V25.7C11.3066 26.1533 11.59 26.4367 12.0433 26.38H24.68C25.0766 26.38 25.36 26.0967 25.36 25.7V23.7167C25.36 23.32 25.0766 23.0367 24.68 23.0367H11.9866C11.59 23.0367 11.3066 23.32 11.3066 23.7167Z" fill="white"/>
<path d="M33.2366 24.6234L33.1799 24.5667C32.8399 24.2834 32.3299 24.2834 32.0466 24.6234L30.8566 25.7567C30.5733 26.0967 30.5733 26.6067 30.8566 26.8901L33.9733 30.0067C34.0866 30.1201 34.1433 30.2334 34.1433 30.4034C34.1433 30.7434 33.9166 30.9701 33.5766 30.9701H23.4333C22.9799 30.9701 22.6399 31.3101 22.5833 31.7634V33.4634C22.6399 33.9167 22.9799 34.2567 23.4333 34.3701H33.5766C33.6899 34.3701 33.8033 34.4267 33.8599 34.4834C34.0866 34.6534 34.1433 35.0501 33.9733 35.2767L30.8566 38.3934C30.5733 38.7334 30.5733 39.2434 30.8566 39.5267L31.9899 40.7167C32.3299 41.0001 32.8399 41.0001 33.1233 40.7167L40.6033 33.2367C40.8866 32.8967 40.8866 32.3867 40.6033 32.1034L33.2366 24.6234Z" fill="white"/>
</g>
</svg>
