<svg width="48" height="48" viewBox="0 0 48 48" fill="none" xmlns="http://www.w3.org/2000/svg">
<rect width="48" height="48" rx="4" fill="#FAB24C"/>
<mask id="mask0_1518_27900" style="mask-type:luminance" maskUnits="userSpaceOnUse" x="0" y="0" width="48" height="48">
<rect width="48" height="48" rx="4" fill="white"/>
</mask>
<g mask="url(#mask0_1518_27900)">
<path fill-rule="evenodd" clip-rule="evenodd" d="M35.4887 7.54821H12.588C10.1968 7.52683 8.23702 9.4401 8.20093 11.8311V36.1685C8.22784 38.5334 10.1463 40.4396 12.5113 40.4514H35.4887C37.8472 40.4307 39.7558 38.527 39.7825 36.1685V11.8311C39.7945 10.6897 39.3455 9.59172 38.5374 8.78561C37.7292 7.97949 36.6301 7.53338 35.4887 7.54821ZM14.0193 14.6772C14.0477 13.8997 14.673 13.2769 15.4506 13.2514H22.7551C23.5327 13.2769 24.158 13.8997 24.1864 14.6772V16.103C24.158 16.8805 23.5327 17.5034 22.7551 17.5289H15.4506C14.673 17.5034 14.0477 16.8805 14.0193 16.103V14.6772ZM33.8709 33.3224C33.8425 34.0999 33.2172 34.7228 32.4396 34.7482H25.19C24.4124 34.7228 23.7871 34.0999 23.7587 33.3224V31.8966C23.7871 31.1191 24.4124 30.4962 25.19 30.4708H32.4945C33.2608 30.4916 33.8712 31.119 33.8709 31.8856V33.3224ZM34.1506 26.5279C34.0864 27.3188 33.4358 27.9339 32.6425 27.9537H15.4506C14.673 27.9283 14.0477 27.3054 14.0193 26.5279V21.554C14.0477 20.7765 14.673 20.1536 15.4506 20.1282H32.6974C33.475 20.1536 34.1003 20.7765 34.1287 21.554L34.1506 26.5279Z" fill="white"/>
</g>
</svg>
