<svg width="48" height="48" viewBox="0 0 48 48" fill="none" xmlns="http://www.w3.org/2000/svg">
<rect width="48" height="48" rx="4" fill="#FF9A3C"/>
<mask id="mask0_1518_27926" style="mask-type:luminance" maskUnits="userSpaceOnUse" x="0" y="0" width="48" height="48">
<rect width="48" height="48" rx="4" fill="white"/>
</mask>
<g mask="url(#mask0_1518_27926)">
<path d="M41 18.6157C41 18.0491 40.49 17.5391 39.9234 17.5391H25.0767C24.51 17.5391 24 18.0491 24 18.6157V20.7124C24 21.2791 24.51 21.7891 25.0767 21.7891H35.1634L24.2267 35.2191C24.2267 35.2191 24.2267 35.2757 24.17 35.2757C24.0567 35.4457 23.9434 35.6724 23.9434 35.8991V37.9957C23.9434 38.5624 24.4534 39.0724 25.02 39.0724H39.9234C40.49 39.0724 41 38.5624 41 37.9957V35.8991C41 35.3324 40.49 34.8224 39.9234 34.8224H30.0067L40.7734 21.6191C40.9434 21.3924 41 21.1657 40.9434 20.8824C40.9434 20.8257 40.9434 20.7691 40.9434 20.7691V18.6157H41Z" fill="white"/>
<path d="M24 10.0024C24 9.43578 23.49 8.92578 22.9233 8.92578H8.07667C7.51 8.92578 7 9.43578 7 10.0024V12.0991C7 12.6658 7.51 13.1758 8.07667 13.1758H18.1633L7.22667 26.6058C7.22667 26.6058 7.22667 26.6624 7.17 26.6624C7.05667 26.8324 7 27.0024 7 27.2291V29.3258C7 29.8924 7.51 30.4024 8.07667 30.4024H22.98C23.5467 30.4024 24.0567 29.8924 24.0567 29.3258V27.2291C24.0567 26.6624 23.5467 26.1524 22.98 26.1524H13.0067L23.7733 12.9491C23.9433 12.7224 24 12.4958 23.9433 12.2124C23.9433 12.1558 23.9433 12.0991 23.9433 12.0991V10.0024H24Z" fill="white"/>
</g>
</svg>
