<svg width="48" height="48" viewBox="0 0 48 48" fill="none" xmlns="http://www.w3.org/2000/svg">
<g clip-path="url(#clip0_1518_28014)">
<mask id="mask0_1518_28014" style="mask-type:alpha" maskUnits="userSpaceOnUse" x="0" y="0" width="48" height="48">
<path d="M44 0H4C1.79086 0 0 1.79086 0 4V44C0 46.2091 1.79086 48 4 48H44C46.2091 48 48 46.2091 48 44V4C48 1.79086 46.2091 0 44 0Z" fill="white"/>
</mask>
<g mask="url(#mask0_1518_28014)">
<path d="M44 0H4C1.79086 0 0 1.79086 0 4V44C0 46.2091 1.79086 48 4 48H44C46.2091 48 48 46.2091 48 44V4C48 1.79086 46.2091 0 44 0Z" fill="#04844B"/>
<path d="M20.0426 23.9991H36.4852C36.9869 23.9991 37.4328 23.6647 37.5443 23.1631L40.5541 12.5729C40.7771 11.8483 40.2197 11.1795 39.4951 11.1795H14.0787L13.6328 9.61881C13.4098 8.89422 12.741 8.39258 12.0164 8.39258H9.34098C8.44918 8.39258 7.61312 9.06143 7.55738 9.95323C7.50164 10.9008 8.28197 11.7368 9.22951 11.7368H10.7902L16.0295 29.4614C16.2525 30.186 16.8656 30.6877 17.6459 30.6877H37.0426C37.9344 30.6877 38.7705 30.0188 38.8262 29.127C38.882 28.1795 38.1016 27.3434 37.1541 27.3434H20.0984C19.3738 27.3434 18.7049 26.8418 18.5377 26.1729V26.1172C18.1475 25.0582 18.9836 23.9991 20.0426 23.9991Z" fill="white"/>
<path d="M20.3771 39.605C21.9162 39.605 23.164 38.3573 23.164 36.8181C23.164 35.279 21.9162 34.0312 20.3771 34.0312C18.8379 34.0312 17.5902 35.279 17.5902 36.8181C17.5902 38.3573 18.8379 39.605 20.3771 39.605Z" fill="white"/>
<path d="M33.754 39.605C35.2932 39.605 36.5409 38.3573 36.5409 36.8181C36.5409 35.279 35.2932 34.0312 33.754 34.0312C32.2149 34.0312 30.9672 35.279 30.9672 36.8181C30.9672 38.3573 32.2149 39.605 33.754 39.605Z" fill="white"/>
</g>
</g>
<defs>
<clipPath id="clip0_1518_28014">
<rect width="48" height="48" fill="white"/>
</clipPath>
</defs>
</svg>
