<svg width="48" height="48" viewBox="0 0 48 48" fill="none" xmlns="http://www.w3.org/2000/svg">
<g clip-path="url(#clip0_1518_27948)">
<mask id="mask0_1518_27948" style="mask-type:alpha" maskUnits="userSpaceOnUse" x="0" y="0" width="48" height="48">
<path d="M44 0H4C1.79086 0 0 1.79086 0 4V44C0 46.2091 1.79086 48 4 48H44C46.2091 48 48 46.2091 48 44V4C48 1.79086 46.2091 0 44 0Z" fill="white"/>
</mask>
<g mask="url(#mask0_1518_27948)">
<path d="M44 0H4C1.79086 0 0 1.79086 0 4V44C0 46.2091 1.79086 48 4 48H44C46.2091 48 48 46.2091 48 44V4C48 1.79086 46.2091 0 44 0Z" fill="#00A1E0"/>
<path d="M27.57 14.9337H32.7267C32.9089 14.9401 33.0856 14.8705 33.2146 14.7416C33.3435 14.6126 33.4131 14.4359 33.4067 14.2537C33.4166 14.0573 33.3324 13.8679 33.18 13.7437L26.8334 7.34035C26.7008 7.19927 26.5169 7.11757 26.3234 7.11369C26.1411 7.10729 25.9644 7.17687 25.8355 7.30581C25.7065 7.43475 25.6369 7.61145 25.6433 7.79369V12.9504C25.6712 14.0123 26.5094 14.875 27.57 14.9337Z" fill="white"/>
<path d="M31.8766 26.9473C29.0575 26.9473 26.516 28.6455 25.4371 31.25C24.3583 33.8545 24.9546 36.8524 26.948 38.8458C28.9414 40.8392 31.9394 41.4355 34.5439 40.3567C37.1484 39.2779 38.8466 36.7364 38.8466 33.9173C38.8481 32.0682 38.1142 30.2945 36.8068 28.9871C35.4993 27.6796 33.7256 26.9458 31.8766 26.9473ZM33.0666 34.5406C32.8399 34.5406 32.6699 34.4839 32.4999 34.4839L29.8366 37.0906C29.7046 37.2711 29.4935 37.3767 29.2699 37.3739C29.0569 37.3854 28.8496 37.3025 28.7032 37.1473C28.4205 36.801 28.4205 36.3035 28.7032 35.9573L31.3666 33.2939C31.3135 33.11 31.2943 32.918 31.3099 32.7273C31.2712 32.139 31.4723 31.5601 31.8672 31.1225C32.2622 30.6848 32.8175 30.4256 33.4066 30.4039C33.6332 30.4039 33.8032 30.4606 33.9732 30.4606C34.0299 30.4606 34.0299 30.5173 34.0299 30.6873L32.8399 31.8773C32.7826 31.963 32.7826 32.0748 32.8399 32.1606L33.6899 33.0106C33.796 33.068 33.9239 33.068 34.0299 33.0106L35.2199 31.8206C35.2766 31.7639 35.4466 31.7639 35.4466 31.8773C35.4908 32.0628 35.5099 32.2534 35.5032 32.4439C35.4598 33.0457 35.1782 33.6054 34.7209 33.9989C34.2635 34.3925 33.6681 34.5874 33.0666 34.5406Z" fill="white"/>
<path d="M24.9066 27.7408C27.3433 24.9075 31.31 24.7375 31.8766 24.7375C32.4433 24.7375 33.4066 24.6808 33.35 23.8875C33.2933 23.0941 33.35 18.8441 33.35 18.8441C33.3613 18.5853 33.2635 18.3336 33.0803 18.1504C32.8971 17.9672 32.6454 17.8694 32.3866 17.8808H25.5866C23.9931 17.8746 22.7028 16.5843 22.6966 14.9908V8.19079C22.708 7.93198 22.6102 7.68028 22.427 7.4971C22.2438 7.31392 21.9921 7.21608 21.7333 7.22745H12.1C10.5238 7.27471 9.25722 8.54134 9.20996 10.1175V33.4075C9.21617 35.001 10.5064 36.2912 12.1 36.2975H21.96C21.96 36.2975 22.9233 35.7308 22.8666 34.9375C22.81 34.1441 22.5266 30.5175 24.9066 27.7408ZM16.0666 9.77745C17.2246 9.77745 18.1633 10.7162 18.1633 11.8741C18.1633 13.0321 17.2246 13.9708 16.0666 13.9708C14.9087 13.9708 13.97 13.0321 13.97 11.8741C13.9685 11.3176 14.1889 10.7834 14.5824 10.3899C14.9759 9.99636 15.5101 9.77594 16.0666 9.77745ZM12.8366 17.0875C13.0683 15.5164 14.422 14.3561 16.01 14.3675H16.1233C17.7113 14.3561 19.065 15.5164 19.2966 17.0875C19.2975 17.2331 19.2361 17.3722 19.1278 17.4697C19.0195 17.5671 18.8747 17.6136 18.73 17.5975H13.29C12.8366 17.5975 12.8366 17.3141 12.8366 17.0875ZM21.3366 29.4975C21.348 29.7563 21.2502 30.008 21.067 30.1911C20.8838 30.3743 20.6321 30.4722 20.3733 30.4608H14.0266C13.7678 30.4722 13.5161 30.3743 13.3329 30.1911C13.1498 30.008 13.0519 29.7563 13.0633 29.4975V28.5341C13.0519 28.2753 13.1498 28.0236 13.3329 27.8404C13.5161 27.6572 13.7678 27.5594 14.0266 27.5708H20.3733C20.6321 27.5594 20.8838 27.6572 21.067 27.8404C21.2502 28.0236 21.348 28.2753 21.3366 28.5341V29.4975ZM14.0266 24.6241C13.7678 24.6355 13.5161 24.5377 13.3329 24.3545C13.1498 24.1713 13.0519 23.9196 13.0633 23.6608V22.6975C13.0519 22.4386 13.1498 22.187 13.3329 22.0038C13.5161 21.8206 13.7678 21.7227 14.0266 21.7341H25.7C25.9588 21.7227 26.2105 21.8206 26.3937 22.0038C26.5768 22.187 26.6747 22.4386 26.6633 22.6975V23.6608C26.6747 23.9196 26.5768 24.1713 26.3937 24.3545C26.2105 24.5377 25.9588 24.6355 25.7 24.6241H14.0266Z" fill="white"/>
</g>
</g>
<defs>
<clipPath id="clip0_1518_27948">
<rect width="48" height="48" fill="white"/>
</clipPath>
</defs>
</svg>
