<svg width="48" height="48" viewBox="0 0 48 48" fill="none" xmlns="http://www.w3.org/2000/svg">
<g clip-path="url(#clip0_1518_27940)">
<mask id="mask0_1518_27940" style="mask-type:alpha" maskUnits="userSpaceOnUse" x="0" y="0" width="48" height="48">
<path d="M44 0H4C1.79086 0 0 1.79086 0 4V44C0 46.2091 1.79086 48 4 48H44C46.2091 48 48 46.2091 48 44V4C48 1.79086 46.2091 0 44 0Z" fill="white"/>
</mask>
<g mask="url(#mask0_1518_27940)">
<path d="M44 0H4C1.79086 0 0 1.79086 0 4V44C0 46.2091 1.79086 48 4 48H44C46.2091 48 48 46.2091 48 44V4C48 1.79086 46.2091 0 44 0Z" fill="#449488"/>
<path d="M17.7666 13.8H30.2333C30.8592 13.8 31.3666 13.2926 31.3666 12.6667V10.4C31.3666 8.52223 29.8444 7 27.9666 7H20.0333C18.1555 7 16.6333 8.52223 16.6333 10.4V12.6667C16.6333 13.2926 17.1407 13.8 17.7666 13.8Z" fill="white"/>
<path d="M36.4666 9.83319H35.3333C35.1801 9.82306 35.03 9.8795 34.9215 9.98805C34.8129 10.0966 34.7565 10.2467 34.7666 10.3999V12.6665C34.7666 13.8688 34.289 15.0219 33.4389 15.8721C32.5887 16.7222 31.4356 17.1999 30.2333 17.1999H17.7666C15.2629 17.1999 13.2333 15.1702 13.2333 12.6665V10.3999C13.2434 10.2467 13.187 10.0966 13.0784 9.98805C12.9699 9.8795 12.8198 9.82306 12.6666 9.83319H11.5333C9.65553 9.83319 8.1333 11.3554 8.1333 13.2332V37.5999C8.1333 39.4776 9.65553 40.9999 11.5333 40.9999H36.4666C38.3444 40.9999 39.8666 39.4776 39.8666 37.5999V13.2332C39.8666 11.3554 38.3444 9.83319 36.4666 9.83319ZM27.9666 31.9332C27.9666 32.5591 27.4592 33.0665 26.8333 33.0665H15.4433C14.8174 33.0665 14.31 32.5591 14.31 31.9332V30.7999C14.31 30.1739 14.8174 29.6665 15.4433 29.6665H26.8333C27.4592 29.6665 27.9666 30.1739 27.9666 30.7999V31.9332ZM33.6333 26.2665C33.6333 26.8925 33.1259 27.3999 32.5 27.3999H15.4433C14.8174 27.3999 14.31 26.8925 14.31 26.2665V25.1332C14.31 24.5073 14.8174 23.9999 15.4433 23.9999H32.5C33.1259 23.9999 33.6333 24.5073 33.6333 25.1332V26.2665Z" fill="white"/>
</g>
</g>
<defs>
<clipPath id="clip0_1518_27940">
<rect width="48" height="48" fill="white"/>
</clipPath>
</defs>
</svg>
