<svg width="48" height="48" viewBox="0 0 48 48" fill="none" xmlns="http://www.w3.org/2000/svg">
<g clip-path="url(#clip0_1518_27942)">
<mask id="mask0_1518_27942" style="mask-type:alpha" maskUnits="userSpaceOnUse" x="0" y="0" width="48" height="48">
<path d="M44 0H4C1.79086 0 0 1.79086 0 4V44C0 46.2091 1.79086 48 4 48H44C46.2091 48 48 46.2091 48 44V4C48 1.79086 46.2091 0 44 0Z" fill="white"/>
</mask>
<g mask="url(#mask0_1518_27942)">
<path d="M44 0H4C1.79086 0 0 1.79086 0 4V44C0 46.2091 1.79086 48 4 48H44C46.2091 48 48 46.2091 48 44V4C48 1.79086 46.2091 0 44 0Z" fill="#449488"/>
<path d="M11.8166 34.4835V15.2168H10.91C9.39732 15.2446 8.18661 16.4806 8.18995 17.9935V38.0535C8.18661 39.5664 9.39732 40.8023 10.91 40.8301H31.0833C32.5959 40.8023 33.8066 39.5664 33.8033 38.0535V37.2601H14.5366C13.024 37.2323 11.8133 35.9964 11.8166 34.4835Z" fill="white"/>
<path d="M21.9599 12.7799H31.9899C32.2313 12.783 32.4637 12.6884 32.6344 12.5177C32.8051 12.347 32.8996 12.1146 32.8966 11.8732V10.0032C32.8999 8.49034 31.6892 7.2544 30.1766 7.22656H23.7732C23.0429 7.22949 22.3441 7.52481 21.833 8.04654C21.3219 8.56828 21.0411 9.27297 21.0532 10.0032V11.8732C21.0652 12.3689 21.4642 12.7679 21.9599 12.7799Z" fill="white"/>
<path d="M37.0333 9.4937H36.1267C36.0035 9.48323 35.882 9.52762 35.7946 9.61501C35.7073 9.7024 35.6629 9.82389 35.6733 9.94703V11.817C35.6828 13.8644 34.0373 15.5352 31.99 15.557H21.96C19.9218 15.5141 18.2885 13.8557 18.2767 11.817V9.94703C18.2871 9.82389 18.2427 9.7024 18.1554 9.61501C18.068 9.52762 17.9465 9.48323 17.8233 9.4937H16.9167C16.1863 9.49662 15.4876 9.79194 14.9765 10.3137C14.4654 10.8354 14.1845 11.5401 14.1967 12.2704V32.2737C14.1933 33.7866 15.404 35.0225 16.9167 35.0504H37.0333C37.7637 35.0474 38.4624 34.7521 38.9735 34.2304C39.4846 33.7086 39.7655 33.004 39.7533 32.2737V12.327C39.7762 11.5884 39.5007 10.8717 38.9889 10.3386C38.4772 9.8055 37.7723 9.50096 37.0333 9.4937ZM30.1767 27.117C30.1797 27.3584 30.0852 27.5908 29.9145 27.7615C29.7438 27.9322 29.5114 28.0268 29.27 28.0237H20.09C19.8486 28.0268 19.6162 27.9322 19.4455 27.7615C19.2748 27.5908 19.1803 27.3584 19.1833 27.117V26.2104C19.1803 25.969 19.2748 25.7366 19.4455 25.5659C19.6162 25.3952 19.8486 25.3006 20.09 25.3037H29.27C29.5114 25.3006 29.7438 25.3952 29.9145 25.5659C30.0852 25.7366 30.1797 25.969 30.1767 26.2104V27.117ZM34.7667 22.4704C34.7697 22.7118 34.6752 22.9442 34.5045 23.1149C34.3338 23.2856 34.1014 23.3801 33.86 23.377H20.09C19.8486 23.3801 19.6162 23.2856 19.4455 23.1149C19.2748 22.9442 19.1803 22.7118 19.1833 22.4704V21.5637C19.1803 21.3223 19.2748 21.0899 19.4455 20.9192C19.6162 20.7485 19.8486 20.654 20.09 20.657H33.86C34.1014 20.654 34.3338 20.7485 34.5045 20.9192C34.6752 21.0899 34.7697 21.3223 34.7667 21.5637V22.4704Z" fill="white"/>
</g>
</g>
<defs>
<clipPath id="clip0_1518_27942">
<rect width="48" height="48" fill="white"/>
</clipPath>
</defs>
</svg>
