<svg width="48" height="48" viewBox="0 0 48 48" fill="none" xmlns="http://www.w3.org/2000/svg">
<rect width="48" height="48" rx="4" fill="#54698D"/>
<mask id="mask0_1518_27938" style="mask-type:luminance" maskUnits="userSpaceOnUse" x="0" y="0" width="48" height="48">
<rect width="48" height="48" rx="4" fill="white"/>
</mask>
<g mask="url(#mask0_1518_27938)">
<path fill-rule="evenodd" clip-rule="evenodd" d="M38.4194 12.7127L33.403 7.76314C33.2793 7.62684 33.1021 7.55149 32.9181 7.55691C32.4946 7.55995 32.152 7.90255 32.1489 8.3261V11.8822C32.155 13.0709 33.1172 14.0331 34.306 14.0392H37.8565C38.28 14.0362 38.6226 13.6936 38.6256 13.27C38.6201 13.0666 38.5476 12.8707 38.4194 12.7127Z" fill="white"/>
<path fill-rule="evenodd" clip-rule="evenodd" d="M12.6463 31.3178V14.0391C10.8593 14.0267 9.3964 15.4572 9.3689 17.2441V37.7221C9.36742 38.5918 9.71224 39.4262 10.3272 40.0412C10.9421 40.6561 11.7766 41.001 12.6463 40.9995H28.8771C30.6641 41.0119 32.127 39.5814 32.1545 37.7946H19.123C15.5725 37.7946 12.6463 37.7946 12.6463 31.3178Z" fill="white"/>
<path fill-rule="evenodd" clip-rule="evenodd" d="M37.5164 17.2439H32.082C30.2972 17.2533 28.8377 15.8237 28.8102 14.039V8.60459C28.8284 8.32149 28.7239 8.04425 28.5233 7.84365C28.3227 7.64305 28.0454 7.53851 27.7623 7.55673H19.123C17.3382 7.54735 15.8787 8.977 15.8512 10.7616V31.2453C15.8525 32.1075 16.2006 32.9329 16.817 33.5358C17.4335 34.1386 18.2665 34.4681 19.1286 34.4502H35.3594C37.1464 34.4626 38.6093 33.0321 38.6368 31.2453V18.3587C38.6368 18.0621 38.5186 17.7777 38.3083 17.5685C38.098 17.3592 37.8131 17.2425 37.5164 17.2439ZM23.9499 31.0892C23.9499 31.8557 23.3285 32.4771 22.562 32.4771H19.7751C19.0239 32.4559 18.426 31.8407 18.4263 31.0892V28.3023C18.4263 27.5358 19.0476 26.9144 19.8141 26.9144H22.601C22.9691 26.9144 23.3221 27.0607 23.5824 27.3209C23.8427 27.5812 23.9889 27.9342 23.9889 28.3023L23.9499 31.0892ZM23.9499 23.4643C23.9408 24.2221 23.3254 24.8324 22.5676 24.8354H19.7807C19.0337 24.8175 18.4351 24.2114 18.4263 23.4643V20.6774C18.4263 19.9109 19.0476 19.2895 19.8141 19.2895H22.601C23.3675 19.2895 23.9889 19.9109 23.9889 20.6774L23.9499 23.4643ZM31.5748 31.0892C31.5717 31.8535 30.9513 32.4715 30.1869 32.4715H27.4C27.032 32.4715 26.679 32.3253 26.4187 32.065C26.1584 31.8047 26.0122 31.4517 26.0122 31.0836V28.2967C26.0122 27.9286 26.1584 27.5756 26.4187 27.3154C26.679 27.0551 27.032 26.9089 27.4 26.9089H30.1869C30.9534 26.9089 31.5748 27.5302 31.5748 28.2967V31.0892ZM31.5748 23.4643C31.5656 24.2242 30.9469 24.8355 30.1869 24.8354H27.4C27.032 24.8354 26.679 24.6892 26.4187 24.4289C26.1584 24.1686 26.0122 23.8156 26.0122 23.4475V20.6607C26.0122 19.8942 26.6336 19.2728 27.4 19.2728H30.1869C30.9534 19.2728 31.5748 19.8942 31.5748 20.6607V23.4643Z" fill="white"/>
</g>
</svg>
