<svg width="48" height="48" viewBox="0 0 48 48" fill="none" xmlns="http://www.w3.org/2000/svg">
<rect width="48" height="48" rx="4" fill="#0079BC"/>
<mask id="mask0_1518_27928" style="mask-type:luminance" maskUnits="userSpaceOnUse" x="0" y="0" width="48" height="48">
<rect width="48" height="48" rx="4" fill="white"/>
</mask>
<g mask="url(#mask0_1518_27928)">
<path d="M38.4361 12.7422L33.4197 7.78154C33.2524 7.61433 33.0852 7.55859 32.918 7.55859C32.4721 7.55859 32.1377 7.89302 32.1377 8.33892V11.9061C32.1934 13.0766 33.141 14.0242 34.3115 14.0242H37.8787C38.2688 14.0242 38.6033 13.6897 38.6033 13.2996C38.6033 13.0766 38.5475 12.9094 38.4361 12.7422Z" fill="white"/>
<path d="M12.6295 31.3021V14.0234C10.8459 14.0234 9.39673 15.4726 9.39673 17.2562V37.712C9.39673 39.4956 10.8459 40.9447 12.6295 41.0005H28.9049C30.6885 41.0005 32.082 39.607 32.1377 37.8234H19.1508C15.5836 37.8234 12.6295 37.8234 12.6295 31.3021Z" fill="white"/>
<path d="M24.8361 21.1018V26.1182H29.5738C29.5738 26.1182 29.8525 24.3346 28.2361 22.6625C26.6197 21.0461 24.8361 21.1018 24.8361 21.1018Z" fill="white"/>
<path fill-rule="evenodd" clip-rule="evenodd" d="M32.0262 17.2566H37.4885C38.1573 17.2566 38.6032 17.7582 38.6032 18.3713V31.2467V31.3025C38.5475 33.0861 37.0983 34.5352 35.3147 34.4795H19.095H19.0393C17.2557 34.4795 15.8065 33.0303 15.8065 31.2467V10.791V10.7352C15.8623 8.95164 17.3114 7.50246 19.095 7.5582H27.7344H27.7901C28.3475 7.61393 28.7934 8.05984 28.7377 8.61721V14.0238V14.0795C28.7934 15.8631 30.2426 17.3123 32.0262 17.2566ZM24.8918 32.4729C28.5147 32.5287 31.4688 29.5746 31.5246 25.9516C31.5246 22.3287 28.6262 19.3189 25.0032 19.3189C21.3803 19.2631 18.4262 22.2172 18.3705 25.8402C18.3147 29.4631 21.2688 32.4172 24.8918 32.4729Z" fill="white"/>
</g>
</svg>
