<svg width="48" height="48" viewBox="0 0 48 48" fill="none" xmlns="http://www.w3.org/2000/svg">
<g clip-path="url(#clip0_1518_27944)">
<mask id="mask0_1518_27944" style="mask-type:alpha" maskUnits="userSpaceOnUse" x="0" y="0" width="48" height="48">
<path d="M44 0H4C1.79086 0 0 1.79086 0 4V44C0 46.2091 1.79086 48 4 48H44C46.2091 48 48 46.2091 48 44V4C48 1.79086 46.2091 0 44 0Z" fill="white"/>
</mask>
<g mask="url(#mask0_1518_27944)">
<path d="M44 0H4C1.79086 0 0 1.79086 0 4V44C0 46.2091 1.79086 48 4 48H44C46.2091 48 48 46.2091 48 44V4C48 1.79086 46.2091 0 44 0Z" fill="#449488"/>
<path d="M17.7666 13.8H30.2333C30.8592 13.8 31.3666 13.2926 31.3666 12.6667V10.4C31.3666 8.52223 29.8444 7 27.9666 7H20.0333C18.1555 7 16.6333 8.52223 16.6333 10.4V12.6667C16.6333 13.2926 17.1407 13.8 17.7666 13.8ZM36.4666 9.83333H35.3333C35.1801 9.8232 35.03 9.87964 34.9215 9.98819C34.8129 10.0967 34.7565 10.2468 34.7666 10.4V12.6667C34.7666 13.869 34.289 15.0221 33.4389 15.8722C32.5887 16.7224 31.4356 17.2 30.2333 17.2H17.7666C15.2629 17.2 13.2333 15.1704 13.2333 12.6667V10.4C13.2434 10.2468 13.187 10.0967 13.0784 9.98819C12.9699 9.87964 12.8198 9.8232 12.6666 9.83333H11.5333C9.65553 9.83333 8.1333 11.3556 8.1333 13.2333V37.6C8.1333 39.4778 9.65553 41 11.5333 41H36.4666C38.3444 41 39.8666 39.4778 39.8666 37.6V13.2333C39.8666 11.3556 38.3444 9.83333 36.4666 9.83333ZM17.7666 34.2C17.7666 34.8259 17.2592 35.3333 16.6333 35.3333H15.5C14.874 35.3333 14.3666 34.8259 14.3666 34.2V33.0667C14.3666 32.4407 14.874 31.9333 15.5 31.9333H16.6333C17.2592 31.9333 17.7666 32.4407 17.7666 33.0667V34.2ZM17.7666 28.5333C17.7666 29.1593 17.2592 29.6667 16.6333 29.6667H15.5C14.874 29.6667 14.3666 29.1593 14.3666 28.5333V27.4C14.3666 26.7741 14.874 26.2667 15.5 26.2667H16.6333C17.2592 26.2667 17.7666 26.7741 17.7666 27.4V28.5333ZM17.7666 22.8667C17.7666 23.4926 17.2592 24 16.6333 24H15.5C14.874 24 14.3666 23.4926 14.3666 22.8667V21.7333C14.3666 21.1074 14.874 20.6 15.5 20.6H16.6333C17.2592 20.6 17.7666 21.1074 17.7666 21.7333V22.8667ZM33.6333 34.2C33.6333 34.8259 33.1259 35.3333 32.5 35.3333H21.1666C20.5407 35.3333 20.0333 34.8259 20.0333 34.2V33.0667C20.0333 32.4407 20.5407 31.9333 21.1666 31.9333H32.5C33.1259 31.9333 33.6333 32.4407 33.6333 33.0667V34.2ZM33.6333 28.5333C33.6333 29.1593 33.1259 29.6667 32.5 29.6667H21.1666C20.5407 29.6667 20.0333 29.1593 20.0333 28.5333V27.4C20.0333 26.7741 20.5407 26.2667 21.1666 26.2667H32.5C33.1259 26.2667 33.6333 26.7741 33.6333 27.4V28.5333ZM33.6333 22.8667C33.6333 23.4926 33.1259 24 32.5 24H21.1666C20.5407 24 20.0333 23.4926 20.0333 22.8667V21.7333C20.0333 21.1074 20.5407 20.6 21.1666 20.6H32.5C33.1259 20.6 33.6333 21.1074 33.6333 21.7333V22.8667Z" fill="white"/>
</g>
</g>
<defs>
<clipPath id="clip0_1518_27944">
<rect width="48" height="48" fill="white"/>
</clipPath>
</defs>
</svg>
