<svg width="40" height="40" viewBox="0 0 40 40" fill="none" xmlns="http://www.w3.org/2000/svg">
<rect width="40" height="40" rx="20" fill="#1FCAA0"/>
<mask id="mask0_1518_28036" style="mask-type:luminance" maskUnits="userSpaceOnUse" x="0" y="0" width="40" height="40">
<rect width="40" height="40" rx="20" fill="white"/>
</mask>
<g mask="url(#mask0_1518_28036)">
<path d="M30.56 25.664L27.632 23.312C26.96 22.784 26 22.736 25.328 23.264L22.832 25.088C22.544 25.328 22.112 25.28 21.824 24.992L18.08 21.632L14.72 17.888C14.432 17.6 14.432 17.216 14.624 16.88L16.448 14.384C16.976 13.712 16.928 12.752 16.4 12.08L14.048 9.15199C13.328 8.28799 12.032 8.19199 11.216 9.00799L8.81599 11.504C8.43199 11.888 8.23999 12.464 8.23999 12.992C8.47999 17.888 10.688 22.544 13.952 25.808C17.216 29.072 21.872 31.28 26.768 31.52C27.296 31.568 27.824 31.328 28.208 30.944L30.704 28.448C31.52 27.68 31.472 26.336 30.56 25.664Z" fill="white"/>
</g>
</svg>
