<svg width="40" height="40" viewBox="0 0 40 40" fill="none" xmlns="http://www.w3.org/2000/svg">
<rect width="40" height="40" rx="20" fill="#8199AF"/>
<mask id="mask0_1518_28038" style="mask-type:luminance" maskUnits="userSpaceOnUse" x="0" y="0" width="40" height="40">
<rect width="40" height="40" rx="20" fill="white"/>
</mask>
<g mask="url(#mask0_1518_28038)">
<path d="M29.25 26.2C29.15 27.55 29 29 28.75 30.4C28.7 30.8 28.25 31.25 27.85 31.3C25.15 31.6 22.5 31.8 19.8 31.8C17.15 31.8 14.45 31.65 11.8 31.3C11.4 31.25 10.95 30.85 10.9 30.4C10.55 28.2 10.35 25.95 10.35 23.7C10.35 21.45 10.55 19.2 10.9 17C10.95 16.6 11.4 16.2 11.8 16.1C13.45 15.9 15.05 15.8 16.65 15.7C16.65 15.7 17.95 15.65 17.85 14.4C17.75 13.3 15.85 12.55 15.85 10.7C15.85 9.2 17.35 8 19.8 8C22.2 8 23.7 9.2 23.7 10.7C23.7 12.6 21.85 13.3 21.75 14.4C21.65 15.6 22.95 15.7 22.95 15.7C24.6 15.75 26.25 15.9 27.85 16.1C28.25 16.15 28.7 16.55 28.75 17C29 18.55 29.15 20 29.25 21.55C29.25 22 28.9 22.45 28.45 22.45C28.3 22.45 28.15 22.45 28 22.45C27.55 22.45 26.85 22.1 26.55 21.75C26.55 21.75 25.5 20.65 24.35 20.6C22.5 20.55 21.1 22.15 21.1 23.9C21.1 25.65 22.5 27.3 24.3 27.25C25.4 27.2 26.5 26.1 26.5 26.1C26.85 25.8 27.5 25.5 27.95 25.5C28.1 25.5 28.25 25.5 28.4 25.5C28.95 25.5 29.3 25.8 29.25 26.2Z" fill="white"/>
</g>
</svg>
