<svg width="40" height="40" viewBox="0 0 40 40" fill="none" xmlns="http://www.w3.org/2000/svg">
<rect width="40" height="40" rx="20" fill="#54698D"/>
<mask id="mask0_1518_28042" style="mask-type:luminance" maskUnits="userSpaceOnUse" x="0" y="0" width="40" height="40">
<rect width="40" height="40" rx="20" fill="white"/>
</mask>
<g mask="url(#mask0_1518_28042)">
<path d="M16.8163 25.6326C16.8163 25.2408 16.4735 24.8979 16.0816 24.8979H8.73469C8.34286 24.8979 8 25.2408 8 25.6326V31.0204C8 31.4122 8.34286 31.7551 8.73469 31.7551H16.0816C16.4735 31.7551 16.8163 31.4122 16.8163 31.0204V25.6326Z" fill="white"/>
<path d="M10.9878 18.0408H8.58781C8.09801 18.0408 7.85311 18.4816 8.14699 18.7265L12.0654 22.7918C12.2613 22.9387 12.5552 22.9387 12.7511 22.7918L16.6694 18.7265C16.9633 18.4326 16.7184 18.0408 16.2286 18.0408H13.9266C13.9266 15.5918 16.3266 13.1428 18.7756 13.1428V10.204C14.3674 10.204 10.9878 13.6326 10.9878 18.0408Z" fill="white"/>
<path d="M27.4939 17.2082C27.298 17.0612 27.0041 17.0612 26.8082 17.2082L22.8898 21.2735C22.596 21.5673 22.8409 21.9592 23.3307 21.9592H25.6817C25.6817 24.898 23.6735 26.8571 20.7347 26.8571V29.7959C25.1429 29.7959 28.6205 26.3673 28.6205 21.9592H31.0205C31.5103 21.9592 31.7551 21.5184 31.4613 21.2735L27.4939 17.2082Z" fill="white"/>
<path d="M31.5102 8.97957C31.5102 8.58773 31.1673 8.24487 30.7755 8.24487H23.4285C23.0367 8.24487 22.6938 8.58773 22.6938 8.97957V14.3673C22.6938 14.7592 23.0367 15.102 23.4285 15.102H30.7755C31.1673 15.102 31.5102 14.7592 31.5102 14.3673V8.97957Z" fill="white"/>
</g>
</svg>
