<svg width="40" height="40" viewBox="0 0 40 40" fill="none" xmlns="http://www.w3.org/2000/svg">
<rect width="40" height="40" rx="20" fill="#54698D"/>
<mask id="mask0_1518_28044" style="mask-type:luminance" maskUnits="userSpaceOnUse" x="0" y="0" width="40" height="40">
<rect width="40" height="40" rx="20" fill="white"/>
</mask>
<g mask="url(#mask0_1518_28044)">
<path d="M16.3755 27.8367L8.29389 19.7061C8.00002 19.4122 8.00002 18.9225 8.29389 18.6286L9.37145 17.551C9.66532 17.2571 10.1551 17.2571 10.449 17.551L16.5225 23.6735C16.7184 23.8694 17.0612 23.8694 17.2572 23.6735L29.1592 11.6735C29.4531 11.3796 29.9429 11.3796 30.2368 11.6735L31.3143 12.751C31.6082 13.0449 31.6082 13.5347 31.3143 13.8286L17.4531 27.8367C17.1592 28.1796 16.6694 28.1796 16.3755 27.8367Z" fill="white"/>
</g>
</svg>
