<svg width="40" height="40" viewBox="0 0 40 40" fill="none" xmlns="http://www.w3.org/2000/svg">
<rect width="40" height="40" rx="20" fill="#7DCF64"/>
<mask id="mask0_1518_28360" style="mask-type:luminance" maskUnits="userSpaceOnUse" x="0" y="0" width="40" height="40">
<rect width="40" height="40" rx="20" fill="white"/>
</mask>
<g mask="url(#mask0_1518_28360)">
<path d="M31.75 23.7996L30.65 22.6996C30.35 22.3996 29.85 22.3996 29.55 22.6996L24.85 27.4996C24.65 27.6996 24.3 27.6996 24.1 27.4996L21.9 25.2496C21.6 24.9496 21.1 24.9496 20.8 25.2496L19.7 26.3496C19.4 26.6496 19.4 27.1496 19.7 27.4496L23.9 31.7496C24.2 32.0496 24.7 32.0496 25 31.7496L31.7 24.8996C32.05 24.6496 32.05 24.1496 31.75 23.7996Z" fill="white"/>
<path fill-rule="evenodd" clip-rule="evenodd" d="M21.15 23C20.45 23.1 19.85 23.4 19.35 23.9L18.3 24.95C17.25 26.05 17.25 27.8 18.3 28.9L18.55 29.15C18.85 29.45 18.65 30 18.2 30H10C8.9 30 8 29.1 8 28V10C8 8.9 8.9 8 10 8H27.95C29.05 8 29.95 8.9 29.95 10V20C29.95 20.25 29.8 20.45 29.55 20.5C29 20.6 28.5 20.9 28.1 21.3L24.5 25L23.4 23.8C22.8 23.2 22 22.95 21.15 23ZM20.5 12C20.2 12 20 12.2 20 12.5V13.5C20 13.8 20.2 14 20.5 14H25.5C25.8 14 26 13.8 26 13.5V12.5C26 12.2 25.8 12 25.5 12H20.5ZM20 16.5C20 16.2 20.2 16 20.5 16H25.5C25.8 16 26 16.2 26 16.5V17.5C26 17.8 25.8 18 25.5 18H20.5C20.2 18 20 17.8 20 17.5V16.5ZM12.5 12C12.2 12 12 12.2 12 12.5V17.5C12 17.8 12.2 18 12.5 18H17.5C17.8 18 18 17.8 18 17.5V12.5C18 12.2 17.8 12 17.5 12H12.5ZM16 25.5C16 25.8 15.8 26 15.55 26H12.5C12.25 26 12.05 25.8 12.05 25.5V24.5C12.05 24.2 12.25 24 12.5 24H15.55C15.8 24 16 24.2 16 24.5V25.5ZM12 21.5C12 21.8 12.2 22 12.5 22H22.5C22.8 22 23 21.8 23 21.5V20.5C23 20.2 22.8 20 22.5 20H12.5C12.2 20 12 20.2 12 20.5V21.5Z" fill="white"/>
</g>
</svg>
