<svg width="40" height="40" viewBox="0 0 40 40" fill="none" xmlns="http://www.w3.org/2000/svg">
<rect width="40" height="40" rx="20" fill="#31B9F8"/>
<mask id="mask0_1518_28358" style="mask-type:luminance" maskUnits="userSpaceOnUse" x="0" y="0" width="40" height="40">
<rect width="40" height="40" rx="20" fill="white"/>
</mask>
<g mask="url(#mask0_1518_28358)">
<path d="M31.28 25.7609H29.12V23.6009C29.12 23.2169 28.784 22.8809 28.4 22.8809H26.96C26.576 22.8809 26.24 23.2169 26.24 23.6009V25.7609H24.08C23.696 25.7609 23.36 26.0969 23.36 26.4809V27.9209C23.36 28.3049 23.696 28.6409 24.08 28.6409H26.24V30.8009C26.24 31.1849 26.576 31.5209 26.96 31.5209H28.4C28.784 31.5209 29.12 31.1849 29.12 30.8009V28.6409H31.28C31.664 28.6409 32 28.3049 32 27.9209V26.4809C32 26.0969 31.664 25.7609 31.28 25.7609Z" fill="white"/>
<path fill-rule="evenodd" clip-rule="evenodd" d="M23.84 23.8405H23.36C22.304 23.8405 21.44 24.7045 21.44 25.7605V28.6405V28.8325C21.488 29.2645 21.152 29.6005 20.72 29.6005H9.92C8.864 29.6005 8 28.7365 8 27.6805V10.4005C8 9.34447 8.864 8.48047 9.92 8.48047H27.2C28.256 8.48047 29.12 9.34447 29.12 10.4005V20.2405C29.12 20.6245 28.784 20.9605 28.4 20.9605H26.24C25.184 20.9605 24.32 21.8245 24.32 22.8805V23.3605C24.32 23.6485 24.128 23.8405 23.84 23.8405ZM20 12.3205C19.712 12.3205 19.52 12.5125 19.52 12.8005V13.7605C19.52 14.0485 19.712 14.2405 20 14.2405H24.8C25.088 14.2405 25.28 14.0485 25.28 13.7605V12.8005C25.28 12.5125 25.088 12.3205 24.8 12.3205H20ZM19.52 16.6405C19.52 16.3525 19.712 16.1605 20 16.1605H24.8C25.088 16.1605 25.28 16.3525 25.28 16.6405V17.6005C25.28 17.8885 25.088 18.0805 24.8 18.0805H20C19.712 18.0805 19.52 17.8885 19.52 17.6005V16.6405ZM12.32 12.3205C12.032 12.3205 11.84 12.5125 11.84 12.8005V17.6005C11.84 17.8885 12.032 18.0805 12.32 18.0805H17.12C17.408 18.0805 17.6 17.8885 17.6 17.6005V12.8005C17.6 12.5125 17.408 12.3205 17.12 12.3205H12.32ZM19.52 25.2805C19.52 25.5685 19.328 25.7605 19.04 25.7605H12.32C12.032 25.7605 11.84 25.5685 11.84 25.2805V24.3205C11.84 24.0325 12.032 23.8405 12.32 23.8405H19.04C19.328 23.8405 19.52 24.0325 19.52 24.3205V25.2805ZM11.84 21.4405C11.84 21.7285 12.032 21.9205 12.32 21.9205H21.92C22.208 21.9205 22.4 21.7285 22.4 21.4405V20.4805C22.4 20.1925 22.208 20.0005 21.92 20.0005H12.32C12.032 20.0005 11.84 20.1925 11.84 20.4805V21.4405Z" fill="white"/>
</g>
</svg>
