<svg width="40" height="40" viewBox="0 0 40 40" fill="none" xmlns="http://www.w3.org/2000/svg">
<rect width="40" height="40" rx="20" fill="#54698D"/>
<mask id="mask0_1518_28072" style="mask-type:luminance" maskUnits="userSpaceOnUse" x="0" y="0" width="40" height="40">
<rect width="40" height="40" rx="20" fill="white"/>
</mask>
<g mask="url(#mask0_1518_28072)">
<path d="M20.5 8C20.8 8 21 8.2 21 8.5V31.45C21 31.75 20.8 31.95 20.5 31.95H19.5C19.2 31.95 19 31.75 19 31.45V8.5C19 8.2 19.2 8 19.5 8H20.5Z" fill="white"/>
<path d="M20 15.1L15.95 11.05C15.75 10.85 15.75 10.55 15.95 10.35L16.65 9.65C16.85 9.45 17.15 9.45 17.35 9.65L20 12.3L22.65 9.65C22.85 9.45 23.15 9.45 23.35 9.65L24.05 10.35C24.25 10.55 24.25 10.85 24.05 11.05L20 15.1Z" fill="white"/>
<path d="M20 24.85L24.05 28.9C24.25 29.1 24.25 29.4 24.05 29.6L23.35 30.3C23.15 30.5 22.85 30.5 22.65 30.3L20 27.65L17.35 30.3C17.15 30.5 16.85 30.5 16.65 30.3L15.95 29.6C15.75 29.4 15.75 29.1 15.95 28.9L20 24.85Z" fill="white"/>
<path d="M30.55 14.3C30.7 14.55 30.65 14.8499 30.35 14.9999L10.6 26.65C10.35 26.7999 10.05 26.75 9.90002 26.45L9.40002 25.5999C9.25002 25.3499 9.30002 25.0499 9.60002 24.9L29.35 13.1999C29.6 13.0499 29.9 13.0999 30.05 13.3999L30.55 14.3Z" fill="white"/>
<path d="M24.2001 17.4999L25.6001 11.9499C25.6501 11.6499 25.9001 11.4999 26.2001 11.5999L27.1501 11.8499C27.4501 11.8999 27.6001 12.1499 27.5001 12.4499L26.5501 16.0999L30.2001 17.0499C30.5001 17.0999 30.6501 17.3499 30.5501 17.6499L30.3001 18.5999C30.2501 18.8999 30.0001 19.0499 29.7001 18.9499L24.2001 17.4999Z" fill="white"/>
<path d="M15.8 22.45L14.4 28C14.35 28.3 14.1 28.45 13.8 28.35L12.85 28.1C12.55 28.05 12.4 27.8 12.5 27.5L13.45 23.85L9.80004 22.9C9.50004 22.85 9.35004 22.6 9.45004 22.3L9.70004 21.35C9.75004 21.05 10 20.9 10.3 21L15.8 22.45Z" fill="white"/>
<path d="M9.95007 13.45C10.1001 13.2 10.4001 13.1 10.6501 13.25L30.4001 24.95C30.6501 25.1 30.7501 25.4 30.6001 25.65L30.1001 26.5C29.9501 26.75 29.6501 26.85 29.4001 26.7L9.60007 15C9.35007 14.85 9.25007 14.55 9.40007 14.3L9.95007 13.45Z" fill="white"/>
<path d="M15.8 17.5L10.25 18.95C9.94997 19 9.69997 18.9 9.64997 18.6L9.39997 17.65C9.34997 17.35 9.44997 17.1 9.74997 17.05L13.4 16.1L12.45 12.45C12.4 12.15 12.5 11.9 12.8 11.85L13.75 11.6C14.05 11.55 14.3 11.65 14.35 11.95L15.8 17.5Z" fill="white"/>
<path d="M24.15 22.4499L29.7 20.9999C30 20.9499 30.25 21.0499 30.3 21.3499L30.55 22.2999C30.6 22.5999 30.5 22.8499 30.2 22.8999L26.55 23.8499L27.5 27.4999C27.55 27.7999 27.45 28.0499 27.15 28.0999L26.2 28.3499C25.9 28.3999 25.65 28.2999 25.6 27.9999L24.15 22.4499Z" fill="white"/>
</g>
</svg>
