<svg width="48" height="48" viewBox="0 0 48 48" fill="none" xmlns="http://www.w3.org/2000/svg">
<rect width="48" height="48" rx="4" fill="#54698D"/>
<mask id="mask0_1518_27916" style="mask-type:luminance" maskUnits="userSpaceOnUse" x="0" y="0" width="48" height="48">
<rect width="48" height="48" rx="4" fill="white"/>
</mask>
<g mask="url(#mask0_1518_27916)">
<path d="M35.8433 18.1632C37.6 18.1632 41 16.7465 41 12.1565C41 7.56651 37.7133 7.33984 36.6933 7.33984C34.6533 7.33984 32.67 8.81318 30.9133 11.8165C29.1567 14.9332 27.1733 18.3332 27.1733 18.3332H27.1167C26.6633 16.1798 26.3233 14.3665 26.1533 13.5732C25.8133 11.7032 23.6033 7.56651 19.07 7.56651C14.5367 7.56651 10.4 10.1732 10.4 10.1732C9.60667 10.6832 9.09667 11.5332 9.09667 12.4965C9.09667 14.0265 10.3433 15.2732 11.8733 15.2732C12.3267 15.2732 12.7233 15.1598 13.0633 14.9898C13.0633 14.9898 16.52 13.0632 17.2567 14.9898C17.4833 15.5565 17.6533 16.2365 17.88 16.9165C18.7867 19.8632 19.58 23.3765 20.26 26.5498L17.3133 30.8565C17.3133 30.8565 13.97 29.6665 12.2133 29.6665C10.4567 29.6665 7 31.0832 7 35.6732C7 40.2632 10.2867 40.4898 11.3067 40.4898C13.3467 40.4898 15.33 39.0165 17.0867 36.0132C18.8433 32.8965 20.8267 29.4965 20.8267 29.4965C21.3933 32.3298 21.9033 34.5965 22.1867 35.5032C23.32 38.7332 25.9267 40.6598 29.3833 40.6598C29.3833 40.6598 32.9533 40.6598 37.1467 38.2798C38.1667 37.8832 38.9033 36.8632 38.9033 35.7298C38.9033 34.1998 37.6567 32.9532 36.1267 32.9532C35.6733 32.9532 35.2767 33.0665 34.9367 33.2365C34.9367 33.2365 31.9333 34.9365 30.9133 33.5765C30.1767 32.1598 29.5533 30.3465 29.1 28.0798C28.6467 26.0398 28.1367 23.6598 27.6833 21.3365L30.6867 16.9732C30.7433 16.9732 34.0867 18.1632 35.8433 18.1632Z" fill="white"/>
</g>
</svg>
