<svg width="48" height="48" viewBox="0 0 48 48" fill="none" xmlns="http://www.w3.org/2000/svg">
<rect width="48" height="48" rx="4" fill="#30C85A"/>
<mask id="mask0_1518_27924" style="mask-type:luminance" maskUnits="userSpaceOnUse" x="0" y="0" width="48" height="48">
<rect width="48" height="48" rx="4" fill="white"/>
</mask>
<g mask="url(#mask0_1518_27924)">
<path d="M39.718 32.0258L36.2622 29.2389C35.0918 28.2914 33.4196 28.2357 32.1934 29.1275L28.9049 31.5242C28.459 31.8586 27.8458 31.8029 27.4557 31.4127L22.0491 26.5078L17.0885 21.0455C16.6983 20.6553 16.6426 20.0422 16.977 19.5963L19.3737 16.3078C20.2655 15.0816 20.2098 13.4094 19.2622 12.2389L16.4754 8.78321C15.2491 7.22255 12.9081 7.11108 11.5147 8.50452L8.50487 11.5144C7.83601 12.1832 7.50159 13.1308 7.50159 14.0226C7.89175 21.1012 11.1245 27.8455 15.8622 32.5832C20.5999 37.3209 27.2885 40.5537 34.4229 40.9439C35.3704 40.9996 36.2622 40.6094 36.9311 39.9406L39.9409 36.9308C41.4458 35.593 41.2786 33.2521 39.718 32.0258Z" fill="white"/>
</g>
</svg>
