<svg width="48" height="48" viewBox="0 0 48 48" fill="none" xmlns="http://www.w3.org/2000/svg">
<rect width="48" height="48" rx="4" fill="#E46FBE"/>
<mask id="mask0_1518_28432" style="mask-type:luminance" maskUnits="userSpaceOnUse" x="0" y="0" width="48" height="48">
<rect width="48" height="48" rx="4" fill="white"/>
</mask>
<g mask="url(#mask0_1518_28432)">
<path d="M40.8884 11.6263C40.4983 9.56397 38.7704 7.89184 36.6524 7.61315C35.1475 7.3902 33.754 7.89184 32.6944 8.7279C32.36 9.00659 32.4158 9.45249 32.8059 9.67544C35.3704 11.0131 37.5436 12.964 39.2158 15.305C39.4387 15.6394 39.9403 15.6394 40.1633 15.305C40.8884 14.2459 41.1671 12.964 40.8884 11.6263Z" fill="white"/>
<path d="M15.695 9.67538C16.0295 9.50817 16.0852 9.00653 15.8065 8.72784C14.7475 7.83604 13.354 7.39014 11.8491 7.61309C9.7311 7.89178 8.00323 9.56391 7.61306 11.6262C7.39011 12.9639 7.6688 14.2459 8.33765 15.2492C8.5606 15.5836 9.06224 15.5836 9.28519 15.2492C10.9573 12.9639 13.1311 11.0131 15.695 9.67538Z" fill="white"/>
<path fill-rule="evenodd" clip-rule="evenodd" d="M9.22949 25.9508C9.22949 17.6459 15.9738 10.9016 24.2787 10.9016C32.5836 10.9016 39.3279 17.6459 39.3279 25.9508C39.3279 29.2951 38.2131 32.4164 36.3738 34.8688L38.659 37.1541C39.5514 38.0459 39.5514 39.4393 38.659 40.3311C38.2131 40.777 37.6557 41 37.0983 41C36.541 41 35.9836 40.777 35.482 40.3311L33.1967 38.0459C30.7442 39.8852 27.6229 41 24.2787 41C20.9344 41 17.8131 39.8852 15.3049 38.0459L13.0197 40.3311C12.5738 40.777 12.0164 41 11.459 41C10.9016 41 10.3442 40.777 9.89834 40.3311C9.00654 39.4399 9.00654 38.0464 9.89834 37.1541L12.1836 34.8688C10.3442 32.4164 9.22949 29.2951 9.22949 25.9508ZM24.2787 15.3606C18.4262 15.3606 13.6885 20.0983 13.6885 25.9508C13.6885 31.8033 18.4262 36.541 24.2787 36.541C30.1311 36.541 34.8688 31.8033 34.8688 25.9508C34.8688 20.0983 30.1311 15.3606 24.2787 15.3606Z" fill="white"/>
<path d="M25.9507 25.282V20.9345C25.9507 19.9869 25.2261 19.2623 24.2786 19.2623C23.331 19.2623 22.6064 19.9869 22.6064 20.9345V25.9509C22.6064 26.3968 22.7737 26.8427 23.1081 27.1213L27.0097 31.023C27.3442 31.3574 27.7901 31.5246 28.1802 31.5246C28.5704 31.5246 29.0163 31.3574 29.3507 31.023C30.0196 30.3547 30.0196 29.2951 29.3507 28.6826L25.9507 25.282Z" fill="white"/>
</g>
</svg>
