<svg width="48" height="48" viewBox="0 0 48 48" fill="none" xmlns="http://www.w3.org/2000/svg">
<rect width="48" height="48" rx="4" fill="#67A5E7"/>
<mask id="mask0_1518_28474" style="mask-type:luminance" maskUnits="userSpaceOnUse" x="0" y="0" width="48" height="48">
<rect width="48" height="48" rx="4" fill="white"/>
</mask>
<g mask="url(#mask0_1518_28474)">
<path d="M30.2333 16.6333H17.7666C17.1433 16.6333 16.6333 17.1433 16.6333 17.7666V30.2333C16.6333 30.8566 17.1433 31.3666 17.7666 31.3666H30.2333C30.8566 31.3666 31.3666 30.8566 31.3666 30.2333V17.7666C31.3666 17.1433 30.8566 16.6333 30.2333 16.6333Z" fill="white"/>
<path fill-rule="evenodd" clip-rule="evenodd" d="M41 10.0033C41 10.5133 40.66 10.91 40.15 11.08C39.0167 11.4767 38.1667 12.4967 38.1667 13.8C38.1667 15.1033 39.0167 16.18 40.15 16.52C40.66 16.69 41 17.0867 41 17.5967V20.2033C41 20.7133 40.66 21.11 40.15 21.28C39.0167 21.6767 38.1667 22.6967 38.1667 24C38.1667 25.3033 39.0167 26.38 40.15 26.72C40.66 26.8894 41 27.2867 41 27.7967V30.4033C41 30.9133 40.66 31.31 40.15 31.48C39.0167 31.8767 38.1667 32.8967 38.1667 34.2C38.1667 35.5033 39.0167 36.58 40.15 36.92C40.66 37.0894 41 37.4867 41 37.9967V39.8667C41 40.49 40.49 41 39.8667 41H37.9967C37.4867 41 37.09 40.66 36.92 40.15C36.5233 39.0167 35.5033 38.1667 34.2 38.1667C32.8967 38.1667 31.82 39.0167 31.48 40.15C31.3106 40.66 30.9133 41 30.4033 41H27.7967C27.2867 41 26.89 40.66 26.72 40.15C26.3233 39.0167 25.3033 38.1667 24 38.1667C22.6967 38.1667 21.62 39.0167 21.28 40.15C21.11 40.66 20.7133 41 20.2033 41H17.5967C17.0867 41 16.69 40.66 16.52 40.15C16.1233 39.0167 15.0467 38.1667 13.8 38.1667C12.4967 38.1667 11.42 39.0167 11.08 40.15C10.91 40.66 10.5133 41 10.0033 41H8.13333C7.51 41 7 40.49 7 39.8667V37.9967C7 37.4867 7.34 37.09 7.85 36.92C8.98333 36.5233 9.83333 35.5033 9.83333 34.2C9.83333 32.8967 8.98333 31.82 7.85 31.48C7.34 31.3106 7 30.9133 7 30.4033V27.7967C7 27.2867 7.34 26.89 7.85 26.72C8.98333 26.3233 9.83333 25.3033 9.83333 24C9.83333 22.6967 8.98333 21.62 7.85 21.28C7.34 21.11 7 20.7133 7 20.2033V17.5967C7 17.0867 7.34 16.69 7.85 16.52C8.98333 16.1233 9.83333 15.1033 9.83333 13.8C9.83333 12.4967 8.98333 11.42 7.85 11.08C7.34 10.91 7 10.5133 7 10.0033V8.13333C7 7.51 7.51 7 8.13333 7H10.0033C10.5133 7 10.91 7.34 11.08 7.85C11.4767 8.98333 12.5533 9.83333 13.8 9.83333C15.1033 9.83333 16.18 8.98333 16.52 7.85C16.69 7.34 17.0867 7 17.5967 7H20.2033C20.7133 7 21.11 7.34 21.28 7.85C21.6767 8.98333 22.6967 9.83333 24 9.83333C25.3033 9.83333 26.38 8.98333 26.72 7.85C26.8894 7.34 27.2867 7 27.7967 7H30.4033C30.9133 7 31.31 7.34 31.48 7.85C31.8767 8.98333 32.8967 9.83333 34.2 9.83333C35.5033 9.83333 36.58 8.98333 36.92 7.85C37.0894 7.34 37.4867 7 37.9967 7H39.8667C40.49 7 41 7.51 41 8.13333V10.0033ZM31.3667 34.7667C33.2367 34.7667 34.7667 33.2367 34.7667 31.3667V16.6333C34.7667 14.7633 33.2367 13.2333 31.3667 13.2333H16.6333C14.7633 13.2333 13.2333 14.7633 13.2333 16.6333V31.3667C13.2333 33.2367 14.7633 34.7667 16.6333 34.7667H31.3667Z" fill="white"/>
</g>
</svg>
