<svg width="48" height="48" viewBox="0 0 48 48" fill="none" xmlns="http://www.w3.org/2000/svg">
<rect width="48" height="48" rx="4" fill="#F0856E"/>
<mask id="mask0_1518_28580" style="mask-type:luminance" maskUnits="userSpaceOnUse" x="0" y="0" width="48" height="48">
<rect width="48" height="48" rx="4" fill="white"/>
</mask>
<g mask="url(#mask0_1518_28580)">
<path fill-rule="evenodd" clip-rule="evenodd" d="M28.08 17.4835H37.6C39.47 17.4835 41 19.0135 41 20.8835V36.7501C41 38.6201 39.47 40.1501 37.6 40.1501H10.4C8.53 40.1501 7 38.6201 7 36.7501V20.8835C7 19.0135 8.53 17.4835 10.4 17.4835H17.71C17.9933 16.8035 18.39 16.2368 18.9 15.7268L15.33 11.1368C14.7633 10.4001 14.8767 9.32348 15.6133 8.75681C16.35 8.19015 17.4267 8.30348 17.9933 9.04015L21.96 14.1401C22.0952 14.1401 22.2304 14.1272 22.3718 14.1137C22.5267 14.099 22.6889 14.0835 22.8667 14.0835C23.0367 14.0835 23.1925 14.0976 23.3483 14.1118C23.5042 14.126 23.66 14.1401 23.83 14.1401L27.7967 9.04015C28.3633 8.30348 29.4394 8.19015 30.1767 8.75681C30.9133 9.32348 31.0267 10.4001 30.46 11.1368L26.8894 15.7268C27.4 16.2368 27.7967 16.8035 28.08 17.4835ZM31.9333 36.7501C32.5567 36.7501 33.0667 36.2401 33.0667 35.6168V22.0168C33.0667 21.3935 32.5567 20.8835 31.9333 20.8835H11.5333C10.91 20.8835 10.4 21.3935 10.4 22.0168V35.6168C10.4 36.2401 10.91 36.7501 11.5333 36.7501H31.9333ZM37.0333 29.9501C36.07 29.9501 35.3333 29.2135 35.3333 28.2501C35.3333 27.2868 36.07 26.5501 37.0333 26.5501C37.9967 26.5501 38.7333 27.2868 38.7333 28.2501C38.7333 29.2135 37.9967 29.9501 37.0333 29.9501ZM35.3333 22.5835C35.3333 23.5468 36.07 24.2835 37.0333 24.2835C37.9967 24.2835 38.7333 23.5468 38.7333 22.5835C38.7333 21.6201 37.9967 20.8835 37.0333 20.8835C36.07 20.8835 35.3333 21.6201 35.3333 22.5835Z" fill="white"/>
</g>
</svg>
