<svg width="48" height="48" viewBox="0 0 48 48" fill="none" xmlns="http://www.w3.org/2000/svg">
<rect width="48" height="48" rx="4" fill="#D58A6A"/>
<mask id="mask0_1518_28450" style="mask-type:luminance" maskUnits="userSpaceOnUse" x="0" y="0" width="48" height="48">
<rect width="48" height="48" rx="4" fill="white"/>
</mask>
<g mask="url(#mask0_1518_28450)">
<path d="M19.6129 12.758H28.3871C28.9903 12.758 29.4839 12.1548 29.3742 11.5516C28.8258 9.08385 26.6323 7.27417 24 7.27417C21.3678 7.27417 19.1742 9.13869 18.6258 11.5516C18.5161 12.1548 19.0097 12.758 19.6129 12.758Z" fill="white"/>
<path d="M38.8065 27.0161C39.7387 27.0161 40.5065 26.2484 40.4516 25.2613C40.3968 24.3838 39.6291 23.7258 38.6968 23.7258H33.871V20.9838C37.0516 19.7225 39.3 16.3225 39.3549 12.2645C39.3549 11.4419 38.8065 10.729 37.9839 10.5645C36.942 10.4 36.0646 11.1677 36.0646 12.2096C36.0646 14.5677 34.9678 16.5967 33.3775 17.5838C32.7742 16.6516 31.7323 16.0484 30.5807 16.0484H17.4194C16.2678 16.0484 15.2258 16.6516 14.6226 17.5838C13.0323 16.5967 11.9355 14.6225 11.9355 12.3193C11.9355 11.4419 11.2775 10.6193 10.4 10.5645C9.41294 10.5096 8.6452 11.2774 8.6452 12.2096C8.6452 16.2677 10.9484 19.7225 14.1291 20.9838V23.7258H9.30326C8.42584 23.7258 7.60326 24.3838 7.54842 25.2613C7.49358 26.1935 8.26132 27.0161 9.19358 27.0161H14.1291V29.758C10.9484 31.0193 8.70003 34.4193 8.6452 38.4774C8.6452 39.3 9.19358 40.0129 10.0162 40.1774C11.0581 40.3419 11.9355 39.5742 11.9355 38.5322C11.9355 36.229 12.9775 34.2 14.5678 33.2129C15.5 36.2844 17.9129 38.6967 20.9291 39.6838C21.642 39.9032 22.3549 39.3548 22.3549 38.6425V25.4812C22.3549 24.6032 23.0129 23.7812 23.8904 23.7263C24.8226 23.6715 25.6452 24.4392 25.6452 25.3715V38.6425C25.6452 39.4096 26.3581 39.9037 27.071 39.6838C30.0871 38.6967 32.5 36.2844 33.4328 33.2129C34.9683 34.2 36.0103 36.1742 36.0651 38.4226C36.0651 39.3005 36.7232 40.1231 37.6006 40.1774C38.5877 40.2322 39.3554 39.4645 39.3554 38.5322C39.3554 34.4742 37.0522 31.0193 33.8715 29.758V27.0161H38.8065Z" fill="white"/>
</g>
</svg>
