<svg width="48" height="48" viewBox="0 0 48 48" fill="none" xmlns="http://www.w3.org/2000/svg">
<rect width="48" height="48" rx="4" fill="#659AD5"/>
<mask id="mask0_1518_28542" style="mask-type:luminance" maskUnits="userSpaceOnUse" x="0" y="0" width="48" height="48">
<rect width="48" height="48" rx="4" fill="white"/>
</mask>
<g mask="url(#mask0_1518_28542)">
<path fill-rule="evenodd" clip-rule="evenodd" d="M7 35.2422C7 32.226 9.46774 29.7583 12.4839 29.7583C15.5 29.7583 17.9677 32.226 17.9677 35.2422C17.9677 38.2583 15.5 40.726 12.4839 40.726C9.46774 40.726 7 38.2583 7 35.2422ZM10.2903 35.2422C10.2903 36.4486 11.2774 37.4357 12.4839 37.4357C13.6903 37.4357 14.6774 36.4486 14.6774 35.2422C14.6774 34.0357 13.6903 33.0486 12.4839 33.0486C11.2774 33.0486 10.2903 34.0357 10.2903 35.2422Z" fill="white"/>
<path fill-rule="evenodd" clip-rule="evenodd" d="M30.0322 35.2422C30.0322 32.226 32.5 29.7583 35.5161 29.7583C38.5322 29.7583 41 32.226 41 35.2422C41 38.2583 38.5322 40.726 35.5161 40.726C32.5 40.726 30.0322 38.2583 30.0322 35.2422ZM33.3225 35.2422C33.3225 36.4486 34.3096 37.4357 35.5161 37.4357C36.7225 37.4357 37.7096 36.4486 37.7096 35.2422C37.7096 34.0357 36.7225 33.0486 35.5161 33.0486C34.3096 33.0486 33.3225 34.0357 33.3225 35.2422Z" fill="white"/>
<path d="M35.1871 26.4678C36.393 26.413 37.5452 26.6323 38.6419 27.0162C39.1903 27.2356 39.7935 26.9614 40.0677 26.4678C42.8651 21.1485 38.3677 18.6807 35.5161 17.2549C34.7484 16.9259 33.871 17.4194 33.871 18.242V21.4227C33.871 22.0807 33.4323 22.7388 32.7742 22.6291C28.7161 21.971 25.0968 17.6936 20.7097 17.6936C16.3226 17.6936 15.7742 22.0807 15.7742 22.0807C12.7032 22.0807 9.6871 21.8614 8.31613 21.5323C7.65806 21.3678 7 21.9162 7 22.6291C7 22.6291 7 26.4678 12.4839 26.4678C16.9806 26.4678 20.7097 29.7581 21.2032 34.2549C21.3129 35.4614 21.2032 36.6673 20.8742 37.7098C20.7645 38.0936 21.0387 38.4775 21.4774 38.4775H26.5226C26.9618 38.4775 27.236 38.0936 27.1264 37.7098C26.7968 36.6678 26.6876 35.571 26.7968 34.4194C27.1806 30.142 30.8 26.6323 35.1871 26.4678Z" fill="white"/>
<path d="M21.4226 14.1292C21.4775 14.5679 21.8065 14.9518 22.1904 15.0614L28.0033 17.0356C28.5516 17.2002 29.1 16.9808 29.3742 16.4873L29.8678 15.555C30.0866 15.1711 29.8124 14.7324 29.4291 14.6776C27.7285 14.5131 24.164 13.855 25.2065 11.9356C26.1387 10.2905 28.0581 10.7292 29.3194 11.2776C29.8124 11.4969 30.3065 10.9485 30.0866 10.455C29.264 8.70015 27.3446 7.60338 25.3162 7.82273C22.7387 8.09693 20.9291 10.6195 21.2581 13.1969L21.4226 14.1292Z" fill="white"/>
</g>
</svg>
