<svg width="48" height="48" viewBox="0 0 48 48" fill="none" xmlns="http://www.w3.org/2000/svg">
<rect width="48" height="48" rx="4" fill="#E769B4"/>
<mask id="mask0_1518_28522" style="mask-type:luminance" maskUnits="userSpaceOnUse" x="0" y="0" width="48" height="48">
<rect width="48" height="48" rx="4" fill="white"/>
</mask>
<g mask="url(#mask0_1518_28522)">
<path fill-rule="evenodd" clip-rule="evenodd" d="M16.4197 25.1148L22.8295 31.4132C24.1672 32.7509 24.1672 34.8689 22.8852 36.1509L18.8721 40.1088C18.4262 40.5547 17.7016 40.5547 17.2557 40.1088L16.0295 38.9377L15.6393 38.5476L9.17377 32.1935L8.39344 31.4132L7.61311 30.6334C7.16721 30.2432 7.16721 29.5186 7.61311 29.0722L11.6262 25.1148C12.9639 23.8328 15.082 23.8328 16.4197 25.1148ZM13.2426 28.2924L12.4066 29.0722C11.9607 29.4623 11.9607 30.1869 12.4066 30.6334L17.2557 35.3711C17.7016 35.817 18.3705 35.817 18.8164 35.3711L19.6525 34.5908C20.0984 34.2006 20.0984 33.476 19.6525 33.0301L14.8033 28.2924C14.3574 27.8465 13.6885 27.8465 13.2426 28.2924Z" fill="white"/>
<path d="M19.3737 23.2755L24.5573 28.3477C24.6688 28.4591 24.7803 28.5149 24.9475 28.5149L27.3442 28.4591C27.6229 28.4591 27.8459 28.2362 27.8459 27.9575L27.9016 25.8952C27.9016 25.6165 28.1245 25.3936 28.4032 25.3936L30.5213 25.3378C30.8 25.3378 31.0223 25.1149 31.0223 24.8362L31.0786 22.7739C31.0786 22.4952 31.301 22.2723 31.5797 22.2723L33.6983 22.2165C33.977 22.2165 34.1994 21.9936 34.1994 21.7149L34.2557 19.6526C34.2557 19.3739 34.4781 19.1509 34.7568 19.1509L36.8748 19.0952C37.1535 19.0952 37.3764 18.8723 37.3764 18.5936L37.4322 16.4755C37.4322 16.1968 37.6551 16.0296 37.8786 15.9739L40.1639 15.6395C40.5541 15.5837 40.777 15.1378 40.5541 14.8034L35.6491 7.5575C35.259 7.00012 34.4781 6.94438 33.977 7.39029L19.318 21.8821C18.9836 22.2165 18.9836 22.8854 19.3737 23.2755Z" fill="white"/>
</g>
</svg>
