<svg width="48" height="48" viewBox="0 0 48 48" fill="none" xmlns="http://www.w3.org/2000/svg">
<rect width="48" height="48" rx="4" fill="#F57376"/>
<mask id="mask0_1518_28504" style="mask-type:luminance" maskUnits="userSpaceOnUse" x="0" y="0" width="48" height="48">
<rect width="48" height="48" rx="4" fill="white"/>
</mask>
<g mask="url(#mask0_1518_28504)">
<path d="M36.8197 7H34.5901C33.977 7 33.4754 7.50164 33.4754 8.11475V10.3443C33.4754 10.9574 32.9737 11.459 32.3606 11.459H31.2459C30.6328 11.459 30.1311 10.9574 30.1311 10.3443V8.11475C30.1311 7.50164 29.6852 7 29.0164 7H26.7869C26.1737 7 25.6721 7.50164 25.6721 8.11475V10.3443C25.6721 10.9574 25.1705 11.459 24.5574 11.459H23.4426C22.8295 11.459 22.3278 10.9574 22.3278 10.3443V8.11475C22.3278 7.50164 21.8262 7 21.2131 7H18.9836C18.3705 7 17.8688 7.50164 17.8688 8.11475V10.3443C17.8688 10.9574 17.3672 11.459 16.7541 11.459H15.6393C15.0262 11.459 14.5246 10.9574 14.5246 10.3443V8.11475C14.5246 7.50164 14.0229 7 13.4098 7H11.1803C10.5672 7 10.0656 7.50164 10.0656 8.11475V13.6885C10.0656 15.5279 11.5705 17.0328 13.4098 17.0328H34.5901C36.4295 17.0328 37.9344 15.5279 37.9344 13.6885V8.11475C37.9344 7.50164 37.4328 7 36.8197 7Z" fill="white"/>
<path d="M34.3114 21.3245C34.2557 20.7671 33.7541 20.377 33.1967 20.377H24H14.8032C14.2459 20.377 13.7442 20.7671 13.6885 21.3245L11.1803 39.1606C11.0688 39.8294 11.6262 40.4425 12.295 40.4425H19.4852C20.0983 40.4425 20.6557 39.9409 20.6557 39.3278V33.9212C20.6557 32.0819 22.0491 30.4655 23.8885 30.4655C25.7836 30.4097 27.3442 31.9152 27.3442 33.8097V39.3835C27.3442 39.9972 27.9016 40.4983 28.5147 40.4983H35.7049C36.3737 40.4983 36.9311 39.8851 36.8196 39.2163L34.3114 21.3245Z" fill="white"/>
</g>
</svg>
