<svg width="48" height="48" viewBox="0 0 48 48" fill="none" xmlns="http://www.w3.org/2000/svg">
<rect width="48" height="48" rx="4" fill="#996FE6"/>
<mask id="mask0_1518_28558" style="mask-type:luminance" maskUnits="userSpaceOnUse" x="0" y="0" width="48" height="48">
<rect width="48" height="48" rx="4" fill="white"/>
</mask>
<g mask="url(#mask0_1518_28558)">
<path d="M39.9233 35.333H8.07667C7.51 35.333 7 35.7863 7 36.353V36.4097C7 38.9597 10.1733 40.9997 12.6667 40.9997H35.3333C37.8267 40.9997 41 38.9597 41 36.4097V36.353C41 35.7863 40.49 35.333 39.9233 35.333Z" fill="white"/>
<path d="M8.69999 31.933H18.9C19.5233 31.933 20.0333 31.3096 20.0333 30.6863V11.193C20.0333 10.9096 19.6367 10.7963 19.5233 11.0796L8.18999 31.0263C8.01999 31.423 8.24665 31.933 8.69999 31.933Z" fill="white"/>
<path d="M24.5667 31.9331H38.7333C39.4134 31.9331 39.9233 31.3098 39.8667 30.6298C39.3567 26.5498 38.6767 13.8564 24.2267 7.05644C23.8867 6.88644 23.4333 7.11311 23.4333 7.56644V30.6864C23.4333 31.3098 23.9433 31.9331 24.5667 31.9331Z" fill="white"/>
</g>
</svg>
