<svg width="48" height="48" viewBox="0 0 48 48" fill="none" xmlns="http://www.w3.org/2000/svg">
<rect width="48" height="48" rx="4" fill="#E15D76"/>
<mask id="mask0_1518_28582" style="mask-type:luminance" maskUnits="userSpaceOnUse" x="0" y="0" width="48" height="48">
<rect width="48" height="48" rx="4" fill="white"/>
</mask>
<g mask="url(#mask0_1518_28582)">
<path d="M30.7433 34.7671H17.2567C16.86 34.7671 16.6333 35.1071 16.69 35.5038C17.2567 37.6571 20.3167 39.3004 23.9433 39.3004C27.6267 39.3004 30.6867 37.6571 31.1967 35.5038C31.3667 35.1071 31.0833 34.7671 30.7433 34.7671Z" fill="white"/>
<path fill-rule="evenodd" clip-rule="evenodd" d="M10.4 8.7002H37.6C39.47 8.7002 41 10.2302 41 12.1002V27.9669C41 29.8369 39.47 31.3669 37.6 31.3669H10.4C8.53 31.3669 7 29.8369 7 27.9669V12.1002C7 10.2302 8.53 8.7002 10.4 8.7002ZM36.4667 27.9669C37.09 27.9669 37.6 27.4569 37.6 26.8335V13.2335C37.6 12.6102 37.09 12.1002 36.4667 12.1002H11.5333C10.91 12.1002 10.4 12.6102 10.4 13.2335V26.8335C10.4 27.4569 10.91 27.9669 11.5333 27.9669H36.4667Z" fill="white"/>
</g>
</svg>
