<svg width="48" height="48" viewBox="0 0 48 48" fill="none" xmlns="http://www.w3.org/2000/svg">
<rect width="48" height="48" rx="4" fill="#8BCF6A"/>
<mask id="mask0_1518_28572" style="mask-type:luminance" maskUnits="userSpaceOnUse" x="0" y="0" width="48" height="48">
<rect width="48" height="48" rx="4" fill="white"/>
</mask>
<g mask="url(#mask0_1518_28572)">
<path fill-rule="evenodd" clip-rule="evenodd" d="M25.7 10.4V12.78C32.7267 13.63 38.1667 19.58 38.1667 26.8333C38.1667 34.6533 31.82 41 24 41C16.18 41 9.83337 34.6533 9.83337 26.8333C9.83337 19.58 15.2734 13.63 22.3 12.78V10.4H21.7334C20.77 10.4 20.0334 9.60667 20.0334 8.7C20.0334 7.73667 20.8267 7 21.7334 7H26.2667C27.23 7 27.9667 7.79333 27.9667 8.7C27.9667 9.66333 27.1734 10.4 26.2667 10.4H25.7ZM13.2334 26.8333C13.2334 32.7833 18.05 37.6 24 37.6C29.95 37.6 34.7667 32.7833 34.7667 26.8333C34.7667 20.8833 29.95 16.0667 24 16.0667C18.05 16.0667 13.2334 20.8833 13.2334 26.8333Z" fill="white"/>
<path d="M27.7401 21.0534L25.1334 23.6601C24.7934 23.5468 24.3968 23.4334 24.0001 23.4334C22.1301 23.4334 20.6001 24.9634 20.6001 26.8334C20.6001 28.7034 22.1301 30.2334 24.0001 30.2334C25.8701 30.2334 27.4001 28.7034 27.4001 26.8334C27.4001 26.4368 27.3434 26.0401 27.1734 25.7001L29.7807 23.0934C30.3473 22.5268 30.3473 21.6201 29.7807 21.0534C29.2134 20.4301 28.3068 20.4301 27.7401 21.0534Z" fill="white"/>
</g>
</svg>
