<svg width="48" height="48" viewBox="0 0 48 48" fill="none" xmlns="http://www.w3.org/2000/svg">
<rect width="48" height="48" rx="4" fill="#E9637E"/>
<mask id="mask0_1518_28452" style="mask-type:luminance" maskUnits="userSpaceOnUse" x="0" y="0" width="48" height="48">
<rect width="48" height="48" rx="4" fill="white"/>
</mask>
<g mask="url(#mask0_1518_28452)">
<path d="M34.7667 18.3334C33.8033 18.3334 33.0667 19.07 33.0667 20.0334V22.8667C33.0667 27.8534 28.9867 31.9334 24 31.9334C19.0133 31.9334 14.9333 27.8534 14.9333 22.8667V20.0334C14.9333 19.07 14.1967 18.3334 13.2333 18.3334C12.27 18.3334 11.5333 19.07 11.5333 20.0334V22.8667C11.5333 29.1567 16.2367 34.37 22.3 35.22V37.6H19.4667C18.5033 37.6 17.7667 38.3367 17.7667 39.3C17.7667 40.2634 18.5033 41 19.4667 41H28.5333C29.4967 41 30.2333 40.2634 30.2333 39.3C30.2333 38.3367 29.4967 37.6 28.5333 37.6H25.7V35.22C31.7633 34.37 36.4667 29.1567 36.4667 22.8667V20.0334C36.4667 19.07 35.73 18.3334 34.7667 18.3334Z" fill="white"/>
<path d="M24 28.5333C27.1167 28.5333 29.6667 25.9833 29.6667 22.8667V12.61C29.6667 9.49333 27.1734 7 24.0567 7H23.9434C20.8267 7 18.3334 9.49333 18.3334 12.61V22.8667C18.3334 25.9833 20.8834 28.5333 24 28.5333Z" fill="white"/>
</g>
</svg>
