<svg width="48" height="48" viewBox="0 0 48 48" fill="none" xmlns="http://www.w3.org/2000/svg">
<rect width="48" height="48" rx="4" fill="#3E99BE"/>
<mask id="mask0_1518_28560" style="mask-type:luminance" maskUnits="userSpaceOnUse" x="0" y="0" width="48" height="48">
<rect width="48" height="48" rx="4" fill="white"/>
</mask>
<g mask="url(#mask0_1518_28560)">
<path d="M28.4033 20.0424C28.1804 19.7637 27.7345 19.8194 27.5673 20.1539C26.8984 21.1014 26.2296 22.5506 26.2296 24.2785V30.4096C26.2296 31.3014 25.505 32.0817 24.5574 32.0817C23.6656 32.0817 22.8853 31.3571 22.8853 30.4096V28.7375V28.6817C22.8853 28.7375 22.8853 14.3571 22.8853 11.3467C22.8853 7.05494 19.1509 6.38609 16.4197 7.44511C15.6951 7.66862 15.0263 8.11452 14.5247 8.6719C14.1902 9.06206 13.8001 9.39649 13.2984 9.5637C12.2951 9.89812 10.5673 8.95058 9.67547 8.39321C9.17383 8.11452 8.50498 8.22599 8.17055 8.6719L7.5017 9.61944C7.11154 10.1211 7.27875 10.9014 7.78039 11.2358C8.83941 11.9047 10.5115 12.9637 11.7935 13.1866C13.7443 13.5211 15.5279 12.908 16.9771 11.5703C17.0328 11.5145 16.9214 11.626 16.9214 11.626C17.3115 11.2916 17.9804 10.7342 18.4263 11.3473C19.541 13.0194 15.082 20.3211 15.082 30.967V31.8588C15.082 36.3735 19.6525 40.2752 24.1673 40.4981C28.9607 40.7211 32.9181 36.8752 32.9181 32.1375C32.9181 29.7407 33.8099 28.1801 34.7017 27.2326C34.9241 27.0102 34.9241 26.6752 34.7017 26.4528L28.4033 20.0424Z" fill="white"/>
<path d="M39.0493 25.3932C38.6034 25.3932 38.2132 25.2259 37.8788 24.8915L28.9607 15.9735C28.2919 15.3046 28.2919 14.2456 28.9607 13.6325C29.629 12.9636 30.6886 12.9636 31.3012 13.6325L40.2192 22.5505C40.8881 23.2194 40.8881 24.2784 40.2192 24.8915C39.8853 25.2259 39.4952 25.3932 39.0493 25.3932Z" fill="white"/>
</g>
</svg>
