<svg width="48" height="48" viewBox="0 0 48 48" fill="none" xmlns="http://www.w3.org/2000/svg">
<rect width="48" height="48" rx="4" fill="#F87D76"/>
<mask id="mask0_1518_28516" style="mask-type:luminance" maskUnits="userSpaceOnUse" x="0" y="0" width="48" height="48">
<rect width="48" height="48" rx="4" fill="white"/>
</mask>
<g mask="url(#mask0_1518_28516)">
<path fill-rule="evenodd" clip-rule="evenodd" d="M25.5607 24.2788L26.2295 25.4493C26.5639 26.0066 26.3967 26.787 25.8951 27.2329L24.2787 28.5706C24.3902 29.0717 24.4459 29.5738 24.4459 30.0755C24.4459 30.5214 24.3902 31.023 24.2787 31.5247L25.8945 32.8624C26.4519 33.3083 26.5634 34.088 26.229 34.7017L25.5601 35.8165C25.2814 36.2066 24.8355 36.4853 24.3339 36.4853C24.1672 36.4853 24 36.4296 23.8328 36.3738L21.9934 35.6493C21.2131 36.3176 20.3213 36.8749 19.318 37.2099L18.9836 39.2722C18.8721 39.9411 18.259 40.4427 17.5902 40.4427H16.1967C15.5279 40.4427 14.9148 39.9411 14.8033 39.2728L14.4689 37.2105C13.5213 36.9318 12.6852 36.4296 11.9049 35.7607L9.9541 36.4859L9.94912 36.4875C9.78357 36.5422 9.61801 36.5968 9.45246 36.5968C8.95082 36.5968 8.50492 36.3181 8.22623 35.8722L7.55738 34.7017C7.22295 34.1443 7.33443 33.364 7.8918 32.9181L9.5082 31.5804C9.39672 31.0793 9.34098 30.5219 9.34098 30.076C9.34098 29.6296 9.39672 29.1279 9.5082 28.6263L7.8918 27.2886C7.33443 26.8421 7.22295 26.1181 7.55738 25.505L8.22623 24.3345C8.44918 23.8886 8.95082 23.6099 9.45246 23.6099C9.61967 23.6099 9.78689 23.6657 9.9541 23.7214L11.9049 24.446C12.6852 23.7771 13.5213 23.2755 14.4689 22.9411L14.8033 20.9902C14.9148 20.2657 15.5279 19.8755 16.1967 19.8755H17.5902C18.259 19.8755 18.8721 20.2657 18.9836 20.9345L19.3186 22.9411C20.2661 23.2755 21.1022 23.7214 21.8825 24.3902L23.8333 23.6657C24 23.6099 24.1672 23.5542 24.3344 23.5542C24.8361 23.5542 25.282 23.8329 25.5607 24.2788ZM13.0754 30.1312C13.0754 32.2493 14.8033 33.9214 16.8656 33.9214C18.9279 33.9214 20.6557 32.2493 20.6557 30.1312C20.6557 28.0132 18.9279 26.3411 16.8656 26.3411C14.7475 26.3411 13.0754 28.0132 13.0754 30.1312Z" fill="white"/>
<path fill-rule="evenodd" clip-rule="evenodd" d="M38.9934 16.5312L40.2754 17.5903C40.7213 17.9804 40.8327 18.5935 40.5535 18.8165L39.9961 19.7083C39.7726 20.0427 39.3824 20.2657 38.9928 20.2657C38.8814 20.2657 38.7141 20.2657 38.6027 20.2099L37.0978 19.5968C36.4852 20.1542 35.7043 20.6001 34.924 20.8788L34.6453 22.5509C34.5896 23.1083 34.0879 23.4985 33.5305 23.4985H32.4158C31.8584 23.4985 31.4125 23.1083 31.301 22.5509L31.0223 20.9345C30.2978 20.7116 29.5737 20.3214 28.9606 19.764L27.3442 20.3771C27.2327 20.4329 27.0655 20.4329 26.954 20.4329C26.5639 20.4329 26.1737 20.2099 25.9508 19.8755L25.3934 18.928C25.1147 18.4263 25.2262 17.8132 25.6721 17.4788L26.954 16.4198C26.8989 16.0853 26.8426 15.6394 26.8426 15.2493C26.8426 14.8591 26.8983 14.4689 26.954 14.0788L25.6721 13.0198C25.2262 12.6853 25.1147 12.0722 25.3934 11.5706L25.9508 10.623C26.1743 10.2886 26.5639 10.0657 26.954 10.0657C27.0655 10.0657 27.2327 10.0657 27.3442 10.1214L28.9606 10.846C29.5737 10.2886 30.2426 9.89846 31.0229 9.61977L31.3016 8.00338C31.3579 7.446 31.859 7.11157 32.4163 7.11157H33.5311C34.0885 7.11157 34.5349 7.446 34.6459 8.00338L34.9245 9.67551C35.6497 9.89846 36.3737 10.2886 36.9868 10.846L38.6032 10.2329C38.659 10.2329 38.7286 10.2189 38.7983 10.205C38.868 10.1911 38.9377 10.1771 38.9934 10.1771C39.383 10.1771 39.7737 10.4001 39.9967 10.7345L40.554 11.6821C40.8327 12.1837 40.7213 12.7968 40.2754 13.1312L38.9934 14.1903C39.0491 14.5247 39.1049 14.9706 39.1049 15.3608C39.1049 15.7509 39.0491 16.1411 38.9934 16.5312L38.9934 16.5312ZM29.9081 15.4165C29.9081 17.0886 31.3016 18.4821 32.9737 18.4821C34.7016 18.4821 36.0393 17.0886 36.0393 15.4165C36.0393 13.7444 34.6459 12.3509 32.9737 12.3509C31.3016 12.3509 29.9081 13.7444 29.9081 15.4165Z" fill="white"/>
</g>
</svg>
