<svg width="48" height="48" viewBox="0 0 48 48" fill="none" xmlns="http://www.w3.org/2000/svg">
<rect width="48" height="48" rx="4" fill="#8B85F9"/>
<mask id="mask0_1518_28426" style="mask-type:luminance" maskUnits="userSpaceOnUse" x="0" y="0" width="48" height="48">
<rect width="48" height="48" rx="4" fill="white"/>
</mask>
<g mask="url(#mask0_1518_28426)">
<path d="M39.718 32.0262L36.2622 29.2393C35.0918 28.2918 33.4196 28.2355 32.1934 29.1278L28.9049 31.5246C28.459 31.859 27.8464 31.8032 27.4557 31.4131L22.0491 26.5082L17.0885 21.0459C16.6983 20.6557 16.6426 20.0426 16.977 19.5967L19.3737 16.3082C20.2655 15.0819 20.2098 13.4098 19.2622 12.2393L16.4754 8.78358C15.2491 7.22292 12.9081 7.11145 11.5147 8.50489L8.50487 11.5147C7.83601 12.1836 7.50159 13.1311 7.50159 14.0229C7.89175 21.1016 11.1245 27.8459 15.8622 32.5836C20.5999 37.3213 27.2885 40.5541 34.4229 40.9442C35.3704 41 36.2622 40.6092 36.9311 39.9404L39.9409 36.9311C41.4458 35.5934 41.2786 33.2524 39.718 32.0262Z" fill="white"/>
</g>
</svg>
