<svg width="48" height="48" viewBox="0 0 48 48" fill="none" xmlns="http://www.w3.org/2000/svg">
<rect width="48" height="48" rx="4" fill="#F36E83"/>
<mask id="mask0_1518_28488" style="mask-type:luminance" maskUnits="userSpaceOnUse" x="0" y="0" width="48" height="48">
<rect width="48" height="48" rx="4" fill="white"/>
</mask>
<g mask="url(#mask0_1518_28488)">
<path d="M37.9966 27.9668H37.6566C36.3533 27.9668 35.3333 26.9468 35.3333 25.6434V18.1634C35.3333 11.5901 29.44 6.32008 22.6966 7.11342C16.9166 7.73675 12.6666 12.7801 12.6666 18.6168V25.3601C12.6666 26.7768 11.4766 27.9668 10.06 27.9668H10.0033C8.9833 27.9668 8.1333 28.8167 8.1333 29.8368V31.1968C8.1333 32.2168 8.9833 33.0667 10.0033 33.0667H37.9966C39.0166 33.0667 39.8666 32.2168 39.8666 31.1968V29.8368C39.8666 28.8167 39.0166 27.9668 37.9966 27.9668Z" fill="white"/>
<path d="M27.74 36.4668H20.26C19.8067 36.4668 19.41 36.8068 19.5233 37.2601C19.92 39.4135 21.79 41.0001 24.0567 41.0001C26.3233 41.0001 28.1367 39.4701 28.59 37.2601C28.59 36.8068 28.25 36.4668 27.74 36.4668Z" fill="white"/>
</g>
</svg>
