<svg width="48" height="48" viewBox="0 0 48 48" fill="none" xmlns="http://www.w3.org/2000/svg">
<rect width="48" height="48" rx="4" fill="#4FBE75"/>
<mask id="mask0_1518_28460" style="mask-type:luminance" maskUnits="userSpaceOnUse" x="0" y="0" width="48" height="48">
<rect width="48" height="48" rx="4" fill="white"/>
</mask>
<g mask="url(#mask0_1518_28460)">
<path d="M31.7067 11.8732C31.5939 11.4198 31.0833 11.1365 30.6306 11.2498L7.79389 18.6165C7.22722 18.7865 6.94389 19.4098 7.05722 19.9765L7.96389 23.4898C8.13389 24.0565 8.70055 24.4532 9.26722 24.3398L15.0467 23.5465C15.2167 24.1698 15.5 24.7932 15.8967 25.3032L10.9667 38.6765C10.6267 39.5832 11.08 40.5465 11.9867 40.8859C12.1567 40.9432 12.3833 40.9993 12.5533 40.9993C13.2333 40.9993 13.9133 40.5459 14.14 39.8659L18.7867 27.1726C19.1833 27.2859 19.5233 27.2859 19.92 27.2859C20.3167 27.2859 20.7133 27.2293 21.0533 27.1726L25.7567 39.8665C25.9833 40.5465 26.6639 40.9998 27.3439 40.9998C27.5139 40.9998 27.74 40.9432 27.9106 40.8865C28.8172 40.5465 29.27 39.5832 28.9306 38.6771L24 25.2465C24.6233 24.3965 25.02 23.3198 25.02 22.1865V22.1298L33.0106 20.9965C33.52 20.9398 33.8606 20.4298 33.69 19.9198L31.7067 11.8732Z" fill="white"/>
<path d="M40.9433 19.8632L37.8266 8.30324C37.6 7.39657 36.6361 6.82991 35.73 7.05657C34.8227 7.28324 34.2561 8.24657 34.4833 9.15324L37.6 20.7132C37.8266 21.6199 38.79 22.1866 39.6966 21.9599C40.6033 21.7332 41.17 20.7699 40.9433 19.8632Z" fill="white"/>
</g>
</svg>
