<svg width="48" height="48" viewBox="0 0 48 48" fill="none" xmlns="http://www.w3.org/2000/svg">
<rect width="48" height="48" rx="4" fill="#E260AB"/>
<mask id="mask0_1518_28554" style="mask-type:luminance" maskUnits="userSpaceOnUse" x="0" y="0" width="48" height="48">
<rect width="48" height="48" rx="4" fill="white"/>
</mask>
<g mask="url(#mask0_1518_28554)">
<path d="M17.2 12.6667H19.4666C19.8066 12.6667 20.0333 12.44 20.0333 12.1V10.4H27.9666V12.1C27.9666 12.44 28.1933 12.6667 28.5333 12.6667H30.8C31.14 12.6667 31.3666 12.44 31.3666 12.1V10.4C31.3666 8.53 29.8366 7 27.9666 7H20.0333C18.1633 7 16.6333 8.53 16.6333 10.4V12.1C16.6333 12.44 16.86 12.6667 17.2 12.6667Z" fill="white"/>
<path fill-rule="evenodd" clip-rule="evenodd" d="M10.4 16.0669H37.6C39.47 16.0669 41 17.5969 41 19.4669V37.6002C41 39.4702 39.47 41.0002 37.6 41.0002H10.4C8.53 41.0002 7 39.4702 7 37.6002V19.4669C7 17.5969 8.53 16.0669 10.4 16.0669ZM16.0667 28.5336C16.0667 32.8969 19.6367 36.4669 24 36.4669C28.3633 36.4669 31.9333 32.8969 31.9333 28.5336C31.9333 24.1702 28.3633 20.6002 24 20.6002C19.6367 20.6002 16.0667 24.1702 16.0667 28.5336Z" fill="white"/>
<path d="M27.4 26.8333H25.7V25.1333C25.7 24.51 25.19 24 24.5667 24H23.4333C22.81 24 22.3 24.51 22.3 25.1333V26.8333H20.6C19.9767 26.8333 19.4667 27.3433 19.4667 27.9667V29.1C19.4667 29.7233 19.9767 30.2333 20.6 30.2333H22.3V31.9333C22.3 32.5567 22.81 33.0667 23.4333 33.0667H24.5667C25.19 33.0667 25.7 32.5567 25.7 31.9333V30.2333H27.4C28.0233 30.2333 28.5333 29.7233 28.5333 29.1V27.9667C28.5333 27.3433 28.0233 26.8333 27.4 26.8333Z" fill="white"/>
</g>
</svg>
