<svg width="48" height="48" viewBox="0 0 48 48" fill="none" xmlns="http://www.w3.org/2000/svg">
<rect width="48" height="48" rx="4" fill="#8C89F2"/>
<mask id="mask0_1518_28456" style="mask-type:luminance" maskUnits="userSpaceOnUse" x="0" y="0" width="48" height="48">
<rect width="48" height="48" rx="4" fill="white"/>
</mask>
<g mask="url(#mask0_1518_28456)">
<path fill-rule="evenodd" clip-rule="evenodd" d="M33.0312 27.1875H36.75H39.9375C40.5219 27.1875 41 27.6656 41 28.25V30.8C41 31.3844 40.5219 31.9688 39.9375 31.9688H37.8125V32.3937V37.7062C37.8125 38.2906 37.3344 38.875 36.75 38.875H33.5625C32.9781 38.875 32.5 38.2912 32.5 37.7062V35.5812C32.5 33.8281 31.0656 32.5 29.3125 32.5H18.6875C16.9344 32.5 15.5 33.8281 15.5 35.5812V37.7062C15.5 38.2906 15.0219 38.875 14.4375 38.875H11.25C10.6656 38.875 10.1875 38.2912 10.1875 37.7062V32.3937V31.9688H8.0625C7.47812 31.9688 7 31.3849 7 30.8V28.25C7 27.6656 7.47812 27.1875 8.0625 27.1875H11.25H14.9688V20.9187C13.5344 22.1937 11.675 22.9375 9.65625 22.9375C8.75312 22.9375 8.0625 22.2469 8.0625 21.3438C8.0625 20.4406 8.75312 19.75 9.65625 19.75C12.5781 19.75 14.9688 17.1469 14.9688 13.9062V12.3125C14.3844 12.3125 13.9062 11.8344 13.9062 11.25V10.1875C13.9062 9.60312 14.3844 9.125 14.9688 9.125H18.1562C18.7406 9.125 19.2188 9.60312 19.2188 10.1875V11.25C19.2188 11.8344 18.7406 12.3125 18.1562 12.3125V13.9062C18.1562 17.1469 20.7594 19.75 24 19.75C27.2406 19.75 29.8438 17.1469 29.8438 13.9062V12.3125C29.2594 12.3125 28.7812 11.8344 28.7812 11.25V10.1875C28.7812 9.60312 29.2594 9.125 29.8438 9.125H33.0312C33.6156 9.125 34.0938 9.60312 34.0938 10.1875V11.25C34.0938 11.8344 33.6156 12.3125 33.0312 12.3125V13.9062C33.0312 17.1469 35.4219 19.75 38.3438 19.75C39.2469 19.75 39.9375 20.4406 39.9375 21.3438C39.9375 22.2469 39.2469 22.9375 38.3438 22.9375C36.325 22.9375 34.4656 22.1406 33.0312 20.9187V27.1875ZM24 22.9375C21.7688 22.9375 19.75 22.0875 18.1562 20.7594V27.1875H29.8438V20.7594C28.25 22.1406 26.2313 22.9375 24 22.9375Z" fill="white"/>
</g>
</svg>
