<svg width="48" height="48" viewBox="0 0 48 48" fill="none" xmlns="http://www.w3.org/2000/svg">
<rect width="48" height="48" rx="4" fill="#E56798"/>
<mask id="mask0_1518_28430" style="mask-type:luminance" maskUnits="userSpaceOnUse" x="0" y="0" width="48" height="48">
<rect width="48" height="48" rx="4" fill="white"/>
</mask>
<g mask="url(#mask0_1518_28430)">
<path d="M34.2567 7H13.7434C11.8734 7 10.4 8.53 10.4 10.3433V10.4C10.4 11.0233 10.91 11.5333 11.5334 11.5333H36.4667C37.09 11.5333 37.6 11.0233 37.6 10.4V10.3433C37.6 8.53 36.07 7 34.2567 7Z" fill="white"/>
<path fill-rule="evenodd" clip-rule="evenodd" d="M34.2001 14.9333H13.8001C13.1767 14.9333 12.6667 15.4433 12.6667 16.0667V39.8667C12.6667 40.49 13.1767 41 13.8001 41H20.0901C20.7134 41 21.1667 40.49 21.1667 39.8667V35.3333C21.1667 34.71 21.7334 34.2 22.3567 34.2H25.6434C26.2667 34.2 26.8334 34.71 26.8334 35.3333V39.8667C26.8334 40.49 27.2867 41 27.9101 41H34.2001C34.8234 41 35.3334 40.49 35.3334 39.8667V16.0667C35.3334 15.4433 34.8234 14.9333 34.2001 14.9333ZM22.3001 30.2333C22.3001 30.8567 21.7901 31.3667 21.1667 31.3667H18.9001C18.2767 31.3667 17.7667 30.8567 17.7667 30.2333V27.9667C17.7667 27.3433 18.2767 26.8333 18.9001 26.8333H21.1667C21.7901 26.8333 22.3001 27.3433 22.3001 27.9667V30.2333ZM21.1667 23.4333C21.7901 23.4333 22.3001 22.9233 22.3001 22.3V20.0333C22.3001 19.41 21.7901 18.9 21.1667 18.9H18.9001C18.2767 18.9 17.7667 19.41 17.7667 20.0333V22.3C17.7667 22.9233 18.2767 23.4333 18.9001 23.4333H21.1667ZM30.2334 30.2333C30.2334 30.8567 29.7234 31.3667 29.1001 31.3667H26.8334C26.2101 31.3667 25.7001 30.8567 25.7001 30.2333V27.9667C25.7001 27.3433 26.2101 26.8333 26.8334 26.8333H29.1001C29.7234 26.8333 30.2334 27.3433 30.2334 27.9667V30.2333ZM29.1001 23.4333C29.7234 23.4333 30.2334 22.9233 30.2334 22.3V20.0333C30.2334 19.41 29.7234 18.9 29.1001 18.9H26.8334C26.2101 18.9 25.7001 19.41 25.7001 20.0333V22.3C25.7001 22.9233 26.2101 23.4333 26.8334 23.4333H29.1001Z" fill="white"/>
</g>
</svg>
