<svg width="48" height="48" viewBox="0 0 48 48" fill="none" xmlns="http://www.w3.org/2000/svg">
<rect width="48" height="48" rx="4" fill="#EE8E6F"/>
<mask id="mask0_1518_28486" style="mask-type:luminance" maskUnits="userSpaceOnUse" x="0" y="0" width="48" height="48">
<rect width="48" height="48" rx="4" fill="white"/>
</mask>
<g mask="url(#mask0_1518_28486)">
<path d="M40.6656 15.4163C40.7765 13.6327 40.6656 11.8491 40.3869 10.1212C40.1639 8.67205 39.0492 7.5573 37.6 7.33435C35.8164 7.05566 34.088 6.94418 32.3049 7.05566C31.8033 7.05566 31.5798 7.66877 31.9148 8.0032L39.718 15.8065C40.0525 16.1409 40.6656 15.8622 40.6656 15.4163Z" fill="white"/>
<path fill-rule="evenodd" clip-rule="evenodd" d="M26.453 8.00317C26.7868 7.89169 27.2327 8.00317 27.5114 8.28186L39.495 20.2655C39.7737 20.5442 39.8852 20.9343 39.7737 21.3245C38.6032 25.5605 36.3174 29.5185 33.0294 32.8064C29.7967 36.0387 25.9508 38.213 21.8819 39.4392C21.4917 39.5507 21.0458 39.4392 20.7671 39.1605L8.61633 27.0097C8.33764 26.731 8.22616 26.2846 8.33764 25.895C9.56387 21.8261 11.7376 17.9802 14.9704 14.7474C18.2595 11.4032 22.2726 9.17366 26.453 8.00317ZM20.4885 30.1868C21.1016 30.8556 22.1606 30.8556 22.8294 30.1868C23.4983 29.5179 23.4983 28.4589 22.8294 27.8463L19.7081 24.7245C19.095 24.0556 18.036 24.0556 17.3671 24.7245C16.6983 25.3376 16.6983 26.3966 17.3671 27.0655L20.4885 30.1868ZM26.7311 26.2851C26.0622 26.954 25.0027 26.954 24.3901 26.2851L21.2688 23.1638C20.5999 22.495 20.5999 21.436 21.2688 20.8228C21.9376 20.154 22.9967 20.154 23.6098 20.8228L26.7316 23.9441C27.3999 24.5573 27.3999 25.6163 26.7311 26.2851ZM28.2917 22.3278C28.9043 22.9966 29.9639 22.9966 30.6327 22.3278C31.3016 21.7146 31.3016 20.6556 30.6333 19.9868L27.5114 16.8655C26.8989 16.1966 25.8393 16.1966 25.1704 16.8655C24.5021 17.4786 24.5021 18.5376 25.1704 19.2064L28.2917 22.3278Z" fill="white"/>
<path d="M7.3344 31.6918C7.22293 33.5868 7.27866 35.4819 7.61309 37.377C7.83604 38.8262 8.9508 39.9409 10.4 40.1639C12.2951 40.4426 14.1901 40.5541 16.0852 40.4426C16.5869 40.3868 16.8098 39.8295 16.4754 39.495L8.28194 31.3016C7.94752 30.9672 7.3344 31.1901 7.3344 31.6918Z" fill="white"/>
</g>
</svg>
