<svg width="48" height="48" viewBox="0 0 48 48" fill="none" xmlns="http://www.w3.org/2000/svg">
<rect width="48" height="48" rx="4" fill="#EF697F"/>
<mask id="mask0_1518_28478" style="mask-type:luminance" maskUnits="userSpaceOnUse" x="0" y="0" width="48" height="48">
<rect width="48" height="48" rx="4" fill="white"/>
</mask>
<g mask="url(#mask0_1518_28478)">
<path fill-rule="evenodd" clip-rule="evenodd" d="M39.8667 9.26667H34.2V8.13333C34.2 7.51 33.69 7 33.0667 7H14.9333C14.31 7 13.8 7.51 13.8 8.13333V9.26667H8.13333C7.51 9.26667 7 9.77667 7 10.4V17.7667C7 20.6 9.26667 22.8667 12.1 22.8667H14.7067C16.2933 26.4933 19.75 29.0433 23.9433 29.1C28.25 29.1567 31.8767 26.55 33.4067 22.8667H35.9C38.7333 22.8667 41 20.6 41 17.7667V10.4C41 9.77667 40.49 9.26667 39.8667 9.26667ZM12.1 19.4667C11.1367 19.4667 10.4 18.73 10.4 17.7667V12.6667H13.8V18.6733C13.8 18.9567 13.8 19.1833 13.8567 19.4667H12.1ZM35.9 19.4667C36.8633 19.4667 37.6 18.73 37.6 17.7667V12.6667H34.2V18.73C34.2 18.8433 34.1858 18.9708 34.1717 19.0983C34.1575 19.2258 34.1433 19.3533 34.1433 19.4667H35.9Z" fill="white"/>
<path d="M29.6666 37.6H29.1C27.23 37.6 25.7 36.07 25.7 34.2V33.0667C25.7 32.7267 25.4733 32.5 25.1333 32.5H24H22.8666C22.5266 32.5 22.3 32.7267 22.3 33.0667V34.2C22.3 36.07 20.77 37.6 18.9 37.6H18.3333C17.71 37.6 17.2 38.11 17.2 38.7333V39.8667C17.2 40.49 17.71 41 18.3333 41H24H29.6666C30.29 41 30.8 40.49 30.8 39.8667V38.7333C30.8 38.11 30.29 37.6 29.6666 37.6Z" fill="white"/>
</g>
</svg>
