<svg width="48" height="48" viewBox="0 0 48 48" fill="none" xmlns="http://www.w3.org/2000/svg">
<rect width="48" height="48" rx="4" fill="#F28B00"/>
<mask id="mask0_1518_28584" style="mask-type:luminance" maskUnits="userSpaceOnUse" x="0" y="0" width="48" height="48">
<rect width="48" height="48" rx="4" fill="white"/>
</mask>
<g mask="url(#mask0_1518_28584)">
<path fill-rule="evenodd" clip-rule="evenodd" d="M22.2405 34.408L22.2406 34.4079C22.3196 34.3647 22.4014 34.3199 22.4862 34.2738C23.5482 33.6394 24.6652 33.1017 25.8235 32.6673C25.4766 31.973 25.1664 31.2609 24.8942 30.534C24.8942 30.4976 24.8754 30.4507 24.858 30.4074C24.8521 30.3925 24.8463 30.3781 24.8415 30.3647C23.6563 30.8585 22.3856 31.1142 21.1016 31.1172C15.7411 31.1234 11.355 26.8508 11.2207 21.4919C11.0864 16.1331 15.2529 11.6462 20.6071 11.3838C25.9612 11.1215 30.5464 15.1796 30.9366 20.526C33.1564 20.763 34.4056 21.8616 35.0753 23.0844C35.1632 22.4725 35.2084 21.8552 35.2107 21.2371C35.2256 13.5256 29.0448 7.23153 21.3343 7.10639C13.6239 6.98124 7.24209 13.0714 7.0067 20.7793C6.77131 28.4872 12.7696 34.9554 20.4733 35.301C20.7593 35.1467 21.049 34.9962 21.3876 34.842V34.8495C21.6331 34.7404 21.9128 34.5873 22.2405 34.408ZM21.1016 17.0043C23.4368 17.0147 25.3224 18.9143 25.3155 21.2495C25.3086 23.5847 23.4118 25.4732 21.0766 25.4697C18.7414 25.4663 16.8501 23.5723 16.8501 21.2371C16.8501 20.1112 17.2986 19.0317 18.0965 18.2374C18.8944 17.4431 19.9758 16.9993 21.1016 17.0043ZM37.12 35.4827C37.5683 35.735 37.9658 35.9587 38.3185 36.1174L38.2997 36.1212C41.0274 37.3252 41.0274 38.6608 40.9935 38.6608V40.8957H19.2054V38.6608C19.2054 38.6608 19.2204 37.3364 21.9294 36.1362C22.2945 35.9766 22.707 35.7456 23.1744 35.4838C24.3931 34.8013 25.9854 33.9096 28.0847 33.5289C27.3322 32.7312 26.7791 31.4972 26.2035 30.0223C25.9209 29.2831 25.9253 28.6357 25.9309 27.7945C25.9317 27.6723 25.9326 27.5461 25.9326 27.4149C25.9326 27.1959 25.9218 26.9426 25.9104 26.6766C25.8816 26.0014 25.8492 25.2445 25.9815 24.7587C26.6173 22.4749 28.239 21.8466 30.1202 21.8466C32.0014 21.8466 33.6154 22.4862 34.2588 24.7436C34.3916 25.2286 34.3585 26.0025 34.3296 26.6786C34.3183 26.9413 34.3077 27.1893 34.3077 27.3999C34.3077 27.5525 34.3092 27.6984 34.3106 27.8391C34.3189 28.6494 34.3253 29.286 34.0368 30.0073C33.4574 31.4784 32.9081 32.7162 32.1556 33.5101C34.2763 33.8823 35.8896 34.7903 37.12 35.4827Z" fill="white"/>
</g>
</svg>
