<svg width="48" height="48" viewBox="0 0 48 48" fill="none" xmlns="http://www.w3.org/2000/svg">
<rect width="48" height="48" rx="4" fill="#F28B00"/>
<mask id="mask0_1518_28606" style="mask-type:luminance" maskUnits="userSpaceOnUse" x="0" y="0" width="48" height="48">
<rect width="48" height="48" rx="4" fill="white"/>
</mask>
<g mask="url(#mask0_1518_28606)">
<path fill-rule="evenodd" clip-rule="evenodd" d="M18.1037 8.43603C24.6241 6.80322 31.4465 6.80322 37.9669 8.43603V8.4584C39.5833 8.99012 40.6985 10.4711 40.7629 12.1716V17.4505C40.68 19.1513 39.5604 20.6264 37.9445 21.1637C37.1392 21.365 36.334 21.5439 35.5063 21.7005L30.4287 28.9479C29.7577 29.9321 29.1985 29.7308 29.1985 28.5452V22.3268C25.4632 22.4458 21.7295 22.0468 18.1037 21.1413C16.4878 20.604 15.3682 19.129 15.2853 17.4281V12.1492C15.3682 10.4484 16.4878 8.97331 18.1037 8.43603ZM10.0511 24.0939C14.8482 22.9755 19.8382 22.9755 24.6353 24.0939C26.2555 24.6118 27.3807 26.0853 27.4537 27.7847V30.7597C27.363 32.4527 26.2446 33.9173 24.6353 34.4505C21.9457 35.0755 19.1859 35.3462 16.4261 35.2558V39.7295C16.4261 40.9373 15.8669 41.1163 15.1735 40.1321L11.3932 34.7189C11.2441 34.6891 11.0949 34.6618 10.9458 34.6344C10.6476 34.5797 10.3493 34.5251 10.0511 34.4505C8.43403 33.9281 7.31081 32.4573 7.23267 30.7597V27.7847C7.32334 26.0918 8.44176 24.6272 10.0511 24.0939Z" fill="white"/>
</g>
</svg>
