<svg width="48" height="48" viewBox="0 0 48 48" fill="none" xmlns="http://www.w3.org/2000/svg">
<rect width="48" height="48" rx="4" fill="#E9AF67"/>
<mask id="mask0_1518_28416" style="mask-type:luminance" maskUnits="userSpaceOnUse" x="0" y="0" width="48" height="48">
<rect width="48" height="48" rx="4" fill="white"/>
</mask>
<g mask="url(#mask0_1518_28416)">
<path d="M36.4666 35.3333H35.9V22.8667C35.9 22.2433 35.39 21.7333 34.7666 21.7333H33.6333C33.01 21.7333 32.5 22.2433 32.5 22.8667V35.3333H29.1V22.8667C29.1 22.2433 28.59 21.7333 27.9666 21.7333H26.8333C26.21 21.7333 25.7 22.2433 25.7 22.8667V35.3333H22.3V22.8667C22.3 22.2433 21.79 21.7333 21.1666 21.7333H20.0333C19.41 21.7333 18.9 22.2433 18.9 22.8667V35.3333H15.5V22.8667C15.5 22.2433 14.99 21.7333 14.3666 21.7333H13.2333C12.61 21.7333 12.1 22.2433 12.1 22.8667V35.3333H11.5333C9.6633 35.3333 8.1333 36.8633 8.1333 38.7333V39.8667C8.1333 40.49 8.6433 41 9.26663 41H38.7333C39.3566 41 39.8666 40.49 39.8666 39.8667V38.7333C39.8666 36.8633 38.3366 35.3333 36.4666 35.3333Z" fill="white"/>
<path fill-rule="evenodd" clip-rule="evenodd" d="M25.3033 7.45333L39.3 15.16C39.64 15.3867 39.8666 15.7833 39.8666 16.18V17.2C39.8666 17.8233 39.3566 18.3333 38.7333 18.3333H37.0333H24H10.9666H9.26663C8.6433 18.3333 8.1333 17.8233 8.1333 17.2V16.1233C8.1333 15.7267 8.35997 15.3867 8.69997 15.16L22.6966 7.45333C23.0933 7.17 23.5466 7 24 7C24.4533 7 24.9066 7.17 25.3033 7.45333ZM21.1666 13.2333C21.1666 14.82 22.4133 16.0667 24 16.0667C25.5866 16.0667 26.8333 14.82 26.8333 13.2333C26.8333 11.6467 25.5866 10.4 24 10.4C22.4133 10.4 21.1666 11.6467 21.1666 13.2333Z" fill="white"/>
</g>
</svg>
