<svg width="48" height="48" viewBox="0 0 48 48" fill="none" xmlns="http://www.w3.org/2000/svg">
<rect width="48" height="48" rx="4" fill="#3ABEB1"/>
<mask id="mask0_1518_28420" style="mask-type:luminance" maskUnits="userSpaceOnUse" x="0" y="0" width="48" height="48">
<rect width="48" height="48" rx="4" fill="white"/>
</mask>
<g mask="url(#mask0_1518_28420)">
<path d="M40.5541 14.1344C40.4426 13.7443 39.9404 13.6328 39.6066 13.9115L33.9771 19.541C33.5306 19.9869 32.8623 19.9869 32.4158 19.541L28.4585 15.5836C28.0126 15.1377 28.0126 14.4689 28.4585 14.023L34.1437 8.3377C34.4224 8.05902 34.3109 7.55738 33.9208 7.39016C32.9738 7.16721 31.9705 7 30.9672 7C25.059 7 20.3213 12.1279 20.9902 18.1475C21.1017 19.0951 21.3246 19.9311 21.659 20.7672L8.67215 33.8098C7.16723 35.3148 7.16723 37.823 8.67215 39.3279C9.45247 40.1082 10.4558 40.4984 11.459 40.4984C12.4623 40.4984 13.4656 40.1088 14.2459 39.3279L27.2328 26.341C28.0689 26.6754 28.9612 26.8984 29.8525 27.0098C35.9279 27.6787 41 22.941 41 17.0328C41 16.0295 40.8328 15.0262 40.5541 14.1344Z" fill="white"/>
</g>
</svg>
