<svg width="48" height="48" viewBox="0 0 48 48" fill="none" xmlns="http://www.w3.org/2000/svg">
<rect width="48" height="48" rx="4" fill="#D8BE5F"/>
<mask id="mask0_1518_28514" style="mask-type:luminance" maskUnits="userSpaceOnUse" x="0" y="0" width="48" height="48">
<rect width="48" height="48" rx="4" fill="white"/>
</mask>
<g mask="url(#mask0_1518_28514)">
<path fill-rule="evenodd" clip-rule="evenodd" d="M39.495 26.9542L31.3573 18.8165C30.0754 17.5345 28.0131 17.5345 26.7311 18.8165L18.5376 26.9542C17.2557 28.2361 17.2557 30.2984 18.5376 31.5804L26.6754 39.7181C27.9573 41.0001 30.0196 41.0001 31.3016 39.7181L39.4393 31.5804C40.777 30.3542 40.777 28.2361 39.495 26.9542ZM24.1114 30.6886C23.3311 31.4689 22.1049 31.4689 21.3803 30.6886C20.5999 29.9083 20.5999 28.682 21.3803 27.9574C22.1606 27.1777 23.3868 27.1777 24.1114 27.9574C24.836 28.682 24.836 29.9083 24.1114 30.6886ZM27.6786 36.9869C28.4032 37.7673 29.6294 37.7673 30.4098 36.9869C31.1344 36.2066 31.1344 34.9804 30.4098 34.2558C29.6857 33.4755 28.459 33.4755 27.6786 34.2558C26.8983 34.9804 26.8983 36.2066 27.6786 36.9869ZM30.4098 24.3902C29.6295 25.17 28.4032 25.17 27.6786 24.3902C26.8989 23.6099 26.8989 22.3837 27.6786 21.6591C28.459 20.8788 29.6857 20.8788 30.4098 21.6591C31.1344 22.3837 31.1344 23.6099 30.4098 24.3902ZM33.9775 30.6886C34.7016 31.4689 35.9284 31.4689 36.7081 30.6886C37.4885 29.9083 37.4885 28.682 36.7081 27.9574C35.9835 27.1771 34.7573 27.1771 33.9775 27.9574C33.1972 28.682 33.1972 29.9083 33.9775 30.6886Z" fill="white"/>
<path fill-rule="evenodd" clip-rule="evenodd" d="M25.3934 10.6231V14.8034C25.3934 15.1378 25.2262 15.4723 24.9475 15.6952C24.8361 15.8067 24.7246 15.9042 24.6131 16.0018C24.5016 16.0993 24.3902 16.1968 24.2787 16.3083L16.0295 24.6132C15.8066 24.8362 15.5836 25.0597 15.4164 25.2821C15.1934 25.505 14.859 25.6723 14.5246 25.6723H10.3443C8.50492 25.6723 7 24.1673 7 22.328V10.6231C7 8.78373 8.50492 7.27881 10.3443 7.27881H22.0492C23.8885 7.27881 25.3934 8.78373 25.3934 10.6231ZM9.78689 20.9345C9.78689 21.9936 10.6787 22.8854 11.7377 22.8854C12.7967 22.8854 13.6885 21.9936 13.6885 20.9345C13.6885 19.8755 12.7967 18.9837 11.7377 18.9837C10.6787 18.9837 9.78689 19.8755 9.78689 20.9345ZM16.1967 18.4263C15.1377 18.4263 14.2459 17.5345 14.2459 16.4755C14.2459 15.4165 15.1377 14.5247 16.1967 14.5247C17.2557 14.5247 18.1475 15.4165 18.1475 16.4755C18.1475 17.5345 17.2557 18.4263 16.1967 18.4263ZM18.7049 12.0165C18.7049 13.0755 19.5967 13.9673 20.6557 13.9673C21.7148 13.9673 22.6066 13.0755 22.6066 12.0165C22.6066 10.9575 21.7148 10.0657 20.6557 10.0657C19.5967 10.0657 18.7049 10.9575 18.7049 12.0165Z" fill="white"/>
</g>
</svg>
