<svg width="48" height="48" viewBox="0 0 48 48" fill="none" xmlns="http://www.w3.org/2000/svg">
<rect width="48" height="48" rx="4" fill="#22A48A"/>
<mask id="mask0_1518_28562" style="mask-type:luminance" maskUnits="userSpaceOnUse" x="0" y="0" width="48" height="48">
<rect width="48" height="48" rx="4" fill="white"/>
</mask>
<g mask="url(#mask0_1518_28562)">
<path d="M39.0258 11.1127L25.6452 13.0869V31.9514C25.6452 32.2805 25.4258 32.4998 25.0968 32.4998H22.9032C22.5742 32.4998 22.3548 32.2805 22.3548 31.9514V13.5805L9.4129 15.4998C9.30322 15.4998 9.24838 15.4998 9.19355 15.4998C8.37097 15.4998 7.65806 14.8966 7.54838 14.074C7.43871 13.1966 8.04193 12.3192 8.91935 12.2095L19.1194 10.674C20.0516 8.97403 21.8613 7.76758 23.9452 7.76758C25.4806 7.76758 26.7968 8.3708 27.7839 9.3579L38.5871 7.82242C39.4651 7.71274 40.3419 8.31597 40.4516 9.19338C40.5613 10.1256 39.9581 10.9482 39.0258 11.1127Z" fill="white"/>
<path fill-rule="evenodd" clip-rule="evenodd" d="M19.4484 29.6476C19.7226 30.2514 19.6129 30.8546 19.229 31.3482C17.4742 33.5417 15.5 34.6385 13.471 34.6385C10.0593 34.6385 7.93111 31.4299 7.7728 31.1913C7.77079 31.1882 7.76911 31.1857 7.76773 31.1836C7.49354 30.6901 7.4387 30.1417 7.65806 29.6482L12.0452 19.2288C12.3193 18.6256 12.9226 18.2417 13.5806 18.2417C14.2387 18.2417 14.8419 18.6256 15.0613 19.2282L19.4484 29.6476ZM15.9387 29.7578L13.5806 24.1094L11.2226 29.7578H15.9387Z" fill="white"/>
<path fill-rule="evenodd" clip-rule="evenodd" d="M34.4194 14.9517C35.0774 14.9517 35.6807 15.3355 35.9549 15.9388L40.2871 26.3576C40.5613 26.9613 40.4516 27.5646 40.0678 28.0581C38.2581 30.2517 36.3387 31.3484 34.3097 31.3484C30.8981 31.3484 28.7699 28.1399 28.6115 27.9012C28.6095 27.8982 28.6079 27.8957 28.6065 27.8936C28.3323 27.4 28.2774 26.8517 28.4968 26.3581L32.8839 15.9388C33.1581 15.3355 33.7613 14.9517 34.4194 14.9517ZM36.7774 26.4678L34.4194 20.8194L32.0613 26.4678H36.7774Z" fill="white"/>
<path d="M24 35.79C20.9291 35.79 17.8032 36.8868 15.6097 38.7513C15.3903 38.9707 15.2258 39.2449 15.2258 39.5739V39.6287C15.2258 40.232 15.7194 40.7255 16.3226 40.7255H31.6774C32.2807 40.7255 32.7742 40.232 32.7742 39.6287V39.5739C32.7742 39.2443 32.6645 38.9701 32.3903 38.7513C30.1968 36.8868 27.071 35.79 24 35.79Z" fill="white"/>
</g>
</svg>
