<svg width="48" height="48" viewBox="0 0 48 48" fill="none" xmlns="http://www.w3.org/2000/svg">
<rect width="48" height="48" rx="4" fill="#BF7B66"/>
<mask id="mask0_1518_28564" style="mask-type:luminance" maskUnits="userSpaceOnUse" x="0" y="0" width="48" height="48">
<rect width="48" height="48" rx="4" fill="white"/>
</mask>
<g mask="url(#mask0_1518_28564)">
<path fill-rule="evenodd" clip-rule="evenodd" d="M35.6166 10.91C36.58 12.44 38.0533 13.63 39.7533 14.14C40.2633 14.31 40.7166 14.7067 40.83 15.16C41.1127 16.0082 40.8077 17.2482 40.5665 18.2284C40.5177 18.427 40.4715 18.6149 40.4333 18.7867C40.2066 20.0333 39.8666 21.2233 39.5266 22.4133C38.62 25.36 37.3727 28.1933 35.73 30.8C33.8033 33.8033 31.3666 36.4667 28.42 38.5633C28.2999 38.6534 28.1639 38.7587 28.0149 38.8742C26.7577 39.8479 24.5745 41.5388 23.2066 40.83C21.5066 39.98 19.92 38.9606 18.4466 37.77C13.2333 33.6333 9.88997 27.7967 8.1333 21.5067C8.07113 21.258 7.97555 20.9369 7.86577 20.5681C7.27507 18.5839 6.27306 15.2179 7.84997 14.31C8.26331 14.0646 8.66193 13.8515 9.04516 13.6467C10.3431 12.9531 11.4646 12.3537 12.3833 10.91C12.6105 10.543 12.7676 10.0305 12.9311 9.49711C13.2978 8.301 13.6967 7 14.99 7H33.01C34.265 7 34.6785 8.30285 35.0584 9.49966C35.2274 10.0321 35.3898 10.5436 35.6166 10.91ZM24.9066 36.92C31.65 32.7833 35.73 25.7 37.26 18.1067L37.4866 16.9167V16.86L36.75 16.4633C34.6533 15.2733 32.8966 13.2333 31.9333 11.08L31.65 10.3433H31.5933H24H16.35L15.8966 11.3633C14.9333 13.3467 13.29 15.2167 11.5333 16.2933L10.5133 16.9167L10.74 18.1067C11.8733 23.9433 14.9333 31.9333 23.0933 36.92L24 37.4867L24.9066 36.92Z" fill="white"/>
<path d="M23.3766 13.7998C22.0733 13.7998 18.9 13.7998 18.2766 14.3665C17.2 15.3298 16.5766 16.7465 15.4433 17.7098C14.2533 18.7298 14.82 19.7498 15.2166 21.1098C16.01 23.4898 17.0866 25.8131 18.56 27.9098C19.2966 28.9859 20.1466 30.0059 21.11 30.9131C21.3933 31.1965 24 33.8031 24 32.1598V14.9331C24 14.3098 24 13.7998 23.3766 13.7998Z" fill="white"/>
</g>
</svg>
