<svg width="48" height="48" viewBox="0 0 48 48" fill="none" xmlns="http://www.w3.org/2000/svg">
<rect width="48" height="48" rx="4" fill="#CFD05C"/>
<mask id="mask0_1518_28388" style="mask-type:luminance" maskUnits="userSpaceOnUse" x="0" y="0" width="48" height="48">
<rect width="48" height="48" rx="4" fill="white"/>
</mask>
<g mask="url(#mask0_1518_28388)">
<path d="M29.1001 8.13333C27.4001 7 21.2801 5.92333 18.9001 9.83333C17.7667 11.7033 19.1267 14.99 20.1467 17.0867C20.4301 17.5967 20.9967 17.88 21.5634 17.6533C22.3001 17.37 23.1501 17.2 24.0001 17.2C24.5667 17.2 25.1334 17.2567 25.7001 17.4267C26.2101 17.54 26.7201 17.3133 26.9467 16.86C27.3434 16.1233 28.0228 15.2733 29.1001 14.3667C31.9334 12.1 30.8001 9.26667 29.1001 8.13333Z" fill="white"/>
<path d="M26.1534 30.46C25.4734 30.6867 24.7367 30.8 24 30.8C23.32 30.8 22.64 30.6867 22.0167 30.5167C21.5067 30.3467 20.94 30.63 20.7134 31.0833C20.3167 31.82 19.6367 32.7267 18.5034 33.6333C15.67 35.9 16.8034 38.79 18.5034 39.9233C20.2034 41.0567 26.38 42.1333 28.7034 38.2233C29.78 36.4106 28.5334 33.1233 27.5134 31.0272C27.23 30.5167 26.6634 30.29 26.1534 30.46Z" fill="white"/>
<path d="M38.1667 18.9C36.2967 17.7667 33.01 19.1267 30.9134 20.1467C30.4034 20.43 30.12 20.9967 30.3467 21.5633C30.63 22.3 30.8 23.15 30.8 24C30.8 24.5667 30.7434 25.1333 30.5734 25.7C30.4606 26.21 30.6867 26.72 31.14 26.9467C31.8767 27.3433 32.7267 28.0233 33.6334 29.1C35.9 31.9333 38.7334 30.8 39.8667 29.1C41 27.4 42.0767 21.2233 38.1667 18.9Z" fill="white"/>
<path d="M17.54 26.1533C17.3134 25.4733 17.2 24.7367 17.2 24C17.2 23.32 17.3134 22.64 17.4834 22.0167C17.6534 21.5067 17.37 20.94 16.9167 20.7133C16.18 20.3167 15.2734 19.6367 14.3667 18.5033C12.1 15.67 9.21003 16.8033 8.0767 18.5033C6.94337 20.2033 5.8667 26.3233 9.7767 28.7033C11.59 29.78 14.8767 28.5333 16.9734 27.5133C17.4834 27.23 17.71 26.6633 17.54 26.1533Z" fill="white"/>
<path d="M24 27.4C25.8777 27.4 27.4 25.8778 27.4 24C27.4 22.1222 25.8777 20.6 24 20.6C22.1222 20.6 20.6 22.1222 20.6 24C20.6 25.8778 22.1222 27.4 24 27.4Z" fill="white"/>
</g>
</svg>
