<svg width="48" height="48" viewBox="0 0 48 48" fill="none" xmlns="http://www.w3.org/2000/svg">
<rect width="48" height="48" rx="4" fill="#F28B00"/>
<mask id="mask0_1518_28604" style="mask-type:luminance" maskUnits="userSpaceOnUse" x="0" y="0" width="48" height="48">
<rect width="48" height="48" rx="4" fill="white"/>
</mask>
<g mask="url(#mask0_1518_28604)">
<path d="M25.9116 21.1971C25.8776 21.1971 25.8587 21.1971 25.8436 21.1631C24.5364 20.6002 22.6136 19.0891 19.7576 18.5753C20.4867 17.8198 21.0496 16.5882 21.6087 15.1262C21.9336 14.2913 21.8807 13.5773 21.8807 12.5573C21.8807 11.8018 22.0167 10.6042 21.8278 9.93934C21.2007 7.67268 19.6178 7.06445 17.7478 7.06445C15.8778 7.06445 14.2798 7.69534 13.6489 9.93934C13.4638 10.6005 13.6149 11.8093 13.6149 12.5573C13.6149 13.5773 13.562 14.2913 13.8869 15.1413C14.4649 16.5882 15.0202 17.8122 15.7229 18.5905C12.9009 19.1193 10.978 20.5965 9.67844 21.1593C7.02644 22.3682 7 23.6602 7 23.6602V27.9631H20.4036C21.2688 25.0661 23.2503 22.632 25.9116 21.1971Z" fill="white"/>
<path fill-rule="evenodd" clip-rule="evenodd" d="M41 30.0445V32.2432L38.246 33.2594L37.6189 34.7705L38.7523 36.9805L38.9034 37.2676L37.3394 38.8316L34.7705 37.6265L33.2594 38.2574L32.4774 40.6185L32.3754 40.9245H30.1654L29.2134 38.2574L27.7023 37.6265L25.4734 38.7599L25.1863 38.911L23.6223 37.347L24.8727 34.7403L24.2418 33.2292L21.8769 32.4472L21.5709 32.3452V30.1352L24.238 29.1832L24.8689 27.6721L23.7356 25.447L23.5845 25.1561L25.1334 23.5921L27.7514 24.801L29.2625 24.1701L30.0445 21.809L30.1276 21.5332H32.364L33.316 24.2003L34.8271 24.8312L37.0371 23.6979L37.328 23.5468L38.892 25.1108L37.6869 27.6759L38.314 29.187L40.694 29.9425L41 30.0445ZM26.8674 31.198C26.8702 33.6267 28.8398 35.5941 31.2685 35.5941C32.438 35.5931 33.5592 35.127 34.3848 34.2986C35.2104 33.4702 35.6726 32.3474 35.6696 31.1779C35.6613 28.7492 33.6871 26.7863 31.2584 26.7919C28.8297 26.7974 26.8646 28.7693 26.8674 31.198Z" fill="white"/>
</g>
</svg>
