<svg width="48" height="48" viewBox="0 0 48 48" fill="none" xmlns="http://www.w3.org/2000/svg">
<rect width="48" height="48" rx="4" fill="#34B59D"/>
<mask id="mask0_1518_28498" style="mask-type:luminance" maskUnits="userSpaceOnUse" x="0" y="0" width="48" height="48">
<rect width="48" height="48" rx="4" fill="white"/>
</mask>
<g mask="url(#mask0_1518_28498)">
<path d="M33.0484 21.8066C32.1161 21.8066 31.3484 21.0388 31.4032 20.0517C31.458 19.1743 32.2258 18.5162 33.158 18.5162H37.8742C38.0935 18.5162 38.258 18.4066 38.3677 18.242C38.8064 17.4743 39.1349 16.7065 39.4091 15.9936C39.5193 15.6098 39.3 15.2259 38.9161 15.2259H35.4064C34.529 15.2259 33.7064 14.5678 33.6516 13.6904C33.5968 12.7582 34.3645 11.9356 35.2968 11.9356H39.6838C40.0134 11.9356 40.2322 11.7162 40.2322 11.3872V9.74203C40.2322 9.13881 39.7392 8.64526 39.1355 8.64526H33.2677C31.6226 8.64526 30.3064 9.96139 30.3064 11.6066V11.6614C30.3064 14.7324 28.2774 17.4743 25.3709 18.242V13.6904C26.5226 13.0324 27.2355 11.7711 27.0161 10.2904C26.7968 8.86461 25.5903 7.713 24.1645 7.54849C22.1903 7.32913 20.4903 8.86461 20.4903 10.8388C20.4903 12.0453 21.1484 13.0872 22.1355 13.6904V18.2969C19.229 17.5291 17.2 14.7872 17.2 11.7162V11.6614C17.2 10.0162 15.8838 8.7001 14.2387 8.7001H8.37094C7.76772 8.7001 7.27417 9.19365 7.27417 9.79687V11.442C7.27417 11.7711 7.49352 11.9904 7.82256 11.9904H12.1C12.9774 11.9904 13.8 12.6485 13.8548 13.5259C13.9097 14.4582 13.1419 15.2807 12.2097 15.2807H8.64514C8.26127 15.2807 7.98707 15.6646 8.15159 16.0485C8.42578 16.7614 8.75482 17.5291 9.19352 18.2969C9.3032 18.4614 9.46772 18.5711 9.68707 18.5711H14.4032C15.2806 18.5711 16.1032 19.2291 16.158 20.1066C16.2129 21.0388 15.4451 21.8614 14.5129 21.8614H13.1968C12.7032 21.8614 12.429 22.5195 12.8677 22.8485C15.1709 24.8227 18.2419 26.2485 22.1903 26.2485V38.7517C22.1903 39.6291 22.8484 40.4517 23.7258 40.506C24.658 40.5614 25.4806 39.7931 25.4806 38.8608V26.1936C29.429 26.1936 32.5 24.7678 34.8032 22.7936C35.1871 22.4646 34.9677 21.8066 34.4736 21.8066H33.0484Z" fill="white"/>
</g>
</svg>
