<svg width="48" height="48" viewBox="0 0 48 48" fill="none" xmlns="http://www.w3.org/2000/svg">
<rect width="48" height="48" rx="4" fill="#FF7B84"/>
<mask id="mask0_1518_28386" style="mask-type:luminance" maskUnits="userSpaceOnUse" x="0" y="0" width="48" height="48">
<rect width="48" height="48" rx="4" fill="white"/>
</mask>
<g mask="url(#mask0_1518_28386)">
<path d="M26.3581 37.7645C25.0425 39.1355 22.9033 39.1355 21.5871 37.7645C17.6387 33.5425 10.071 25.4812 10.071 25.4258C6.671 21.8613 6.671 15.9935 10.071 12.429C11.7162 10.6742 13.9097 9.74193 16.2678 9.74193C18.6258 9.74193 20.8194 10.6742 22.4645 12.429L23.1226 13.2516C23.5613 13.8 24.4387 13.8 24.8774 13.2516L25.4258 12.5387C25.4807 12.4839 25.4807 12.4839 25.5355 12.429C27.2361 10.6194 29.4296 9.6871 31.7323 9.6871C34.0909 9.6871 36.2844 10.6194 37.9296 12.3742C41.3291 15.9387 41.3291 21.8065 37.9296 25.371C37.8742 25.4806 30.3613 33.5419 26.3581 37.7645Z" fill="white"/>
</g>
</svg>
