<svg width="48" height="48" viewBox="0 0 48 48" fill="none" xmlns="http://www.w3.org/2000/svg">
<rect width="48" height="48" rx="4" fill="#F28B00"/>
<mask id="mask0_1518_28598" style="mask-type:luminance" maskUnits="userSpaceOnUse" x="0" y="0" width="48" height="48">
<rect width="48" height="48" rx="4" fill="white"/>
</mask>
<g mask="url(#mask0_1518_28598)">
<path fill-rule="evenodd" clip-rule="evenodd" d="M23.048 28.2674L22.81 29.8654V29.8824L24.306 31.7184L24.51 31.9564L23.422 33.8094L20.804 33.2484L19.546 34.2004L19.393 36.5804V36.9204L17.353 37.4304L15.874 35.1184L14.344 34.8804L12.559 36.4784L12.321 36.6824L10.536 35.5604L11.08 32.8404L10.145 31.5654L7.799 31.3784L7.493 31.3444L7 29.2534L9.244 27.7234L9.465 26.1254L7.935 24.2724L7.731 24.0344L8.819 22.1814L11.471 22.7424L12.729 21.7904L12.899 19.3594V19.0364L14.922 18.5264L16.418 20.8384L17.948 21.0764L19.733 19.4954L19.954 19.2744L21.722 20.4134L21.195 23.1334L22.113 24.4254L24.493 24.6124H24.799L25.292 26.7204L23.048 28.2674ZM17.1514 32.1808C18.2297 31.908 19.1499 31.2067 19.699 30.2394C20.8868 28.202 20.2658 25.5909 18.288 24.3064C17.3429 23.7179 16.1983 23.5411 15.1197 23.8172C14.0411 24.0933 13.1222 24.7982 12.576 25.7684C11.3992 27.802 12.019 30.4008 13.987 31.6844C14.93 32.2743 16.073 32.4536 17.1514 32.1808Z" fill="white"/>
<path fill-rule="evenodd" clip-rule="evenodd" d="M38.773 20.2942L38.535 21.8922L40.048 23.7452L40.252 23.9832L39.164 25.8362L36.529 25.2922L35.271 26.2442L35.101 28.6752L35.084 28.9982L33.061 29.5082L31.582 27.1962L30.052 26.9582L28.267 28.5562L28.029 28.7602L26.244 27.6042L26.788 24.8842L25.87 23.5752L23.524 23.3882H23.218L22.725 21.2802L24.952 19.7672L25.19 18.1692L23.66 16.3162L23.456 16.0612L24.544 14.2082L27.162 14.7522L28.42 13.8002L28.573 11.4032L28.607 11.0632L30.647 10.5532L32.109 12.8652L33.639 13.1032L35.424 11.5222L35.662 11.3182L37.447 12.4402L36.92 15.1602L37.855 16.4862L40.201 16.6732H40.507L41 18.7642L38.773 20.2942ZM32.8593 24.2076C33.9377 23.9348 34.8579 23.2336 35.407 22.2662C36.598 20.2331 35.9848 17.6232 34.013 16.3332C33.0679 15.7447 31.9233 15.568 30.8447 15.8441C29.7661 16.1201 28.8471 16.825 28.301 17.7952C27.1062 19.8223 27.7209 22.4308 29.695 23.7112C30.638 24.3011 31.781 24.4804 32.8593 24.2076Z" fill="white"/>
</g>
</svg>
