<svg width="48" height="48" viewBox="0 0 48 48" fill="none" xmlns="http://www.w3.org/2000/svg">
<rect width="48" height="48" rx="4" fill="#8A7AED"/>
<mask id="mask0_1518_28424" style="mask-type:luminance" maskUnits="userSpaceOnUse" x="0" y="0" width="48" height="48">
<rect width="48" height="48" rx="4" fill="white"/>
</mask>
<g mask="url(#mask0_1518_28424)">
<path d="M28.3067 35.9567C28.1367 35.5606 27.74 35.3334 27.2867 35.3334H20.7134C20.26 35.3334 19.8634 35.56 19.6934 35.9567L18.1634 40.15C17.9934 40.5467 18.2767 40.9434 18.6734 40.9434H29.3267C29.7228 40.9434 30.0061 40.4895 29.8361 40.15L28.3067 35.9567Z" fill="white"/>
<path fill-rule="evenodd" clip-rule="evenodd" d="M37.6 7H10.4C8.53 7 7 8.53 7 10.4V28.5333C7 30.4033 8.53 31.9333 10.4 31.9333H37.6C39.47 31.9333 41 30.4033 41 28.5333V10.4C41 8.53 39.47 7 37.6 7ZM24 30.8C23.0367 30.8 22.3 30.0633 22.3 29.1C22.3 28.1367 23.0367 27.4 24 27.4C24.9633 27.4 25.7 28.1367 25.7 29.1C25.7 30.0633 24.9633 30.8 24 30.8ZM36.4667 26.2667C37.09 26.2667 37.6 25.7567 37.6 25.1333V11.5333C37.6 10.91 37.09 10.4 36.4667 10.4H11.5333C10.91 10.4 10.4 10.91 10.4 11.5333V25.1333C10.4 25.7567 10.91 26.2667 11.5333 26.2667H36.4667Z" fill="white"/>
</g>
</svg>
