<svg width="48" height="48" viewBox="0 0 48 48" fill="none" xmlns="http://www.w3.org/2000/svg">
<rect width="48" height="48" rx="4" fill="#B070E6"/>
<mask id="mask0_1518_28428" style="mask-type:luminance" maskUnits="userSpaceOnUse" x="0" y="0" width="48" height="48">
<rect width="48" height="48" rx="4" fill="white"/>
</mask>
<g mask="url(#mask0_1518_28428)">
<path d="M22.9967 27.0655C23.4426 27.4557 24.0552 27.4557 24.5016 27.0655L40.2754 12.4622C40.5541 11.9049 40.4978 11.0131 39.383 11.0131L8.16992 11.0688C7.33386 11.0688 6.665 11.8491 7.27812 12.518L22.9967 27.0655Z" fill="white"/>
<path d="M40.4427 18.7049C40.4427 17.9803 39.5509 17.5901 39.0492 18.0918L26.7869 29.4622C25.9509 30.2426 24.8919 30.6327 23.7771 30.6327C22.6623 30.6327 21.6033 30.2426 20.7673 29.4617L8.44923 18.0918C7.89185 17.5901 7.05579 17.9803 7.05579 18.7049C7.05579 23.1081 7.05579 33.1967 7.05579 33.1967C7.05579 35.036 8.5607 36.5409 10.4 36.5409H37.1541C38.994 36.5409 40.4984 35.036 40.4984 33.1967C40.4427 33.1967 40.4427 23.1639 40.4427 18.7049Z" fill="white"/>
</g>
</svg>
