<svg width="48" height="48" viewBox="0 0 48 48" fill="none" xmlns="http://www.w3.org/2000/svg">
<rect width="48" height="48" rx="4" fill="#4DCA76"/>
<mask id="mask0_1518_28610" style="mask-type:luminance" maskUnits="userSpaceOnUse" x="0" y="0" width="48" height="48">
<rect width="48" height="48" rx="4" fill="white"/>
</mask>
<g mask="url(#mask0_1518_28610)">
<path d="M27.8387 16.3225H33.6516C34.0909 16.3225 34.4193 15.9935 34.4193 15.5548C34.4193 15.3354 34.3645 15.1709 34.2 15.0064L26.9613 7.76769C26.7968 7.60318 26.6322 7.54834 26.4129 7.54834C25.9742 7.54834 25.6451 7.87737 25.6451 8.31608V14.129C25.6451 15.3354 26.6322 16.3225 27.8387 16.3225Z" fill="white"/>
<path d="M40.671 23.7806L40.013 23.1225C39.5742 22.6838 38.9162 22.6838 38.4775 23.1225L30.0323 31.6225C29.9775 31.6773 30.0323 31.7322 30.0323 31.8418V33.6515C30.0323 33.8166 30.0323 33.9257 30.1968 33.9257H32.0065C32.0613 33.9257 32.171 33.8709 32.2259 33.8709L40.671 25.4257C41.1097 24.8773 41.1097 24.2193 40.671 23.7806Z" fill="white"/>
<path fill-rule="evenodd" clip-rule="evenodd" d="M32.5548 37.1612H33.8161C34.1452 37.1612 34.4194 37.4903 34.3645 37.8193C34.0903 39.3 32.7194 40.4516 31.129 40.4516H10.2903C8.48065 40.4516 7 38.9709 7 37.1612V10.8387C7 9.02899 8.48065 7.54834 10.2903 7.54834H21.2581C21.8613 7.54834 22.3548 8.04189 22.3548 8.64511V16.3225C22.3548 18.1322 23.8355 19.6129 25.6452 19.6129H33.3226C33.9258 19.6129 34.4194 20.1064 34.4194 20.7096V22.1354C34.4194 22.4096 34.3091 22.6838 34.0903 22.9032L27.3452 29.7032C26.9065 30.0865 26.7419 30.6349 26.7419 31.2387V35.0774C26.7419 36.229 27.6742 37.1612 28.8258 37.1612H30.0323H32.5548ZM12.4839 16.3225C11.8806 16.3225 11.3871 16.8161 11.3871 17.4193V18.5161C11.3871 19.1193 11.8806 19.6129 12.4839 19.6129H16.871C17.4742 19.6129 17.9677 19.1193 17.9677 18.5161V17.4193C17.9677 16.8161 17.4742 16.3225 16.871 16.3225H12.4839ZM22.3548 31.6774C22.3548 32.2806 21.8613 32.7741 21.2581 32.7741H12.4839C11.8806 32.7741 11.3871 32.2806 11.3871 31.6774V30.5806C11.3871 29.9774 11.8806 29.4838 12.4839 29.4838H21.2581C21.8613 29.4838 22.3548 29.9774 22.3548 30.5806V31.6774ZM23.4516 26.1935C24.0548 26.1935 24.5484 25.7 24.5484 25.0967V24C24.5484 23.3967 24.0548 22.9032 23.4516 22.9032H12.4839C11.8806 22.9032 11.3871 23.3967 11.3871 24V25.0967C11.3871 25.7 11.8806 26.1935 12.4839 26.1935H23.4516Z" fill="white"/>
</g>
</svg>
