<svg width="48" height="48" viewBox="0 0 48 48" fill="none" xmlns="http://www.w3.org/2000/svg">
<rect width="48" height="48" rx="4" fill="#F28B00"/>
<mask id="mask0_1518_28594" style="mask-type:luminance" maskUnits="userSpaceOnUse" x="0" y="0" width="48" height="48">
<rect width="48" height="48" rx="4" fill="white"/>
</mask>
<g mask="url(#mask0_1518_28594)">
<path fill-rule="evenodd" clip-rule="evenodd" d="M11.6547 19.6002C11.6166 12.8539 17.0513 7.35219 23.7976 7.30762C30.5411 7.35885 35.9719 12.8566 35.9405 19.6002C35.9405 29.1283 23.7976 40.6924 23.7976 40.6924C23.7976 40.6924 11.6547 29.5655 11.6547 19.6002ZM18.9013 21.6804C19.7337 23.6419 21.6669 24.9077 23.7976 24.8864V24.8824C26.691 24.8535 29.0182 22.4938 29.0069 19.6002C28.9969 17.4695 27.7029 15.555 25.7295 14.7514C23.756 13.9478 21.4928 14.4137 19.9971 15.9314C18.5015 17.4491 18.0689 19.719 18.9013 21.6804Z" fill="white"/>
</g>
</svg>
