<svg width="48" height="48" viewBox="0 0 48 48" fill="none" xmlns="http://www.w3.org/2000/svg">
<rect width="48" height="48" rx="4" fill="#ED6387"/>
<mask id="mask0_1518_28520" style="mask-type:luminance" maskUnits="userSpaceOnUse" x="0" y="0" width="48" height="48">
<rect width="48" height="48" rx="4" fill="white"/>
</mask>
<g mask="url(#mask0_1518_28520)">
<path fill-rule="evenodd" clip-rule="evenodd" d="M25.4258 21.313C22.2999 18.9549 19.1193 20.1065 17.0354 22.0807C16.2677 22.7936 15.0612 23.2323 13.7451 23.6162L13.6457 23.6481L13.6457 23.6481C12.1412 24.1313 10.5945 24.6281 9.46769 25.7549C6.39672 28.771 6.99994 32.3904 11.2774 36.613L11.3322 36.6678L11.387 36.7227C13.9096 39.1904 16.2128 40.3968 18.2967 40.3968C19.8322 40.3968 21.2032 39.7931 22.5193 38.5323C23.6709 37.4356 24.2193 35.8452 24.7128 34.3646C25.1516 33.1033 25.5903 31.842 26.3032 31.1291C27.5645 29.9227 28.2774 28.4968 28.4413 27.071C28.5516 26.0291 28.3322 24.5485 27.1258 23.013C27.1258 23.013 26.4677 22.1356 25.4258 21.313ZM18.6258 34.5291C18.3516 34.8033 17.9677 34.9678 17.529 34.9678C17.0903 34.9678 16.7612 34.8033 16.487 34.5291L13.4709 31.513C12.8677 30.9092 12.8677 29.9775 13.4709 29.3743C14.0741 28.771 15.0064 28.771 15.6096 29.3743L18.6258 32.3904C19.229 32.9936 19.229 33.9259 18.6258 34.5291ZM18.5161 27.2904C18.5161 28.8259 19.7225 30.0323 21.258 30.0323C22.7935 30.0323 23.9999 28.8259 23.9999 27.2904C23.9999 25.7549 22.7935 24.5485 21.258 24.5485C19.7225 24.5485 18.5161 25.7549 18.5161 27.2904Z" fill="white"/>
<path d="M40.1225 10.4L37.5999 7.87737C37.1612 7.43866 36.3935 7.43866 35.8999 7.87737L33.1031 10.6741C32.6644 11.1129 32.6644 11.8806 33.1031 12.3741L33.2128 12.4838L27.5644 18.1322C27.3451 18.3516 27.3451 18.7354 27.5644 18.9548C28.0031 19.3387 28.716 19.9967 29.1547 20.4354C29.3735 20.6548 29.7031 20.6548 29.9219 20.4354L35.516 14.8419L35.6257 14.9516C36.0644 15.3903 36.8322 15.3903 37.3257 14.9516L40.123 12.1548C40.5612 11.6612 40.5612 10.8935 40.1225 10.4Z" fill="white"/>
</g>
</svg>
