<svg width="48" height="48" viewBox="0 0 48 48" fill="none" xmlns="http://www.w3.org/2000/svg">
<rect width="48" height="48" rx="4" fill="#7CCF60"/>
<mask id="mask0_1518_28508" style="mask-type:luminance" maskUnits="userSpaceOnUse" x="0" y="0" width="48" height="48">
<rect width="48" height="48" rx="4" fill="white"/>
</mask>
<g mask="url(#mask0_1518_28508)">
<path d="M19.4667 29.6666H28.5334C29.1567 29.6666 29.6667 29.1566 29.6667 28.5333V19.4666C29.6667 18.8433 29.1567 18.3333 28.5334 18.3333H19.4667C18.8434 18.3333 18.3334 18.8433 18.3334 19.4666V28.5333C18.3334 29.1566 18.8434 29.6666 19.4667 29.6666Z" fill="white"/>
<path fill-rule="evenodd" clip-rule="evenodd" d="M41 24C41 24.9633 40.2633 25.7 39.3 25.7H36.4667V29.1H39.3C40.2633 29.1 41 29.8367 41 30.8C41 31.7633 40.2633 32.5 39.3 32.5H36.4667V33.0667C36.4667 34.9367 34.9367 36.4667 33.0667 36.4667H32.5V39.3C32.5 40.2633 31.7633 41 30.8 41C29.8367 41 29.1 40.2633 29.1 39.3V36.4667H25.7V39.3C25.7 40.2633 24.9633 41 24 41C23.0367 41 22.3 40.2633 22.3 39.3V36.4667H18.9V39.3C18.9 40.2633 18.1633 41 17.2 41C16.2367 41 15.5 40.2633 15.5 39.3V36.4667H14.9333C13.0633 36.4667 11.5333 34.9367 11.5333 33.0667V32.5H8.7C7.73667 32.5 7 31.7633 7 30.8C7 29.8367 7.73667 29.1 8.7 29.1H11.5333V25.7H8.7C7.73667 25.7 7 24.9633 7 24C7 23.0367 7.73667 22.3 8.7 22.3H11.5333V18.9H8.7C7.73667 18.9 7 18.1633 7 17.2C7 16.2367 7.73667 15.5 8.7 15.5H11.5333V14.9333C11.5333 13.0633 13.0633 11.5333 14.9333 11.5333H15.5V8.7C15.5 7.73667 16.2367 7 17.2 7C18.1633 7 18.9 7.73667 18.9 8.7V11.5333H22.3V8.7C22.3 7.73667 23.0367 7 24 7C24.9633 7 25.7 7.73667 25.7 8.7V11.5333H29.1V8.7C29.1 7.73667 29.8367 7 30.8 7C31.7633 7 32.5 7.73667 32.5 8.7V11.5333H33.0667C34.9367 11.5333 36.4667 13.0633 36.4667 14.9333V15.5H39.3C40.2633 15.5 41 16.2367 41 17.2C41 18.1633 40.2633 18.9 39.3 18.9H36.4667V22.3H39.3C40.2633 22.3 41 23.0367 41 24ZM31.3667 33.0667C32.33 33.0667 33.0667 32.33 33.0667 31.3667V16.6333C33.0667 15.67 32.33 14.9333 31.3667 14.9333H16.6333C15.67 14.9333 14.9333 15.67 14.9333 16.6333V31.3667C14.9333 32.33 15.67 33.0667 16.6333 33.0667H31.3667Z" fill="white"/>
</g>
</svg>
