<svg width="48" height="48" viewBox="0 0 48 48" fill="none" xmlns="http://www.w3.org/2000/svg">
<rect width="48" height="48" rx="4" fill="#E25C80"/>
<mask id="mask0_1518_28480" style="mask-type:luminance" maskUnits="userSpaceOnUse" x="0" y="0" width="48" height="48">
<rect width="48" height="48" rx="4" fill="white"/>
</mask>
<g mask="url(#mask0_1518_28480)">
<path fill-rule="evenodd" clip-rule="evenodd" d="M18.9 23.9999C18.9 21.1666 21.1667 18.8999 24 18.8999C26.8334 18.8999 29.1 21.1666 29.1 23.9999C29.1 26.8332 26.8334 29.0999 24 29.0999C21.1667 29.0999 18.9 26.8332 18.9 23.9999ZM21.1667 23.9999C21.1667 25.5866 22.4134 26.8332 24 26.8332C25.5867 26.8332 26.8334 25.5866 26.8334 23.9999C26.8334 22.4132 25.5867 21.1666 24 21.1666C22.4134 21.1666 21.1667 22.4132 21.1667 23.9999Z" fill="white"/>
<path fill-rule="evenodd" clip-rule="evenodd" d="M7 24C7 14.5933 14.5933 7 24 7C33.4067 7 41 14.5933 41 24C41 33.4067 33.4067 41 24 41C14.5933 41 7 33.4067 7 24ZM22.7533 38.11C23.4333 38.1667 24 37.6561 24 36.9767V35.8433C24 35.2767 23.5467 34.7667 22.98 34.71C17.88 34.2 13.8 30.12 13.29 25.02C13.2333 24.4533 12.7233 24 12.1567 24H11.0233C10.3433 24 9.83333 24.5667 9.83333 25.19C10.4567 32.0467 15.8967 37.5433 22.7533 38.11ZM24 32.5C19.2967 32.5 15.5 28.7033 15.5 24C15.5 19.2967 19.2967 15.5 24 15.5C28.7033 15.5 32.5 19.2967 32.5 24C32.5 28.7033 28.7033 32.5 24 32.5ZM35.8433 24H36.9767C37.6567 24 38.1667 23.4333 38.1667 22.81C37.5433 15.9533 32.1033 10.4567 25.2467 9.89C24.5667 9.83333 24 10.3433 24 11.0233V12.1567C24 12.7233 24.4533 13.2333 25.02 13.29C30.12 13.8 34.2 17.88 34.71 22.98C34.7667 23.5467 35.2767 24 35.8433 24Z" fill="white"/>
</g>
</svg>
