<svg width="48" height="48" viewBox="0 0 48 48" fill="none" xmlns="http://www.w3.org/2000/svg">
<rect width="48" height="48" rx="4" fill="#83C75E"/>
<mask id="mask0_1518_28462" style="mask-type:luminance" maskUnits="userSpaceOnUse" x="0" y="0" width="48" height="48">
<rect width="48" height="48" rx="4" fill="white"/>
</mask>
<g mask="url(#mask0_1518_28462)">
<path fill-rule="evenodd" clip-rule="evenodd" d="M37.6 10.9666H10.4C8.53 10.9666 7 12.4966 7 14.3666V33.6332C7 35.5032 8.53 37.0332 10.4 37.0332H37.6C39.47 37.0332 41 35.5032 41 33.6332V14.3666C41 12.4966 39.47 10.9666 37.6 10.9666ZM37.6 14.3666V17.7666H10.4V14.3666H37.6ZM10.4 23.4332V33.6332H37.6V23.4332H10.4Z" fill="white"/>
<path d="M20.09 26.2666C19.2967 26.2666 18.6167 26.6633 18.22 27.2866C18.1634 27.3999 17.9934 27.3999 17.9367 27.2866C17.54 26.6633 16.86 26.2666 16.0667 26.2666C14.82 26.2666 13.8 27.2866 13.8 28.5333C13.8 29.7799 14.82 30.7999 16.0667 30.7999C16.86 30.7999 17.54 30.4033 17.9367 29.7799C17.9934 29.6666 18.1634 29.6666 18.22 29.7799C18.6167 30.4033 19.2967 30.7999 20.09 30.7999H20.1467C21.3367 30.7999 22.3567 29.8366 22.3567 28.5899V28.4766C22.3 27.2299 21.3367 26.2666 20.09 26.2666Z" fill="white"/>
<path d="M33.0666 26.8333H26.2666C25.6433 26.8333 25.1333 27.3433 25.1333 27.9666V29.0999C25.1333 29.7233 25.6433 30.2333 26.2666 30.2333H33.0666C33.69 30.2333 34.2 29.7233 34.2 29.0999V27.9666C34.2 27.3433 33.69 26.8333 33.0666 26.8333Z" fill="white"/>
</g>
</svg>
