<svg width="48" height="48" viewBox="0 0 48 48" fill="none" xmlns="http://www.w3.org/2000/svg">
<rect width="48" height="48" rx="4" fill="#E3D067"/>
<mask id="mask0_1518_28500" style="mask-type:luminance" maskUnits="userSpaceOnUse" x="0" y="0" width="48" height="48">
<rect width="48" height="48" rx="4" fill="white"/>
</mask>
<g mask="url(#mask0_1518_28500)">
<path d="M33.8033 13.2333C34.3699 13.2333 34.7666 12.78 34.7666 12.27C34.7666 11.8733 34.5399 11.4767 34.1432 11.25C33.406 10.8533 32.2727 8.92667 31.8766 7.73667C31.7633 7.28333 31.3099 7 30.856 7H24.5666H23.4333H17.0866C16.6333 7 16.1799 7.28333 16.0666 7.73667C15.7266 8.87 14.5366 10.8533 13.8566 11.25C13.5166 11.4767 13.2899 11.8167 13.2899 12.27C13.2899 12.8367 13.7433 13.2333 14.2533 13.2333H33.8033Z" fill="white"/>
<path d="M13.2333 37.5432C13.2333 39.4693 14.7633 40.9999 16.6333 40.9999H31.3666C33.2366 40.9999 34.7666 39.4699 34.7666 37.5999V37.5432C34.7666 36.9193 34.2566 36.4666 33.6899 36.4666H14.3099C13.7433 36.4666 13.2333 36.9766 13.2333 37.5432Z" fill="white"/>
<path d="M34.7666 31.9333V17.7666C34.7666 17.1433 34.2566 16.6333 33.6333 16.6333H14.3666C13.7433 16.6333 13.2333 17.1433 13.2333 17.7666V31.9333C13.2333 32.5566 13.7433 33.0666 14.3666 33.0666H33.6333C34.2566 33.0666 34.7666 32.5566 34.7666 31.9333Z" fill="white"/>
</g>
</svg>
