<svg width="48" height="48" viewBox="0 0 48 48" fill="none" xmlns="http://www.w3.org/2000/svg">
<rect width="48" height="48" rx="4" fill="#CFD05B"/>
<mask id="mask0_1518_28466" style="mask-type:luminance" maskUnits="userSpaceOnUse" x="0" y="0" width="48" height="48">
<rect width="48" height="48" rx="4" fill="white"/>
</mask>
<g mask="url(#mask0_1518_28466)">
<path d="M37.6 8.1333H10.4C8.53 8.1333 7 9.6633 7 11.5333V14.9333C7 15.5566 7.51 16.0666 8.13333 16.0666H39.8667C40.49 16.0666 41 15.5566 41 14.9333V11.5333C41 9.6633 39.47 8.1333 37.6 8.1333Z" fill="white"/>
<path fill-rule="evenodd" clip-rule="evenodd" d="M10.4001 19.4666H37.6001C38.2234 19.4666 38.7334 19.9766 38.7334 20.5999V36.4666C38.7334 38.3366 37.2034 39.8666 35.3334 39.8666H12.6667C10.7967 39.8666 9.26672 38.3366 9.26672 36.4666V20.5999C9.26672 19.9766 9.77672 19.4666 10.4001 19.4666ZM28.5334 26.2666C29.4967 26.2666 30.2334 25.4732 30.2334 24.5666C30.2334 23.6032 29.4967 22.8666 28.5334 22.8666H19.4667C18.5034 22.8666 17.7667 23.6599 17.7667 24.5666C17.7667 25.5299 18.5601 26.2666 19.4667 26.2666H28.5334Z" fill="white"/>
</g>
</svg>
