<svg width="48" height="48" viewBox="0 0 48 48" fill="none" xmlns="http://www.w3.org/2000/svg">
<rect width="48" height="48" rx="4" fill="#89C059"/>
<mask id="mask0_1518_28438" style="mask-type:luminance" maskUnits="userSpaceOnUse" x="0" y="0" width="48" height="48">
<rect width="48" height="48" rx="4" fill="white"/>
</mask>
<g mask="url(#mask0_1518_28438)">
<path fill-rule="evenodd" clip-rule="evenodd" d="M31.9333 7H16.0666C14.1966 7 12.6666 8.53 12.6666 10.4V37.6C12.6666 39.47 14.1966 41 16.0666 41H31.9333C33.8033 41 35.3333 39.47 35.3333 37.6V10.4C35.3333 8.53 33.8033 7 31.9333 7ZM24 39.8667C23.0366 39.8667 22.3 39.13 22.3 38.1667C22.3 37.2033 23.0366 36.4667 24 36.4667C24.9633 36.4667 25.7 37.2033 25.7 38.1667C25.7 39.13 24.9633 39.8667 24 39.8667ZM30.8 35.3333C31.4233 35.3333 31.9333 34.8233 31.9333 34.2V12.6667C31.9333 12.0433 31.4233 11.5333 30.8 11.5333H17.2C16.5766 11.5333 16.0666 12.0433 16.0666 12.6667V34.2C16.0666 34.8233 16.5766 35.3333 17.2 35.3333H30.8Z" fill="white"/>
</g>
</svg>
