<svg width="48" height="48" viewBox="0 0 48 48" fill="none" xmlns="http://www.w3.org/2000/svg">
<rect width="48" height="48" rx="4" fill="#C8CA58"/>
<mask id="mask0_1518_28470" style="mask-type:luminance" maskUnits="userSpaceOnUse" x="0" y="0" width="48" height="48">
<rect width="48" height="48" rx="4" fill="white"/>
</mask>
<g mask="url(#mask0_1518_28470)">
<path d="M34.3133 12.0433C31.3099 8.30333 28.8733 7 23.7166 7C21.3933 7 18.6166 7.90667 17.4833 8.13333C17.4833 7.51 16.9733 7 16.35 7H14.65H14.0833C13.46 7 12.95 7.51 12.95 8.13333V12.6667C12.95 13.29 13.46 13.8 14.0833 13.8H16.35C16.9733 13.8 17.4833 13.29 17.4833 12.6667H18.6733C19.58 12.6667 20.3166 13.4033 20.3166 14.31V14.3667C20.3166 15.33 21.0533 16.0667 22.0166 16.0667V25.1333C20.77 25.1333 19.75 26.1533 19.75 27.4V37.6C19.75 39.47 21.28 41 23.15 41H24.2833C26.1533 41 27.6833 39.47 27.6833 37.6V27.4C27.6833 26.1533 26.6633 25.1333 25.4166 25.1333V16.0667C26.38 16.0667 27.1166 14.82 27.1166 13.8567V13.8C27.1166 12.95 27.7966 12.27 28.6466 12.2133C30.9133 12.1 32.16 13.0067 32.7833 13.5167C33.1233 13.8 33.69 13.8567 34.03 13.5733C34.5966 13.2333 34.71 12.5533 34.3133 12.0433Z" fill="white"/>
</g>
</svg>
