<svg width="48" height="48" viewBox="0 0 48 48" fill="none" xmlns="http://www.w3.org/2000/svg">
<rect width="48" height="48" rx="4" fill="#F28B00"/>
<mask id="mask0_1518_28602" style="mask-type:luminance" maskUnits="userSpaceOnUse" x="0" y="0" width="48" height="48">
<rect width="48" height="48" rx="4" fill="white"/>
</mask>
<g mask="url(#mask0_1518_28602)">
<path fill-rule="evenodd" clip-rule="evenodd" d="M17.3619 7.12959H30.6381C31.5475 7.10567 32.4283 7.448 33.0828 8.07969C33.7373 8.71139 34.1107 9.57951 34.1191 10.4891V37.426C34.1013 39.3345 32.5467 40.871 30.6381 40.8665H17.3619C15.4533 40.871 13.8988 39.3345 13.881 37.426V10.4891C13.8894 9.57951 14.2627 8.71139 14.9173 8.07969C15.5718 7.448 16.4526 7.10567 17.3619 7.12959ZM26.4691 9.07245H21.531C21.3633 9.07245 21.2274 9.20836 21.2274 9.37602C21.2274 9.54368 21.3633 9.67959 21.531 9.67959H26.4691C26.6287 9.66169 26.7547 9.53568 26.7726 9.37602C26.7684 9.21016 26.6349 9.0767 26.4691 9.07245ZM25.9226 38.4582C25.8915 38.6518 25.7125 38.786 25.5179 38.7617H22.381C22.2151 38.7575 22.0817 38.624 22.0774 38.4582V37.0415C22.0774 36.8998 22.2393 36.6772 22.381 36.6772H25.5381C25.7468 36.6762 25.922 36.8339 25.9429 37.0415V38.4582H25.9226ZM32.0044 34.5569C32.0777 34.4874 32.1181 34.3901 32.1155 34.2891H32.0953V11.9058C32.1071 11.6783 31.9375 11.4819 31.7107 11.4605H16.2691C16.1563 11.4658 16.0503 11.5157 15.9743 11.5992C15.8984 11.6827 15.8588 11.793 15.8643 11.9058V34.2891C15.8609 34.394 15.904 34.4951 15.982 34.5653C16.0601 34.6355 16.1651 34.6678 16.2691 34.6534H31.731C31.8317 34.6615 31.9311 34.6264 32.0044 34.5569Z" fill="white"/>
</g>
</svg>
