<svg width="48" height="48" viewBox="0 0 48 48" fill="none" xmlns="http://www.w3.org/2000/svg">
<rect width="48" height="48" rx="4" fill="#D66EE0"/>
<mask id="mask0_1518_28492" style="mask-type:luminance" maskUnits="userSpaceOnUse" x="0" y="0" width="48" height="48">
<rect width="48" height="48" rx="4" fill="white"/>
</mask>
<g mask="url(#mask0_1518_28492)">
<path d="M14.4375 29.3125H21.3438C21.9281 29.3125 22.4062 28.8344 22.4062 28.25V12.3125C22.4062 11.1437 21.3438 10.1875 20.2812 10.1875H14.5969C13.9062 10.1875 13.375 10.7187 13.375 11.4094V27.1875V28.25C13.375 28.8344 13.8531 29.3125 14.4375 29.3125Z" fill="white"/>
<path d="M37.8125 13.375V30.375C37.8125 31.5438 36.8563 32.5 35.6875 32.5H12.3125C11.1438 32.5 10.1875 31.5438 10.1875 30.375V13.375C8.43438 13.375 7 14.8094 7 16.5625V32.5C7 34.2531 8.43438 35.6875 10.1875 35.6875H20.2812C20.8656 35.6875 21.3438 36.1656 21.3438 36.75C21.3438 37.3344 21.8219 37.8125 22.4062 37.8125H25.5938C26.1781 37.8125 26.6562 37.3344 26.6562 36.75C26.6562 36.1656 27.1344 35.6875 27.7188 35.6875H37.8125C39.5656 35.6875 41 34.2531 41 32.5V16.5625C41 14.8094 39.5656 13.375 37.8125 13.375Z" fill="white"/>
<path d="M26.6562 29.3125H33.4031C34.0938 29.3125 34.625 28.7812 34.625 28.0906V27.1875V11.25C34.625 10.6656 34.1469 10.1875 33.5625 10.1875H27.7188C26.6562 10.1875 25.5938 11.1437 25.5938 12.3125V28.25C25.5938 28.8344 26.0719 29.3125 26.6562 29.3125Z" fill="white"/>
</g>
</svg>
