<svg width="48" height="48" viewBox="0 0 48 48" fill="none" xmlns="http://www.w3.org/2000/svg">
<rect width="48" height="48" rx="4" fill="#5FCC64"/>
<mask id="mask0_1518_28476" style="mask-type:luminance" maskUnits="userSpaceOnUse" x="0" y="0" width="48" height="48">
<rect width="48" height="48" rx="4" fill="white"/>
</mask>
<g mask="url(#mask0_1518_28476)">
<path d="M31.0833 36.4668H11.8166C9.94663 36.4668 8.41663 37.9968 8.41663 39.8668V39.9235C8.41663 40.4901 8.92663 41.0001 9.49329 41.0001H33.4066C33.9733 41.0001 34.4833 40.4901 34.4833 39.9235V39.8668C34.4833 37.9968 32.9533 36.4668 31.0833 36.4668Z" fill="white"/>
<path fill-rule="evenodd" clip-rule="evenodd" d="M29.6666 10.1734L38.6766 18.56C39.13 19.0134 39.13 19.75 38.7894 20.2034L37.26 21.7334C36.1266 22.8667 34.4266 23.0934 33.0666 22.2434C31.7479 21.4091 30.672 21.4823 29.4627 21.5645C28.1256 21.6555 26.6253 21.7576 24.4533 20.6567C24 20.43 23.5466 20.94 23.7166 21.3934C24.7366 24.1133 26.38 28.3633 29.4966 32.16C29.78 32.5 29.4966 33.0667 29.0433 33.0667H13.6866C13.12 33.0667 12.6666 32.6695 12.5533 32.16C11.7033 27.6833 8.86996 8.47335 26.3233 8.47335C26.3233 8.47335 28.0233 6.54668 30.8 7.11335C31.1972 7.17002 31.3666 7.62335 31.14 7.96335L29.6666 10.1734ZM25.4166 14.9334C25.4166 15.8967 26.1533 16.6334 27.1166 16.6334C28.08 16.6334 28.8166 15.8967 28.8166 14.9334C28.8166 13.97 28.08 13.2334 27.1166 13.2334C26.1533 13.2334 25.4166 13.97 25.4166 14.9334Z" fill="white"/>
</g>
</svg>
