<svg width="48" height="48" viewBox="0 0 48 48" fill="none" xmlns="http://www.w3.org/2000/svg">
<rect width="48" height="48" rx="4" fill="#718DEB"/>
<mask id="mask0_1518_28494" style="mask-type:luminance" maskUnits="userSpaceOnUse" x="0" y="0" width="48" height="48">
<rect width="48" height="48" rx="4" fill="white"/>
</mask>
<g mask="url(#mask0_1518_28494)">
<path fill-rule="evenodd" clip-rule="evenodd" d="M25.8062 14.5999C27.7059 14.7412 29.5567 14.8788 31.2387 13.1969L32.2263 12.32C32.4457 12.1007 32.7747 12.1007 32.9941 12.32L36.0102 15.3362C36.229 15.5555 36.229 15.8845 36.0102 16.1039L35.1322 16.9813C33.4503 18.663 33.588 20.5137 33.7293 22.4133C33.8782 24.4156 34.0312 26.4722 32.0613 28.4421L20.9838 39.5195C19.7225 40.7808 17.6935 40.7808 16.4322 39.5195L12.5935 35.6808L8.75481 31.8421C7.49352 30.5808 7.49352 28.5517 8.75481 27.2905L19.7774 16.2679C21.7473 14.298 23.8038 14.4509 25.8062 14.5999ZM24.7677 31.1292L28.6064 27.2905C29.0451 26.8517 29.0451 26.1937 28.607 25.755L25.5354 22.684L22.4645 19.613C22.0258 19.1743 21.3677 19.1743 20.929 19.613L17.0903 23.4517C16.6516 23.8905 16.6516 24.5485 17.0903 24.9872L20.1613 28.0582L23.2322 31.1292C23.6709 31.5679 24.329 31.5679 24.7677 31.1292Z" fill="white"/>
<path d="M40.3968 10.1259L39.2451 8.9743L38.0935 7.82268C37.6548 7.38397 36.9968 7.38397 36.5581 7.82268L35.1322 9.24849C34.9134 9.46785 34.9134 9.79688 35.1322 10.0162L38.1484 13.0324C38.3677 13.2517 38.6968 13.2517 38.9161 13.0324L40.3419 11.6066C40.8355 11.2775 40.8355 10.5646 40.3968 10.1259Z" fill="white"/>
</g>
</svg>
