<svg width="48" height="48" viewBox="0 0 48 48" fill="none" xmlns="http://www.w3.org/2000/svg">
<rect width="48" height="48" rx="4" fill="#8ED363"/>
<mask id="mask0_1518_28540" style="mask-type:luminance" maskUnits="userSpaceOnUse" x="0" y="0" width="48" height="48">
<rect width="48" height="48" rx="4" fill="white"/>
</mask>
<g mask="url(#mask0_1518_28540)">
<path d="M18.5077 19.5537C16.4677 19.5537 14.8462 21.1752 14.8462 23.2152C14.8462 25.2552 16.4677 26.8768 18.5077 26.8768C20.5477 26.8768 22.1693 25.2552 22.1693 23.2152C22.1693 21.1752 20.5477 19.5537 18.5077 19.5537Z" fill="white"/>
<path fill-rule="evenodd" clip-rule="evenodd" d="M29.4923 31.0614H39.4308C40.32 31.0614 41 31.7414 41 32.6306V35.246C41 35.8214 40.5292 36.2921 39.9538 36.2921H38.9077C38.3323 36.2921 37.8615 35.8214 37.8615 35.246V34.1998H26.3538H24.2615H18.7692C12.7015 34.1998 7.62769 29.4398 7.52307 23.3721C7.41846 17.1998 12.4923 12.126 18.6646 12.2306C24.1046 12.3352 28.4979 16.4152 29.3354 21.646H30.5385C31.1138 21.646 31.5846 22.1167 31.5846 22.6921V25.8306C31.5846 26.406 31.1138 26.8767 30.5385 26.8767H29.4923V31.0614ZM11.7077 23.2152C11.7077 26.9814 14.7415 30.0152 18.5077 30.0152C22.2738 30.0152 25.3077 26.9814 25.3077 23.2152C25.3077 19.4491 22.2738 16.4152 18.5077 16.4152C14.7415 16.4152 11.7077 19.4491 11.7077 23.2152Z" fill="white"/>
</g>
</svg>
