<svg width="48" height="48" viewBox="0 0 48 48" fill="none" xmlns="http://www.w3.org/2000/svg">
<rect width="48" height="48" rx="4" fill="#F28B00"/>
<mask id="mask0_1518_28608" style="mask-type:luminance" maskUnits="userSpaceOnUse" x="0" y="0" width="48" height="48">
<rect width="48" height="48" rx="4" fill="white"/>
</mask>
<g mask="url(#mask0_1518_28608)">
<path fill-rule="evenodd" clip-rule="evenodd" d="M36.9737 28.8403H11.0577V28.8314C10.8787 28.8314 10.655 28.6524 10.655 28.4735V10.5787C10.655 10.1985 11.0353 10.0195 11.3932 10.0195H36.6382C37.0184 10.0195 37.3092 10.1985 37.3092 10.5787V28.4824C37.3074 28.6708 37.1616 28.8264 36.9737 28.8403ZM13.5987 12.668C13.4154 12.6727 13.2679 12.8202 13.2632 13.0035H13.2498V25.8653C13.2545 26.0486 13.402 26.1961 13.5853 26.2008H34.37C34.5534 26.1961 34.7009 26.0486 34.7056 25.8653V13.0035C34.7009 12.8202 34.5534 12.6727 34.37 12.668H13.5987Z" fill="white"/>
<path fill-rule="evenodd" clip-rule="evenodd" d="M37.3853 30.2316L40.6958 36.9421H40.6868C40.8012 37.1561 40.7993 37.4135 40.6818 37.6259C40.5644 37.8382 40.3473 37.9766 40.1053 37.9934H7.89474C7.64915 37.9832 7.42623 37.847 7.30516 37.6331C7.18409 37.4192 7.18204 37.1579 7.29974 36.9421L10.6103 30.2316C10.6676 30.1202 10.7766 30.0447 10.9011 30.0303H37.0945C37.2189 30.0447 37.3279 30.1202 37.3853 30.2316ZM20.6358 36.5261H27.3911C27.5253 36.5261 27.5924 36.3247 27.5253 36.2129L26.5634 34.334C26.4954 34.2402 26.3884 34.1826 26.2726 34.1774H21.7318C21.6074 34.1918 21.4984 34.2673 21.4411 34.3787L20.4792 36.2129C20.4486 36.2745 20.4487 36.347 20.4794 36.4085C20.5102 36.4701 20.5681 36.5136 20.6358 36.5261Z" fill="white"/>
</g>
</svg>
