<svg width="48" height="48" viewBox="0 0 48 48" fill="none" xmlns="http://www.w3.org/2000/svg">
<rect width="48" height="48" rx="4" fill="#49BCD3"/>
<mask id="mask0_1518_28482" style="mask-type:luminance" maskUnits="userSpaceOnUse" x="0" y="0" width="48" height="48">
<rect width="48" height="48" rx="4" fill="white"/>
</mask>
<g mask="url(#mask0_1518_28482)">
<path d="M39.1049 27.5114C37.8229 28.1246 36.3738 28.459 34.8688 28.459C33.0295 28.459 31.3574 27.9573 29.8524 27.1213C29.6852 27.0104 29.4623 27.0104 29.2951 27.1213C27.8459 28.0131 26.118 28.459 24.2787 28.459C22.4393 28.459 20.7672 27.9573 19.2623 27.1213C19.0951 27.0104 18.8721 27.0104 18.7049 27.1213C17.2557 28.0131 15.5279 28.459 13.6885 28.459C12.1836 28.459 10.7344 28.1246 9.45245 27.5114C9.11802 27.3442 8.67212 27.6229 8.67212 28.0131V34.7573C8.67212 36.095 9.45245 37.2655 10.6787 37.8229C13.4656 39.0491 16.4754 39.9409 19.6524 40.3874C20.3213 40.4983 20.9344 39.9409 20.9344 39.2727V35.0923C20.9344 33.2524 22.4393 31.8038 24.2229 31.8038H24.2787C26.118 31.8038 27.5672 33.3087 27.5672 35.0923V39.2727C27.5672 39.9409 28.1803 40.4431 28.8492 40.3874C31.9705 39.9409 34.9803 39.0497 37.8229 37.8229C39.0492 37.2655 39.8301 36.095 39.8301 34.7573V28.0131C39.8852 27.6229 39.4393 27.3442 39.1049 27.5114Z" fill="white"/>
<path d="M13.6885 25.1148C15.6951 25.1148 17.423 24.2787 18.5377 22.941C18.7607 22.6623 19.1508 22.6623 19.3738 22.941C20.4885 24.2787 22.2721 25.1148 24.223 25.1148C26.2295 25.1148 27.9574 24.2787 29.0721 22.941C29.2951 22.6623 29.6858 22.6623 29.9082 22.941C31.023 24.2787 32.8066 25.1148 34.7574 25.1148C37.8792 25.1148 40.4984 22.941 40.8328 20.2099C40.8885 19.8197 40.7213 19.4295 40.3869 19.2066L26.2852 8.05904C25.0596 7.1115 23.3311 7.1115 22.1612 8.05904L7.9481 19.2066C7.61367 19.4295 7.5022 19.8197 7.5022 20.2099C7.94754 22.9967 10.5672 25.1148 13.6885 25.1148Z" fill="white"/>
</g>
</svg>
