<svg width="48" height="48" viewBox="0 0 48 48" fill="none" xmlns="http://www.w3.org/2000/svg">
<rect width="48" height="48" rx="4" fill="#34BECD"/>
<mask id="mask0_1518_27625" style="mask-type:luminance" maskUnits="userSpaceOnUse" x="0" y="0" width="48" height="48">
<rect width="48" height="48" rx="4" fill="white"/>
</mask>
<g mask="url(#mask0_1518_27625)">
<path d="M21.6311 21.91H12.2416C11.6848 21.91 11.1965 22.3977 11.1965 22.9551V30.9668H8.04508C7.4877 30.9668 7 31.4545 7 32.0119V39.6759C7 40.2332 7.4877 40.7209 8.04508 40.7209H18.4959C19.0533 40.7209 19.541 40.2332 19.541 39.6759V32.0119C19.541 31.4545 19.0533 30.9668 18.4959 30.9668H15.3512V26.0904H32.092V30.9668H28.9634C28.4055 30.9668 27.9184 31.4545 27.9184 32.0119V39.6759C27.9184 40.2332 28.4055 40.7209 28.9634 40.7209H39.4143C39.9716 40.7209 40.4593 40.2332 40.4593 39.6759V32.0119C40.4593 31.4545 39.9716 30.9668 39.4143 30.9668H36.2567V22.9551C36.2567 22.3977 35.7696 21.91 35.2116 21.91H25.8115V17.0324H28.9384C29.4957 17.0324 29.9834 16.5447 29.9834 15.9873V8.3234C29.9834 7.76603 29.4957 7.27832 28.9384 7.27832H18.4875C17.9296 7.27832 17.4425 7.76603 17.4425 8.3234V15.9873C17.4425 16.5447 17.9296 17.0324 18.4875 17.0324H21.6311V21.91Z" fill="white"/>
</g>
</svg>
