<svg width="48" height="48" viewBox="0 0 48 48" fill="none" xmlns="http://www.w3.org/2000/svg">
<rect width="48" height="48" rx="4" fill="#47CFC9"/>
<mask id="mask0_1518_27627" style="mask-type:luminance" maskUnits="userSpaceOnUse" x="0" y="0" width="48" height="48">
<rect width="48" height="48" rx="4" fill="white"/>
</mask>
<g mask="url(#mask0_1518_27627)">
<path d="M40.4426 8.11439C40.4426 7.44553 40.0524 7.27832 39.8295 7.27832H25.4492C24.3901 7.27832 24.3901 8.33734 24.3901 8.33734V10.3439C24.3901 11.2357 24.9475 11.4586 25.2262 11.4586H35.259C35.6492 11.5144 36.318 11.7931 36.318 12.9078V22.3832C36.3737 22.6619 36.541 23.275 37.377 23.275H39.6065C39.6065 23.275 40.4983 23.275 40.4983 22.216V8.11439H40.4426Z" fill="white"/>
<path d="M31.7475 16.8097C31.8033 16.1408 31.3574 15.9736 31.1344 15.9736H16.7541C15.6951 15.9736 15.6951 17.0326 15.6951 17.0326V19.0392C15.6951 19.931 16.2524 20.154 16.5311 20.154H26.5639C26.9541 20.2097 27.6229 20.4884 27.6229 21.6031V31.0786C27.6787 31.3572 27.8459 31.9704 28.682 31.9704H30.9115C30.9115 31.9704 31.8033 31.9704 31.8033 30.9113V16.8097H31.7475Z" fill="white"/>
<path d="M9.34098 39.8853C9.45246 39.9967 10.0098 40.4426 10.7902 39.6623L18.0361 32.4164C18.259 32.1935 18.8721 31.7476 18.8721 32.6951V39.8295C18.9279 40.1082 19.0951 40.7213 19.9311 40.7213H22.1607C22.1607 40.7213 23.0525 40.7213 23.0525 39.6623V25.5607C23.0525 24.8918 22.6623 24.7803 22.4393 24.7246H8.05902C7 24.7246 7 25.7836 7 25.7836V27.7902C7 28.682 7.55738 28.9049 7.83607 28.9049H14.5246C14.8033 28.9049 15.6393 28.9607 14.859 29.741L7.8918 36.8197C7.8918 36.8197 7.05574 37.6 7.78033 38.2689L9.34098 39.8853Z" fill="white"/>
</g>
</svg>
