<svg width="48" height="48" viewBox="0 0 48 48" fill="none" xmlns="http://www.w3.org/2000/svg">
<rect width="48" height="48" rx="4" fill="#00AFA0"/>
<mask id="mask0_1518_27631" style="mask-type:luminance" maskUnits="userSpaceOnUse" x="0" y="0" width="48" height="48">
<rect width="48" height="48" rx="4" fill="white"/>
</mask>
<g mask="url(#mask0_1518_27631)">
<path fill-rule="evenodd" clip-rule="evenodd" d="M23.1775 7.87786C23.6162 7.43915 24.3291 7.43915 24.8226 7.87786L40.0678 21.9166C40.8904 22.6843 40.342 24.0004 39.2452 24.0004H37.1613V37.1617C37.1613 38.9714 35.6807 40.4521 33.871 40.4521H14.1291C12.3194 40.4521 10.8388 38.9714 10.8388 37.1617V24.0004H8.75489C7.65812 24.0004 7.10973 22.6843 7.93231 21.9166L23.1775 7.87786ZM16.4613 31.697C16.6083 31.7189 16.7392 31.7384 16.8162 31.623C17.4742 30.4714 18.6807 29.8133 19.613 29.3198C19.9968 29.1553 20.1065 28.8811 19.8872 28.5521C19.3388 27.7295 19.0646 26.7424 19.0646 25.7004C19.0646 23.8359 19.8323 22.3553 21.0936 21.3682C20.6001 20.6004 19.8323 20.1069 18.7904 20.1069C17.0355 20.1069 16.0484 21.5327 16.0484 23.1779C16.0484 24.0553 16.3226 24.823 16.9259 25.3714C17.2549 25.7004 17.5291 26.0843 17.5291 26.523C17.5291 26.9617 17.3646 27.3456 16.3775 27.7843C14.9517 28.3875 13.6355 29.0456 13.5807 30.3617C13.5807 31.2392 14.1291 31.6779 14.9517 31.6779H16.2678C16.3332 31.6779 16.3987 31.6876 16.4612 31.697L16.4613 31.697ZM28.1678 35.5166H24.0001H19.8323C18.9001 35.5166 18.1872 34.6392 18.1872 33.6521C18.242 32.1714 19.7775 31.4037 21.3678 30.6908C22.4646 30.1972 22.6291 29.8133 22.6291 29.3198C22.6291 28.8262 22.3001 28.3875 21.971 28.0585C21.313 27.4553 20.9839 26.6327 20.9839 25.6456C20.9839 23.8359 22.0807 22.2456 24.0549 22.2456C26.0291 22.2456 27.1259 23.8359 27.1259 25.6456C27.1259 26.6327 26.7968 27.4553 26.1388 28.0585C25.7549 28.3875 25.4807 28.8262 25.4807 29.3198C25.4807 29.7585 25.6452 30.1972 26.742 30.6908C28.3323 31.4037 29.8678 32.1714 29.9226 33.6521C29.813 34.6392 29.1001 35.5166 28.1678 35.5166ZM31.7323 31.6779H33.0484C33.871 31.6779 34.4194 31.2392 34.4742 30.4714C34.4742 29.1836 33.1616 28.5783 31.7693 27.9364C31.7388 27.9223 31.7081 27.9081 31.6775 27.894C30.6904 27.4553 30.5259 27.0714 30.5259 26.6327C30.5259 26.194 30.8001 25.8101 31.1291 25.4811C31.7323 24.9327 32.0065 24.165 32.0065 23.2875C32.0065 21.6424 31.0742 20.2166 29.2646 20.2166C28.1678 20.2166 27.4001 20.7101 26.9613 21.4779C28.1678 22.4101 28.9355 23.9456 28.9355 25.7553C28.9355 26.7972 28.6613 27.7843 28.113 28.6069C27.8936 28.9359 28.0033 29.3198 28.3323 29.4843C28.4347 29.5355 28.5395 29.5867 28.6458 29.6387C29.5638 30.0874 30.5941 30.5909 31.1839 31.623C31.2609 31.7384 31.3918 31.7189 31.5388 31.697C31.6014 31.6876 31.6668 31.6779 31.7323 31.6779Z" fill="white"/>
</g>
</svg>
