<svg width="26" height="26" viewBox="0 0 26 26" fill="none" xmlns="http://www.w3.org/2000/svg">
<path fill-rule="evenodd" clip-rule="evenodd" d="M25 4C25 2.9 24.1 2 23 2H3C1.9 2 1 2.9 1 4V22C1 23.1 1.9 24 3 24H23C24.1 24 25 23.1 25 22V4ZM9.5 17.5C9.5 17.8 9.3 18 9 18H4.5C4.2 18 4 17.8 4 17.5V15.5C4 15.2 4.2 15 4.5 15H9C9.3 15 9.5 15.2 9.5 15.5V17.5ZM9.5 12.5C9.5 12.8 9.3 13 9 13H4.5C4.2 13 4 12.8 4 12.5V10.5C4 10.2 4.2 10 4.5 10H9C9.3 10 9.5 10.2 9.5 10.5V12.5ZM9.5 7.5C9.5 7.8 9.3 8 9 8H4.5C4.2 8 4 7.8 4 7.5V5.5C4 5.2 4.2 5 4.5 5H9C9.3 5 9.5 5.2 9.5 5.5V7.5ZM22 20.5C22 20.8 21.8 21 21.5 21H12C11.7 21 11.5 20.8 11.5 20.5V5.5C11.5 5.2 11.7 5 12 5H21.5C21.8 5 22 5.2 22 5.5V20.5Z" fill="#706E6B"/>
</svg>
