<svg width="26" height="26" viewBox="0 0 26 26" fill="none" xmlns="http://www.w3.org/2000/svg">
<path fill-rule="evenodd" clip-rule="evenodd" d="M24.25 19H22V16.75C22 16.35 21.65 16 21.25 16H19.75C19.35 16 19 16.35 19 16.75V19H16.75C16.35 19 16 19.35 16 19.75V21.25C16 21.65 16.35 22 16.75 22H19V24.25C19 24.65 19.35 25 19.75 25H21.25C21.65 25 22 24.65 22 24.25V22H24.25C24.65 22 25 21.65 25 21.25V19.75C25 19.35 24.65 19 24.25 19ZM17 14.75C17 14.35 17.35 14 17.75 14H19V3C19 1.9 18.1 1 17 1H3C1.9 1 1 1.9 1 3V17C1 18.1 1.9 19 3 19H14V17.75C14 17.35 14.35 17 14.75 17H17V14.75ZM8 5.5C8 5.8 7.8 6 7.5 6H4.5C4.2 6 4 5.8 4 5.5V4.5C4 4.2 4.2 4 4.5 4H7.5C7.8 4 8 4.2 8 4.5V5.5ZM14 13.5C14 13.8 13.8 14 13.5 14H4.5C4.2 14 4 13.8 4 13.5V12.5C4 12.2 4.2 12 4.5 12H13.5C13.8 12 14 12.2 14 12.5V13.5ZM16 9.5C16 9.8 15.8 10 15.5 10H4.5C4.2 10 4 9.8 4 9.5V8.5C4 8.2 4.2 8 4.5 8H15.5C15.8 8 16 8.2 16 8.5V9.5Z" fill="#706E6B"/>
</svg>
