<svg width="26" height="26" viewBox="0 0 26 26" fill="none" xmlns="http://www.w3.org/2000/svg">
<path fill-rule="evenodd" clip-rule="evenodd" d="M1 18.95V19.05C1 19.45 1.3 19.75 1.7 19.75C1.9 19.75 2.05 19.7 2.2 19.55C2.2 19.55 7.25 14.1 13.45 15.75V21.25C13.45 21.65 13.75 21.95 14.15 21.95C14.3 21.95 14.4 21.9 14.5 21.85L24.55 13.3C24.7 13.15 24.8 12.95 24.8 12.75C24.8 12.55 24.7 12.35 24.6 12.25L14.55 4.1C14.45 4.05 14.3 4 14.15 4C13.75 4 13.45 4.3 13.45 4.7V9.85C13.4 9.85 3.5 8.35 1 18.95H1Z" fill="#706E6B"/>
</svg>
