<svg width="26" height="26" viewBox="0 0 26 26" fill="none" xmlns="http://www.w3.org/2000/svg">
<path fill-rule="evenodd" clip-rule="evenodd" d="M1 23C1 24.1 1.9 25 3 25H24.2C24.65 25 25 24.65 25 24.2V22.8C25 22.35 24.65 22 24.2 22H4.75C4.35 22 4 21.65 4 21.25V2.3C4 1.85 3.65 1.5 3.2 1.5H1.8C1.35 1.5 1 1.85 1 2.3V23ZM24.85 7.3C24.85 6.45 24.2 5.8 23.35 5.8C22.9 5.8 22.55 6 22.25 6.25L17.95 10.55L15 7.75L14.95 7.7L14.85 7.6C14.8 7.6 14.8 7.55 14.75 7.55C14.7 7.5 14.65 7.5 14.6 7.45C14.55 7.45 14.55 7.4 14.5 7.4C14.45 7.4 14.4 7.35 14.3 7.35C14.25 7.35 14.25 7.35 14.2 7.3C14.1 7.3 14 7.25 13.9 7.25C13.8 7.25 13.7 7.25 13.6 7.3C13.55 7.3 13.55 7.3 13.5 7.35C13.45 7.35 13.35 7.4 13.3 7.4C13.25 7.4 13.25 7.45 13.2 7.45C13.15 7.5 13.1 7.5 13.05 7.55C13 7.55 13 7.6 12.95 7.65C12.9 7.7 12.85 7.7 12.8 7.75L7.1 13.5C6.8 13.8 6.6 14.15 6.6 14.6C6.6 15.45 7.25 16.1 8.1 16.1C8.45 16.1 8.8 15.95 9.05 15.75L13.95 10.9L16.8 13.7C16.85 13.75 16.9 13.75 16.95 13.8L17.05 13.9C17.1 13.95 17.15 13.95 17.2 14C17.25 14 17.25 14.05 17.3 14.05C17.35 14.1 17.45 14.1 17.5 14.1C17.55 14.1 17.55 14.1 17.6 14.15C17.7 14.15 17.8 14.2 17.9 14.2C18 14.2 18.1 14.2 18.2 14.15H18.3C18.35 14.15 18.4 14.1 18.5 14.1C18.55 14.1 18.55 14.05 18.6 14.05C18.65 14.05 18.7 14 18.75 13.95C18.8 13.95 18.8 13.9 18.85 13.9L18.9 13.85L18.95 13.8L19 13.75L24.4 8.4C24.65 8.1 24.85 7.75 24.85 7.3Z" fill="#706E6B"/>
</svg>
