<svg width="26" height="26" viewBox="0 0 26 26" fill="none" xmlns="http://www.w3.org/2000/svg">
<path fill-rule="evenodd" clip-rule="evenodd" d="M19.05 16.9L24.8 22.65C25.05 22.95 25.05 23.45 24.75 23.75L23.7 24.8C23.4 25.1 22.95 25.1 22.65 24.8L16.9 19.05C15.25 20.25 13.2 21 11 21C5.5 21 1 16.5 1 11C1 5.5 5.5 1 11 1C16.5 1 21 5.5 21 11C21 13.2 20.25 15.25 19.05 16.9ZM4 11C4 14.85 7.15 18 11 18C14.85 18 18 14.85 18 11C18 7.15 14.85 4 11 4C7.15 4 4 7.15 4 11ZM9.5 9.5H6.5C6.2 9.5 6 9.7 6 10V12C6 12.3 6.2 12.5 6.5 12.5H9.5H15.5C15.8 12.5 16 12.3 16 12V10C16 9.7 15.8 9.5 15.5 9.5H9.5Z" fill="#706E6B"/>
</svg>
