<svg width="26" height="26" viewBox="0 0 26 26" fill="none" xmlns="http://www.w3.org/2000/svg">
<path fill-rule="evenodd" clip-rule="evenodd" d="M12.2258 1.54535C8.43669 1.92567 5.43248 4.90902 5.02577 8.69535C4.81569 11.3009 5.89993 13.8433 7.92577 15.4954C8.52859 15.9621 8.87976 16.6829 8.87577 17.4454C8.8756 17.9846 9.09316 18.501 9.47912 18.8775C9.86507 19.2541 10.3867 19.4588 10.9258 19.4454H15.4258C15.9562 19.4454 16.4649 19.2346 16.84 18.8596C17.2151 18.4845 17.4258 17.9758 17.4258 17.4454C17.4218 16.6829 17.7729 15.9621 18.3758 15.4954C20.2198 14.0038 21.3016 11.7669 21.3258 9.39535C21.3758 4.74535 17.1758 1.04535 12.2258 1.54535ZM16.6758 21.7954H9.67577C9.25275 21.7945 8.9022 22.1232 8.87577 22.5454C8.87577 23.8432 9.9279 24.8954 11.2258 24.8954H15.1258C15.749 24.8954 16.3468 24.6478 16.7875 24.2071C17.2282 23.7663 17.4758 23.1686 17.4758 22.5454C17.4493 22.1232 17.0988 21.7945 16.6758 21.7954Z" fill="#706E6B"/>
</svg>
