<svg width="26" height="26" viewBox="0 0 26 26" fill="none" xmlns="http://www.w3.org/2000/svg">
<path fill-rule="evenodd" clip-rule="evenodd" d="M5.25 10.5H2.75C2.35 10.5 2 10.85 2 11.25V22.75C2 23.15 2.35 23.5 2.75 23.5H4C5.1 23.5 6 22.6 6 21.5V11.25C6 10.85 5.65 10.5 5.25 10.5ZM22 11H19C17.9 11 17 10.1 17 9V4C17 2.9 16.1 2 15 2H13.75C13.35 2 13 2.35 13 2.75V5.75C13 8.4 11.15 11 8.75 11C8.35 11 8 11.35 8 11.75V21.75C8 22.15 8.3 22.5 8.7 22.5C12.1 22.65 13.25 24 16.8 24C20.55 24 24 23.6 24 19.25V13C24 11.9 23.1 11 22 11Z" fill="#706E6B"/>
</svg>
