<svg width="26" height="26" viewBox="0 0 26 26" fill="none" xmlns="http://www.w3.org/2000/svg">
<path fill-rule="evenodd" clip-rule="evenodd" d="M13.6045 20.7545L12.5545 20.6045C12.5545 20.6045 11.8545 20.4545 11.5045 20.3045C11.3045 20.2545 11.0545 20.3045 10.9045 20.4545L10.6545 20.7045C9.2045 22.1545 6.8545 22.3045 5.3545 21.0045C3.6545 19.5545 3.6045 16.9545 5.1545 15.4045L8.9545 11.6045C9.4545 11.1045 10.0545 10.8045 10.6545 10.6045C11.4545 10.4045 12.3045 10.4545 13.0545 10.7545C13.5045 10.9545 13.9545 11.2045 14.3545 11.6045C14.5545 11.8045 14.7045 12.0045 14.8545 12.2545C15.0545 12.6045 15.5045 12.6545 15.7545 12.3545L17.1545 10.9545C17.3545 10.7545 17.3545 10.4545 17.2045 10.2045C17.0045 9.9045 16.7545 9.6545 16.5045 9.4045C16.1545 9.0545 15.7545 8.7045 15.3045 8.4545C14.6045 8.0045 13.8045 7.7045 12.9545 7.5545C11.4045 7.2545 9.7045 7.5045 8.3045 8.2545C7.7545 8.5545 7.2045 8.9545 6.7545 9.4045L3.1045 13.0545C0.454503 15.7045 0.254503 20.0045 2.8045 22.7045C5.4545 25.6045 9.9545 25.6545 12.7045 22.9045L13.9545 21.6545C14.3045 21.4045 14.0545 20.8045 13.6045 20.7545ZM22.8045 2.8045C20.0545 0.254503 15.7545 0.454503 13.1545 3.1045L12.0045 4.2045C11.6545 4.5545 11.9045 5.1545 12.3545 5.2045C13.0545 5.2545 13.7545 5.4045 14.4545 5.6045C14.6545 5.6545 14.9045 5.6045 15.0545 5.4545L15.3045 5.2045C16.7545 3.7545 19.1045 3.6045 20.6045 4.9045C22.3045 6.3545 22.3545 8.9545 20.8045 10.5045L17.0045 14.3045C16.5045 14.8045 15.9045 15.1045 15.3045 15.3045C14.5045 15.5045 13.6545 15.4545 12.9045 15.1545C12.4545 14.9545 12.0045 14.7045 11.6045 14.3045C11.4045 14.1045 11.2545 13.9045 11.1045 13.6545C10.9045 13.3045 10.4545 13.2545 10.2045 13.5545L8.8045 14.9545C8.6045 15.1545 8.6045 15.4545 8.7545 15.7045C8.9545 16.0045 9.2045 16.2545 9.4545 16.5045C9.8045 16.8545 10.2545 17.2045 10.6545 17.4545C11.3545 17.9045 12.1545 18.2045 12.9545 18.3545C14.5045 18.6545 16.2045 18.4045 17.6045 17.6545C18.1545 17.3545 18.7045 16.9545 19.1545 16.5045L22.9545 12.7045C25.7545 9.9545 25.6545 5.4545 22.8045 2.8045Z" fill="#706E6B"/>
</svg>
