<svg width="26" height="26" viewBox="0 0 26 26" fill="none" xmlns="http://www.w3.org/2000/svg">
<path fill-rule="evenodd" clip-rule="evenodd" d="M25.45 15.6C25.45 8.4 20 2.5 13.25 2.5C6.5 2.5 1 8.4 1 15.6C1 17.3 1.3 19 1.9 20.6C2.6 22.55 4.35 23.95 6.45 24C7.05 24 7.55 23.5 7.55 22.9V16.65C7.55 16.05 7.05 15.55 6.45 15.55C5.35 15.55 4.3 15.95 3.5 16.55C3.45 16.2 3.45 15.9 3.45 15.55C3.45 9.65 7.85 4.9 13.25 4.9C18.65 4.9 23.05 9.7 23.05 15.55C23.05 15.9 23.05 16.25 23 16.55C22.2 15.9 21.2 15.5 20.05 15.5C19.45 15.5 18.95 16 18.95 16.6V22.8C18.95 23.4 19.45 23.9 20.05 23.9C21.25 23.9 22.5 23.45 23.3 22.55C24.15 21.65 24.55 20.65 24.9 19.45C25.25 18.25 25.45 16.95 25.45 15.6Z" fill="#706E6B"/>
</svg>
