<svg width="26" height="26" viewBox="0 0 26 26" fill="none" xmlns="http://www.w3.org/2000/svg">
<path fill-rule="evenodd" clip-rule="evenodd" d="M9 19.25C9 19.65 9.35 20 9.75 20H11.05C11 19.65 11 19.35 11 19C11 18.3 11.1 17.65 11.25 17H9.75C9.35 17 9 17.35 9 17.75V19.25ZM14.25 7H9.75C9.35 7 9 7.35 9 7.75V9.25C9 9.65 9.35 10 9.75 10H14.25C14.65 10 15 9.65 15 9.25V7.75C15 7.35 14.65 7 14.25 7ZM1.75 5H22.25C22.65 5 23 4.65 23 4.25V1.75C23 1.35 22.65 1 22.25 1H1.75C1.35 1 1 1.35 1 1.75V4.25C1 4.65 1.35 5 1.75 5ZM22.25 10C22.65 10 23 9.65 23 9.25V7.75C23 7.35 22.65 7 22.25 7H17.75C17.35 7 17 7.35 17 7.75V9.25C17 9.65 17.35 10 17.75 10H22.25ZM9 14.25C9 14.65 9.35 15 9.75 15H12.05C12.7 13.85 13.65 12.9 14.75 12.2C14.6 12.05 14.45 12 14.25 12H9.75C9.35 12 9 12.35 9 12.75V14.25ZM6.25 7H1.75C1.35 7 1 7.35 1 7.75V9.25C1 9.65 1.35 10 1.75 10H6.25C6.65 10 7 9.65 7 9.25V7.75C7 7.35 6.65 7 6.25 7ZM11.55 22H9.75C9.35 22 9 22.35 9 22.75V24.25C9 24.65 9.35 25 9.75 25H13.7C12.75 24.2 12.05 23.15 11.55 22ZM6.25 17H1.75C1.35 17 1 17.35 1 17.75V19.25C1 19.65 1.35 20 1.75 20H6.25C6.65 20 7 19.65 7 19.25V17.75C7 17.35 6.65 17 6.25 17ZM6.25 22H1.75C1.35 22 1 22.35 1 22.75V24.25C1 24.65 1.35 25 1.75 25H6.25C6.65 25 7 24.65 7 24.25V22.75C7 22.35 6.65 22 6.25 22ZM6.25 12H1.75C1.35 12 1 12.35 1 12.75V14.25C1 14.65 1.35 15 1.75 15H6.25C6.65 15 7 14.65 7 14.25V12.75C7 12.35 6.65 12 6.25 12ZM18.95 13.05C15.65 13.05 12.95 15.75 12.95 19.05C12.95 22.35 15.65 25.05 18.95 25.05C22.25 25.05 24.95 22.35 24.95 19.05C24.95 15.75 22.25 13.05 18.95 13.05ZM22.9 17.3L18.1 22.15C18 22.25 17.85 22.25 17.75 22.15L14.95 19.35C14.85 19.25 14.85 19.1 14.95 19L16 17.95C16.1 17.85 16.25 17.85 16.35 17.95L17.8 19.4C17.85 19.45 18 19.45 18.05 19.4L21.5 15.9C21.6 15.8 21.75 15.8 21.85 15.9L22.9 16.95C23.05 17.05 23.05 17.2 22.9 17.3Z" fill="#706E6B"/>
</svg>
