<svg width="26" height="26" viewBox="0 0 26 26" fill="none" xmlns="http://www.w3.org/2000/svg">
<path fill-rule="evenodd" clip-rule="evenodd" d="M5.5 9.50784H7.5C7.8 9.50784 8 9.35785 8 9.05785V9.00784C8 6.15785 10.45 3.80784 13.35 4.00784C16 4.20784 18 6.50784 18 9.20784V9.05785C18 9.35785 18.2 9.50784 18.5 9.50784H20.5C20.8 9.50784 21 9.35785 21 9.05785V9.00784C21 4.45784 17.2 0.807845 12.6 1.00784C8.35 1.20784 5.1 4.80785 5 9.05785C5.05 9.30785 5.25 9.50784 5.5 9.50784ZM5 9.05785V9.25784V9.05785ZM23 13.5078C23 12.4078 22.1 11.5078 21 11.5078H5C3.9 11.5078 3 12.4078 3 13.5078V23.0078C3 24.1078 3.9 25.0078 5 25.0078H21C22.1 25.0078 23 24.1078 23 23.0078V13.5078ZM15.3 21.3578C15.4 21.6578 15.15 22.0078 14.8 22.0078H11.15C10.8 22.0078 10.6 21.7078 10.65 21.3578L11.55 18.3578C10.8 17.8578 10.35 16.9578 10.5 15.9578C10.7 15.0078 11.45 14.2578 12.45 14.0578C14.05 13.7578 15.45 14.9078 15.45 16.4078C15.45 17.2078 15.05 17.9578 14.4 18.3578L15.3 21.3578Z" fill="#706E6B"/>
</svg>
