<svg width="26" height="26" viewBox="0 0 26 26" fill="none" xmlns="http://www.w3.org/2000/svg">
<path fill-rule="evenodd" clip-rule="evenodd" d="M21.5 1H6.75C5.45 1 4.35 2.2 4.35 3.4V4.2H3.55C2.7 4.2 2 4.9 2 5.8C2 6.7 2.7 7.4 3.55 7.4H4.35V11.4H3.55C2.7 11.4 2 12.1 2 13C2 13.9 2.7 14.6 3.55 14.6H4.35V18.6H3.55C2.7 18.6 2 19.3 2 20.2C2 21.1 2.7 21.8 3.55 21.8H4.35V22.6C4.35 23.8 5.45 25 6.75 25H21.5C22.8 25 24 23.8 24 22.5V3.3C24 1.95 22.8 1 21.5 1ZM20.1 17.1L19 18.25C18.75 18.5 18.4 18.65 18.1 18.6C15.5 18.45 13.1 17.25 11.35 15.5C9.6 13.75 8.45 11.25 8.3 8.6C8.3 8.25 8.4 7.9 8.65 7.7L9.75 6.6C10.25 6.1 11.1 6.1 11.55 6.7L12.55 8C12.9 8.45 12.9 9.05 12.6 9.5L11.75 10.75C11.65 10.9 11.65 11.15 11.8 11.25L13.6 13.3L15.6 15.15C15.75 15.3 15.95 15.3 16.1 15.2L17.3 14.3C17.75 14 18.35 14 18.8 14.35L20.05 15.4C20.6 15.7 20.6 16.6 20.1 17.1Z" fill="#706E6B"/>
</svg>
