<svg width="26" height="26" viewBox="0 0 26 26" fill="none" xmlns="http://www.w3.org/2000/svg">
<path fill-rule="evenodd" clip-rule="evenodd" d="M23.6 16.3C23.6 16.35 23.6 16.35 23.55 16.4C23.4 16.85 23.3 17.3 23.1 17.7C22.9 18.15 22.7 18.65 22.45 19.05C21.95 19.95 21.35 20.75 20.65 21.45C19.95 22.15 19.15 22.8 18.3 23.3C17.45 23.8 16.5 24.25 15.5 24.5C14.5 24.8 13.45 24.9 12.4 24.9C6.15 25 1 19.85 1 13.55C1 7.25 6.15 2.1 12.45 2.1C14.6 2.1 16.6 2.7 18.3 3.7C19.15 4.2 19.9 4.8 20.55 5.45C20.75 5.6 20.9 5.75 21.05 5.95C21.45 6.25 21.7 6.05 21.7 5.55V1.8C21.7 1.4 22.1 1 22.5 1H24.1C24.55 1 24.9 1.4 24.95 1.8V11.6C24.95 12 24.65 12.3 24.25 12.3H14.45C14 12.3 13.7 12 13.7 11.55V9.9C13.7 9.45 14.1 9.1 14.5 9.1H18.25C18.55 9.1 18.85 9 18.95 8.85C17.5 6.85 15.15 5.55 12.45 5.55C8 5.55 4.45 9.15 4.45 13.55C4.45 17.95 8.05 21.55 12.45 21.55C15.95 21.55 18.9 19.35 20 16.25C20 16.25 20.15 15.55 20.7 15.55H23C23.35 15.55 23.65 15.8 23.65 16.15C23.6 16.2 23.6 16.25 23.6 16.3Z" fill="#706E6B"/>
</svg>
