<svg width="40" height="40" viewBox="0 0 40 40" fill="none" xmlns="http://www.w3.org/2000/svg">
<rect width="40" height="40" rx="20" fill="#E6717C"/>
<mask id="mask0_1518_28052" style="mask-type:luminance" maskUnits="userSpaceOnUse" x="0" y="0" width="40" height="40">
<rect width="40" height="40" rx="20" fill="white"/>
</mask>
<g mask="url(#mask0_1518_28052)">
<path fill-rule="evenodd" clip-rule="evenodd" d="M23.5 12H29.75C30.15 12 30.5 12.35 30.5 12.75V14.25C30.5 14.65 30.15 15 29.75 15H10.25C9.85 15 9.5 14.65 9.5 14.25V12.75C9.5 12.35 9.85 12 10.25 12H16.5V10C16.5 8.9 17.4 8 18.5 8H21.5C22.6 8 23.5 8.9 23.5 10V12ZM19 10C18.7 10 18.5 10.2 18.5 10.5V12H21.5V10.5C21.5 10.2 21.3 10 21 10H19Z" fill="white"/>
<path fill-rule="evenodd" clip-rule="evenodd" d="M27.75 17H12.25C11.85 17 11.5 17.35 11.5 17.75V29.5C11.5 30.9 12.6 32 14 32H26C27.4 32 28.5 30.9 28.5 29.5V17.75C28.5 17.35 28.15 17 27.75 17ZM18.5 28C18.5 28.3 18.3 28.5 18 28.5H17C16.7 28.5 16.5 28.3 16.5 28V21C16.5 20.7 16.7 20.5 17 20.5H18C18.3 20.5 18.5 20.7 18.5 21V28ZM23 28.5C23.3 28.5 23.5 28.3 23.5 28V21C23.5 20.7 23.3 20.5 23 20.5H22C21.7 20.5 21.5 20.7 21.5 21V28C21.5 28.3 21.7 28.5 22 28.5H23Z" fill="white"/>
</g>
</svg>
