<svg width="40" height="40" viewBox="0 0 40 40" fill="none" xmlns="http://www.w3.org/2000/svg">
<rect width="40" height="40" rx="20" fill="#8B9AE3"/>
<mask id="mask0_1518_28054" style="mask-type:luminance" maskUnits="userSpaceOnUse" x="0" y="0" width="40" height="40">
<rect width="40" height="40" rx="20" fill="white"/>
</mask>
<g mask="url(#mask0_1518_28054)">
<path d="M11.2727 14.5455C13.0802 14.5455 14.5455 13.0802 14.5455 11.2727C14.5455 9.46525 13.0802 8 11.2727 8C9.46525 8 8 9.46525 8 11.2727C8 13.0802 9.46525 14.5455 11.2727 14.5455Z" fill="white"/>
<path d="M11.2727 23.2727C13.0802 23.2727 14.5455 21.8075 14.5455 20C14.5455 18.1925 13.0802 16.7273 11.2727 16.7273C9.46525 16.7273 8 18.1925 8 20C8 21.8075 9.46525 23.2727 11.2727 23.2727Z" fill="white"/>
<path d="M20 14.5455C21.8075 14.5455 23.2727 13.0802 23.2727 11.2727C23.2727 9.46525 21.8075 8 20 8C18.1925 8 16.7273 9.46525 16.7273 11.2727C16.7273 13.0802 18.1925 14.5455 20 14.5455Z" fill="white"/>
<path d="M28.7273 14.5455C30.5348 14.5455 32 13.0802 32 11.2727C32 9.46525 30.5348 8 28.7273 8C26.9198 8 25.4546 9.46525 25.4546 11.2727C25.4546 13.0802 26.9198 14.5455 28.7273 14.5455Z" fill="white"/>
<path d="M20 23.2727C21.8075 23.2727 23.2727 21.8075 23.2727 20C23.2727 18.1925 21.8075 16.7273 20 16.7273C18.1925 16.7273 16.7273 18.1925 16.7273 20C16.7273 21.8075 18.1925 23.2727 20 23.2727Z" fill="white"/>
<path d="M28.7273 23.2727C30.5348 23.2727 32 21.8075 32 20C32 18.1925 30.5348 16.7273 28.7273 16.7273C26.9198 16.7273 25.4546 18.1925 25.4546 20C25.4546 21.8075 26.9198 23.2727 28.7273 23.2727Z" fill="white"/>
<path d="M11.2727 32C13.0802 32 14.5455 30.5347 14.5455 28.7273C14.5455 26.9198 13.0802 25.4545 11.2727 25.4545C9.46525 25.4545 8 26.9198 8 28.7273C8 30.5347 9.46525 32 11.2727 32Z" fill="white"/>
<path d="M20 32C21.8075 32 23.2727 30.5347 23.2727 28.7273C23.2727 26.9198 21.8075 25.4545 20 25.4545C18.1925 25.4545 16.7273 26.9198 16.7273 28.7273C16.7273 30.5347 18.1925 32 20 32Z" fill="white"/>
<path d="M28.7273 32C30.5348 32 32 30.5347 32 28.7273C32 26.9198 30.5348 25.4545 28.7273 25.4545C26.9198 25.4545 25.4546 26.9198 25.4546 28.7273C25.4546 30.5347 26.9198 32 28.7273 32Z" fill="white"/>
</g>
</svg>
