<svg width="26" height="26" viewBox="0 0 26 26" fill="none" xmlns="http://www.w3.org/2000/svg">
<path fill-rule="evenodd" clip-rule="evenodd" d="M12.6 21.0055C12.45 21.0055 12.25 20.9555 12.05 20.8555C11.75 20.7055 11.5 20.3555 11.45 20.0555L8.6 8.50545L6.15 14.0055C6 14.4555 5.6 14.7055 5.15 14.7055H1.75C1.35 14.7055 1 14.4055 1 14.0055V13.2555C1 12.8555 1.35 12.5055 1.75 12.5055H4.35L7.8 4.65545C8 4.25545 8.45 3.95545 8.95 4.00545C9.45 4.05545 9.85 4.35545 9.95 4.85545L12.9 16.5555L16.85 8.00545C17.05 7.55545 17.5 7.30545 17.95 7.35545C18.35 7.40545 18.75 7.70545 18.95 8.10545L20.9 12.5555H24.3C24.7 12.5555 25.05 12.9055 25.05 13.3055V14.0055C25.05 14.4055 24.7 14.7555 24.3 14.7555H20.2C19.75 14.7555 19.35 14.5055 19.15 14.1055L17.9 11.2555L13.7 20.4055C13.45 20.7555 13.1 21.0055 12.6 21.0055Z" fill="#706E6B"/>
</svg>
