<svg width="26" height="26" viewBox="0 0 26 26" fill="none" xmlns="http://www.w3.org/2000/svg">
<path fill-rule="evenodd" clip-rule="evenodd" d="M5.35 18.05V5.65C4.05 5.65 3 6.7 3 7.95V22.65C3 23.95 4.05 25 5.35 25H17C18.3 25 19.35 23.95 19.35 22.7H10C7.45 22.7 5.35 22.7 5.35 18.05ZM23.2 7.95H19.3C18 7.95 16.95 6.9 16.95 5.65V1.75C17 1.35 16.65 1 16.2 1H10C8.7 1 7.65 2.05 7.65 3.3V18C7.65 19.3 8.7 20.3 10 20.3H21.65C22.95 20.3 24 19.25 24 18V8.75C24 8.3 23.65 7.95 23.2 7.95ZM23.85 4.7L20.25 1.15C20.15 1.05 20.05 1 19.9 1C19.6 1 19.35 1.25 19.35 1.55V4.1C19.35 4.95 20.05 5.65 20.9 5.65H23.45C23.75 5.65 24 5.4 24 5.1C24 4.95 23.95 4.85 23.85 4.7Z" fill="#706E6B"/>
</svg>
