<svg width="26" height="26" viewBox="0 0 26 26" fill="none" xmlns="http://www.w3.org/2000/svg">
<path d="M20.7388 2.66455H14.9102C14.5184 1.8319 13.6857 1.24414 12.7551 1.24414C11.4816 1.24414 10.4041 2.32169 10.4041 3.59516C10.4041 4.86863 11.4816 5.94618 12.7551 5.94618C13.7347 5.94618 14.5673 5.35843 14.9102 4.52577H20.7388C21.7673 4.52577 22.6 5.35843 22.6 6.387V10.1584C22.6 11.187 21.7673 12.0197 20.7388 12.0197H17.898V9.17883C17.898 8.39516 17.2612 7.75843 16.4776 7.75843H8.98367C8.2 7.75843 7.56327 8.39516 7.56327 9.17883V12.0197H4.77143C2.71429 12.0197 1 13.685 1 15.7911V19.5625C1 21.6196 2.66531 23.3339 4.77143 23.3339H10.6C10.9429 24.1666 11.7755 24.7543 12.7551 24.7543C14.0286 24.7543 15.1061 23.6768 15.1061 22.4033C15.1061 21.1299 14.0286 20.0523 12.7551 20.0523C11.7755 20.0523 10.9429 20.6401 10.6 21.4727H4.77143C3.74286 21.4727 2.9102 20.6401 2.9102 19.6115V15.8401C2.9102 14.8115 3.74286 13.9788 4.77143 13.9788H7.61225V16.8197C7.61225 17.6033 8.24898 18.2401 9.03265 18.2401H16.5755C17.3592 18.2401 17.9959 17.6033 17.9959 16.8197V13.9788H20.8367C22.8939 13.9788 24.6082 12.3135 24.6082 10.2074V6.43598C24.5102 4.32985 22.7959 2.66455 20.7388 2.66455Z" fill="#706E6B"/>
</svg>
