<svg width="26" height="26" viewBox="0 0 26 26" fill="none" xmlns="http://www.w3.org/2000/svg">
<path fill-rule="evenodd" clip-rule="evenodd" d="M24.9529 5.2898C23.9029 3.2398 21.2529 -0.5602 16.3529 1.6898C13.3029 3.0898 11.6029 3.8898 11.6029 3.8898L7.20289 5.7898C5.95289 6.3898 3.25289 5.5398 1.70289 4.9898C1.25289 4.8398 0.852893 5.2898 1.05289 5.7398C2.10289 7.7898 4.75289 11.5898 9.65289 9.3398C12.7029 7.9398 18.8029 5.2898 18.8029 5.2898C20.0529 4.6898 22.7529 5.5398 24.3029 6.0898C24.7529 6.1898 25.1529 5.7398 24.9529 5.2898ZM14.4029 11.6898C13.8529 11.9898 11.6529 12.9898 11.6529 12.9898L9.45289 13.9398C8.35289 14.5398 6.00289 13.7398 4.60289 13.1898C4.20289 12.9898 3.85289 13.4898 4.05289 13.8898C4.95289 15.8898 7.30289 19.4898 11.6029 17.2898C14.3029 15.9398 16.5529 15.0398 16.5529 15.0398C17.6529 14.4398 20.0029 15.2398 21.4029 15.7898C21.8029 15.9398 22.1529 15.4898 21.9529 15.0398C21.0529 13.0898 18.7029 9.4898 14.4029 11.6898ZM12.8029 20.5398C12.3529 20.7898 11.6029 21.2398 11.6029 21.2398C10.7529 21.7898 9.00289 21.0898 7.95289 20.5898C7.65289 20.4398 7.40289 20.8898 7.55289 21.2898C8.20289 23.0898 9.95289 26.3398 13.2029 24.3398C14.4029 23.5898 14.4029 23.6398 14.4029 23.6398C15.3029 23.1898 17.0029 23.7898 18.0529 24.2898C18.3529 24.4398 18.6029 23.9898 18.4529 23.5898C17.8029 21.7898 16.1529 18.6898 12.8029 20.5398Z" fill="#706E6B"/>
</svg>
