<svg width="26" height="26" viewBox="0 0 26 26" fill="none" xmlns="http://www.w3.org/2000/svg">
<path fill-rule="evenodd" clip-rule="evenodd" d="M20.45 12C19.95 15.95 16.75 18.5 14 18.5H8C5 18.5 1.5 15.5 1.5 11V4C1.5 3.45 1.95 3 2.5 3H22C23.65 3 25 4.35 25 6V9C25 10.65 23.65 12 22 12H20.45ZM20.3 20C20.65 20 21 20.35 21 20.7V20.75C21 22 20 23 18.8 23H3.2C2 23 1 22 1 20.75V20.7C1 20.35 1.35 20 1.7 20H20.3ZM20.5 5.5V9.5H21.5C22.05 9.5 22.5 9.05 22.5 8.5V6.5C22.5 5.95 22.05 5.5 21.5 5.5H20.5Z" fill="#706E6B"/>
</svg>
