<svg width="26" height="26" viewBox="0 0 26 26" fill="none" xmlns="http://www.w3.org/2000/svg">
<path fill-rule="evenodd" clip-rule="evenodd" d="M15.1 1.60039C14.7 1.30039 14.15 1.15039 13.5 1.15039C13.35 1.15039 13.2 1.15039 13.05 1.20039C11.3 1.45039 10.15 3.10039 9.45 4.60039C9.15 5.30039 8.85 6.05039 8.6 6.80039C8.45 7.15039 8.35 7.50039 8.2 7.85039C8.2 7.90039 8 8.60039 7.95 8.60039H6.15C5.9 8.60039 5.7 8.80039 5.7 9.05039C5.7 9.30039 5.9 9.50039 6.15 9.50039H7.7L6.8 13.2504C6 17.3504 4.85 22.1004 4.55 22.9504C4.25 23.8004 3.85 24.2504 3.3 24.2504C3.2 24.2504 3.1 24.2504 3.05 24.2004C3 24.1504 2.95 24.1004 2.95 24.0004C2.95 23.9504 3 23.8004 3.1 23.6504C3.2 23.5004 3.25 23.3004 3.25 23.1504C3.25 22.8004 3.15 22.5504 2.9 22.3504C2.7 22.1504 2.45 22.0504 2.15 22.0504C1.85 22.0504 1.6 22.1504 1.35 22.3504C1.1 22.5504 1 22.8504 1 23.2004C1 23.7004 1.2 24.1004 1.6 24.4504C2 24.8004 2.5 24.9504 3.15 24.9504C4.2 24.9504 5.2 24.4504 5.9 23.6504C6.35 23.1504 6.65 22.5504 6.95 21.9004C7.85 19.9504 8.3 17.8004 8.8 15.7504C9.3 13.6504 9.8 11.5504 10.25 9.40039H12C12.25 9.40039 12.45 9.20039 12.45 8.95039C12.45 8.70039 12.25 8.50039 12 8.50039H10.45C11.3 5.20039 12.3 2.95039 12.5 2.60039C12.85 2.05039 13.2 1.75039 13.55 1.75039C13.7 1.75039 13.8 1.80039 13.85 1.85039C13.9 1.95039 13.9 2.00039 13.9 2.05039C13.9 2.10039 13.85 2.20039 13.75 2.40039C13.65 2.60039 13.6 2.80039 13.6 3.00039C13.6 3.30039 13.7 3.50039 13.9 3.70039C14.1 3.90039 14.35 4.00039 14.65 4.00039C14.95 4.00039 15.2 3.90039 15.4 3.70039C15.6 3.50039 15.7 3.20039 15.7 2.85039C15.75 2.30039 15.55 1.90039 15.1 1.60039ZM23.05 11.6004C23.7 11.6004 24.95 11.1004 24.95 9.40039C24.95 7.75039 23.75 7.65039 23.4 7.65039C22.65 7.65039 21.95 8.20039 21.3 9.30039C20.65 10.4504 19.95 11.6504 19.95 11.6504C19.8 10.8504 19.65 10.2004 19.6 9.90039C19.45 9.20039 18.65 7.70039 17 7.70039C15.35 7.70039 13.85 8.65039 13.85 8.65039C13.55 8.85039 13.4 9.15039 13.4 9.50039C13.4 10.0504 13.85 10.5004 14.4 10.5004C14.55 10.5004 14.7 10.4504 14.85 10.4004C14.85 10.4004 16.1 9.70039 16.35 10.4004C16.45 10.6004 16.5 10.8504 16.55 11.1004C16.85 12.2004 17.15 13.4504 17.4 14.6004L16.3 16.1504C16.3 16.1504 15.1 15.7004 14.45 15.7004C13.8 15.7004 12.55 16.2004 12.55 17.9004C12.55 19.6004 13.75 19.6504 14.1 19.6504C14.85 19.6504 15.55 19.1004 16.2 18.0004C16.85 16.8504 17.55 15.6504 17.55 15.6504C17.75 16.6504 17.95 17.5004 18.05 17.8504C18.45 19.0004 19.4 19.7004 20.7 19.7004C20.7 19.7004 22 19.7004 23.55 18.8504C23.9 18.7004 24.2 18.3504 24.2 17.9004C24.2 17.3504 23.75 16.9004 23.2 16.9004C23.05 16.9004 22.9 16.9504 22.75 17.0004C22.75 17.0004 21.65 17.6004 21.3 17.1504C21.05 16.6504 20.8 15.9504 20.65 15.1504C20.5 14.4004 20.3 13.5504 20.15 12.7004L21.25 11.1004C21.2 11.1504 22.45 11.6004 23.05 11.6004Z" fill="#706E6B"/>
</svg>
