<svg width="26" height="26" viewBox="0 0 26 26" fill="none" xmlns="http://www.w3.org/2000/svg">
<path fill-rule="evenodd" clip-rule="evenodd" d="M4.10005 24.7998L19.85 9.0498C20.3 8.5998 21 8.9498 21 9.4998V18.5998C21 19.1498 21.45 19.5998 22 19.5998H24.1C24.65 19.5998 25.1 19.1498 25.1 18.5998L25 2.0498C25 1.4998 24.55 1.0498 24 1.0498H7.40005C6.85005 1.0498 6.40005 1.4998 6.40005 2.0498V4.0498C6.40005 4.5998 6.85005 5.0498 7.40005 5.0498H16.5C17.1 5.0998 17.45 5.7998 17 6.2498L1.30005 21.9498C0.900046 22.3498 0.850046 22.9498 1.25005 23.2998L2.65005 24.6998C3.05005 25.0998 3.70005 25.1998 4.10005 24.7998Z" fill="#706E6B"/>
</svg>
