<svg width="26" height="26" viewBox="0 0 26 26" fill="none" xmlns="http://www.w3.org/2000/svg">
<path fill-rule="evenodd" clip-rule="evenodd" d="M1.7 14.025H18.3C18.75 14.025 18.95 14.575 18.65 14.875L13.85 19.675C13.55 19.975 13.55 20.425 13.85 20.725L14.95 21.825C15.25 22.125 15.7 22.125 16 21.825L24.75 13.025C25.05 12.725 25.05 12.275 24.75 11.975L16 3.225C15.7 2.925 15.25 2.925 14.95 3.225L13.9 4.275C13.6 4.575 13.6 5.025 13.9 5.325L18.7 10.125C19 10.475 18.8 11.025 18.35 11.025H1.75C1.35 11.025 1 11.325 1 11.725V13.225C1 13.625 1.3 14.025 1.7 14.025Z" fill="#706E6B"/>
</svg>
