<svg width="26" height="26" viewBox="0 0 26 26" fill="none" xmlns="http://www.w3.org/2000/svg">
<path fill-rule="evenodd" clip-rule="evenodd" d="M14.1819 1C14.4819 1 14.6819 1.2 14.6819 1.5V4.3L16.3319 2.65C16.5319 2.45 16.8319 2.45 17.0319 2.65L17.7319 3.35C17.9319 3.55 17.9319 3.85 17.7319 4.05L14.6819 7.1V11.1466L18.2524 9.03143L19.2819 4.95C19.3319 4.65 19.5819 4.5 19.8819 4.6L20.8319 4.85C21.1319 4.9 21.2819 5.15 21.1819 5.45L20.6139 7.63246L23.0319 6.2C23.2819 6.05 23.5819 6.1 23.7319 6.4L24.2319 7.3C24.3819 7.55 24.3319 7.85 24.0319 8L21.5746 9.44948L23.8819 10.05C24.1819 10.1 24.3319 10.35 24.2319 10.65L23.9819 11.6C23.9319 11.9 23.6819 12.05 23.3819 11.95L19.2032 10.8483L15.641 12.9496L19.2406 15.082L23.3819 14C23.6819 13.95 23.9319 14.05 23.9819 14.35L24.2319 15.3C24.2819 15.6 24.1819 15.85 23.8819 15.9L21.6167 16.4896L24.0819 17.95C24.3319 18.1 24.4319 18.4 24.2819 18.65L23.7819 19.5C23.6319 19.75 23.3319 19.85 23.0819 19.7L20.5905 18.2278L21.1819 20.5C21.2319 20.8 21.1319 21.05 20.8319 21.1L19.8819 21.35C19.5819 21.4 19.3319 21.3 19.2819 21L18.1865 16.8073L14.6819 14.7364V18.85L17.7319 21.9C17.9319 22.1 17.9319 22.4 17.7319 22.6L17.0319 23.3C16.8319 23.5 16.5319 23.5 16.3319 23.3L14.6819 21.65V24.45C14.6819 24.75 14.4819 24.95 14.1819 24.95H13.1819C12.8819 24.95 12.6819 24.75 12.6819 24.45V21.65L11.0319 23.3C10.8319 23.5 10.5319 23.5 10.3319 23.3L9.63191 22.6C9.43191 22.4 9.43191 22.1 9.63191 21.9L12.6819 18.85V14.6951L9.14625 16.7807L8.08191 21C8.03191 21.3 7.78191 21.45 7.48191 21.35L6.53191 21.1C6.23191 21.05 6.08191 20.8 6.18191 20.5L6.78788 18.1718L4.28191 19.65C4.03191 19.8 3.73191 19.75 3.58191 19.45L3.08191 18.6C2.93191 18.35 2.98191 18.05 3.28191 17.9L5.6885 16.4743L3.48191 15.9C3.18191 15.85 3.03191 15.6 3.13191 15.3L3.38191 14.35C3.43191 14.05 3.68191 13.9 3.98191 14L8.05334 15.0734L11.6482 12.9437L8.11641 10.8568L3.93191 11.95C3.63191 12 3.38191 11.9 3.33191 11.6L3.08191 10.65C3.03191 10.35 3.13191 10.1 3.43191 10.05L5.73619 9.45026L3.28191 8C3.03191 7.85 2.93191 7.55 3.08191 7.3L3.63191 6.45C3.78191 6.2 4.08191 6.1 4.33191 6.25L6.70622 7.65655L6.13191 5.45C6.08191 5.15 6.18191 4.9 6.48191 4.85L7.43191 4.6C7.73191 4.55 7.98191 4.65 8.03191 4.95L9.11126 9.08131L12.6819 11.1966V7.1L9.63191 4.05C9.43191 3.85 9.43191 3.55 9.63191 3.35L10.3319 2.65C10.5319 2.45 10.8319 2.45 11.0319 2.65L12.6819 4.3V1.5C12.6819 1.2 12.8819 1 13.1819 1H14.1819Z" fill="#706E6B"/>
</svg>
