<svg width="26" height="26" viewBox="0 0 26 26" fill="none" xmlns="http://www.w3.org/2000/svg">
<path fill-rule="evenodd" clip-rule="evenodd" d="M23 4.45C23 2.55 18.5155 1 13 1C7.48454 1 3 2.55 3 4.45V5.65C3 7.55 7.48454 9.1 13 9.1C18.5155 9.1 23 7.55 23 5.65V4.45ZM3 8.45C3 9.95 7.48454 11.15 13 11.15C18.5155 11.15 23 9.95 23 8.45V10.9C23 12.8 18.5155 14.35 13 14.35C7.48454 14.35 3 12.8 3 10.9V8.45ZM13 16.4C7.48454 16.4 3 15.2 3 13.7V16.2C3 18.1 7.48454 19.6 13 19.6C18.5155 19.6 23 18.05 23 16.15V13.7C23 15.2 18.5155 16.4 13 16.4ZM13 21.7C7.48454 21.7 3 20.5 3 19V21.45C3 23.35 7.48454 24.9 13 24.9C18.5155 24.9 23 23.35 23 21.45V19C23 20.5 18.5155 21.7 13 21.7Z" fill="#706E6B"/>
</svg>
