<svg width="26" height="26" viewBox="0 0 26 26" fill="none" xmlns="http://www.w3.org/2000/svg">
<path fill-rule="evenodd" clip-rule="evenodd" d="M21.5 24.5H18.85C18.7 23.55 18.6 22.7 18.6 21.95H18.55C17.3 23.95 15.25 24.95 12.45 24.95C10.05 24.95 8.2 24.15 6.9 22.5C5.6 20.85 5 18.7 5 16.1C5 14.4 5.3 12.9 5.95 11.55C6.6 10.2 7.5 9.1 8.7 8.35C9.9 7.55 11.3 7.15 12.9 7.15C15.2 7.15 17.05 7.9 18.45 9.35V1H21.25V20.8C21.25 22 21.35 23.25 21.5 24.5ZM18.4 17.25V11.9C17.75 11.05 17 10.45 16.15 10C15.3 9.6 14.35 9.4 13.25 9.4C11.6 9.4 10.3 10 9.35 11.25C8.4 12.5 7.95 14.1 7.95 16.05C7.95 18.1 8.4 19.7 9.3 20.9C10.2 22.1 11.5 22.7 13.1 22.7C14.7 22.7 16 22.2 16.95 21.15C17.95 20.15 18.4 18.85 18.4 17.25Z" fill="#706E6B"/>
</svg>
