<svg width="26" height="26" viewBox="0 0 26 26" fill="none" xmlns="http://www.w3.org/2000/svg">
<path fill-rule="evenodd" clip-rule="evenodd" d="M23.15 9.85H2.85005C2.40005 9.85 2.05005 10.2 2.05005 10.65V22.4C2.05005 23.7 3.10005 24.75 4.40005 24.75H21.6C22.9 24.75 23.95 23.7 23.95 22.4V10.65C23.95 10.2 23.6 9.85 23.15 9.85ZM9.10005 20.8C9.10005 21.25 8.75005 21.6 8.30005 21.6H6.75005C6.30005 21.6 5.95005 21.25 5.95005 20.8V19.25C5.95005 18.8 6.30005 18.45 6.75005 18.45H8.30005C8.75005 18.45 9.10005 18.8 9.10005 19.25V20.8ZM14.55 20.8C14.55 21.25 14.2 21.6 13.75 21.6H12.2C11.75 21.6 11.4 21.25 11.4 20.8V19.25C11.4 18.8 11.75 18.45 12.2 18.45H13.75C14.2 18.45 14.55 18.8 14.55 19.25V20.8ZM14.55 15.35C14.55 15.8 14.2 16.15 13.75 16.15H12.2C11.75 16.15 11.4 15.8 11.4 15.35V13.8C11.4 13.35 11.75 13 12.2 13H13.75C14.2 13 14.55 13.35 14.55 13.8V15.35ZM20.05 15.35C20.05 15.8 19.7 16.15 19.25 16.15H17.7C17.25 16.15 16.9 15.8 16.9 15.35V13.8C16.9 13.35 17.25 13 17.7 13H19.25C19.7 13 20.05 13.35 20.05 13.8V15.35ZM21.6 3.6H19.65V2.8C19.65 1.95 18.95 1.25 18.1 1.25C17.25 1.25 16.55 1.95 16.55 2.8V3.6H9.50005V2.8C9.50005 1.95 8.80005 1.25 7.95005 1.25C7.10005 1.25 6.40005 1.95 6.40005 2.8V3.6H4.40005C3.10005 3.6 2.05005 4.65 2.05005 5.95V6.75C2.05005 7.2 2.40005 7.55 2.85005 7.55H23.2C23.65 7.55 24 7.2 24 6.75V5.95C23.9501 4.65 22.9 3.6 21.6 3.6Z" fill="#706E6B"/>
</svg>
