<svg width="26" height="26" viewBox="0 0 26 26" fill="none" xmlns="http://www.w3.org/2000/svg">
<path fill-rule="evenodd" clip-rule="evenodd" d="M21.8 3.4H19.8V2.6C19.8 1.7 19.1 1 18.2 1C17.3 1 16.6 1.7 16.6 2.6V3.4H9.40005V2.6C9.40005 1.7 8.70005 1 7.80005 1C6.90005 1 6.20005 1.7 6.20005 2.6V3.4H4.20005C2.90005 3.4 1.80005 4.5 1.80005 5.8V6.6C1.80005 7.05 2.15005 7.4 2.60005 7.4H23.4C23.85 7.4 24.2 7.05 24.2 6.6V5.8C24.2 4.5 23.1 3.4 21.8 3.4ZM23.4 9.8H2.60005C2.15005 9.8 1.80005 10.15 1.80005 10.6V22.6C1.80005 23.9 2.90005 25 4.20005 25H21.8C23.1 25 24.2 23.9 24.2 22.6V10.6C24.2 10.15 23.85 9.8 23.4 9.8ZM13 23.35C9.70005 23.35 7.05005 20.65 7.05005 17.4C7.05005 14.1 9.75005 11.45 13 11.45C16.25 11.45 18.95 14.15 18.95 17.4C18.95 20.7 16.3 23.35 13 23.35ZM13.6 17.15V14.6C13.6 14.4 13.4 14.2 13.2 14.2H12.8C12.6 14.2 12.4 14.4 12.4 14.6V17.4C12.4 17.55 12.45 17.7 12.6 17.8L14.5 19.7C14.65 19.85 14.9 19.85 15.05 19.7L15.35 19.4C15.5 19.25 15.5 19 15.35 18.85L13.6 17.15Z" fill="#706E6B"/>
</svg>
