<svg width="26" height="26" viewBox="0 0 26 26" fill="none" xmlns="http://www.w3.org/2000/svg">
<path fill-rule="evenodd" clip-rule="evenodd" d="M22 3.5H19.5V2.5C19.5 1.7 18.85 1 18 1C17.2 1 16.5 1.65 16.5 2.5V3.5H9.5V2.5C9.5 1.7 8.85 1 8 1C7.2 1 6.5 1.65 6.5 2.5V3.5H4C2.9 3.5 2 4.4 2 5.5V6.75C2 7.15 2.35 7.5 2.75 7.5H23.25C23.65 7.5 24 7.15 24 6.75V5.5C24 4.4 23.1 3.5 22 3.5ZM23.25 10H2.75C2.35 10 2 10.35 2 10.75V23C2 24.1 2.9 25 4 25H22C23.1 25 24 24.1 24 23V10.75C24 10.35 23.65 10 23.25 10ZM14.5 21V21.1C14.5 21.5 14 22 13.5 22C13 22 12.5 21.5 12.5 21V16L11.75 16.8C11.6 16.95 11.45 17 11.25 17C10.85 17 10.5 16.65 10.5 16.25C10.5 16.05 10.6 15.85 10.75 15.7L12.7 13.75C12.9 13.55 13.15 13.45 13.45 13.45C14 13.45 14.5 13.9 14.5 14.45V21Z" fill="#706E6B"/>
</svg>
