<svg width="26" height="26" viewBox="0 0 26 26" fill="none" xmlns="http://www.w3.org/2000/svg">
<path fill-rule="evenodd" clip-rule="evenodd" d="M24 3H2C1.45 3 1 3.45 1 4V17C1 17.55 1.45 18 2 18H10.1C10.6 20.85 13.05 23 16 23C18.95 23 21.45 20.85 21.9 18H24C24.55 18 25 17.55 25 17V4C25 3.45 24.55 3 24 3ZM19.7 19.3L18.3 20.7L16 18.4L13.7 20.7L12.3 19.3L14.6 17L12.3 14.7L13.7 13.3L16 15.6L18.3 13.3L19.7 14.7L17.4 17L19.7 19.3ZM23 16H21.9C21.4 13.15 18.95 11 16 11C13.05 11 10.55 13.15 10.1 16H3V5H23V16Z" fill="#706E6B"/>
</svg>
