<svg width="26" height="26" viewBox="0 0 26 26" fill="none" xmlns="http://www.w3.org/2000/svg">
<path fill-rule="evenodd" clip-rule="evenodd" d="M22 2H4C2.9 2 2 2.9 2 4V22C2 23.1 2.9 24 4 24H22C23.1 24 24 23.1 24 22V4C24 2.9 23.1 2 22 2ZM6 7C6 6.7 6.2 6.5 6.5 6.5H11.5C11.8 6.5 12 6.7 12 7V12C12 12.3 11.8 12.5 11.5 12.5H6.5C6.2 12.5 6 12.3 6 12V7ZM18 20C18 20.3 17.8 20.5 17.5 20.5H6.5C6.2 20.5 6 20.3 6 20V19C6 18.7 6.2 18.5 6.5 18.5H17.5C17.8 18.5 18 18.7 18 19V20ZM20 16C20 16.3 19.8 16.5 19.5 16.5H6.5C6.2 16.5 6 16.3 6 16V15C6 14.7 6.2 14.5 6.5 14.5H19.5C19.8 14.5 20 14.7 20 15V16ZM20 12C20 12.3 19.8 12.5 19.5 12.5H14.5C14.2 12.5 14 12.3 14 12V11C14 10.7 14.2 10.5 14.5 10.5H19.5C19.8 10.5 20 10.7 20 11V12ZM20 8C20 8.3 19.8 8.5 19.5 8.5H14.5C14.2 8.5 14 8.3 14 8V7C14 6.7 14.2 6.5 14.5 6.5H19.5C19.8 6.5 20 6.7 20 7V8Z" fill="#706E6B"/>
</svg>
