<svg width="26" height="26" viewBox="0 0 26 26" fill="none" xmlns="http://www.w3.org/2000/svg">
<path fill-rule="evenodd" clip-rule="evenodd" d="M16.5 22H15C14.7 22 14.5 21.8 14.5 21.5V20.5C14.5 20.2 14.3 20 14 20H12C11.7 20 11.5 20.2 11.5 20.5V21.5C11.5 21.8 11.3 22 11 22H9.5C8.4 22 7.5 22.9 7.5 24V24.25C7.5 24.65 7.85 25 8.25 25H17.75C18.15 25 18.5 24.65 18.5 24.25V24C18.5 22.9 17.6 22 16.5 22ZM23 1H3C1.9 1 1 1.9 1 3V16C1 17.1 1.9 18 3 18H23C24.1 18 25 17.1 25 16V3C25 1.9 24.1 1 23 1ZM4 14.25V4.75C4 4.35 4.35 4 4.75 4H7.75V15H4.75C4.35 15 4 14.65 4 14.25ZM22 14.25C22 14.65 21.65 15 21.25 15H10.75V4H21.25C21.65 4 22 4.35 22 4.75V14.25Z" fill="#706E6B"/>
</svg>
