<svg width="26" height="26" viewBox="0 0 26 26" fill="none" xmlns="http://www.w3.org/2000/svg">
<path fill-rule="evenodd" clip-rule="evenodd" d="M21.95 9.25C21.95 10.35 21.6 11.4 21 12.25L23.15 14.45C24.3 13.05 24.95 11.25 24.95 9.3C24.95 4.7 21.2 1 16.65 1C14.7 1 12.9 1.65 11.5 2.75L13.65 4.95C14.5 4.35 15.55 4 16.65 4C19.55 4 21.9 6.35 21.95 9.25ZM24.25 18.95L21.2 16.5C20.5 15.95 19.5 15.9 18.8 16.45L16.2 18.35C15.9 18.6 15.45 18.55 15.15 18.25L11.25 14.75L7.75002 10.85C7.45002 10.55 7.45002 10.15 7.65002 9.8L9.55002 7.2C10.1 6.5 10.05 5.5 9.50002 4.8L7.05002 1.75C6.30002 0.85 4.95002 0.75 4.10002 1.6L1.50002 4.2C1.10002 4.6 0.900024 5.15 0.900024 5.7C1.15002 10.8 3.45002 15.65 6.85002 19.05C10.25 22.45 15.1 24.75 20.2 25C20.75 25.05 21.3 24.8 21.7 24.4L24.3 21.8C25.25 21.05 25.2 19.65 24.25 18.95ZM16.7 11.45C17.9427 11.45 18.95 10.4426 18.95 9.2C18.95 7.95736 17.9427 6.95 16.7 6.95C15.4574 6.95 14.45 7.95736 14.45 9.2C14.45 10.4426 15.4574 11.45 16.7 11.45Z" fill="#706E6B"/>
</svg>
