<svg width="26" height="26" viewBox="0 0 26 26" fill="none" xmlns="http://www.w3.org/2000/svg">
<path fill-rule="evenodd" clip-rule="evenodd" d="M2.05005 21.5501H24C24.45 21.5501 24.8 21.9001 24.8 22.3501V23.9001C24.8 24.3501 24.45 24.7001 24 24.7001H2.05005C1.60005 24.7001 1.25005 24.3501 1.25005 23.9001V22.3501C1.25005 21.9001 1.60005 21.5501 2.05005 21.5501ZM2.05005 14.5001H24C24.45 14.5001 24.8 14.8501 24.8 15.3001V16.8501C24.8 17.3001 24.45 17.6501 24 17.6501H2.05005C1.60005 17.6501 1.25005 17.3001 1.25005 16.8501V15.3001C1.25005 14.8501 1.60005 14.5001 2.05005 14.5001ZM16 7.4501H24C24.45 7.4501 24.8 7.8001 24.8 8.2501V9.8001C24.8 10.2501 24.45 10.6001 24 10.6001H16C15.55 10.6001 15.2 10.2501 15.2 9.8001V8.2501C15.2 7.8001 15.55 7.4501 16 7.4501ZM12.05 10.8001L8.35005 1.6501C8.25005 1.5001 8.10005 1.3501 7.90005 1.3501H5.05005C4.90005 1.3501 4.70005 1.4501 4.65005 1.6501L1.25005 10.8001C1.20005 10.9501 1.30005 11.2001 1.50005 11.2001H3.30005C3.45005 11.2001 3.65005 11.0501 3.70005 10.9001L4.40005 8.9501H8.75005L9.50005 10.9001C9.55005 11.0501 9.75005 11.2001 9.90005 11.2001H11.7C11.95 11.2001 12.1 11.0001 12.05 10.8001ZM5.25005 6.5501L6.40005 3.6501H6.65005L7.90005 6.5501H5.25005Z" fill="#706E6B"/>
</svg>
