<svg width="26" height="26" viewBox="0 0 26 26" fill="none" xmlns="http://www.w3.org/2000/svg">
<path fill-rule="evenodd" clip-rule="evenodd" d="M24.25 15.5H22.75C22.35 15.5 22 15.85 22 16.25V21.25C22 21.65 21.65 22 21.25 22H4.75C4.35 22 4 21.65 4 21.25V16.25C4 15.85 3.65 15.5 3.25 15.5H1.75C1.35 15.5 1 15.85 1 16.25V23C1 24.1 1.9 25 3 25H23C24.1 25 25 24.1 25 23V16.25C25 15.85 24.65 15.5 24.25 15.5ZM12.5 18.8C12.8 19.1 13.25 19.1 13.55 18.8L20.3 12.05C20.6 11.75 20.6 11.3 20.3 11L19.25 9.95C18.95 9.65 18.5 9.65 18.2 9.95L15.4 12.75C15.1 13.05 14.55 12.85 14.55 12.4V1.75C14.5 1.35 14.1 1 13.75 1H12.25C11.85 1 11.5 1.35 11.5 1.75V12.35C11.5 12.8 10.95 13 10.65 12.7L7.85 9.9C7.55 9.6 7.1 9.6 6.8 9.9L5.75 11C5.45 11.3 5.45 11.75 5.75 12.05L12.5 18.8Z" fill="#706E6B"/>
</svg>
