<svg width="26" height="26" viewBox="0 0 26 26" fill="none" xmlns="http://www.w3.org/2000/svg">
<path fill-rule="evenodd" clip-rule="evenodd" d="M10 2C11.1 2 12 2.9 12 4C12 5.1 11.1 6 10 6C8.9 6 8 5.1 8 4C8 2.9 8.9 2 10 2ZM16 2C17.1 2 18 2.9 18 4C18 5.1 17.1 6 16 6C14.9 6 14 5.1 14 4C14 2.9 14.9 2 16 2ZM10 8C11.1 8 12 8.9 12 10C12 11.1 11.1 12 10 12C8.9 12 8 11.1 8 10C8 8.9 8.9 8 10 8ZM16 8C17.1 8 18 8.9 18 10C18 11.1 17.1 12 16 12C14.9 12 14 11.1 14 10C14 8.9 14.9 8 16 8ZM10 14C11.1 14 12 14.9 12 16C12 17.1 11.1 18 10 18C8.9 18 8 17.1 8 16C8 14.9 8.9 14 10 14ZM16 14C17.1 14 18 14.9 18 16C18 17.1 17.1 18 16 18C14.9 18 14 17.1 14 16C14 14.9 14.9 14 16 14ZM10 20C11.1 20 12 20.9 12 22C12 23.1 11.1 24 10 24C8.9 24 8 23.1 8 22C8 20.9 8.9 20 10 20ZM16 20C17.1 20 18 20.9 18 22C18 23.1 17.1 24 16 24C14.9 24 14 23.1 14 22C14 20.9 14.9 20 16 20Z" fill="#706E6B"/>
</svg>
