<svg width="40" height="40" viewBox="0 0 40 40" fill="none" xmlns="http://www.w3.org/2000/svg">
<rect width="40" height="40" rx="20" fill="#EF6E5D"/>
<mask id="mask0_1518_28034" style="mask-type:luminance" maskUnits="userSpaceOnUse" x="0" y="0" width="40" height="40">
<rect width="40" height="40" rx="20" fill="white"/>
</mask>
<g mask="url(#mask0_1518_28034)">
<path fill-rule="evenodd" clip-rule="evenodd" d="M22.9538 12.6615H17.0923C16.6769 12.6615 16.3538 12.2462 16.4 11.8769C16.7692 10.2615 18.2461 9.01538 20 9.01538C21.7538 9.01538 23.2308 10.2154 23.6 11.8769C23.6923 12.2462 23.3692 12.6615 22.9538 12.6615ZM31.0308 21.0615C31.0769 21.7077 30.5692 22.2154 29.9231 22.2154V22.1231H26.6461V23.9692C28.7692 24.8 30.2923 27.1077 30.2923 29.8308C30.2923 30.4769 29.7846 30.9846 29.1384 30.9385C28.5846 30.9385 28.1231 30.3846 28.1231 29.7846C28.0769 28.3077 27.3846 26.9692 26.3692 26.3231C25.7692 28.4 24.1538 30.0154 22.1231 30.6615C21.6154 30.8 21.1538 30.4769 21.1538 29.9692V21.1077C21.1538 20.4615 20.6461 19.9538 20 20C19.4461 20 18.9846 20.5538 18.9846 21.1538V29.9692C18.9846 30.4308 18.4769 30.8 18.0154 30.6615C15.9846 29.9692 14.4154 28.4 13.7692 26.3231C12.7077 26.9692 12.0154 28.3538 12.0154 29.8769C12.0154 30.5692 11.4154 31.0769 10.7231 30.9846C10.1692 30.8462 9.79998 30.3846 9.79998 29.8308C9.79998 27.1538 11.3231 24.8462 13.4461 24.0154V22.1692H10.1231C9.47691 22.1692 8.96921 21.6615 9.01537 21.0154C9.01537 20.4615 9.56921 20 10.1692 20H13.4V18.1538C11.2769 17.3231 9.75383 15.0154 9.75383 12.2923C9.75383 11.6923 10.2615 11.1846 10.9077 11.2308C11.4615 11.2308 11.9231 11.7846 11.9231 12.3846C11.9231 13.9077 12.6615 15.2462 13.7231 15.8923C14.1384 15.2923 14.8308 14.8769 15.6154 14.8769H24.3384C25.1231 14.8769 25.8154 15.2462 26.2308 15.8923C27.2923 15.2462 28.0308 13.8615 28.0308 12.2923C28.0308 11.6 28.6308 11.0923 29.3231 11.1846C29.8769 11.3231 30.2461 11.7846 30.2461 12.3385C30.2461 15.0154 28.7231 17.3231 26.6 18.1538V20H29.8308C30.4769 20 30.9846 20.4615 31.0308 21.0615Z" fill="white"/>
</g>
</svg>
