<svg width="26" height="26" viewBox="0 0 26 26" fill="none" xmlns="http://www.w3.org/2000/svg">
<path fill-rule="evenodd" clip-rule="evenodd" d="M19.6 7.5C16.55 7.5 14 10 14 13.1C14 14.2 14.35 15.25 14.9 16.15H11.3C11.9 15.25 12.2 14.25 12.2 13.1C12.2 10.05 9.7 7.5 6.6 7.5C3.55 7.5 1 10 1 13.1C1 16.15 3.5 18.7 6.6 18.7H19.55C22.6 18.7 25.15 16.2 25.15 13.1C25.2 10 22.7 7.5 19.6 7.5ZM3.7 13.05C3.7 11.4 5.05 10.05 6.65 10.05C8.3 10.05 9.6 11.4 9.6 13.05C9.6 14.7 8.25 16.05 6.65 16.05C5.05 16.05 3.7 14.75 3.7 13.05ZM19.6 16.1C17.95 16.1 16.65 14.75 16.65 13.1C16.65 11.45 18 10.1 19.6 10.1C21.25 10.1 22.55 11.45 22.55 13.1C22.6 14.75 21.25 16.1 19.6 16.1Z" fill="#706E6B"/>
</svg>
