<svg width="26" height="26" viewBox="0 0 26 26" fill="none" xmlns="http://www.w3.org/2000/svg">
<path fill-rule="evenodd" clip-rule="evenodd" d="M14.3 1.30751L8 9.00751H5C3.9 9.00751 3 9.90751 3 11.0075V15.0075C3 16.1075 3.9 17.0075 5 17.0075H8L14.3 24.7075C14.95 25.3575 16 24.9075 16 24.0075V2.00751C16 1.10751 14.9 0.657512 14.3 1.30751ZM20.15 7.55751C19.95 7.35751 19.65 7.35751 19.45 7.55751L18.75 8.25751C18.55 8.45751 18.55 8.75751 18.75 8.95751C19.85 9.95751 20.5 11.4075 20.5 13.0075C20.5 14.6075 19.8 16.0575 18.7 17.0575C18.5 17.2575 18.5 17.5575 18.7 17.7575L19.4 18.4575C19.6 18.6575 19.9 18.6575 20.1 18.4575C21.55 17.1075 22.5 15.1575 22.5 12.9575C22.5 10.8575 21.6 8.90751 20.15 7.55751Z" fill="#706E6B"/>
</svg>
