<svg width="26" height="26" viewBox="0 0 26 26" fill="none" xmlns="http://www.w3.org/2000/svg">
<path fill-rule="evenodd" clip-rule="evenodd" d="M12.3 1.30751L6 9.00751H3C1.9 9.00751 1 9.90751 1 11.0075V15.0075C1 16.1075 1.9 17.0075 3 17.0075H6L12.3 24.7075C12.95 25.3575 14 24.9075 14 24.0075V2.00751C14 1.10751 12.9 0.657512 12.3 1.30751ZM21.3 4.35751C21.1 4.15751 20.8 4.15751 20.6 4.35751L19.9 5.05751C19.7 5.25751 19.7 5.60751 19.9 5.75751C21.8 7.60751 23 10.1575 23 13.0075C23 15.8575 21.8 18.4075 19.9 20.2575C19.7 20.4575 19.7 20.7575 19.9 20.9575L20.6 21.6575C20.8 21.8575 21.1 21.8575 21.3 21.6575C23.55 19.5075 25 16.4075 25 13.0075C25 9.60751 23.6 6.50751 21.3 4.35751ZM18.15 7.55751C17.95 7.35751 17.65 7.35751 17.45 7.55751L16.75 8.25751C16.55 8.45751 16.55 8.75751 16.75 8.95751C17.85 9.95751 18.5 11.4075 18.5 13.0075C18.5 14.6075 17.8 16.0575 16.7 17.0575C16.5 17.2575 16.5 17.5575 16.7 17.7575L17.4 18.4575C17.6 18.6575 17.9 18.6575 18.1 18.4575C19.55 17.1075 20.5 15.1575 20.5 12.9575C20.5 10.8575 19.6 8.90751 18.15 7.55751Z" fill="#706E6B"/>
</svg>
