<svg width="48" height="48" viewBox="0 0 48 48" fill="none" xmlns="http://www.w3.org/2000/svg">
<rect width="48" height="48" rx="4" fill="#E6D478"/>
<mask id="mask0_1518_27700" style="mask-type:luminance" maskUnits="userSpaceOnUse" x="0" y="0" width="48" height="48">
<rect width="48" height="48" rx="4" fill="white"/>
</mask>
<g mask="url(#mask0_1518_27700)">
<path fill-rule="evenodd" clip-rule="evenodd" d="M34.3133 34.2566L34.9367 33.6333C35.1633 33.4066 35.3333 33.4633 35.3333 33.8033V35.3333C35.3333 37.2033 33.8033 38.7333 31.9333 38.7333H26.8333H13.8C11.93 38.7333 10.4 37.5999 10.4 35.3333H9.26667C8.02 35.3333 7 34.3133 7 33.0666C7 31.8199 8.02 30.7999 9.26667 30.7999H10.4V26.2666H9.26667C8.02 26.2666 7 25.2466 7 23.9999C7 22.7533 8.02 21.7333 9.26667 21.7333H10.4V17.1999H9.26667C8.02 17.1999 7 16.1799 7 14.9333C7 13.6866 8.02 12.6666 9.26667 12.6666H10.4C10.4 10.9666 11.93 9.2666 13.8 9.2666H31.9333C33.8033 9.2666 35.3333 10.7966 35.3333 12.6666V18.5033C35.3333 18.7866 35.1633 19.2399 34.9367 19.4666L27.2867 27.1733C26.89 27.6266 26.2667 28.4766 26.2667 29.8933V31.6499C26.2667 34.0299 28.1367 35.3333 29.8367 35.3333H31.7067C32.67 35.3333 33.6333 34.9366 34.3133 34.2566ZM27.9667 18.8999C28.59 18.8999 29.1 18.3899 29.1 17.7666V16.6333C29.1 16.0099 28.59 15.4999 27.9667 15.4999H16.6333C16.01 15.4999 15.5 16.0099 15.5 16.6333V17.7666C15.5 18.3899 16.01 18.8999 16.6333 18.8999H27.9667ZM24 31.3666C24 31.9899 23.49 32.4999 22.8667 32.4999H16.6333C16.01 32.4999 15.5 31.9899 15.5 31.3666V30.2333C15.5 29.6099 16.01 29.0999 16.6333 29.0999H22.8667C23.49 29.0999 24 29.6099 24 30.2333V31.3666ZM24.5667 25.6999C25.19 25.6999 25.7 25.1899 25.7 24.5666V23.4333C25.7 22.8099 25.19 22.2999 24.5667 22.2999H16.6333C16.01 22.2999 15.5 22.8099 15.5 23.4333V24.5666C15.5 25.1899 16.01 25.6999 16.6333 25.6999H24.5667Z" fill="white"/>
<path d="M40.66 21.5063L39.98 20.8263C39.5266 20.373 38.8466 20.373 38.3933 20.8263L29.7233 29.6097C29.6666 29.6097 29.6666 29.723 29.6666 29.7797V31.6497C29.6666 31.8197 29.6666 31.933 29.8366 31.933H31.7066C31.7633 31.933 31.8766 31.8763 31.9333 31.8763L40.66 23.1497C41.1133 22.6397 41.1133 21.9597 40.66 21.5063Z" fill="white"/>
</g>
</svg>
