<svg width="26" height="26" viewBox="0 0 26 26" fill="none" xmlns="http://www.w3.org/2000/svg">
<path fill-rule="evenodd" clip-rule="evenodd" d="M22 3.5H19.5V2.5C19.5 1.7 18.85 1 18 1C17.2 1 16.5 1.65 16.5 2.5V3.5H9.5V2.5C9.5 1.7 8.85 1 8 1C7.2 1 6.5 1.65 6.5 2.5V3.5H4C2.9 3.5 2 4.4 2 5.5V6.75C2 7.15 2.35 7.5 2.75 7.5H23.25C23.65 7.5 24 7.15 24 6.75V5.5C24 4.4 23.1 3.5 22 3.5ZM23.25 10H2.75C2.35 10 2 10.35 2 10.75V23C2 24.1 2.9 25 4 25H22C23.1 25 24 24.1 24 23V10.75C24 10.35 23.65 10 23.25 10ZM16.4 14.75L13.25 21.45C13.1 21.8 12.75 22 12.35 22C11.8 22 11.4 21.55 11.4 21.1C11.4 21 11.45 20.85 11.5 20.7L14.15 15H10.35C9.9 15 9.5 14.7 9.5 14.25C9.5 13.85 9.9 13.5 10.35 13.5H15.55C16.05 13.5 16.5 13.9 16.5 14.4C16.5 14.55 16.45 14.65 16.4 14.75Z" fill="#706E6B"/>
</svg>
