<svg width="26" height="26" viewBox="0 0 26 26" fill="none" xmlns="http://www.w3.org/2000/svg">
<path fill-rule="evenodd" clip-rule="evenodd" d="M23.7273 8.75C20.9773 5.7 17.0773 4 12.9273 4C8.77732 4 4.87732 5.7 2.12732 8.75C1.92732 8.95 1.97732 9.3 2.17732 9.45L3.67732 10.75C3.87732 10.95 4.17732 10.9 4.37732 10.7C6.57732 8.35 9.67732 7 12.9273 7C16.1773 7 19.2773 8.35 21.4773 10.7C21.6773 10.9 21.9773 10.9 22.1773 10.75L23.6773 9.45C23.8773 9.25 23.9273 8.95 23.7273 8.75ZM12.9273 11C10.8273 11 8.82732 11.9 7.42732 13.5C7.22732 13.7 7.27732 14.05 7.47732 14.25L9.07732 15.45C9.27732 15.6 9.57732 15.6 9.72732 15.4C10.5773 14.5 11.7273 14 12.9273 14C14.1273 14 15.2773 14.5 16.0773 15.35C16.2273 15.55 16.5273 15.55 16.7273 15.4L18.3273 14.2C18.5773 14 18.5773 13.7 18.3773 13.45C17.0273 11.9 15.0273 11 12.9273 11ZM12.9773 17.95C14.3273 17.95 15.4773 19.05 15.4773 20.45C15.4773 21.85 14.3773 22.95 12.9773 22.95C11.5773 22.95 10.4773 21.85 10.4773 20.45C10.4773 19.05 11.6273 17.95 12.9773 17.95Z" fill="#706E6B"/>
</svg>
