<svg width="40" height="40" viewBox="0 0 40 40" fill="none" xmlns="http://www.w3.org/2000/svg">
<rect width="40" height="40" rx="20" fill="#F39E58"/>
<mask id="mask0_1518_28078" style="mask-type:luminance" maskUnits="userSpaceOnUse" x="0" y="0" width="40" height="40">
<rect width="40" height="40" rx="20" fill="white"/>
</mask>
<g mask="url(#mask0_1518_28078)">
<path d="M22.351 18.5796C21.3714 18.1387 21.1755 17.7469 21.1755 17.3061C21.1755 16.8653 21.4694 16.4734 21.7632 16.1306C22.351 15.5918 22.6449 14.8081 22.6449 13.8775C22.6939 12.1632 21.7143 10.6938 19.902 10.6938C18.8245 10.6938 18.0898 11.2326 17.6 12.0163C18.8245 12.9469 19.5592 14.5632 19.5592 16.4245C19.5592 17.502 19.2653 18.5306 18.7265 19.4122C18.5306 19.7061 18.6285 20.1469 18.9714 20.3428C20 20.8816 21.1755 21.5673 21.8612 22.7428C21.9592 22.9387 22.1551 22.9877 22.4 22.9877H23.7224C24.5551 22.9877 25.1428 22.4 25.1428 21.4694C25.0939 20.0489 23.7714 19.2163 22.351 18.5796Z" fill="white"/>
<path d="M17.1592 21.5184C16.0327 21.0286 15.8857 20.5878 15.8857 20.098C15.8857 19.6082 16.1796 19.1184 16.5714 18.7755C17.2082 18.1388 17.551 17.2572 17.551 16.2286C17.551 14.3184 16.4245 12.6531 14.4653 12.6531C14.4163 12.6531 14.4163 12.6531 14.3674 12.6531C14.3184 12.6531 14.3184 12.6531 14.2694 12.6531C12.3102 12.6531 11.1837 14.3184 11.1837 16.2286C11.1837 17.2572 11.5265 18.1388 12.1633 18.7755C12.5551 19.1184 12.849 19.6082 12.849 20.098C12.849 20.5878 12.702 21.0286 11.5755 21.5184C9.95919 22.2531 8.44083 22.9878 8.39185 24.5061C8.4898 25.5837 9.2245 26.3674 10.1551 26.3674H12.1143H16.7184H18.6776C19.6082 26.3674 20.3429 25.5837 20.3429 24.5551C20.2939 22.9878 18.7265 22.2531 17.1592 21.5184Z" fill="white"/>
<path d="M23.1837 28.5714V27.102C23.1837 26.7102 23.5266 26.3673 23.9184 26.3673H31.2653C31.6572 26.3673 32 26.7102 32 27.102V28.5714C32 28.9632 31.6572 29.3061 31.2653 29.3061H23.9184C23.5266 29.3061 23.1837 28.9632 23.1837 28.5714Z" fill="white"/>
</g>
</svg>
