<svg width="40" height="40" viewBox="0 0 40 40" fill="none" xmlns="http://www.w3.org/2000/svg">
<rect width="40" height="40" rx="20" fill="#48C3CC"/>
<mask id="mask0_1518_28080" style="mask-type:luminance" maskUnits="userSpaceOnUse" x="0" y="0" width="40" height="40">
<rect width="40" height="40" rx="20" fill="white"/>
</mask>
<g mask="url(#mask0_1518_28080)">
<path fill-rule="evenodd" clip-rule="evenodd" d="M13.6 8H28.7C30.05 8 31.25 8.95 31.25 10.3V29.5C31.25 30.8 30.05 32 28.7 32H13.6C12.25 32 11.15 30.8 11.15 29.6V28.8H10.35C9.45 28.8 8.75 28.1 8.75 27.2C8.75 26.3 9.45 25.6 10.35 25.6H11.15V21.6H10.35C9.45 21.6 8.75 20.9 8.75 20C8.75 19.1 9.45 18.4 10.35 18.4H11.15V14.4H10.35C9.45 14.4 8.75 13.7 8.75 12.8C8.75 11.9 9.45 11.2 10.35 11.2H11.15V10.4C11.15 9.2 12.25 8 13.6 8ZM26.15 25.2L27.25 24.1C27.8 23.6 27.75 22.7 27.3 22.4L26 21.35C25.55 21 24.9 21 24.45 21.3L23.2 22.2C23.05 22.3 22.85 22.3 22.7 22.15L20.65 20.3L18.8 18.25C18.65 18.15 18.65 17.9 18.75 17.75L19.65 16.45C19.95 16 19.95 15.4 19.6 14.95L18.55 13.65C18.1 13.05 17.2 13.05 16.7 13.55L15.6 14.65C15.35 14.85 15.25 15.2 15.25 15.55C15.4 18.2 16.6 20.7 18.35 22.45C20.1 24.2 22.6 25.4 25.25 25.55C25.55 25.6 25.9 25.45 26.15 25.2Z" fill="white"/>
</g>
</svg>
