<svg width="40" height="40" viewBox="0 0 40 40" fill="none" xmlns="http://www.w3.org/2000/svg">
<rect width="40" height="40" rx="20" fill="#6CA1E9"/>
<mask id="mask0_1518_28082" style="mask-type:luminance" maskUnits="userSpaceOnUse" x="0" y="0" width="40" height="40">
<rect width="40" height="40" rx="20" fill="white"/>
</mask>
<g mask="url(#mask0_1518_28082)">
<path d="M24.9959 26.9552L22.6449 27.7389C22.449 27.7878 22.2041 27.8368 22.0082 27.8368C21.3224 27.8368 20.6367 27.494 20.1959 26.9552C19.7551 26.4164 19.6571 25.6327 19.8041 24.947L20.5878 22.1552L24.2612 18.4817C24.4082 18.3348 24.3102 18.0409 24.0653 18.0409H8.73469C8.34286 18.0409 8 18.3838 8 18.7756V27.8368C8 28.9144 8.88163 29.796 9.95918 29.796H23.6735C24.751 29.796 25.6327 28.9144 25.6327 27.8368V27.445C25.6327 27.1021 25.2898 26.8572 24.9959 26.9552Z" fill="white"/>
<path d="M8.73469 16.0817H24.898C25.2898 16.0817 25.6327 15.7388 25.6327 15.347V14.1225C25.6327 13.0449 24.751 12.1633 23.6735 12.1633H22.2041V11.6735C22.2041 10.8898 21.5673 10.2041 20.7347 10.2041C19.951 10.2041 19.2653 10.8408 19.2653 11.6735V12.1633H14.3673V11.6735C14.3673 10.8898 13.7306 10.2041 12.898 10.2041C12.1143 10.2041 11.4286 10.8408 11.4286 11.6735V12.1633H9.95918C8.88163 12.1633 8 13.0449 8 14.1225V15.347C8 15.7388 8.34286 16.0817 8.73469 16.0817Z" fill="white"/>
<path d="M27.347 18.5796C27.249 18.4816 27.1021 18.4816 27.0041 18.5796L22.4001 23.1837L21.7143 25.4857C21.6654 25.7306 21.8613 25.9265 22.1062 25.8775L24.4082 25.1918L29.0123 20.5877C29.1103 20.4898 29.1103 20.3428 29.0123 20.2449L27.347 18.5796Z" fill="white"/>
<path d="M31.2654 17.1592L30.3837 16.2775C30.0898 15.9837 29.5511 15.9837 29.2082 16.2775C29.2082 16.2775 28.6694 16.8163 28.4245 17.1102C28.3266 17.2081 28.3266 17.3551 28.4245 17.453L30.0898 19.1184C30.1878 19.2163 30.3347 19.2163 30.4327 19.1184C30.7266 18.8245 31.2654 18.3347 31.2654 18.3347C31.6082 18.0408 31.6082 17.502 31.2654 17.1592Z" fill="white"/>
</g>
</svg>
