<svg width="26" height="26" viewBox="0 0 26 26" fill="none" xmlns="http://www.w3.org/2000/svg">
<path d="M8.0435 4.59961L8.13563 4.60723C8.4061 4.65231 8.61741 4.89178 8.61741 5.17352C8.61741 5.48657 8.35654 5.74744 8.0435 5.74744H7.67828C6.4261 5.74744 6.00871 6.4257 6.00871 7.57352C6.00871 8.09526 6.06089 8.56483 6.16523 9.08657C6.26958 9.60831 6.32176 10.13 6.32176 10.704C6.32176 12.0605 5.74784 12.7387 4.80871 12.9996L4.95393 13.0369C5.80667 13.2869 6.32176 14.0101 6.32176 15.2953C6.32176 15.8692 6.26958 16.3909 6.16523 16.9127C6.06089 17.4344 6.00871 17.904 6.00871 18.4257C6.00871 19.5735 6.47828 20.2518 7.67828 20.2518H8.0435L8.1457 20.2612C8.41193 20.3104 8.62321 20.5474 8.66958 20.8257C8.66958 21.1387 8.40871 21.3996 8.09567 21.3996H6.11306C4.33915 21.3996 3.0348 20.6692 3.0348 18.53C3.0348 17.9561 3.13915 17.3822 3.19132 16.8083C3.2435 16.2344 3.34784 15.6605 3.34784 15.0866C3.34784 14.5127 3.19132 13.73 2.0435 13.5735H1.93915C1.6261 13.5213 1.36523 13.3127 1.36523 12.9996C1.36523 12.6866 1.6261 12.4257 1.93915 12.4257H1.99132C3.13915 12.3213 3.29567 11.5909 3.29567 10.9127C3.29567 10.3387 3.2435 9.71265 3.13915 9.13874C3.08697 8.51265 2.98263 7.93874 2.98263 7.36483C2.98263 5.43439 4.28697 4.59961 6.06089 4.59961H8.0435ZM19.9391 4.59961C21.7131 4.59961 23.0174 5.43439 23.0174 7.36483C23.0174 7.93874 22.9131 8.51265 22.8609 9.13874C22.7565 9.71265 22.7044 10.3387 22.7044 10.9127C22.7044 11.5909 22.8609 12.3213 24.0087 12.4257H24.0609C24.3739 12.4257 24.6348 12.6866 24.6348 12.9996C24.6348 13.3127 24.3739 13.5213 24.0609 13.5735H23.9565C22.8087 13.73 22.6522 14.5127 22.6522 15.0866C22.6522 15.6605 22.7565 16.2344 22.8087 16.8083C22.8609 17.3822 22.9652 17.9561 22.9652 18.53C22.9652 20.6692 21.6609 21.3996 19.887 21.3996H17.9044C17.5913 21.3996 17.3305 21.1387 17.3305 20.8257C17.3768 20.5474 17.5881 20.3104 17.8543 20.2612L17.9565 20.2518H18.3218C19.5218 20.2518 19.9913 19.5735 19.9913 18.4257C19.9913 17.904 19.9391 17.4344 19.8348 16.9127C19.7305 16.3909 19.6783 15.8692 19.6783 15.2953C19.6783 14.0101 20.1934 13.2869 21.0461 13.0369L21.1913 12.9996C20.2522 12.7387 19.6783 12.0605 19.6783 10.704C19.6783 10.13 19.7305 9.60831 19.8348 9.08657C19.9391 8.56483 19.9913 8.09526 19.9913 7.57352C19.9913 6.4257 19.5739 5.74744 18.3218 5.74744H17.9565C17.6435 5.74744 17.3826 5.48657 17.3826 5.17352C17.3826 4.89178 17.5939 4.65231 17.8644 4.60723L17.9565 4.59961H19.9391Z" fill="#706E6B"/>
</svg>
