<svg width="26" height="26" viewBox="0 0 26 26" fill="none" xmlns="http://www.w3.org/2000/svg">
<path fill-rule="evenodd" clip-rule="evenodd" d="M17.358 19.85C17.708 19.85 17.958 20.1 18.058 20.4L18.458 23.1C18.558 23.85 19.158 24.4 19.908 24.5L23.158 24.85C24.158 24.95 25.008 24.2 25.008 23.2V20.1C25.008 19.6 24.808 19.2 24.458 18.85C21.258 15.95 17.008 14.45 12.958 14.45C8.90802 14.45 4.65802 15.95 1.45802 18.85C1.15802 19.15 1.00802 19.65 1.00802 20.1V23.2C0.908015 24.2 1.75802 25 2.75802 24.85L6.00802 24.5C6.75802 24.4 7.35802 23.85 7.45802 23.1L7.85802 20.4C7.90802 20.05 8.20802 19.85 8.55802 19.85C8.55802 19.85 12.758 19.5 17.358 19.85ZM19.858 6C20.108 5.75 20.558 5.95 20.558 6.3V9.65C20.558 10 20.808 10.25 21.158 10.25H22.408C22.758 10.25 23.008 10 23.008 9.65L23.058 1.6C23.058 1.25 22.808 1 22.458 1H14.458C14.108 1 13.858 1.25 13.858 1.6V2.85C13.858 3.2 14.108 3.45 14.458 3.45H17.808C18.158 3.45 18.358 3.9 18.108 4.15L13.408 8.85C13.258 9 12.958 9 12.758 8.85L5.05802 1.2C4.80802 0.95 4.40802 0.95 4.15802 1.2L3.20802 2.1C2.95802 2.35 2.95802 2.75 3.20802 3.05L12.608 12.5C12.858 12.8 13.258 12.8 13.558 12.5L19.858 6Z" fill="#706E6B"/>
</svg>
