<svg width="26" height="26" viewBox="0 0 26 26" fill="none" xmlns="http://www.w3.org/2000/svg">
<path fill-rule="evenodd" clip-rule="evenodd" d="M15.05 13.0496C15.05 11.8996 15.75 10.8996 16.7 10.3996C16.55 8.44961 14.95 6.94961 12.95 6.94961C10.9 6.94961 9.2 8.64961 9.2 10.6996C9.2 12.7496 10.9 14.4496 12.95 14.4496C13.7 14.4496 14.45 14.1996 15 13.7996V13.0496H15.05ZM15.05 18.1996V17.2496C15.05 16.8996 15.1 16.5996 15.2 16.2996H6.4C6.4 14.8496 5.25 13.6496 3.75 13.6496V8.04961C5.2 8.04961 6.4 6.89961 6.4 5.39961H19.55C19.55 6.84961 20.7 8.04961 22.2 8.04961V10.0496H24.1C24.45 10.0496 24.75 10.0996 25.05 10.1996V4.84961C25.05 3.59961 24.05 2.59961 22.8 2.59961H3.25C2 2.59961 1 3.59961 1 4.84961V16.9496C1 18.1996 2 19.1996 3.25 19.1996H15.25C15.15 18.8996 15.05 18.5496 15.05 18.1996ZM25 22.4496C25 22.9496 24.5 23.3996 24 23.3996H18C17.5 23.3996 17.05 22.9496 17.05 22.4496V21.4996C17.05 20.9996 17.5 20.5496 18 20.5496H24.05C24.55 20.5496 25 20.9996 25 21.4996V22.4496ZM25 18.2496C25 18.7496 24.5 19.1996 24 19.1996H18C17.5 19.1996 17.05 18.7496 17.05 18.2496V17.2996C17.05 16.7996 17.5 16.3496 18 16.3496H24.05C24.55 16.3496 25 16.7996 25 17.2996V18.2496ZM25 13.9996C25 14.4996 24.5 14.9496 24 14.9496H18C17.5 14.9496 17.05 14.4996 17.05 13.9996V13.0496C17.05 12.5496 17.5 12.0996 18 12.0996H24.05C24.55 12.0996 25 12.5496 25 13.0496V13.9996Z" fill="#706E6B"/>
</svg>
