<svg width="26" height="26" viewBox="0 0 26 26" fill="none" xmlns="http://www.w3.org/2000/svg">
<path fill-rule="evenodd" clip-rule="evenodd" d="M22.2 1H9.40002C8.10002 1 7.00002 2.1 7.00002 3.4V3.8C7.00002 4.05 7.15002 4.2 7.40002 4.2H19C20.3 4.2 21.4 5.3 21.4 6.6V19C21.4 19.25 21.55 19.4 21.8 19.4H22.2C23.5 19.4 24.6 18.3 24.6 17V3.4C24.6 2.1 23.5 1 22.2 1ZM16.6 6.6H3.80002C2.50002 6.6 1.40002 7.7 1.40002 9V22.6C1.40002 23.9 2.50002 25 3.80002 25H16.6C17.9 25 19 23.9 19 22.6V9C19 7.7 17.9 6.6 16.6 6.6ZM7.00002 21C7.00002 21.45 6.65002 21.8 6.20002 21.8H5.40002C4.95002 21.8 4.60002 21.45 4.60002 21V20.2C4.60002 19.75 4.95002 19.4 5.40002 19.4H6.20002C6.65002 19.4 7.00002 19.75 7.00002 20.2V21ZM7.00002 16.2C7.00002 16.65 6.65002 17 6.20002 17H5.40002C4.95002 17 4.60002 16.65 4.60002 16.2V15.4C4.60002 14.95 4.95002 14.6 5.40002 14.6H6.20002C6.65002 14.6 7.00002 14.95 7.00002 15.4V16.2ZM7.00002 11.4C7.00002 11.85 6.65002 12.2 6.20002 12.2H5.40002C4.95002 12.2 4.60002 11.85 4.60002 11.4V10.6C4.60002 10.15 4.95002 9.8 5.40002 9.8H6.20002C6.65002 9.8 7.00002 10.15 7.00002 10.6V11.4ZM15.8 21C15.8 21.45 15.45 21.8 15 21.8H9.45002C9.00002 21.8 8.65002 21.45 8.65002 21V20.2C8.65002 19.75 9.00002 19.4 9.45002 19.4H15C15.45 19.4 15.8 19.75 15.8 20.2V21ZM15.8 16.2C15.8 16.65 15.45 17 15 17H9.45002C9.00002 17 8.65002 16.65 8.65002 16.2V15.4C8.65002 14.95 9.00002 14.6 9.45002 14.6H15C15.45 14.6 15.8 14.95 15.8 15.4V16.2ZM15.8 11.4C15.8 11.85 15.45 12.2 15 12.2H9.45002C9.00002 12.2 8.65002 11.85 8.65002 11.4V10.6C8.65002 10.15 9.00002 9.8 9.45002 9.8H15C15.45 9.8 15.8 10.15 15.8 10.6V11.4Z" fill="#706E6B"/>
</svg>
