<svg width="26" height="26" viewBox="0 0 26 26" fill="none" xmlns="http://www.w3.org/2000/svg">
<path fill-rule="evenodd" clip-rule="evenodd" d="M22 1.25H9.50002C8.20002 1.25 7.15002 2.3 7.15002 3.6V4C7.15002 4.25 7.30002 4.4 7.55002 4.4H18.9C20.2 4.4 21.25 5.45 21.25 6.75V18.9C21.25 19.15 21.4 19.3 21.65 19.3H22C23.3 19.3 24.35 18.25 24.35 16.95V3.6C24.35 2.3 23.3 1.25 22 1.25ZM16.5 6.75H4.00002C2.70002 6.75 1.65002 7.8 1.65002 9.1V22.4C1.65002 23.7 2.70002 24.75 4.00002 24.75H16.5C17.8 24.75 18.85 23.7 18.85 22.4V9.1C18.9 7.8 17.8 6.75 16.5 6.75ZM15.5 13.4L9.50002 19.4C9.25002 19.65 9.00002 19.75 8.70002 19.75C8.45002 19.75 8.10002 19.65 7.90002 19.4L5.00002 16.5C4.75002 16.25 4.75002 15.9 5.00002 15.7L5.80002 14.9C6.05002 14.65 6.40002 14.65 6.60002 14.9L8.70002 17L13.85 11.85C14.1 11.6 14.45 11.6 14.65 11.85L15.45 12.65C15.7 12.8 15.7 13.2 15.5 13.4Z" fill="#706E6B"/>
</svg>
