<svg width="26" height="26" viewBox="0 0 26 26" fill="none" xmlns="http://www.w3.org/2000/svg">
<path d="M13.3574 21.8335C13.7659 21.8335 14.1234 22.1909 14.1234 22.5994V24.2335C14.1234 24.642 13.7659 24.9994 13.3574 24.9994H11.7234C11.3148 24.9994 10.9574 24.642 10.9574 24.2335V22.5994C10.9574 22.1909 11.3148 21.8335 11.7234 21.8335H13.3574ZM12.9999 1.45898C16.9829 1.45898 20.251 4.72707 20.251 8.71005C20.251 11.7739 18.4127 14.3781 15.7574 15.4505H15.7063C14.7872 15.859 14.1234 16.8292 14.1234 17.9015L14.0212 18.1058C14.0212 18.5654 13.6127 18.8718 13.2042 18.8718H11.5702C11.1616 18.8718 10.8553 18.5654 10.8553 18.1569V17.3909C10.8553 15.2462 12.234 13.3058 14.2765 12.5909C14.8893 12.3866 15.5021 12.0803 15.9616 11.5696L16.0127 11.5186C16.6765 10.7526 17.0851 9.78239 17.0851 8.71005C17.0851 6.41218 15.2468 4.57388 12.9489 4.57388C10.9574 4.57388 9.27229 6.00367 8.91484 7.89303V7.99515C8.86378 8.30154 8.55739 8.55686 8.14888 8.55686H6.51484C6.05527 8.55686 5.69782 8.19941 5.74888 7.73984V7.68877C6.25952 4.16537 9.32335 1.45898 12.9999 1.45898Z" fill="#706E6B"/>
</svg>
