<svg width="26" height="26" viewBox="0 0 26 26" fill="none" xmlns="http://www.w3.org/2000/svg">
<path fill-rule="evenodd" clip-rule="evenodd" d="M25 14C25 12.05 23.75 10.35 22 9.75C21.85 4.9 17.9 1 13 1C8.1 1 4.15 4.9 4 9.75C2.25 10.35 1 12.05 1 14C1 16.1 2.45 17.85 4.35 18.35C5.45 22.2 8.9 25 13 25C17.1 25 20.55 22.2 21.65 18.35C23.55 17.85 25 16.1 25 14ZM20 9.5L19.95 9.45L20.15 9.5H20ZM13 23C9.15 23 6 19.75 6 15.8C6 14.8 6.2 13.3 6.6 12.4C6.65 12.25 6.75 12.1 6.8 11.95C8.3 11.35 9.6 10.3 10.45 8.95C12.2 11.15 14.95 12.65 18 12.65C19.05 12.65 19.35 12.7 19.45 12.65C19.65 13.3 19.85 14.1 19.9 14.9C19.6 16.15 17.65 17.35 14.9 17.5C14.8 17.25 14.5 17 14.2 17H11.7C11.3 17 11 17.4 11 17.8V19.3C11 19.7 11.3 20 11.7 20H14.2C14.55 20 14.8 19.85 14.9 19.55C16.7 19.5 18.3 19 19.55 18.25C18.6 21 16.05 23 13 23Z" fill="#706E6B"/>
</svg>
