<svg width="26" height="26" viewBox="0 0 26 26" fill="none" xmlns="http://www.w3.org/2000/svg">
<path fill-rule="evenodd" clip-rule="evenodd" d="M12.8322 1.5C6.03224 1.5 0.532242 6.55 0.532242 12.75C0.532242 14.7 1.08224 16.55 2.03224 18.2C2.18224 18.45 2.23224 18.75 2.13224 19.05L0.532242 23.4C0.382242 23.8 0.782242 24.15 1.18224 24.05L5.58224 22.35C5.83224 22.25 6.13224 22.3 6.43224 22.45C8.28224 23.5 10.4822 24.1 12.8822 24.1C19.6322 24.05 25.1322 19.05 25.1322 12.8C25.1322 6.55 19.6322 1.5 12.8322 1.5ZM7.13224 12.35C7.13224 12.1 7.33224 11.85 7.63224 11.85H15.5822C15.8322 11.85 16.0822 12.05 16.0822 12.35V13.35C16.0822 13.6 15.8822 13.85 15.5822 13.85H7.58224C7.33224 13.85 7.08224 13.65 7.08224 13.35V12.35H7.13224ZM18.5822 17.15C18.5822 17.4 18.3822 17.65 18.0822 17.65H7.58224C7.33224 17.65 7.08224 17.45 7.08224 17.15V16.2C7.08224 15.95 7.28224 15.7 7.58224 15.7H18.0822C18.3322 15.7 18.5822 15.9 18.5822 16.2V17.15ZM18.5822 9.5C18.5822 9.75 18.3822 10 18.0822 10H7.58224C7.33224 10 7.08224 9.8 7.08224 9.5V8.55C7.08224 8.3 7.28224 8.05 7.58224 8.05H18.0822C18.3322 8.05 18.5822 8.25 18.5822 8.55V9.5Z" fill="#706E6B"/>
</svg>
