<svg width="26" height="26" viewBox="0 0 26 26" fill="none" xmlns="http://www.w3.org/2000/svg">
<path d="M12.3077 1.96837C6.76923 2.29145 2.29231 6.76837 1.96923 12.3068C1.50769 18.6761 6.63077 24.0761 13 24.0761H24.0769V12.9991C24.0769 6.62991 18.6769 1.50684 12.3077 1.96837ZM7.73846 8.15299C7.73846 7.73761 8.06154 7.41453 8.47692 7.41453H17.5231C17.9385 7.41453 18.2615 7.73761 18.2615 8.15299V8.89145C18.2615 9.30684 17.9385 9.62991 17.5231 9.62991H8.43077C8.01538 9.62991 7.69231 9.30684 7.69231 8.89145C7.73846 8.93761 7.73846 8.15299 7.73846 8.15299ZM18.2615 17.753C18.2615 18.1684 17.9385 18.4915 17.5231 18.4915H8.43077C8.01538 18.4915 7.69231 18.1684 7.69231 17.753V17.0145C7.69231 16.5991 8.01538 16.2761 8.43077 16.2761H17.4769C17.8923 16.2761 18.2154 16.5991 18.2154 17.0145V17.753H18.2615ZM21.0308 13.3684C21.0308 13.7838 20.7077 14.1068 20.2923 14.1068H5.66154C5.24615 14.1068 4.92308 13.7838 4.92308 13.3684V12.6299C4.92308 12.2145 5.24615 11.8915 5.66154 11.8915H20.2923C20.7077 11.8915 21.0308 12.2145 21.0308 12.6299V13.3684Z" fill="#706E6B"/>
</svg>
