<svg width="48" height="48" viewBox="0 0 48 48" fill="none" xmlns="http://www.w3.org/2000/svg">
<rect width="48" height="48" rx="4" fill="#EF7EAD"/>
<mask id="mask0_1518_27629" style="mask-type:luminance" maskUnits="userSpaceOnUse" x="0" y="0" width="48" height="48">
<rect width="48" height="48" rx="4" fill="white"/>
</mask>
<g mask="url(#mask0_1518_27629)">
<path d="M39.7936 24.9322H36.3387V40.0129C36.3387 40.4516 36.0645 40.6709 35.6258 40.6709H28.8258C28.3871 40.6709 28.1129 40.3967 28.1129 40.0129V28.387H19.8871V40.0129C19.8871 40.4516 19.6129 40.6709 19.1742 40.6709H12.3742C11.9355 40.6709 11.6613 40.3967 11.6613 40.0129V24.9322H8.20649C7.93229 24.9322 7.6581 24.8225 7.60326 24.4935C7.43874 24.2193 7.54842 23.9451 7.76778 23.7258L23.5613 7.93221C23.8355 7.65801 24.3291 7.65801 24.5484 7.93221L40.342 23.7258C40.5613 23.9451 40.5613 24.2193 40.5065 24.4935C40.4516 24.7677 40.0678 24.9322 39.7936 24.9322Z" fill="white"/>
</g>
</svg>
