<svg width="48" height="48" viewBox="0 0 48 48" fill="none" xmlns="http://www.w3.org/2000/svg">
<rect width="48" height="48" rx="4" fill="#50E3C2"/>
<mask id="mask0_1518_27934" style="mask-type:luminance" maskUnits="userSpaceOnUse" x="0" y="0" width="48" height="48">
<rect width="48" height="48" rx="4" fill="white"/>
</mask>
<g mask="url(#mask0_1518_27934)">
<path d="M32.3355 25.2071C30.3613 25.9748 29.5935 27.8393 29.4839 28.1135C29.3193 28.4974 29.0451 28.5522 29.0451 28.5522H19.1742C19.0097 28.5522 18.8451 28.3329 18.7355 28.1683C17.9129 26.249 15.9935 24.8232 13.8 24.8232C11.7709 24.8232 10.0161 25.92 9.08385 27.5651C8.97417 27.7845 8.64514 27.8393 8.42579 27.6748C7.8774 27.1812 7.54837 26.4683 7.54837 25.7006C7.54837 25.7006 7.21934 19.3393 9.35805 16.049C9.74192 15.5006 10.0161 15.2812 10.5097 15.2812H31.3484C31.5677 15.2812 31.7871 15.2812 32.0064 15.4458C32.0064 15.4458 34.3097 18.9554 34.6387 19.2845C34.9129 19.5587 35.1871 19.778 35.9 19.9425C36.3387 20.0522 40.3419 21.478 40.3419 21.478C40.5613 21.5877 40.5064 21.8619 40.5064 22.0813V25.6458C40.5064 26.4135 40.2871 27.1264 39.7387 27.62C39.5193 27.7845 39.2451 27.7296 39.1355 27.5103C38.2032 25.8651 36.5032 24.7683 34.4742 24.7683C33.6516 24.7683 32.9935 24.9329 32.3355 25.2071Z" fill="white"/>
<path d="M34.4193 32.7746C35.9033 32.7746 37.1064 31.5715 37.1064 30.0875C37.1064 28.6034 35.9033 27.4004 34.4193 27.4004C32.9352 27.4004 31.7322 28.6034 31.7322 30.0875C31.7322 31.5715 32.9352 32.7746 34.4193 32.7746Z" fill="white"/>
<path d="M13.8548 32.7746C15.3389 32.7746 16.5419 31.5715 16.5419 30.0875C16.5419 28.6034 15.3389 27.4004 13.8548 27.4004C12.3708 27.4004 11.1677 28.6034 11.1677 30.0875C11.1677 31.5715 12.3708 32.7746 13.8548 32.7746Z" fill="white"/>
</g>
</svg>
