<svg width="48" height="48" viewBox="0 0 48 48" fill="none" xmlns="http://www.w3.org/2000/svg">
<rect width="48" height="48" rx="4" fill="#33A8DC"/>
<mask id="mask0_1518_27932" style="mask-type:luminance" maskUnits="userSpaceOnUse" x="0" y="0" width="48" height="48">
<rect width="48" height="48" rx="4" fill="white"/>
</mask>
<g mask="url(#mask0_1518_27932)">
<path d="M17.7666 13.8H30.2333C30.8566 13.8 31.3666 13.29 31.3666 12.6667V10.4C31.3666 8.53 29.8366 7 27.9666 7H20.0333C18.1633 7 16.6333 8.53 16.6333 10.4V12.6667C16.6333 13.29 17.1433 13.8 17.7666 13.8Z" fill="white"/>
<path fill-rule="evenodd" clip-rule="evenodd" d="M35.3333 9.83398H36.4666C38.3366 9.83398 39.8666 11.364 39.8666 13.234V37.6007C39.8666 39.4707 38.3366 41.0007 36.4666 41.0007H11.5333C9.6633 41.0007 8.1333 39.4707 8.1333 37.6007V13.234C8.1333 11.364 9.6633 9.83398 11.5333 9.83398H12.6666C13.0066 9.83398 13.2333 10.0607 13.2333 10.4007V12.6673C13.2333 15.1607 15.2733 17.2007 17.7666 17.2007H30.2333C32.7266 17.2007 34.7666 15.1607 34.7666 12.6673V10.4007C34.7666 10.0607 34.9933 9.83398 35.3333 9.83398ZM22.64 34.314L33.52 23.434C33.7466 23.2073 33.7466 22.8107 33.4633 22.5273L32.2733 21.3373C31.99 21.054 31.65 21.054 31.3666 21.3373L21.5633 31.1407L16.5766 26.154C16.2933 25.8707 15.9533 25.8707 15.67 26.154L14.48 27.344C14.1966 27.6273 14.1966 27.9673 14.48 28.2507L20.5433 34.314C20.8266 34.5973 21.2233 34.7673 21.62 34.7673C22.0166 34.7673 22.3566 34.5973 22.64 34.314Z" fill="white"/>
</g>
</svg>
