<svg width="48" height="48" viewBox="0 0 48 48" fill="none" xmlns="http://www.w3.org/2000/svg">
<g clip-path="url(#clip0_1518_27950)">
<mask id="mask0_1518_27950" style="mask-type:alpha" maskUnits="userSpaceOnUse" x="0" y="0" width="48" height="48">
<path d="M44 0H4C1.79086 0 0 1.79086 0 4V44C0 46.2091 1.79086 48 4 48H44C46.2091 48 48 46.2091 48 44V4C48 1.79086 46.2091 0 44 0Z" fill="white"/>
</mask>
<g mask="url(#mask0_1518_27950)">
<path d="M44 0H4C1.79086 0 0 1.79086 0 4V44C0 46.2091 1.79086 48 4 48H44C46.2091 48 48 46.2091 48 44V4C48 1.79086 46.2091 0 44 0Z" fill="#449488"/>
<path d="M17.9366 13.8566H30.0633C30.6892 13.8566 31.1966 13.3492 31.1966 12.7233V10.4566C31.1976 8.62226 29.7433 7.11779 27.91 7.05664H20.2033C18.3581 7.09077 16.8882 8.6113 16.9166 10.4566V12.7233C16.8722 13.0153 16.961 13.3118 17.1585 13.5313C17.3561 13.7508 17.6416 13.8702 17.9366 13.8566Z" fill="white"/>
<path d="M36.1266 9.94648H34.9933C34.8401 9.93634 34.69 9.99278 34.5815 10.1013C34.4729 10.2099 34.4165 10.36 34.4266 10.5131V12.7798C34.4268 15.2302 32.4569 17.2255 30.0066 17.2565H17.9366C15.4864 17.2255 13.5164 15.2302 13.5166 12.7798V10.5131C13.5267 10.36 13.4703 10.2099 13.3618 10.1013C13.2532 9.99278 13.1031 9.93634 12.9499 9.94648H11.8166C9.97137 9.98061 8.50153 11.5011 8.52995 13.3465V37.4865C8.52893 39.3209 9.98325 40.8253 11.8166 40.8865H36.1266C37.9719 40.8523 39.4417 39.3318 39.4133 37.4865V13.3465C39.4456 12.4549 39.1135 11.5886 38.4934 10.9471C37.8734 10.3056 37.0188 9.94435 36.1266 9.94648ZM34.5966 37.0331C34.5338 37.3794 34.2628 37.6503 33.9166 37.7131H27.5699C27.1733 37.7131 27.0033 37.2598 27.3999 36.9765L29.4399 34.8231L25.4733 30.8565H14.0266C13.722 30.8371 13.4793 30.5944 13.4599 30.2898V27.7398C13.4817 27.4363 13.7231 27.1949 14.0266 27.1731H25.4733L29.3833 23.2065L27.3433 21.1665C27.0599 20.8265 27.1733 20.3731 27.5699 20.3731H33.8599C34.2062 20.436 34.4771 20.7069 34.5399 21.0531V27.3431C34.5399 27.7398 34.0866 27.9098 33.8033 27.5131L31.7633 25.5298L28.2499 29.0431L31.7633 32.4998L33.8033 30.4598C34.1433 30.1765 34.5966 30.2898 34.5966 30.6865V37.0331Z" fill="white"/>
</g>
</g>
<defs>
<clipPath id="clip0_1518_27950">
<rect width="48" height="48" fill="white"/>
</clipPath>
</defs>
</svg>
