<svg width="48" height="48" viewBox="0 0 48 48" fill="none" xmlns="http://www.w3.org/2000/svg">
<g clip-path="url(#clip0_1518_28016)">
<mask id="mask0_1518_28016" style="mask-type:alpha" maskUnits="userSpaceOnUse" x="0" y="0" width="48" height="48">
<path d="M44 0H4C1.79086 0 0 1.79086 0 4V44C0 46.2091 1.79086 48 4 48H44C46.2091 48 48 46.2091 48 44V4C48 1.79086 46.2091 0 44 0Z" fill="white"/>
</mask>
<g mask="url(#mask0_1518_28016)">
<path d="M44 0H4C1.79086 0 0 1.79086 0 4V44C0 46.2091 1.79086 48 4 48H44C46.2091 48 48 46.2091 48 44V4C48 1.79086 46.2091 0 44 0Z" fill="#449488"/>
<path d="M35.1067 29.2695C31.9145 29.2695 29.3267 31.8573 29.3267 35.0495C29.3267 38.2417 31.9145 40.8295 35.1067 40.8295C38.2989 40.8295 40.8867 38.2417 40.8867 35.0495C40.8742 31.8625 38.2937 29.282 35.1067 29.2695ZM38.8467 33.4629L34.5967 37.7129C34.2793 38.0151 33.7807 38.0151 33.4633 37.7129L31.3667 35.6729C31.2859 35.6008 31.2397 35.4978 31.2397 35.3895C31.2397 35.2813 31.2859 35.1782 31.3667 35.1062L31.9333 34.5395C32.0054 34.4588 32.1084 34.4126 32.2167 34.4126C32.3249 34.4126 32.428 34.4588 32.5 34.5395L33.9733 36.0129L37.6567 32.3295C37.7287 32.2488 37.8318 32.2026 37.94 32.2026C38.0482 32.2026 38.1513 32.2488 38.2233 32.3295L38.79 32.8962C38.9489 33.0439 38.9732 33.2867 38.8467 33.4629Z" fill="white"/>
<path d="M20.8833 12.6666H30.9699C31.2113 12.6697 31.4437 12.5752 31.6144 12.4045C31.7851 12.2337 31.8797 12.0013 31.8767 11.7599V9.88995C31.8735 8.35773 30.6321 7.1164 29.0999 7.11328H22.6966C21.1644 7.1164 19.923 8.35773 19.9199 9.88995V11.7599C19.958 12.2659 20.3759 12.6592 20.8833 12.6666Z" fill="white"/>
<path d="M27.4566 37.2035H13.46C11.9473 37.1756 10.7366 35.9397 10.74 34.4268V15.1602H9.8333C8.32066 15.188 7.10995 16.4239 7.11329 17.9368V37.9968C7.10995 39.5097 8.32066 40.7456 9.8333 40.7735H29.61C28.5393 39.8356 27.7868 38.588 27.4566 37.2035Z" fill="white"/>
<path d="M15.84 35.0504H27.23C27.2745 34.3377 27.4077 33.6334 27.6267 32.9537C27.899 32.0302 28.341 31.1654 28.93 30.4037H23.6034C23.362 30.4068 23.1296 30.3123 22.9589 30.1416C22.7881 29.9709 22.6936 29.7384 22.6967 29.4971V28.5337C22.6936 28.2923 22.7881 28.0599 22.9589 27.8892C23.1296 27.7185 23.362 27.624 23.6034 27.6271H32.7834C32.8967 27.6271 32.9534 27.6271 33.01 27.6837C33.6743 27.4985 34.3604 27.4032 35.05 27.4004C36.3334 27.3978 37.5979 27.7091 38.7334 28.3071V12.2137C38.7302 10.6815 37.4889 9.44017 35.9567 9.43705H35.05C34.9269 9.42659 34.8054 9.47098 34.718 9.55837C34.6306 9.64576 34.5862 9.76725 34.5967 9.89039V11.7604C34.6062 13.8078 32.9606 15.4786 30.9134 15.5004H20.8834C18.8451 15.4574 17.2118 13.799 17.2 11.7604V9.89039C17.2105 9.76725 17.1661 9.64576 17.0787 9.55837C16.9913 9.47098 16.8698 9.42659 16.7467 9.43705H15.84C14.3078 9.44017 13.0665 10.6815 13.0634 12.2137V32.2171C13.0808 33.7527 14.3051 35.0019 15.84 35.0504ZM22.6966 19.1837C22.6936 18.9423 22.7881 18.7099 22.9589 18.5392C23.1296 18.3685 23.362 18.274 23.6034 18.2771H32.7834C33.0247 18.274 33.2572 18.3685 33.4279 18.5392C33.5986 18.7099 33.6931 18.9423 33.6901 19.1837V20.0904C33.6931 20.3318 33.5986 20.5642 33.4279 20.7349C33.2572 20.9056 33.0247 21.0001 32.7834 20.9971H23.66C23.4186 21.0001 23.1862 20.9056 23.0155 20.7349C22.8448 20.5642 22.7503 20.3318 22.7534 20.0904V19.1837H22.6966ZM22.6966 23.8304C22.6936 23.589 22.7881 23.3566 22.9589 23.1859C23.1296 23.0152 23.362 22.9206 23.6034 22.9237H32.7834C33.0247 22.9206 33.2572 23.0152 33.4279 23.1859C33.5986 23.3566 33.6931 23.589 33.6901 23.8304V24.7371C33.6931 24.9784 33.5986 25.2109 33.4279 25.3816C33.2572 25.5523 33.0247 25.6468 32.7834 25.6437H23.66C23.4186 25.6468 23.1862 25.5523 23.0155 25.3816C22.8448 25.2109 22.7503 24.9784 22.7534 24.7371V23.8304H22.6966ZM18.1634 19.1837C18.1603 18.9423 18.2548 18.7099 18.4255 18.5392C18.5962 18.3685 18.8286 18.274 19.07 18.2771H19.9767C20.2181 18.274 20.4505 18.3685 20.6212 18.5392C20.7919 18.7099 20.8864 18.9423 20.8834 19.1837V20.0904C20.8864 20.3318 20.7919 20.5642 20.6212 20.7349C20.4505 20.9056 20.2181 21.0001 19.9767 20.9971H19.07C18.8286 21.0001 18.5962 20.9056 18.4255 20.7349C18.2548 20.5642 18.1603 20.3318 18.1634 20.0904V19.1837ZM18.1634 23.8304C18.1603 23.589 18.2548 23.3566 18.4255 23.1859C18.5962 23.0152 18.8286 22.9206 19.07 22.9237H19.9767C20.2181 22.9206 20.4505 23.0152 20.6212 23.1859C20.7919 23.3566 20.8864 23.589 20.8834 23.8304V24.7371C20.8864 24.9784 20.7919 25.2109 20.6212 25.3816C20.4505 25.5523 20.2181 25.6468 19.9767 25.6437H19.07C18.8286 25.6468 18.5962 25.5523 18.4255 25.3816C18.2548 25.2109 18.1603 24.9784 18.1634 24.7371V23.8304ZM18.1634 28.5337C18.1603 28.2923 18.2548 28.0599 18.4255 27.8892C18.5962 27.7185 18.8286 27.624 19.07 27.6271H19.9767C20.2181 27.624 20.4505 27.7185 20.6212 27.8892C20.7919 28.0599 20.8864 28.2923 20.8834 28.5337V29.4404C20.8864 29.6818 20.7919 29.9142 20.6212 30.0849C20.4505 30.2556 20.2181 30.3501 19.9767 30.3471H19.07C18.8286 30.3501 18.5962 30.2556 18.4255 30.0849C18.2548 29.9142 18.1603 29.6818 18.1634 29.4404V28.5337Z" fill="white"/>
</g>
</g>
<defs>
<clipPath id="clip0_1518_28016">
<rect width="48" height="48" fill="white"/>
</clipPath>
</defs>
</svg>
