<svg width="48" height="48" viewBox="0 0 48 48" fill="none" xmlns="http://www.w3.org/2000/svg">
<rect width="48" height="48" rx="4" fill="#54698D"/>
<mask id="mask0_1518_27415" style="mask-type:luminance" maskUnits="userSpaceOnUse" x="0" y="0" width="48" height="48">
<rect width="48" height="48" rx="4" fill="white"/>
</mask>
<g mask="url(#mask0_1518_27415)">
<path d="M23.1081 36.1509H8.61634C8.00323 36.1509 7.50159 35.6493 7.50159 35.0362V32.8066C7.50159 32.1935 8.00323 31.6919 8.61634 31.6919H23.0524C23.6655 31.6919 24.1672 32.1935 24.1672 32.8066V35.0362C24.2229 35.5935 23.777 36.0952 23.1639 36.1509H23.1081Z" fill="white"/>
<path d="M23.1081 16.1968H8.61634C8.00323 16.1968 7.50159 15.6952 7.50159 15.0821V12.8525C7.50159 12.2394 8.00323 11.7378 8.61634 11.7378H23.0524C23.6655 11.7378 24.1672 12.2394 24.1672 12.8525V15.0821C24.2229 15.6394 23.777 16.1411 23.1639 16.1968H23.1081Z" fill="white"/>
<path d="M30.6328 33.2526C31.0229 33.6427 31.6918 33.6427 32.082 33.2526L40.6098 24.7804C41.0557 24.3903 41.0557 23.7214 40.7213 23.3312C40.6656 23.2755 40.6656 23.2755 40.6098 23.2198L32.082 14.6919C31.6918 14.246 31.0229 14.246 30.6328 14.5804C30.577 14.6362 30.577 14.6362 30.5213 14.6919L28.9607 16.2526C28.5147 16.6427 28.5147 17.3116 28.8492 17.7017C28.9049 17.7575 28.9049 17.7575 28.9607 17.8132L31.6361 20.4886C31.9147 20.7673 31.9147 21.2689 31.6361 21.5476C31.5246 21.6591 31.3016 21.7706 31.1344 21.7706H8.72786C8.11475 21.7706 7.55737 22.2722 7.55737 22.8853V25.1149C7.61311 25.728 8.11475 26.1739 8.72786 26.2296H31.2459C31.6361 26.2296 31.9705 26.564 31.9705 26.9542C31.9705 27.1214 31.9148 27.3444 31.7475 27.4558L29.0721 30.1312C28.6262 30.5214 28.6262 31.1903 28.9607 31.5804C29.0164 31.6362 29.0164 31.6362 29.0721 31.6919L30.6328 33.2526Z" fill="white"/>
</g>
</svg>
