<svg width="48" height="48" viewBox="0 0 48 48" fill="none" xmlns="http://www.w3.org/2000/svg">
<rect width="48" height="48" rx="4" fill="#0079BC"/>
<mask id="mask0_1518_27936" style="mask-type:luminance" maskUnits="userSpaceOnUse" x="0" y="0" width="48" height="48">
<rect width="48" height="48" rx="4" fill="white"/>
</mask>
<g mask="url(#mask0_1518_27936)">
<path fill-rule="evenodd" clip-rule="evenodd" d="M40.6656 12.7419C40.6656 12.5747 40.6098 12.4075 40.4984 12.2403L35.9279 7.72553C35.8721 7.61406 35.7049 7.55832 35.5377 7.55832H31.1344H31.0787H23.2197C21.6033 7.50258 20.2656 8.84029 20.2098 10.4567V10.5124V25.2272C20.2098 26.8436 21.5475 28.1813 23.1639 28.1813H23.2197H37.7115C39.3279 28.237 40.6656 26.8993 40.7213 25.2829V25.2272V13.5223L40.6656 12.7419ZM27.5672 24.4468C27.5672 25.1714 27.0098 25.7288 26.2852 25.7288H23.7771C23.1082 25.7288 22.5508 25.1157 22.5508 24.4468V21.9386C22.5508 21.2141 23.1082 20.6567 23.8328 20.6567H26.341C27.0656 20.6567 27.623 21.2141 27.623 21.9386L27.5672 24.4468ZM26.2852 18.8173C27.0098 18.8173 27.5672 18.26 27.5672 17.5354L27.623 15.0272C27.623 14.3026 27.0656 13.7452 26.341 13.7452H23.8328C23.1082 13.7452 22.5508 14.3026 22.5508 15.0272V17.5354C22.5508 18.2042 23.1082 18.8173 23.7771 18.8173H26.2852ZM34.5344 24.4468C34.5344 25.1714 33.9771 25.7288 33.2525 25.7288H30.7443C30.0197 25.7288 29.4623 25.1714 29.4623 24.4468V21.9386C29.4623 21.2141 30.0197 20.6567 30.7443 20.6567H33.2525C33.9771 20.6567 34.5344 21.2141 34.5344 21.9386V24.4468ZM33.2525 18.8173C33.9771 18.8173 34.5344 18.26 34.5344 17.5354V15.0272C34.5344 14.3026 33.9771 13.7452 33.2525 13.7452H30.7443C30.0197 13.7452 29.4623 14.3026 29.4623 15.0272V17.5354C29.4623 18.26 30.0197 18.8173 30.7443 18.8173H33.2525Z" fill="white"/>
<path d="M19.9869 31.358C18.3705 31.358 17.0328 30.0203 17.0328 28.4039V25.5613C17.0328 25.3383 17.0328 25.0596 17.0328 24.8367V13.1875C15.2492 13.1875 13.8 14.6367 13.8 16.4203V31.2465C13.8 33.0301 14.7476 34.535 17.0328 34.535H30.9673C32.7509 34.535 34.1443 33.1416 34.2 31.358H19.9869Z" fill="white"/>
<path d="M13.4656 37.8248C11.8492 37.8248 10.5115 36.4871 10.5115 34.8707V32.0838C10.5115 31.8609 10.5115 31.5822 10.5115 31.3592V19.6543C8.72787 19.6543 7.27869 21.1035 7.27869 22.8871V37.7133C7.27869 39.4969 8.22623 41.0018 10.5115 41.0018H24.4459C26.2295 41.0018 27.6229 39.6084 27.6787 37.8248H13.4656C13.5213 37.8248 13.4656 37.8248 13.4656 37.8248Z" fill="white"/>
</g>
</svg>
