<svg width="48" height="48" viewBox="0 0 48 48" fill="none" xmlns="http://www.w3.org/2000/svg">
<g clip-path="url(#clip0_1518_27946)">
<mask id="mask0_1518_27946" style="mask-type:alpha" maskUnits="userSpaceOnUse" x="0" y="0" width="48" height="48">
<path d="M44 0H4C1.79086 0 0 1.79086 0 4V44C0 46.2091 1.79086 48 4 48H44C46.2091 48 48 46.2091 48 44V4C48 1.79086 46.2091 0 44 0Z" fill="white"/>
</mask>
<g mask="url(#mask0_1518_27946)">
<path d="M44 0H4C1.79086 0 0 1.79086 0 4V44C0 46.2091 1.79086 48 4 48H44C46.2091 48 48 46.2091 48 44V4C48 1.79086 46.2091 0 44 0Z" fill="#449488"/>
<path d="M14.2533 37.3168C12.7407 37.2889 11.5299 36.053 11.5333 34.5401V15.2734H10.6266C9.11399 15.3013 7.90328 16.5372 7.90662 18.0501V38.1101C7.90328 39.623 9.11399 40.8589 10.6266 40.8868H30.8C32.3126 40.8589 33.5233 39.623 33.52 38.1101V37.3168H14.2533Z" fill="white"/>
<path d="M21.7333 12.7799H31.82C32.0614 12.783 32.2938 12.6884 32.4645 12.5177C32.6352 12.347 32.7297 12.1146 32.7267 11.8732V10.0032C32.7235 8.47101 31.4822 7.22968 29.95 7.22656H23.5467C22.0144 7.22968 20.7731 8.47101 20.77 10.0032V11.8732C20.8081 12.3792 21.226 12.7725 21.7333 12.7799ZM36.8633 9.5499H35.9567C35.8335 9.53943 35.712 9.58382 35.6246 9.67121C35.5373 9.7586 35.4929 9.88009 35.5033 10.0032V11.8732C35.5128 13.9206 33.8673 15.5914 31.82 15.6132H21.7333C19.686 15.5914 18.0405 13.9206 18.05 11.8732V10.0032C18.0605 9.88009 18.0161 9.7586 17.9287 9.67121C17.8413 9.58382 17.7198 9.53943 17.5967 9.5499H16.69C15.1578 9.55301 13.9164 10.7943 13.9133 12.3266V32.3299C13.9164 33.8621 15.1578 35.1034 16.69 35.1066H36.8633C38.3955 35.1034 39.6369 33.8621 39.64 32.3299V12.3266C39.6369 10.7943 38.3955 9.55301 36.8633 9.5499ZM21.7333 29.5532C21.7364 29.7946 21.6419 30.027 21.4712 30.1977C21.3005 30.3684 21.0681 30.463 20.8267 30.4599H19.92C19.6786 30.463 19.4462 30.3684 19.2755 30.1977C19.1048 30.027 19.0103 29.7946 19.0133 29.5532V28.6466C19.0103 28.4052 19.1048 28.1728 19.2755 28.0021C19.4462 27.8314 19.6786 27.7368 19.92 27.7399H20.8267C21.0681 27.7368 21.3005 27.8314 21.4712 28.0021C21.6419 28.1728 21.7364 28.4052 21.7333 28.6466V29.5532ZM21.7333 24.9066C21.7364 25.148 21.6419 25.3804 21.4712 25.5511C21.3005 25.7218 21.0681 25.8163 20.8267 25.8132H19.92C19.6786 25.8163 19.4462 25.7218 19.2755 25.5511C19.1048 25.3804 19.0103 25.148 19.0133 24.9066V23.9999C19.0103 23.7585 19.1048 23.5261 19.2755 23.3554C19.4462 23.1847 19.6786 23.0902 19.92 23.0932H20.8267C21.0681 23.0902 21.3005 23.1847 21.4712 23.3554C21.6419 23.5261 21.7364 23.7585 21.7333 23.9999V24.9066ZM21.7333 20.2599C21.7364 20.5013 21.6419 20.7337 21.4712 20.9044C21.3005 21.0751 21.0681 21.1696 20.8267 21.1666H19.92C19.6786 21.1696 19.4462 21.0751 19.2755 20.9044C19.1048 20.7337 19.0103 20.5013 19.0133 20.2599V19.3532C19.0103 19.1118 19.1048 18.8794 19.2755 18.7087C19.4462 18.538 19.6786 18.4435 19.92 18.4466H20.8267C21.0681 18.4435 21.3005 18.538 21.4712 18.7087C21.6419 18.8794 21.7364 19.1118 21.7333 19.3532V20.2599ZM34.5967 29.5532C34.5997 29.7946 34.5052 30.027 34.3345 30.1977C34.1638 30.3684 33.9314 30.463 33.69 30.4599H24.51C24.2686 30.463 24.0362 30.3684 23.8655 30.1977C23.6948 30.027 23.6003 29.7946 23.6033 29.5532V28.6466C23.6003 28.4052 23.6948 28.1728 23.8655 28.0021C24.0362 27.8314 24.2686 27.7368 24.51 27.7399H33.69C33.9314 27.7368 34.1638 27.8314 34.3345 28.0021C34.5052 28.1728 34.5997 28.4052 34.5967 28.6466V29.5532ZM34.5967 24.9066C34.5997 25.148 34.5052 25.3804 34.3345 25.5511C34.1638 25.7218 33.9314 25.8163 33.69 25.8132H24.51C24.2686 25.8163 24.0362 25.7218 23.8655 25.5511C23.6948 25.3804 23.6003 25.148 23.6033 24.9066V23.9999C23.6003 23.7585 23.6948 23.5261 23.8655 23.3554C24.0362 23.1847 24.2686 23.0902 24.51 23.0932H33.69C33.9314 23.0902 34.1638 23.1847 34.3345 23.3554C34.5052 23.5261 34.5997 23.7585 34.5967 23.9999V24.9066ZM34.5967 20.2599C34.5997 20.5013 34.5052 20.7337 34.3345 20.9044C34.1638 21.0751 33.9314 21.1696 33.69 21.1666H24.51C24.2686 21.1696 24.0362 21.0751 23.8655 20.9044C23.6948 20.7337 23.6003 20.5013 23.6033 20.2599V19.3532C23.6003 19.1118 23.6948 18.8794 23.8655 18.7087C24.0362 18.538 24.2686 18.4435 24.51 18.4466H33.69C33.9314 18.4435 34.1638 18.538 34.3345 18.7087C34.5052 18.8794 34.5997 19.1118 34.5967 19.3532V20.2599Z" fill="white"/>
</g>
</g>
<defs>
<clipPath id="clip0_1518_27946">
<rect width="48" height="48" fill="white"/>
</clipPath>
</defs>
</svg>
