<svg width="48" height="48" viewBox="0 0 48 48" fill="none" xmlns="http://www.w3.org/2000/svg">
<rect width="48" height="48" rx="4" fill="#0079BC"/>
<mask id="mask0_1518_27930" style="mask-type:luminance" maskUnits="userSpaceOnUse" x="0" y="0" width="48" height="48">
<rect width="48" height="48" rx="4" fill="white"/>
</mask>
<g mask="url(#mask0_1518_27930)">
<path d="M17.7666 13.8H30.2333C30.8566 13.8 31.3666 13.29 31.3666 12.6667V10.4C31.3666 8.53 29.8366 7 27.9666 7H20.0333C18.1633 7 16.6333 8.53 16.6333 10.4V12.6667C16.6333 13.29 17.1433 13.8 17.7666 13.8Z" fill="white"/>
<path d="M23.8866 23.0928V29.5528H29.9499C29.9499 29.5528 30.2899 27.2862 28.1933 25.1328C26.0966 22.9795 23.8866 23.0928 23.8866 23.0928Z" fill="white"/>
<path d="M12.6665 9.83398C13.0064 9.83398 13.2328 10.0605 13.2329 10.4004V12.667C13.2329 15.1603 15.2738 17.2002 17.7671 17.2002H30.2329C32.7262 17.2002 34.7671 15.1603 34.7671 12.667V10.4004C34.7672 10.0605 34.9936 9.83398 35.3335 9.83398H36.4663C38.3363 9.83398 39.8667 11.3644 39.8667 13.2344V37.6006C39.8667 39.4706 38.3363 41.001 36.4663 41.001H11.5337C9.66369 41.001 8.1333 39.4706 8.1333 37.6006V13.2344C8.1333 11.3644 9.66369 9.83398 11.5337 9.83398H12.6665ZM24.0562 20.7705C19.4097 20.7141 15.6129 24.5108 15.5562 29.1572C15.4995 33.8037 19.2964 37.6003 23.9429 37.6572C28.5895 37.7139 32.3862 33.9172 32.4429 29.2705C32.4428 24.6239 28.7028 20.7705 24.0562 20.7705Z" fill="white"/>
</g>
</svg>
