<svg width="26" height="26" viewBox="0 0 26 26" fill="none" xmlns="http://www.w3.org/2000/svg">
<path fill-rule="evenodd" clip-rule="evenodd" d="M21.4875 4.4875C16.7875 -0.1625 9.1875 -0.1625 4.4875 4.4875C-0.1625 9.1875 -0.1625 16.7875 4.4875 21.4875C9.1875 26.1875 16.7875 26.1875 21.4375 21.4875C26.1375 16.7875 26.1375 9.1875 21.4875 4.4875ZM20.9875 13.9875C20.9875 14.2875 20.7875 14.4875 20.4875 14.4875H14.9875C14.7375 14.4875 14.4875 14.7375 14.4875 14.9875V20.4875C14.4875 20.7375 14.2375 20.9875 13.9875 20.9875H11.9875C11.6875 20.9875 11.4875 20.7875 11.4875 20.4875V14.9875C11.4875 14.6875 11.2875 14.4875 10.9875 14.4875H5.4875C5.1875 14.4875 4.9875 14.2875 4.9875 13.9875V11.9875C4.9875 11.7375 5.2375 11.4875 5.4875 11.4875H10.9875C11.2875 11.4875 11.4875 11.2875 11.4875 10.9875V5.4875C11.4875 5.2375 11.7375 4.9875 11.9875 4.9875H13.9875C14.2375 4.9875 14.4875 5.1875 14.4875 5.4875V10.9875C14.4875 11.2875 14.6875 11.4875 14.9875 11.4875H20.4875C20.7375 11.4875 20.9875 11.7375 20.9875 11.9875V13.9875Z" fill="#706E6B"/>
</svg>
