<svg width="26" height="26" viewBox="0 0 26 26" fill="none" xmlns="http://www.w3.org/2000/svg">
<path fill-rule="evenodd" clip-rule="evenodd" d="M25.25 3H4.75C4.35 3 4 3.35 4 3.75V19C4 19.6 3.45 20.1 2.85 20C2.35 19.9 2 19.45 2 18.95V8C2 7.7 1.8 7.5 1.5 7.5H0.75C0.35 7.5 0 7.85 0 8.25V21C0 22.1 0.9 23 2 23H24C25.1 23 26 22.1 26 21V3.75C26 3.35 25.65 3 25.25 3ZM14 17.5C14 17.8 13.8 18 13.5 18H7.5C7.2 18 7 17.8 7 17.5V16.5C7 16.2 7.2 16 7.5 16H13.5C13.8 16 14 16.2 14 16.5V17.5ZM14 13.5C14 13.8 13.8 14 13.5 14H7.5C7.2 14 7 13.8 7 13.5V12.5C7 12.2 7.2 12 7.5 12H13.5C13.8 12 14 12.2 14 12.5V13.5ZM23 17.5C23 17.8 22.8 18 22.5 18H16.5C16.2 18 16 17.8 16 17.5V16.5C16 16.2 16.2 16 16.5 16H22.5C22.8 16 23 16.2 23 16.5V17.5ZM23 13.5C23 13.8 22.8 14 22.5 14H16.5C16.2 14 16 13.8 16 13.5V12.5C16 12.2 16.2 12 16.5 12H22.5C22.8 12 23 12.2 23 12.5V13.5ZM23 9.5C23 9.8 22.8 10 22.5 10H7.5C7.2 10 7 9.8 7 9.5V6.5C7 6.2 7.2 6 7.5 6H22.5C22.8 6 23 6.2 23 6.5V9.5Z" fill="#706E6B"/>
</svg>
