<svg width="26" height="26" viewBox="0 0 26 26" fill="none" xmlns="http://www.w3.org/2000/svg">
<path fill-rule="evenodd" clip-rule="evenodd" d="M20.7 20.35L20.25 20.8C19.75 21.3 19.1 21.55 18.4 21.55H17.1C15.9 21.55 14.6 20.6 14.6 18.95V17.7C14.6 16.7 15.05 16.1 15.3 15.75L20.7 10.25C20.85 10.1 21 9.75 21 9.55V5.4C21 4.1 19.9 3 18.6 3H5.8C4.5 3 3.4 4.2 3.4 5.4H2.6C1.7 5.4 1 6.15 1 7.05C1 7.95 1.7 8.65 2.6 8.65H3.4V11.9H2.6C1.7 11.9 1 12.6 1 13.5C1 14.4 1.7 15.1 2.6 15.1H3.4V18.35H2.6C1.7 18.35 1 19.1 1 19.95C1 20.85 1.7 21.55 2.6 21.55H3.4C3.4 23.15 4.5 23.95 5.8 23.95H18.6C19.9 23.95 21 22.85 21 21.55V20.5C21 20.25 20.9 20.2 20.7 20.35ZM16.6 9.05C16.6 9.5 16.25 9.85 15.8 9.85H7.8C7.35 9.85 7 9.5 7 9.05V8.25C7 7.8 7.35 7.45 7.8 7.45H15.8C16.25 7.45 16.6 7.8 16.6 8.25V9.05ZM13 18.75C13 19.2 12.65 19.55 12.2 19.55H7.8C7.35 19.55 7 19.2 7 18.75V17.95C7 17.5 7.35 17.15 7.8 17.15H12.2C12.65 17.15 13 17.5 13 17.95V18.75ZM14.2 13.9C14.2 14.35 13.85 14.7 13.4 14.7H7.8C7.35 14.7 7 14.35 7 13.9V13.1C7 12.65 7.35 12.3 7.8 12.3H13.4C13.85 12.3 14.2 12.65 14.2 13.1V13.9ZM24.75 11.7L24.25 11.2C23.95 10.9 23.45 10.9 23.15 11.2L17.05 17.5C17 17.5 17 17.6 17 17.6V18.95C17 19.05 17 19.15 17.1 19.15H18.4C18.45 19.15 18.5 19.1 18.55 19.1L24.7 12.9C25.1 12.55 25.1 12.05 24.75 11.7Z" fill="#706E6B"/>
</svg>
