<svg width="26" height="26" viewBox="0 0 26 26" fill="none" xmlns="http://www.w3.org/2000/svg">
<path fill-rule="evenodd" clip-rule="evenodd" d="M22.4 24.75H3.6C2.3 24.75 1.25 23.7 1.25 22.4V3.6C1.25 2.3 2.3 1.25 3.6 1.25H22.4C23.7 1.25 24.75 2.3 24.75 3.6V22.4C24.75 23.7 23.7 24.75 22.4 24.75ZM4.4 5.15V20.8C4.4 21.25 4.75 21.6 5.2 21.6H20.85C21.3 21.6 21.65 21.25 21.65 20.8V5.15C21.65 4.7 21.3 4.35 20.85 4.35H5.2C4.75 4.4 4.4 4.75 4.4 5.15ZM18.1 10.15H16.65L17.25 7.75V7.7C17.25 7.6 17.2 7.5 17.05 7.5H15.9C15.8 7.5 15.75 7.55 15.7 7.65L15.1 10.1H12.2L12.8 7.7V7.65C12.8 7.55 12.75 7.45 12.6 7.45H11.45C11.35 7.45 11.3 7.5 11.25 7.6L10.6 10.05H9C8.9 10.05 8.85 10.1 8.8 10.2L8.5 11.3V11.35C8.5 11.45 8.55 11.55 8.7 11.55H10.2L9.5 14.35H7.95C7.85 14.35 7.8 14.4 7.75 14.5L7.45 15.6V15.65C7.45 15.75 7.5 15.85 7.65 15.85H9.1L8.5 18.25V18.3C8.5 18.4 8.55 18.5 8.7 18.5H9.85C9.95 18.5 10 18.45 10.05 18.35L10.7 15.85H13.55L13 18.2V18.25C13 18.35 13.05 18.45 13.2 18.45H14.35C14.45 18.45 14.5 18.4 14.55 18.3L15.2 15.8H16.8C16.9 15.8 16.95 15.75 17 15.65L17.3 14.55V14.5C17.3 14.4 17.25 14.3 17.1 14.3H15.6L16.3 11.5H17.85C17.95 11.5 18 11.45 18.05 11.35L18.35 10.25V10.2C18.3 10.25 18.2 10.15 18.1 10.15ZM14.05 14.4H11.15L11.85 11.6H14.7L14.05 14.4Z" fill="#706E6B"/>
</svg>
