<svg width="26" height="26" viewBox="0 0 26 26" fill="none" xmlns="http://www.w3.org/2000/svg">
<path fill-rule="evenodd" clip-rule="evenodd" d="M17.95 12.9504C17 12.9504 15.6 13.1004 14.3 14.1004L14.1 14.1504C14.0667 14.2171 13.9889 14.2837 13.9112 14.3504L13.9111 14.3504C13.8723 14.3837 13.8334 14.4171 13.8 14.4504C13.15 15.1004 12.6 15.8504 12.1 16.5504C11.995 16.6905 11.939 16.8552 11.8804 17.0272C11.8554 17.1007 11.83 17.1755 11.8 17.2504V14.0504H9.05005C9.25005 17.5504 10.3 20.4004 11.55 21.6504C11.15 22.0504 10.75 22.6004 10.6 23.3004C10.5 23.7004 10.45 24.1004 10.55 24.5004C5.15005 23.3504 1.05005 18.5504 1.05005 12.8004C1.05005 6.25039 6.45005 0.900391 13 0.900391C19.55 0.900391 24.95 6.25039 24.9 12.8004H23.85C23.6559 12.8004 23.4501 12.8122 23.2381 12.8243L23.2381 12.8243C23.0133 12.8371 22.7817 12.8504 22.55 12.8504C22.2 12.9004 21.85 12.9004 21.5 12.9004L17.95 12.9504ZM19.3 11.7004H22.45C22.05 8.65039 20.25 6.00039 17.6 4.55039C18.55 6.40039 19.2 8.85039 19.3 11.7004ZM14.2 3.85039C15.55 5.00039 16.75 7.95039 16.95 11.7004H14.2V3.85039ZM11.8 11.7004V3.85039C10.45 5.00039 9.25005 7.95039 9.05005 11.7004H11.8ZM3.55005 14.1004H6.70005C6.80005 16.9504 7.45005 19.4004 8.40005 21.2504C5.75005 19.8004 3.95005 17.1504 3.55005 14.1004ZM3.55005 11.7004H6.65005C6.85005 8.90039 7.45005 6.40039 8.40005 4.55039C5.80005 6.00039 3.95005 8.65039 3.55005 11.7004ZM12.3 20.9504C12.375 20.9004 12.45 20.8254 12.5188 20.7566C12.5875 20.6879 12.65 20.6254 12.7 20.6004C12.7406 20.5396 12.7975 20.4789 12.8575 20.4148C12.9457 20.3207 13.0406 20.2194 13.1 20.1004C12.45 19.8004 12 19.2504 11.8 18.6004V21.4504C12 21.2004 12.15 21.0504 12.3 20.9504ZM24.55 14.8504C24.65 14.8504 24.7 14.8504 24.8 14.9504C24.95 15.1004 24.95 15.2004 24.85 15.3504C24.8257 15.4315 24.8014 15.5179 24.7764 15.6066C24.6474 16.0644 24.5014 16.5828 24.25 16.7504C23.9914 16.9351 23.2961 16.8742 22.7892 16.8297C22.6101 16.814 22.4545 16.8004 22.35 16.8004C21.85 16.8504 21.85 16.8504 21.65 17.2504C21.575 17.4004 21.5 17.5754 21.425 17.7504C21.35 17.9254 21.275 18.1004 21.2 18.2504C20.95 18.8004 20.7 19.3504 20.5 19.9504C20.4698 20.0411 20.4201 20.1662 20.3615 20.3136C20.0328 21.141 19.424 22.6731 20.4 22.8004C20.9 22.9004 21.4 22.5004 21.6 22.0504C21.6149 22.0133 21.6297 21.9719 21.6453 21.9281C21.7352 21.6769 21.8519 21.3504 22.15 21.3504C22.3 21.3504 22.4 21.4504 22.5 21.6004C22.55 21.8004 22.5 21.9504 22.4 22.1004C22.3584 22.1745 22.3167 22.2495 22.2747 22.3249C21.8637 23.0641 21.4259 23.8513 20.7 24.3504C19.95 24.9504 18.55 25.3004 18.05 24.2504C17.6 23.3052 18.1222 22.0359 18.5228 21.0625C18.5672 20.9546 18.6101 20.8502 18.65 20.7504C19.2 19.4504 19.75 18.1504 20.3 16.9004H18.75C18.15 16.9004 18.1 16.9004 17.85 17.4504C17.5 18.3504 17.1 19.3004 16.7 20.2004C16.35 21.1004 15.9 22.0004 15.4 22.9004C15.3464 22.9838 15.2928 23.0694 15.2385 23.1559C14.8378 23.7952 14.4047 24.4862 13.7 24.7504C13.1 25.0004 12.25 24.8004 12.45 23.9504C12.5924 23.381 13.1146 22.913 13.5841 22.4922C13.7743 22.3217 13.9559 22.159 14.1 22.0004C15.4 20.6004 16.25 18.6004 16.9 16.8504C16.15 16.7504 15.4 17.0504 14.85 17.5504C14.7813 17.6421 14.7125 17.7233 14.6485 17.7988C14.573 17.888 14.5042 17.9692 14.45 18.0504C14.4355 18.0723 14.4219 18.0942 14.4087 18.1156C14.3312 18.241 14.2636 18.3504 14.05 18.3504C13.85 18.3504 13.65 18.2004 13.65 17.9504C13.65 17.8772 13.6768 17.8308 13.7108 17.7719C13.7233 17.7504 13.7367 17.7272 13.75 17.7004C14.15 17.1004 14.7 16.4504 15.2 15.9504C16.05 15.2004 16.95 14.9504 18 14.9504L21.55 14.9004C21.9239 14.9004 22.3131 14.8849 22.7088 14.8692C23.3186 14.8449 23.9435 14.8201 24.55 14.8504Z" fill="#706E6B"/>
</svg>
