<svg width="26" height="26" viewBox="0 0 26 26" fill="none" xmlns="http://www.w3.org/2000/svg">
<path fill-rule="evenodd" clip-rule="evenodd" d="M7.95 14.5C7.25 13.45 6.9 12.25 6.9 10.9C6.9 8.6 7.85 6.7 9.35 5.55C8.85 4.65 7.85 4 6.55 4C4.35 4 3.1 5.8 3.1 7.85C3.1 8.95 3.45 9.9 4.2 10.55C4.6 10.95 4.95 11.45 4.95 11.95C4.95 12.45 4.75 12.95 3.5 13.5C1.7 14.3 0.05 15.4 0 17.05C0.05 18.15 0.75 19 1.8 19H3.45C3.7 19 3.95 18.85 4.1 18.6C4.9 17.15 6.4 16.25 7.65 15.6C8.1 15.4 8.2 14.85 7.95 14.5ZM22.55 13.5C21.3 12.95 21.1 12.5 21.1 11.95C21.1 11.4 21.45 10.9 21.85 10.55C22.6 9.85 22.95 8.95 22.95 7.85C22.95 5.8 21.75 4 19.5 4C18.2 4 17.2 4.65 16.65 5.55C18.15 6.7 19.1 8.6 19.1 10.9C19.1 12.25 18.75 13.45 18.05 14.5C17.8 14.9 17.95 15.4 18.35 15.6C19.6 16.2 21.1 17.15 21.9 18.6C22.05 18.85 22.3 19 22.55 19H24.2C25.25 19 25.95 18.15 25.95 17.05C26 15.4 24.35 14.3 22.55 13.5ZM16.35 17.15C15 16.55 14.75 16 14.75 15.45C14.75 14.85 15.15 14.3 15.6 13.9C16.4 13.15 16.85 12.1 16.85 10.9C16.85 8.65 15.5 6.7 13.05 6.7C10.6 6.7 9.25 8.65 9.25 10.9C9.25 12.1 9.7 13.15 10.5 13.9C10.95 14.35 11.35 14.9 11.35 15.45C11.35 16.05 11.15 16.55 9.75 17.15C7.75 18 5.85 18.95 5.8 20.75C5.8 21.95 6.7 22.95 7.85 22.95H18.25C19.4 22.95 20.3 21.95 20.3 20.75C20.25 19 18.35 18.05 16.35 17.15Z" fill="#706E6B"/>
</svg>
