<svg width="48" height="48" viewBox="0 0 48 48" fill="none" xmlns="http://www.w3.org/2000/svg">
<rect width="48" height="48" rx="4" fill="#969492"/>
<mask id="mask0_1518_27702" style="mask-type:luminance" maskUnits="userSpaceOnUse" x="0" y="0" width="48" height="48">
<rect width="48" height="48" rx="4" fill="white"/>
</mask>
<g mask="url(#mask0_1518_27702)">
<path fill-rule="evenodd" clip-rule="evenodd" d="M10.4 41H37.6C39.47 41 41 39.47 41 37.6V10.4C41 8.53 39.47 7 37.6 7H10.4C8.53 7 7 8.53 7 10.4V37.6C7 39.47 8.53 41 10.4 41ZM11.59 35.3333V12.6667C11.59 12.0433 12.1 11.5333 12.7233 11.5333H35.3333C35.9567 11.5333 36.4667 12.0433 36.4667 12.6667V35.3333C36.4667 35.9567 35.9567 36.4667 35.3333 36.4667H12.7233C12.1 36.4667 11.59 35.9567 11.59 35.3333Z" fill="white"/>
<path fill-rule="evenodd" clip-rule="evenodd" d="M29.2701 19.9197H31.3667C31.5367 19.9197 31.6501 19.9764 31.5934 20.033L31.1967 21.6197C31.1401 21.7897 31.0267 21.8464 30.9134 21.8464H28.7034L27.6834 25.8697H29.8367C30.0067 25.8697 30.1201 26.0397 30.1201 26.153V26.2097L29.7234 27.7964C29.6667 27.9664 29.5534 28.023 29.4401 28.023H27.1167L26.2101 31.6497C26.1534 31.8197 26.0401 31.8764 25.9267 31.8764H24.2834C24.1134 31.8764 24.0001 31.7064 24.0001 31.593V31.5364L24.9067 28.1364H20.7701L19.8634 31.763C19.8067 31.933 19.6934 31.9897 19.5801 31.9897H17.9367C17.7667 31.9897 17.6534 31.8197 17.6534 31.7064V31.6497L18.5601 28.1364H16.4634C16.2934 28.1364 16.1801 27.9664 16.1801 27.853V27.7964L16.5767 26.2097C16.6334 26.0964 16.7467 26.0397 16.8601 26.0397H19.1267L20.1467 22.0164H17.9367C17.7667 22.0164 17.6534 21.8464 17.6534 21.733V21.6764L18.0501 20.0897C18.1067 19.9764 18.2201 19.9197 18.3334 19.9197H20.6567L21.5634 16.3497C21.6201 16.2364 21.7334 16.123 21.8467 16.123H23.4901C23.6601 16.123 23.7734 16.293 23.7734 16.4064V16.463L22.8667 19.9197H27.0601L27.9667 16.3497C28.0234 16.2364 28.1367 16.123 28.2501 16.123H29.8934C30.0634 16.123 30.1767 16.293 30.1767 16.4064V16.463L29.2701 19.9197ZM21.3367 26.0397H25.5301L26.4934 22.0164H22.3567L21.3367 26.0397Z" fill="white"/>
</g>
</svg>
