<svg width="40" height="40" viewBox="0 0 40 40" fill="none" xmlns="http://www.w3.org/2000/svg">
<rect width="40" height="40" rx="20" fill="#76C6EE"/>
<mask id="mask0_1518_28086" style="mask-type:luminance" maskUnits="userSpaceOnUse" x="0" y="0" width="40" height="40">
<rect width="40" height="40" rx="20" fill="white"/>
</mask>
<g mask="url(#mask0_1518_28086)">
<path fill-rule="evenodd" clip-rule="evenodd" d="M31.1673 11.6735L24.1143 8.14694C23.7714 8 23.3796 8 23.0857 8.14694L16.5714 11.4286L10.0081 8.14694C9.6163 7.95102 9.12651 7.95102 8.78365 8.19592C8.44079 8.39184 8.24487 8.78368 8.24487 9.17551V26.8082C8.24487 27.249 8.48977 27.6408 8.88161 27.8367L15.9347 31.3633C16.2775 31.5102 16.6694 31.5102 16.9632 31.3633L23.5265 28.0816L30.0408 31.3633C30.1877 31.4612 30.3836 31.5102 30.5796 31.5102C30.7755 31.5102 31.0204 31.4612 31.2163 31.3143C31.5592 31.1184 31.7551 30.7265 31.7551 30.3347V12.702C31.7551 12.2612 31.5592 11.8694 31.1673 11.6735ZM29.3061 23.2327C29.3061 23.7714 28.8163 24.1633 28.3265 23.9674C27.3455 23.5962 27.3261 22.536 27.3049 21.3774C27.287 20.3958 27.2678 19.3434 26.6612 18.5796C26.1221 17.9111 25.5164 17.8407 24.8778 17.7666C24.066 17.6723 23.2008 17.5718 22.351 16.2286C20.9306 13.9265 22.8408 12.2612 24.6041 11.3796C24.849 11.2816 25.0939 11.2816 25.2898 11.3796L28.9143 13.1918C29.2081 13.3388 29.3061 13.6327 29.3061 13.9265V23.2327ZM18.5796 27.4449C18.8245 27.6408 19.1673 27.6898 19.4612 27.5429L20 27.3469C20.1959 27.249 20.3428 27.0531 20.3918 26.8571C20.4452 26.6793 20.4985 26.4854 20.5542 26.2829C20.8053 25.3699 21.104 24.2837 21.6653 23.7225C22.8408 22.5469 22.449 20.9796 21.6653 20.1959C20.8816 19.4122 20.4898 19.0204 18.1388 19.8041C16.308 20.4143 15.9028 19.8366 15.4431 19.1809C15.3125 18.9946 15.1775 18.802 15.0041 18.6286C14.6122 18.2367 14.1224 18.2367 13.6816 18.2367C13.2408 18.2367 12.849 18.2367 12.653 17.8449C12.2612 17.0612 13.4367 16.2776 14.6122 16.6694C15.0206 16.8055 15.3284 17.0657 15.5912 17.2879C16.085 17.7052 16.4198 17.9882 16.9632 17.0612C17.6979 15.7878 18.0408 14.9551 16.2775 13.9265L16.1306 13.8286C16.1306 13.8286 16.0816 13.7796 16.0326 13.7796L11.8204 11.6735C11.3306 11.3796 10.7428 11.7714 10.7428 12.3592V19.5102C10.7428 20 11.0857 20.3429 11.5755 20.2939C13.4857 20.098 15.7388 20.5878 15.7388 22.498C15.7388 23.8752 16.411 24.3112 16.968 24.6723C17.3618 24.9277 17.6979 25.1457 17.6979 25.6327C17.6979 26.3184 18.0898 27.0041 18.5796 27.4449Z" fill="white"/>
</g>
</svg>
