<svg width="40" height="40" viewBox="0 0 40 40" fill="none" xmlns="http://www.w3.org/2000/svg">
<rect width="40" height="40" rx="20" fill="#62B7ED"/>
<mask id="mask0_1518_28088" style="mask-type:luminance" maskUnits="userSpaceOnUse" x="0" y="0" width="40" height="40">
<rect width="40" height="40" rx="20" fill="white"/>
</mask>
<g mask="url(#mask0_1518_28088)">
<path fill-rule="evenodd" clip-rule="evenodd" d="M11 17C12.65 17 14 18.35 14 20C14 21.65 12.65 23 11 23C9.35 23 8 21.65 8 20C8 18.35 9.35 17 11 17ZM20 17C21.65 17 23 18.35 23 20C23 21.65 21.65 23 20 23C18.35 23 17 21.65 17 20C17 18.35 18.35 17 20 17ZM32 20C32 18.35 30.65 17 29 17C27.35 17 26 18.35 26 20C26 21.65 27.35 23 29 23C30.65 23 32 21.65 32 20Z" fill="white"/>
</g>
</svg>
