<svg width="26" height="26" viewBox="0 0 26 26" fill="none" xmlns="http://www.w3.org/2000/svg">
<path fill-rule="evenodd" clip-rule="evenodd" d="M24 17C24.55 17 25 16.55 25 16V3C25 2.45 24.55 2 24 2H2C1.45 2 1 2.45 1 3V16C1 16.55 1.45 17 2 17H24ZM3 15V4H23V15H3ZM6.85 6.65C6.85 7.05 6.5 7.4 6.1 7.4H5.6C5.2 7.4 4.85 7.05 4.85 6.65V6.15C4.85 5.75 5.2 5.4 5.6 5.4H6.1C6.5 5.4 6.85 5.75 6.85 6.15V6.65ZM9.7 6.15C9.7 5.75 9.35 5.4 8.95 5.4H8.45C8.05 5.4 7.7 5.75 7.7 6.15V6.65C7.7 7.05 8.05 7.4 8.45 7.4H8.95C9.35 7.4 9.7 7.05 9.7 6.65V6.15ZM15.45 6.65C15.45 7.05 15.1 7.4 14.7 7.4H14.2C13.8 7.4 13.45 7.05 13.45 6.65V6.15C13.45 5.75 13.8 5.4 14.2 5.4H14.7C15.1 5.4 15.45 5.75 15.45 6.15V6.65ZM12.55 6.65C12.55 7.05 12.2 7.4 11.8 7.4H11.3C10.9 7.4 10.55 7.05 10.55 6.65V6.15C10.55 5.75 10.9 5.4 11.3 5.4H11.8C12.2 5.4 12.55 5.75 12.55 6.15V6.65ZM21.2 6.15C21.2 5.75 20.85 5.4 20.45 5.4H19.95C19.55 5.4 19.2 5.75 19.2 6.15V6.65C19.2 7.05 19.55 7.4 19.95 7.4H20.45C20.85 7.4 21.2 7.05 21.2 6.65V6.15ZM18.3 6.15C18.3 5.75 17.95 5.4 17.55 5.4H17.05C16.65 5.4 16.3 5.75 16.3 6.15V6.65C16.3 7.05 16.65 7.4 17.05 7.4H17.55C17.95 7.4 18.3 7.05 18.3 6.65V6.15ZM6.85 9.65C6.85 10.05 6.5 10.4 6.1 10.4H5.6C5.2 10.4 4.85 10.05 4.85 9.65V9.15C4.85 8.75 5.2 8.4 5.6 8.4H6.1C6.5 8.4 6.85 8.75 6.85 9.15V9.65ZM9.7 9.15C9.7 8.75 9.35 8.4 8.95 8.4H8.45C8.05 8.4 7.7 8.75 7.7 9.15V9.65C7.7 10.05 8.05 10.4 8.45 10.4H8.95C9.35 10.4 9.7 10.05 9.7 9.65V9.15ZM15.45 9.65C15.45 10.05 15.1 10.4 14.7 10.4H14.2C13.8 10.4 13.45 10.05 13.45 9.65V9.15C13.45 8.75 13.8 8.4 14.2 8.4H14.7C15.1 8.4 15.45 8.75 15.45 9.15V9.65ZM12.55 9.65C12.55 10.05 12.2 10.4 11.8 10.4H11.3C10.9 10.4 10.55 10.05 10.55 9.65V9.15C10.55 8.75 10.9 8.4 11.3 8.4H11.8C12.2 8.4 12.55 8.75 12.55 9.15V9.65ZM21.2 9.15C21.2 8.75 20.85 8.4 20.45 8.4H19.95C19.55 8.4 19.2 8.75 19.2 9.15V9.65C19.2 10.05 19.55 10.4 19.95 10.4H20.45C20.85 10.4 21.2 10.05 21.2 9.65V9.15ZM18.3 9.15C18.3 8.75 17.95 8.4 17.55 8.4H17.05C16.65 8.4 16.3 8.75 16.3 9.15V9.65C16.3 10.05 16.65 10.4 17.05 10.4H17.55C17.95 10.4 18.3 10.05 18.3 9.65V9.15ZM6.85 12.65C6.85 13.05 6.5 13.4 6.1 13.4H5.6C5.2 13.4 4.85 13.05 4.85 12.65V12.15C4.85 11.75 5.2 11.4 5.6 11.4H6.1C6.5 11.4 6.85 11.75 6.85 12.15V12.65ZM18.3 12.15C18.3 11.75 17.95 11.4 17.55 11.4H8.45C8.05 11.4 7.7 11.75 7.7 12.15V12.65C7.7 13.05 8.05 13.4 8.45 13.4H17.55C17.95 13.4 18.3 13.05 18.3 12.65V12.15ZM21.2 12.15C21.2 11.75 20.85 11.4 20.45 11.4H19.95C19.55 11.4 19.2 11.75 19.2 12.15V12.65C19.2 13.05 19.55 13.4 19.95 13.4H20.45C20.85 13.4 21.2 13.05 21.2 12.65V12.15ZM9.05 18.55H16.95C17.2 18.55 17.35 18.85 17.15 19.05L13.3 23.8C13.15 23.95 12.85 23.95 12.75 23.8L8.85 19.05C8.7 18.85 8.8 18.55 9.05 18.55Z" fill="#706E6B"/>
</svg>
