<svg width="26" height="26" viewBox="0 0 26 26" fill="none" xmlns="http://www.w3.org/2000/svg">
<path fill-rule="evenodd" clip-rule="evenodd" d="M4.75 17H11.25C11.65 17 12 16.65 12 16.25V4.5C12 3.65 11.1 3 10.4 3H4.75C4.35 3 4 3.35 4 3.75V16.25C4 16.65 4.35 17 4.75 17ZM24.6 5.3C24.3 5.2 24 5.45 24 5.8V18.25C24 18.65 23.65 19 23.25 19H2.75C2.35 19 2 18.65 2 18.25V5.85C2 5.5 1.6 5.25 1.3 5.4C0.55 5.75 0 6.55 0 7.5V19C0 20.1 0.9 21 2 21H10.25C10.65 21 11 21.35 11 21.75C11 22.15 11.35 22.5 11.75 22.5H14.25C14.65 22.5 15 22.15 15 21.75C15 21.35 15.35 21 15.75 21H24C25.1 21 26 20.1 26 19V7.5C26 6.45 25.65 5.55 24.6 5.3ZM14.75 17H21.25C21.65 17 22 16.65 22 16.25V3.75C22 3.35 21.65 3 21.25 3H15.6C14.85 3 14 3.65 14 4.5V16.25C14 16.65 14.35 17 14.75 17Z" fill="#706E6B"/>
</svg>
