<svg width="40" height="40" viewBox="0 0 40 40" fill="none" xmlns="http://www.w3.org/2000/svg">
<rect width="40" height="40" rx="20" fill="#1DCCBF"/>
<mask id="mask0_1518_28060" style="mask-type:luminance" maskUnits="userSpaceOnUse" x="0" y="0" width="40" height="40">
<rect width="40" height="40" rx="20" fill="white"/>
</mask>
<g mask="url(#mask0_1518_28060)">
<path d="M28.5 28H27V25H28.5C28.8 25 29 24.8 29 24.5V11.5C29 11.2 28.8 11 28.5 11H15.5C15.2 11 15 11.2 15 11.5V13H12V11.5C12 9.55 13.55 8 15.5 8H28.5C30.45 8 32 9.55 32 11.5V24.5C32 26.45 30.45 28 28.5 28Z" fill="white"/>
<path fill-rule="evenodd" clip-rule="evenodd" d="M10 15H23C24.1 15 25 15.9 25 17V30C25 31.1 24.1 32 23 32H10C8.9 32 8 31.1 8 30V17C8 15.9 8.9 15 10 15ZM14.2215 27.8677C14.2804 27.8428 14.3268 27.8232 14.4 27.75C14.45 27.75 14.45 27.6 14.35 27.45L12.5 25.6C12.45 25.55 12.3 25.55 12.25 25.6L12.2 25.65C12.1809 25.6882 12.1618 25.7191 12.1455 25.7455C12.1191 25.7882 12.1 25.8191 12.1 25.85L11.55 28.1C11.5 28.3 11.7 28.5 11.9 28.45L14.15 27.9C14.1768 27.8866 14.2 27.8768 14.2215 27.8677ZM19.85 22.25L15.25 26.9C15.15 27 15.05 27 14.95 26.9L13.1 25.05C13 25 13 24.85 13.1 24.8L17.75 20.15C17.85 20.05 17.95 20.05 18.05 20.15L19.9 22C19.9 22.05 19.9 22.15 19.85 22.25ZM20.75 21.35L21.25 20.85C21.6 20.55 21.6 20.05 21.3 19.7L20.3 18.7C19.95 18.35 19.45 18.35 19.1 18.7L18.6 19.2C18.5 19.3 18.5 19.4 18.6 19.5L20.45 21.35C20.55 21.45 20.65 21.45 20.75 21.35Z" fill="white"/>
</g>
</svg>
