<svg width="40" height="40" viewBox="0 0 40 40" fill="none" xmlns="http://www.w3.org/2000/svg">
<rect width="40" height="40" rx="20" fill="#95AEC5"/>
<mask id="mask0_1518_28064" style="mask-type:luminance" maskUnits="userSpaceOnUse" x="0" y="0" width="40" height="40">
<rect width="40" height="40" rx="20" fill="white"/>
</mask>
<g mask="url(#mask0_1518_28064)">
<path d="M19.472 22.208C19.76 22.496 20.192 22.496 20.48 22.208L31.328 12.128C31.568 11.744 31.52 11.12 30.752 11.12L9.24805 11.168C8.67205 11.168 8.19205 11.696 8.62405 12.176L19.472 22.208Z" fill="white"/>
<path d="M31.5201 16.064C31.5201 15.584 30.9441 15.296 30.5601 15.632L22.0641 23.456C21.4881 23.984 20.7681 24.272 20.0001 24.272C19.2321 24.272 18.5121 23.984 17.9361 23.504L9.4881 15.632C9.1041 15.296 8.5281 15.536 8.5281 16.064C8.4801 18.224 8.4801 24.08 8.4801 26.96C8.4801 28.016 9.3441 28.88 10.4001 28.88H29.6001C30.6561 28.88 31.5201 28.016 31.5201 26.96C31.5201 24.08 31.5201 18.224 31.5201 16.064Z" fill="white"/>
</g>
</svg>
