<svg width="48" height="48" viewBox="0 0 48 48" fill="none" xmlns="http://www.w3.org/2000/svg">
<rect width="48" height="48" rx="4" fill="#F2CF5B"/>
<mask id="mask0_1518_27762" style="mask-type:luminance" maskUnits="userSpaceOnUse" x="0" y="0" width="48" height="48">
<rect width="48" height="48" rx="4" fill="white"/>
</mask>
<g mask="url(#mask0_1518_27762)">
<path fill-rule="evenodd" clip-rule="evenodd" d="M40.5853 24.4141V40.1702H24.8292L40.5853 24.4141ZM37.6829 35.5263L38.9682 34.1994C39.0512 34.075 39.0097 33.9092 38.8853 33.9092L37.1024 33.6189C37.0609 33.6189 37.0195 33.5775 36.978 33.536L36.1902 31.836C36.1073 31.7116 35.9414 31.7116 35.9 31.836L35.1122 33.536C35.0707 33.5775 35.0292 33.6189 34.9878 33.6189L33.2048 33.9092C33.0804 33.9506 33.039 34.075 33.1219 34.1994L34.4073 35.5263C34.4487 35.5263 34.4487 35.6092 34.4487 35.6506L34.1585 37.5165C34.117 37.6409 34.2414 37.7238 34.3658 37.6824L36.0243 36.8116C36.0658 36.7702 36.1073 36.7702 36.1487 36.8116L37.7243 37.6824C37.8073 37.7653 37.9731 37.6409 37.9317 37.5165L37.6414 35.6506C37.6414 35.6092 37.6414 35.5677 37.6829 35.5263Z" fill="white" fill-opacity="0.65"/>
<path fill-rule="evenodd" clip-rule="evenodd" d="M19.8122 7.8291C12.9293 7.8291 7.37317 13.012 7.37317 19.4389C7.37317 21.512 7.95366 23.4193 8.94878 25.1193C9.07317 25.3267 9.11463 25.5754 9.03171 25.7828L7.87073 29.473C7.66341 30.1364 8.28536 30.7169 8.94878 30.5096L12.5976 29.2242C12.8463 29.1413 13.0951 29.1828 13.3024 29.3071C15.2098 30.4267 17.4488 31.0486 19.8537 31.0486C26.7366 31.0486 32.2927 25.8657 32.2927 19.4389C32.2512 13.012 26.7366 7.8291 19.8122 7.8291ZM21.0561 26.4876C21.0561 26.9437 20.6829 27.3169 20.2268 27.3169H19.3976C18.9415 27.3169 18.5683 26.9437 18.5683 26.4876V25.6584C18.5683 25.2023 18.9415 24.8291 19.3976 24.8291H20.2268C20.6829 24.8291 21.0561 25.2023 21.0561 25.6584V26.4876ZM21.0976 21.6364C21.0976 21.4291 21.2634 21.2632 21.4293 21.2218C23.5439 20.5169 24.8707 18.5681 24.7878 16.412C24.7049 13.7998 22.5488 11.6437 19.9366 11.5608C18.5683 11.5193 17.2829 12.0169 16.3293 12.9706C15.5829 13.6754 15.1268 14.5876 14.9195 15.5828C14.8366 16.0803 15.2512 16.5779 15.7488 16.5779H16.6195C16.9927 16.5779 17.3244 16.2876 17.4073 15.9145C17.4902 15.4998 17.739 15.0852 18.0707 14.7535C18.5683 14.2974 19.2317 14.0072 19.8951 14.0486C21.761 14.0901 23.1707 16.2462 21.761 18.112C21.5122 18.4852 21.0976 18.6925 20.6415 18.8584C19.439 19.273 18.6098 20.3925 18.6098 21.6364V22.2998C18.6098 22.7559 18.9829 23.1706 19.439 23.1706H20.2683C20.7244 23.1706 21.0976 22.7559 21.0976 22.2998V21.6364Z" fill="white"/>
</g>
</svg>
