<svg width="48" height="48" viewBox="0 0 48 48" fill="none" xmlns="http://www.w3.org/2000/svg">
<rect width="48" height="48" rx="4" fill="#62B7E5"/>
<mask id="mask0_1518_27387" style="mask-type:luminance" maskUnits="userSpaceOnUse" x="0" y="0" width="48" height="48">
<rect width="48" height="48" rx="4" fill="white"/>
</mask>
<g mask="url(#mask0_1518_27387)">
<path fill-rule="evenodd" clip-rule="evenodd" d="M7.33439 23.9443C7.33439 15.5279 14.6918 8.67212 24 8.67212C33.2524 8.67212 40.7213 15.5279 40.777 24.1115C40.777 32.6393 33.3082 39.4393 24.1672 39.4951C20.9344 39.4951 17.9246 38.659 15.4164 37.2656C15.0262 37.0426 14.5803 36.9311 14.2459 37.0983L8.2262 39.3836C7.66882 39.5508 7.11144 39.0492 7.33439 38.4918L9.50816 32.5279C9.61964 32.1377 9.5639 31.6918 9.34095 31.3574C8.11472 29.1279 7.33439 26.6197 7.33439 23.9443ZM16.9213 22.7738C16.5311 22.7738 16.2524 23.1082 16.2524 23.4426H16.1967V24.7246C16.1967 25.1147 16.5311 25.3934 16.8655 25.3934H27.7344C28.1246 25.3934 28.4032 25.059 28.4032 24.7246V23.4426C28.4032 23.0524 28.0688 22.7738 27.7344 22.7738H16.9213ZM31.8032 29.9082C31.8032 30.2426 31.5246 30.577 31.1344 30.577H16.8655C16.5311 30.577 16.1967 30.2983 16.1967 29.9082V28.6262C16.1967 28.2918 16.4754 27.9574 16.8655 27.9574H31.1344C31.4688 27.9574 31.8032 28.2361 31.8032 28.6262V29.9082ZM31.1344 20.2098C31.5246 20.2098 31.8032 19.8754 31.8032 19.541V18.259C31.8032 17.8688 31.4688 17.5902 31.1344 17.5902H16.8655C16.4754 17.5902 16.1967 17.9246 16.1967 18.259V19.541C16.1967 19.9311 16.5311 20.2098 16.8655 20.2098H31.1344Z" fill="white"/>
</g>
</svg>
