<svg width="48" height="48" viewBox="0 0 48 48" fill="none" xmlns="http://www.w3.org/2000/svg">
<rect width="48" height="48" rx="4" fill="#D3451D"/>
<mask id="mask0_1518_27770" style="mask-type:luminance" maskUnits="userSpaceOnUse" x="0" y="0" width="48" height="48">
<rect width="48" height="48" rx="4" fill="white"/>
</mask>
<g mask="url(#mask0_1518_27770)">
<path fill-rule="evenodd" clip-rule="evenodd" d="M7.0567 22.923C7.5667 14.4797 14.48 7.56633 22.9234 7.05633C32.7834 6.433 41 14.253 41 23.9997V40.9997H24C14.2534 40.9997 6.43337 32.783 7.0567 22.923ZM17.0867 15.4997C16.4634 15.4997 15.9534 16.0097 15.9534 16.633V17.7663C15.9534 18.3897 16.4634 18.8997 17.0867 18.8997H30.97C31.5934 18.8997 32.1034 18.3897 32.1034 17.7663V16.633C32.1034 16.0097 31.5934 15.4997 30.97 15.4997H17.0867ZM32.1034 31.3663C32.1034 31.9897 31.5934 32.4997 30.97 32.4997H17.0867C16.4634 32.4997 15.9534 31.9897 15.9534 31.3663V30.233C15.9534 29.6097 16.4634 29.0997 17.0867 29.0997H30.97C31.5934 29.0997 32.1034 29.6097 32.1034 30.233V31.3663ZM35.22 25.6997C35.8434 25.6997 36.3534 25.1897 36.3534 24.5663V23.433C36.3534 22.8097 35.8434 22.2997 35.22 22.2997H12.78C12.1567 22.2997 11.6467 22.8097 11.6467 23.433V24.5663C11.6467 25.1897 12.1567 25.6997 12.78 25.6997H35.22Z" fill="white"/>
</g>
</svg>
