<svg width="48" height="48" viewBox="0 0 48 48" fill="none" xmlns="http://www.w3.org/2000/svg">
<rect width="48" height="48" rx="4" fill="#88C651"/>
<mask id="mask0_1518_27772" style="mask-type:luminance" maskUnits="userSpaceOnUse" x="0" y="0" width="48" height="48">
<rect width="48" height="48" rx="4" fill="white"/>
</mask>
<g mask="url(#mask0_1518_27772)">
<path fill-rule="evenodd" clip-rule="evenodd" d="M25.1516 7.82259H37.1613C38.971 7.82259 40.4516 9.30324 40.4516 11.1129V22.629C40.5064 23.3968 40.1774 24.2742 39.629 24.8226L24.7677 39.7387C23.4516 41 21.3677 41 20.1064 39.7387L8.48064 28.1129C7.21935 26.7968 7.21935 24.7129 8.48064 23.4516L23.1774 8.70001C23.7258 8.15163 24.3839 7.76775 25.1516 7.82259ZM24.5484 32.7194L25.3161 31.9516C25.7548 31.5129 25.7548 30.8549 25.3161 30.4161L17.8581 22.9581C17.4193 22.5194 16.7613 22.5194 16.3226 22.9581L15.5548 23.7258C15.1161 24.1645 15.1161 24.8226 15.5548 25.2613L23.0129 32.7194C23.4516 33.1581 24.1097 33.1581 24.5484 32.7194ZM29.7032 27.5645L28.9355 28.3323C28.4968 28.771 27.8387 28.771 27.4 28.3323L19.9419 20.8742C19.5032 20.4355 19.5032 19.7774 19.9419 19.3387L20.7097 18.571C21.1484 18.1323 21.8064 18.1323 22.2452 18.571L29.7032 26.029C30.1419 26.4678 30.1419 27.1258 29.7032 27.5645ZM30.0322 15.5C30.0322 17.0355 31.2387 18.2419 32.7742 18.2419C34.3097 18.2419 35.5161 17.0355 35.5161 15.5C35.5161 13.9645 34.3097 12.7581 32.7742 12.7581C31.2387 12.7581 30.0322 13.9645 30.0322 15.5Z" fill="white"/>
</g>
</svg>
