<svg width="48" height="48" viewBox="0 0 48 48" fill="none" xmlns="http://www.w3.org/2000/svg">
<rect width="48" height="48" rx="4" fill="#0EB58A"/>
<mask id="mask0_1518_27724" style="mask-type:luminance" maskUnits="userSpaceOnUse" x="0" y="0" width="48" height="48">
<rect width="48" height="48" rx="4" fill="white"/>
</mask>
<g mask="url(#mask0_1518_27724)">
<path fill-rule="evenodd" clip-rule="evenodd" d="M24.4104 15.8287C28.8464 17.2155 33.2057 18.5784 38.0533 17.0868C39.47 16.6335 41 17.7668 40.9433 19.1835V30.9135C40.9433 31.9335 40.32 32.6701 39.5267 33.0101C34.1485 35.2486 29.3818 33.7735 24.5073 32.265C19.8803 30.833 15.1563 29.3711 9.72 31.0268C8.30333 31.4801 7 30.4601 7 28.9301V17.2001C7 16.2368 7.45333 15.4435 8.30333 15.1035C14.3096 12.6709 19.4087 14.265 24.4104 15.8287ZM19.9767 23.7168C19.9767 26.0968 21.9033 28.0801 24.34 28.0801C26.72 28.0801 28.7033 26.0968 28.7033 23.7168C28.7033 21.3368 26.72 19.3535 24.34 19.3535C21.96 19.3535 19.9767 21.3368 19.9767 23.7168Z" fill="white"/>
</g>
</svg>
