<svg width="48" height="48" viewBox="0 0 48 48" fill="none" xmlns="http://www.w3.org/2000/svg">
<rect width="48" height="48" rx="4" fill="#0EB58A"/>
<mask id="mask0_1518_27726" style="mask-type:luminance" maskUnits="userSpaceOnUse" x="0" y="0" width="48" height="48">
<rect width="48" height="48" rx="4" fill="white"/>
</mask>
<g mask="url(#mask0_1518_27726)">
<path fill-rule="evenodd" clip-rule="evenodd" d="M39.8667 13.913H36.4667C35.73 13.913 34.9933 13.573 34.4267 13.063L31.7067 10.7396C31.14 10.2863 30.4033 9.94629 29.6667 9.94629H23.0367C22.1867 9.94629 21.3933 10.2863 20.77 10.9096L17.2567 13.7996C16.9733 14.0263 16.9733 14.4796 17.2 14.763L18.2767 15.783C19.0133 16.3496 19.9767 16.463 20.7133 15.953L23.83 14.083C24.2267 13.7996 24.7933 13.913 25.1333 14.253L34.9367 23.773C35.1633 23.9996 35.3333 24.3396 35.3333 24.6796V27.2296C35.3333 27.9096 35.8433 28.6463 36.4667 28.6463H39.8667C40.49 28.6463 41 28.1363 41 27.4563V15.0463C41 14.3663 40.49 13.913 39.8667 13.913ZM30.2333 24.113L24.1133 18.163L22.4133 19.183C21.5633 19.693 20.6 19.9763 19.6367 19.9763C18.4467 19.9763 17.2 19.523 16.2367 18.7296L14.0267 16.9163C13.5167 16.5196 13.2333 16.0663 13.1767 15.443C13.0633 14.8196 12.61 14.4796 12.0433 14.4796H8.13333C7.51 14.4796 7 14.8196 7 15.4996V25.813C7 26.493 7.51 26.9463 8.13333 26.9463H10.4C10.5027 26.9463 10.6261 26.7188 10.7577 26.4762C10.8439 26.3172 10.9336 26.1518 11.0233 26.0396C11.8733 24.9063 13.12 24.283 14.48 24.113C15.84 23.9996 17.1433 24.453 18.22 25.4163L25.3033 31.8763C25.9267 32.443 26.38 33.0663 26.6633 33.8596C26.8333 34.2563 27.2867 34.3696 27.57 34.0863L30.2333 31.423C31.5933 30.063 32.6133 26.8896 31.3667 25.4163L30.2333 24.113ZM13.63 28.533C14.1967 27.7396 15.2733 27.6263 16.01 28.3063L23.0933 34.653C23.83 35.333 23.9433 36.4663 23.32 37.2596C23.0367 37.6563 22.64 37.883 22.1867 37.9396C21.7333 37.9963 21.28 37.883 20.94 37.543L13.8567 31.1396C13.12 30.4596 13.0067 29.3263 13.63 28.533Z" fill="white"/>
</g>
</svg>
