<svg width="48" height="48" viewBox="0 0 48 48" fill="none" xmlns="http://www.w3.org/2000/svg">
<rect width="48" height="48" rx="4" fill="#0EB58A"/>
<mask id="mask0_1518_27718" style="mask-type:luminance" maskUnits="userSpaceOnUse" x="0" y="0" width="48" height="48">
<rect width="48" height="48" rx="4" fill="white"/>
</mask>
<g mask="url(#mask0_1518_27718)">
<path d="M14.3483 32.5551L9.90641 37.2164C9.74189 37.3809 9.4677 37.2713 9.4677 37.0519V34.8584C9.4677 34.639 9.24835 34.3648 9.02899 34.3648H8.20641C7.98706 34.3648 7.7677 34.639 7.7677 34.8584V40.068C7.7677 40.3422 7.87738 40.4519 8.15157 40.4519H13.3612C13.5806 40.4519 13.8 40.3422 13.8 40.068V39.2455C13.8 39.0261 13.6354 38.8068 13.3612 38.8068H11.1677C10.8935 38.8068 10.7838 38.5326 11.0032 38.368L16.7064 32.3906C16.5419 32.3906 16.3774 32.3906 16.2129 32.3906C15.6096 32.3906 14.9516 32.4455 14.3483 32.5551Z" fill="white"/>
<path d="M37.4903 38.3682C37.6548 38.5327 37.5452 38.8069 37.271 38.8069H35.0774C34.8581 38.8069 34.6387 39.0262 34.6387 39.2456V40.0682C34.6387 40.2875 34.9129 40.5069 35.0774 40.5069H40.2871C40.5613 40.5069 40.671 40.3972 40.671 40.123V34.9133C40.671 34.694 40.5613 34.4746 40.3419 34.4746H39.5194C39.3 34.4746 39.0258 34.6391 39.0258 34.9133V37.1069C39.0258 37.3262 38.7516 37.4907 38.5871 37.2714L36.0097 34.9682C35.3516 35.1327 34.7484 35.2972 34.0903 35.4069L37.4903 38.3682Z" fill="white"/>
<path fill-rule="evenodd" clip-rule="evenodd" d="M24.093 17.7788C27.6849 18.9004 31.2148 20.0025 35.1322 18.7912C36.3387 18.4074 37.5451 19.3396 37.6 20.4912V29.9783C37.6 30.8009 37.0516 31.4041 36.4484 31.6783C32.0488 33.5115 28.1714 32.3133 24.212 31.0899C20.4724 29.9343 16.6595 28.7562 12.2645 30.088C11.058 30.417 10.0161 29.6493 10.0161 28.388V18.9009C10.0161 18.0783 10.3451 17.4751 11.058 17.2009C15.9121 15.2244 20.042 16.514 24.093 17.7788ZM20.4903 24.1106C20.4903 26.0848 22.0806 27.6751 24.0548 27.6751C26.029 27.6751 27.6193 26.0848 27.6193 24.1106C27.6193 22.1364 26.029 20.5461 24.0548 20.5461C22.0806 20.5461 20.4903 22.1364 20.4903 24.1106Z" fill="white"/>
<path d="M23.9451 11.1682C23.9451 10.894 23.6709 10.8392 23.5064 11.0037L21.9709 12.5392C21.8064 12.7037 21.4774 12.6489 21.3129 12.5392L20.7645 11.936C20.6 11.7714 20.6548 11.5521 20.8193 11.3876L24.5484 7.65854C24.7129 7.49403 24.8774 7.49403 25.0968 7.65854L28.7709 11.3327C28.9355 11.4973 28.9903 11.7714 28.8258 11.936L28.2774 12.4843C28.1129 12.6489 27.7839 12.594 27.6193 12.4843L26.0839 10.9489C25.9193 10.7843 25.6451 10.894 25.6451 11.1134V15.1166C25.0968 14.9521 24.5484 14.7876 24 14.6231L23.9451 11.1682Z" fill="white"/>
</g>
</svg>
