<svg width="48" height="48" viewBox="0 0 48 48" fill="none" xmlns="http://www.w3.org/2000/svg">
<rect width="48" height="48" rx="4" fill="#0EB58A"/>
<mask id="mask0_1518_27722" style="mask-type:luminance" maskUnits="userSpaceOnUse" x="0" y="0" width="48" height="48">
<rect width="48" height="48" rx="4" fill="white"/>
</mask>
<g mask="url(#mask0_1518_27722)">
<path d="M20.9967 28.7033C23.0933 27.5133 25.0767 26.9466 27.2867 26.9466C27.91 26.9466 28.5333 27.0033 29.1 27.0599C29.3833 27.1166 29.44 27.0033 29.1567 26.8333C28.08 26.2099 26.89 25.6433 25.6433 25.1333C23.2067 24.1133 22.8667 23.2066 22.8667 22.1866C22.8667 21.1666 23.5467 20.2599 24.34 19.5233C25.7567 18.2199 26.55 16.4633 26.55 14.3666C26.55 10.4566 24.1133 7.11328 19.8067 7.11328C15.5 7.11328 13.0067 10.4566 13.0067 14.3666C13.0067 16.4633 13.8 18.2766 15.2167 19.5233C16.01 20.2599 16.69 21.2233 16.69 22.1866C16.69 23.1499 16.2933 24.1133 13.9133 25.1333C10.4 26.6066 7.05667 28.3066 7 31.5366C7 33.6333 8.58667 35.5033 10.57 35.5033H18.6167C19.24 35.5033 19.75 34.9933 19.75 34.3699V30.6866C19.8633 29.8933 20.26 29.0999 20.9967 28.7033Z" fill="white"/>
<path fill-rule="evenodd" clip-rule="evenodd" d="M32.4231 31.4557C34.7178 32.1718 36.969 32.8744 39.47 32.1028C40.2067 31.8761 41 32.4428 41 33.1795V39.2428C41 39.7528 40.66 40.1495 40.2634 40.3195C37.4377 41.4847 34.9564 40.7181 32.4269 39.9366C30.036 39.1979 27.602 38.4459 24.7934 39.2995C24.0567 39.5261 23.3767 39.0161 23.3767 38.2228V32.1595C23.3767 31.6495 23.6034 31.2528 24.0567 31.0828C27.1829 29.8203 29.8307 30.6467 32.4231 31.4557ZM30.0634 35.5028C30.0634 36.7495 31.0834 37.7695 32.33 37.7695C33.5767 37.7695 34.5967 36.7495 34.5967 35.5028C34.5967 34.2561 33.5767 33.2361 32.33 33.2361C31.0834 33.2361 30.0634 34.2561 30.0634 35.5028Z" fill="white"/>
</g>
</svg>
