<svg width="48" height="48" viewBox="0 0 48 48" fill="none" xmlns="http://www.w3.org/2000/svg">
<rect width="48" height="48" rx="4" fill="#F88960"/>
<mask id="mask0_1518_27730" style="mask-type:luminance" maskUnits="userSpaceOnUse" x="0" y="0" width="48" height="48">
<rect width="48" height="48" rx="4" fill="white"/>
</mask>
<g mask="url(#mask0_1518_27730)">
<path fill-rule="evenodd" clip-rule="evenodd" d="M7.27873 23.8883C7.27873 15.4719 14.6918 8.61621 24 8.61621C33.2525 8.61621 40.7214 15.4162 40.7771 24.0556C40.7771 32.5834 33.3082 39.3277 24.1673 39.4392C20.9345 39.4392 17.9246 38.6031 15.4164 37.2097C15.0263 36.9867 14.5804 36.8752 14.2459 37.0424L8.17053 39.3277C7.61316 39.4949 7.05578 38.9933 7.27873 38.4359L9.4525 32.4719C9.56398 32.0818 9.50824 31.6359 9.28529 31.3015C8.05906 29.0719 7.27873 26.5638 7.27873 23.8883ZM29.741 31.9703L30.5214 31.19C30.8558 30.8556 31.023 30.4654 31.023 30.0195C31.023 29.5736 30.8558 29.1834 30.5214 28.849L25.8394 24.167V17.2556C25.8394 16.308 25.1148 15.5834 24.1673 15.5834H23.0525C22.105 15.5834 21.3804 16.308 21.3804 17.2556V25.0588C21.3804 25.6719 21.6591 26.2851 22.0492 26.6195L27.4 31.9703C27.7345 32.3047 28.1246 32.4719 28.5705 32.4719C29.0164 32.4719 29.4066 32.3047 29.741 31.9703Z" fill="white"/>
</g>
</svg>
