<svg width="48" height="48" viewBox="0 0 48 48" fill="none" xmlns="http://www.w3.org/2000/svg">
<rect width="48" height="48" rx="4" fill="#7F8DE1"/>
<mask id="mask0_1518_27736" style="mask-type:luminance" maskUnits="userSpaceOnUse" x="0" y="0" width="48" height="48">
<rect width="48" height="48" rx="4" fill="white"/>
</mask>
<g mask="url(#mask0_1518_27736)">
<path d="M35.05 29.0998C33.01 28.2498 32.67 27.4565 32.67 26.6065C32.67 25.7565 33.2366 24.9632 33.9166 24.3398C35.1066 23.2632 35.7866 21.7332 35.7866 19.9198C35.7866 16.6332 33.69 13.7432 30.0066 13.7432C26.3233 13.7432 24.2266 16.5765 24.2266 19.9198C24.2266 21.7332 24.9066 23.2065 26.0966 24.3398C26.7766 24.9632 27.3433 25.7565 27.3433 26.6065C27.3433 27.4565 27.0033 28.2498 24.9633 29.0998C21.96 30.3465 19.07 31.9332 19.0133 34.6532C19.0133 36.4098 20.3733 38.1665 22.0733 38.1665H29.95H37.8266C39.5833 38.1665 40.8866 36.4098 40.8866 34.6532C40.9433 31.9898 38.0533 30.4032 35.05 29.0998Z" fill="white"/>
<path fill-rule="evenodd" clip-rule="evenodd" d="M20.8267 19.2963C20.7133 23.093 21.8467 24.5097 22.0733 24.793C22.3 25.0763 23.0933 26.2663 22.0167 26.833C22.0167 26.833 14.82 29.383 14.65 35.673H7V10.9663C7 10.343 7.56667 9.83301 8.07667 9.83301H21.45C21.9033 9.83301 22.5267 10.2863 22.5267 10.9097V14.593C22.5267 14.593 20.8833 15.5563 20.8267 19.2963ZM11.93 33.6897C12.5533 33.6897 13.0633 33.1797 13.0633 32.5563V31.423C13.0633 30.7997 12.5533 30.2897 11.93 30.2897H10.7967C10.1733 30.2897 9.66333 30.7997 9.66333 31.423V32.5563C9.66333 33.1797 10.1733 33.6897 10.7967 33.6897H11.93ZM13.0633 26.9463C13.0633 27.5697 12.5533 28.0797 11.93 28.0797H10.7967C10.1733 28.0797 9.66333 27.5697 9.66333 26.9463V25.813C9.66333 25.1897 10.1733 24.6797 10.7967 24.6797H11.93C12.5533 24.6797 13.0633 25.1897 13.0633 25.813V26.9463ZM11.93 22.4697C12.5533 22.4697 13.0633 21.9597 13.0633 21.3363V20.203C13.0633 19.5797 12.5533 19.0697 11.93 19.0697H10.7967C10.1733 19.0697 9.66333 19.5797 9.66333 20.203V21.3363C9.66333 21.9597 10.1733 22.4697 10.7967 22.4697H11.93ZM13.0633 15.7263C13.0633 16.3497 12.5533 16.8597 11.93 16.8597H10.7967C10.1733 16.8597 9.66333 16.3497 9.66333 15.7263V14.593C9.66333 13.9697 10.1733 13.4597 10.7967 13.4597H11.93C12.5533 13.4597 13.0633 13.9697 13.0633 14.593V15.7263ZM18.2767 28.0797C18.9 28.0797 19.41 27.5697 19.41 26.9463V25.813C19.41 25.1897 18.9 24.6797 18.2767 24.6797H17.1433C16.52 24.6797 16.01 25.1897 16.01 25.813V26.9463C16.01 27.5697 16.52 28.0797 17.1433 28.0797H18.2767ZM19.41 21.3363C19.41 21.9597 18.9 22.4697 18.2767 22.4697H17.1433C16.52 22.4697 16.01 21.9597 16.01 21.3363V20.203C16.01 19.5797 16.52 19.0697 17.1433 19.0697H18.2767C18.9 19.0697 19.41 19.5797 19.41 20.203V21.3363ZM18.2767 16.8597C18.9 16.8597 19.41 16.3497 19.41 15.7263V14.593C19.41 13.9697 18.9 13.4597 18.2767 13.4597H17.1433C16.52 13.4597 16.01 13.9697 16.01 14.593V15.7263C16.01 16.3497 16.52 16.8597 17.1433 16.8597H18.2767Z" fill="white"/>
</g>
</svg>
