<svg width="48" height="48" viewBox="0 0 48 48" fill="none" xmlns="http://www.w3.org/2000/svg">
<rect width="48" height="48" rx="4" fill="#D7D1D1"/>
<mask id="mask0_1518_27738" style="mask-type:luminance" maskUnits="userSpaceOnUse" x="0" y="0" width="48" height="48">
<rect width="48" height="48" rx="4" fill="white"/>
</mask>
<g mask="url(#mask0_1518_27738)">
<path d="M16.0667 13.8004H31.9333C32.3867 13.8004 32.67 13.2904 32.3867 12.9504L30.5167 10.0604C29.95 8.9271 28.76 8.19043 27.4567 8.19043H20.5433C19.24 8.19043 18.05 8.9271 17.4833 10.0604L15.6133 12.9504C15.33 13.2904 15.6133 13.8004 16.0667 13.8004Z" fill="white"/>
<path d="M24 24C21.5067 24 19.4667 26.04 19.4667 28.5333C19.4667 31.0267 21.5067 33.0667 24 33.0667C26.4933 33.0667 28.5333 31.0267 28.5333 28.5333C28.5333 26.04 26.4933 24 24 24Z" fill="white"/>
<path fill-rule="evenodd" clip-rule="evenodd" d="M10.4 17.2002H37.6C39.47 17.2002 41 18.7302 41 20.6002V36.4669C41 38.3369 39.47 39.8669 37.6 39.8669H10.4C8.53 39.8669 7 38.3369 7 36.4669V20.6002C7 18.7302 8.53 17.2002 10.4 17.2002ZM16.0667 28.5335C16.0667 32.8969 19.6367 36.4669 24 36.4669C28.3633 36.4669 31.9333 32.8969 31.9333 28.5335C31.9333 24.1702 28.3633 20.6002 24 20.6002C19.6367 20.6002 16.0667 24.1702 16.0667 28.5335Z" fill="white"/>
</g>
</svg>
