<svg width="48" height="48" viewBox="0 0 48 48" fill="none" xmlns="http://www.w3.org/2000/svg">
<rect width="48" height="48" rx="4" fill="#3C97DD"/>
<mask id="mask0_1518_27740" style="mask-type:luminance" maskUnits="userSpaceOnUse" x="0" y="0" width="48" height="48">
<rect width="48" height="48" rx="4" fill="white"/>
</mask>
<g mask="url(#mask0_1518_27740)">
<path fill-rule="evenodd" clip-rule="evenodd" d="M39.5509 36.2625H37.7115V26.2854C37.7115 25.7838 37.2656 25.3379 36.764 25.3379H26.341C25.8394 25.3379 25.3935 25.7838 25.3935 26.2854V36.2067H22.6066V26.2854C22.6066 25.7838 22.1607 25.3379 21.6591 25.3379H11.2361C10.7345 25.3379 10.2886 25.7838 10.2886 26.2854V36.2067H8.44923C7.83611 36.2067 7.33447 36.7084 7.33447 37.3215V39.551C7.33447 40.1641 7.83611 40.6658 8.44923 40.6658H39.4951C40.1082 40.6658 40.6099 40.1641 40.6099 39.551V37.3215C40.6656 36.7084 40.164 36.2625 39.5509 36.2625ZM27.9017 27.9018H35.1476V30.41H27.9017V27.9018ZM20.0427 27.9018H12.7968V30.41H20.0427V27.9018Z" fill="white"/>
<path fill-rule="evenodd" clip-rule="evenodd" d="M39.5509 18.1472H37.7115V8.1702C37.7115 7.66856 37.2656 7.22266 36.764 7.22266H26.341C25.8394 7.22266 25.3935 7.66856 25.3935 8.1702V18.1472H22.6066V8.1702C22.6066 7.66856 22.1607 7.22266 21.6591 7.22266H11.2361C10.7345 7.22266 10.2886 7.66856 10.2886 8.1702V18.1472H8.44923C7.83611 18.1472 7.33447 18.7046 7.33447 19.262V21.4915C7.33447 22.1046 7.83611 22.6063 8.44923 22.6063H39.4951C40.1082 22.6063 40.6099 22.1046 40.6099 21.4915V19.262C40.6656 18.5931 40.164 18.1472 39.5509 18.1472ZM27.9017 9.78659H35.1476V12.2948H27.9017V9.78659ZM20.0427 9.78659H12.7968V12.2948H20.0427V9.78659Z" fill="white"/>
</g>
</svg>
