<svg width="48" height="48" viewBox="0 0 48 48" fill="none" xmlns="http://www.w3.org/2000/svg">
<rect width="48" height="48" rx="4" fill="#FB8950"/>
<mask id="mask0_1518_27377" style="mask-type:luminance" maskUnits="userSpaceOnUse" x="0" y="0" width="48" height="48">
<rect width="48" height="48" rx="4" fill="white"/>
</mask>
<g mask="url(#mask0_1518_27377)">
<path fill-rule="evenodd" clip-rule="evenodd" d="M37.4867 7H10.5133C8.58667 7 7 8.58667 7 10.5133V37.4867C7 39.4133 8.58667 41 10.5133 41H37.4867C39.4133 41 41 39.4133 41 37.4867V10.5133C41 8.58667 39.4133 7 37.4867 7ZM22.5267 11.1933C22.5267 10.74 22.98 10.4 23.4333 10.4H36.6933C37.1467 10.4 37.4867 10.8533 37.4867 11.3067V13.0067C37.4867 13.46 37.0333 13.8 36.58 13.8H23.32C22.8667 13.8 22.5267 13.3467 22.5267 12.8933V11.1933ZM19.6933 12.1C19.6933 11.1367 18.9567 10.4 17.9933 10.4C17.03 10.4 16.2933 11.1367 16.2933 12.1C16.2933 13.0633 17.03 13.8 17.9933 13.8C18.9567 13.8 19.6933 13.0633 19.6933 12.1ZM12.1 10.4C13.0633 10.4 13.8 11.1367 13.8 12.1C13.8 13.0633 13.0633 13.8 12.1 13.8C11.1367 13.8 10.4 13.0633 10.4 12.1C10.4 11.1367 11.1367 10.4 12.1 10.4ZM36.6933 37.6C37.1467 37.6 37.6 37.26 37.6 36.8067V18.1067C37.6 17.6533 37.26 17.2 36.8067 17.2H11.3067C10.8533 17.2 10.4 17.54 10.4 17.9933V36.6933C10.4 37.1467 10.74 37.6 11.1933 37.6H36.6933Z" fill="white"/>
<path d="M34.2 25.3033C34.2 25.9266 33.69 26.4366 33.0667 26.4366H28.76C28.1367 26.4366 27.6267 25.9266 27.6267 25.3033V23.6033C27.6267 22.98 28.1367 22.47 28.76 22.47H33.0667C33.69 22.47 34.2 22.98 34.2 23.6033V25.3033Z" fill="white"/>
<path d="M34.2 31.5367C34.2 32.16 33.69 32.67 33.0667 32.67H28.76C28.1367 32.67 27.6267 32.16 27.6267 31.5367V29.8367C27.6267 29.2134 28.1367 28.7034 28.76 28.7034H33.0667C33.69 28.7034 34.2 29.2134 34.2 29.8367V31.5367Z" fill="white"/>
<path fill-rule="evenodd" clip-rule="evenodd" d="M14.7067 22.47H23.4334C23.8867 22.47 24.2267 22.9233 24.2267 23.3766V31.8766C24.2267 32.33 23.7734 32.67 23.32 32.67H14.7067H14.5934C14.14 32.67 13.8 32.2166 13.8 31.7633V23.2633C13.8 22.81 14.2534 22.47 14.7067 22.47ZM16.9167 30.9133H21.1667C21.62 30.9133 22.0167 30.4033 21.96 29.8366C21.96 29.1 21.1667 28.59 20.3734 28.25C19.8067 28.0233 19.75 27.7966 19.75 27.57C19.75 27.3433 19.92 27.1166 20.09 26.9466C20.43 26.6633 20.6 26.21 20.6 25.7C20.6 24.7366 19.9767 23.9433 19.0134 23.9433C17.9934 23.9433 17.4267 24.7366 17.4267 25.7C17.4267 26.21 17.5967 26.6633 17.9367 26.9466C18.1067 27.1166 18.2767 27.2866 18.2767 27.57C18.2767 27.8533 18.22 28.08 17.6534 28.3066C16.86 28.7033 16.0667 29.1566 16.0667 29.8933C16.0667 30.4033 16.4634 30.9133 16.9167 30.9133Z" fill="white"/>
</g>
</svg>
