<svg width="48" height="48" viewBox="0 0 48 48" fill="none" xmlns="http://www.w3.org/2000/svg">
<rect width="48" height="48" rx="4" fill="#B781D3"/>
<mask id="mask0_1518_27748" style="mask-type:luminance" maskUnits="userSpaceOnUse" x="0" y="0" width="48" height="48">
<rect width="48" height="48" rx="4" fill="white"/>
</mask>
<g mask="url(#mask0_1518_27748)">
<path fill-rule="evenodd" clip-rule="evenodd" d="M36.2966 7H14.99C13.12 7 11.5333 8.58667 11.5333 10.2867V11.5333H10.4C9.1533 11.5333 8.1333 12.5533 8.1333 13.8C8.1333 15.0467 9.1533 16.0667 10.4 16.0667H11.5333V21.7333H10.4C9.1533 21.7333 8.1333 22.7533 8.1333 24C8.1333 25.2467 9.1533 26.2667 10.4 26.2667H11.5333V31.9333H10.4C9.1533 31.9333 8.1333 32.9533 8.1333 34.2C8.1333 35.4467 9.1533 36.4667 10.4 36.4667H11.5333V37.4867C11.5333 39.1867 13.12 41 14.99 41H36.2966C38.1666 41 39.8666 39.13 39.8666 37.26V10.06C39.8666 8.19 38.1666 7 36.2966 7ZM20.0333 30.2333C20.0333 30.5733 19.8066 30.8 19.4666 30.8H17.2C16.86 30.8 16.6333 30.5733 16.6333 30.2333V17.7667C16.6333 17.4267 16.86 17.2 17.2 17.2H19.4666C19.8066 17.2 20.0333 17.4267 20.0333 17.7667V30.2333ZM24 30.8C24.34 30.8 24.5666 30.5733 24.5666 30.2333V17.7667C24.5666 17.4267 24.34 17.2 24 17.2H22.8666C22.5266 17.2 22.3 17.4267 22.3 17.7667V30.2333C22.3 30.5733 22.5266 30.8 22.8666 30.8H24ZM30.2333 30.2333C30.2333 30.5733 30.0066 30.8 29.6666 30.8H27.4C27.06 30.8 26.8333 30.5733 26.8333 30.2333V17.7667C26.8333 17.4267 27.06 17.2 27.4 17.2H29.6666C30.0066 17.2 30.2333 17.4267 30.2333 17.7667V30.2333ZM34.2 30.8C34.54 30.8 34.7666 30.5733 34.7666 30.2333V17.7667C34.7666 17.4267 34.54 17.2 34.2 17.2H33.0666C32.7266 17.2 32.5 17.4267 32.5 17.7667V30.2333C32.5 30.5733 32.7266 30.8 33.0666 30.8H34.2Z" fill="white"/>
</g>
</svg>
