<svg width="48" height="48" viewBox="0 0 48 48" fill="none" xmlns="http://www.w3.org/2000/svg">
<rect width="48" height="48" rx="4" fill="#0079BC"/>
<mask id="mask0_1518_27750" style="mask-type:luminance" maskUnits="userSpaceOnUse" x="0" y="0" width="48" height="48">
<rect width="48" height="48" rx="4" fill="white"/>
</mask>
<g mask="url(#mask0_1518_27750)">
<path d="M16.4714 21.7536L23.0286 13.6179C23.5143 13.0107 24.425 13.0107 24.9107 13.6179L31.4679 21.7536C31.7107 22.0571 32.075 22.1786 32.4393 22.1786H39.7857C40.4536 22.1786 41 21.6321 41 20.9643V10.6429C41 8.63929 39.3607 7 37.3571 7H10.6429C8.63929 7 7 8.63929 7 10.6429V20.9643C7 21.6321 7.54643 22.1786 8.21429 22.1786H15.5C15.8643 22.1786 16.2286 21.9964 16.4714 21.7536Z" fill="white"/>
<path d="M31.4679 26.2463L24.9107 34.382C24.425 34.9891 23.5143 34.9891 23.0286 34.382L16.4714 26.2463C16.2286 25.9427 15.8643 25.8213 15.5 25.8213H8.21429C7.54643 25.8213 7 26.3677 7 27.0356V37.357C7 39.3606 8.63929 40.9999 10.6429 40.9999H37.3571C39.3607 40.9999 41 39.3606 41 37.357V27.0356C41 26.3677 40.4536 25.8213 39.7857 25.8213H32.4393C32.075 25.8213 31.7107 26.0034 31.4679 26.2463Z" fill="white"/>
</g>
</svg>
