<svg width="48" height="48" viewBox="0 0 48 48" fill="none" xmlns="http://www.w3.org/2000/svg">
<rect width="48" height="48" rx="4" fill="#B781D3"/>
<mask id="mask0_1518_27758" style="mask-type:luminance" maskUnits="userSpaceOnUse" x="0" y="0" width="48" height="48">
<rect width="48" height="48" rx="4" fill="white"/>
</mask>
<g mask="url(#mask0_1518_27758)">
<path d="M8.13333 33.6331H10.9667C11.59 33.6331 12.1 33.1231 12.1 32.4998V14.9331C12.1 14.3098 11.59 13.7998 10.9667 13.7998H8.13333C7.51 13.7998 7 14.3098 7 14.9331V32.4998C7 33.1231 7.51 33.6331 8.13333 33.6331Z" fill="white"/>
<path d="M39.8667 13.7998H37.0334C36.41 13.7998 35.9 14.3098 35.9 14.9331V32.4998C35.9 33.1231 36.41 33.6331 37.0334 33.6331H39.8667C40.49 33.6331 41 33.1231 41 32.4998V14.9331C41 14.3098 40.49 13.7998 39.8667 13.7998Z" fill="white"/>
<path d="M25.7 33.6331C26.3233 33.6331 26.8333 33.1231 26.8333 32.4998V14.9331C26.8333 14.3098 26.3233 13.7998 25.7 13.7998H22.3C21.6766 13.7998 21.1666 14.3098 21.1666 14.9331V32.4998C21.1666 33.1231 21.6766 33.6331 22.3 33.6331H25.7Z" fill="white"/>
<path d="M32.4999 33.6331C33.1233 33.6331 33.6333 33.1231 33.6333 32.4998V14.9331C33.6333 14.3098 33.1233 13.7998 32.4999 13.7998H31.3666C30.7433 13.7998 30.2333 14.3098 30.2333 14.9331V32.4998C30.2333 33.1231 30.7433 33.6331 31.3666 33.6331H32.4999Z" fill="white"/>
<path d="M17.7667 33.6331C18.39 33.6331 18.9 33.1231 18.9 32.4998V14.9331C18.9 14.3098 18.39 13.7998 17.7667 13.7998H16.6333C16.01 13.7998 15.5 14.3098 15.5 14.9331V32.4998C15.5 33.1231 16.01 33.6331 16.6333 33.6331H17.7667Z" fill="white"/>
<path d="M39.8667 37.0332H8.13333C7.51 37.0332 7 37.5432 7 38.1665V39.2999C7 39.9232 7.51 40.4332 8.13333 40.4332H39.8667C40.49 40.4332 41 39.9232 41 39.2999V38.1665C41 37.5432 40.49 37.0332 39.8667 37.0332Z" fill="white"/>
<path d="M39.8667 7.56641H8.13333C7.51 7.56641 7 8.07641 7 8.69974V9.83307C7 10.4564 7.51 10.9664 8.13333 10.9664H39.8667C40.49 10.9664 41 10.4564 41 9.83307V8.69974C41 8.07641 40.49 7.56641 39.8667 7.56641Z" fill="white"/>
</g>
</svg>
