<svg width="48" height="48" viewBox="0 0 48 48" fill="none" xmlns="http://www.w3.org/2000/svg">
<rect width="48" height="48" rx="4" fill="#88C651"/>
<mask id="mask0_1518_27383" style="mask-type:luminance" maskUnits="userSpaceOnUse" x="0" y="0" width="48" height="48">
<rect width="48" height="48" rx="4" fill="white"/>
</mask>
<g mask="url(#mask0_1518_27383)">
<path d="M39.5508 39.3836H18.9836C18.3148 39.3836 17.7017 38.8262 17.7017 38.1574V38.1016V35.5377C17.7017 34.8689 18.259 34.2557 18.9279 34.2557H18.9836H39.5508C40.2197 34.2557 40.8328 34.8131 40.8328 35.482V35.5377V38.1016C40.8885 38.7705 40.3312 39.3836 39.5508 39.3836C39.6066 39.3836 39.6066 39.3836 39.5508 39.3836Z" fill="white"/>
<path d="M11.236 39.3836H8.6721C8.00325 39.3836 7.39014 38.8262 7.39014 38.1574V38.1016V35.5377C7.39014 34.8689 7.94751 34.2557 8.61637 34.2557H8.6721H11.236C11.9049 34.2557 12.518 34.8131 12.518 35.482V35.5377V38.1016C12.5737 38.7705 12.0164 39.3279 11.3475 39.3836C11.2918 39.3836 11.2918 39.3836 11.236 39.3836Z" fill="white"/>
<path d="M26.3967 27.9573C25.7279 27.9573 25.1147 27.4 25.1147 26.7311V26.6754V24.1114C25.1147 23.4426 25.6721 22.8295 26.341 22.8295H26.3967H39.5508C40.2197 22.8295 40.8328 23.3868 40.8328 24.0557V24.1114V26.6754C40.8328 27.3442 40.2754 27.9573 39.6065 27.9573H39.5508H26.3967Z" fill="white"/>
<path d="M31.3016 16.5311C30.6328 16.5311 30.0197 15.9737 30.0197 15.3048V15.2491V12.6852C30.0197 12.0163 30.577 11.4032 31.2459 11.4032H31.3016H39.5508C40.2197 11.4032 40.8328 11.9606 40.8328 12.6294V12.6852V15.2491C40.8328 15.918 40.2754 16.5311 39.6065 16.5311H39.5508H31.3016Z" fill="white"/>
<path d="M8.00329 28.2917C7.33444 22.3278 12.0164 16.1409 17.5902 15.0819L19.0951 14.7475C19.3738 14.6917 19.5967 14.4131 19.541 14.0786C19.541 13.9114 19.4295 13.7999 19.318 13.7442L15.5836 11.236C15.1935 10.9573 15.1377 10.4557 15.4164 10.1213C15.4164 10.1213 15.4164 10.1213 15.4164 10.0655L16.3639 8.67207C16.5869 8.28191 17.1443 8.17043 17.4787 8.44912C17.4787 8.44912 17.4787 8.44912 17.5344 8.44912L26.5082 14.5245C26.8984 14.7475 27.0098 15.3049 26.7312 15.6393C26.7312 15.6393 26.7312 15.6393 26.7312 15.695L20.6 24.7245C20.3771 25.1147 19.8197 25.2262 19.4853 24.9475C19.4853 24.9475 19.4853 24.9475 19.4295 24.9475L18.0361 23.9999C17.6459 23.777 17.5344 23.2196 17.8131 22.8852C17.8131 22.8852 17.8131 22.8852 17.8131 22.8294L20.2656 19.095C20.4328 18.8721 20.4328 18.4819 20.1541 18.3147C20.0426 18.2032 19.8754 18.1475 19.7082 18.2032L18.8164 18.3704C14.4689 19.2065 10.7902 24.1114 11.1803 28.3475C11.1803 28.7376 10.5672 29.295 10.1213 29.4065H9.06231C8.56067 29.4622 8.00329 28.7934 8.00329 28.2917Z" fill="white"/>
</g>
</svg>
