<svg width="48" height="48" viewBox="0 0 48 48" fill="none" xmlns="http://www.w3.org/2000/svg">
<rect width="48" height="48" rx="4" fill="#EF6E64"/>
<mask id="mask0_1518_27385" style="mask-type:luminance" maskUnits="userSpaceOnUse" x="0" y="0" width="48" height="48">
<rect width="48" height="48" rx="4" fill="white"/>
</mask>
<g mask="url(#mask0_1518_27385)">
<rect x="20.338" y="34.1832" width="20.1046" height="4.45344" rx="2" fill="white"/>
<path fill-rule="evenodd" clip-rule="evenodd" d="M14.7029 38.6366H12.4734C11.8577 38.6366 11.3586 38.1375 11.3586 37.5219V35.2924C11.3586 34.6767 11.8577 34.1776 12.4734 34.1776H14.7029C15.3186 34.1776 15.8177 34.6767 15.8177 35.2924V37.5219C15.8339 37.8222 15.7217 38.1153 15.509 38.328C15.2963 38.5407 15.0032 38.6529 14.7029 38.6366Z" fill="white"/>
<path fill-rule="evenodd" clip-rule="evenodd" d="M14.7029 28.6875H12.4734C11.8577 28.6875 11.3586 28.1884 11.3586 27.5728V25.3433C11.3586 24.7276 11.8577 24.2285 12.4734 24.2285H14.7029C15.3186 24.2285 15.8177 24.7276 15.8177 25.3433V27.5728C15.8339 27.8731 15.7217 28.1662 15.509 28.3789C15.2963 28.5916 15.0032 28.7038 14.7029 28.6875Z" fill="white"/>
<rect x="20.338" y="24.234" width="20.1046" height="4.45344" rx="2" fill="white"/>
<rect x="23.6766" y="14.2849" width="16.7659" height="4.45344" rx="2" fill="white"/>
<path fill-rule="evenodd" clip-rule="evenodd" d="M22.3557 10.8068L21.1741 9.6252C21.0221 9.45991 20.8078 9.36584 20.5832 9.36584C20.3587 9.36584 20.1444 9.45991 19.9924 9.6252L12.6183 16.9324L9.6252 14.0118C9.47321 13.8465 9.25893 13.7524 9.03438 13.7524C8.80983 13.7524 8.59555 13.8465 8.44356 14.0118L7.26192 15.1934C7.09663 15.3454 7.00256 15.5597 7.00256 15.7842C7.00256 16.0088 7.09663 16.2231 7.26192 16.375L11.3642 20.4773C12.0171 21.1294 13.0747 21.1294 13.7275 20.4773L22.3557 11.9941C22.6365 11.6481 22.6365 11.1528 22.3557 10.8068Z" fill="white"/>
</g>
</svg>
