<svg width="48" height="48" viewBox="0 0 48 48" fill="none" xmlns="http://www.w3.org/2000/svg">
<rect width="48" height="48" rx="4" fill="#F88962"/>
<mask id="mask0_1518_27379" style="mask-type:luminance" maskUnits="userSpaceOnUse" x="0" y="0" width="48" height="48">
<rect width="48" height="48" rx="4" fill="white"/>
</mask>
<g mask="url(#mask0_1518_27379)">
<rect x="7.27869" y="7.51282" width="33.4426" height="8.91803" rx="4" fill="white"/>
<rect x="7.27869" y="19.7751" width="15.0492" height="8.91803" rx="4" fill="white"/>
<rect x="7.27869" y="32.0374" width="15.0492" height="8.91803" rx="4" fill="white"/>
<path d="M32.8902 37.3715C33.0427 37.5317 33.2542 37.6223 33.4754 37.6223C33.6966 37.6223 33.9081 37.5317 34.0606 37.3715L40.4705 31.0174C40.6306 30.8649 40.7213 30.6534 40.7213 30.4322C40.7213 30.211 40.6306 29.9995 40.4705 29.8469L34.0328 23.4371C33.8802 23.2769 33.6687 23.1863 33.4475 23.1863C33.2263 23.1863 33.0148 23.2769 32.8623 23.4371L31.6918 24.6076C31.5316 24.7601 31.441 24.9717 31.441 25.1928C31.441 25.414 31.5316 25.6255 31.6918 25.7781L33.6983 27.7846C33.8545 27.9439 33.9007 28.1809 33.8158 28.3871C33.7308 28.5933 33.5312 28.729 33.3082 28.7322H26.5639C26.0956 28.7393 25.7094 29.1013 25.6721 29.5682V31.2404C25.7255 31.7003 26.1017 32.0553 26.5639 32.082H33.3361C33.559 32.0851 33.7587 32.2209 33.8436 32.4271C33.9285 32.6333 33.8823 32.8703 33.7262 33.0296L31.7197 35.0361C31.5595 35.1887 31.4688 35.4002 31.4688 35.6214C31.4688 35.8425 31.5595 36.0541 31.7197 36.2066L32.8902 37.3715Z" fill="white"/>
</g>
</svg>
