<svg width="48" height="48" viewBox="0 0 48 48" fill="none" xmlns="http://www.w3.org/2000/svg">
<rect width="48" height="48" rx="4" fill="#6DA1EA"/>
<mask id="mask0_1518_27599" style="mask-type:luminance" maskUnits="userSpaceOnUse" x="0" y="0" width="48" height="48">
<rect width="48" height="48" rx="4" fill="white"/>
</mask>
<g mask="url(#mask0_1518_27599)">
<path d="M39.4593 27.4531C39.4062 27.2406 39.4062 26.975 39.5656 26.8156C40.4687 25.1687 41 23.3094 41 21.3438C41 15.1813 35.7406 10.1875 29.3125 10.1875C26.55 10.1875 24 11.1438 21.9812 12.6844C28.6218 14.1188 33.5625 19.8562 33.5625 26.6562C33.5625 28.5688 33.1906 30.4281 32.4468 32.075C33.5093 31.8094 34.5187 31.3844 35.475 30.8C35.6875 30.6937 35.9 30.6406 36.1125 30.7469L39.5125 31.9688C40.0968 32.1812 40.6812 31.5969 40.5218 30.9594L39.4593 27.4531Z" fill="white"/>
<path fill-rule="evenodd" clip-rule="evenodd" d="M7 26.6562C7 20.4938 12.2594 15.5 18.6875 15.5C25.1156 15.5 30.375 20.4938 30.375 26.6562C30.375 32.8188 25.1156 37.8125 18.6875 37.8125C16.4031 37.8125 14.3313 37.2281 12.525 36.1656C12.3656 36.0594 12.1 36.0594 11.8875 36.1125L8.4875 37.3344C7.85 37.5469 7.26562 36.9625 7.47813 36.325L8.59375 32.7656C8.64688 32.5531 8.59375 32.3406 8.4875 32.1281C7.53125 30.4812 7 28.6219 7 26.6562ZM10.1875 26.6562C10.1875 27.825 11.1438 28.7812 12.3125 28.7812C13.4812 28.7812 14.4375 27.825 14.4375 26.6562C14.4375 25.4875 13.4812 24.5312 12.3125 24.5312C11.1438 24.5312 10.1875 25.4875 10.1875 26.6562ZM18.6875 28.7812C17.5188 28.7812 16.5625 27.825 16.5625 26.6562C16.5625 25.4875 17.5188 24.5312 18.6875 24.5312C19.8562 24.5312 20.8125 25.4875 20.8125 26.6562C20.8125 27.825 19.8562 28.7812 18.6875 28.7812ZM22.9375 26.6562C22.9375 27.825 23.8937 28.7812 25.0625 28.7812C26.2313 28.7812 27.1875 27.825 27.1875 26.6562C27.1875 25.4875 26.2313 24.5312 25.0625 24.5312C23.8937 24.5312 22.9375 25.4875 22.9375 26.6562Z" fill="white"/>
</g>
</svg>
