<svg width="48" height="48" viewBox="0 0 48 48" fill="none" xmlns="http://www.w3.org/2000/svg">
<rect width="48" height="48" rx="4" fill="#BAAC93"/>
<mask id="mask0_1518_27601" style="mask-type:luminance" maskUnits="userSpaceOnUse" x="0" y="0" width="48" height="48">
<rect width="48" height="48" rx="4" fill="white"/>
</mask>
<g mask="url(#mask0_1518_27601)">
<path d="M12.4839 31.129V13.5806C10.6742 13.5806 9.1936 15.0612 9.1936 16.8709V37.7096C9.1936 39.5193 10.6742 40.9999 12.4839 40.9999H28.9355C30.7452 40.9999 32.2259 39.5193 32.2259 37.7096H19.0646C15.4452 37.7096 12.4839 37.7096 12.4839 31.129Z" fill="white"/>
<path d="M37.7098 16.871H32.2259C30.4162 16.871 28.9356 15.3903 28.9356 13.5806V8.09677C28.9356 7.49355 28.442 7 27.8388 7H19.0646C17.2549 7 15.7743 8.48065 15.7743 10.2903V31.129C15.7743 32.9387 17.2549 34.4194 19.0646 34.4194H35.5162C37.3259 34.4194 38.8066 32.9387 38.8066 31.129V17.9677C38.8066 17.3645 38.313 16.871 37.7098 16.871Z" fill="white"/>
<path d="M38.5871 12.2645L33.542 7.21935C33.3774 7.05484 33.2129 7 32.9936 7C32.5549 7 32.2258 7.32903 32.2258 7.76774V11.3871C32.2258 12.5935 33.2129 13.5806 34.4194 13.5806H38.0387C38.4774 13.5806 38.8065 13.2516 38.8065 12.8129C38.8065 12.5935 38.7516 12.429 38.5871 12.2645Z" fill="white"/>
</g>
</svg>
