<svg width="48" height="48" viewBox="0 0 48 48" fill="none" xmlns="http://www.w3.org/2000/svg">
<rect width="48" height="48" rx="4" fill="#E9696E"/>
<mask id="mask0_1518_27605" style="mask-type:luminance" maskUnits="userSpaceOnUse" x="0" y="0" width="48" height="48">
<rect width="48" height="48" rx="4" fill="white"/>
</mask>
<g mask="url(#mask0_1518_27605)">
<path d="M27.5672 23.3311L40.2197 10.623C40.6656 10.177 40.6656 9.5082 40.2197 9.00656L38.7148 7.39016C38.2689 6.94426 37.6 6.94426 37.0984 7.39016L24.3344 20.1541C24.0557 20.4328 23.5541 20.4328 23.2754 20.1541L10.5672 7.33443C10.1213 6.88852 9.45246 6.88852 8.95082 7.33443L7.33443 8.95082C6.88852 9.39672 6.88852 10.0656 7.33443 10.5672L20.0426 23.2754C20.3213 23.5541 20.3213 24.0557 20.0426 24.3344L7.33443 37.0984C6.88852 37.5443 6.88852 38.2131 7.33443 38.7148L8.95082 40.3311C9.39672 40.777 10.0656 40.777 10.5672 40.3311L23.2754 27.623C23.5541 27.3443 24.0557 27.3443 24.3344 27.623L36.9311 40.2197C37.377 40.6656 38.0459 40.6656 38.5475 40.2197L40.1639 38.6033C40.6098 38.1574 40.6098 37.4885 40.1639 36.9869L27.5672 24.3902C27.2328 24.0557 27.2328 23.6098 27.5672 23.3311Z" fill="white"/>
</g>
</svg>
