<svg width="40" height="40" viewBox="0 0 40 40" fill="none" xmlns="http://www.w3.org/2000/svg">
<rect width="40" height="40" rx="20" fill="#56AADF"/>
<mask id="mask0_1518_28354" style="mask-type:luminance" maskUnits="userSpaceOnUse" x="0" y="0" width="40" height="40">
<rect width="40" height="40" rx="20" fill="white"/>
</mask>
<g mask="url(#mask0_1518_28354)">
<path fill-rule="evenodd" clip-rule="evenodd" d="M20 8C13.35 8 8 13.35 8 20C8 26.65 13.35 32 20 32C26.65 32 32 26.65 32 20C32 13.35 26.65 8 20 8ZM21.5 25.15C20.8988 25.7512 20.6188 26.8023 20.3769 27.7108C20.317 27.9356 20.2595 28.1516 20.2 28.35C20.15 28.55 20 28.75 19.8 28.85L19.3 29.1C19 29.25 18.65 29.2 18.4 28.95C17.9 28.5 17.5 27.8 17.5 27.1C17.5 26.6029 17.1569 26.3804 16.7548 26.1197C16.1863 25.751 15.5 25.3059 15.5 23.9C15.5 21.95 13 20.8 11.2 21.65C11.15 21.6667 11.1 21.6889 11.05 21.7111C10.95 21.7556 10.85 21.8 10.75 21.8C10.45 21.9 10.15 21.7 10.1 21.4C10.05 20.95 10 20.5 10 20C10 17.6 10.85 15.4 12.25 13.7C12.25 13.65 12.3 13.65 12.35 13.65C13.55 12.25 15.1 11.15 16.9 10.55C17.35 10.4 17.75 10.9 17.5 11.3C17.3 11.6 17.2 11.9 17.2 12.15C17.25 13.2 16.25 13.85 15.8 13.7C15.4 13.55 14.3 14.25 15.3 14.75L15.85 15C15.9 15 15.95 15.05 15.95 15.05L16.1 15.15C17.9 16.2 17.55 17.05 16.8 18.35C16.2442 19.2654 15.9022 18.9837 15.3965 18.5672C15.1289 18.3467 14.8153 18.0884 14.4 17.95C13.2 17.55 12 18.35 12.4 19.15C12.6 19.55 13 19.55 13.45 19.55C13.9 19.55 14.4 19.55 14.8 19.95C14.977 20.127 15.1149 20.3236 15.2482 20.5138C15.7175 21.1831 16.1311 21.773 18 21.15C20.4 20.35 20.8 20.75 21.6 21.55C22.3 22.35 22.7 23.95 21.5 25.15ZM27.3534 22.7659C27.3761 23.6726 27.3974 24.5259 27.85 25.05C28.1 25.3 28.5 25.25 28.7 24.95C29.5 23.5 30 21.8 30 20C30 17 28.65 14.3 26.55 12.5C26.45 12.4 26.3 12.35 26.2 12.35C25.65 12.35 25.1 12.4 24.6 12.6C22.7 13.25 20.85 15.2 22.3 17.55C23.1675 18.9213 24.0507 19.0238 24.8794 19.12C25.5314 19.1957 26.1496 19.2675 26.7 19.95C27.3021 20.7091 27.3285 21.7697 27.3534 22.7659Z" fill="white"/>
</g>
</svg>
