<svg width="40" height="40" viewBox="0 0 40 40" fill="none" xmlns="http://www.w3.org/2000/svg">
<rect width="40" height="40" rx="20" fill="#EF7EAD"/>
<mask id="mask0_1518_28050" style="mask-type:luminance" maskUnits="userSpaceOnUse" x="0" y="0" width="40" height="40">
<rect width="40" height="40" rx="20" fill="white"/>
</mask>
<g mask="url(#mask0_1518_28050)">
<path fill-rule="evenodd" clip-rule="evenodd" d="M8 20C8 13.4 13.4 8 20 8C26.6 8 32 13.4 32 20C32 26.6 26.6 32 20 32C13.4 32 8 26.6 8 20ZM11 20C11 24.95 15.05 29 20 29C24.95 29 29 24.95 29 20C29 15.05 24.95 11 20 11C15.05 11 11 15.05 11 20Z" fill="white"/>
<path d="M21.7 20.1C21.55 19.95 21.5 19.75 21.5 19.55V14.75C21.5 14.35 21.15 14 20.75 14H19.25C18.85 14 18.5 14.35 18.5 14.75V20.8C18.5 21 18.6 21.2 18.7 21.35L22.4 25.05C22.7 25.35 23.15 25.35 23.45 25.05L24.5 24C24.8 23.7 24.8 23.25 24.5 22.95L21.7 20.1Z" fill="white"/>
</g>
</svg>
