<svg width="40" height="40" viewBox="0 0 40 40" fill="none" xmlns="http://www.w3.org/2000/svg">
<rect width="40" height="40" rx="20" fill="#7DC37D"/>
<mask id="mask0_1518_28356" style="mask-type:luminance" maskUnits="userSpaceOnUse" x="0" y="0" width="40" height="40">
<rect width="40" height="40" rx="20" fill="white"/>
</mask>
<g mask="url(#mask0_1518_28356)">
<path fill-rule="evenodd" clip-rule="evenodd" d="M10.1818 8H29.8182C31.0182 8 32 8.98182 32 10.1818V29.8182C32 31.0182 31.0182 32 29.8182 32H10.1818C8.98182 32 8 31.0182 8 29.8182V10.1818C8 8.98182 8.98182 8 10.1818 8ZM12.9091 12.9091C12.5818 12.9091 12.3636 13.1273 12.3636 13.4545V18.9091C12.3636 19.2364 12.5818 19.4545 12.9091 19.4545H18.3636C18.6909 19.4545 18.9091 19.2364 18.9091 18.9091V13.4545C18.9091 13.1273 18.6909 12.9091 18.3636 12.9091H12.9091ZM25.4545 27.6364C25.4545 27.9636 25.2364 28.1818 24.9091 28.1818H12.9091C12.5818 28.1818 12.3636 27.9636 12.3636 27.6364V26.5455C12.3636 26.2182 12.5818 26 12.9091 26H24.9091C25.2364 26 25.4545 26.2182 25.4545 26.5455V27.6364ZM27.0909 23.8182C27.4182 23.8182 27.6364 23.6 27.6364 23.2727V22.1818C27.6364 21.8545 27.4182 21.6364 27.0909 21.6364H12.9091C12.5818 21.6364 12.3636 21.8545 12.3636 22.1818V23.2727C12.3636 23.6 12.5818 23.8182 12.9091 23.8182H27.0909ZM27.6364 18.9091C27.6364 19.2364 27.4182 19.4545 27.0909 19.4545H21.6364C21.3091 19.4545 21.0909 19.2364 21.0909 18.9091V17.8182C21.0909 17.4909 21.3091 17.2727 21.6364 17.2727H27.0909C27.4182 17.2727 27.6364 17.4909 27.6364 17.8182V18.9091ZM27.0909 15.0909C27.4182 15.0909 27.6364 14.8727 27.6364 14.5455V13.4545C27.6364 13.1273 27.4182 12.9091 27.0909 12.9091H21.6364C21.3091 12.9091 21.0909 13.1273 21.0909 13.4545V14.5455C21.0909 14.8727 21.3091 15.0909 21.6364 15.0909H27.0909Z" fill="white"/>
</g>
</svg>
