<svg width="40" height="40" viewBox="0 0 40 40" fill="none" xmlns="http://www.w3.org/2000/svg">
<rect width="40" height="40" rx="20" fill="#54698D"/>
<mask id="mask0_1518_28056" style="mask-type:luminance" maskUnits="userSpaceOnUse" x="0" y="0" width="40" height="40">
<rect width="40" height="40" rx="20" fill="white"/>
</mask>
<g mask="url(#mask0_1518_28056)">
<path d="M31.25 22.5H29.75C29.35 22.5 29 22.85 29 23.25V28.25C29 28.65 28.65 29 28.25 29H11.75C11.35 29 11 28.65 11 28.25V23.25C11 22.85 10.65 22.5 10.25 22.5H8.75C8.35 22.5 8 22.85 8 23.25V30C8 31.1 8.9 32 10 32H30C31.1 32 32 31.1 32 30V23.25C32 22.85 31.65 22.5 31.25 22.5Z" fill="white"/>
<path d="M19.5 25.8C19.8 26.1 20.25 26.1 20.55 25.8L27.3 19.05C27.6 18.75 27.6 18.3 27.3 18L26.25 16.95C25.95 16.65 25.5 16.65 25.2 16.95L22.4 19.75C22.1 20.05 21.55 19.85 21.55 19.4V8.75C21.5 8.35 21.1 8 20.75 8H19.25C18.85 8 18.5 8.35 18.5 8.75V19.35C18.5 19.8 17.95 20 17.65 19.7L14.85 16.9C14.55 16.6 14.1 16.6 13.8 16.9L12.75 18C12.45 18.3 12.45 18.75 12.75 19.05L19.5 25.8Z" fill="white"/>
</g>
</svg>
