<svg width="26" height="26" viewBox="0 0 26 26" fill="none" xmlns="http://www.w3.org/2000/svg">
<path fill-rule="evenodd" clip-rule="evenodd" d="M13.1 0.5C6.15 0.5 0.5 6.15 0.5 13.1C0.5 20.05 6.15 25.7 13.1 25.7C20.05 25.7 25.7 20.05 25.7 13.1C25.7 6.15 20.05 0.5 13.1 0.5ZM13.1 23.2C7.55 23.2 3 18.65 3 13.1C3 7.55 7.55 3 13.1 3C18.65 3 23.2 7.55 23.2 13.1C23.2 18.65 18.65 23.2 13.1 23.2ZM13.1 5.55C8.95 5.55 5.55 8.95 5.55 13.1C5.55 17.25 8.95 20.65 13.1 20.65C17.25 20.65 20.65 17.25 20.65 13.1C20.65 8.95 17.25 5.55 13.1 5.55ZM13.1 18.15C10.35 18.15 8.05 15.9 8.05 13.1C8.05 10.3 10.35 8.05 13.1 8.05C15.85 8.05 18.15 10.35 18.15 13.1C18.15 15.85 15.85 18.15 13.1 18.15ZM13.1 10.6C11.7 10.6 10.6 11.75 10.6 13.1C10.6 14.45 11.75 15.6 13.1 15.6C14.45 15.6 15.6 14.45 15.6 13.1C15.6 11.75 14.5 10.6 13.1 10.6Z" fill="#706E6B"/>
</svg>
