<svg width="26" height="26" viewBox="0 0 26 26" fill="none" xmlns="http://www.w3.org/2000/svg">
<path fill-rule="evenodd" clip-rule="evenodd" d="M21.7296 10.5625L13.5296 1.2625C13.2296 0.9125 12.6296 0.9125 12.3296 1.2625L4.12961 10.5625C3.82961 10.9125 4.07961 11.5125 4.57961 11.5125H8.42961V17.7625C8.42961 18.1625 8.77961 18.5125 9.17961 18.5125H16.6796C17.0796 18.5125 17.4296 18.1625 17.4296 17.7625V11.5125H21.2796C21.7796 11.5125 22.0296 10.9125 21.7296 10.5625ZM16.6796 21.5125H9.17961C8.77961 21.5125 8.42961 21.8625 8.42961 22.2625V24.2625C8.42961 24.6625 8.77961 25.0125 9.17961 25.0125H16.6796C17.0796 25.0125 17.4296 24.6625 17.4296 24.2625V22.2625C17.4296 21.8625 17.0796 21.5125 16.6796 21.5125Z" fill="#706E6B"/>
</svg>
