<svg width="26" height="26" viewBox="0 0 26 26" fill="none" xmlns="http://www.w3.org/2000/svg">
<path fill-rule="evenodd" clip-rule="evenodd" d="M10.05 12.9999H22C22.35 12.9999 22.7 12.7499 22.75 12.3999L24.95 4.6999C25.1 4.1499 24.7 3.6999 24.2 3.6999H5.74999L5.44999 2.5499C5.29999 1.9999 4.79999 1.6499 4.29999 1.6499H2.29999C1.64999 1.6499 1.04999 2.1499 0.99999 2.7999C0.94999 3.4999 1.54999 4.0999 2.19999 4.0999H3.34999L7.14999 16.9499C7.29999 17.4999 7.74999 17.8499 8.29999 17.8499H22.4C23.05 17.8499 23.65 17.3499 23.7 16.6999C23.75 15.9999 23.15 15.3999 22.5 15.3999H10.1C9.54999 15.3999 9.09999 15.0499 8.94999 14.5499V14.4999C8.69999 13.7499 9.29999 12.9999 10.05 12.9999ZM10.3 24.2999C11.4046 24.2999 12.3 23.4045 12.3 22.2999C12.3 21.1953 11.4046 20.2999 10.3 20.2999C9.19542 20.2999 8.29999 21.1953 8.29999 22.2999C8.29999 23.4045 9.19542 24.2999 10.3 24.2999ZM22.05 22.2999C22.05 23.4045 21.1546 24.2999 20.05 24.2999C18.9454 24.2999 18.05 23.4045 18.05 22.2999C18.05 21.1953 18.9454 20.2999 20.05 20.2999C21.1546 20.2999 22.05 21.1953 22.05 22.2999Z" fill="#706E6B"/>
</svg>
