<svg width="26" height="26" viewBox="0 0 26 26" fill="none" xmlns="http://www.w3.org/2000/svg">
<path fill-rule="evenodd" clip-rule="evenodd" d="M24 3.75C24 3.35 23.65 3 23.25 3H2.75C2.35 3 2 3.35 2 3.75V5.25C2 5.65 2.35 6 2.75 6H23.25C23.65 6 24 5.65 24 5.25V3.75ZM21 9.75C21 9.35 20.65 9 20.25 9H5.75C5.35 9 5 9.35 5 9.75V11.25C5 11.65 5.35 12 5.75 12H20.25C20.65 12 21 11.65 21 11.25V9.75ZM20 21.75C20 21.35 19.65 21 19.25 21H6.75C6.35 21 6 21.35 6 21.75V23.25C6 23.65 6.35 24 6.75 24H19.25C19.65 24 20 23.65 20 23.25V21.75ZM24 15.75C24 15.35 23.65 15 23.25 15H2.75C2.35 15 2 15.35 2 15.75V17.25C2 17.65 2.35 18 2.75 18H23.25C23.65 18 24 17.65 24 17.25V15.75Z" fill="#706E6B"/>
</svg>
