<svg width="26" height="26" viewBox="0 0 26 26" fill="none" xmlns="http://www.w3.org/2000/svg">
<path fill-rule="evenodd" clip-rule="evenodd" d="M10 18.75C10 18.35 9.65 18 9.25 18H1.75C1.35 18 1 18.35 1 18.75V24.25C1 24.65 1.35 25 1.75 25H9.25C9.65 25 10 24.65 10 24.25V18.75ZM4.05 11H1.6C1.1 11 0.85 11.45 1.15 11.7L5.15 15.85C5.35 16 5.65 16 5.85 15.85L9.85 11.7C10.15 11.4 9.9 11 9.4 11H7.05C7.05 8.5 9.5 6 12 6V3C7.5 3 4.05 6.5 4.05 11ZM20.9 10.15C20.7 10 20.4 10 20.2 10.15L16.2 14.3C15.9 14.6 16.15 15 16.65 15H19.05C19.05 18 17 20 14 20V23C18.5 23 22.05 19.5 22.05 15H24.5C25 15 25.25 14.55 24.95 14.3L20.9 10.15ZM25 1.75C25 1.35 24.65 1 24.25 1H16.75C16.35 1 16 1.35 16 1.75V7.25C16 7.65 16.35 8 16.75 8H24.25C24.65 8 25 7.65 25 7.25V1.75Z" fill="#706E6B"/>
</svg>
