<svg width="26" height="26" viewBox="0 0 26 26" fill="none" xmlns="http://www.w3.org/2000/svg">
<path fill-rule="evenodd" clip-rule="evenodd" d="M22.7653 11.6248L12.5153 17.2748C11.8153 17.6248 11.0153 17.1248 11.0153 16.3748V4.12483C11.0153 3.62483 10.5153 3.22483 10.0653 3.37483C5.06534 4.77483 1.46534 9.62483 2.06534 15.1748C2.61534 20.2248 6.66534 24.3248 11.7653 24.8748C18.4153 25.5748 24.0153 20.4248 24.0153 13.9248C24.0153 13.3248 23.9653 12.7248 23.8653 12.1248C23.7653 11.6248 23.2153 11.3748 22.7653 11.6248ZM13.8653 13.9248L23.7153 8.67483C24.3153 8.37483 24.5153 7.57483 24.1153 7.02483C21.8653 3.92483 18.3653 1.67483 14.3653 1.02483C13.6653 0.87483 13.0153 1.42483 13.0153 2.12483V13.4248C13.0153 13.8748 13.4653 14.1248 13.8653 13.9248Z" fill="#706E6B"/>
</svg>
