<svg width="26" height="26" viewBox="0 0 26 26" fill="none" xmlns="http://www.w3.org/2000/svg">
<path fill-rule="evenodd" clip-rule="evenodd" d="M5.23846 2.18739L14.7923 12.4316C15.0692 12.7314 15.0692 13.2311 14.7923 13.5309L5.23846 23.7751C4.96154 24.075 4.5 24.075 4.22308 23.7751L3.20769 22.6758C2.93077 22.3759 2.93077 21.8762 3.20769 21.5764L10.7769 13.5309C11.0538 13.2311 11.0538 12.7314 10.7769 12.4316L3.25385 4.38614C2.97692 4.08631 2.97692 3.5866 3.25385 3.28677L4.26923 2.18739C4.54615 1.93754 4.96154 1.93754 5.23846 2.18739Z" fill="#706E6B"/>
<path fill-rule="evenodd" clip-rule="evenodd" d="M13.2385 2.18739L22.7923 12.4316C23.0692 12.7314 23.0692 13.2311 22.7923 13.5309L13.2385 23.7751C12.9615 24.075 12.5 24.075 12.2231 23.7751L11.2077 22.6758C10.9308 22.3759 10.9308 21.8762 11.2077 21.5764L18.7769 13.5309C19.0538 13.2311 19.0538 12.7314 18.7769 12.4316L11.2538 4.38614C10.9769 4.08631 10.9769 3.5866 11.2538 3.28677L12.2692 2.18739C12.5462 1.93754 12.9615 1.93754 13.2385 2.18739Z" fill="#706E6B"/>
</svg>
