<svg width="26" height="26" viewBox="0 0 26 26" fill="none" xmlns="http://www.w3.org/2000/svg">
<path fill-rule="evenodd" clip-rule="evenodd" d="M13.2255 17.8143V13.9902C13.2255 13.9902 11.5159 16.5546 10.4362 18.3092C9.35645 20.0637 9.49142 21.4584 9.49142 21.4584C9.49142 22.853 10.5262 24.0227 11.7859 24.0227C12.5507 24.0227 13.2255 23.6178 13.6304 22.943C14.0353 23.5279 14.6651 23.8428 15.385 23.8428C16.6446 23.8428 17.6794 22.7181 17.6794 21.2784C17.6794 21.1435 17.6344 21.0085 17.6344 20.8735C17.6344 18.984 13.4954 13.9002 13.4954 13.9002V17.8143L14.0353 19.119C14.0353 19.1639 14.0803 19.2089 14.0803 19.2989C14.0803 19.6138 13.8104 19.8838 13.4954 19.8838C13.1805 19.8838 12.9106 19.6138 12.9106 19.2989C12.9106 19.2539 12.9106 19.1639 12.9556 19.119L13.2255 17.8143ZM8.90656 14.4851L12.5057 13.1354C12.5057 13.1354 9.53641 12.4156 7.46692 12.0107C5.39743 11.6058 4.18273 12.2357 4.18273 12.2357C2.87806 12.7305 2.15823 14.0802 2.56313 15.2499C2.83307 15.9697 3.46291 16.4646 4.22772 16.6446C3.82282 17.2294 3.73284 17.9492 3.95779 18.6241C4.40768 19.7938 5.80233 20.3786 7.152 19.8838C7.28696 19.8388 7.42193 19.7488 7.51191 19.7038C9.31146 19.074 12.5957 13.4054 12.5957 13.4054L9.08652 14.71L8.95155 14.755L7.91681 15.6998C7.87182 15.7448 7.82683 15.7448 7.78184 15.7898C7.46692 15.9247 7.10701 15.7448 7.01703 15.4299C6.88207 15.1149 7.06202 14.755 7.37694 14.6651C7.42193 14.6651 7.51191 14.6201 7.5569 14.6201L8.90656 14.4851ZM10.7061 9.13143L13.0006 12.2357C13.0006 12.2357 12.8206 9.17642 12.6406 7.10693C12.4607 5.03744 11.5159 4.0027 11.5159 4.0027C10.6611 2.87798 9.1765 2.56305 8.18674 3.32786C7.5569 3.77775 7.28697 4.54256 7.33195 5.30737C6.65712 5.08243 5.9373 5.17241 5.35244 5.57731C4.36269 6.34212 4.22772 7.87174 5.03752 8.99646C5.1275 9.08644 5.21748 9.22141 5.30746 9.31138C6.43218 10.841 12.8206 12.4156 12.8206 12.4156L10.5712 9.40136L10.4812 9.31138L9.26647 8.59156L9.13151 8.45659C8.95155 8.18666 8.99654 7.82675 9.26647 7.60181C9.53641 7.42185 9.89632 7.46684 10.1213 7.73677C10.1663 7.78176 10.1663 7.82675 10.2112 7.87174L10.7061 9.13143ZM17.9943 14.4851L14.3952 13.1354C14.3952 13.1354 17.3645 12.4156 19.434 12.0107C21.5034 11.6058 22.7181 12.2357 22.7181 12.2357C24.0228 12.7305 24.7426 14.0802 24.3377 15.2499C24.0678 15.9697 23.438 16.4646 22.6732 16.6446C23.0781 17.2294 23.168 17.9492 22.9431 18.6241C22.4932 19.7938 21.0985 20.3786 19.7489 19.8838C19.6139 19.8388 19.4789 19.7488 19.389 19.7038C17.5894 19.074 14.3052 13.4054 14.3052 13.4054L17.8144 14.71L17.9493 14.755L18.9841 15.6998C19.0291 15.7448 19.074 15.7448 19.119 15.7898C19.434 15.9247 19.7939 15.7448 19.8838 15.4299C20.0188 15.1149 19.8389 14.755 19.5239 14.6651C19.4789 14.6651 19.389 14.6201 19.344 14.6201L17.9943 14.4851ZM16.0148 9.13143L13.7204 12.2357C13.7204 12.2357 13.9003 9.17642 14.0803 7.10693C14.2602 5.03744 15.205 4.0027 15.205 4.0027C16.0598 2.87798 17.5444 2.56305 18.5342 3.32786C19.164 3.77775 19.434 4.54256 19.389 5.30737C20.0638 5.12742 20.7836 5.2174 21.3235 5.6223C22.3132 6.38711 22.4482 7.91673 21.6384 9.04145C21.5484 9.13143 21.4585 9.26639 21.3685 9.35637C20.2887 10.841 13.9003 12.3706 13.9003 12.3706L16.1498 9.35637L16.2397 9.26639L17.4544 8.54657L17.5894 8.41161C17.7694 8.14167 17.7244 7.78176 17.4544 7.55682C17.1845 7.37686 16.8246 7.42185 16.5997 7.69178C16.5547 7.73677 16.5547 7.78176 16.5097 7.82675L16.0148 9.13143Z" fill="#706E6B"/>
</svg>
