<svg width="26" height="26" viewBox="0 0 26 26" fill="none" xmlns="http://www.w3.org/2000/svg">
<path fill-rule="evenodd" clip-rule="evenodd" d="M13 1C6.35 1 1 6.35 1 13C1 19.65 6.35 25 13 25C19.65 25 25 19.65 25 13C25 6.35 19.65 1 13 1ZM15.45 13.4L19.35 17.3C19.55 17.5 19.55 17.8 19.35 18L17.95 19.4C17.75 19.6 17.45 19.6 17.25 19.4L13.35 15.5C13.15 15.3 12.85 15.3 12.65 15.5L8.75 19.4C8.55 19.6 8.25 19.6 8.05 19.4L6.65 18C6.45 17.8 6.45 17.5 6.65 17.3L10.55 13.4C10.75 13.2 10.75 12.9 10.55 12.7L6.6 8.75C6.4 8.55 6.4 8.25 6.6 8.05L8 6.65C8.2 6.45 8.5 6.45 8.7 6.65L12.65 10.6C12.85 10.8 13.15 10.8 13.35 10.6L17.25 6.7C17.45 6.5 17.75 6.5 17.95 6.7L19.35 8.1C19.55 8.3 19.55 8.6 19.35 8.8L15.45 12.7C15.3 12.9 15.3 13.2 15.45 13.4Z" fill="#706E6B"/>
</svg>
