<svg width="26" height="26" viewBox="0 0 26 26" fill="none" xmlns="http://www.w3.org/2000/svg">
<path fill-rule="evenodd" clip-rule="evenodd" d="M13 1C6.4 1 1 6.4 1 13C1 19.6 6.4 25 13 25C19.6 25 25 19.6 25 13C25 6.4 19.6 1 13 1ZM13 22C8.05 22 4 17.95 4 13C4 8.05 8.05 4 13 4C17.95 4 22 8.05 22 13C22 17.95 17.95 22 13 22ZM14.7 13.1C14.55 12.95 14.5 12.75 14.5 12.55V7.75C14.5 7.35 14.15 7 13.75 7H12.25C11.85 7 11.5 7.35 11.5 7.75V13.8C11.5 14 11.6 14.2 11.7 14.35L15.4 18.05C15.7 18.35 16.15 18.35 16.45 18.05L17.5 17C17.8 16.7 17.8 16.25 17.5 15.95L14.7 13.1Z" fill="#706E6B"/>
</svg>
