<svg width="26" height="26" viewBox="0 0 26 26" fill="none" xmlns="http://www.w3.org/2000/svg">
<path fill-rule="evenodd" clip-rule="evenodd" d="M17.2081 5.55556L20.4518 8.84259C21.1827 9.53704 21.1827 10.7407 20.4518 11.4352L12 20V8.24074L14.6497 5.55556C15.335 4.81481 16.5228 4.81481 17.2081 5.55556ZM24 17.7778V22.2222C24 23.2 23.1931 24 22.2069 24H11L19.069 16H22.2069C23.1931 16 24 16.8 24 17.7778ZM2 19.875V3.83333C2 2.825 2.8 2 3.77778 2H8.22222C9.2 2 10 2.825 10 3.83333V19.875C10 22.1667 8.22222 24 6 24C3.77778 24 2 22.1667 2 19.875ZM6 22C7.1 22 8 21.1 8 20C8 18.9 7.1 18 6 18C4.9 18 4 18.9 4 20C4 21.1 4.9 22 6 22Z" fill="#706E6B"/>
</svg>
