<svg width="26" height="26" viewBox="0 0 26 26" fill="none" xmlns="http://www.w3.org/2000/svg">
<path fill-rule="evenodd" clip-rule="evenodd" d="M14.7875 11.9443H22.4875C22.9875 11.9443 23.1375 11.3943 22.7375 10.9943L20.2875 8.49427L24.7875 3.94427C25.0375 3.69427 25.0375 3.24427 24.7875 2.99427L22.9375 1.14427C22.6875 0.944272 22.2875 0.944272 21.9875 1.19427L17.4875 5.69427L14.9375 3.24427C14.5375 2.84427 13.9875 2.99427 13.9875 3.49427V11.1943C13.9875 11.5443 14.4375 11.9443 14.7875 11.9443ZM11.1875 13.9943H3.4875C2.9875 13.9943 2.8375 14.5443 3.2375 14.9443L5.6875 17.4443L1.1875 21.9943C0.9375 22.2443 0.9375 22.6943 1.1875 22.9443L3.0375 24.7943C3.2875 25.0443 3.6875 25.0443 3.9875 24.7943L8.5375 20.2443L11.0875 22.6943C11.4375 23.1443 11.9875 22.9943 11.9875 22.4943V14.8443C11.9875 14.4943 11.5375 13.9943 11.1875 13.9943Z" fill="#706E6B"/>
</svg>
