<svg width="26" height="26" viewBox="0 0 26 26" fill="none" xmlns="http://www.w3.org/2000/svg">
<path fill-rule="evenodd" clip-rule="evenodd" d="M8.7 5.8H17.35C17.8 5.8 18.15 5.45 18.15 5V3.4C18.15 2.1 17.1 1 15.8 1H10.3C9 1 7.95 2.1 7.95 3.4V5C7.9 5.45 8.25 5.8 8.7 5.8ZM21.65 3H20.85C20.6 3 20.45 3.15 20.45 3.4V5C20.45 6.75 19.05 8.2 17.3 8.2H8.7C6.95 8.2 5.55 6.75 5.55 5V3.4C5.55 3.15 5.4 3 5.15 3H4.35C3.05 3 2 4.1 2 5.4V22.6C2 23.9 3.05 25 4.35 25H21.65C22.95 25 24 23.9 24 22.6V5.4C24 4.1 22.95 3 21.65 3Z" fill="#706E6B"/>
</svg>
