<svg width="26" height="26" viewBox="0 0 26 26" fill="none" xmlns="http://www.w3.org/2000/svg">
<path fill-rule="evenodd" clip-rule="evenodd" d="M17.5 5C16.65 5 15.85 5.1 15.1 5.35C16 6.1 16.8 7 17.45 8H17.5C20.55 8 23 10.45 23 13.5C23 16.55 20.55 19 17.5 19C16.75 19 16 18.85 15.35 18.55C15.75 18 16.1 17.4 16.35 16.8C16.45 16.55 16.55 16.35 16.6 16.1C16.85 15.3 17 14.4 17 13.5C17 8.8 13.2 5 8.5 5C3.8 5 0 8.8 0 13.5C0 18.2 3.8 22 8.5 22C9.35 22 10.15 21.9 10.9 21.65C10 20.9 9.2 20 8.55 19H8.5C5.45 19 3 16.55 3 13.5C3 10.45 5.45 8 8.5 8C9.25 8 10 8.15 10.7 8.45C9.65 9.85 9 11.6 9 13.5C9 18.2 12.8 22 17.5 22C22.2 22 26 18.2 26 13.5C26 8.8 22.2 5 17.5 5Z" fill="#706E6B"/>
</svg>
