<svg width="26" height="26" viewBox="0 0 26 26" fill="none" xmlns="http://www.w3.org/2000/svg">
<path fill-rule="evenodd" clip-rule="evenodd" d="M17.95 18.8C19.3 16.55 19.05 13.6 17.1 11.65C14.85 9.4 11.15 9.4 8.9 11.65C6.95 13.6 6.7 16.55 8.05 18.8H17.95ZM24.75 3.6V22.4C24.75 23.7 23.7 24.75 22.4 24.75H3.6C2.3 24.75 1.25 23.7 1.25 22.4V3.6C1.25 2.3 2.3 1.25 3.6 1.25H22.4C23.7 1.25 24.75 2.3 24.75 3.6ZM5.15 21.6H20.8C21.25 21.6 21.6 21.25 21.6 20.8V5.15C21.6 4.7 21.25 4.35 20.8 4.35H5.15C4.7 4.35 4.35 4.7 4.35 5.15V20.8C4.4 21.25 4.75 21.6 5.15 21.6Z" fill="#706E6B"/>
</svg>
