<svg width="48" height="48" viewBox="0 0 48 48" fill="none" xmlns="http://www.w3.org/2000/svg">
<rect width="48" height="48" rx="4" fill="#3C97DD"/>
<mask id="mask0_1518_27633" style="mask-type:luminance" maskUnits="userSpaceOnUse" x="0" y="0" width="48" height="48">
<rect width="48" height="48" rx="4" fill="white"/>
</mask>
<g mask="url(#mask0_1518_27633)">
<path fill-rule="evenodd" clip-rule="evenodd" d="M25.9266 28.3068L32.7266 32.1602C33.0666 32.3302 33.5766 32.3302 33.9166 32.1602L40.7166 28.3068C40.9999 28.1935 40.9999 27.8535 40.7166 27.6835L33.9166 23.8302C33.5766 23.6035 33.0666 23.6035 32.7266 23.8302L25.9266 27.6835C25.6433 27.7968 25.6433 28.1368 25.9266 28.3068ZM40.6599 32.6135L33.8599 36.4668C33.5199 36.6935 33.0099 36.6935 32.6699 36.4668L25.9266 32.6135C25.6433 32.4435 25.6433 32.1035 25.9266 31.9902L27.5133 31.0835C27.6266 31.0268 27.7399 31.0268 27.8533 31.0835L31.9899 33.4068C32.3866 33.6335 32.8399 33.7468 33.2933 33.7468C33.7466 33.7468 34.1999 33.6335 34.5966 33.4068L38.7333 31.0835C38.8466 31.0268 38.9599 31.0268 39.0733 31.0835L40.6599 31.9902C40.9433 32.1035 40.9433 32.4435 40.6599 32.6135ZM40.6599 36.9768L33.8599 40.8302C33.5199 41.0568 33.0099 41.0568 32.6699 40.8302L25.9266 36.9768C25.6433 36.8068 25.6433 36.4668 25.9266 36.3535L27.5133 35.4468C27.6266 35.3902 27.7399 35.3902 27.8533 35.4468L31.9899 37.7702C32.3866 37.9968 32.8399 38.1102 33.2933 38.1102C33.7466 38.1102 34.1999 37.9968 34.5966 37.7702L38.7333 35.4468C38.8466 35.3902 38.9599 35.3902 39.0733 35.4468L40.6599 36.3535C40.9433 36.4668 40.9433 36.8068 40.6599 36.9768Z" fill="white"/>
<path d="M25.0766 29.95C25.36 29.78 25.36 29.44 25.0766 29.3267L23.49 28.42H23.4333V27.6833C23.4333 27.6833 23.4333 26.72 24.2833 26.21C24.51 26.0967 24.9633 25.87 25.4733 25.5867C25.2466 25.4733 25.02 25.36 24.7933 25.3033C23.7733 24.7933 22.3 24.2833 21.8466 22.98C21.5633 22.3 21.7333 21.5633 22.0733 20.94C22.6966 20.3167 23.2633 19.75 23.7733 18.9567C23.8866 18.73 24 18.6167 24.1133 18.39C25.53 16.35 25.7 13.5733 24.9066 11.25C24.0566 8.75667 21.8466 7.05667 19.1266 7H18.73C16.01 7.05667 13.7433 8.75667 12.95 11.25C12.1 13.63 12.3266 16.35 13.7433 18.39C13.8 18.6167 13.97 18.73 14.0833 18.9567C14.5933 19.75 15.2166 20.26 15.7833 20.94C16.0666 21.5633 16.18 22.2433 16.01 22.98C15.6133 24.2267 14.14 24.7933 13.0633 25.3033C10.6833 26.3233 7.73665 27.7967 7.28331 30.6867C6.77331 33.0667 8.41665 35.4467 10.91 35.4467H23.4333L25.0766 34.37C25.36 34.2 25.36 33.86 25.0766 33.7467L23.49 32.84H23.4333V31.0267L25.0766 29.95Z" fill="white"/>
</g>
</svg>
