<svg width="48" height="48" viewBox="0 0 48 48" fill="none" xmlns="http://www.w3.org/2000/svg">
<rect width="48" height="48" rx="4" fill="#4BC076"/>
<mask id="mask0_1518_27357" style="mask-type:luminance" maskUnits="userSpaceOnUse" x="0" y="0" width="48" height="48">
<rect width="48" height="48" rx="4" fill="white"/>
</mask>
<g mask="url(#mask0_1518_27357)">
<path fill-rule="evenodd" clip-rule="evenodd" d="M10.4 10.9667H37.6C39.47 10.9667 41 12.4967 41 14.3667V33.6333C41 35.5033 39.47 37.0333 37.6 37.0333H10.4C8.53 37.0333 7 35.5033 7 33.6333V14.3667C7 12.4967 8.53 10.9667 10.4 10.9667ZM33.8033 26.6633C34.2 27.0033 34.7667 26.7767 34.7667 26.2667H34.71V18.39C34.71 17.7667 34.2567 17.2 33.6333 17.2H25.7C25.19 17.2 24.9633 17.88 25.3033 18.22L27.6833 20.3733L24 24.6233L20.3733 20.9967C19.75 20.3167 18.6733 20.3167 17.9933 20.9967L11.6467 29.6667C11.42 29.8933 11.42 30.2333 11.6467 30.46L11.93 30.7433C12.1567 30.97 12.4967 30.97 12.7233 30.7433L19.1833 25.0767L22.81 29.2133C23.4333 29.8933 24.51 29.8933 25.19 29.2133L31.1967 24.0567L33.8033 26.6633Z" fill="white"/>
</g>
</svg>
