<svg width="48" height="48" viewBox="0 0 48 48" fill="none" xmlns="http://www.w3.org/2000/svg">
<rect width="48" height="48" rx="4" fill="#2A739E"/>
<mask id="mask0_1518_27641" style="mask-type:luminance" maskUnits="userSpaceOnUse" x="0" y="0" width="48" height="48">
<rect width="48" height="48" rx="4" fill="white"/>
</mask>
<g mask="url(#mask0_1518_27641)">
<path fill-rule="evenodd" clip-rule="evenodd" d="M33.2129 23.2876C33.5968 21.6424 35.1322 20.436 36.8871 20.436C39.0258 20.436 40.7258 22.136 40.7258 24.2747C40.7258 26.4134 38.971 28.1134 36.8871 28.1134C35.1322 28.1134 33.6516 26.9069 33.2129 25.2618H30.5258C30.0871 28.0037 27.9484 30.1424 25.2064 30.5263V33.2134C26.8516 33.5973 28.0581 35.1327 28.0581 36.8876C28.0581 39.0263 26.3581 40.7263 24.2193 40.7263C22.0806 40.7263 20.3806 38.9715 20.3806 36.8876C20.3806 35.1327 21.5871 33.6521 23.2322 33.2134V30.5263C20.4903 30.0876 18.3516 28.0037 17.9129 25.2618H15.2258C14.8419 26.9069 13.3064 28.1134 11.5516 28.1134C9.41289 28.1134 7.71289 26.3585 7.71289 24.2747C7.71289 22.136 9.46773 20.436 11.5516 20.436C13.3064 20.436 14.7871 21.6424 15.2258 23.2876H17.9129C18.3516 20.1618 20.9839 17.8037 24.2193 17.8037C27.4548 17.8037 30.0871 20.2166 30.5258 23.2876H33.2129ZM24.2742 38.7521C25.3161 38.7521 26.1935 37.8747 26.1935 36.8327C26.1935 35.7908 25.3161 34.9134 24.2742 34.9134C23.2322 34.9134 22.3548 35.7908 22.3548 36.8327C22.3548 37.8747 23.2322 38.7521 24.2742 38.7521Z" fill="white"/>
<path d="M15.1161 16.3227C14.6774 16.7614 14.6774 17.4195 15.1161 17.8582C15.5549 18.2969 16.2129 18.2969 16.6516 17.8582C20.7097 13.8001 27.2903 13.8001 31.3484 17.8582C31.5678 18.0775 31.8419 18.1872 32.1161 18.1872C32.3903 18.1872 32.6645 18.0775 32.8839 17.8582C33.3226 17.4195 33.3226 16.7614 32.8839 16.3227C28.0032 11.3872 19.9968 11.3872 15.1161 16.3227Z" fill="white"/>
<path d="M12.3194 14.3484C18.7903 7.93229 29.2097 7.93229 35.6806 14.3484C35.9 14.5678 36.1742 14.6775 36.4484 14.6775C36.7226 14.6775 36.9968 14.5678 37.2161 14.3484C37.6548 13.9097 37.6548 13.2516 37.2161 12.8129C29.9226 5.51939 18.0774 5.51939 10.7839 12.8129C10.3452 13.2516 10.3452 13.9097 10.7839 14.3484C11.2226 14.7871 11.8806 14.7871 12.3194 14.3484Z" fill="white"/>
</g>
</svg>
