<svg width="48" height="48" viewBox="0 0 48 48" fill="none" xmlns="http://www.w3.org/2000/svg">
<g clip-path="url(#clip0_1518_27992)">
<mask id="mask0_1518_27992" style="mask-type:alpha" maskUnits="userSpaceOnUse" x="0" y="0" width="48" height="48">
<path d="M44 0H4C1.79086 0 0 1.79086 0 4V44C0 46.2091 1.79086 48 4 48H44C46.2091 48 48 46.2091 48 44V4C48 1.79086 46.2091 0 44 0Z" fill="white"/>
</mask>
<g mask="url(#mask0_1518_27992)">
<path d="M44 0H4C1.79086 0 0 1.79086 0 4V44C0 46.2091 1.79086 48 4 48H44C46.2091 48 48 46.2091 48 44V4C48 1.79086 46.2091 0 44 0Z" fill="#F88965"/>
<path d="M24 8.86523C14.842 8.86523 7.54843 15.6104 7.54843 23.891C7.54843 26.5233 8.31617 28.991 9.52262 31.1846C9.74197 31.5136 9.79681 31.9523 9.68714 32.3362L7.54843 38.2039C7.32907 38.7523 7.87746 39.2459 8.42584 39.0814L14.4033 36.833C14.7323 36.6685 15.171 36.7781 15.5549 36.9975C18.0226 38.3685 20.9839 39.191 24.1646 39.191C33.1581 39.0814 40.5065 32.4459 40.5065 24.0556C40.4516 15.5556 33.1033 8.86523 24 8.86523ZM31.2936 22.3007L27.4549 25.1523C27.2904 25.262 27.2355 25.4814 27.2904 25.7007L29.1 30.5265C29.2097 30.9652 28.771 31.3491 28.3871 31.0749L24.2742 28.0039C24.1097 27.8943 23.8904 27.8943 23.7258 28.0039L19.5581 31.0749C19.1742 31.3491 18.6807 30.9652 18.8452 30.5265L20.6 25.7007C20.6549 25.5362 20.6 25.3168 20.4355 25.1523L16.5968 22.3007C16.2129 22.0265 16.4323 21.3685 16.871 21.3685H21.5871C21.8065 21.3685 21.971 21.3136 22.0258 21.0943L23.5065 16.3233C23.6162 15.8846 24.2742 15.9394 24.3839 16.3781L25.8097 21.0943C25.8646 21.2588 26.0839 21.3685 26.2484 21.3685H30.9646C31.5129 21.3685 31.6775 22.0265 31.2936 22.3007Z" fill="white"/>
</g>
</g>
<defs>
<clipPath id="clip0_1518_27992">
<rect width="48" height="48" fill="white"/>
</clipPath>
</defs>
</svg>
