<svg width="48" height="48" viewBox="0 0 48 48" fill="none" xmlns="http://www.w3.org/2000/svg">
<rect width="48" height="48" rx="4" fill="#F2CF5B"/>
<mask id="mask0_1518_27571" style="mask-type:luminance" maskUnits="userSpaceOnUse" x="0" y="0" width="48" height="48">
<rect width="48" height="48" rx="4" fill="white"/>
</mask>
<g mask="url(#mask0_1518_27571)">
<path d="M22.9968 27.0656C23.4427 27.4558 24.0558 27.4558 24.5017 27.0656L40.2755 12.4624C40.5541 11.905 40.4984 11.0132 39.3836 11.0132L8.17053 11.0689C7.33447 11.0689 6.66561 11.8492 7.27873 12.5181L22.9968 27.0656Z" fill="white"/>
<path d="M40.4427 18.7049C40.4427 17.9803 39.5509 17.5901 39.0492 18.0918L26.7869 29.4622C25.9509 30.2426 24.8919 30.6327 23.7771 30.6327C22.6623 30.6327 21.6033 30.2426 20.7673 29.4622L8.44923 18.0918C7.89185 17.5901 7.05579 17.9803 7.05579 18.7049C7.05579 23.1081 7.05579 33.1967 7.05579 33.1967C7.05579 35.036 8.5607 36.5409 10.4 36.5409H37.1541C38.9935 36.5409 40.4984 35.036 40.4984 33.1967C40.4427 33.1967 40.4427 23.1639 40.4427 18.7049Z" fill="white"/>
</g>
</svg>
