<svg width="48" height="48" viewBox="0 0 48 48" fill="none" xmlns="http://www.w3.org/2000/svg">
<g clip-path="url(#clip0_1518_27984)">
<mask id="mask0_1518_27984" style="mask-type:alpha" maskUnits="userSpaceOnUse" x="0" y="0" width="48" height="48">
<path d="M44 0H4C1.79086 0 0 1.79086 0 4V44C0 46.2091 1.79086 48 4 48H44C46.2091 48 48 46.2091 48 44V4C48 1.79086 46.2091 0 44 0Z" fill="white"/>
</mask>
<g mask="url(#mask0_1518_27984)">
<path d="M44 0H4C1.79086 0 0 1.79086 0 4V44C0 46.2091 1.79086 48 4 48H44C46.2091 48 48 46.2091 48 44V4C48 1.79086 46.2091 0 44 0Z" fill="#00A1E0"/>
<path d="M31.5366 28.7028C34.8853 28.7028 37.5999 25.9882 37.5999 22.6395C37.5999 19.2908 34.8853 16.5762 31.5366 16.5762C28.1879 16.5762 25.4733 19.2908 25.4733 22.6395C25.4733 25.9882 28.1879 28.7028 31.5366 28.7028Z" fill="white"/>
<path d="M31.7067 29.8363H31.2533C26.6937 29.8736 22.832 33.2076 22.13 37.713C22.13 38.1097 22.2433 39.073 23.66 39.073H39.0733C40.49 39.073 40.6033 38.223 40.6033 37.713C40.0952 33.1952 36.2528 29.7933 31.7067 29.8363Z" fill="white"/>
<path d="M23.2067 28.7024C23.4333 28.4758 23.2633 28.3058 23.2633 28.3058C22.1274 26.6336 21.5158 24.6606 21.5067 22.6391C21.481 20.5686 22.1162 18.5439 23.32 16.8591C23.32 16.8278 23.3454 16.8024 23.3767 16.8024C23.5211 16.6266 23.6011 16.4067 23.6033 16.1791V10.0591C23.5622 9.45104 23.0781 8.96691 22.47 8.92578H8.41666C7.79156 8.97722 7.30423 9.48892 7.28333 10.1158V36.2958H18.3333C19.0514 33.286 20.7695 30.609 23.2067 28.7024ZM13.5733 33.0658C13.55 33.7131 13.0306 34.2324 12.3833 34.2558H11.1933C10.546 34.2324 10.0267 33.7131 10.0033 33.0658V31.8758C10.0267 31.2285 10.546 30.7091 11.1933 30.6858H12.3833C13.0306 30.7091 13.55 31.2285 13.5733 31.8758V33.0658ZM13.5733 27.1158C13.55 27.7631 13.0306 28.2824 12.3833 28.3058H11.1933C10.546 28.2824 10.0267 27.7631 10.0033 27.1158V25.9258C10.0267 25.2785 10.546 24.7591 11.1933 24.7358H12.3833C13.0306 24.7591 13.55 25.2785 13.5733 25.9258V27.1158ZM13.5733 21.1658C13.55 21.8131 13.0306 22.3324 12.3833 22.3558H11.1933C10.546 22.3324 10.0267 21.8131 10.0033 21.1658V19.9758C10.0267 19.3285 10.546 18.8091 11.1933 18.7858H12.3833C13.0306 18.8091 13.55 19.3285 13.5733 19.9758V21.1658ZM13.5733 15.2158C13.55 15.8631 13.0306 16.3824 12.3833 16.4058H11.1933C10.546 16.3824 10.0267 15.8631 10.0033 15.2158V14.0258C10.0267 13.3785 10.546 12.8591 11.1933 12.8358H12.3833C13.0306 12.8591 13.55 13.3785 13.5733 14.0258V15.2158ZM20.3167 27.1158C20.2933 27.7631 19.774 28.2824 19.1267 28.3058H17.9367C17.2894 28.2824 16.77 27.7631 16.7467 27.1158V25.9258C16.77 25.2785 17.2894 24.7591 17.9367 24.7358H19.1267C19.774 24.7591 20.2933 25.2785 20.3167 25.9258V27.1158ZM20.3167 21.1658C20.2933 21.8131 19.774 22.3324 19.1267 22.3558H17.9367C17.2894 22.3324 16.77 21.8131 16.7467 21.1658V19.9758C16.77 19.3285 17.2894 18.8091 17.9367 18.7858H19.1267C19.774 18.8091 20.2933 19.3285 20.3167 19.9758V21.1658ZM20.3167 15.2158C20.2933 15.8631 19.774 16.3824 19.1267 16.4058H17.9367C17.2894 16.3824 16.77 15.8631 16.7467 15.2158V14.0258C16.77 13.3785 17.2894 12.8591 17.9367 12.8358H19.1267C19.774 12.8591 20.2933 13.3785 20.3167 14.0258V15.2158Z" fill="white"/>
</g>
</g>
<defs>
<clipPath id="clip0_1518_27984">
<rect width="48" height="48" fill="white"/>
</clipPath>
</defs>
</svg>
