<svg width="48" height="48" viewBox="0 0 48 48" fill="none" xmlns="http://www.w3.org/2000/svg">
<g clip-path="url(#clip0_1518_27986)">
<mask id="mask0_1518_27986" style="mask-type:alpha" maskUnits="userSpaceOnUse" x="0" y="0" width="48" height="48">
<path d="M44 0H4C1.79086 0 0 1.79086 0 4V44C0 46.2091 1.79086 48 4 48H44C46.2091 48 48 46.2091 48 44V4C48 1.79086 46.2091 0 44 0Z" fill="white"/>
</mask>
<g mask="url(#mask0_1518_27986)">
<path d="M44 0H4C1.79086 0 0 1.79086 0 4V44C0 46.2091 1.79086 48 4 48H44C46.2091 48 48 46.2091 48 44V4C48 1.79086 46.2091 0 44 0Z" fill="#00A1E0"/>
<path d="M20.94 25.3033C25.9473 25.3033 30.0066 21.244 30.0066 16.2366C30.0066 11.2292 25.9473 7.16992 20.94 7.16992C15.9326 7.16992 11.8733 11.2292 11.8733 16.2366C11.8733 21.244 15.9326 25.3033 20.94 25.3033Z" fill="white"/>
<path d="M23.32 40.7729C24.85 40.7729 24 39.6962 24 39.6962C21.4482 36.4577 20.9026 32.0712 22.5834 28.3062L22.6967 28.0796C22.8547 27.8816 22.8862 27.6109 22.7778 27.382C22.6693 27.1531 22.44 27.006 22.1867 27.0029C21.7351 26.9545 21.2808 26.9356 20.8267 26.9462C13.9756 26.9536 8.17556 32.0044 7.22668 38.7896C7.22668 39.4696 7.45335 40.7729 9.60668 40.7729H23.32Z" fill="white"/>
<path d="M32.6133 24.6797C28.1693 24.6797 24.5667 28.2823 24.5667 32.7264C24.5667 37.1704 28.1693 40.773 32.6133 40.773C37.0574 40.773 40.66 37.1704 40.66 32.7264C40.6444 28.2888 37.0509 24.6952 32.6133 24.6797ZM29.8933 37.5997C28.798 37.5997 27.91 36.7117 27.91 35.6164C27.91 34.521 28.798 33.633 29.8933 33.633C30.9887 33.633 31.8766 34.521 31.8766 35.6164C31.8644 36.7066 30.9836 37.5874 29.8933 37.5997ZM31.8766 30.8564C31.8462 31.0097 31.7666 31.1489 31.65 31.253L30.12 32.103C30.0686 32.1578 29.9968 32.1889 29.9216 32.1889C29.8465 32.1889 29.7747 32.1578 29.7233 32.103L28.1933 31.253C28.0654 31.1585 27.9832 31.0145 27.9667 30.8564V29.0997C27.9832 28.9415 28.0654 28.7976 28.1933 28.703L29.7233 27.853C29.7747 27.7982 29.8465 27.7672 29.9216 27.7672C29.9968 27.7672 30.0686 27.7982 30.12 27.853L31.65 28.703C31.7779 28.7976 31.8601 28.9415 31.8766 29.0997V30.8564ZM33.35 28.4197C33.3468 28.3135 33.3876 28.2108 33.4627 28.1357C33.5378 28.0606 33.6405 28.0198 33.7466 28.023H36.6933C36.7995 28.0198 36.9022 28.0606 36.9773 28.1357C37.0524 28.2108 37.0932 28.3135 37.09 28.4197V31.3664C37.0932 31.4725 37.0524 31.5752 36.9773 31.6503C36.9022 31.7254 36.7995 31.7662 36.6933 31.763H33.8033C33.6972 31.7662 33.5944 31.7254 33.5193 31.6503C33.4443 31.5752 33.4035 31.4725 33.4066 31.3664L33.35 28.4197ZM37.26 35.8997L35.5033 37.713C35.4519 37.7678 35.3801 37.7989 35.305 37.7989C35.2299 37.7989 35.1581 37.7678 35.1066 37.713L33.35 35.8997C33.2952 35.8483 33.2641 35.7765 33.2641 35.7014C33.2641 35.6262 33.2952 35.5544 33.35 35.503L35.1066 33.6897C35.1581 33.6349 35.2299 33.6038 35.305 33.6038C35.3801 33.6038 35.4519 33.6349 35.5033 33.6897L37.26 35.503C37.3148 35.5544 37.3458 35.6262 37.3458 35.7014C37.3458 35.7765 37.3148 35.8483 37.26 35.8997Z" fill="white"/>
</g>
</g>
<defs>
<clipPath id="clip0_1518_27986">
<rect width="48" height="48" fill="white"/>
</clipPath>
</defs>
</svg>
