<svg width="48" height="48" viewBox="0 0 48 48" fill="none" xmlns="http://www.w3.org/2000/svg">
<g clip-path="url(#clip0_1518_27990)">
<mask id="mask0_1518_27990" style="mask-type:alpha" maskUnits="userSpaceOnUse" x="0" y="0" width="48" height="48">
<path d="M44 0H4C1.79086 0 0 1.79086 0 4V44C0 46.2091 1.79086 48 4 48H44C46.2091 48 48 46.2091 48 44V4C48 1.79086 46.2091 0 44 0Z" fill="white"/>
</mask>
<g mask="url(#mask0_1518_27990)">
<path d="M44 0H4C1.79086 0 0 1.79086 0 4V44C0 46.2091 1.79086 48 4 48H44C46.2091 48 48 46.2091 48 44V4C48 1.79086 46.2091 0 44 0Z" fill="#00A1E0"/>
<path d="M38.0533 7.16992H9.94661C8.38181 7.16992 7.11328 8.43845 7.11328 10.0033V29.4399C7.11328 31.0047 8.38181 32.2733 9.94661 32.2733H37.9966C39.5614 32.2733 40.8299 31.0047 40.8299 29.4399V9.94659C40.8268 8.41437 39.5855 7.17304 38.0533 7.16992ZM36.6366 26.9466C36.6082 27.529 36.1424 27.9948 35.5599 28.0233H12.4399C11.8453 28.0233 11.3633 27.5412 11.3633 26.9466V12.4399C11.3917 11.8575 11.8575 11.3917 12.4399 11.3633H35.5033C36.1077 11.3625 36.6064 11.8362 36.6366 12.4399V26.9466Z" fill="white"/>
<path d="M19.0699 36.6367C17.5051 36.6367 16.2366 37.9052 16.2366 39.4701V39.8101C16.265 40.3925 16.7308 40.8583 17.3132 40.8867H30.6299C31.2123 40.8583 31.6781 40.3925 31.7066 39.8101V39.4701C31.7066 37.9052 30.438 36.6367 28.8732 36.6367H19.0699Z" fill="white"/>
<path d="M24.0566 20.2608C25.8717 20.2608 27.3432 18.7893 27.3432 16.9742C27.3432 15.159 25.8717 13.6875 24.0566 13.6875C22.2414 13.6875 20.7699 15.159 20.7699 16.9742C20.7699 18.7893 22.2414 20.2608 24.0566 20.2608Z" fill="white"/>
<path d="M24.1133 20.8262H23.8867C21.4205 20.8343 19.3281 22.6382 18.9567 25.0762C18.9567 25.3028 19.0133 25.7562 19.8067 25.7562H28.25C29.0433 25.7562 29.1 25.2462 29.1 25.0762C28.6879 22.6379 26.5861 20.8466 24.1133 20.8262Z" fill="white"/>
</g>
</g>
<defs>
<clipPath id="clip0_1518_27990">
<rect width="48" height="48" fill="white"/>
</clipPath>
</defs>
</svg>
