<svg width="48" height="48" viewBox="0 0 48 48" fill="none" xmlns="http://www.w3.org/2000/svg">
<g clip-path="url(#clip0_1518_27988)">
<mask id="mask0_1518_27988" style="mask-type:alpha" maskUnits="userSpaceOnUse" x="0" y="0" width="48" height="48">
<path d="M44 0H4C1.79086 0 0 1.79086 0 4V44C0 46.2091 1.79086 48 4 48H44C46.2091 48 48 46.2091 48 44V4C48 1.79086 46.2091 0 44 0Z" fill="white"/>
</mask>
<g mask="url(#mask0_1518_27988)">
<path d="M44 0H4C1.79086 0 0 1.79086 0 4V44C0 46.2091 1.79086 48 4 48H44C46.2091 48 48 46.2091 48 44V4C48 1.79086 46.2091 0 44 0Z" fill="#00A1E0"/>
<path d="M32.67 24.8497C28.2103 24.8341 24.5824 28.4367 24.5667 32.8963C24.5511 37.356 28.1537 40.984 32.6134 40.9997C37.073 41.0153 40.701 37.4127 40.7167 32.953C40.7106 28.5023 37.1206 24.887 32.67 24.8497ZM34.0867 33.633C33.8737 33.6335 33.6625 33.5951 33.4633 33.5197L30.4033 36.5797C30.2369 36.7469 30.0153 36.8476 29.78 36.863C29.4967 36.863 29.27 36.8064 29.1567 36.5797C28.8154 36.1906 28.8154 35.6088 29.1567 35.2197L32.2167 32.1597C31.9832 31.4156 32.1056 30.6055 32.5483 29.9635C32.9911 29.3215 33.7049 28.9193 34.4833 28.873C34.6963 28.8726 34.9075 28.911 35.1067 28.9864C35.22 28.9864 35.22 29.0997 35.1633 29.213L33.7467 30.573C33.692 30.6125 33.6597 30.6757 33.6597 30.743C33.6597 30.8104 33.692 30.8736 33.7467 30.913L34.6533 31.8197C34.7047 31.8745 34.7765 31.9056 34.8517 31.9056C34.9268 31.9056 34.9986 31.8745 35.05 31.8197L36.41 30.4597C36.4667 30.403 36.6933 30.403 36.6933 30.5164C36.7488 30.7205 36.7868 30.9291 36.8067 31.1397C36.7976 31.8383 36.5005 32.5021 35.9855 32.9742C35.4705 33.4463 34.7834 33.6847 34.0867 33.633Z" fill="white"/>
<path d="M20.94 25.2467C25.9787 25.2467 30.0633 21.162 30.0633 16.1233C30.0633 11.0847 25.9787 7 20.94 7C15.9013 7 11.8167 11.0847 11.8167 16.1233C11.8167 21.162 15.9013 25.2467 20.94 25.2467Z" fill="white"/>
<path d="M23.3767 40.8295C24.9067 40.8295 24.0567 39.7529 24.0567 39.7529C21.5049 36.5143 20.9593 32.1278 22.64 28.3629L22.7534 28.1362C22.9114 27.9383 22.9429 27.6676 22.8345 27.4387C22.726 27.2097 22.4967 27.0626 22.2434 27.0595C21.7918 27.0112 21.3375 26.9922 20.8834 27.0029C13.9961 27.0263 8.16353 32.0876 7.17004 38.9029C7.17004 39.5829 7.39671 40.8862 9.55004 40.8862H23.0934C23.1845 40.8536 23.28 40.8345 23.3767 40.8295Z" fill="white"/>
</g>
</g>
<defs>
<clipPath id="clip0_1518_27988">
<rect width="48" height="48" fill="white"/>
</clipPath>
</defs>
</svg>
