<svg width="48" height="48" viewBox="0 0 48 48" fill="none" xmlns="http://www.w3.org/2000/svg">
<rect width="48" height="48" rx="4" fill="#8B9AE3"/>
<mask id="mask0_1518_27577" style="mask-type:luminance" maskUnits="userSpaceOnUse" x="0" y="0" width="48" height="48">
<rect width="48" height="48" rx="4" fill="white"/>
</mask>
<g mask="url(#mask0_1518_27577)">
<path d="M11.4767 20.0332H8.13333C7.51 20.0332 7 20.5432 7 21.1665V39.4699C7 40.0932 7.51 40.4332 8.13333 40.4332H9.26667C11.1367 40.4332 12.6667 38.9032 12.6667 37.0332V21.2232C12.6667 20.5432 12.1567 20.0332 11.4767 20.0332Z" fill="white"/>
<path d="M36.4667 20.6H33.0667C31.1967 20.6 29.6667 19.07 29.6667 17.2V10.4C29.6667 8.53 28.1367 7 26.2667 7H24C23.3767 7 22.8667 7.51 22.8667 8.13333V12.6667C22.8667 16.6333 20.8267 20.6 17.2 20.6C16.5767 20.6 16.0667 21.11 16.0667 21.7333V37.6C16.0667 38.2233 16.52 38.6767 17.1433 38.7333C22.1867 39.0167 25.53 40.9433 30.8 40.9433C36.4667 40.9433 41 39.13 41 33.7467V29.27V25.1333C41 22.64 38.96 20.6 36.4667 20.6Z" fill="white"/>
</g>
</svg>
