<svg width="48" height="48" viewBox="0 0 48 48" fill="none" xmlns="http://www.w3.org/2000/svg">
<rect width="48" height="48" rx="4" fill="#F88962"/>
<mask id="mask0_1518_27589" style="mask-type:luminance" maskUnits="userSpaceOnUse" x="0" y="0" width="48" height="48">
<rect width="48" height="48" rx="4" fill="white"/>
</mask>
<g mask="url(#mask0_1518_27589)">
<path fill-rule="evenodd" clip-rule="evenodd" d="M24 7C31.5246 7 37.6 9.17377 37.6 11.8492V13.5213C37.6 16.1967 31.5246 18.3705 24 18.3705C16.4754 18.3705 10.4 16.1967 10.4 13.5213V11.8492C10.4 9.17377 16.4754 7 24 7ZM24 28.5705C16.4754 28.5705 10.4 26.8984 10.4 24.7803V28.2918C10.4 30.9115 16.4754 33.0295 24 33.0295C31.5246 33.0295 37.6 30.8557 37.6 28.1803V24.7803C37.6 26.8984 31.5246 28.5705 24 28.5705ZM10.4 32.1934C10.4 34.3115 16.5312 35.9836 24 35.9836C31.4689 35.9836 37.6 34.3115 37.6 32.1934V35.6492C37.6 38.3246 31.5246 40.4984 24 40.4984C16.4754 40.4984 10.4 38.3246 10.4 35.6492V32.1934ZM24 21.2131C16.4754 21.2131 10.4 19.541 10.4 17.423V20.8787C10.4 23.5541 16.4754 25.7279 24 25.7279C31.5246 25.7279 37.6 23.5541 37.6 20.8787V17.423C37.6 19.541 31.5246 21.2131 24 21.2131Z" fill="white"/>
</g>
</svg>
