<svg width="48" height="48" viewBox="0 0 48 48" fill="none" xmlns="http://www.w3.org/2000/svg">
<rect width="48" height="48" rx="4" fill="#7E8BE4"/>
<mask id="mask0_1518_27585" style="mask-type:luminance" maskUnits="userSpaceOnUse" x="0" y="0" width="48" height="48">
<rect width="48" height="48" rx="4" fill="white"/>
</mask>
<g mask="url(#mask0_1518_27585)">
<path fill-rule="evenodd" clip-rule="evenodd" d="M15.7508 7.50146H36.2065C38.2688 7.50146 39.9967 9.28507 40.0524 11.3474V37.1539C40.0524 39.2162 38.2688 40.9998 36.2065 40.9998H15.7508C13.6885 40.9998 11.9049 39.7179 11.9049 37.1539H10.6229C9.17371 37.1539 8.05896 36.0392 8.05896 34.59C8.05896 33.1965 9.17371 32.0261 10.6229 32.0261H11.9049V26.8424H10.6229C9.17371 26.8424 8.05896 25.7277 8.05896 24.2785C8.05896 22.8293 9.17371 21.7146 10.6229 21.7146H11.9049V16.531H10.6229C9.17371 16.531 8.05896 15.4162 8.05896 13.967C8.05896 12.5179 9.17371 11.3474 10.6229 11.3474H11.9049C11.9049 9.39655 13.6885 7.50146 15.7508 7.50146ZM32.9737 36.5408C33.5868 36.5408 34.0885 36.0392 34.0885 35.4261V34.3113C34.0885 33.6982 33.5868 33.1965 32.9737 33.1965H18.4262C17.8131 33.1965 17.3114 33.6982 17.3114 34.3113V35.4261C17.3114 36.0392 17.8131 36.5408 18.4262 36.5408H32.9737ZM18.4262 24.4457L19.5967 23.2752C19.9311 22.9408 20.4327 22.9408 20.7672 23.2752L23.6655 26.1179L30.7999 19.0392C31.1344 18.7047 31.636 18.7047 31.9704 19.0392L33.1409 20.2097C33.4196 20.5441 33.4196 21.1015 33.1409 21.3802L24.7803 29.6293C24.4458 29.9638 24.0557 30.0752 23.6098 30.0752C23.1639 30.0752 22.7737 29.9638 22.4393 29.6293L18.4262 25.6162C18.036 25.2818 18.036 24.7802 18.4262 24.4457ZM32.9737 15.5834C33.5868 15.5834 34.0885 15.0818 34.0885 14.4687V13.3539C34.0885 12.7408 33.5868 12.2392 32.9737 12.2392H18.4262C17.8131 12.2392 17.3114 12.7408 17.3114 13.3539V14.4687C17.3114 15.0818 17.8131 15.5834 18.4262 15.5834H32.9737Z" fill="white"/>
</g>
</svg>
