<svg width="48" height="48" viewBox="0 0 48 48" fill="none" xmlns="http://www.w3.org/2000/svg">
<rect width="48" height="48" rx="4" fill="#04844B"/>
<mask id="mask0_1518_27579" style="mask-type:luminance" maskUnits="userSpaceOnUse" x="0" y="0" width="48" height="48">
<rect width="48" height="48" rx="4" fill="white"/>
</mask>
<g mask="url(#mask0_1518_27579)">
<path d="M9.73113 16.4195H15.6393C16.8656 16.4195 17.8688 15.4162 17.8688 14.19V8.28179C17.8688 7.83589 17.5344 7.50146 17.0885 7.50146C16.8656 7.50146 16.6983 7.5572 16.5311 7.72442L9.17376 15.0818C9.00654 15.249 8.95081 15.4162 8.95081 15.6392C8.95081 16.0851 9.28523 16.4195 9.73113 16.4195Z" fill="white"/>
<path d="M21.4361 40.8884L24.0557 37.3211L26.4524 34.0884C26.3967 33.8654 26.3967 33.6982 26.341 33.531V33.4752C25.9508 32.9736 25.282 32.0818 25.282 30.7998C25.282 29.5179 25.9508 28.6261 26.2852 28.1244C26.341 27.567 26.5082 26.3965 27.5115 25.449C28.4033 24.6129 29.4623 24.4457 30.0197 24.3343H30.0754C30.577 23.9441 31.4688 23.2752 32.7508 23.2752C34.0328 23.2752 34.9246 23.9441 35.4262 24.2785C35.7606 24.3343 36.2623 24.39 36.8197 24.6129V10.8457C36.8197 9.00638 35.3147 7.50146 33.4754 7.50146H22.3279C21.7147 7.50146 21.2131 8.0031 21.2131 8.61622V16.4195C21.2131 18.2588 19.7082 19.7638 17.8688 19.7638H10.0656C9.45244 19.7638 8.95081 20.2654 8.95081 20.8785V37.5998C8.95081 39.4392 10.4557 40.9441 12.2951 40.9441H21.3803L21.4361 40.8884Z" fill="white"/>
<path fill-rule="evenodd" clip-rule="evenodd" d="M37.4327 30.8001C37.4327 31.1645 37.1965 31.4698 36.9697 31.7629C36.8149 31.9629 36.6645 32.1572 36.5967 32.3607C36.5083 32.5818 36.4724 32.8379 36.4371 33.0909C36.3832 33.4757 36.3305 33.8532 36.095 34.0886C35.8596 34.324 35.4822 34.3768 35.0973 34.4306C34.8444 34.466 34.5882 34.5018 34.3672 34.5902C34.1797 34.6735 33.9923 34.8113 33.802 34.9512C33.4829 35.1857 33.1556 35.4263 32.8065 35.4263C32.4798 35.4263 32.1722 35.1965 31.8726 34.9726C31.6611 34.8145 31.4535 34.6594 31.2459 34.5902C31.0248 34.5018 30.7687 34.466 30.5157 34.4306C30.1309 34.3768 29.7534 34.324 29.518 34.0886C29.2826 33.8532 29.2298 33.4757 29.176 33.0909C29.1406 32.8379 29.1048 32.5818 29.0164 32.3607C28.9331 32.1733 28.7953 31.9859 28.6554 31.7955C28.4208 31.4764 28.1803 31.1492 28.1803 30.8001C28.1803 30.4733 28.4101 30.1658 28.634 29.8662C28.792 29.6546 28.9472 29.447 29.0164 29.2394C29.1048 29.0183 29.1406 28.7622 29.176 28.5092V28.5092C29.2298 28.1244 29.2826 27.747 29.518 27.5115C29.7534 27.2761 30.1309 27.2233 30.5157 27.1695C30.7687 27.1341 31.0248 27.0983 31.2459 27.0099C31.4333 26.9266 31.6207 26.7888 31.8111 26.6489C32.1301 26.4144 32.4574 26.1738 32.8065 26.1738C33.1332 26.1738 33.4408 26.4036 33.7404 26.6275C33.952 26.7856 34.1596 26.9407 34.3672 27.0099C34.5882 27.0983 34.8444 27.1341 35.0973 27.1695C35.4822 27.2233 35.8596 27.2761 36.095 27.5115C36.3305 27.747 36.3832 28.1244 36.4371 28.5092C36.4724 28.7622 36.5083 29.0183 36.5967 29.2394C36.6699 29.4833 36.8391 29.7059 37.0063 29.9258C37.2212 30.2084 37.4327 30.4866 37.4327 30.8001ZM30.9672 30.8001C30.9672 29.8525 31.7475 29.0722 32.695 29.0722C33.6426 29.0722 34.4229 29.8525 34.4229 30.8001C34.4229 31.7476 33.6426 32.5279 32.695 32.5279C31.7475 32.5279 30.9672 31.7476 30.9672 30.8001ZM36.5967 35.5378C36.2292 35.7419 35.8617 35.8264 35.538 35.9009L35.5379 35.9009C35.4198 35.928 35.3075 35.9539 35.2032 35.9837C35.0918 36.0394 34.9245 36.0394 34.8131 36.0394C34.7573 36.0951 34.6459 36.1509 34.5344 36.2066C34.4415 36.2624 34.3424 36.3367 34.2351 36.4172C34.0204 36.5782 33.7726 36.764 33.4754 36.8755L36.3737 40.9443L37.0983 38.9935H39.0491L36.5967 35.5378ZM31.9147 36.8197L29.0164 40.9443L28.2918 38.9935H26.3409L28.8491 35.5935C29.2166 35.7977 29.5842 35.8822 29.9078 35.9566L29.9079 35.9566L29.9079 35.9566L29.908 35.9566C30.0261 35.9838 30.1383 36.0096 30.2426 36.0394C30.3541 36.0951 30.5213 36.0951 30.577 36.0951C30.6327 36.1509 30.7442 36.2066 30.8557 36.2623L30.8557 36.2623L30.8557 36.2624C31.0786 36.4296 31.4131 36.6525 31.9147 36.8197ZM32.695 27.5673C34.5344 27.5673 35.9278 29.0165 35.9278 30.8001C35.9278 32.5837 34.5344 34.0328 32.695 34.0328C30.8557 34.0328 29.4623 32.6394 29.4623 30.8001C29.4623 28.9607 30.9114 27.5673 32.695 27.5673Z" fill="white"/>
</g>
</svg>
