<svg width="48" height="48" viewBox="0 0 48 48" fill="none" xmlns="http://www.w3.org/2000/svg">
<rect width="48" height="48" rx="4" fill="#3C97DB"/>
<mask id="mask0_1518_27595" style="mask-type:luminance" maskUnits="userSpaceOnUse" x="0" y="0" width="48" height="48">
<rect width="48" height="48" rx="4" fill="white"/>
</mask>
<g mask="url(#mask0_1518_27595)">
<path fill-rule="evenodd" clip-rule="evenodd" d="M35.9278 11.7934C32.8623 8.72787 28.7934 7 24.5016 7C23.5541 7 22.8295 7.72459 22.8295 8.67213C22.8295 9.61967 23.5541 10.3443 24.5016 10.3443C27.9016 10.3443 31.1344 11.682 33.5868 14.0787C35.9836 16.5869 37.377 19.8197 37.377 23.2197C37.377 24.1672 38.1016 24.8918 39.0491 24.8918C39.9967 24.8918 40.7213 24.1672 40.7213 23.2197C40.7213 18.9279 39.0491 14.859 35.9278 11.7934ZM24.5016 13.7443C23.5541 13.7443 22.8295 14.4689 22.8295 15.4164C22.8295 16.3639 23.5541 17.0885 24.5016 17.0885C26.118 17.0885 27.6787 17.7016 28.8491 18.8721C30.0196 20.0426 30.6328 21.5475 30.6328 23.2197C30.6328 24.1672 31.3573 24.8918 32.3049 24.8918C33.2524 24.8918 33.977 24.1672 33.977 23.2197C33.977 20.7115 32.9737 18.3148 31.1901 16.5311C29.4065 14.7475 27.0098 13.7443 24.5016 13.7443ZM23.5541 25.8393L22.1049 29.741L28.3475 35.9836C28.7934 36.4295 28.7934 37.2098 28.2918 37.6C23.2196 41.7246 15.7508 41.4459 11.0688 36.7639C6.33111 32.0262 6.05242 24.5574 10.2327 19.541C10.6229 19.0393 11.4032 19.0393 11.8491 19.4852L18.3705 26.0066L21.9934 24.3902C21.5475 23.3311 21.7147 22.1049 22.5508 21.2689C23.6655 20.1541 25.3934 20.1541 26.5082 21.2689C27.6229 22.3836 27.6229 24.1115 26.5082 25.2262C25.6721 26.0066 24.5573 26.2295 23.5541 25.8393Z" fill="white"/>
</g>
</svg>
