<svg width="48" height="48" viewBox="0 0 48 48" fill="none" xmlns="http://www.w3.org/2000/svg">
<g clip-path="url(#clip0_1518_28012)">
<mask id="mask0_1518_28012" style="mask-type:alpha" maskUnits="userSpaceOnUse" x="0" y="0" width="48" height="48">
<path d="M44 0H4C1.79086 0 0 1.79086 0 4V44C0 46.2091 1.79086 48 4 48H44C46.2091 48 48 46.2091 48 44V4C48 1.79086 46.2091 0 44 0Z" fill="white"/>
</mask>
<g mask="url(#mask0_1518_28012)">
<path d="M44 0H4C1.79086 0 0 1.79086 0 4V44C0 46.2091 1.79086 48 4 48H44C46.2091 48 48 46.2091 48 44V4C48 1.79086 46.2091 0 44 0Z" fill="#3A3180"/>
<path d="M17.9366 13.8566H30.0633C30.6892 13.8566 31.1966 13.3492 31.1966 12.7233V10.4566C31.1976 8.62226 29.7433 7.11779 27.91 7.05664H20.2033C18.3581 7.09077 16.8882 8.6113 16.9166 10.4566V12.7233C16.8722 13.0153 16.961 13.3118 17.1585 13.5313C17.3561 13.7508 17.6416 13.8702 17.9366 13.8566Z" fill="white"/>
<path d="M36.1266 9.94648H34.9933C34.8401 9.93634 34.69 9.99278 34.5815 10.1013C34.4729 10.2099 34.4165 10.36 34.4266 10.5131V12.7798C34.4268 15.2302 32.4569 17.2255 30.0066 17.2565H17.9366C15.4864 17.2255 13.5164 15.2302 13.5166 12.7798V10.5131C13.5267 10.36 13.4703 10.2099 13.3618 10.1013C13.2532 9.99278 13.1031 9.93634 12.9499 9.94648H11.8166C9.97137 9.98061 8.50153 11.5011 8.52995 13.3465V37.4865C8.52893 39.3209 9.98325 40.8253 11.8166 40.8865H36.1266C37.9719 40.8523 39.4417 39.3318 39.4133 37.4865V13.3465C39.4456 12.4549 39.1135 11.5886 38.4934 10.9471C37.8734 10.3056 37.0188 9.94435 36.1266 9.94648ZM25.6999 29.3265V29.9498C25.1859 30.3134 24.5729 30.5111 23.9433 30.5165C22.1907 30.5165 20.7699 29.0957 20.7699 27.3431C20.7699 25.5906 22.1907 24.1698 23.9433 24.1698C25.6121 24.1628 27.0002 25.4517 27.1166 27.1165C26.2706 27.5329 25.7251 28.3839 25.6999 29.3265ZM34.1999 37.3165C34.1648 37.7611 33.7959 38.1053 33.3499 38.1098H28.2499C27.8156 38.1008 27.4656 37.7508 27.4566 37.3165V36.5231C27.4656 36.0888 27.8156 35.7388 28.2499 35.7298H33.4066C33.841 35.7388 34.1909 36.0888 34.1999 36.5231V37.3165ZM34.1999 33.7465C34.1648 34.1911 33.7959 34.5353 33.3499 34.5398H28.2499C27.8156 34.5308 27.4656 34.1808 27.4566 33.7465V32.9531C27.4656 32.5188 27.8156 32.1688 28.2499 32.1598H33.4066C33.841 32.1688 34.1909 32.5188 34.1999 32.9531V33.7465ZM34.1999 30.1198C34.1648 30.5644 33.7959 30.9087 33.3499 30.9131H28.2499C27.8156 30.9041 27.4656 30.5542 27.4566 30.1198V29.3265C27.4656 28.8921 27.8156 28.5422 28.2499 28.5331H33.4066C33.841 28.5422 34.1909 28.8921 34.1999 29.3265V30.1198ZM34.2567 26.8898C34.003 26.7968 33.7327 26.7582 33.4633 26.7765H31.8199V25.0765C30.5681 25.0765 29.5533 24.0617 29.5533 22.8098H18.3333C18.3333 24.0617 17.3185 25.0765 16.0666 25.0765V29.8365C17.3185 29.8365 18.3333 30.8513 18.3333 32.1031H25.8133C25.7203 32.3567 25.6817 32.627 25.6999 32.8965V33.6898C25.7237 33.9787 25.7807 34.264 25.8699 34.5399H15.6699C15.1576 34.5444 14.6648 34.3429 14.3025 33.9806C13.9402 33.6182 13.7387 33.1255 13.7432 32.6131V22.3565C13.7387 21.8441 13.9402 21.3514 14.3025 20.9891C14.6648 20.6267 15.1576 20.4252 15.6699 20.4297H32.3299C32.8423 20.4252 33.335 20.6267 33.6974 20.9891C34.0597 21.3514 34.2612 21.8441 34.2567 22.3565V26.8898Z" fill="white"/>
</g>
</g>
<defs>
<clipPath id="clip0_1518_28012">
<rect width="48" height="48" fill="white"/>
</clipPath>
</defs>
</svg>
