<svg width="48" height="48" viewBox="0 0 48 48" fill="none" xmlns="http://www.w3.org/2000/svg">
<g clip-path="url(#clip0_1518_28010)">
<mask id="mask0_1518_28010" style="mask-type:alpha" maskUnits="userSpaceOnUse" x="0" y="0" width="48" height="48">
<path d="M44 0H4C1.79086 0 0 1.79086 0 4V44C0 46.2091 1.79086 48 4 48H44C46.2091 48 48 46.2091 48 44V4C48 1.79086 46.2091 0 44 0Z" fill="white"/>
</mask>
<g mask="url(#mask0_1518_28010)">
<path d="M44 0H4C1.79086 0 0 1.79086 0 4V44C0 46.2091 1.79086 48 4 48H44C46.2091 48 48 46.2091 48 44V4C48 1.79086 46.2091 0 44 0Z" fill="#3A3180"/>
<path d="M16.3501 13.5733H27.9101C28.1985 13.5828 28.4779 13.4725 28.6819 13.2685C28.886 13.0644 28.9963 12.785 28.9868 12.4966V10.3433C28.9998 8.59794 27.6148 7.16257 25.8701 7.11328H18.5034C17.6613 7.12668 16.8591 7.47491 16.2743 8.08102C15.6895 8.68712 15.3701 9.50119 15.3868 10.3433V12.4966C15.3615 12.7695 15.451 13.0407 15.6338 13.2449C15.8165 13.4492 16.0761 13.5681 16.3501 13.5733Z" fill="white"/>
<path d="M33.52 26.5508C29.5454 26.5508 26.3234 29.7728 26.3234 33.7474C26.3234 37.7221 29.5454 40.9441 33.52 40.9441C37.4946 40.9441 40.7167 37.7221 40.7167 33.7474C40.7105 29.7754 37.4921 26.557 33.52 26.5508ZM38.1667 31.7641L32.8967 37.0341C32.4782 37.4119 31.8418 37.4119 31.4234 37.0341L28.8167 34.4274C28.7081 34.3359 28.6454 34.2011 28.6454 34.0591C28.6454 33.9171 28.7081 33.7823 28.8167 33.6908L29.5534 32.9541C29.6449 32.8455 29.7797 32.7828 29.9217 32.7828C30.0637 32.7828 30.1985 32.8455 30.29 32.9541L32.1034 34.7674L36.6934 30.1774C36.7849 30.0688 36.9197 30.0062 37.0617 30.0062C37.2037 30.0062 37.3385 30.0688 37.43 30.1774L38.1667 30.9141C38.5634 31.2541 38.28 31.5941 38.1667 31.7641Z" fill="white"/>
<path d="M29.2701 25.3037C28.3412 25.0017 27.7197 24.1269 27.7401 23.1504H16.5201C16.5201 24.4022 15.5053 25.4171 14.2534 25.4171V30.2337C15.5053 30.2337 16.5201 31.2485 16.5201 32.5004H24.2268C24.6283 29.4205 26.5122 26.7323 29.2701 25.3037ZM22.1301 30.7437C20.4401 30.7437 19.0701 29.3737 19.0701 27.6837C19.0701 25.9937 20.4401 24.6237 22.1301 24.6237C23.8201 24.6237 25.1901 25.9937 25.1901 27.6837C25.1931 28.4962 24.8717 29.2763 24.2972 29.8508C23.7227 30.4253 22.9426 30.7468 22.1301 30.7437Z" fill="white"/>
<path d="M33.69 9.83334H32.6134C32.4752 9.82307 32.3394 9.87349 32.2415 9.97145C32.1435 10.0694 32.0931 10.2052 32.1034 10.3433V12.4967C32.1163 14.8365 30.2494 16.7539 27.91 16.8033H16.35C15.2224 16.7899 14.1464 16.3282 13.3596 15.5202C12.5729 14.7122 12.1401 13.6243 12.1567 12.4967V10.3433C12.167 10.2052 12.1166 10.0694 12.0186 9.97145C11.9206 9.87349 11.7849 9.82307 11.6467 9.83334H10.57C9.7279 9.84674 8.92575 10.195 8.34091 10.8011C7.75607 11.4072 7.4367 12.2213 7.45338 13.0633V36.07C7.44035 37.8154 8.82535 39.2507 10.57 39.3H25.9834C25.0463 38.0131 24.4427 36.5139 24.2267 34.9367H13.8567C13.3443 34.9413 12.8516 34.7397 12.4893 34.3774C12.127 34.0151 11.9255 33.5224 11.93 33.01V22.7533C11.9255 22.241 12.127 21.7482 12.4893 21.3859C12.8516 21.0236 13.3443 20.8221 13.8567 20.8267H30.5167C31.0291 20.8221 31.5218 21.0236 31.8841 21.3859C32.2464 21.7482 32.448 22.241 32.4434 22.7533V24.3967C32.8192 24.3495 33.1981 24.3306 33.5767 24.34C34.7018 24.3388 35.8169 24.5503 36.8634 24.9633V13.0633C36.8517 11.3063 35.4466 9.87616 33.69 9.83334Z" fill="white"/>
</g>
</g>
<defs>
<clipPath id="clip0_1518_28010">
<rect width="48" height="48" fill="white"/>
</clipPath>
</defs>
</svg>
