<svg width="26" height="26" viewBox="0 0 26 26" fill="none" xmlns="http://www.w3.org/2000/svg">
<path fill-rule="evenodd" clip-rule="evenodd" d="M6.1875 11.075L12.9375 4.225C13.2375 3.925 13.7375 3.925 14.0375 4.225L20.7875 11.075C21.0875 11.375 21.0875 11.875 20.7875 12.175L19.6875 13.275C19.3875 13.575 18.8875 13.575 18.5875 13.275L14.0375 8.575C13.7375 8.275 13.2375 8.275 12.9375 8.575L8.3875 13.225C8.0875 13.525 7.5875 13.525 7.2875 13.225L6.1875 12.125C5.9375 11.825 5.9375 11.375 6.1875 11.075ZM6.1875 20.125L12.9375 13.275C13.2375 12.975 13.7375 12.975 14.0375 13.275L20.7875 20.125C21.0875 20.425 21.0875 20.925 20.7875 21.225L19.6875 22.325C19.3875 22.625 18.8875 22.625 18.5875 22.325L14.0375 17.625C13.7375 17.325 13.2375 17.325 12.9375 17.625L8.3875 22.275C8.0875 22.575 7.5875 22.575 7.2875 22.275L6.1875 21.175C5.9375 20.875 5.9375 20.375 6.1875 20.125Z" fill="#706E6B"/>
</svg>
