<svg width="40" height="40" viewBox="0 0 40 40" fill="none" xmlns="http://www.w3.org/2000/svg">
<rect width="40" height="40" rx="20" fill="#33BCE7"/>
<mask id="mask0_1518_28310" style="mask-type:luminance" maskUnits="userSpaceOnUse" x="0" y="0" width="40" height="40">
<rect width="40" height="40" rx="20" fill="white"/>
</mask>
<g mask="url(#mask0_1518_28310)">
<path d="M22.1818 21.6364H31.1818C31.6182 21.6364 32 21.2545 32 20.8182V19.1818C32 18.7455 31.6182 18.3636 31.1818 18.3636H22.1818C21.8545 18.3636 21.6364 18.1455 21.6364 17.8182V8.81818C21.6364 8.38182 21.2545 8 20.8182 8H19.1818C18.7455 8 18.3636 8.38182 18.3636 8.81818V17.8182C18.3636 18.1455 18.1455 18.3636 17.8182 18.3636H8.81818C8.38182 18.3636 8 18.7455 8 19.1818V20.8182C8 21.2545 8.38182 21.6364 8.81818 21.6364H17.8182C18.1455 21.6364 18.3636 21.8545 18.3636 22.1818V31.1818C18.3636 31.6182 18.7455 32 19.1818 32H20.8182C21.2545 32 21.6364 31.6182 21.6364 31.1818V22.1818C21.6364 21.8545 21.8545 21.6364 22.1818 21.6364Z" fill="white"/>
</g>
</svg>
