<svg width="40" height="40" viewBox="0 0 40 40" fill="none" xmlns="http://www.w3.org/2000/svg">
<rect width="40" height="40" rx="20" fill="#9FDB66"/>
<mask id="mask0_1518_28106" style="mask-type:luminance" maskUnits="userSpaceOnUse" x="0" y="0" width="40" height="40">
<rect width="40" height="40" rx="20" fill="white"/>
</mask>
<g mask="url(#mask0_1518_28106)">
<path d="M31.5591 10.1062C27.5428 8.58785 22.8897 8.24499 18.7755 9.56744C15.151 10.7429 11.4285 13.4368 10.8897 17.4532C10.7918 18.2858 10.7918 19.2164 10.9877 20.0001C11.0857 20.4409 11.2326 20.8327 11.3795 21.2736C11.4775 21.5185 11.5265 21.7144 11.6734 21.9103C11.5265 22.1552 11.3795 22.4001 11.1836 22.596C10.0571 24.3593 9.27342 26.3674 8.78363 28.3756C8.58771 29.2083 8.09791 30.4817 9.02853 31.0695C9.37138 31.3144 9.91016 31.3144 10.253 31.1185C10.7428 30.8246 10.7918 30.3838 10.8897 29.894C11.2326 27.8368 11.9673 25.7797 13.0938 24.0164C13.6326 23.1838 14.2204 22.3021 14.9061 21.5185C15.4938 20.8817 16.3755 19.7062 17.3551 20.0491C18.3346 20.3919 18.2857 21.5185 17.6489 22.1062C17.0122 22.694 16.4244 23.3307 16.4244 24.2613C16.4244 24.947 16.7183 25.6817 17.3061 26.1225C18.0897 26.7593 19.6571 26.9062 20.5877 26.8083C22.6449 26.7103 24.3591 26.0736 26.0244 24.8491C28.2285 23.3307 29.0612 20.6858 29.502 18.1878C29.7959 16.6205 29.9918 15.1021 30.5306 13.6327C30.7755 12.996 31.0693 12.4083 31.4122 11.8695C31.5591 11.5756 31.902 11.2817 31.951 10.9878C32.0979 10.547 31.853 10.2042 31.5591 10.1062Z" fill="white"/>
</g>
</svg>
