<svg width="40" height="40" viewBox="0 0 40 40" fill="none" xmlns="http://www.w3.org/2000/svg">
<rect width="40" height="40" rx="20" fill="#4DCA76"/>
<mask id="mask0_1518_28132" style="mask-type:luminance" maskUnits="userSpaceOnUse" x="0" y="0" width="40" height="40">
<rect width="40" height="40" rx="20" fill="white"/>
</mask>
<g mask="url(#mask0_1518_28132)">
<path d="M22.4 14.7591H26.4163C26.7102 14.7591 26.9551 14.5142 26.9551 14.2203C26.9551 14.0734 26.9061 13.9754 26.8081 13.8285L21.8122 8.88156C21.6653 8.7836 21.5673 8.73462 21.4204 8.73462C21.1265 8.73462 20.8816 8.97952 20.8816 9.27339V13.2407C20.8816 14.0734 21.5673 14.7591 22.4 14.7591Z" fill="white"/>
<path d="M31.2653 19.8529L30.8245 19.4121C30.5306 19.1182 30.0898 19.1182 29.7469 19.4121L23.9184 25.2406C23.8694 25.2896 23.9184 25.3386 23.9184 25.3876V26.6121C23.9184 26.71 23.9184 26.808 24.0163 26.808H25.2898C25.3388 26.808 25.3878 26.759 25.4367 26.759L31.2653 20.9794C31.6082 20.5876 31.6082 20.1468 31.2653 19.8529Z" fill="white"/>
<path fill-rule="evenodd" clip-rule="evenodd" d="M25.6816 29.0122H26.5633C26.7592 29.0122 26.9551 29.2571 26.9061 29.453C26.7102 30.4816 25.7306 31.2652 24.6531 31.2652H10.2531C9.02857 31.2652 8 30.2367 8 29.0122V10.9877C8 9.76319 9.02857 8.73462 10.2531 8.73462H17.8449C18.2857 8.73462 18.6286 9.07748 18.6286 9.46931V14.7591C18.6286 15.9836 19.6082 17.0122 20.8816 17.0122H26.2694C26.6612 17.0122 27.0041 17.355 27.0041 17.7469V18.7265C27.0041 18.9224 26.9061 19.1183 26.7592 19.2652L22.1061 23.9183C21.7633 24.1632 21.6653 24.555 21.6653 24.9469V27.5918C21.6653 28.3754 22.302 29.0122 23.0857 29.0122H23.9184H25.6816ZM11.7714 14.7591C11.3796 14.7591 11.0367 15.102 11.0367 15.4938V16.2285C11.0367 16.6203 11.3306 16.9632 11.7714 16.9632H14.8082C15.2 16.9632 15.5429 16.6203 15.5429 16.2285V15.4938C15.5429 15.102 15.249 14.7591 14.8082 14.7591H11.7714ZM18.6286 25.2407C18.6286 25.6326 18.2857 25.9754 17.8939 25.9754H11.7714C11.3306 25.9754 11.0367 25.6326 11.0367 25.2407V24.506C11.0367 24.1142 11.3796 23.7714 11.7714 23.7714H17.8449C18.2857 23.7714 18.5796 24.1142 18.5796 24.506V25.2407H18.6286ZM19.4122 21.4693C19.8041 21.4693 20.1469 21.1265 20.1469 20.7346H20.098V19.9999C20.098 19.6081 19.8041 19.2652 19.3633 19.2652H11.7714C11.3796 19.2652 11.0367 19.6081 11.0367 19.9999V20.7346C11.0367 21.1265 11.3306 21.4693 11.7714 21.4693H19.4122Z" fill="white"/>
</g>
</svg>
