<svg width="40" height="40" viewBox="0 0 40 40" fill="none" xmlns="http://www.w3.org/2000/svg">
<rect width="40" height="40" rx="20" fill="#E9637E"/>
<mask id="mask0_1518_28166" style="mask-type:luminance" maskUnits="userSpaceOnUse" x="0" y="0" width="40" height="40">
<rect width="40" height="40" rx="20" fill="white"/>
</mask>
<g mask="url(#mask0_1518_28166)">
<path d="M27.75 16C27.05 16 26.5 16.5 26.5 17.2V19.2C26.5 22.7 23.55 25.6 19.95 25.6C16.35 25.6 13.4 22.7 13.4 19.2V17.2C13.4 16.5 12.85 16 12.15 16C11.45 16 11 16.5 11 17.2V19.2C11 23.65 14.4 27.3 18.75 27.9V29.6H16.7C16 29.6 15.45 30.1 15.45 30.8C15.45 31.5 16 32 16.7 32H23.25C23.95 32 24.5 31.5 24.5 30.8C24.5 30.1 23.95 29.6 23.25 29.6H21.2V27.9C25.6 27.3 29 23.65 29 19.2V17.2C29 16.5 28.45 16 27.75 16Z" fill="white"/>
<path d="M20 23.2C22.25 23.2 24.1 21.4 24.1 19.2V11.95C24.1 9.75 22.3 8 20.05 8H19.95C17.7 8 15.9 9.75 15.9 11.95V19.2C15.9 21.4 17.75 23.2 20 23.2Z" fill="white"/>
</g>
</svg>
