<svg width="40" height="40" viewBox="0 0 40 40" fill="none" xmlns="http://www.w3.org/2000/svg">
<rect width="40" height="40" rx="20" fill="#B070E6"/>
<mask id="mask0_1518_28142" style="mask-type:luminance" maskUnits="userSpaceOnUse" x="0" y="0" width="40" height="40">
<rect width="40" height="40" rx="20" fill="white"/>
</mask>
<g mask="url(#mask0_1518_28142)">
<path d="M19.2653 22.253C19.5592 22.5469 20 22.5469 20.3429 22.253L31.4123 12.1632C31.6082 11.7713 31.5592 11.1836 30.7755 11.1836H8.83266C8.24491 11.1836 7.75511 11.7713 8.19593 12.2122L19.2653 22.253Z" fill="white"/>
<path d="M31.5102 16.4734C31.5102 15.9836 30.8734 15.6897 30.5306 16.0326L21.9102 23.9183C21.3224 24.4571 20.5877 24.751 19.8041 24.751C19.0204 24.751 18.2857 24.4571 17.6979 23.9183L9.02854 16.0816C8.63671 15.7387 8.04895 15.9836 8.04895 16.5224C8.04895 19.5591 8.04895 26.5142 8.04895 26.5142C8.04895 27.7877 9.1265 28.8163 10.4 28.8163H29.2081C30.4816 28.8163 31.5592 27.7877 31.5592 26.5142C31.5102 26.5142 31.5102 19.5591 31.5102 16.4734Z" fill="white"/>
</g>
</svg>
