<svg width="40" height="40" viewBox="0 0 40 40" fill="none" xmlns="http://www.w3.org/2000/svg">
<rect width="40" height="40" rx="20" fill="#F59F71"/>
<mask id="mask0_1518_28156" style="mask-type:luminance" maskUnits="userSpaceOnUse" x="0" y="0" width="40" height="40">
<rect width="40" height="40" rx="20" fill="white"/>
</mask>
<g mask="url(#mask0_1518_28156)">
<path d="M28.2559 11.744C26.1439 9.63198 23.3119 8.47998 20.3839 8.47998C19.7119 8.47998 19.2319 8.95998 19.2319 9.63198C19.2319 10.304 19.7119 10.784 20.3839 10.784C22.7359 10.784 24.9439 11.696 26.6719 13.376C28.3039 15.056 29.2639 17.312 29.2639 19.664C29.2639 20.336 29.7439 20.816 30.4159 20.816C31.0879 20.816 31.5679 20.336 31.5679 19.664C31.5199 16.688 30.3679 13.856 28.2559 11.744Z" fill="white"/>
<path d="M20.3839 13.0879C19.7119 13.0879 19.2319 13.5679 19.2319 14.2399C19.2319 14.9119 19.7119 15.3919 20.3839 15.3919C21.4879 15.3919 22.5919 15.8239 23.4079 16.6399C24.2239 17.4559 24.6559 18.4639 24.6559 19.6639C24.6559 20.3359 25.1359 20.8159 25.8079 20.8159C26.4799 20.8159 26.9599 20.3359 26.9599 19.6639C26.9599 17.9359 26.2879 16.2559 25.0399 15.0559C23.7439 13.8079 22.1119 13.0879 20.3839 13.0879Z" fill="white"/>
<path d="M18.7039 24.1281L19.7119 21.4401C20.3839 21.7281 21.1519 21.5361 21.7279 21.0081C22.4959 20.2401 22.4959 19.0401 21.7279 18.2721C20.9599 17.5041 19.7599 17.5041 18.9919 18.2721C18.4159 18.8481 18.3199 19.7121 18.6079 20.4321L16.1119 21.5361L11.5999 17.0241C11.3119 16.7361 10.7359 16.7361 10.4959 17.0721C7.61595 20.5281 7.80795 25.7121 11.0719 28.9281C14.2879 32.1441 19.4719 32.3361 22.9279 29.5041C23.2639 29.2161 23.2639 28.6881 22.9759 28.4001L18.7039 24.1281Z" fill="white"/>
</g>
</svg>
