<svg width="40" height="40" viewBox="0 0 40 40" fill="none" xmlns="http://www.w3.org/2000/svg">
<rect width="40" height="40" rx="20" fill="#7CCF60"/>
<mask id="mask0_1518_28222" style="mask-type:luminance" maskUnits="userSpaceOnUse" x="0" y="0" width="40" height="40">
<rect width="40" height="40" rx="20" fill="white"/>
</mask>
<g mask="url(#mask0_1518_28222)">
<path d="M16.8 24H23.2C23.65 24 24 23.65 24 23.2V16.8C24 16.35 23.65 16 23.2 16H16.8C16.35 16 16 16.35 16 16.8V23.2C16 23.65 16.35 24 16.8 24Z" fill="white"/>
<path fill-rule="evenodd" clip-rule="evenodd" d="M32 20C32 20.7 31.5 21.2 30.8 21.2H28.8V23.6H30.8C31.5 23.6 32 24.1 32 24.8C32 25.5 31.5 26 30.8 26H28.8V26.4C28.8 27.7 27.7 28.8 26.4 28.8H26V30.8C26 31.5 25.5 32 24.8 32C24.1 32 23.6 31.5 23.6 30.8V28.8H21.2V30.8C21.2 31.5 20.7 32 20 32C19.3 32 18.8 31.5 18.8 30.8V28.8H16.4V30.8C16.4 31.5 15.9 32 15.2 32C14.5 32 14 31.5 14 30.8V28.8H13.6C12.3 28.8 11.2 27.7 11.2 26.4V26H9.2C8.5 26 8 25.5 8 24.8C8 24.1 8.5 23.6 9.2 23.6H11.2V21.2H9.2C8.5 21.2 8 20.7 8 20C8 19.3 8.5 18.8 9.2 18.8H11.2V16.4H9.2C8.5 16.4 8 15.9 8 15.2C8 14.5 8.5 14 9.2 14H11.2V13.6C11.2 12.3 12.3 11.2 13.6 11.2H14V9.2C14 8.5 14.5 8 15.2 8C15.9 8 16.4 8.5 16.4 9.2V11.2H18.8V9.2C18.8 8.5 19.3 8 20 8C20.7 8 21.2 8.5 21.2 9.2V11.2H23.6V9.2C23.6 8.5 24.1 8 24.8 8C25.5 8 26 8.5 26 9.2V11.2H26.4C27.7 11.2 28.8 12.3 28.8 13.6V14H30.8C31.5 14 32 14.5 32 15.2C32 15.9 31.5 16.4 30.8 16.4H28.8V18.8H30.8C31.5 18.8 32 19.3 32 20ZM25.2 26.4C25.9 26.4 26.4 25.9 26.4 25.2V14.8C26.4 14.1 25.9 13.6 25.2 13.6H14.8C14.1 13.6 13.6 14.1 13.6 14.8V25.2C13.6 25.9 14.1 26.4 14.8 26.4H25.2Z" fill="white"/>
</g>
</svg>
