<svg width="40" height="40" viewBox="0 0 40 40" fill="none" xmlns="http://www.w3.org/2000/svg">
<rect width="40" height="40" rx="20" fill="#CFD05C"/>
<mask id="mask0_1518_28100" style="mask-type:luminance" maskUnits="userSpaceOnUse" x="0" y="0" width="40" height="40">
<rect width="40" height="40" rx="20" fill="white"/>
</mask>
<g mask="url(#mask0_1518_28100)">
<path d="M23.65 8.7499C22.45 7.9499 18.1 7.1999 16.45 9.9499C15.65 11.2499 16.6 13.5999 17.35 15.0999C17.55 15.4499 17.95 15.6499 18.35 15.4999C18.85 15.2999 19.45 15.1999 20.1 15.1999C20.5 15.1999 20.9 15.2499 21.3 15.3499C21.65 15.4499 22 15.2499 22.2 14.9499C22.5 14.4499 22.95 13.8499 23.75 13.1999C25.65 11.5499 24.85 9.5499 23.65 8.7499Z" fill="white"/>
<path d="M21.55 24.5499C21.05 24.6999 20.55 24.7999 20 24.7999C19.5 24.7999 19.05 24.6999 18.6 24.5999C18.25 24.4999 17.85 24.6999 17.7 24.9999C17.4 25.4999 16.95 26.1499 16.15 26.7999C14.15 28.3999 14.95 30.4499 16.15 31.2499C17.35 32.0499 21.75 32.7999 23.35 30.0499C24.1 28.7499 23.25 26.4499 22.5 24.9499C22.3 24.5999 21.9 24.4499 21.55 24.5499Z" fill="white"/>
<path d="M30.05 16.3498C28.75 15.5498 26.4 16.4998 24.9 17.2498C24.55 17.4498 24.35 17.8498 24.5 18.2498C24.7 18.7498 24.8 19.3498 24.8 19.9998C24.8 20.3998 24.75 20.7998 24.65 21.1998C24.55 21.5498 24.75 21.8998 25.05 22.0998C25.55 22.3998 26.15 22.8498 26.8 23.6498C28.4 25.6498 30.4 24.8498 31.2 23.6498C32 22.4498 32.8 17.9998 30.05 16.3498Z" fill="white"/>
<path d="M15.45 21.4998C15.3 20.9998 15.2 20.4998 15.2 19.9498C15.2 19.4498 15.3 18.9998 15.4 18.5498C15.5 18.1998 15.3 17.7998 15 17.6498C14.5 17.3498 13.85 16.8998 13.2 16.0998C11.6 14.0998 9.55002 14.8998 8.75002 16.0998C7.95002 17.2998 7.20002 21.6498 9.95002 23.2998C11.25 24.0498 13.55 23.1998 15.05 22.4498C15.4 22.2498 15.55 21.8498 15.45 21.4998Z" fill="white"/>
<path d="M20 22.3999C21.3255 22.3999 22.4 21.3253 22.4 19.9999C22.4 18.6744 21.3255 17.5999 20 17.5999C18.6745 17.5999 17.6 18.6744 17.6 19.9999C17.6 21.3253 18.6745 22.3999 20 22.3999Z" fill="white"/>
</g>
</svg>
