<svg width="40" height="40" viewBox="0 0 40 40" fill="none" xmlns="http://www.w3.org/2000/svg">
<rect width="40" height="40" rx="20" fill="#67A5E7"/>
<mask id="mask0_1518_28188" style="mask-type:luminance" maskUnits="userSpaceOnUse" x="0" y="0" width="40" height="40">
<rect width="40" height="40" rx="20" fill="white"/>
</mask>
<g mask="url(#mask0_1518_28188)">
<path d="M24.4 14.7998H15.6C15.15 14.7998 14.8 15.1498 14.8 15.5998V24.3998C14.8 24.8498 15.15 25.1998 15.6 25.1998H24.4C24.85 25.1998 25.2 24.8498 25.2 24.3998V15.5998C25.2 15.1498 24.85 14.7998 24.4 14.7998Z" fill="white"/>
<path fill-rule="evenodd" clip-rule="evenodd" d="M32 10.1C32 10.5 31.75 10.75 31.4 10.9C30.6 11.15 29.9 11.95 29.9 12.85C29.9 13.75 30.5 14.5 31.3 14.75C31.65 14.85 31.9 15.15 31.9 15.5V17.45C31.9 17.8 31.65 18.1 31.3 18.2C30.5 18.45 29.9 19.2 29.9 20.1C29.9 21 30.5 21.75 31.3 22C31.65 22.1 31.9 22.4 31.9 22.75V24.6C31.9 24.95 31.65 25.25 31.3 25.35C30.5 25.6 29.9 26.35 29.9 27.25C29.9 28.15 30.5 28.9 31.3 29.15C31.65 29.25 31.9 29.55 31.9 29.9V31.2C31.9 31.65 31.55 32 31.1 32H29.8C29.45 32 29.15 31.75 29.05 31.4C28.8 30.6 28.05 30 27.15 30C26.25 30 25.5 30.6 25.25 31.4C25.15 31.75 24.85 32 24.5 32H22.55C22.2 32 21.9 31.75 21.8 31.4C21.55 30.6 20.8 30 19.9 30C19 30 18.25 30.6 18 31.4C17.9 31.75 17.6 32 17.25 32H15.4C15.05 32 14.75 31.75 14.65 31.4C14.4 30.6 13.65 30 12.75 30C11.85 30 11.1 30.6 10.85 31.4C10.75 31.75 10.45 32 10.1 32H8.8C8.35 32 8 31.65 8 31.2V29.9C8 29.5 8.25 29.25 8.6 29.1C9.4 28.85 10 28.1 10 27.2C10 26.3 9.4 25.5 8.6 25.25C8.25 25.15 8 24.85 8 24.5V22.7C8 22.3 8.25 22.05 8.6 21.9C9.4 21.65 10 20.9 10 20C10 19.1 9.4 18.3 8.6 18.1C8.25 18 8 17.7 8 17.35V15.5C8 15.1 8.25 14.85 8.6 14.7C9.4 14.45 10 13.7 10 12.8C10 11.9 9.4 11.1 8.6 10.9C8.25 10.75 8 10.5 8 10.1V8.8C8 8.35 8.35 8 8.8 8H10.1C10.5 8 10.75 8.25 10.9 8.6C11.15 9.4 11.9 10 12.8 10C13.7 10 14.5 9.4 14.75 8.6C14.85 8.25 15.15 8 15.5 8H17.3C17.7 8 17.95 8.25 18.1 8.6C18.35 9.4 19.1 10 20 10C20.9 10 21.7 9.4 21.9 8.6C22 8.25 22.3 8 22.65 8H24.5C24.9 8 25.15 8.25 25.35 8.6C25.6 9.4 26.35 10 27.25 10C28.15 10 28.9 9.4 29.15 8.6C29.25 8.25 29.55 8 29.9 8H31.2C31.65 8 32 8.35 32 8.8V10.1ZM25.2 27.6C26.5 27.6 27.6 26.5 27.6 25.2V14.8C27.6 13.5 26.5 12.4 25.2 12.4H14.8C13.5 12.4 12.4 13.5 12.4 14.8V25.2C12.4 26.5 13.5 27.6 14.8 27.6H25.2Z" fill="white"/>
</g>
</svg>
