<svg width="40" height="40" viewBox="0 0 40 40" fill="none" xmlns="http://www.w3.org/2000/svg">
<rect width="40" height="40" rx="20" fill="#8A7AED"/>
<mask id="mask0_1518_28138" style="mask-type:luminance" maskUnits="userSpaceOnUse" x="0" y="0" width="40" height="40">
<rect width="40" height="40" rx="20" fill="white"/>
</mask>
<g mask="url(#mask0_1518_28138)">
<path d="M23.05 28.45C22.95 28.15 22.65 28 22.35 28H17.7C17.4 28 17.1 28.15 17 28.45L15.9 31.4C15.8 31.7 16 31.95 16.25 31.95H23.75C24.05 31.95 24.25 31.65 24.1 31.4L23.05 28.45Z" fill="white"/>
<path fill-rule="evenodd" clip-rule="evenodd" d="M29.6 8H10.4C9.1 8 8 9.05 8 10.4V23.2C8 24.5 9.1 25.6 10.4 25.6H29.6C30.9 25.6 32 24.5 32 23.2V10.4C32 9.05 30.9 8 29.6 8ZM20 24.8C19.3 24.8 18.8 24.3 18.8 23.6C18.8 22.9 19.3 22.4 20 22.4C20.7 22.4 21.2 22.9 21.2 23.6C21.2 24.3 20.7 24.8 20 24.8ZM28.8 21.6C29.25 21.6 29.6 21.25 29.6 20.8V11.2C29.6 10.75 29.25 10.4 28.8 10.4H11.2C10.75 10.4 10.4 10.75 10.4 11.2V20.8C10.4 21.25 10.75 21.6 11.2 21.6H28.8Z" fill="white"/>
</g>
</svg>
