<svg width="40" height="40" viewBox="0 0 40 40" fill="none" xmlns="http://www.w3.org/2000/svg">
<rect width="40" height="40" rx="20" fill="#7F93F9"/>
<mask id="mask0_1518_28182" style="mask-type:luminance" maskUnits="userSpaceOnUse" x="0" y="0" width="40" height="40">
<rect width="40" height="40" rx="20" fill="white"/>
</mask>
<g mask="url(#mask0_1518_28182)">
<path fill-rule="evenodd" clip-rule="evenodd" d="M31.902 17.4039C31.951 17.3059 31.951 17.2569 31.951 17.208V17.159V17.012V16.9631V16.9141V16.7671V16.7182C31.951 16.7182 31.902 16.6692 31.902 16.6202C31.902 16.5957 31.902 16.5835 31.8959 16.5774C31.8898 16.5712 31.8775 16.5712 31.853 16.5712C31.853 16.5467 31.8408 16.5345 31.8286 16.5222C31.8163 16.51 31.8041 16.4978 31.8041 16.4733C31.8041 16.4243 31.7551 16.4243 31.7551 16.4243L27.4939 10.3998C27.2979 10.1549 27.0041 9.95898 26.6612 9.95898H20.2449H13.8286C13.4857 9.95898 13.1428 10.1549 12.9469 10.3998L8.63671 16.3753C8.63671 16.4243 8.58773 16.4243 8.58773 16.4243L8.58773 16.4243C8.55957 16.4525 8.5476 16.4644 8.54251 16.4788C8.53876 16.4895 8.53876 16.5014 8.53876 16.5222C8.53876 16.5467 8.53876 16.559 8.53263 16.5651C8.52651 16.5712 8.51427 16.5712 8.48978 16.5712C8.48978 16.5957 8.47753 16.608 8.46529 16.6202H8.46528C8.45304 16.6325 8.4408 16.6447 8.4408 16.6692V16.7182V16.8651V16.9141V16.9631V17.11V17.159C8.4408 17.1835 8.45304 17.2202 8.46529 17.2569C8.47753 17.2937 8.48978 17.3304 8.48978 17.3549V17.4039C8.53876 17.4529 8.53876 17.5018 8.53876 17.5508C8.53876 17.5998 8.58773 17.5998 8.58773 17.5998L8.63671 17.6488L19.3632 29.208L19.4122 29.2569L19.4612 29.3059L19.5102 29.3549C19.5102 29.3549 19.5592 29.3549 19.5592 29.4039C19.6081 29.4039 19.6081 29.4529 19.6081 29.4529C19.6081 29.4529 19.6571 29.4529 19.6571 29.5018C19.6571 29.5018 19.7061 29.5018 19.7061 29.5508C19.7061 29.5508 19.7551 29.5508 19.7551 29.5998H19.8041H19.853H19.902H19.951H20H20.1469H20.2939H20.3428H20.3918H20.4408H20.4898H20.5388C20.5388 29.5998 20.5877 29.5998 20.5877 29.5508C20.5877 29.5508 20.6367 29.5508 20.6367 29.5018C20.6367 29.5018 20.6857 29.5018 20.6857 29.4529C20.6857 29.4529 20.7347 29.4529 20.7347 29.4039C20.7837 29.4039 20.7837 29.3549 20.7837 29.3549C20.7837 29.3549 20.8326 29.3549 20.8326 29.3059L20.8816 29.2569L20.9306 29.208L20.9796 29.159L31.7061 17.5998L31.7551 17.5508C31.7551 17.5018 31.8041 17.5018 31.8041 17.5018C31.853 17.5018 31.902 17.4529 31.902 17.4039ZM20.2449 15.9345H18.5306L20.2449 13.0937L21.9592 15.9345H20.2449ZM22.4 18.0406H20.2449H18.0898L20.2449 24.9467L22.4 18.0406ZM22.1061 12.0651H24.8L23.8204 14.8569L22.1061 12.0651ZM15.7388 12.0651L16.7183 14.8569L18.4326 12.0651H15.7388ZM15.8857 18.0406L17.8449 24.408L11.9673 18.0406H15.8857ZM28.5224 18.0406H24.6041L22.6449 24.408L28.5224 18.0406ZM28.8653 15.9345H25.6326L26.7102 12.9467L28.8653 15.9345ZM14.8081 15.9345L13.7306 12.9467L11.6245 15.9345H14.8081Z" fill="white"/>
</g>
</svg>
