<svg width="40" height="40" viewBox="0 0 40 40" fill="none" xmlns="http://www.w3.org/2000/svg">
<rect width="40" height="40" rx="20" fill="#3E99BE"/>
<mask id="mask0_1518_28274" style="mask-type:luminance" maskUnits="userSpaceOnUse" x="0" y="0" width="40" height="40">
<rect width="40" height="40" rx="20" fill="white"/>
</mask>
<g mask="url(#mask0_1518_28274)">
<path d="M23.024 17.2162C22.88 17.0242 22.544 17.0722 22.448 17.3122C21.968 17.9842 21.536 18.9442 21.536 20.1442V24.3682C21.536 24.9922 21.056 25.5202 20.384 25.5202C19.76 25.5202 19.232 25.0402 19.232 24.3682V23.2162V23.1682C19.232 23.2162 19.232 13.3282 19.232 11.2642C19.232 8.33616 16.64 7.85616 14.768 8.57616C14.288 8.72016 13.808 9.05616 13.472 9.44016C13.232 9.72816 12.992 9.92016 12.608 10.0642C11.936 10.2082 10.736 9.58416 10.112 9.20016C9.77602 9.00816 9.29602 9.10416 9.10402 9.39216L8.62402 10.0642C8.33602 10.4002 8.48002 10.9282 8.81602 11.1682C9.53602 11.6482 10.688 12.3682 11.6 12.5122C12.944 12.7522 14.192 12.3202 15.152 11.4082C15.2 11.3602 15.104 11.4562 15.104 11.4562C15.392 11.2162 15.824 10.8322 16.16 11.2642C16.928 12.4162 13.856 17.4562 13.856 24.7522V25.3762C13.856 28.4962 17.024 31.1842 20.096 31.3282C23.408 31.4722 26.144 28.8322 26.144 25.5682C26.144 23.9362 26.768 22.8322 27.392 22.2082C27.536 22.0642 27.536 21.8242 27.392 21.6802L23.024 17.2162Z" fill="white"/>
<path d="M30.368 20.8639C30.08 20.8639 29.792 20.7679 29.552 20.5279L23.408 14.4319C22.928 13.9519 22.928 13.2319 23.408 12.7999C23.888 12.3199 24.608 12.3199 25.04 12.7999L31.184 18.9439C31.664 19.4239 31.664 20.1439 31.184 20.5759C30.944 20.7679 30.656 20.8639 30.368 20.8639Z" fill="white"/>
</g>
</svg>
