<svg width="40" height="40" viewBox="0 0 40 40" fill="none" xmlns="http://www.w3.org/2000/svg">
<rect width="40" height="40" rx="20" fill="#F87D76"/>
<mask id="mask0_1518_28230" style="mask-type:luminance" maskUnits="userSpaceOnUse" x="0" y="0" width="40" height="40">
<rect width="40" height="40" rx="20" fill="white"/>
</mask>
<g mask="url(#mask0_1518_28230)">
<path fill-rule="evenodd" clip-rule="evenodd" d="M21.056 20.0963L21.536 20.9123C21.728 21.2963 21.632 21.8243 21.344 22.2083L20.24 23.1203C20.2454 23.1635 20.2508 23.2061 20.2562 23.2481C20.2982 23.5799 20.336 23.8781 20.336 24.1763C20.336 24.5123 20.336 24.8483 20.24 25.1843L21.344 26.0963C21.728 26.3843 21.824 26.9123 21.584 27.3443L21.104 28.1123C20.912 28.4003 20.576 28.5923 20.24 28.5923C20.144 28.5923 20 28.5443 19.904 28.4963L18.656 28.0163C18.08 28.4483 17.456 28.8323 16.784 29.0723L16.544 30.5123C16.448 30.9923 16.064 31.3283 15.584 31.3283H14.624C14.144 31.3283 13.76 30.9923 13.664 30.5123L13.424 29.0723C12.752 28.8803 12.176 28.5443 11.648 28.0643L10.304 28.5443C10.208 28.5923 10.064 28.6403 9.96804 28.6403C9.58404 28.6403 9.29604 28.4483 9.10404 28.1603L8.62404 27.3443C8.38404 26.9603 8.48004 26.3843 8.86404 26.0963L9.96804 25.1843C9.92004 24.8003 9.87204 24.4163 9.87204 24.1283C9.87204 23.7923 9.87204 23.4563 9.96804 23.1203L8.81604 22.2083C8.43204 21.8723 8.33604 21.3923 8.57604 20.9603L9.05604 20.1443C9.24804 19.8563 9.58404 19.6643 9.92004 19.6643C10.016 19.6643 10.16 19.7123 10.256 19.7603L11.6 20.2403C12.176 19.7603 12.752 19.4243 13.376 19.1843L13.616 17.8403C13.712 17.3603 14.096 17.0723 14.576 17.0723H15.536C16.016 17.0723 16.4 17.3123 16.496 17.7923L16.736 19.1843C17.408 19.4243 17.984 19.7123 18.512 20.1923L19.856 19.7123C19.952 19.6643 20.096 19.6163 20.192 19.6163C20.576 19.6163 20.864 19.8083 21.056 20.0963ZM12.416 24.1283C12.416 25.6163 13.616 26.7683 15.056 26.7683C16.448 26.7683 17.696 25.6163 17.696 24.1283C17.696 22.6403 16.496 21.4883 15.056 21.4883C13.568 21.4883 12.416 22.6403 12.416 24.1283Z" fill="white"/>
<path fill-rule="evenodd" clip-rule="evenodd" d="M30.368 14.7682L31.232 15.4882C31.52 15.7762 31.616 16.1602 31.424 16.3522L31.04 16.9762C30.896 17.2162 30.656 17.3602 30.368 17.3602C30.272 17.3602 30.176 17.3602 30.08 17.3122L29.024 16.8802C28.592 17.2642 28.064 17.5522 27.536 17.7442L27.344 18.8962C27.296 19.2802 26.96 19.5682 26.576 19.5682H25.808C25.424 19.5682 25.136 19.2802 25.04 18.8962L24.848 17.7922C24.32 17.6482 23.84 17.3602 23.408 16.9762L22.304 17.4082C22.208 17.4562 22.112 17.4562 22.016 17.4562C21.776 17.4562 21.488 17.3122 21.344 17.0722L20.96 16.4002C20.768 16.0642 20.864 15.6322 21.152 15.3922L22.016 14.6722C21.968 14.4322 21.92 14.1442 21.92 13.8562C21.92 13.6048 21.9566 13.39 21.9978 13.1479C22.0038 13.1126 22.0099 13.0768 22.016 13.0402L21.152 12.3202C20.864 12.0802 20.768 11.6482 20.96 11.3122L21.344 10.6882C21.488 10.4482 21.728 10.3042 22.016 10.3042C22.112 10.3042 22.208 10.3042 22.304 10.3522L23.408 10.8322C23.84 10.4482 24.32 10.1602 24.848 9.96823L25.04 8.86423C25.088 8.48023 25.424 8.24023 25.808 8.24023H26.576C26.96 8.24023 27.248 8.48023 27.344 8.86423L27.536 10.0162C28.064 10.1602 28.544 10.4482 28.976 10.8322L30.08 10.4002C30.128 10.4002 30.176 10.3882 30.224 10.3762C30.272 10.3642 30.32 10.3522 30.368 10.3522C30.608 10.3522 30.896 10.4962 31.04 10.7362L31.424 11.4082C31.616 11.7442 31.52 12.1762 31.232 12.4162L30.368 13.1362C30.416 13.3762 30.464 13.6642 30.464 13.9522C30.464 14.2037 30.4274 14.4185 30.3862 14.6606C30.3802 14.6959 30.3741 14.7317 30.368 14.7682ZM24.08 14.0002C24.08 15.1522 25.04 16.1122 26.192 16.1122C27.392 16.1122 28.304 15.1522 28.304 14.0002C28.304 12.8482 27.344 11.8882 26.192 11.8882C25.04 11.8882 24.08 12.8482 24.08 14.0002Z" fill="white"/>
</g>
</svg>
