<svg width="40" height="40" viewBox="0 0 40 40" fill="none" xmlns="http://www.w3.org/2000/svg">
<rect width="40" height="40" rx="20" fill="#F36E83"/>
<mask id="mask0_1518_28202" style="mask-type:luminance" maskUnits="userSpaceOnUse" x="0" y="0" width="40" height="40">
<rect width="40" height="40" rx="20" fill="white"/>
</mask>
<g mask="url(#mask0_1518_28202)">
<path d="M29.502 22.9875H29.2571C28.3755 22.9875 27.6898 22.3018 27.6898 21.3712V16.1794C27.6898 11.6243 23.6735 7.99978 19.1184 8.53856C15.2 8.97937 12.3102 12.4569 12.3102 16.5222V21.1753C12.3102 22.1549 11.4775 22.9875 10.5469 22.9875H10.498C9.81224 22.9875 9.22449 23.5753 9.22449 24.261V25.1916C9.22449 25.8773 9.81224 26.4651 10.498 26.4651H29.502C30.1878 26.4651 30.7755 25.8773 30.7755 25.1916V24.261C30.7755 23.5753 30.1878 22.9875 29.502 22.9875Z" fill="white"/>
<path d="M22.547 28.8652H17.4531C17.1592 28.8652 16.8653 29.1101 16.9633 29.404C17.2572 30.8734 18.4817 31.9999 20.049 31.9999C21.6164 31.9999 22.8409 30.9224 23.1347 29.404C23.1347 29.1101 22.8898 28.8652 22.547 28.8652Z" fill="white"/>
</g>
</svg>
