<svg width="40" height="40" viewBox="0 0 40 40" fill="none" xmlns="http://www.w3.org/2000/svg">
<rect width="40" height="40" rx="20" fill="#BF5A88"/>
<mask id="mask0_1518_28216" style="mask-type:luminance" maskUnits="userSpaceOnUse" x="0" y="0" width="40" height="40">
<rect width="40" height="40" rx="20" fill="white"/>
</mask>
<g mask="url(#mask0_1518_28216)">
<path d="M31.52 18.176C30.608 12.704 25.808 8.47998 20 8.47998C14.192 8.47998 9.39205 12.704 8.48005 18.176C8.43205 18.56 8.81605 18.8 9.10405 18.56C9.68005 18.08 10.4 17.792 11.264 17.792C12.32 17.792 13.28 18.272 13.856 19.04C14 19.232 14.336 19.232 14.48 19.04C15.104 18.272 16.016 17.792 17.072 17.792C18.128 17.792 19.088 18.272 19.664 19.04C19.808 19.232 20.144 19.232 20.288 19.04C20.912 18.272 21.824 17.792 22.88 17.792C23.936 17.792 24.896 18.272 25.472 19.04C25.616 19.232 25.952 19.232 26.096 19.04C26.72 18.272 27.632 17.792 28.688 17.792C29.504 17.792 30.272 18.08 30.848 18.56C31.184 18.8 31.568 18.56 31.52 18.176Z" fill="white"/>
<path d="M24.608 26.9121C23.936 26.9121 23.456 27.3921 23.456 28.0641C23.456 28.7361 22.976 29.2161 22.304 29.2161C21.632 29.2161 21.152 28.7361 21.152 28.0641V22.6881C21.152 22.0161 20.672 21.5361 20 21.5361C19.328 21.5361 18.848 22.0161 18.848 22.6881V28.0641C18.848 29.9841 20.384 31.5201 22.304 31.5201C24.224 31.5201 25.76 29.9841 25.76 28.0641C25.76 27.3921 25.28 26.9121 24.608 26.9121Z" fill="white"/>
</g>
</svg>
