<svg width="40" height="40" viewBox="0 0 40 40" fill="none" xmlns="http://www.w3.org/2000/svg">
<rect width="40" height="40" rx="20" fill="#ACD360"/>
<mask id="mask0_1518_28130" style="mask-type:luminance" maskUnits="userSpaceOnUse" x="0" y="0" width="40" height="40">
<rect width="40" height="40" rx="20" fill="white"/>
</mask>
<g mask="url(#mask0_1518_28130)">
<path d="M17.25 11.55C17.35 11.85 17.65 12 17.95 12H22C22.3 12 22.6 11.85 22.7 11.55L24.3 8.60005C24.4 8.30005 24.2 8.05005 23.95 8.05005H20H16.1C15.8 8.05005 15.6 8.35005 15.75 8.60005L17.25 11.55Z" fill="white"/>
<path fill-rule="evenodd" clip-rule="evenodd" d="M17.65 14.4001H22.35C26.25 14.4001 29.5 17.6501 29.5 21.6001V29.6001C29.5 30.9001 28.4 32.0001 27.1 32.0001H12.9C11.55 32.0001 10.5 30.9001 10.5 29.6001V21.6001C10.5 17.6501 13.7 14.4001 17.65 14.4001ZM21.2 29.2001V27.8501C22.75 27.5001 23.8 26.3501 23.85 25.0001C23.85 23.1001 22 22.2001 20.35 21.6501C19 21.1501 18.85 20.8501 18.85 20.5501C18.85 20.3501 19.15 20.0501 19.8 20.0501C20.25 20.0501 20.9 20.3001 21.7 20.7501C21.8 20.8001 21.95 20.8501 22.05 20.8501C22.25 20.8501 22.55 20.7001 22.7 20.5001L23.3 19.8001C23.4 19.7001 23.5 19.5001 23.45 19.3001C23.4 19.1001 23.3 18.9001 23.15 18.8001C22.85 18.6001 22 18.2001 21.2 18.0001V16.8501C21.2 16.6001 20.95 16.4501 20.7 16.4501H19.1C18.9 16.4501 18.8 16.6001 18.8 16.8501V18.0501C16.8 18.4501 16.1 19.7001 16.1 20.8001C16.1 22.6501 17.75 23.4501 19.1 23.9501C20.6 24.4501 20.75 24.8501 20.75 25.1001C20.75 25.4001 20.3 25.7001 19.75 25.7001C19.25 25.7001 18.55 25.5001 17.75 25.0001H17.7C17.6 24.9501 17.45 24.9001 17.3 24.9001C17.05 24.9001 16.8 25.0001 16.7 25.2001L16.2 26.0001C15.95 26.3501 16.05 26.6001 16.35 26.9001C16.6 27.1501 17.6 27.6501 18.8 27.9001V29.2001C18.8 29.4501 18.85 29.6001 19.1 29.6001H20.7C20.95 29.6001 21.2 29.4501 21.2 29.2001Z" fill="white"/>
</g>
</svg>
