<svg width="40" height="40" viewBox="0 0 40 40" fill="none" xmlns="http://www.w3.org/2000/svg">
<rect width="40" height="40" rx="20" fill="#D95879"/>
<mask id="mask0_1518_28186" style="mask-type:luminance" maskUnits="userSpaceOnUse" x="0" y="0" width="40" height="40">
<rect width="40" height="40" rx="20" fill="white"/>
</mask>
<g mask="url(#mask0_1518_28186)">
<rect x="13.6" y="17.3999" width="12.75" height="5.25" fill="white"/>
<path fill-rule="evenodd" clip-rule="evenodd" d="M32 14.75V16.75C32 17.05 31.85 17.25 31.6 17.4C30.7 17.95 30.1 18.9 30.1 20C30.1 21.1 30.7 22.05 31.6 22.6C31.85 22.7 32 23 32 23.25V25.25C32 26.5 31 27.5 29.75 27.5H10.25C9 27.5 8 26.5 8 25.25V23.2C8 22.95 8.15 22.7 8.4 22.6C9.3 22.05 9.9 21.1 9.9 20C9.9 18.9 9.3 17.95 8.4 17.4C8.15 17.3 8 17 8 16.75V14.75C8 13.5 9 12.5 10.25 12.5H29.75C31 12.5 32 13.5 32 14.75ZM12.1 24.9H27.9C28.3 24.9 28.6 24.55 28.6 24.15V15.9C28.6 15.5 28.25 15.15 27.85 15.15H12.1C11.7 15.15 11.35 15.5 11.35 15.9V24.15C11.35 24.55 11.7 24.9 12.1 24.9Z" fill="white"/>
</g>
</svg>
