<svg width="40" height="40" viewBox="0 0 40 40" fill="none" xmlns="http://www.w3.org/2000/svg">
<rect width="40" height="40" rx="20" fill="#D472D4"/>
<mask id="mask0_1518_28168" style="mask-type:luminance" maskUnits="userSpaceOnUse" x="0" y="0" width="40" height="40">
<rect width="40" height="40" rx="20" fill="white"/>
</mask>
<g mask="url(#mask0_1518_28168)">
<path d="M15.6 28.8H14C13.75 28.8 13.45 28.95 13.35 29.2L12.8 30.15C12.5 30.7 12.6 31.45 13.1 31.8C13.3 31.95 13.55 32 13.75 32C14.15 32 14.55 31.8 14.75 31.4L15.9 29.4C16.1 29.1 15.9 28.8 15.6 28.8Z" fill="white"/>
<path d="M26.7 29.2C26.55 28.95 26.3 28.8 26.05 28.8H24.45C24.15 28.8 23.95 29.1 24.1 29.4L25.25 31.4C25.5 31.8 25.9 32 26.25 32C26.5 32 26.7 31.9 26.9 31.8C27.4 31.45 27.55 30.7 27.2 30.15L26.7 29.2Z" fill="white"/>
<path fill-rule="evenodd" clip-rule="evenodd" d="M13.35 8H26.65C27.95 8 29 9.1 29 10.4V24C29 25.3 27.95 26.4 26.65 26.4H13.35C12.05 26.4 11 25.3 11 24V10.4C11 9.1 12.05 8 13.35 8ZM13.35 23.6C13.35 24.3 13.85 24.8 14.5 24.8C15.2 24.8 15.65 24.3 15.65 23.6C15.65 22.9 15.15 22.4 14.5 22.4C13.85 22.4 13.35 22.9 13.35 23.6ZM25.5 24.8C24.85 24.8 24.35 24.3 24.35 23.6C24.35 22.9 24.85 22.4 25.5 22.4C26.15 22.4 26.65 22.9 26.65 23.6C26.65 24.3 26.15 24.8 25.5 24.8ZM25.85 20.8C26.3 20.8 26.65 20.45 26.65 20H26.7V12C26.7 11.55 26.35 11.2 25.9 11.2H14.15C13.7 11.2 13.35 11.55 13.35 12V20C13.35 20.45 13.7 20.8 14.15 20.8H25.85Z" fill="white"/>
</g>
</svg>
