<svg width="40" height="40" viewBox="0 0 40 40" fill="none" xmlns="http://www.w3.org/2000/svg">
<rect width="40" height="40" rx="20" fill="#5FCC64"/>
<mask id="mask0_1518_28190" style="mask-type:luminance" maskUnits="userSpaceOnUse" x="0" y="0" width="40" height="40">
<rect width="40" height="40" rx="20" fill="white"/>
</mask>
<g mask="url(#mask0_1518_28190)">
<path d="M25.3 28.7998H11.45C10.1 28.7998 9 29.8998 9 31.1998V31.2498C9 31.6498 9.35 31.9998 9.75 31.9998H26.95C27.35 31.9998 27.7 31.6498 27.7 31.2498V31.1998C27.75 29.8998 26.65 28.7998 25.3 28.7998Z" fill="white"/>
<path fill-rule="evenodd" clip-rule="evenodd" d="M24.25 10.25L30.75 16.15C31.05 16.5 31.05 17 30.85 17.3L29.75 18.4C28.95 19.2 27.75 19.35 26.75 18.75C25.8103 18.1862 25.0362 18.2404 24.1736 18.3009C23.2002 18.3691 22.114 18.4452 20.55 17.65C20.2 17.45 19.9 17.85 20 18.15C20.0201 18.2011 20.0406 18.253 20.0614 18.3057C20.8126 20.2112 21.9605 23.1226 24.15 25.75C24.35 26 24.15 26.4 23.8 26.4H12.75C12.35 26.4 12.05 26.1 11.95 25.75C11.35 22.6 9.29995 9.04997 21.85 9.04997C21.85 9.04997 23.05 7.69997 25.05 8.09997C25.35 8.14997 25.45 8.44997 25.3 8.69997L24.25 10.25ZM21.25 13.6C21.25 14.3 21.75 14.8 22.45 14.8C23.15 14.8 23.65 14.3 23.65 13.6C23.65 12.9 23.1 12.4 22.45 12.4C21.8 12.4 21.25 12.9 21.25 13.6Z" fill="white"/>
</g>
</svg>
