<svg width="40" height="40" viewBox="0 0 40 40" fill="none" xmlns="http://www.w3.org/2000/svg">
<rect width="40" height="40" rx="20" fill="#7F8DE1"/>
<mask id="mask0_1518_28090" style="mask-type:luminance" maskUnits="userSpaceOnUse" x="0" y="0" width="40" height="40">
<rect width="40" height="40" rx="20" fill="white"/>
</mask>
<g mask="url(#mask0_1518_28090)">
<path fill-rule="evenodd" clip-rule="evenodd" d="M31.5102 20.4408C31.5592 19.6082 30.9225 19.3633 30.6776 19.3633H21.8612C21.0776 19.3633 20.9796 20.1959 20.9796 20.2449V29.7959H31.5102V20.4408ZM25.4368 27.298C25.4368 27.7388 25.0939 28.1306 24.6041 28.1306H23.7715C23.3306 28.1306 22.9388 27.7388 22.9388 27.298V26.4653C22.9388 26.0245 23.2817 25.6327 23.7715 25.6327H24.6041C25.0449 25.6327 25.4368 26.0245 25.4368 26.4653V27.298ZM24.6041 23.9674C25.0939 23.9674 25.4368 23.5755 25.4368 23.1347V22.3021C25.4368 21.8612 25.0449 21.4694 24.6041 21.4694H23.7715C23.2817 21.4694 22.9388 21.8612 22.9388 22.3021V23.1347C22.9388 23.5755 23.3306 23.9674 23.7715 23.9674H24.6041ZM29.5021 27.298C29.5021 27.7388 29.1592 28.1306 28.6694 28.1306H27.8368C27.3959 28.1306 27.0041 27.7388 27.0041 27.298V26.4653C27.0041 26.0245 27.347 25.6327 27.8368 25.6327H28.6694C29.1102 25.6327 29.5021 26.0245 29.5021 26.4653V27.298ZM28.6694 23.9674C29.1592 23.9674 29.5021 23.5755 29.5021 23.1347V22.3021C29.5021 21.8612 29.1102 21.4694 28.6694 21.4694H27.8368C27.347 21.4694 27.0041 21.8612 27.0041 22.3021V23.1347C27.0041 23.5755 27.3959 23.9674 27.8368 23.9674H28.6694Z" fill="white"/>
<path fill-rule="evenodd" clip-rule="evenodd" d="M23.3796 11.2817V16.0327C23.3796 16.3755 23.0857 16.8653 22.5959 16.8653H19.4122C18.5306 16.8653 18.5306 17.8449 18.5306 17.8449V29.7959H8V11.0857C8 11.0368 8.09796 10.2041 8.88163 10.2041H22.5959C22.8408 10.2041 23.4286 10.449 23.3796 11.2817ZM11.6245 27.7388C12.1143 27.7388 12.4571 27.347 12.4571 26.9061H12.5061V26.0735C12.5061 25.6327 12.1143 25.2408 11.6735 25.2408H10.8408C10.351 25.2408 10.0082 25.6327 10.0082 26.0735V26.9061C10.0082 27.347 10.4 27.7388 10.8408 27.7388H11.6245ZM12.4571 22.6939C12.4571 23.1347 12.1143 23.5266 11.6245 23.5266H10.8408C10.4 23.5266 10.0082 23.1347 10.0082 22.6939V21.8612C10.0082 21.4204 10.351 21.0286 10.8408 21.0286H11.6735C12.1143 21.0286 12.5061 21.4204 12.5061 21.8612V22.6939H12.4571ZM11.6245 19.3633C12.1143 19.3633 12.4571 18.9714 12.4571 18.5306H12.5061V17.698C12.5061 17.2572 12.1143 16.8653 11.6735 16.8653H10.8408C10.351 16.8653 10.0082 17.2572 10.0082 17.698V18.5306C10.0082 18.9714 10.4 19.3633 10.8408 19.3633H11.6245ZM12.4571 14.3674C12.4571 14.8082 12.1143 15.2 11.6245 15.2H10.8408C10.4 15.2 10.0082 14.8082 10.0082 14.3674V13.5347C10.0082 13.0939 10.351 12.7021 10.8408 12.7021H11.6735C12.1143 12.7021 12.5061 13.0939 12.5061 13.5347V14.3674H12.4571ZM16.0816 27.7388C16.5714 27.7388 16.9143 27.347 16.9143 26.9061V26.0735C16.9143 25.6327 16.5224 25.2408 16.0816 25.2408H15.249C14.7592 25.2408 14.4163 25.6327 14.4163 26.0735V26.9061C14.4163 27.347 14.8082 27.7388 15.249 27.7388H16.0816ZM16.9143 22.6939C16.9143 23.1347 16.5714 23.5266 16.0816 23.5266H15.249C14.8082 23.5266 14.4163 23.1347 14.4163 22.6939V21.8612C14.4163 21.4204 14.7592 21.0286 15.249 21.0286H16.0816C16.5224 21.0286 16.9143 21.4204 16.9143 21.8612V22.6939ZM16.0816 19.3633C16.5714 19.3633 16.9143 18.9714 16.9143 18.5306V17.698C16.9143 17.2572 16.5224 16.8653 16.0816 16.8653H15.249C14.7592 16.8653 14.4163 17.2572 14.4163 17.698V18.5306C14.4163 18.9714 14.8082 19.3633 15.249 19.3633H16.0816ZM16.9143 14.3674C16.9143 14.8082 16.5714 15.2 16.0816 15.2H15.249C14.8082 15.2 14.4163 14.8082 14.4163 14.3674V13.5347C14.4163 13.0939 14.7592 12.7021 15.249 12.7021H16.0816C16.5224 12.7021 16.9143 13.0939 16.9143 13.5347V14.3674ZM20.5388 15.2C21.0286 15.2 21.3714 14.8082 21.3714 14.3674H21.4204V13.5347C21.4204 13.0939 21.0286 12.7021 20.5878 12.7021H19.7551C19.2653 12.7021 18.9224 13.0939 18.9224 13.5347V14.3674C18.9224 14.8082 19.3143 15.2 19.7551 15.2H20.5388Z" fill="white"/>
</g>
</svg>
