<svg width="40" height="40" viewBox="0 0 40 40" fill="none" xmlns="http://www.w3.org/2000/svg">
<rect width="40" height="40" rx="20" fill="#A094ED"/>
<mask id="mask0_1518_28368" style="mask-type:luminance" maskUnits="userSpaceOnUse" x="0" y="0" width="40" height="40">
<rect width="40" height="40" rx="20" fill="white"/>
</mask>
<g mask="url(#mask0_1518_28368)">
<path fill-rule="evenodd" clip-rule="evenodd" d="M10.4 11.8398H29.6C30.944 11.8398 32 12.8958 32 14.2398V25.7598C32 27.1038 30.944 28.1598 29.6 28.1598H10.4C9.104 28.1598 8 27.0558 8 25.7598V14.2398C8 12.8958 9.104 11.8398 10.4 11.8398ZM15.968 25.3758H19.424C20.192 25.3758 20.816 24.5598 20.672 23.7438C20.624 22.5438 19.376 21.7758 18.08 21.1998C17.12 20.8638 17.024 20.4798 17.024 20.0958C17.024 19.6638 17.264 19.3278 17.6 19.0398C18.128 18.6078 18.416 17.8878 18.416 17.0718C18.416 15.5838 17.504 14.2878 15.92 14.2878C14.336 14.2878 13.424 15.5358 13.424 17.0718C13.424 17.8398 13.712 18.5598 14.24 19.0398C14.576 19.3278 14.816 19.7118 14.816 20.0958C14.816 20.4798 14.672 20.8638 13.76 21.2478C12.464 21.8238 11.216 22.5438 11.168 23.7438C11.168 24.5598 11.744 25.3758 12.512 25.3758H15.968ZM28.784 22.5918C28.784 23.0238 28.4 23.4078 27.968 23.4078H24.368C23.936 23.4078 23.552 23.0718 23.552 22.5918V21.3918C23.552 20.9598 23.936 20.5758 24.368 20.5758H27.968C28.4 20.5758 28.784 20.9118 28.784 21.3918V22.5918ZM27.968 19.0398C28.4 19.0398 28.784 18.6558 28.784 18.2238H28.832V17.0238C28.832 16.5438 28.448 16.2078 28.016 16.2078H22.016C21.584 16.2078 21.2 16.5918 21.2 17.0238V18.2238C21.2 18.7038 21.584 19.0398 22.016 19.0398H27.968Z" fill="white"/>
</g>
</svg>
