<svg width="40" height="40" viewBox="0 0 40 40" fill="none" xmlns="http://www.w3.org/2000/svg">
<rect width="40" height="40" rx="20" fill="#659AD5"/>
<mask id="mask0_1518_28256" style="mask-type:luminance" maskUnits="userSpaceOnUse" x="0" y="0" width="40" height="40">
<rect width="40" height="40" rx="20" fill="white"/>
</mask>
<g mask="url(#mask0_1518_28256)">
<path fill-rule="evenodd" clip-rule="evenodd" d="M8 27.7001C8 25.5501 9.7 23.8501 11.85 23.8501C14 23.8501 15.7 25.5001 15.7 27.6501C15.7 29.8001 13.95 31.5001 11.85 31.5001C9.75 31.5001 8 29.8501 8 27.7001ZM10.3 27.6501C10.3 28.5001 11 29.2001 11.85 29.2001C12.7 29.2001 13.4 28.5001 13.4 27.6501C13.4 26.8001 12.7 26.1001 11.85 26.1001C11 26.1001 10.3 26.8001 10.3 27.6501Z" fill="white"/>
<path fill-rule="evenodd" clip-rule="evenodd" d="M24.3 27.7001C24.3 25.5501 26 23.8501 28.15 23.8501C30.25 23.8501 32 25.5001 32 27.6501C32 29.8001 30.3 31.5001 28.15 31.5001C26 31.5001 24.3 29.8501 24.3 27.7001ZM26.6 27.6501C26.6 28.5001 27.3 29.2001 28.15 29.2001C29 29.2001 29.7 28.5001 29.7 27.6501C29.7 26.8001 29 26.1001 28.15 26.1001C27.3 26.1001 26.6 26.8001 26.6 27.6501Z" fill="white"/>
<path d="M27.9 21.5502C28.75 21.5002 29.55 21.6502 30.35 21.9502C30.75 22.1002 31.15 21.9002 31.35 21.5502C33.3 17.8502 30.15 16.1002 28.15 15.1002C27.6 14.8502 27 15.2002 27 15.8002V18.0002C27 18.4502 26.7 18.9002 26.25 18.8502C23.4 18.4002 20.85 15.4002 17.75 15.4002C14.65 15.4002 14.25 18.4502 14.25 18.4502C12.1 18.4502 9.95 18.3002 9 18.0502C8.45 18.0002 8 18.3502 8 18.8502C8 18.8502 8 21.5502 11.85 21.5502C15 21.5502 17.65 23.8502 18 27.0002C18.1 27.8502 18 28.7002 17.75 29.4002C17.65 29.6502 17.85 29.9502 18.2 29.9502H21.75C22.05 29.9502 22.25 29.7002 22.2 29.4002C21.95 28.6502 21.9 27.9002 21.95 27.1002C22.25 24.1002 24.8 21.6502 27.9 21.5502Z" fill="white"/>
<path d="M18.2 12.9002C18.25 13.2002 18.45 13.4502 18.75 13.5502L22.85 14.9502C23.25 15.0502 23.6 14.9002 23.8 14.5502L24.15 13.9002C24.3 13.6502 24.1 13.3502 23.85 13.3002C22.65 13.2002 20.15 12.7502 20.85 11.4002C21.5 10.2502 22.85 10.5502 23.75 10.9502C24.1 11.1002 24.45 10.7002 24.3 10.4002C23.7 9.15024 22.35 8.40024 20.95 8.55024C19.15 8.75024 17.85 10.5002 18.1 12.3002L18.2 12.9002Z" fill="white"/>
</g>
</svg>
