<svg width="40" height="40" viewBox="0 0 40 40" fill="none" xmlns="http://www.w3.org/2000/svg">
<rect width="40" height="40" rx="20" fill="#F0856E"/>
<mask id="mask0_1518_28294" style="mask-type:luminance" maskUnits="userSpaceOnUse" x="0" y="0" width="40" height="40">
<rect width="40" height="40" rx="20" fill="white"/>
</mask>
<g mask="url(#mask0_1518_28294)">
<path fill-rule="evenodd" clip-rule="evenodd" d="M22.9 15.3002H29.6C30.9 15.3002 32 16.3502 32 17.6502V28.6502C32 29.9502 30.9 31.0002 29.6 31.0002H10.4C9.1 31.0002 8 29.9502 8 28.6502V17.6502C8 16.3502 9.1 15.3002 10.4 15.3002H15.55C15.75 14.8502 16.05 14.4502 16.4 14.1002L13.9 10.9002C13.5 10.4002 13.5 9.65024 14.05 9.25024C14.6 8.85024 15.35 8.95024 15.75 9.45024L18.55 13.0002C18.6444 13.0002 18.7389 12.9891 18.8385 12.9773C18.95 12.9642 19.068 12.9502 19.2 12.9502C19.325 12.9502 19.4375 12.9627 19.55 12.9752C19.6625 12.9877 19.775 13.0002 19.9 13.0002L22.65 9.45024C23.05 8.95024 23.85 8.85024 24.35 9.25024C24.85 9.65024 24.95 10.4002 24.55 10.9002L22.05 14.1002C22.4 14.4502 22.7 14.8502 22.9 15.3002ZM25.6 28.6502C26.05 28.6502 26.4 28.3002 26.4 27.8502V18.4502C26.4 18.0002 26.05 17.6502 25.6 17.6502H11.2C10.75 17.6502 10.4 18.0002 10.4 18.4502V27.8502C10.4 28.3002 10.75 28.6502 11.2 28.6502H25.6ZM29.2 23.9502C28.5 23.9502 28 23.4502 28 22.7502C28 22.0502 28.5 21.5502 29.2 21.5502C29.9 21.5502 30.4 22.0502 30.4 22.7502C30.4 23.4502 29.9 23.9502 29.2 23.9502ZM28 18.8502C28 19.5002 28.5 20.0002 29.2 20.0002C29.9 20.0002 30.4 19.5002 30.4 18.8502C30.4 18.1502 29.9 17.6502 29.2 17.6502C28.5 17.6502 28 18.2002 28 18.8502Z" fill="white"/>
</g>
</svg>
