<svg width="40" height="40" viewBox="0 0 40 40" fill="none" xmlns="http://www.w3.org/2000/svg">
<rect width="40" height="40" rx="20" fill="#83C75E"/>
<mask id="mask0_1518_28176" style="mask-type:luminance" maskUnits="userSpaceOnUse" x="0" y="0" width="40" height="40">
<rect width="40" height="40" rx="20" fill="white"/>
</mask>
<g mask="url(#mask0_1518_28176)">
<path fill-rule="evenodd" clip-rule="evenodd" d="M29.6 11H10.4C9.1 11 8 12.05 8 13.35V26.65C8 27.95 9.1 29 10.4 29H29.6C30.9 29 32 27.95 32 26.65V13.35C32 12.05 30.9 11 29.6 11ZM29.6 13.35V15.7H10.4V13.35H29.6ZM10.4 19.6V26.65H29.6V19.6H10.4Z" fill="white"/>
<path d="M17.25 21.55C16.7 21.55 16.2 21.8 15.95 22.25C15.9 22.35 15.8 22.35 15.75 22.25C15.45 21.8 15 21.55 14.45 21.55C13.55 21.55 12.85 22.25 12.85 23.1C12.85 23.95 13.55 24.65 14.45 24.65C15 24.65 15.5 24.4 15.75 23.95C15.8 23.85 15.9 23.85 15.95 23.95C16.25 24.4 16.7 24.65 17.25 24.65H17.3C18.15 24.65 18.85 24 18.85 23.1V23C18.8 22.25 18.1 21.55 17.25 21.55Z" fill="white"/>
<path d="M26.4 21.95H21.6C21.15 21.95 20.8 22.3 20.8 22.75V23.5C20.8 23.95 21.15 24.3 21.6 24.3H26.4C26.85 24.3 27.2 23.95 27.2 23.5V22.7C27.2 22.3 26.85 21.95 26.4 21.95Z" fill="white"/>
</g>
</svg>
