<svg width="40" height="40" viewBox="0 0 40 40" fill="none" xmlns="http://www.w3.org/2000/svg">
<rect width="40" height="40" rx="20" fill="#904D4C"/>
<mask id="mask0_1518_28282" style="mask-type:luminance" maskUnits="userSpaceOnUse" x="0" y="0" width="40" height="40">
<rect width="40" height="40" rx="20" fill="white"/>
</mask>
<g mask="url(#mask0_1518_28282)">
<path d="M17.3551 20.0001H29.0612C29.4041 20.0001 29.7469 19.7552 29.7959 19.4124L31.951 12.1144C32.098 11.6246 31.7061 11.1348 31.2163 11.1348H13.1429L12.849 10.0573C12.6531 9.56747 12.1633 9.22461 11.6735 9.22461H9.76327C9.12653 9.22461 8.53878 9.66543 8.4898 10.3022C8.44082 10.9389 9.02857 11.5267 9.66531 11.5267H10.7918L14.5143 23.7715C14.6612 24.2613 15.102 24.6042 15.6408 24.6042H29.4531C30.0898 24.6042 30.6776 24.1634 30.7265 23.5267C30.7755 22.8899 30.1878 22.3022 29.551 22.3022H17.4041C16.8653 22.3022 16.4245 21.9593 16.2776 21.5185V21.4695C16.0327 20.7348 16.6204 20.0001 17.3551 20.0001Z" fill="white"/>
<path d="M17.6001 30.7755C18.6821 30.7755 19.5592 29.9203 19.5592 28.8653C19.5592 27.8103 18.6821 26.9551 17.6001 26.9551C16.518 26.9551 15.6409 27.8103 15.6409 28.8653C15.6409 29.9203 16.518 30.7755 17.6001 30.7755Z" fill="white"/>
<path d="M27.1511 30.7755C28.2331 30.7755 29.1103 29.9203 29.1103 28.8653C29.1103 27.8103 28.2331 26.9551 27.1511 26.9551C26.0691 26.9551 25.1919 27.8103 25.1919 28.8653C25.1919 29.9203 26.0691 30.7755 27.1511 30.7755Z" fill="white"/>
</g>
</svg>
