<svg width="40" height="40" viewBox="0 0 40 40" fill="none" xmlns="http://www.w3.org/2000/svg">
<rect width="40" height="40" rx="20" fill="#ED6387"/>
<mask id="mask0_1518_28234" style="mask-type:luminance" maskUnits="userSpaceOnUse" x="0" y="0" width="40" height="40">
<rect width="40" height="40" rx="20" fill="white"/>
</mask>
<g mask="url(#mask0_1518_28234)">
<path fill-rule="evenodd" clip-rule="evenodd" d="M20.7837 17.8446C18.5306 16.1793 16.2776 16.963 14.8082 18.3834C14.2694 18.8732 13.3878 19.216 12.4571 19.4609L12.301 19.5105C11.2674 19.8379 10.1664 20.1867 9.42041 20.9793C7.16735 23.1834 7.60816 25.7793 10.6449 28.816L10.6939 28.865L10.7429 28.914C12.5551 30.6773 14.1714 31.5589 15.6898 31.5589C16.7673 31.5589 17.7469 31.1181 18.7265 30.2364C19.5592 29.4528 19.951 28.3262 20.2939 27.2487C20.5878 26.3671 20.9306 25.4364 21.4204 24.9466C22.302 24.065 22.8408 23.0854 22.9388 22.0569C23.0367 21.3222 22.8408 20.2446 22.0082 19.1671C22.0082 19.0691 21.5184 18.4324 20.7837 17.8446ZM15.9347 27.2977C15.7388 27.4936 15.4449 27.5915 15.151 27.5915C14.8571 27.5915 14.6122 27.4936 14.4163 27.2977L12.2122 25.1426C11.7714 24.7018 11.7714 24.065 12.2122 23.6242C12.6531 23.1834 13.2898 23.1834 13.7306 23.6242L15.8857 25.7793C16.3265 26.2201 16.3265 26.8569 15.9347 27.2977ZM15.8367 22.1548C15.8367 23.2324 16.7184 24.114 17.7959 24.114C18.8735 24.114 19.7551 23.2324 19.7551 22.1548C19.7551 21.0773 18.8735 20.1956 17.7959 20.1956C16.7184 20.1956 15.8367 21.0773 15.8367 22.1548Z" fill="white"/>
<path d="M31.2654 10.0571L29.4531 8.24482C29.1592 7.95094 28.5715 7.95094 28.2286 8.24482L26.2205 10.253C25.9266 10.5469 25.9266 11.1346 26.2205 11.4775L26.3184 11.5754L22.3021 15.6407C22.1552 15.7877 22.1552 16.0816 22.3021 16.2285C22.596 16.5224 23.1348 16.9632 23.4286 17.306C23.5756 17.453 23.8205 17.453 23.9674 17.306L27.9837 13.2897L28.0817 13.3877C28.3756 13.6816 28.9633 13.6816 29.3062 13.3877L31.3143 11.3795C31.6082 10.9387 31.6082 10.3999 31.2654 10.0571Z" fill="white"/>
</g>
</svg>
