<svg width="40" height="40" viewBox="0 0 40 40" fill="none" xmlns="http://www.w3.org/2000/svg">
<rect width="40" height="40" rx="20" fill="#BF7B66"/>
<mask id="mask0_1518_28278" style="mask-type:luminance" maskUnits="userSpaceOnUse" x="0" y="0" width="40" height="40">
<rect width="40" height="40" rx="20" fill="white"/>
</mask>
<g mask="url(#mask0_1518_28278)">
<path fill-rule="evenodd" clip-rule="evenodd" d="M27.7878 10.6939C28.4735 11.7714 29.5021 12.6041 30.6776 12.9469C31.0204 13.0449 31.3633 13.3388 31.4612 13.6816C31.6231 14.2482 31.4172 15.1158 31.2578 15.787C31.2243 15.9281 31.1929 16.0605 31.1674 16.1796C31.0204 17.0122 30.7755 17.8449 30.5306 18.6775L30.5306 18.6776C29.8939 20.6857 29.0123 22.6449 27.8857 24.4571C26.5633 26.5633 24.898 28.3755 22.8408 29.8449C22.7608 29.9049 22.6705 29.9747 22.5718 30.0509C21.7041 30.7213 20.1838 31.896 19.2163 31.4122C18.0408 30.8245 16.9633 30.1388 15.9347 29.3061C12.3102 26.4163 10.0082 22.4 8.78369 18.0408C8.74216 17.8816 8.68304 17.6824 8.61571 17.4555C8.20652 16.0764 7.49423 13.6758 8.58777 13.0449C8.84382 12.8972 9.08998 12.7653 9.32663 12.6385C10.2669 12.1347 11.0572 11.7113 11.7225 10.6939C11.8933 10.4299 12.0099 10.0626 12.1302 9.68397C12.3892 8.86822 12.6649 8 13.5347 8H25.9755C26.8708 8 27.1609 8.91991 27.4244 9.75561C27.5357 10.1086 27.6423 10.4466 27.7878 10.6939ZM20.3918 28.7184C25.0939 25.8286 27.8857 20.9306 28.9633 15.6898L29.0612 14.8571V14.8082L28.5714 14.5143C27.1021 13.6816 25.9265 12.2612 25.2408 10.7918L25.0449 10.302H24.9959H19.7551H14.4653L14.1714 10.9878C13.4857 12.3592 12.3592 13.6816 11.1347 14.4163L10.449 14.8571L10.547 15.6408C11.3306 19.7061 13.4857 25.2408 19.1184 28.6694L19.7551 29.0612L20.3918 28.7184Z" fill="white"/>
<path d="M19.3633 12.7021C18.4816 12.7021 16.2775 12.7021 15.8367 13.094C15.102 13.7797 14.6612 14.7593 13.8775 15.396C13.0449 16.0817 13.4367 16.8164 13.7306 17.747C14.2694 19.4124 15.0041 20.9797 16.0326 22.4491C16.5224 23.1838 17.1102 23.9185 17.7959 24.5062C17.9918 24.7021 19.8041 26.5144 19.8041 25.3879V13.4858C19.7551 13.045 19.7551 12.7021 19.3633 12.7021Z" fill="white"/>
</g>
</svg>
