<svg width="40" height="40" viewBox="0 0 40 40" fill="none" xmlns="http://www.w3.org/2000/svg">
<rect width="40" height="40" rx="20" fill="#CD9F65"/>
<mask id="mask0_1518_28246" style="mask-type:luminance" maskUnits="userSpaceOnUse" x="0" y="0" width="40" height="40">
<rect width="40" height="40" rx="20" fill="white"/>
</mask>
<g mask="url(#mask0_1518_28246)">
<path fill-rule="evenodd" clip-rule="evenodd" d="M20 8C19.3 8 18.8 8.5 18.8 9.2V30.8C18.8 31.5 19.3 32 20 32C26.6 32 32 26.6 32 20C32 13.4 26.6 8 20 8ZM29.5 18.8H26.35C26.25 15.95 25.6 13.5 24.65 11.6C27.3 13.1 29.1 15.7 29.5 18.8ZM21.2 21.2V29.1C22.55 27.9 23.75 24.95 23.95 21.2H21.2ZM21.2 18.8V10.9C22.55 12.05 23.75 15 23.95 18.8H21.2ZM26.35 21.2C26.2 24.05 25.6 26.5 24.65 28.4C27.3 26.9 29.1 24.3 29.5 21.2H26.35Z" fill="white"/>
<path d="M13.4 15.9499C13.7 16.1999 14.2 16.1499 14.5 15.8499L16.7 13.3499C17 13.0499 17 12.5499 16.65 12.2499L14.45 10.0499C14.15 9.74993 13.75 9.74993 13.45 9.94993C13.3 10.0499 13.15 10.1499 13 10.2499C10 12.3999 8 15.9499 8 19.9999C8 24.0499 10 27.5999 13 29.7499C13.15 29.8499 13.3 29.9499 13.45 30.0499C13.75 30.2499 14.15 30.1999 14.45 29.9499L16.65 27.7499C16.95 27.4499 16.95 26.9499 16.7 26.6499L14.5 24.1499C14.2 23.8499 13.75 23.7999 13.4 24.0499L12.55 24.6999C11.65 23.3499 11.2 21.7499 11.2 19.9999C11.2 18.2499 11.7 16.6999 12.55 15.2999L13.4 15.9499Z" fill="white"/>
</g>
</svg>
