<svg width="40" height="40" viewBox="0 0 40 40" fill="none" xmlns="http://www.w3.org/2000/svg">
<rect width="40" height="40" rx="20" fill="#FA975C"/>
<mask id="mask0_1518_28096" style="mask-type:luminance" maskUnits="userSpaceOnUse" x="0" y="0" width="40" height="40">
<rect width="40" height="40" rx="20" fill="white"/>
</mask>
<g mask="url(#mask0_1518_28096)">
<path d="M14.5 12.5H16.5C16.8 12.5 17 12.3 17 12V11H22V12C22 12.3 22.2 12.5 22.5 12.5H24.5C24.8 12.5 25 12.3 25 12V10.75C25 9.25 23.75 8 22.25 8H16.7C15.2 8 14 9.2 14 10.7V12C14 12.3 14.2 12.5 14.5 12.5Z" fill="white"/>
<path d="M23 24H24V23C24 21.9 24.9 21 26 21H29C29.65 21 30.2 21.3 30.55 21.75C30.7 21.95 31 21.8 31 21.6V16.5C31 15.4 30.1 14.5 29 14.5H10C8.9 14.5 8 15.4 8 16.5V28C8 29.1 8.9 30 10 30H20.9C21.1 30 21.2 29.85 21.15 29.65C21.05 29.45 21 29.25 21 29V26C21 24.9 21.9 24 23 24Z" fill="white"/>
<path d="M31.25 26H29V23.75C29 23.35 28.65 23 28.25 23H26.75C26.35 23 26 23.35 26 23.75V26H23.75C23.35 26 23 26.35 23 26.75V28.25C23 28.65 23.35 29 23.75 29H26V31.25C26 31.65 26.35 32 26.75 32H28.25C28.65 32 29 31.65 29 31.25V29H31.25C31.65 29 32 28.65 32 28.25V26.75C32 26.35 31.65 26 31.25 26Z" fill="white"/>
</g>
</svg>
