<svg width="40" height="40" viewBox="0 0 40 40" fill="none" xmlns="http://www.w3.org/2000/svg">
<rect width="40" height="40" rx="20" fill="#EF697F"/>
<mask id="mask0_1518_28192" style="mask-type:luminance" maskUnits="userSpaceOnUse" x="0" y="0" width="40" height="40">
<rect width="40" height="40" rx="20" fill="white"/>
</mask>
<g mask="url(#mask0_1518_28192)">
<path fill-rule="evenodd" clip-rule="evenodd" d="M31.2 9.6H27.2V8.8C27.2 8.35 26.85 8 26.4 8H13.6C13.15 8 12.8 8.35 12.8 8.8V9.6H8.8C8.35 9.6 8 9.95 8 10.4V15.6C8 17.6 9.6 19.2 11.6 19.2H13.45C14.55 21.75 17 23.55 19.95 23.6C23 23.65 25.55 21.8 26.65 19.2H28.4C30.4 19.2 32 17.6 32 15.6V10.4C32 9.95 31.65 9.6 31.2 9.6ZM11.6 16.8C10.9 16.8 10.4 16.3 10.4 15.6V12H12.8V16.25C12.8 16.45 12.8 16.6 12.85 16.8H11.6ZM28.4 16.8C29.1 16.8 29.6 16.3 29.6 15.6V12H27.2V16.3C27.2 16.375 27.1875 16.4625 27.175 16.55C27.1625 16.6375 27.15 16.725 27.15 16.8H28.4Z" fill="white"/>
<path d="M24 29.6H23.6C22.3 29.6 21.2 28.5 21.2 27.2V26.4C21.2 26.15 21.05 26 20.8 26H20H19.2C18.95 26 18.8 26.15 18.8 26.4V27.2C18.8 28.5 17.7 29.6 16.4 29.6H16C15.55 29.6 15.2 29.95 15.2 30.4V31.2C15.2 31.65 15.55 32 16 32H20H24C24.45 32 24.8 31.65 24.8 31.2V30.4C24.8 29.95 24.45 29.6 24 29.6Z" fill="white"/>
</g>
</svg>
