<svg width="40" height="40" viewBox="0 0 40 40" fill="none" xmlns="http://www.w3.org/2000/svg">
<rect width="40" height="40" rx="20" fill="#718DEB"/>
<mask id="mask0_1518_28208" style="mask-type:luminance" maskUnits="userSpaceOnUse" x="0" y="0" width="40" height="40">
<rect width="40" height="40" rx="20" fill="white"/>
</mask>
<g mask="url(#mask0_1518_28208)">
<path fill-rule="evenodd" clip-rule="evenodd" d="M20.89 13.5553C22.2443 13.6514 23.5613 13.7449 24.7511 12.555L25.4368 11.9183C25.5837 11.7714 25.8286 11.7714 25.9756 11.9183L28.1796 14.0734C28.3266 14.2204 28.3266 14.4652 28.1796 14.6122L27.5429 15.2489C26.3235 16.4444 26.423 17.7682 26.5253 19.1292C26.6325 20.5564 26.7428 22.0246 25.3388 23.4285L17.4041 31.3142C16.5225 32.1959 15.0531 32.1959 14.1715 31.3142L11.4286 28.5714L8.68576 25.8285C7.80413 24.9469 7.80413 23.4775 8.68576 22.5959L16.5715 14.7591C17.9817 13.3489 19.4568 13.4535 20.89 13.5553ZM20.098 25.3387L22.8409 22.5959C23.1837 22.302 23.1837 21.8122 22.8409 21.5183L20.6368 19.3142L18.4327 17.1101C18.1388 16.8163 17.649 16.8163 17.3551 17.1101L14.6123 19.853C14.3184 20.1469 14.3184 20.6367 14.6123 20.9306L16.8164 23.1346L19.0205 25.3387C19.3143 25.6326 19.8041 25.6326 20.098 25.3387Z" fill="white"/>
<path d="M31.2653 10.351L30.4326 9.51839L29.6 8.68574C29.3061 8.39186 28.8163 8.39186 28.5224 8.68574L27.4939 9.71431C27.3469 9.86125 27.3469 10.1061 27.4939 10.2531L29.649 12.4082C29.7959 12.5551 30.0408 12.5551 30.1877 12.4082L31.2163 11.4286C31.6082 11.1837 31.6082 10.6939 31.2653 10.351Z" fill="white"/>
</g>
</svg>
