<svg width="40" height="40" viewBox="0 0 40 40" fill="none" xmlns="http://www.w3.org/2000/svg">
<rect width="40" height="40" rx="20" fill="#E56798"/>
<mask id="mask0_1518_28144" style="mask-type:luminance" maskUnits="userSpaceOnUse" x="0" y="0" width="40" height="40">
<rect width="40" height="40" rx="20" fill="white"/>
</mask>
<g mask="url(#mask0_1518_28144)">
<path d="M27.15 8H12.85C11.55 8 10.5 9.1 10.5 10.35V10.4C10.5 10.85 10.85 11.2 11.3 11.2H28.7C29.15 11.2 29.5 10.85 29.5 10.4V10.35C29.5 9.1 28.45 8 27.15 8Z" fill="white"/>
<path fill-rule="evenodd" clip-rule="evenodd" d="M27.1 13.6001H12.9C12.45 13.6001 12.1 13.9501 12.1 14.4001V31.2001C12.1 31.6501 12.45 32.0001 12.9 32.0001H17.3C17.75 32.0001 18.05 31.6501 18.05 31.2001V28.0001C18.05 27.5501 18.45 27.2001 18.9 27.2001H21.2C21.65 27.2001 22.05 27.5501 22.05 28.0001V31.2001C22.05 31.6501 22.35 32.0001 22.8 32.0001H27.2C27.65 32.0001 28 31.6501 28 31.2001V14.4001C27.9 13.9501 27.55 13.6001 27.1 13.6001ZM18.8 24.4001C18.8 24.8501 18.45 25.2001 18 25.2001H16.4C15.95 25.2001 15.6 24.8501 15.6 24.4001V22.8001C15.6 22.3501 15.95 22.0001 16.4 22.0001H18C18.45 22.0001 18.8 22.3501 18.8 22.8001V24.4001ZM18 19.6001C18.45 19.6001 18.8 19.2501 18.8 18.8001V17.2001C18.8 16.7501 18.45 16.4001 18 16.4001H16.4C15.95 16.4001 15.6 16.7501 15.6 17.2001V18.8001C15.6 19.2501 15.95 19.6001 16.4 19.6001H18ZM24.35 24.4001C24.35 24.8501 24 25.2001 23.55 25.2001H22C21.55 25.2001 21.2 24.8501 21.2 24.4001V22.8001C21.2 22.3501 21.55 22.0001 22 22.0001H23.6C24.05 22.0001 24.4 22.3501 24.4 22.8001V24.4001H24.35ZM23.55 19.6001C24 19.6001 24.35 19.2501 24.35 18.8001H24.4V17.2001C24.4 16.7501 24.05 16.4001 23.6 16.4001H22C21.55 16.4001 21.2 16.7501 21.2 17.2001V18.8001C21.2 19.2501 21.55 19.6001 22 19.6001H23.55Z" fill="white"/>
</g>
</svg>
