<svg width="40" height="40" viewBox="0 0 40 40" fill="none" xmlns="http://www.w3.org/2000/svg">
<rect width="40" height="40" rx="20" fill="#53B6D7"/>
<mask id="mask0_1518_28172" style="mask-type:luminance" maskUnits="userSpaceOnUse" x="0" y="0" width="40" height="40">
<rect width="40" height="40" rx="20" fill="white"/>
</mask>
<g mask="url(#mask0_1518_28172)">
<path d="M20 18C18.25 18 16.8 19.45 16.8 21.2C16.8 22.95 18.25 24.4 20 24.4C21.75 24.4 23.2 22.95 23.2 21.2C23.2 19.45 21.75 18 20 18Z" fill="white"/>
<path fill-rule="evenodd" clip-rule="evenodd" d="M26.35 14H29.6C30.9 14 32 15.1 32 16.4V27.6C32 28.9 30.9 30 29.6 30H10.4C9.1 30 8 28.9 8 27.6V16.4C8 15.1 9.1 14 10.4 14H13.65C13.95 14 14.25 13.8 14.35 13.5L15.4 11.3C15.8 10.5 16.65 10 17.55 10H22.45C23.35 10 24.2 10.5 24.6 11.3L25.65 13.5C25.75 13.85 26.05 14 26.35 14ZM14.4 21.3C14.4 24.4 16.9 26.9 20 26.9C23.1 26.9 25.6 24.4 25.6 21.3C25.6 18.2 23.1 15.7 20 15.7C16.9 15.7 14.4 18.2 14.4 21.3Z" fill="white"/>
</g>
</svg>
