<svg width="40" height="40" viewBox="0 0 40 40" fill="none" xmlns="http://www.w3.org/2000/svg">
<rect width="40" height="40" rx="20" fill="#F57376"/>
<mask id="mask0_1518_28218" style="mask-type:luminance" maskUnits="userSpaceOnUse" x="0" y="0" width="40" height="40">
<rect width="40" height="40" rx="20" fill="white"/>
</mask>
<g mask="url(#mask0_1518_28218)">
<path d="M29.2 8H27.6C27.15 8 26.8 8.35 26.8 8.8V10.4C26.8 10.85 26.45 11.2 26 11.2H25.2C24.75 11.2 24.4 10.85 24.4 10.4V8.8C24.4 8.35 24.1 8 23.6 8H22C21.55 8 21.2 8.35 21.2 8.8V10.4C21.2 10.85 20.85 11.2 20.4 11.2H19.6C19.15 11.2 18.8 10.85 18.8 10.4V8.8C18.8 8.35 18.45 8 18 8H16.4C15.95 8 15.6 8.35 15.6 8.8V10.4C15.6 10.85 15.25 11.2 14.8 11.2H14C13.55 11.2 13.2 10.85 13.2 10.4V8.8C13.2 8.35 12.85 8 12.4 8H10.8C10.35 8 10 8.35 10 8.8V12.8C10 14.1 11.1 15.2 12.4 15.2H27.6C28.9 15.2 30 14.1 30 12.8V8.8C30 8.35 29.65 8 29.2 8Z" fill="white"/>
<path d="M27.4 18.2498C27.35 17.8498 27 17.5498 26.6 17.5498H20H13.4C13 17.5498 12.65 17.8498 12.6 18.2498L10.8 31.0498C10.7 31.5498 11.1 31.9498 11.6 31.9498H16.75C17.2 31.9498 17.6 31.5998 17.6 31.1498V27.2998C17.6 25.9998 18.6 24.7998 19.9 24.7998C21.25 24.7498 22.4 25.8498 22.4 27.1998V31.1998C22.4 31.6498 22.8 31.9998 23.25 31.9998H28.4C28.9 31.9998 29.3 31.5498 29.2 31.0998L27.4 18.2498Z" fill="white"/>
</g>
</svg>
