<svg width="40" height="40" viewBox="0 0 40 40" fill="none" xmlns="http://www.w3.org/2000/svg">
<rect width="40" height="40" rx="20" fill="#5AB0D2"/>
<mask id="mask0_1518_28150" style="mask-type:luminance" maskUnits="userSpaceOnUse" x="0" y="0" width="40" height="40">
<rect width="40" height="40" rx="20" fill="white"/>
</mask>
<g mask="url(#mask0_1518_28150)">
<path fill-rule="evenodd" clip-rule="evenodd" d="M29.75 24.8H10.25C9.85 24.8 9.5 24.5 9.5 24.05V12.2C9.5 11 10.5 10 11.75 10H28.25C29.5 10 30.5 11 30.5 12.2V24.05C30.5 24.45 30.15 24.8 29.75 24.8ZM12.5 12.2C12.1 12.2 11.75 12.55 11.75 12.95V21.85C11.75 22.25 12.1 22.6 12.5 22.6H27.5C27.9 22.6 28.25 22.25 28.25 21.85V12.95C28.25 12.55 27.9 12.2 27.5 12.2H12.5Z" fill="white"/>
<path d="M31.25 27.05H23C22.6 27.05 22.25 27.4 22.25 27.8C22.25 28.2 21.9 28.55 21.5 28.55H18.5C18.1 28.55 17.75 28.2 17.75 27.8C17.75 27.4 17.4 27.05 17 27.05H8.75C8.35 27.05 8 27.4 8 27.8C8 29 9 30 10.25 30H29.75C31 30 32 29 32 27.8C32 27.35 31.65 27.05 31.25 27.05Z" fill="white"/>
</g>
</svg>
