<svg width="40" height="40" viewBox="0 0 40 40" fill="none" xmlns="http://www.w3.org/2000/svg">
<rect width="40" height="40" rx="20" fill="#7F8DE1"/>
<mask id="mask0_1518_28308" style="mask-type:luminance" maskUnits="userSpaceOnUse" x="0" y="0" width="40" height="40">
<rect width="40" height="40" rx="20" fill="white"/>
</mask>
<g mask="url(#mask0_1518_28308)">
<path d="M27.85 23.5998C26.4 22.9998 26.15 22.4498 26.15 21.8498C26.15 21.2498 26.55 20.6998 27.05 20.2498C27.9 19.4998 28.35 18.3998 28.35 17.1498C28.35 14.8498 26.85 12.7998 24.25 12.7998C21.65 12.7998 20.15 14.7998 20.15 17.1498C20.15 18.4498 20.65 19.4498 21.45 20.2498C21.95 20.6998 22.35 21.2498 22.35 21.8498C22.35 22.4498 22.1 22.9998 20.65 23.5998C18.5 24.4998 16.5 25.5998 16.45 27.4998C16.45 28.7498 17.4 29.9998 18.6 29.9998H24.2H29.8C31.05 29.9998 31.95 28.7498 31.95 27.4998C32.05 25.6498 30 24.4998 27.85 23.5998Z" fill="white"/>
<path fill-rule="evenodd" clip-rule="evenodd" d="M18.6896 20.5362L18.7 20.55C18.85 20.75 19.4 21.6 18.65 22C18.65 22 13.55 23.8 13.4 28.25H8V10.8C8 10.35 8.4 10 8.75 10H18.25C18.55 10 19 10.3 19 10.75V13.35C19 13.35 17.85 14 17.8 16.65C17.7511 19.2929 18.5165 20.3069 18.6896 20.5362ZM11.5 26.85C11.95 26.85 12.3 26.5 12.3 26.05V25.25C12.3 24.8 11.95 24.45 11.5 24.45H10.7C10.25 24.45 9.9 24.8 9.9 25.25V26.05C9.9 26.5 10.25 26.85 10.7 26.85H11.5ZM12.3 22.1C12.3 22.55 11.95 22.9 11.5 22.9H10.7C10.25 22.9 9.9 22.55 9.9 22.1V21.3C9.9 20.85 10.25 20.5 10.7 20.5H11.5C11.95 20.5 12.3 20.85 12.3 21.3V22.1ZM11.5 18.9C11.95 18.9 12.3 18.55 12.3 18.1V17.3C12.3 16.85 11.95 16.5 11.5 16.5H10.7C10.25 16.5 9.9 16.85 9.9 17.3V18.1C9.9 18.55 10.25 18.9 10.7 18.9H11.5ZM12.3 14.15C12.3 14.6 11.95 14.95 11.5 14.95H10.7C10.25 14.95 9.9 14.6 9.9 14.15V13.35C9.9 12.9 10.25 12.55 10.7 12.55H11.5C11.95 12.55 12.3 12.9 12.3 13.35V14.15ZM16 22.9C16.45 22.9 16.8 22.55 16.8 22.1V21.3C16.8 20.85 16.45 20.5 16 20.5H15.2C14.75 20.5 14.4 20.85 14.4 21.3V22.1C14.4 22.55 14.75 22.9 15.2 22.9H16ZM16.8 18.1C16.8 18.55 16.45 18.9 16 18.9H15.2C14.75 18.9 14.4 18.55 14.4 18.1V17.3C14.4 16.85 14.75 16.5 15.2 16.5H16C16.45 16.5 16.8 16.85 16.8 17.3V18.1ZM16 14.95C16.45 14.95 16.8 14.6 16.8 14.15V13.35C16.8 12.9 16.45 12.55 16 12.55H15.2C14.75 12.55 14.4 12.9 14.4 13.35V14.15C14.4 14.6 14.75 14.95 15.2 14.95H16Z" fill="white"/>
</g>
</svg>
