<svg width="40" height="40" viewBox="0 0 40 40" fill="none" xmlns="http://www.w3.org/2000/svg">
<rect width="40" height="40" rx="20" fill="#FCB95B"/>
<mask id="mask0_1518_28306" style="mask-type:luminance" maskUnits="userSpaceOnUse" x="0" y="0" width="40" height="40">
<rect width="40" height="40" rx="20" fill="white"/>
</mask>
<g mask="url(#mask0_1518_28306)">
<path d="M27.9 27.5H12.1C11.7 27.5 11.4 27.85 11.4 28.2V28.25C11.4 29.5 12.4 30.5 13.65 30.5H26.4C27.65 30.5 28.65 29.5 28.65 28.25V28.2C28.6 27.85 28.3 27.5 27.9 27.5Z" fill="white"/>
<path d="M29.75 12.1C28.5 12.1 27.5 13.1 27.5 14.35C27.5 15.05 27.8 15.65 28.3 16.05C27.65 17.5 26.2 18.5 24.5 18.45C22.5 18.35 20.9 16.75 20.8 14.75C20.8 14.4 20.8 14.1 20.85 13.8C21.7 13.45 22.3 12.7 22.3 11.7C22.25 10.5 21.25 9.5 20 9.5C18.75 9.5 17.75 10.5 17.75 11.75C17.75 12.7 18.35 13.5 19.15 13.85C19.25 14.15 19.25 14.45 19.25 14.8C19.15 16.8 17.55 18.4 15.55 18.5C13.85 18.6 12.35 17.55 11.7 16.1C12.2 15.7 12.5 15.05 12.5 14.4C12.5 13.15 11.5 12.15 10.25 12.15C9 12.15 8 13.15 8 14.4C8 15.65 9 16.65 10.25 16.65L11.3 24.65C11.35 25 11.65 25.25 12 25.25H28C28.35 25.25 28.65 25 28.7 24.65L29.75 16.65C31 16.65 32 15.65 32 14.4C32 13.15 31 12.1 29.75 12.1Z" fill="white"/>
</g>
</svg>
