<svg width="40" height="40" viewBox="0 0 40 40" fill="none" xmlns="http://www.w3.org/2000/svg">
<rect width="40" height="40" rx="20" fill="#F6707B"/>
<mask id="mask0_1518_28264" style="mask-type:luminance" maskUnits="userSpaceOnUse" x="0" y="0" width="40" height="40">
<rect width="40" height="40" rx="20" fill="white"/>
</mask>
<g mask="url(#mask0_1518_28264)">
<path d="M29.6 25.7305H10.4C9.76326 25.7305 9.22449 26.2203 9.22449 26.906C9.22449 27.5917 9.71428 28.0815 10.4 28.0815H11.9184L12.5551 31.4121C12.6531 31.755 12.9469 31.9999 13.2898 31.9999H25.9265C26.2694 31.9999 26.5633 31.755 26.6612 31.4121L27.298 28.0815H29.6C30.2367 28.0815 30.7755 27.5917 30.7755 26.906C30.7755 26.2203 30.2857 25.7305 29.6 25.7305Z" fill="white"/>
<path d="M13.4367 23.3797H18.8245V21.1756C18.3837 20.8817 18.0408 20.3919 18.0408 19.8532C18.0408 18.9715 18.7265 18.2858 19.5592 18.2858C20.3919 18.2858 21.0776 18.9715 21.0776 19.8532C21.0776 20.4409 20.7837 20.9307 20.2939 21.1756V23.3797H25.6816C26.1225 23.3797 26.4653 23.0368 26.4653 22.596V21.4205C26.4653 19.0205 24.2123 18.1879 22.449 17.4532C21.2735 16.9634 21.0776 16.4736 21.0776 15.9838C21.0776 15.494 21.4204 15.0042 21.8123 14.6613C22.498 14.0246 22.9388 13.143 22.9388 12.0654C22.9388 10.1552 21.7143 8.44092 19.5592 8.44092C17.4041 8.44092 16.1796 10.1062 16.1796 12.0654C16.1796 13.143 16.5714 13.9756 17.3061 14.6613C17.698 15.0042 18.0408 15.494 18.0408 15.9838C18.0408 16.4736 17.8449 16.9144 16.6694 17.4532C14.9061 18.1879 12.6531 19.1185 12.6531 21.4205V22.596C12.7021 23.0368 13.0449 23.3797 13.4367 23.3797Z" fill="white"/>
</g>
</svg>
