<svg width="40" height="40" viewBox="0 0 40 40" fill="none" xmlns="http://www.w3.org/2000/svg">
<rect width="40" height="40" rx="20" fill="#E260AB"/>
<mask id="mask0_1518_28268" style="mask-type:luminance" maskUnits="userSpaceOnUse" x="0" y="0" width="40" height="40">
<rect width="40" height="40" rx="20" fill="white"/>
</mask>
<g mask="url(#mask0_1518_28268)">
<path d="M15.2 12H16.8C17.05 12 17.2 11.85 17.2 11.6V10.4H22.8V11.6C22.8 11.85 22.95 12 23.2 12H24.8C25.05 12 25.2 11.85 25.2 11.6V10.4C25.2 9.1 24.1 8 22.8 8H17.2C15.9 8 14.8 9.1 14.8 10.4V11.6C14.8 11.85 14.95 12 15.2 12Z" fill="white"/>
<path fill-rule="evenodd" clip-rule="evenodd" d="M10.4 14.3999H29.6C30.9 14.3999 32 15.4999 32 16.7999V29.5999C32 30.8999 30.9 31.9999 29.6 31.9999H10.4C9.1 31.9999 8 30.8999 8 29.5999V16.7999C8 15.4999 9.1 14.3999 10.4 14.3999ZM14.4 23.1999C14.4 26.2999 16.9 28.7999 20 28.7999C23.1 28.7999 25.6 26.2999 25.6 23.1999C25.6 20.0999 23.1 17.5999 20 17.5999C16.9 17.5999 14.4 20.0999 14.4 23.1999Z" fill="white"/>
<path d="M22.4 22H21.2V20.8C21.2 20.35 20.85 20 20.4 20H19.6C19.15 20 18.8 20.35 18.8 20.8V22H17.6C17.15 22 16.8 22.35 16.8 22.8V23.6C16.8 24.05 17.15 24.4 17.6 24.4H18.8V25.6C18.8 26.05 19.15 26.4 19.6 26.4H20.4C20.85 26.4 21.2 26.05 21.2 25.6V24.4H22.4C22.85 24.4 23.2 24.05 23.2 23.6V22.8C23.2 22.35 22.85 22 22.4 22Z" fill="white"/>
</g>
</svg>
