<svg width="40" height="40" viewBox="0 0 40 40" fill="none" xmlns="http://www.w3.org/2000/svg">
<rect width="40" height="40" rx="20" fill="#8784EA"/>
<mask id="mask0_1518_28118" style="mask-type:luminance" maskUnits="userSpaceOnUse" x="0" y="0" width="40" height="40">
<rect width="40" height="40" rx="20" fill="white"/>
</mask>
<g mask="url(#mask0_1518_28118)">
<path d="M20.624 9.00802L23.696 15.488L30.512 16.544C31.28 16.64 31.568 17.648 30.992 18.176L26.048 23.264L27.2 30.368C27.296 31.184 26.528 31.808 25.856 31.424L19.76 28.064L13.664 31.424C12.992 31.808 12.176 31.184 12.32 30.368L13.472 23.264L8.52796 18.176C7.99996 17.6 8.28796 16.64 9.00796 16.544L15.824 15.488L18.896 9.00802C19.28 8.28802 20.288 8.28802 20.624 9.00802Z" fill="white"/>
</g>
</svg>
