<svg width="40" height="40" viewBox="0 0 40 40" fill="none" xmlns="http://www.w3.org/2000/svg">
<rect width="40" height="40" rx="20" fill="#E3D067"/>
<mask id="mask0_1518_28214" style="mask-type:luminance" maskUnits="userSpaceOnUse" x="0" y="0" width="40" height="40">
<rect width="40" height="40" rx="20" fill="white"/>
</mask>
<g mask="url(#mask0_1518_28214)">
<path d="M26.85 12.4C27.25 12.4 27.5 12.1 27.5 11.7C27.5 11.4 27.35 11.15 27.05 11C26.55 10.7 25.75 9.35 25.45 8.5C25.35 8.2 25.05 8 24.75 8H20.35H19.55H15.15C14.85 8 14.5 8.2 14.45 8.5C14.2 9.3 13.4 10.7 12.9 11C12.65 11.15 12.5 11.4 12.5 11.7C12.5 12.1 12.8 12.4 13.15 12.4H26.85Z" fill="white"/>
<path d="M12.5 29.5498C12.5 30.8998 13.55 31.9998 14.85 31.9998H25.1C26.4 31.9998 27.45 30.8998 27.45 29.5998V29.5498C27.45 29.0998 27.1 28.7998 26.7 28.7998H13.2C12.85 28.7998 12.5 29.1498 12.5 29.5498Z" fill="white"/>
<path d="M27.5 25.5998V15.5998C27.5 15.1498 27.15 14.7998 26.7 14.7998H13.3C12.85 14.7998 12.5 15.1498 12.5 15.5998V25.5998C12.5 26.0498 12.85 26.3998 13.3 26.3998H26.7C27.15 26.3998 27.5 26.0498 27.5 25.5998Z" fill="white"/>
</g>
</svg>
