<svg width="40" height="40" viewBox="0 0 40 40" fill="none" xmlns="http://www.w3.org/2000/svg">
<rect width="40" height="40" rx="20" fill="#8ED363"/>
<mask id="mask0_1518_28254" style="mask-type:luminance" maskUnits="userSpaceOnUse" x="0" y="0" width="40" height="40">
<rect width="40" height="40" rx="20" fill="white"/>
</mask>
<g mask="url(#mask0_1518_28254)">
<path d="M16.2286 16.9634C14.8082 16.9634 13.6816 18.0899 13.6816 19.5103C13.6816 20.9307 14.8082 22.0573 16.2286 22.0573C17.649 22.0573 18.7755 20.9307 18.7755 19.5103C18.7755 18.0899 17.649 16.9634 16.2286 16.9634Z" fill="white"/>
<path fill-rule="evenodd" clip-rule="evenodd" d="M23.9183 24.9471H30.9224C31.5102 24.9471 32 25.4368 32 26.0246V27.8368C32 28.2287 31.6571 28.5715 31.2653 28.5715H30.5306C30.1387 28.5715 29.7959 28.2287 29.7959 27.8368V27.1022H21.7143H20.2449H16.3755C12.1143 27.1022 8.58772 23.8205 8.48976 19.6083C8.44078 15.3471 11.9673 11.8695 16.3265 11.9185C20.1469 12.0164 23.2326 14.8083 23.8204 18.4328H24.653C25.0449 18.4328 25.3877 18.7756 25.3877 19.1675V21.3226C25.3877 21.7144 25.0449 22.0573 24.653 22.0573H23.9183V24.9471ZM11.4775 19.5103C11.4775 22.1062 13.5836 24.2124 16.2285 24.2124C18.8734 24.2124 20.9796 22.1062 20.9796 19.5103C20.9796 16.9144 18.8734 14.8083 16.2285 14.8083C13.5836 14.8083 11.4775 16.9144 11.4775 19.5103Z" fill="white"/>
</g>
</svg>
