<svg width="40" height="40" viewBox="0 0 40 40" fill="none" xmlns="http://www.w3.org/2000/svg">
<rect width="40" height="40" rx="20" fill="#BDD25F"/>
<mask id="mask0_1518_28154" style="mask-type:luminance" maskUnits="userSpaceOnUse" x="0" y="0" width="40" height="40">
<rect width="40" height="40" rx="20" fill="white"/>
</mask>
<g mask="url(#mask0_1518_28154)">
<path d="M29.65 11.2H28.9C28.4 11.2 28.05 11.6 28.05 12.1V28C28.05 28.0499 28.05 28.1 28.1 28.15L29.1 29.55C29.2 29.65 29.3 29.65 29.4 29.55L30.4 28.15C30.5 28.1 30.5 28.1 30.5 28V12.1C30.5 11.6 30.15 11.2 29.65 11.2Z" fill="white"/>
<path fill-rule="evenodd" clip-rule="evenodd" d="M23.25 8H11.9C10.6 8 9.5 9.1 9.5 10.4V29.6C9.5 30.9 10.6 32 11.9 32H23.2C24.55 32 25.6 30.9 25.6 29.6V10.4C25.65 9.1 24.55 8 23.25 8ZM17.6 31.2C16.9 31.2 16.4 30.7 16.4 30C16.4 29.3 16.9 28.8 17.6 28.8C18.3 28.8 18.8 29.3 18.8 30C18.8 30.7 18.25 31.2 17.6 31.2ZM22.45 28C22.9 28 23.25 27.65 23.25 27.2V12C23.25 11.55 22.9 11.2 22.45 11.2H12.75C12.3 11.2 11.95 11.55 11.95 12V27.2C11.95 27.65 12.3 28 12.75 28H22.45Z" fill="white"/>
</g>
</svg>
