<svg width="40" height="40" viewBox="0 0 40 40" fill="none" xmlns="http://www.w3.org/2000/svg">
<rect width="40" height="40" rx="20" fill="#C8CA58"/>
<mask id="mask0_1518_28184" style="mask-type:luminance" maskUnits="userSpaceOnUse" x="0" y="0" width="40" height="40">
<rect width="40" height="40" rx="20" fill="white"/>
</mask>
<g mask="url(#mask0_1518_28184)">
<path d="M27.35 11.55C25.3 8.9 23.6 8 20 8C18.4 8 16.45 8.65 15.65 8.8C15.65 8.35 15.3 8 14.85 8H13.65H13.25C12.8 8 12.45 8.35 12.45 8.8V12C12.45 12.45 12.8 12.8 13.25 12.8H14.8C15.25 12.8 15.6 12.45 15.6 12H16.5C17.15 12 17.65 12.5 17.65 13.15V13.2C17.65 13.9 18.15 14.4 18.85 14.4V20.8C18 20.8 17.3 21.5 17.3 22.4V29.6C17.3 30.9 18.35 32 19.65 32H20.45C21.75 32 22.8 30.9 22.8 29.6V22.4C22.8 21.5 22.1 20.8 21.25 20.8V14.4C21.9 14.4 22.45 13.5 22.45 12.85V12.8C22.45 12.2 22.9 11.7 23.5 11.7C25.05 11.6 25.95 12.25 26.35 12.6C26.6 12.8 27 12.85 27.2 12.65C27.55 12.4 27.65 11.9 27.35 11.55Z" fill="white"/>
</g>
</svg>
