<svg width="40" height="40" viewBox="0 0 40 40" fill="none" xmlns="http://www.w3.org/2000/svg">
<rect width="40" height="40" rx="20" fill="#EB7092"/>
<mask id="mask0_1518_28298" style="mask-type:luminance" maskUnits="userSpaceOnUse" x="0" y="0" width="40" height="40">
<rect width="40" height="40" rx="20" fill="white"/>
</mask>
<g mask="url(#mask0_1518_28298)">
<path fill-rule="evenodd" clip-rule="evenodd" d="M30.25 17H9.75C9.35 17 9 17.35 9 17.75V30C9 31.1 9.9 32 11 32H29C30.1 32 31 31.1 31 30V17.75C31 17.35 30.65 17 30.25 17ZM16.5 28C16.5 28.3 16.3 28.5 16 28.5H14C13.7 28.5 13.5 28.3 13.5 28V26C13.5 25.7 13.7 25.5 14 25.5H16C16.3 25.5 16.5 25.7 16.5 26V28ZM16 23.5C16.3 23.5 16.5 23.3 16.5 23V21C16.5 20.7 16.3 20.5 16 20.5H14C13.7 20.5 13.5 20.7 13.5 21V23C13.5 23.3 13.7 23.5 14 23.5H16ZM21.5 28C21.5 28.3 21.3 28.5 21 28.5H19C18.7 28.5 18.5 28.3 18.5 28V26C18.5 25.7 18.7 25.5 19 25.5H21C21.3 25.5 21.5 25.7 21.5 26V28ZM21 23.5C21.3 23.5 21.5 23.3 21.5 23V21C21.5 20.7 21.3 20.5 21 20.5H19C18.7 20.5 18.5 20.7 18.5 21V23C18.5 23.3 18.7 23.5 19 23.5H21ZM26.5 28C26.5 28.3 26.3 28.5 26 28.5H24C23.7 28.5 23.5 28.3 23.5 28V26C23.5 25.7 23.7 25.5 24 25.5H26C26.3 25.5 26.5 25.7 26.5 26V28ZM26 23.5C26.3 23.5 26.5 23.3 26.5 23V21C26.5 20.7 26.3 20.5 26 20.5H24C23.7 20.5 23.5 20.7 23.5 21V23C23.5 23.3 23.7 23.5 24 23.5H26Z" fill="white"/>
<path d="M29 10.5H27H26.5V9.5C26.5 8.7 25.85 8 25 8C24.2 8 23.5 8.65 23.5 9.5V10.5H16.5V9.5C16.5 8.7 15.85 8 15 8C14.2 8 13.5 8.65 13.5 9.5V10.5H13H11C9.9 10.5 9 11.4 9 12.5V13.75C9 14.15 9.35 14.5 9.75 14.5H30.25C30.65 14.5 31 14.15 31 13.75V12.5C31 11.4 30.1 10.5 29 10.5Z" fill="white"/>
</g>
</svg>
