<svg width="40" height="40" viewBox="0 0 40 40" fill="none" xmlns="http://www.w3.org/2000/svg">
<rect width="40" height="40" rx="20" fill="#679EF0"/>
<mask id="mask0_1518_28242" style="mask-type:luminance" maskUnits="userSpaceOnUse" x="0" y="0" width="40" height="40">
<rect width="40" height="40" rx="20" fill="white"/>
</mask>
<g mask="url(#mask0_1518_28242)">
<path d="M9.82395 14.2401H30.1759C30.6559 14.2401 31.0399 13.7601 30.8959 13.2801C30.4159 11.6961 29.7439 10.2561 28.8319 8.96005C28.5439 8.57605 28.0159 8.52805 27.7279 8.86405C26.8159 9.72805 25.5199 10.2081 24.1759 10.2081C22.7359 10.2081 21.4399 9.63205 20.4799 8.67205C20.1919 8.38405 19.7119 8.38405 19.4239 8.67205C18.4639 9.63205 17.1679 10.2081 15.7279 10.2081C14.3839 10.2081 13.1359 9.72805 12.1759 8.86405C11.8879 8.57605 11.4079 8.62405 11.1199 9.00805C10.2079 10.2561 9.48795 11.7441 9.05595 13.3281C8.95995 13.7601 9.34395 14.2401 9.82395 14.2401Z" fill="white"/>
<path d="M31.52 17.3119C31.52 16.8799 31.184 16.5439 30.752 16.5439H9.24798C8.81598 16.5439 8.47998 16.8799 8.47998 17.3119C8.47998 17.3599 8.47998 17.4079 8.47998 17.4559C8.47998 24.6559 13.472 30.6079 20 31.5199C26.528 30.6079 31.52 24.6559 31.52 17.5039C31.52 17.4079 31.52 17.3599 31.52 17.3119Z" fill="white"/>
</g>
</svg>
