<svg width="40" height="40" viewBox="0 0 40 40" fill="none" xmlns="http://www.w3.org/2000/svg">
<rect width="40" height="40" rx="20" fill="#4BC076"/>
<mask id="mask0_1518_28372" style="mask-type:luminance" maskUnits="userSpaceOnUse" x="0" y="0" width="40" height="40">
<rect width="40" height="40" rx="20" fill="white"/>
</mask>
<g mask="url(#mask0_1518_28372)">
<path d="M19.2652 10.9392L18.4326 10.1065C18.1877 9.86163 17.8448 9.86163 17.5999 10.1065L12.4081 15.2494L10.302 13.1922C10.0571 12.9473 9.71423 12.9473 9.46933 13.1922L8.63668 14.0249C8.39178 14.2698 8.39178 14.6126 8.63668 14.8575L11.5265 17.7473C11.7714 17.9922 12.0652 18.0902 12.3591 18.0902C12.653 18.0902 12.9469 17.9922 13.1918 17.7473L19.2652 11.7718C19.4612 11.5759 19.4612 11.1841 19.2652 10.9392Z" fill="white"/>
<path d="M31.2162 16.5224H20.9795C20.5387 16.5224 20.1958 16.1795 20.1958 15.7387V14.1714C20.1958 13.7306 20.5387 13.3877 20.9795 13.3877H31.2162C31.657 13.3877 31.9999 13.7306 31.9999 14.1714V15.7387C31.9999 16.1795 31.657 16.5224 31.2162 16.5224Z" fill="white"/>
<path d="M31.2163 23.5273H18.6285C18.1877 23.5273 17.8448 23.1844 17.8448 22.7436V21.1763C17.8448 20.7354 18.1877 20.3926 18.6285 20.3926H31.2163C31.6571 20.3926 32 20.7354 32 21.1763V22.7436C32 23.1844 31.6571 23.5273 31.2163 23.5273Z" fill="white"/>
<path d="M13.8775 23.5273H12.3102C11.8693 23.5273 11.5265 23.1844 11.5265 22.7436V21.1763C11.5265 20.7354 11.8693 20.3926 12.3102 20.3926H13.8775C14.3183 20.3926 14.6612 20.7354 14.6612 21.1763V22.7436C14.7102 23.1844 14.3183 23.5273 13.8775 23.5273Z" fill="white"/>
<path d="M13.8775 30.5312H12.3102C11.8693 30.5312 11.5265 30.1883 11.5265 29.7475V28.1802C11.5265 27.7393 11.8693 27.3965 12.3102 27.3965H13.8775C14.3183 27.3965 14.6612 27.7393 14.6612 28.1802V29.7475C14.7102 30.1883 14.3183 30.5312 13.8775 30.5312Z" fill="white"/>
<path d="M31.2163 30.5312H18.6285C18.1877 30.5312 17.8448 30.1883 17.8448 29.7475V28.1802C17.8448 27.7393 18.1877 27.3965 18.6285 27.3965H31.2163C31.6571 27.3965 32 27.7393 32 28.1802V29.7475C32 30.1883 31.6571 30.5312 31.2163 30.5312Z" fill="white"/>
</g>
</svg>
