<svg width="40" height="40" viewBox="0 0 40 40" fill="none" xmlns="http://www.w3.org/2000/svg">
<rect width="40" height="40" rx="20" fill="#439CBA"/>
<mask id="mask0_1518_28284" style="mask-type:luminance" maskUnits="userSpaceOnUse" x="0" y="0" width="40" height="40">
<rect width="40" height="40" rx="20" fill="white"/>
</mask>
<g mask="url(#mask0_1518_28284)">
<path d="M22.4 15.2V9.2C22.4 8.5 21.9 8 21.2 8H19.6C18.9 8 18.4 8.5 18.4 9.2C18.4 9.9 18.9 10.4 19.6 10.4H20V15.2C20 17.85 17.85 20 15.2 20C12.55 20 10.4 17.85 10.4 15.2V10.4H10.8C11.5 10.4 12 9.9 12 9.2C12 8.5 11.5 8 10.8 8H9.2C8.5 8 8 8.5 8 9.2V15.2C8 19.15 11.25 22.4 15.2 22.4C19.15 22.4 22.4 19.15 22.4 15.2Z" fill="white"/>
<path fill-rule="evenodd" clip-rule="evenodd" d="M28.4 16.3999C30.4 16.3999 32 17.9999 32 19.9999C32 21.5499 31 22.8999 29.55 23.3999V24.2999C29.55 28.4999 26.1 31.9999 21.8 31.9999H21.7C18 31.9999 14.85 29.2999 14.2 25.7499C14.1 25.2999 14.5 24.7999 15 24.7999H15.8C16.2 24.7999 16.5 25.0999 16.6 25.4499C17.15 27.7999 19.3 29.5999 21.8 29.5999H21.9C24.8 29.5999 27.2 27.1999 27.2 24.2999V23.3999C25.8 22.8999 24.8 21.5499 24.8 19.9999C24.8 17.9999 26.4 16.3999 28.4 16.3999ZM27.2 19.9999C27.2 20.6999 27.7 21.1999 28.4 21.1999C29.1 21.1999 29.6 20.6999 29.6 19.9999C29.6 19.2999 29.1 18.7999 28.4 18.7999C27.7 18.7999 27.2 19.2999 27.2 19.9999Z" fill="white"/>
</g>
</svg>
