<svg width="40" height="40" viewBox="0 0 40 40" fill="none" xmlns="http://www.w3.org/2000/svg">
<rect width="40" height="40" rx="20" fill="#517E82"/>
<mask id="mask0_1518_28280" style="mask-type:luminance" maskUnits="userSpaceOnUse" x="0" y="0" width="40" height="40">
<rect width="40" height="40" rx="20" fill="white"/>
</mask>
<g mask="url(#mask0_1518_28280)">
<path fill-rule="evenodd" clip-rule="evenodd" d="M29.5 22.5502L20.4 18.4002C20.15 18.3002 19.9 18.3002 19.7 18.4002L10.5 22.5502C10 22.8002 9.8 23.4002 10.15 23.8502C11.1 25.2002 11.7 26.9502 11.95 27.7502C12.05 28.0502 12.3 28.2502 12.6 28.3502C15.75 29.1002 18.35 30.9002 19.45 31.7502C19.75 32.0002 20.2 32.0002 20.55 31.7502C21.65 30.9002 24.25 29.1002 27.4 28.3502C27.7 28.2502 27.95 28.0502 28.05 27.7502C28.3 26.9002 28.9 25.1502 29.85 23.8502C30.15 23.4502 30 22.8002 29.5 22.5502ZM17.6 24.8002C16.9 24.8002 16.4 24.1002 16.4 23.2002C16.4 22.3002 16.9 21.6002 17.6 21.6002C18.3 21.6002 18.8 22.3002 18.8 23.2002C18.8 24.1002 18.3 24.8002 17.6 24.8002ZM21.2 23.2002C21.2 24.1002 21.7 24.8002 22.4 24.8002C23.1 24.8002 23.6 24.1002 23.6 23.2002C23.6 22.3002 23.1 21.6002 22.4 21.6002C21.7 21.6002 21.2 22.3002 21.2 23.2002Z" fill="white"/>
<path d="M13.75 18.45L18.65 16.2C19.25 15.9 19.9 15.85 20.55 15.95C20.85 16 21.1 16.1 21.4 16.25L26.25 18.5C26.55 18.6 26.8 18.4 26.8 18.15V16.35C26.8 16.15 26.7 15.95 26.55 15.8C26.25 15.45 25.6 14.85 24.4 14.85V12.5C24.4 12.2 24.25 11.95 24 11.8C23.55 11.55 22.8 11.2 21.6 11V8.8C21.6 8.35 21.25 8 20.8 8H19.2C18.75 8 18.4 8.35 18.4 8.8V10.95C17.2 11.15 16.45 11.5 16 11.75C15.75 11.85 15.6 12.15 15.6 12.45V14.8C14.4 14.8 13.75 15.4 13.45 15.7C13.3 15.85 13.2 16.05 13.2 16.25V18.05C13.2 18.35 13.5 18.55 13.75 18.45Z" fill="white"/>
</g>
</svg>
