<svg width="40" height="40" viewBox="0 0 40 40" fill="none" xmlns="http://www.w3.org/2000/svg">
<rect width="40" height="40" rx="20" fill="#EB687F"/>
<mask id="mask0_1518_28158" style="mask-type:luminance" maskUnits="userSpaceOnUse" x="0" y="0" width="40" height="40">
<rect width="40" height="40" rx="20" fill="white"/>
</mask>
<g mask="url(#mask0_1518_28158)">
<path fill-rule="evenodd" clip-rule="evenodd" d="M28.25 11.35L30.2 17.35C31.25 17.65 32 18.5 32 19.65V24.3C32 25.35 31.3 26.2 30.4 26.5V29.7C30.4 30.15 30.05 30.5 29.6 30.5H26.4C25.95 30.5 25.6 30.15 25.6 29.7V26.6H20.8H14.4V29.7C14.4 30.15 14.05 30.5 13.6 30.5H10.4C9.95 30.5 9.6 30.15 9.6 29.7V26.45C8.7 26.1 8 25.25 8 24.25V19.6C8 18.5 8.75 17.65 9.8 17.35L11.7 11.35C12.1 10.25 13.2 9.5 14.4 9.5H20.8H25.6C26.8 9.5 27.9 10.25 28.25 11.35ZM10 21.95C10 23.05 10.9 23.9 12 23.9C13.1 23.9 14 23.05 14 21.95C14 20.85 13.1 20 12 20C10.9 20 10 20.85 10 21.95ZM20.8 17.3H12.9C12.6 17.3 12.4 17.05 12.5 16.8L14 12.15C14.05 12 14.2 11.9 14.35 11.9H20.75H25.55C25.7 11.9 25.85 12 25.9 12.15L27.4 16.85C27.5 17.1 27.3 17.35 27 17.35H20.8V17.3ZM25.6 21.95C25.6 23.05 26.5 23.9 27.6 23.9C28.7 23.9 29.6 23.05 29.6 21.95C29.6 20.85 28.7 20 27.6 20C26.5 20 25.6 20.85 25.6 21.95Z" fill="white"/>
</g>
</svg>
