<svg width="40" height="40" viewBox="0 0 40 40" fill="none" xmlns="http://www.w3.org/2000/svg">
<rect width="40" height="40" rx="20" fill="#6B9EE2"/>
<mask id="mask0_1518_28114" style="mask-type:luminance" maskUnits="userSpaceOnUse" x="0" y="0" width="40" height="40">
<rect width="40" height="40" rx="20" fill="white"/>
</mask>
<g mask="url(#mask0_1518_28114)">
<path fill-rule="evenodd" clip-rule="evenodd" d="M31.2653 15.7388C30.1388 11.0857 25.2408 8.24487 19.8531 8.24487C13.2898 8.24487 8 13.4857 8 20C8 26.5143 13.2898 31.7551 19.8531 31.7551C28.9633 31.7551 28.2286 27.151 25.3388 25.3388C23.6245 24.2612 22.6939 21.7632 24.4082 20C25.7964 18.569 27.5571 18.7585 28.9798 18.9116C30.8197 19.1096 32.094 19.2468 31.2653 15.7388ZM13.3878 23.9183C12.0163 23.9183 10.9388 22.8408 10.9388 21.4694C10.9388 20.0979 12.0163 19.0204 13.3878 19.0204C14.7592 19.0204 15.8367 20.0979 15.8367 21.4694C15.8367 22.8408 14.7592 23.9183 13.3878 23.9183ZM16.3265 12.1632C14.9551 12.1632 13.8776 13.2408 13.8776 14.6122C13.8776 15.9836 14.9551 17.0612 16.3265 17.0612C17.698 17.0612 18.7755 15.9836 18.7755 14.6122C18.7755 13.2408 17.698 12.1632 16.3265 12.1632ZM19.2653 28.8163C17.8939 28.8163 16.8163 27.7388 16.8163 26.3673C16.8163 24.9959 17.8939 23.9183 19.2653 23.9183C20.6367 23.9183 21.7143 24.9959 21.7143 26.3673C21.7143 27.7388 20.6367 28.8163 19.2653 28.8163ZM21.2245 13.6326C21.2245 15.0041 22.302 16.0816 23.6735 16.0816C25.0449 16.0816 26.1224 15.0041 26.1224 13.6326C26.1224 12.2612 25.0449 11.1836 23.6735 11.1836C22.302 11.1836 21.2245 12.2612 21.2245 13.6326Z" fill="white"/>
</g>
</svg>
