<svg width="26" height="26" viewBox="0 0 26 26" fill="none" xmlns="http://www.w3.org/2000/svg">
<path fill-rule="evenodd" clip-rule="evenodd" d="M14.3 5.70005H16.85C17.15 5.70005 17.4 5.45005 17.4 5.15005C17.4 5.00005 17.35 4.90005 17.25 4.75005L13.65 1.20005C13.55 1.10005 13.45 1.05005 13.3 1.05005C13 1.05005 12.75 1.30005 12.75 1.60005V4.15005C12.75 5.00005 13.45 5.70005 14.3 5.70005ZM12.3 20.3C12.3 16.9 14.4 14 17.4 12.85V8.80005C17.4 8.35005 17.05 8.00005 16.6 8.00005H12.7C11.4 8.00005 10.35 6.95005 10.35 5.70005V1.80005C10.4 1.40005 10.05 1.05005 9.60005 1.05005H3.40005C2.10005 1.05005 1.05005 2.10005 1.05005 3.35005V18.05C1.05005 19.35 2.10005 20.35 3.40005 20.35H12.3V20.3ZM15.9 17.3L18.9 20.3L15.9 23.3C15.6 23.6 15.6 24.1 15.9 24.35L16.25 24.7C16.55 25 17.05 25 17.3 24.7L20.3 21.7L23.3 24.7C23.6 25 24.1 25 24.35 24.7L24.7 24.35C25 24.05 25 23.55 24.7 23.3L21.7 20.3L24.7 17.3C25 17 25 16.5 24.7 16.25L24.35 15.9C24.05 15.6 23.55 15.6 23.3 15.9L20.3 18.9L17.3 15.9C17 15.6 16.5 15.6 16.25 15.9L15.9 16.25C15.6 16.5 15.6 17 15.9 17.3Z" fill="#706E6B"/>
</svg>
