<svg width="26" height="26" viewBox="0 0 26 26" fill="none" xmlns="http://www.w3.org/2000/svg">
<path fill-rule="evenodd" clip-rule="evenodd" d="M12.55 6.15005V4.65005C14.55 4.65005 16.15 6.25005 16.15 8.25005H14.65L16.95 11.1C17.1 11.25 17.3 11.25 17.4 11.1L19.7 8.25005H18.2C18.2 5.10005 15.6 2.55005 12.5 2.55005V1.05005L9.65 3.35005C9.5 3.50005 9.55 3.70005 9.7 3.80005L12.55 6.15005ZM13.15 16.8C12.55 16 11.4 15.45 10.25 14.9C9.05 14.4 8.9 13.9 8.9 13.4C8.9 12.9 9.2 12.35 9.6 12C10.25 11.35 10.65 10.4 10.65 9.35005C10.65 7.35005 9.45 5.60005 7.4 5.60005H7.2C5.15 5.60005 3.95 7.35005 3.95 9.35005C3.95 10.45 4.3 11.35 5 12C5.4 12.35 5.7 12.85 5.7 13.4C5.7 13.9 5.55 14.4 4.35 14.9C2.65 15.65 1.05 16.45 1 18.05C1.15 19.2 1.9 20 2.9 20H11.85C12 20 12.2 19.95 12.35 19.9C12.4 18.8 12.65 17.75 13.15 16.8ZM15.9 17.3L18.9 20.3L15.9 23.3C15.6 23.6 15.6 24.1 15.9 24.35L16.25 24.7C16.55 25 17.05 25 17.3 24.7L20.3 21.7L23.3 24.7C23.6 25 24.1 25 24.35 24.7L24.7 24.35C25 24.05 25 23.55 24.7 23.3L21.7 20.3L24.7 17.3C25 17 25 16.5 24.7 16.25L24.35 15.9C24.05 15.6 23.55 15.6 23.3 15.9L20.3 18.9L17.3 15.9C17 15.6 16.5 15.6 16.25 15.9L15.9 16.25C15.6 16.5 15.6 17 15.9 17.3Z" fill="#706E6B"/>
</svg>
