<svg width="26" height="26" viewBox="0 0 26 26" fill="none" xmlns="http://www.w3.org/2000/svg">
<path fill-rule="evenodd" clip-rule="evenodd" d="M4.5 1.75C4.5 1.35 4.15 1 3.75 1H1.75C1.35 1 1 1.35 1 1.75V17.25C1 17.65 1.35 18 1.75 18H3.75C4.15 18 4.5 17.65 4.5 17.25V1.75ZM25 1.75C25 1.35 24.65 1 24.25 1H22.25C21.85 1 21.5 1.35 21.5 1.75V17.25C21.5 17.65 21.85 18 22.25 18H24.25C24.65 18 25 17.65 25 17.25V1.75ZM18.75 1H17.25C16.85 1 16.5 1.4 16.5 1.8V8C16.5 8.2 16.6 8.35 16.8 8.45C17.65 8.9 18.4 9.45 19.05 10.1C19.2 10.25 19.5 10.15 19.5 9.95V1.8C19.5 1.4 19.15 1 18.75 1ZM12.05 7.6C12.35 7.55 12.7 7.55 13 7.55C13.3 7.55 13.65 7.55 13.95 7.6C14.25 7.65 14.5 7.4 14.5 7.1V1.8C14.5 1.4 14.15 1 13.75 1H12.25C11.85 1 11.5 1.4 11.5 1.8V7.1C11.5 7.4 11.75 7.65 12.05 7.6ZM6.95 10.1C7.6 9.4 8.4 8.85 9.25 8.45C9.4 8.35 9.5 8.2 9.5 8V1.8C9.5 1.4 9.15 1 8.75 1H7.25C6.85 1 6.5 1.4 6.5 1.8V9.95C6.5 10.15 6.75 10.25 6.95 10.1ZM13 9.55C9.4 9.55 6.5 12.45 6.5 16.05C6.5 17.15 6.8 18.25 7.3 19.15L3.75 22.7C3.45 23 3.45 23.45 3.75 23.75L4.8 24.8C5.1 25.1 5.55 25.1 5.85 24.8L9.3 21.35C10.35 22.1 11.65 22.55 13 22.55C16.6 22.55 19.5 19.65 19.5 16.05C19.5 12.45 16.6 9.55 13 9.55ZM13 19.55C11.05 19.55 9.5 18 9.5 16.05C9.5 14.1 11.05 12.55 13 12.55C14.95 12.55 16.5 14.1 16.5 16.05C16.5 18 14.95 19.55 13 19.55Z" fill="#706E6B"/>
</svg>
