<svg width="26" height="26" viewBox="0 0 26 26" fill="none" xmlns="http://www.w3.org/2000/svg">
<path fill-rule="evenodd" clip-rule="evenodd" d="M13.75 18.8C12.25 18.2 12 17.65 12 17.05C12 16.45 12.4 15.9 12.9 15.45C13.8 14.7 14.2 13.5 14.2 12.25C14.2 9.9 12.75 8 10.05 8C7.35 8 5.9 9.9 5.9 12.25C5.9 13.5 6.3 14.7 7.2 15.45C7.7 15.9 8.1 16.45 8.1 17.05C8.1 17.65 7.85 18.2 6.35 18.8C4.15 19.7 2.05 20.7 2 22.6C2.1 23.9 3.1 25 4.35 25H15.85C17.1 25 18.1 23.9 18.1 22.65C18.05 20.75 15.95 19.7 13.75 18.8ZM22.35 9.5C22.35 5.8 19.3 2.75 15.6 2.75V1L12.2 3.75C12.05 3.9 12.1 4.15 12.25 4.3L15.6 7V5.25C17.95 5.25 19.85 7.15 19.85 9.5H18.1L20.85 12.9C21 13.05 21.25 13.05 21.4 12.9L24.1 9.5H22.35Z" fill="#706E6B"/>
</svg>
