<svg width="26" height="26" viewBox="0 0 26 26" fill="none" xmlns="http://www.w3.org/2000/svg">
<path fill-rule="evenodd" clip-rule="evenodd" d="M12.9822 2C6.33224 2 1.03224 6.9 1.03224 12.95C1.03224 14.85 1.58224 16.65 2.48224 18.25C2.63224 18.5 2.68224 18.8 2.58224 19.1L1.03224 23.35C0.882242 23.75 1.28224 24.1 1.68224 24L5.98224 22.35C6.23224 22.25 6.53224 22.3 6.83224 22.45C8.63224 23.45 10.7822 24.05 13.0822 24.05C19.6322 24 24.9822 19.15 24.9822 13.05C24.9322 6.9 19.5822 2 12.9822 2ZM6.98224 15C5.88224 15 4.98224 14.1 4.98224 13C4.98224 11.9 5.88224 11 6.98224 11C8.08224 11 8.98224 11.9 8.98224 13C8.98224 14.1 8.08224 15 6.98224 15ZM12.9822 15C11.8822 15 10.9822 14.1 10.9822 13C10.9822 11.9 11.8822 11 12.9822 11C14.0822 11 14.9822 11.9 14.9822 13C14.9822 14.1 14.0822 15 12.9822 15ZM18.9822 15C17.8822 15 16.9822 14.1 16.9822 13C16.9822 11.9 17.8822 11 18.9822 11C20.0822 11 20.9822 11.9 20.9822 13C20.9822 14.1 20.0822 15 18.9822 15Z" fill="#706E6B"/>
</svg>
