<svg width="26" height="26" viewBox="0 0 26 26" fill="none" xmlns="http://www.w3.org/2000/svg">
<path d="M13.0183 5C15.6539 5 17.777 7.07513 17.777 9.65116V10.8318C16.203 10.653 14.5923 10.5814 13.0183 10.5814C11.4443 10.5814 9.83361 10.653 8.25957 10.8318V9.65116C8.25957 7.11091 10.3827 5 13.0183 5ZM21.6572 18.5957L22.1331 14.517C23.1947 14.6959 24 15.5546 24 16.5206C24 17.6655 22.9384 18.5957 21.6572 18.5957ZM4.34276 18.5957C3.06156 18.5957 2 17.6655 2 16.5206C2 15.5188 2.80532 14.6959 3.86689 14.517L4.34276 18.5957ZM20.01 11.8336C17.594 11.5832 15.2879 11.4759 13.0549 11.4759C10.822 11.4759 8.4792 11.5832 6.09983 11.8336C5.29451 11.9052 4.70882 12.6208 4.81864 13.3721L5.55075 20.3131C5.62396 20.9571 6.13644 21.4937 6.83195 21.5653C8.88186 21.8157 10.9684 21.9231 13.0915 21.9231C15.2146 21.9231 17.3012 21.8157 19.3511 21.5653C20.01 21.4937 20.5591 20.9571 20.6323 20.3131L21.3644 13.3721C21.3644 12.585 20.8153 11.9052 20.01 11.8336ZM8.99168 18.1306C8.40599 18.1306 7.96672 17.5581 7.96672 16.8068C7.96672 16.0555 8.4426 15.483 8.99168 15.483C9.54077 15.483 10.0166 16.0555 10.0166 16.8068C10.0166 17.5581 9.57737 18.1306 8.99168 18.1306ZM15.1048 19.5975C15.1048 19.6691 15.0682 19.7406 15.0316 19.7764C14.995 19.8122 14.9218 19.8479 14.8486 19.8479H11.2246C11.1514 19.8479 11.0782 19.8122 11.0416 19.7764C11.005 19.7406 10.9684 19.6691 10.9684 19.5975V18.9535C10.9684 18.8104 11.0782 18.703 11.2246 18.703H11.2978C11.4443 18.703 11.5541 18.8104 11.5541 18.9535V19.2755H14.5191V18.9535C14.5191 18.8104 14.629 18.703 14.7754 18.703H14.8486C14.995 18.703 15.1048 18.8104 15.1048 18.9535V19.5975ZM17.0449 18.1306C16.4592 18.1306 16.02 17.5581 16.02 16.8068C16.02 16.0555 16.4958 15.483 17.0449 15.483C17.594 15.483 18.0699 16.0555 18.0699 16.8068C18.0699 17.5581 17.6306 18.1306 17.0449 18.1306Z" fill="#706E6B"/>
</svg>
