<svg width="26" height="26" viewBox="0 0 26 26" fill="none" xmlns="http://www.w3.org/2000/svg">
<path fill-rule="evenodd" clip-rule="evenodd" d="M12.7615 23.8126L3.20769 13.5684C2.93077 13.2686 2.93077 12.7689 3.20769 12.4691L12.7615 2.22487C13.0385 1.92504 13.5 1.92504 13.7769 2.22487L14.7923 3.32425C15.0692 3.62408 15.0692 4.12379 14.7923 4.42362L7.22308 12.4691C6.94615 12.7689 6.94615 13.2686 7.22308 13.5684L14.7462 21.6139C15.0231 21.9137 15.0231 22.4134 14.7462 22.7132L13.7308 23.8126C13.4538 24.0625 13.0385 24.0625 12.7615 23.8126Z" fill="#706E6B"/>
<path fill-rule="evenodd" clip-rule="evenodd" d="M20.7615 23.8126L11.2077 13.5684C10.9308 13.2686 10.9308 12.7689 11.2077 12.4691L20.7615 2.22487C21.0385 1.92504 21.5 1.92504 21.7769 2.22487L22.7923 3.32425C23.0692 3.62408 23.0692 4.12379 22.7923 4.42362L15.2231 12.4691C14.9462 12.7689 14.9462 13.2686 15.2231 13.5684L22.7462 21.6139C23.0231 21.9137 23.0231 22.4134 22.7462 22.7132L21.7308 23.8126C21.4538 24.0625 21.0385 24.0625 20.7615 23.8126Z" fill="#706E6B"/>
</svg>
