<svg width="26" height="26" viewBox="0 0 26 26" fill="none" xmlns="http://www.w3.org/2000/svg">
<path fill-rule="evenodd" clip-rule="evenodd" d="M13 1C6.4 1 1 6.4 1 13C1 19.6 6.4 25 13 25C19.6 25 25 19.6 25 13C25 6.4 19.6 1 13 1ZM13 21.8C8.15 21.8 4.2 17.85 4.2 13C4.2 8.15 8.15 4.2 13 4.2C17.85 4.2 21.8 8.15 21.8 13C21.8 17.85 17.85 21.8 13 21.8ZM18.6 13C18.6 16.0928 16.0928 18.6 13 18.6C9.90721 18.6 7.4 16.0928 7.4 13C7.4 9.90721 9.90721 7.4 13 7.4C16.0928 7.4 18.6 9.90721 18.6 13Z" fill="#706E6B"/>
</svg>
