<svg width="26" height="26" viewBox="0 0 26 26" fill="none" xmlns="http://www.w3.org/2000/svg">
<path fill-rule="evenodd" clip-rule="evenodd" d="M15.725 12.925L22.225 6.375C22.525 6.075 22.525 5.625 22.225 5.325L21.225 4.275C20.925 3.975 20.475 3.975 20.175 4.275L13.625 10.825C13.425 11.025 13.125 11.025 12.925 10.825L6.375 4.225C6.075 3.925 5.625 3.925 5.325 4.225L4.275 5.275C3.975 5.575 3.975 6.025 4.275 6.325L10.825 12.875C11.025 13.075 11.025 13.375 10.825 13.575L4.225 20.175C3.925 20.475 3.925 20.925 4.225 21.225L5.275 22.275C5.575 22.575 6.025 22.575 6.325 22.275L12.875 15.725C13.075 15.525 13.375 15.525 13.575 15.725L20.125 22.275C20.425 22.575 20.875 22.575 21.175 22.275L22.225 21.225C22.525 20.925 22.525 20.475 22.225 20.175L15.725 13.625C15.525 13.425 15.525 13.125 15.725 12.925Z" fill="#706E6B"/>
</svg>
