<svg width="26" height="26" viewBox="0 0 26 26" fill="none" xmlns="http://www.w3.org/2000/svg">
<path fill-rule="evenodd" clip-rule="evenodd" d="M22.5 1H3.5C2.1 1 1 2.1 1 3.5V22.5C1 23.85 2.1 25 3.5 25H22.5C23.85 25 25 23.9 25 22.5V3.5C25 2.1 23.9 1 22.5 1ZM21.3 20.7C21.25 21 20.95 21.25 20.6 21.25H5.1C4.8 21.25 4.55 20.95 4.55 20.6V5.3C4.55 5 4.85 4.75 5.2 4.75H20.7C21 4.75 21.25 5.05 21.25 5.4V20.7H21.3ZM16.5 11.2C17 11.2 18.05 10.8 18.05 9.4C18.05 8 17.05 7.95 16.75 7.95C16.15 7.95 15.55 8.4 15 9.3C14.45 10.25 13.85 11.25 13.85 11.25C13.7 10.6 13.6 10.05 13.55 9.8C13.45 9.25 12.8 8 11.4 8C10.05 8 8.8 8.8 8.8 8.8C8.55 8.95 8.4 9.2 8.4 9.5C8.4 9.95 8.75 10.35 9.25 10.35C9.4 10.35 9.5 10.3 9.6 10.25C9.6 10.25 10.65 9.65 10.85 10.25C10.9 10.4 10.95 10.6 11.05 10.8C11.3 11.7 11.55 12.75 11.75 13.7L10.85 15C10.85 15 9.85 14.65 9.3 14.65C8.75 14.65 7.75 15.05 7.75 16.45C7.75 17.85 8.75 17.9 9.05 17.9C9.65 17.9 10.25 17.45 10.8 16.55C11.35 15.6 11.95 14.6 11.95 14.6C12.15 15.45 12.25 16.15 12.35 16.4C12.7 17.35 13.45 17.95 14.5 17.95C14.5 17.95 15.55 17.95 16.85 17.25C17.15 17.15 17.35 16.85 17.35 16.5C17.35 16.05 17 15.65 16.5 15.65C16.35 15.65 16.25 15.7 16.15 15.75C16.15 15.75 15.25 16.25 14.95 15.85C14.75 15.45 14.55 14.85 14.4 14.2C14.25 13.6 14.1 12.85 14 12.15L14.9 10.85C15 10.85 16 11.2 16.5 11.2Z" fill="#706E6B"/>
</svg>
