<svg width="26" height="26" viewBox="0 0 26 26" fill="none" xmlns="http://www.w3.org/2000/svg">
<path fill-rule="evenodd" clip-rule="evenodd" d="M23.9224 15.45C23.8724 15.25 23.8724 15.05 23.9724 14.85C24.6224 13.7 25.0224 12.4 25.0224 11C25.0224 6.6 21.2224 3 16.5224 3C14.3224 3 12.3224 3.8 10.8224 5.1C15.9724 5.7 20.0224 9.9 20.0224 15C20.0224 16.25 19.7724 17.45 19.3224 18.55C19.8724 18.35 20.4224 18.1 20.9224 17.85C21.1224 17.75 21.3224 17.7 21.5224 17.8L24.5724 19C24.8724 19.1 25.1224 18.85 25.0224 18.55L23.9224 15.45ZM9.5224 7C4.8224 7 1.0224 10.6 1.0224 15C1.0224 16.4 1.4224 17.7 2.0724 18.85C2.1724 19.05 2.2224 19.25 2.1224 19.45L1.0224 22.5C0.922395 22.8 1.1724 23.05 1.4724 22.95L4.5224 21.75C4.7224 21.7 4.92239 21.7 5.1224 21.8C6.4224 22.55 7.9224 22.95 9.5224 22.95C14.2224 22.95 18.0224 19.35 18.0224 14.95C18.0224 10.6 14.2224 7 9.5224 7Z" fill="#706E6B"/>
</svg>
