<svg width="26" height="26" viewBox="0 0 26 26" fill="none" xmlns="http://www.w3.org/2000/svg">
<path d="M10.551 12.9992C10.7469 12.9992 11.4327 13.0972 11.4816 13.8809L11.5796 15.8401C11.5796 16.1829 11.5796 16.5748 11.3837 16.8686C11.2857 17.0645 11.1388 17.2605 11.0408 17.4564C10.7959 17.8972 10.7959 18.436 10.7959 18.9258C10.7959 19.4646 10.7469 20.0033 11.0408 20.4441C11.0898 20.5421 11.1388 20.5911 11.1878 20.689C11.2367 20.787 11.2857 20.836 11.3347 20.9339C11.6286 21.4237 11.5306 21.9625 11.5306 22.4523L11.5304 23.6379C11.5276 23.7495 11.4762 24.7543 10.551 24.7543H1.97959C1.19592 24.7543 1.04898 24.3135 1 24.0686V13.9788C1 13.0972 1.63673 12.9992 1.88163 12.9992H10.551ZM19.4247 12.902C19.4408 12.9043 19.4776 12.9135 19.5143 12.9503C19.7102 13.0482 19.7592 13.1952 19.7592 13.3421C19.8082 13.636 19.8082 13.8809 19.8571 14.1748C19.8571 14.2237 19.9061 14.2727 19.9551 14.2727C20.298 14.3707 20.5429 14.5666 20.8857 14.6645H20.9347C20.9347 14.6645 20.9347 14.6156 20.9837 14.6156C21.2286 14.4686 21.4735 14.2237 21.7184 14.0768C21.8163 14.0278 21.9143 13.9788 21.9633 13.9788C22.0612 13.9788 22.1592 14.0278 22.2082 14.0768C22.502 14.3707 22.8449 14.7135 23.1878 15.0564C23.3347 15.2033 23.3347 15.3992 23.2367 15.5462C23.0898 15.7911 22.8449 16.036 22.698 16.2809V16.4278C22.7959 16.6727 22.9918 17.0156 23.0898 17.3584C23.0898 17.4074 23.1388 17.4564 23.1878 17.4564C23.4816 17.5054 23.7755 17.5054 24.0694 17.5543C24.3143 17.6033 24.4122 17.7013 24.4122 18.0441V19.4156C24.4122 19.6605 24.3143 19.8074 24.0694 19.8074C23.7755 19.8564 23.4816 19.8564 23.1878 19.9054C23.1388 19.9054 23.0898 19.9543 23.0898 20.0033C22.9918 20.3462 22.7959 20.5911 22.698 20.9339C22.649 20.9829 22.649 21.0319 22.698 21.0809C22.8449 21.3748 23.0898 21.5707 23.2367 21.8156C23.3347 21.9625 23.3347 22.1584 23.1878 22.3054L22.2082 23.285C22.0612 23.3339 22.0122 23.3829 21.9143 23.3829C21.8163 23.3829 21.7184 23.3339 21.6694 23.285C21.4245 23.138 21.1796 22.8931 20.9347 22.7462C20.9347 22.6972 20.8857 22.6972 20.8857 22.6972H20.8367C20.5918 22.7952 20.249 22.9911 19.9061 23.089C19.8571 23.089 19.8082 23.138 19.8082 23.187C19.7592 23.4809 19.7592 23.7748 19.7102 24.0686C19.6612 24.3135 19.5633 24.4115 19.3184 24.4115H17.898C17.6531 24.4115 17.5061 24.3135 17.5061 24.0686C17.4571 23.7748 17.4571 23.4809 17.4082 23.187C17.4082 23.138 17.3592 23.089 17.3102 23.089C16.9673 22.9911 16.7224 22.7952 16.3796 22.6972H16.3306C16.2816 22.6972 16.2816 22.7462 16.2327 22.7462C15.9388 22.8931 15.7429 23.138 15.498 23.285C15.4 23.3339 15.302 23.3829 15.2531 23.3829C15.1061 23.3829 15.0571 23.3829 14.9592 23.285C14.8122 23.138 14.6531 22.9788 14.4878 22.8135L13.9796 22.3054C13.8327 22.1584 13.8327 21.9625 13.9306 21.8156C14.0776 21.5707 14.3224 21.3258 14.4694 21.0809C14.5184 21.0319 14.4694 20.9829 14.4694 20.9339C14.3714 20.5911 14.1755 20.3462 14.0776 20.0033C14.0776 19.9543 14.0286 19.9054 13.9796 19.9054C13.6857 19.8564 13.4408 19.8074 13.1469 19.8074C13 19.7584 12.8531 19.6605 12.7551 19.5135V17.8482C12.8041 17.6523 13 17.5543 13.1469 17.5543C13.4408 17.5054 13.6857 17.5054 13.9796 17.4564C14.0286 17.4564 14.0776 17.4074 14.0776 17.3584C14.1755 17.0156 14.3714 16.7707 14.4694 16.4278C14.5184 16.3788 14.5184 16.3299 14.4694 16.2809C14.3224 15.987 14.0776 15.7911 13.9306 15.5462C13.8327 15.3992 13.8327 15.2033 13.9796 15.0564L14.9592 14.0768C15.1061 14.0278 15.1061 13.9788 15.2531 13.9788C15.4 13.9788 15.449 14.0278 15.498 14.0768C15.7918 14.2237 15.9878 14.4686 16.2327 14.6156C16.2816 14.6645 16.2816 14.6645 16.3306 14.6645H16.3796C16.7224 14.5666 16.9673 14.3707 17.3102 14.2727C17.3592 14.2727 17.4082 14.2237 17.4082 14.1748C17.4571 13.8809 17.5061 13.636 17.5061 13.3421C17.5061 13.1952 17.6531 13.0482 17.751 12.9503C17.849 12.9013 17.898 12.9013 17.9959 12.9013L19.4247 12.902ZM18.6327 16.4768C17.4082 16.4768 16.4286 17.4564 16.4286 18.6809C16.4286 19.9054 17.3592 20.885 18.6327 20.885L18.7848 20.8792C19.8916 20.7952 20.7899 19.8053 20.8367 18.6809C20.8367 17.4564 19.8571 16.4768 18.6327 16.4768ZM23.1637 1.24499C23.3494 1.2548 24.5102 1.37737 24.5102 2.90945L24.5108 9.72379C24.5193 9.82129 24.5964 11.0401 23.1388 11.0401H2.46939C1.29388 11.0401 1.04898 9.96251 1 9.66863V2.71353C1 1.39108 2.17551 1.29312 2.42041 1.24414L23.1637 1.24499Z" fill="#706E6B"/>
</svg>
