<svg width="26" height="26" viewBox="0 0 26 26" fill="none" xmlns="http://www.w3.org/2000/svg">
<path fill-rule="evenodd" clip-rule="evenodd" d="M10.5 2H3.5C2.65 2 2 2.65 2 3.5V23.5C2 23.75 2.25 24 2.5 24H4.5C4.8 24 5 23.8 5 23.5V20.5C5 20.2 5.2 20 5.5 20H8.5C8.8 20 9 20.2 9 20.5V23.5C9 23.8 9.2 24 9.5 24H11C11.55 24 12 23.55 12 23V3.5C12 2.65 11.35 2 10.5 2ZM6 17.75C6 17.9 5.9 18 5.75 18H4.25C4.1 18 4 17.9 4 17.75V15.25C4 15.1 4.1 15 4.25 15H5.75C5.9 15 6 15.1 6 15.25V17.75ZM6 12.75C6 12.9 5.9 13 5.75 13H4.25C4.1 13 4 12.9 4 12.75V10.25C4 10.1 4.1 10 4.25 10H5.75C5.9 10 6 10.1 6 10.25V12.75ZM6 7.75C6 7.9 5.9 8 5.75 8H4.25C4.1 8 4 7.9 4 7.75V5.25C4 5.1 4.1 5 4.25 5H5.75C5.9 5 6 5.1 6 5.25V7.75ZM10 17.75C10 17.9 9.9 18 9.75 18H8.25C8.1 18 8 17.9 8 17.75V15.25C8 15.1 8.1 15 8.25 15H9.75C9.9 15 10 15.1 10 15.25V17.75ZM10 12.75C10 12.9 9.9 13 9.75 13H8.25C8.1 13 8 12.9 8 12.75V10.25C8 10.1 8.1 10 8.25 10H9.75C9.9 10 10 10.1 10 10.25V12.75ZM10 7.75C10 7.9 9.9 8 9.75 8H8.25C8.1 8 8 7.9 8 7.75V5.25C8 5.1 8.1 5 8.25 5H9.75C9.9 5 10 5.1 10 5.25V7.75ZM22.5 7H15.5C14.65 7 14 7.65 14 8.5V23.5C14 23.75 14.25 24 14.5 24H16.5C16.8 24 17 23.8 17 23.5V20.5C17 20.2 17.2 20 17.5 20H20.5C20.8 20 21 20.2 21 20.5V23.5C21 23.8 21.2 24 21.5 24H23C23.55 24 24 23.55 24 23V8.5C24 7.65 23.35 7 22.5 7ZM18 17.75C18 17.9 17.9 18 17.75 18H16.25C16.1 18 16 17.9 16 17.75V15.25C16 15.1 16.1 15 16.25 15H17.75C17.9 15 18 15.1 18 15.25V17.75ZM18 12.75C18 12.9 17.9 13 17.75 13H16.25C16.1 13 16 12.9 16 12.75V10.25C16 10.1 16.1 10 16.25 10H17.75C17.9 10 18 10.1 18 10.25V12.75ZM22 17.75C22 17.9 21.9 18 21.75 18H20.25C20.1 18 20 17.9 20 17.75V15.25C20 15.1 20.1 15 20.25 15H21.75C21.9 15 22 15.1 22 15.25V17.75ZM22 12.75C22 12.9 21.9 13 21.75 13H20.25C20.1 13 20 12.9 20 12.75V10.25C20 10.1 20.1 10 20.25 10H21.75C21.9 10 22 10.1 22 10.25V12.75Z" fill="#706E6B"/>
</svg>
