<svg width="26" height="26" viewBox="0 0 26 26" fill="none" xmlns="http://www.w3.org/2000/svg">
<path fill-rule="evenodd" clip-rule="evenodd" d="M24.55 3.84985C24.4 3.69985 24.25 3.64985 24.05 3.64985C22.15 3.54985 20.2 3.69985 18.3 3.74985H11.55C9.50001 3.74985 7.85001 4.19985 6.30001 5.59985C5.30001 6.49985 4.35001 7.79985 3.60001 8.94985C3.55001 9.09985 3.50001 9.19985 3.50001 9.39985C3.50001 9.79985 3.85001 10.1498 4.25001 10.1498C4.70001 10.1498 4.80001 9.84985 5.00001 9.54985C5.20001 9.19985 5.45001 8.89985 5.75001 8.64985C6.80001 7.69985 8.20001 7.14985 9.60001 7.29985C8.40001 10.5998 6.75001 14.3998 4.35001 16.9998C3.35001 18.0998 1.65001 19.1999 1.30001 20.6999C0.900012 22.2498 2.50001 22.6499 3.65001 22.1999C5.15001 21.5998 6.10001 20.0498 6.85001 18.6998C7.80001 17.0498 8.65001 15.2998 9.35001 13.5498C10.1 11.7998 10.8 10.0998 11.55 8.34985C12 7.29985 12.1 7.29985 13.2 7.29985H16.15C15.05 9.69985 14 12.1498 13.05 14.5998C12.3 16.4499 10.95 19.1999 11.9 21.1999C12.85 23.1999 15.5 22.4499 16.95 21.4499C18.4 20.3999 19.4 18.7499 20.2 17.1498C20.35 16.8498 20.5 16.5498 20.4 16.1998C20.3 15.8998 20 15.7498 19.7 15.7498C19 15.7498 18.9 16.5498 18.65 17.0498C18.25 17.8998 17.35 18.6498 16.4 18.4998C14.2 18.1998 16.15 14.1999 16.55 13.1498C16.95 12.0498 17.4 10.9498 17.9 9.89985C18.15 9.29985 18.4 8.64985 18.75 8.04985C19.15 7.29985 19.15 7.29985 20.05 7.24985C20.8 7.19985 23 7.59985 23.65 7.19985C24.2 6.84985 24.5 5.54985 24.75 4.59985C24.8 4.29985 24.7 4.04985 24.55 3.84985Z" fill="#706E6B"/>
</svg>
