<svg width="26" height="26" viewBox="0 0 26 26" fill="none" xmlns="http://www.w3.org/2000/svg">
<path fill-rule="evenodd" clip-rule="evenodd" d="M12.7 13.5C12.4 13.6 12.25 13.95 12.5 14.2L14.7 16.45C14.95 16.7 14.95 17.05 14.7 17.3L13.85 18.15C13.6 18.4 13.25 18.4 13 18.15L7.64999 12.75C7.39999 12.5 7.39999 12.15 7.64999 11.9L13 6.55C13.25 6.3 13.6 6.3 13.85 6.55L14.7 7.4C14.95 7.65 14.95 8 14.7 8.25L12.45 10.5C12.2 10.75 12.65 11.2 12.65 11.2C17.75 11.35 21.7 14.7 22.9 19.25C24.2 17.45 25 15.3 25 13C24.95 6.85 19.6 2 13 2C6.39999 2 1.09999 6.9 1.09999 12.9C1.09999 14.8 1.64999 16.6 2.54999 18.2C2.69999 18.45 2.74999 18.75 2.64999 19.05L1.09999 23.3C0.949991 23.7 1.34999 24.05 1.74999 23.95L6.09999 22.3C6.34999 22.2 6.64999 22.25 6.94999 22.4C8.74999 23.4 10.9 24 13.2 24C16.15 23.95 18.9 22.95 20.95 21.25C20.4 17 16.95 13.7 12.7 13.5Z" fill="#706E6B"/>
</svg>
