<svg width="26" height="26" viewBox="0 0 26 26" fill="none" xmlns="http://www.w3.org/2000/svg">
<path fill-rule="evenodd" clip-rule="evenodd" d="M14.7875 11.9875H22.4875C22.9875 11.9875 23.1375 11.4375 22.7375 11.0375L20.2875 8.5375L24.7875 3.9875C25.0375 3.7375 25.0375 3.2875 24.7875 3.0375L22.9375 1.1875C22.6875 0.9875 22.2875 0.9875 21.9875 1.2375L17.4875 5.7375L14.9375 3.2875C14.5375 2.8875 13.9875 3.0375 13.9875 3.5375V11.2375C13.9875 11.5875 14.4375 11.9875 14.7875 11.9875ZM11.1875 13.9875H3.4875C2.9875 13.9875 2.8375 14.5375 3.2375 14.9375L5.6875 17.4375L1.1875 21.9875C0.9375 22.2375 0.9375 22.6875 1.1875 22.9375L3.0375 24.7875C3.2875 25.0375 3.6875 25.0375 3.9875 24.7875L8.5375 20.2375L11.0875 22.6875C11.4375 23.1375 11.9875 22.9875 11.9875 22.4875V14.8375C11.9875 14.4875 11.5375 13.9875 11.1875 13.9875ZM13.9875 14.7875V22.4875C13.9875 22.9875 14.5375 23.1375 14.9375 22.7375L17.4375 20.2875L21.9875 24.7875C22.2375 25.0375 22.6875 25.0375 22.9375 24.7875L24.7875 22.9375C24.9875 22.6875 24.9875 22.2875 24.7375 21.9875L20.2375 17.4875L22.6875 14.9375C23.0875 14.5375 22.9375 13.9875 22.4375 13.9875H14.7375C14.3875 13.9875 13.9875 14.4375 13.9875 14.7875ZM11.9875 11.1875V3.4875C11.9875 2.9875 11.4375 2.8375 11.0375 3.2375L8.5375 5.6875L3.9875 1.1875C3.7375 0.9375 3.2875 0.9375 3.0375 1.1875L1.1875 3.0375C0.9375 3.2875 0.9375 3.6875 1.1875 3.9875L5.7375 8.5375L3.2875 11.0875C2.8375 11.4375 2.9875 11.9875 3.4875 11.9875H11.1375C11.4875 11.9875 11.9875 11.5375 11.9875 11.1875Z" fill="#706E6B"/>
</svg>
