<svg width="26" height="26" viewBox="0 0 26 26" fill="none" xmlns="http://www.w3.org/2000/svg">
<path fill-rule="evenodd" clip-rule="evenodd" d="M22.55 5.4502H3.45C2.25 5.4502 1.25 6.4502 1.25 7.6502V18.3002C1.25 19.5002 2.25 20.5002 3.45 20.5002H22.55C23.75 20.5002 24.75 19.5002 24.75 18.3002V7.7002C24.75 6.4502 23.75 5.4502 22.55 5.4502ZM6 18.3002C6 16.8502 4.85 15.7502 3.45 15.7502V10.2502C4.9 10.2502 6 9.1002 6 7.7002H20C20 9.1502 21.15 10.2502 22.55 10.2502V15.7502C21.1 15.7502 20 16.9002 20 18.3002H6ZM16.65 12.8002C16.65 14.816 15.0158 16.4502 13 16.4502C10.9842 16.4502 9.35 14.816 9.35 12.8002C9.35 10.7844 10.9842 9.1502 13 9.1502C15.0158 9.1502 16.65 10.7844 16.65 12.8002Z" fill="#706E6B"/>
</svg>
