<svg width="26" height="26" viewBox="0 0 26 26" fill="none" xmlns="http://www.w3.org/2000/svg">
<path fill-rule="evenodd" clip-rule="evenodd" d="M24.725 6.1C24.625 5.8 24.275 5.75 24.025 5.95L19.975 10C19.675 10.3 19.175 10.3 18.875 10L16.025 7.15C15.725 6.85 15.725 6.35 16.025 6.05L20.125 2C20.325 1.8 20.225 1.45 19.975 1.3C19.275 1.1 18.525 1 17.825 1C13.575 1 10.175 4.65 10.675 9C10.775 9.7 10.925 10.3 11.175 10.9L1.825 20.2C0.725 21.3 0.725 23.1 1.825 24.15C2.375 24.7 3.125 25 3.825 25C4.525 25 5.275 24.7 5.825 24.15L15.125 14.85C15.725 15.1 16.375 15.25 17.025 15.35C21.375 15.85 25.025 12.45 25.025 8.2C25.025 7.45 24.925 6.75 24.725 6.1Z" fill="#706E6B"/>
</svg>
