<svg width="26" height="26" viewBox="0 0 26 26" fill="none" xmlns="http://www.w3.org/2000/svg">
<path fill-rule="evenodd" clip-rule="evenodd" d="M20.3408 15.6872C19.4908 15.4872 18.6908 15.5872 17.9908 15.8372L6.94079 1.18722C6.79079 0.987217 6.44079 0.937217 6.24079 1.08722L5.84079 1.38722C4.99079 2.03722 4.84079 3.28722 5.49079 4.18722L10.7908 11.1872C10.9908 11.4372 10.9908 11.8372 10.7908 12.0872L7.94079 15.8372C7.24079 15.5872 6.39079 15.5372 5.59079 15.6872C3.74079 16.0872 2.29079 17.5872 2.04079 19.4372C1.64079 22.3872 4.24079 24.9372 7.29079 24.4372C9.09079 24.1372 10.5408 22.7372 10.9408 20.9872C11.1908 19.7372 10.9408 18.5872 10.3408 17.7372L12.4408 14.9372C12.7408 14.5372 13.3408 14.5372 13.6408 14.9372L15.7408 17.7372C15.1408 18.6872 14.8908 19.8372 15.1408 20.9872C15.4908 22.7872 16.9908 24.1372 18.7908 24.4372C21.8408 24.9372 24.4408 22.3872 24.0408 19.4372C23.5908 17.5372 22.1408 16.0372 20.3408 15.6872ZM6.44079 21.5372C5.59079 21.5372 4.94079 20.8872 4.94079 20.0372C4.94079 19.1872 5.59079 18.5372 6.44079 18.5372C7.29079 18.5372 7.94079 19.1872 7.94079 20.0372C7.94079 20.8872 7.29079 21.5372 6.44079 21.5372ZM19.4408 21.5372C18.5908 21.5372 17.9408 20.8872 17.9408 20.0372C17.9408 19.1872 18.5908 18.5372 19.4408 18.5372C20.2908 18.5372 20.9408 19.1872 20.9408 20.0372C20.8908 20.8872 20.2408 21.5372 19.4408 21.5372ZM15.6408 9.43722C15.8408 9.68722 16.2408 9.68722 16.4408 9.43722L20.4408 4.18722C20.9908 3.43722 20.9408 2.43722 20.3908 1.73722L20.4408 1.68722L20.3908 1.73722C20.2908 1.58722 19.6408 1.08722 19.6408 1.08722C19.4408 0.937217 19.0908 0.987217 18.9408 1.18722L14.5408 7.03722C14.3408 7.28722 14.3408 7.68722 14.5408 7.93722L15.6408 9.43722Z" fill="#706E6B"/>
</svg>
