<svg width="26" height="26" viewBox="0 0 26 26" fill="none" xmlns="http://www.w3.org/2000/svg">
<path fill-rule="evenodd" clip-rule="evenodd" d="M21.25 10H5.75C5.35 10 5 10.35 5 10.75V22.5C5 23.9 6.1 25 7.5 25H19.5C20.9 25 22 23.9 22 22.5V10.75C22 10.35 21.65 10 21.25 10ZM13.5 23V21C15.15 21 16.5 19.65 16.5 18C16.5 16.35 15.15 15 13.5 15C12.7 15 11.95 15.35 11.4 15.9L12.6 17.1C12.75 17.25 12.65 17.55 12.4 17.55H8.75C8.6 17.55 8.5 17.45 8.5 17.3V13.65C8.5 13.45 8.75 13.3 8.95 13.45L10 14.5C10.95 13.6 12.2 13.05 13.55 13.05C16.3 13.05 18.55 15.3 18.55 18.05C18.55 20.8 16.25 23 13.5 23ZM23.25 5H17V3C17 1.9 16.1 1 15 1H12C10.9 1 10 1.9 10 3V5H3.75C3.35 5 3 5.35 3 5.75V7.25C3 7.65 3.35 8 3.75 8H23.25C23.65 8 24 7.65 24 7.25V5.75C24 5.35 23.65 5 23.25 5ZM15 5H12V3.5C12 3.2 12.2 3 12.5 3H14.5C14.8 3 15 3.2 15 3.5V5Z" fill="#706E6B"/>
</svg>
