<svg width="26" height="26" viewBox="0 0 26 26" fill="none" xmlns="http://www.w3.org/2000/svg">
<path fill-rule="evenodd" clip-rule="evenodd" d="M14.7875 6.475C19.9875 6.475 24.2375 10.675 24.2375 15.925C24.2375 21.175 19.9875 25.375 14.7875 25.375H10.6875C10.2875 25.375 10.0375 25.075 10.0375 24.675V23.075C10.0375 22.675 10.3375 22.325 10.7375 22.325H14.7875C18.3375 22.325 21.1875 19.475 21.1875 15.925C21.1875 12.375 18.3375 9.525 14.7875 9.525H7.8375C7.8375 9.525 7.4375 9.525 7.2875 9.575C6.8875 9.775 6.9875 10.075 7.3375 10.425L9.7875 12.875C10.0875 13.175 10.0375 13.625 9.7375 13.925L8.6375 15.025C8.3375 15.325 7.9875 15.325 7.6875 15.075L1.1875 8.575C0.9375 8.325 0.9375 7.925 1.1875 7.675L7.6375 1.225C7.9375 0.925 8.4375 0.925 8.6875 1.225L9.7375 2.275C10.0375 2.575 10.0375 3.075 9.7375 3.325L7.2875 5.775C6.9875 6.075 6.9875 6.425 7.4875 6.425H7.8375L14.7875 6.475Z" fill="#706E6B"/>
</svg>
