<svg width="26" height="26" viewBox="0 0 26 26" fill="none" xmlns="http://www.w3.org/2000/svg">
<path fill-rule="evenodd" clip-rule="evenodd" d="M9.04997 18.4503L13.75 13.7003L14.1 13.3503L18.3 9.15028L20.15 7.30028L22.2 5.25028C22.55 4.95028 22.6 4.50028 22.35 4.25028L21.45 3.35028C21.25 3.15028 20.9 3.15028 20.6 3.30028L3.34997 20.4503V20.5003C3.04997 20.8003 2.99997 21.2503 3.19997 21.5003L4.09997 22.4003C4.34997 22.6503 4.79997 22.6003 5.09997 22.2503L7.09997 20.2503C7.09997 20.3003 9.04997 18.4503 9.04997 18.4503ZM9.19997 11.5503C8.94997 11.5503 8.79997 11.7503 8.69997 11.9503C8.64997 12.2503 8.64997 12.5503 8.64997 12.8503C8.64997 13.0503 8.64997 13.2503 8.69997 13.4503L10.6 11.5503H9.19997ZM4.14997 18.0003L6.14997 16.0003C4.74997 15.7003 3.64997 14.5003 3.54997 13.1003C3.39997 11.2003 4.94997 9.65028 6.79997 9.65028H11.35C11.7 9.65028 12.05 9.70028 12.4 9.85028L14.35 7.90028C13.9 7.65028 13.45 7.40028 13 7.30028C12.5 7.15028 11.9 7.05028 11.4 7.05028H7.04997C3.74997 7.00028 1.04997 9.45028 0.94997 12.6003C0.84997 14.9503 2.14997 17.0003 4.14997 18.0003ZM21.55 7.65028L19.55 9.65028C21 9.90028 22.15 11.1003 22.25 12.6003C22.4 14.5003 20.85 16.0503 19 16.0503H14.5C14.1 16.0503 13.7 15.9503 13.35 15.8503L11.4 17.8003C11.85 18.1003 12.3 18.3003 12.8 18.4503C13.3 18.6003 13.9 18.7003 14.4 18.7003H19C22.3 18.7503 24.95 16.0003 24.85 12.7003C24.75 10.4003 23.4 8.55028 21.55 7.65028ZM15.05 14.1503H16.55C16.8 14.1503 16.95 13.9503 17.05 13.7503C17.1 13.4503 17.1 13.1503 17.1 12.8503C17.1 12.6003 17.1 12.4003 17.05 12.1503L15.05 14.1503Z" fill="#706E6B"/>
</svg>
