<svg width="26" height="26" viewBox="0 0 26 26" fill="none" xmlns="http://www.w3.org/2000/svg">
<path fill-rule="evenodd" clip-rule="evenodd" d="M5 9.06008V9.26008V9.06008ZM21 11.5101H8V9.16008C8 6.51008 10 4.16008 12.65 4.01008C15.1 3.86008 17.15 5.41008 17.8 7.61008C17.85 7.81008 18.05 8.01008 18.3 8.01008H20.35C20.65 8.01008 20.9 7.71008 20.85 7.41008C20.05 3.61008 16.65 0.810075 12.6 1.01008C8.35 1.21008 5.1 4.86008 5 9.06008V11.5101C3.9 11.5101 3 12.4101 3 13.5101V23.0101C3 24.1101 3.9 25.0101 5 25.0101H21C22.1 25.0101 23 24.1101 23 23.0101V13.5101C23 12.4101 22.1 11.5101 21 11.5101ZM15.3 21.3601C15.4 21.6601 15.15 22.0101 14.8 22.0101H11.15C10.8 22.0101 10.55 21.7101 10.65 21.3601L11.55 18.3601C10.8 17.8601 10.35 16.9601 10.55 15.9601C10.75 15.0101 11.5 14.2601 12.5 14.0601C14.1 13.7601 15.5 14.9101 15.5 16.4101C15.5 17.2101 15.1 17.9601 14.45 18.3601L15.3 21.3601Z" fill="#706E6B"/>
</svg>
