<svg width="26" height="26" viewBox="0 0 26 26" fill="none" xmlns="http://www.w3.org/2000/svg">
<path fill-rule="evenodd" clip-rule="evenodd" d="M20.75 9C20.05 9 19.5 9.5 19.5 10.2V12.2C19.5 15.7 16.55 18.6 12.95 18.6C9.35 18.6 6.4 15.7 6.4 12.2V10.2C6.4 9.5 5.85 9 5.15 9C4.45 9 4 9.5 4 10.2V12.2C4 16.65 7.4 20.3 11.75 20.9V22.6H9.7C9 22.6 8.45 23.1 8.45 23.8C8.45 24.5 9 25 9.7 25H16.25C16.95 25 17.5 24.5 17.5 23.8C17.5 23.1 16.95 22.6 16.25 22.6H14.2V20.9C18.6 20.3 22 16.65 22 12.2V10.2C22 9.5 21.45 9 20.75 9ZM13 16.2C15.2 16.2 17 14.4 17 12.2V4.95C17 2.75 15.25 1 13.05 1H12.95C10.75 1 9 2.75 9 4.95V12.2C9 14.4 10.8 16.2 13 16.2Z" fill="#706E6B"/>
</svg>
