<svg width="26" height="26" viewBox="0 0 26 26" fill="none" xmlns="http://www.w3.org/2000/svg">
<path fill-rule="evenodd" clip-rule="evenodd" d="M22.2 12H18.25L16.6 14H22V17H4V14H9.35L7.7 12H3.8C2.8 12 2 12.8 2 13.8V23.5C2 24.35 2.65 25 3.5 25H22.5C23.35 25 24 24.35 24 23.5V13.8C24 12.8 23.2 12 22.2 12ZM11.5 1.75V8H8.05C7.55 8 7.3 8.45 7.6 8.7L12.6 14.85C12.8 15 13.1 15 13.3 14.85L18.3 8.7C18.6 8.4 18.35 8 17.85 8H14.5V1.75C14.5 1.35 14.15 1 13.75 1H12.25C11.85 1 11.5 1.35 11.5 1.75Z" fill="#706E6B"/>
</svg>
