<svg width="26" height="26" viewBox="0 0 26 26" fill="none" xmlns="http://www.w3.org/2000/svg">
<path fill-rule="evenodd" clip-rule="evenodd" d="M22.4 24.75H3.6C2.3 24.75 1.25 23.7 1.25 22.4V3.6C1.25 2.3 2.3 1.25 3.6 1.25H22.4C23.7 1.25 24.75 2.3 24.75 3.6V22.4C24.75 23.65 23.7 24.75 22.4 24.75ZM4.45 5.15V20.8C4.45 21.25 4.8 21.6 5.25 21.6H20.85C21.3 21.6 21.65 21.25 21.65 20.8V5.15C21.65 4.7 21.3 4.35 20.85 4.35H5.2C4.8 4.4 4.45 4.75 4.45 5.15ZM19.4 11.9L18.95 10.4C18.8 10 18.4 9.75 17.95 9.9L14.55 11V7.65C14.55 7.2 14.2 6.85 13.75 6.85H12.2C11.75 6.85 11.4 7.2 11.4 7.65V11L8.1 9.9C7.7 9.75 7.25 10 7.1 10.4L6.65 11.9C6.5 12.3 6.75 12.75 7.15 12.9L10.25 13.9L8 16.95C7.75 17.3 7.85 17.8 8.2 18.05L9.5 18.95C9.85 19.2 10.35 19.1 10.6 18.75L13.05 15.35L15.5 18.75C15.75 19.1 16.25 19.2 16.6 18.95L17.9 18.05C18.25 17.8 18.35 17.3 18.1 16.95L15.85 13.85L18.9 12.85C19.3 12.75 19.5 12.35 19.4 11.9Z" fill="#706E6B"/>
</svg>
