<svg width="26" height="26" viewBox="0 0 26 26" fill="none" xmlns="http://www.w3.org/2000/svg">
<path fill-rule="evenodd" clip-rule="evenodd" d="M21 11.15C19.6 10.6 19.4 10.05 19.4 9.5C19.4 8.95 19.8 8.4 20.3 8C21.15 7.3 21.6 6.25 21.6 5.1C21.6 2.9 20.15 1 17.6 1C15.25 1 13.85 2.6 13.65 4.55C13.65 4.75 13.75 4.9 13.9 5C15.8 6.2 16.95 8.3 16.95 10.85C16.95 12.75 16.2 14.45 14.85 15.65C14.75 15.75 14.75 15.95 14.85 16.05C15.2 16.3 16 16.65 16.5 16.9C16.65 16.95 16.75 17 16.9 17H22.95C24.1 17 25 16.05 25 15V14.7C25 12.95 23.1 12 21 11.15ZM14.3 18.1C12.6 17.4 12.35 16.8 12.35 16.15C12.35 15.5 12.85 14.85 13.4 14.35C14.4 13.5 14.95 12.3 14.95 10.9C14.95 8.3 13.25 6.05 10.15 6.05C7.1 6.05 5.35 8.3 5.35 10.9C5.35 12.3 5.9 13.5 6.9 14.35C7.45 14.85 7.95 15.5 7.95 16.15C7.95 16.8 7.7 17.45 5.95 18.1C3.45 19.1 1 20.25 1 22.35V23C1 24.1 1.9 25 3.05 25H16.9C18.05 25 19 24.1 19 23V22.3C19 20.25 16.8 19.1 14.3 18.1Z" fill="#706E6B"/>
</svg>
