<svg width="26" height="26" viewBox="0 0 26 26" fill="none" xmlns="http://www.w3.org/2000/svg">
<path fill-rule="evenodd" clip-rule="evenodd" d="M22 2C22 0.9 21.1 0 20 0H7C5.9 0 5 0.9 5 2V24C5 25.1 5.9 26 7 26H20C21.1 26 22 25.1 22 24V2ZM13.5 25C12.65 25 12 24.35 12 23.5C12 22.65 12.65 22 13.5 22C14.35 22 15 22.65 15 23.5C15 24.35 14.35 25 13.5 25ZM19 20.25C19 20.65 18.65 21 18.25 21H8.75C8.35 21 8 20.65 8 20.25V4.75C8 4.35 8.35 4 8.75 4H18.25C18.65 4 19 4.35 19 4.75V20.25Z" fill="#706E6B"/>
</svg>
