<svg width="26" height="26" viewBox="0 0 26 26" fill="none" xmlns="http://www.w3.org/2000/svg">
<path fill-rule="evenodd" clip-rule="evenodd" d="M13 10C10.8 10 9 11.8 9 14C9 16.2 10.8 18 13 18C15.2 18 17 16.2 17 14C17 11.8 15.2 10 13 10ZM23 7H20.4C19.7 7 19.1 6.65 18.7 6.1L17.55 4.35C17.2 3.5 16.35 3 15.45 3H10.55C9.65 3 8.8 3.5 8.4 4.35L7.25 6.1C6.9 6.65 6.25 7 5.55 7H3C1.9 7 1 7.9 1 9V21C1 22.1 1.9 23 3 23H23C24.1 23 25 22.1 25 21V9C25 7.9 24.1 7 23 7ZM13 20C9.7 20 7 17.3 7 14C7 10.7 9.7 8 13 8C16.3 8 19 10.7 19 14C19 17.3 16.3 20 13 20Z" fill="#706E6B"/>
</svg>
