<svg width="26" height="26" viewBox="0 0 26 26" fill="none" xmlns="http://www.w3.org/2000/svg">
<path fill-rule="evenodd" clip-rule="evenodd" d="M18.3 11.8H18.05L16.35 3.9H16.8C17.6 3.9 18.25 3.25 18.25 2.45C18.25 1.65 17.6 1 16.8 1H8.9C8.1 1 7.45 1.65 7.45 2.45C7.45 3.25 8.1 3.9 8.9 3.9H9.35L7.7 11.8H7.45C6.65 11.8 6 12.45 6 13.25C6 14.05 6.65 14.7 7.45 14.7H11.65V23.4C11.65 24.2 12.3 24.9 13.15 24.9C14 24.9 14.65 24.25 14.65 23.4V14.75H18.35C19.15 14.75 19.8 14.1 19.8 13.3C19.8 12.5 19.1 11.8 18.3 11.8Z" fill="#706E6B"/>
</svg>
