<svg width="26" height="26" viewBox="0 0 26 26" fill="none" xmlns="http://www.w3.org/2000/svg">
<path fill-rule="evenodd" clip-rule="evenodd" d="M11 15.6504H20.55C20.95 15.6504 21.35 15.4004 21.35 15.0004V13.5004C21.35 13.1004 21 12.6504 20.55 12.6504H16.6C16.15 12.6504 15.9 12.1504 16.25 11.8504L24.75 3.35039C25.05 3.05039 25.05 2.60039 24.75 2.30039L23.7 1.25039C23.4 0.950391 22.95 0.950391 22.65 1.25039L14.15 9.75039C13.85 10.0504 13.35 9.85039 13.35 9.40039V5.45039C13.35 5.05039 12.95 4.60039 12.55 4.60039H11.1C10.7 4.60039 10.35 5.05039 10.35 5.45039V14.9504C10.4 15.4004 10.6 15.6004 11 15.6504ZM18.5 17.6504H16.5C16.2 17.6504 16 17.8504 16 18.1504V21.2504C16 21.6504 15.65 22.0004 15.25 22.0004H4.75C4.35 22.0004 4 21.6504 4 21.2504V10.7504C4 10.3504 4.35 10.0004 4.7 10.0004H7.85C8.15 10.0004 8.35 9.80039 8.35 9.50039V7.50039C8.35 7.20039 8.15 7.00039 7.85 7.00039H3C1.9 7.00039 1 7.90039 1 9.00039V23.0004C1 24.1004 1.9 25.0004 3 25.0004H17C18.1 25.0004 19 24.1004 19 23.0004V18.1504C19 17.8504 18.8 17.6504 18.5 17.6504Z" fill="#706E6B"/>
</svg>
