<svg width="26" height="26" viewBox="0 0 26 26" fill="none" xmlns="http://www.w3.org/2000/svg">
<path fill-rule="evenodd" clip-rule="evenodd" d="M23.25 8.70039H2.75C1.65 8.70039 0.75 9.60039 0.75 10.7004V17.7004C0.75 18.8004 1.65 19.7004 2.75 19.7004H5.7V22.6004C5.7 23.7004 6.6 24.6004 7.7 24.6004H18.35C19.45 24.6004 20.35 23.7004 20.35 22.6004V19.7004H23.3C24.4 19.7004 25.3 18.8004 25.3 17.7004V10.7004C25.25 9.60039 24.35 8.70039 23.25 8.70039ZM4.15 13.8504C3.3 13.8504 2.65 13.2004 2.65 12.3504C2.65 11.5004 3.3 10.8504 4.15 10.8504C5 10.8504 5.65 11.5004 5.65 12.3504C5.65 13.2004 5 13.8504 4.15 13.8504ZM17.95 21.5504C17.95 21.9504 17.6 22.3004 17.2 22.3004H8.7C8.3 22.3004 7.95 21.9504 7.95 21.5504V16.6504C7.95 16.2504 8.3 15.9004 8.7 15.9004H17.2C17.6 15.9004 17.95 16.2504 17.95 16.6504V21.5504ZM20.25 5.55039C20.25 5.95039 19.9 6.30039 19.5 6.30039H6.4C6 6.30039 5.65 5.95039 5.65 5.55039V2.15039C5.65 1.75039 6 1.40039 6.4 1.40039H19.5C19.9 1.40039 20.25 1.75039 20.25 2.15039V5.55039Z" fill="#706E6B"/>
</svg>
