<svg width="26" height="26" viewBox="0 0 26 26" fill="none" xmlns="http://www.w3.org/2000/svg">
<path fill-rule="evenodd" clip-rule="evenodd" d="M8.1 11.6L12.35 6.3C12.65 5.9 13.25 5.9 13.55 6.3L17.8 11.65C17.95 11.85 18.15 12 18.4 12H23.2C23.6 12 24 11.65 24 11.25V4C24 2.9 23.05 2 21.95 2H4C2.9 2 2 2.9 2 4V11.25C2 11.65 2.35 12 2.75 12H7.5C7.75 12 7.95 11.8 8.1 11.6ZM17.85 14.4L13.6 19.7C13.3 20.1 12.7 20.1 12.4 19.7L8.15 14.35C7.95 14.2 7.75 14 7.5 14H2.75C2.35 14 2 14.35 2 14.75V22C2 23.1 2.9 24 4 24H22C23.1 24 24 23.1 24 22V14.75C24 14.35 23.65 14 23.25 14H18.45C18.2 14 18 14.2 17.85 14.4Z" fill="#706E6B"/>
</svg>
