<svg width="26" height="26" viewBox="0 0 26 26" fill="none" xmlns="http://www.w3.org/2000/svg">
<path fill-rule="evenodd" clip-rule="evenodd" d="M23 1H11C9.9 1 9 1.9 9 3V3.05C9 3.4 9.2 3.75 9.5 3.95C9.65 4.05 11.55 5.95 11.55 5.95C11.7 6.1 11.95 5.95 11.95 5.75C11.95 5.35 12.3 4.95 12.7 4.95H21.2C21.6 4.95 22 5.35 22 5.75V19.25C22 19.65 21.6 19.95 21.2 19.95H12.7C12.3 19.95 12 19.65 12 19.25V19.2C12 19 11.75 18.9 11.6 19.05C11.6 19.05 9.7 20.95 9.5 21.05C9.2 21.25 9 21.55 9 21.95V22.95C9 24.05 9.85 24.95 10.95 24.95H22.95C24.05 24.95 25 24.05 25 22.95V3C25 1.9 24.1 1 23 1ZM17 24C16.15 24 15.5 23.35 15.5 22.5C15.5 21.65 16.15 21 17 21C17.85 21 18.5 21.65 18.5 22.5C18.5 23.35 17.85 24 17 24ZM14.8 11.95L8.55 5.7C8.25 5.4 7.8 5.4 7.5 5.7L6.45 6.75C6.15 7.05 6.15 7.5 6.45 7.8L8.75 10.1C9.05 10.4 8.85 10.95 8.4 10.95H1.75C1.35 11 1 11.35 1 11.75V13.25C1 13.65 1.35 14 1.75 14H8.35C8.8 14 9 14.55 8.7 14.85L6.4 17.15C6.1 17.45 6.1 17.9 6.4 18.2L7.45 19.25C7.75 19.55 8.2 19.55 8.5 19.25L14.8 13C15.05 12.75 15.05 12.25 14.8 11.95Z" fill="#706E6B"/>
</svg>
