<svg width="26" height="26" viewBox="0 0 26 26" fill="none" xmlns="http://www.w3.org/2000/svg">
<path fill-rule="evenodd" clip-rule="evenodd" d="M22.9 19.2C22.8 20.55 22.65 22 22.4 23.4C22.35 23.8 21.9 24.25 21.5 24.3C18.8 24.6 16.15 24.8 13.45 24.8C10.8 24.8 8.1 24.65 5.45 24.3C5.05 24.25 4.6 23.85 4.55 23.4C4.2 21.2 4 18.95 4 16.7C4 14.45 4.2 12.2 4.55 10C4.6 9.6 5.05 9.2 5.45 9.1C7.1 8.9 8.7 8.8 10.3 8.7C10.3 8.7 11.6 8.65 11.5 7.4C11.4 6.3 9.5 5.55 9.5 3.7C9.5 2.2 11 1 13.45 1C15.85 1 17.35 2.2 17.35 3.7C17.35 5.6 15.5 6.3 15.4 7.4C15.3 8.6 16.6 8.7 16.6 8.7C18.25 8.75 19.9 8.9 21.5 9.1C21.9 9.15 22.35 9.55 22.4 10C22.65 11.55 22.8 13 22.9 14.55C22.9 15 22.55 15.45 22.1 15.45H21.65C21.2 15.45 20.5 15.1 20.2 14.75C20.2 14.75 19.15 13.65 18 13.6C16.15 13.55 14.75 15.15 14.75 16.9C14.75 18.65 16.15 20.3 17.95 20.25C19.05 20.2 20.15 19.1 20.15 19.1C20.5 18.8 21.15 18.5 21.6 18.5H22.05C22.6 18.5 22.95 18.8 22.9 19.2Z" fill="#706E6B"/>
</svg>
