<svg width="26" height="26" viewBox="0 0 26 26" fill="none" xmlns="http://www.w3.org/2000/svg">
<rect width="26" height="26" fill="white"/>
<path fill-rule="evenodd" clip-rule="evenodd" d="M18.3167 6.5C17.6292 6.72917 17.0333 6.95833 16.6208 7.14167C16.2542 7.325 15.8417 7.55417 15.3375 7.875C15.3833 8.74583 15.3833 9.47917 15.3375 10.075C15.2917 10.6708 15.1542 11.4958 14.9708 12.6417C16.2542 13.5583 17.2167 14.2917 17.7667 14.75C17.8583 14.7958 18.0875 15.025 18.1792 15.1167L20.15 14.2917L20.1958 14.2458C20.4708 13.6042 20.7 12.7792 20.8833 11.725C21.0208 10.8542 21.0667 9.89167 20.975 8.8375L18.3167 6.5ZM17.6292 5.2625L17.5833 5.125C16.2542 4.34583 14.65 3.8875 13 3.8875C12.0833 3.8875 11.2125 4.025 10.3875 4.25417V4.62083C10.3875 4.85 10.3875 5.17083 10.3875 5.49167C11.1667 5.58333 11.8083 5.72083 12.3583 5.90417C12.9083 6.0875 13.5958 6.40833 14.4208 6.82083C15.0625 6.40833 15.5667 6.13333 16.025 5.90417C16.4375 5.72083 16.9875 5.49167 17.6292 5.2625ZM11.2583 20.8458C12.9083 20.6625 14.0083 20.4792 14.6042 20.3417C15.2458 20.1583 15.8417 20.0208 16.3458 19.8375C16.7583 18.9208 16.9875 18.2333 17.125 17.7292C17.2167 17.3625 17.3083 16.8583 17.4 16.2167C17.2167 16.0792 17.0333 15.9417 16.8958 15.8042C16.3458 15.3458 15.3375 14.6125 14.0083 13.6042C13.3667 14.0167 12.8167 14.2458 12.3125 14.3833C11.8083 14.5208 11.0292 14.6583 9.92917 14.7958C9.51667 15.6208 9.24167 16.3083 9.15 16.8125C9.0125 17.2708 8.92083 17.9583 8.82917 18.8292C9.24167 19.3333 9.5625 19.6542 9.8375 19.8833C10.1125 20.1125 10.6167 20.4333 11.2583 20.8V20.8458ZM5.39167 18.2792H7.5C7.59167 17.5458 7.68333 16.95 7.82083 16.4917C7.9125 15.9417 8.1875 15.2542 8.55417 14.475C8.05 13.8792 7.45417 13.1917 7.17917 12.7792C6.95 12.3667 6.58333 11.9542 6.17083 10.9917C5.9875 10.9917 5.75833 11.0375 5.575 11.0833C5.07083 11.2667 4.52083 11.5875 3.87917 12C3.83333 12.3667 3.83333 12.7333 3.83333 13.1C3.83333 15.025 4.42917 16.7667 5.39167 18.2792ZM21.8458 15.4833C22.075 14.7042 22.1667 13.925 22.1667 13.1C22.1667 12.8708 22.1667 12.6875 22.1667 12.4583C21.9833 13.2375 21.8 13.8792 21.5708 14.475C21.6625 14.5667 21.7083 14.7042 21.7542 14.8417C21.8 14.9792 21.8458 15.2083 21.8458 15.4833ZM5.94167 9.61667L5.9875 9.525C6.62917 8.47083 7.13333 7.7375 7.5 7.27917C7.82083 6.86667 8.37083 6.40833 9.05833 5.8125C9.0125 5.44583 9.0125 5.07917 9.0125 4.80417C6.8125 5.85833 5.11667 7.78333 4.29167 10.1667C4.6125 10.0292 4.8875 9.89167 5.1625 9.8C5.39167 9.70833 5.66667 9.6625 5.94167 9.61667ZM18.1333 20.7542C17.3083 21.0292 16.2542 21.3042 14.925 21.6708C14.2833 21.8542 13.1375 21.9917 11.4417 22.175C11.9458 22.2667 12.4958 22.3125 13 22.3125C14.8792 22.3125 16.6667 21.7167 18.1333 20.7542ZM24 13.1C24 19.1958 19.05 24.1458 13 24.1458C6.95 24.1458 2 19.1958 2 13.1C2 7.00417 6.95 2.05417 13 2.05417C19.05 2.05417 24 7.00417 24 13.1Z" fill="#706E6B"/>
</svg>
