<svg width="26" height="26" viewBox="0 0 26 26" fill="none" xmlns="http://www.w3.org/2000/svg">
<path fill-rule="evenodd" clip-rule="evenodd" d="M11.25 2.5H2.75C2.35 2.5 2 2.85 2 3.25V11.2C2 11.6 2.35 11.95 2.75 11.95H11.25C11.65 11.95 12 11.6 12 11.2V3.25C12 2.85 11.65 2.5 11.25 2.5ZM9.95 6.6H4.05V4.55H9.95V6.6ZM14.75 2.5H23.25C23.65 2.5 24 2.85 24 3.25V11.2C24 11.6 23.65 11.95 23.25 11.95H14.75C14.35 11.95 14 11.6 14 11.2V3.25C14 2.85 14.35 2.5 14.75 2.5ZM21.95 6.6H16.05V4.55H21.95V6.6ZM11.25 13.95H2.75C2.35 13.95 2 14.3 2 14.7V22.65C2 23.05 2.35 23.4 2.75 23.4H11.25C11.65 23.4 12 23.05 12 22.65V14.7C12 14.3 11.65 13.95 11.25 13.95ZM9.95 18.05H4.05V16H9.95V18.05ZM14.75 13.95H23.25C23.65 13.95 24 14.3 24 14.7V22.65C24 23.05 23.65 23.4 23.25 23.4H14.75C14.35 23.4 14 23.05 14 22.65V14.7C14 14.3 14.35 13.95 14.75 13.95ZM21.95 18.05H16.05V16H21.95V18.05Z" fill="#706E6B"/>
</svg>
