<svg width="26" height="26" viewBox="0 0 26 26" fill="none" xmlns="http://www.w3.org/2000/svg">
<path fill-rule="evenodd" clip-rule="evenodd" d="M11.5 13.6H11.7C11.8 12.25 12.3 11.05 13.05 10.1C12.65 9.69999 12.15 9.44999 11.5 9.44999C10.3 9.44999 9.40005 10.35 9.40005 11.55C9.40005 12.7 10.3 13.6 11.5 13.6ZM12.1 17.6C12.35 17.6 12.6 17.55 12.7 17.55C12.3 16.9 12 16.2 11.85 15.55H11.5C9.25005 15.55 7.30005 13.75 7.30005 11.35C7.30005 9.09999 9.10005 7.14999 11.5 7.14999C12.75 7.14999 13.95 7.69999 14.7 8.59999C15.3 8.24999 15.95 8.04999 16.65 7.94999C15.5 6.29999 13.6 5.24999 11.45 5.24999C7.85005 5.24999 5.15005 8.09999 5.15005 11.55C5.15005 15 8.00005 17.85 11.6 17.7C11.8 17.65 11.95 17.65 12.1 17.6ZM24.9501 22.75V23.45C24.9501 24.25 24.25 24.95 23.4501 24.95H11.4C10.6 24.95 9.90005 24.25 9.90005 23.45V22.75C9.90005 20.95 12.05 19.8 14.05 18.9L14.25 18.8C14.4 18.75 14.55 18.75 14.7 18.85C15.5 19.4 16.45 19.65 17.4 19.65C18.35 19.65 19.3 19.35 20.1 18.85C20.25 18.75 20.4 18.75 20.55 18.8L20.75 18.9C22.85 19.8 24.9501 20.9 24.9501 22.75ZM17.4 9.89999C19.5 9.89999 21.15 11.75 21.15 14.05C21.15 16.35 19.5 18.2 17.4 18.2C15.3 18.2 13.65 16.35 13.65 14.05C13.65 11.75 15.35 9.89999 17.4 9.89999ZM9.25005 19.6C5.80005 18.6 3.15005 15.35 3.15005 11.55C3.15005 6.89999 6.90005 3.14999 11.55 3.14999C15 3.14999 18.1 5.19999 19.35 8.24999C20.35 8.64999 21.25 9.29999 21.9 10.15C21.15 4.89999 16.8 1.04999 11.5 1.04999C5.65005 1.04999 1.05005 5.64999 1.05005 11.5C1.05005 16.1 3.95005 20 8.15005 21.35C8.35005 20.65 8.75005 20.1 9.25005 19.6Z" fill="#706E6B"/>
</svg>
