<svg width="26" height="26" viewBox="0 0 26 26" fill="none" xmlns="http://www.w3.org/2000/svg">
<path fill-rule="evenodd" clip-rule="evenodd" d="M5.99998 1.19999L2.39998 3.24999C2.04998 3.44999 1.84998 3.79999 1.84998 4.19999V8.29999C1.84998 8.69999 2.04998 9.04999 2.39998 9.24999L5.99998 11.3C6.29998 11.5 6.69998 11.5 7.04998 11.3L10.6 9.24999C10.95 9.04999 11.15 8.69999 11.15 8.29999V4.19999C11.15 3.79999 10.95 3.44999 10.6 3.24999L7.04998 1.19999C6.74998 0.999988 6.34998 0.999988 5.99998 1.19999ZM14.7 9.69999C14.7 10.3 15.2 10.8 15.8 10.8H22.9C23.5 10.8 24 10.3 24 9.69999V2.74999C24 2.14999 23.5 1.64999 22.9 1.64999H15.8C15.2 1.64999 14.7 2.14999 14.7 2.74999V9.69999ZM14.75 19.35L18.85 14.9C19.15 14.6 19.6 14.6 19.85 14.9L23.95 19.35C24.2 19.65 24.2 20.05 23.95 20.3L19.85 24.75C19.6 25.05 19.1 25.05 18.85 24.75L14.75 20.3C14.5 20 14.5 19.6 14.75 19.35ZM6.49998 24.35C9.0681 24.35 11.15 22.2681 11.15 19.7C11.15 17.1319 9.0681 15.05 6.49998 15.05C3.93185 15.05 1.84998 17.1319 1.84998 19.7C1.84998 22.2681 3.93185 24.35 6.49998 24.35Z" fill="#706E6B"/>
</svg>
