<svg width="26" height="26" viewBox="0 0 26 26" fill="none" xmlns="http://www.w3.org/2000/svg">
<path fill-rule="evenodd" clip-rule="evenodd" d="M24 18.35L22.8 13.25C22.65 12.7 21.95 12.5 21.55 12.85L17.7 16.4C17.25 16.8 17.45 17.5 18 17.65L19.65 18.15C19.5 18.5 19.35 18.85 19.15 19.15C18.25 20.65 16.8 21.6 14.5 21.9V9.40002C15.8 8.85002 16.7 7.55002 16.7 6.05002C16.7 4.05002 15.05 2.40002 13.05 2.40002C11 2.40002 9.40002 4.05002 9.40002 6.05002C9.40002 7.55002 10.3 8.80002 11.6 9.40002V21.9C9.30002 21.6 7.85002 20.65 6.95002 19.15C6.75002 18.8 6.60002 18.5 6.45002 18.15L8.10002 17.65C8.65002 17.5 8.80002 16.75 8.40002 16.4L4.50002 12.9C4.05002 12.5 3.40002 12.7 3.25002 13.3L2.00002 18.35C1.85002 18.9 2.40002 19.4 2.95002 19.25L4.25002 18.85C4.45002 19.4 4.65002 19.9 4.95002 20.4C6.40002 22.85 9.05002 24.3 12.95 24.3C16.85 24.3 19.45 22.85 20.95 20.4C21.25 19.9 21.5 19.35 21.65 18.85L22.95 19.25C23.6 19.4 24.1 18.9 24 18.35ZM13 7.60002C12.2 7.60002 11.55 6.95002 11.55 6.15002C11.55 5.35002 12.2 4.70002 13 4.70002C13.8 4.70002 14.45 5.35002 14.45 6.15002C14.45 6.95002 13.8 7.60002 13 7.60002Z" fill="#706E6B"/>
</svg>
