<svg width="26" height="26" viewBox="0 0 26 26" fill="none" xmlns="http://www.w3.org/2000/svg">
<path fill-rule="evenodd" clip-rule="evenodd" d="M11.35 22.731L10.7 22.231C10 21.731 10 20.731 10 20.231V18.781C10 18.381 9.65 18.031 9.25 18.031H6.25C5.85 18.031 5.5 18.381 5.5 18.781V22.631C5.5 23.981 6.3 25.031 7.55 25.031H10C11.45 25.031 11.55 24.031 11.55 24.031C11.55 24.031 11.8 23.131 11.35 22.731ZM22.5 9.03096V2.18096C22.5 0.980962 21 0.630962 20.2 1.43096L15.75 5.63096C15.05 6.23096 14.15 6.48096 13.25 6.48096H5.65C3.05 6.53096 1 8.78096 1 11.381V11.481C1 14.081 3.05 16.031 5.65 16.031H13.25C14.2 16.031 15.1 16.431 15.8 17.031L20.2 21.331C21 22.131 22.5 21.831 22.5 20.631V13.831C24 13.831 24.9 12.781 24.9 11.431C24.9 10.081 24 9.03096 22.5 9.03096Z" fill="#706E6B"/>
</svg>
