<svg width="26" height="26" viewBox="0 0 26 26" fill="none" xmlns="http://www.w3.org/2000/svg">
<path fill-rule="evenodd" clip-rule="evenodd" d="M9 5.5C4.55 5.5 1 8.75 1 12.85C1 14.15 1.35 15.35 2 16.45C2.05 16.6 2.1 16.75 2.05 16.9L1.3 19.2C1.15 19.65 1.55 20 2 19.85L4.35 19.05C4.5 19 4.7 19 4.8 19.1C6.05 19.8 7.45 20.2 9 20.2C13.45 20.2 17 16.95 17 12.85C17 8.75 13.4 5.5 9 5.5ZM12.85 11.2L8.8 15.2C8.65 15.35 8.45 15.45 8.25 15.45C8.05 15.45 7.85 15.4 7.7 15.2L5.7 13.25C5.55 13.1 5.55 12.85 5.7 12.7L6.25 12.15C6.4 12 6.65 12 6.8 12.15L8.2 13.55L11.7 10.1C11.85 9.95 12.1 9.95 12.25 10.1L12.8 10.65C13 10.8 13 11.05 12.85 11.2ZM17.35 5.5H15.25C17.6 7.2 19.35 9.9 19.35 12.85C19.35 15.8 17.5 18.6 15.25 20.2H17.35C21.8 20.2 25.35 16.95 25.35 12.85C25.3 8.75 21.75 5.5 17.35 5.5Z" fill="#706E6B"/>
</svg>
