<svg width="26" height="26" viewBox="0 0 26 26" fill="none" xmlns="http://www.w3.org/2000/svg">
<path fill-rule="evenodd" clip-rule="evenodd" d="M24.2417 20.0063H10.7417C10.3417 20.0063 9.99169 20.3563 9.99169 20.7563V22.2563C9.99169 22.6562 10.3417 23.0063 10.7417 23.0063H24.2417C24.6417 23.0063 24.9917 22.6562 24.9917 22.2563V20.7563C24.9917 20.3563 24.6417 20.0063 24.2417 20.0063ZM12.6917 10.9062L2.99169 3.15625C2.69169 2.90625 2.24169 2.95625 1.99169 3.30625L1.14169 4.50625C0.891693 4.85625 0.991693 5.30625 1.29169 5.55625L8.19169 11.0562C8.44169 11.2562 8.44169 11.6562 8.19169 11.8562L1.29169 17.3562C0.991693 17.6062 0.891693 18.1062 1.14169 18.4062L1.99169 19.7062C2.24169 20.0562 2.69169 20.1063 2.99169 19.8563L12.6917 12.1062C13.0917 11.8062 13.0917 11.2063 12.6917 10.9062Z" fill="#706E6B"/>
</svg>
