<svg width="26" height="26" viewBox="0 0 26 26" fill="none" xmlns="http://www.w3.org/2000/svg">
<path fill-rule="evenodd" clip-rule="evenodd" d="M22.6 1.15002H3.4C2.1 1.15002 1 2.25002 1 3.55002V5.95002C1 6.40002 1.35 6.75002 1.8 6.75002H24.2C24.65 6.75002 25 6.40002 25 5.95002V3.55002C25 2.25002 23.9 1.15002 22.6 1.15002ZM23.3 8.75002H2.75C2.3 8.75002 1.95 9.10002 1.95 9.55002V22.75C1.95 24.05 3.05 25.15 4.35 25.15H21.75C23.05 25.15 24.15 24.05 24.15 22.75V9.55002C24.1 9.10002 23.75 8.75002 23.3 8.75002ZM16.4 12.75H9.6C9.05 12.75 8.6 12.3 8.6 11.75C8.6 11.2 9.05 10.75 9.6 10.75H16.4C16.95 10.75 17.4 11.2 17.4 11.75C17.4 12.3 16.95 12.75 16.4 12.75Z" fill="#706E6B"/>
</svg>
