<svg width="26" height="26" viewBox="0 0 26 26" fill="none" xmlns="http://www.w3.org/2000/svg">
<path fill-rule="evenodd" clip-rule="evenodd" d="M13.05 8.2C10.4 8.2 8.2 10.35 8.2 13.05C8.2 15.75 10.35 17.9 13.05 17.9C15.7 17.9 17.9 15.75 17.9 13.05C17.9 10.35 15.7 8.2 13.05 8.2ZM13.05 16.55C11.1 16.55 9.5 14.95 9.5 13C9.5 11.05 11.1 9.45 13.05 9.45C15 9.45 16.6 11.05 16.6 13C16.55 14.95 14.95 16.55 13.05 16.55ZM24.65 16.05C24.9 15.1 25.05 14.05 25.05 13C25.05 11.95 24.9 10.95 24.65 9.95H23.3C23.1 9.2 22.8 8.5 22.45 7.85L23.4 6.9C22.35 5.15 20.9 3.65 19.1 2.6L18.15 3.55C17.5 3.2 16.8 2.9 16.05 2.7V1.4C15.1 1.15 14.05 1 13 1C11.95 1 10.95 1.15 9.95 1.4V2.75C9.25 2.95 8.55 3.25 7.9 3.6L6.9 2.65C5.1 3.7 3.65 5.2 2.6 6.95L3.55 7.9C3.2 8.55 2.9 9.25 2.7 10H1.4C1.15 10.95 1 11.95 1 13C1 14.05 1.15 15.05 1.4 16.05H2.75C2.95 16.8 3.25 17.5 3.6 18.15L2.65 19.1C3.7 20.85 5.15 22.35 6.95 23.4L7.9 22.45C8.55 22.8 9.25 23.1 10 23.3V24.65C10.95 24.9 12 25.05 13.05 25.05C14.1 25.05 15.1 24.9 16.1 24.65V23.3C16.85 23.1 17.55 22.8 18.2 22.45L19.15 23.4C20.9 22.35 22.4 20.9 23.45 19.1L22.5 18.15C22.85 17.5 23.15 16.8 23.35 16.05H24.65ZM21.75 19.3C21.4 19.75 21.05 20.2 20.6 20.6C20.2 21 19.75 21.4 19.3 21.75L18.35 20.8C17.3 21.55 16.05 22.05 14.75 22.3V23.6C14.2 23.7 13.6 23.75 13 23.75C12.4 23.75 11.85 23.7 11.25 23.6V22.3C9.95 22.05 8.7 21.55 7.65 20.8L6.7 21.75C6.25 21.4 5.8 21 5.4 20.6C5 20.2 4.6 19.75 4.25 19.3L5.2 18.35C4.45 17.3 3.95 16.05 3.7 14.75H2.4C2.3 14.2 2.25 13.6 2.25 13C2.25 12.4 2.3 11.85 2.4 11.25H3.75C4 9.95 4.5 8.7 5.25 7.65L4.3 6.7C4.65 6.25 5.05 5.8 5.45 5.4C5.85 5 6.3 4.6 6.75 4.25L7.7 5.2C8.75 4.45 10 3.95 11.3 3.7V2.4C11.85 2.3 12.45 2.25 13.05 2.25C13.65 2.25 14.2 2.3 14.8 2.4V3.75C16.1 4 17.35 4.5 18.4 5.25L19.35 4.3C19.8 4.65 20.25 5 20.65 5.45C21.05 5.85 21.45 6.3 21.8 6.75L20.85 7.7C21.6 8.75 22.1 10 22.35 11.3H23.7C23.8 11.85 23.85 12.45 23.85 13.05C23.85 13.65 23.8 14.2 23.7 14.8H22.35C22.1 16.1 21.6 17.35 20.85 18.4L21.75 19.3Z" fill="#706E6B"/>
</svg>
