<svg width="26" height="26" viewBox="0 0 26 26" fill="none" xmlns="http://www.w3.org/2000/svg">
<path fill-rule="evenodd" clip-rule="evenodd" d="M25 9.20039C25 8.80039 24.65 8.45039 24.25 8.45039H13.75C13.35 8.45039 13 8.80039 13 9.20039V10.7004C13 11.1004 13.35 11.4504 13.75 11.4504H20.9L13.15 20.9004V20.9504C13.05 21.0504 13 21.2004 13 21.3504V22.8504C13 23.2504 13.35 23.6004 13.75 23.6004H24.25C24.65 23.6004 25 23.2504 25 22.8504V21.3504C25 20.9504 24.65 20.6004 24.25 20.6004H17.25L24.85 11.3004C24.95 11.1504 25 10.9504 25 10.8004V9.20039ZM13 3.15039C13 2.75039 12.65 2.40039 12.25 2.40039H1.75C1.35 2.40039 1 2.75039 1 3.15039V4.65039C1 5.05039 1.35 5.40039 1.75 5.40039H8.9L1.15 14.8504V14.9004C1.05 15.0004 1 15.1504 1 15.3004V16.8004C1 17.2004 1.35 17.5504 1.75 17.5504H12.25C12.65 17.5504 13 17.2004 13 16.8004V15.3004C13 14.9004 12.65 14.5504 12.25 14.5504H5.25L12.85 5.25039C12.95 5.10039 13 4.90039 13 4.75039V3.15039Z" fill="#706E6B"/>
</svg>
