<svg width="26" height="26" viewBox="0 0 26 26" fill="none" xmlns="http://www.w3.org/2000/svg">
<path fill-rule="evenodd" clip-rule="evenodd" d="M25.6776 21.25L14.2276 2.75C13.6276 1.75 12.3276 1.75 11.7276 2.75L0.277573 21.25C-0.422427 22.4 0.277573 24 1.52757 24H24.4276C25.6776 24 26.4276 22.4 25.6776 21.25ZM12.9776 20C12.1276 20 11.4776 19.35 11.4776 18.5C11.4776 17.65 12.1276 17 12.9776 17C13.8276 17 14.4776 17.65 14.4776 18.5C14.4776 19.35 13.8276 20 12.9776 20ZM14.4776 15.5C14.4776 15.8 14.2776 16 13.9776 16H11.9776C11.6776 16 11.4776 15.8 11.4776 15.5V9C11.4776 8.7 11.6776 8.5 11.9776 8.5H13.9776C14.2776 8.5 14.4776 8.7 14.4776 9V15.5Z" fill="#706E6B"/>
</svg>
