<svg width="26" height="26" viewBox="0 0 26 26" fill="none" xmlns="http://www.w3.org/2000/svg">
<path d="M22.1516 3.01735L22.2464 3.03447L22.4321 3.08577C22.7364 3.18998 23.0119 3.387 23.2152 3.66483L23.3282 3.84112L25.628 7.96444C26.4566 9.45013 25.7418 9.84017 25.03 10.2656C24.3181 10.691 23.6857 10.8754 22.9188 9.82738L22.8058 9.65109L22.4122 8.94579L18.9782 22.7351C18.6328 24.122 16.8895 24.4487 16.089 23.3121L16.0412 23.2407L10.2598 14.1502L7.26844 20.7984C7.00123 21.3923 6.42548 21.7721 5.79232 21.7721H0.855027C0.652492 21.7721 0.0527096 21.5675 0.0287098 21.0168C0.00471006 20.4661 0.00120203 20.6288 0.00120203 20.0875L0.00100366 19.9769C5.78679e-05 19.7311 -0.00335987 19.8377 0.0117315 19.3096C0.0287094 18.7154 0.443664 18.403 0.855027 18.403H4.75427L8.5394 9.99056C9.07743 8.79478 10.675 8.67367 11.3757 9.77553L16.7416 18.2126L19.2257 8.23625L18.739 8.52754C17.6979 9.23848 17.2725 8.88814 16.6278 8.08935L16.5148 7.91305C16.1003 7.16986 15.9356 6.48813 16.5812 5.98235L17.1128 5.61191L21.104 3.22663C21.4337 3.02958 21.8022 2.96514 22.1516 3.01735Z" fill="#706E6B"/>
</svg>
