<svg width="26" height="26" viewBox="0 0 26 26" fill="none" xmlns="http://www.w3.org/2000/svg">
<path fill-rule="evenodd" clip-rule="evenodd" d="M20.15 13.45C20.15 13.95 19.7 14.4 19.2 14.4H7.8C7.3 14.4 6.85 13.95 6.85 13.45V12.5C6.85 12 7.3 11.55 7.8 11.55H19.25C19.75 11.55 20.2 12 20.2 12.5V13.45H20.15ZM18.25 19.15C18.25 19.65 17.8 20.1 17.3 20.1H7.8C7.3 20.1 6.85 19.65 6.85 19.15V18.2C6.85 17.7 7.3 17.25 7.8 17.25H17.35C17.85 17.25 18.3 17.7 18.3 18.2V19.15H18.25ZM6.85 6.75C6.85 6.25 7.3 5.8 7.8 5.8H17.35C17.85 5.8 18.3 6.25 18.3 6.75V7.7C18.3 8.2 17.85 8.65 17.35 8.65H7.8C7.3 8.65 6.85 8.2 6.85 7.7V6.75ZM21.1 2H5.9C4.3 2 3 3.3 3 4.85V21.05C3 22.6 4.3 23.9 5.85 23.9H21.1C22.65 23.9 23.95 22.6 23.95 21.05V4.85C24 3.3 22.7 2 21.1 2Z" fill="#706E6B"/>
</svg>
