<svg width="26" height="26" viewBox="0 0 26 26" fill="none" xmlns="http://www.w3.org/2000/svg">
<path fill-rule="evenodd" clip-rule="evenodd" d="M13 1C6.35 1 1 6.35 1 13C1 19.65 6.35 25 13 25C19.65 25 25 19.65 25 13C25 6.35 19.65 1 13 1ZM14 3.55H13.9H14ZM13 22.5C7.75 22.5 3.5 18.25 3.5 13C3.5 12.5 3.55 11.95 3.65 11.5C4.3 11.6 5.1 11.85 5.5 12.25C6.35 13.15 7.3 14.2 8.2 14.4C8.2 14.4 8.1 14.45 8 14.6C7.9 14.75 7.8 15.05 7.8 15.55C7.8 17.9 10 16.5 10 18.85C10 21.2 12.65 22.15 12.65 20.25C12.65 18.35 14.4 17.45 14.4 16C14.4 14.55 13.05 14.6 12.2 14.1C11.3 13.65 10.85 12.9 9.15 13.15C8.25 12.3 7.75 11.6 8.15 10.8C8.6 9.95 10.45 9.8 10.45 8.5C10.45 7.2 9.2 6.95 8.3 6.95C7.9 6.95 7.05 6.65 6.35 6.3C7.2 5.45 8.25 4.75 9.35 4.25C10.15 4.6 11.5 5.15 12.65 5.15C14 5.15 14.7 4.2 14.5 3.6C16.75 3.95 18.75 5.1 20.2 6.7C19.45 7.15 18.45 7.65 16.7 7.65C14.4 7.65 14.4 10 15.75 10.45C17.15 10.9 18.55 9.55 19 10.45C19.45 11.35 15.75 11.35 16.7 13.65C17.65 15.95 18.55 13.6 19.5 15.9C20.45 18.2 22.3 15.55 20.9 13.75C20.3 12.95 20.45 10.5 21.85 10.5H22.3C22.5 11.3 22.65 12.15 22.65 13C22.5 18.25 18.25 22.5 13 22.5Z" fill="#706E6B"/>
</svg>
