<svg width="48" height="48" viewBox="0 0 48 48" fill="none" xmlns="http://www.w3.org/2000/svg">
<rect width="48" height="48" rx="4" fill="#47CFD2"/>
<mask id="mask0_1518_27678" style="mask-type:luminance" maskUnits="userSpaceOnUse" x="0" y="0" width="48" height="48">
<rect width="48" height="48" rx="4" fill="white"/>
</mask>
<g mask="url(#mask0_1518_27678)">
<path d="M32.3179 34.6252C32.1965 34.9288 31.8929 34.9895 31.5893 34.9895H28.0679C27.7643 34.9895 27.5215 34.7466 27.5215 34.4431C27.5215 34.3823 27.5822 34.2002 27.5822 34.1395C27.5822 34.1395 27.5822 34.1395 27.6429 34.0788C27.7036 34.0181 27.7036 34.0181 27.7643 33.9573L35.5358 24.5466C35.7786 24.2431 35.8393 23.8181 35.6572 23.5145C35.6572 23.4538 35.5965 23.3931 35.5965 23.3931L27.5822 13.8002C27.5215 13.7395 27.5215 13.5573 27.5215 13.4966C27.5215 13.1931 27.8251 12.9502 28.0679 12.9502H31.5893C31.8929 12.9502 32.1965 13.0109 32.3179 13.3145L40.6358 23.3931C40.7572 23.5145 40.7572 23.7573 40.7572 23.9395C40.7572 24.1823 40.6965 24.3645 40.6358 24.5466L32.3179 34.6252Z" fill="white"/>
<path d="M23.6357 34.6252C23.5142 34.9288 23.2107 34.9895 22.9071 34.9895H19.3857C19.0821 34.9895 18.8392 34.7466 18.8392 34.4431C18.8392 34.3823 18.8999 34.2002 18.8999 34.1395C18.8999 34.1395 18.8999 34.1395 18.9607 34.0788C19.0214 34.0181 19.0214 34.0181 19.0821 33.9573L26.7928 24.5466C27.0357 24.2431 27.0964 23.8181 26.9142 23.5145C26.9142 23.4538 26.8535 23.3931 26.8535 23.3931L18.8999 13.8002C18.8392 13.7395 18.8392 13.5573 18.8392 13.4966C18.8392 13.1931 19.1428 12.9502 19.3857 12.9502H22.9071C23.2107 12.9502 23.5142 13.0109 23.6357 13.3145L31.9535 23.3931C32.0749 23.5145 32.0749 23.7573 32.0749 23.9395C32.0749 24.1823 32.0142 24.3645 31.9535 24.5466L23.6357 34.6252Z" fill="white"/>
<path d="M14.8929 34.6252C14.7714 34.9288 14.4679 34.9895 14.1643 34.9895H7.54643C7.24286 34.9895 7 34.7466 7 34.4431C7 34.3823 7.06071 34.2002 7.06071 34.1395C7.06071 34.1395 7.06071 34.1395 7.12143 34.0788C7.18214 34.0181 7.18214 34.0181 7.24286 33.9573L14.9536 24.5466C15.1964 24.2431 15.2571 23.8181 15.075 23.5145C15.075 23.4538 15.0143 23.3931 15.0143 23.3931L7.12143 13.8002C7 13.7395 7 13.6181 7 13.4966C7 13.1931 7.30357 12.9502 7.54643 12.9502H14.1036C14.4071 12.9502 14.7107 13.0109 14.8321 13.3145L23.15 23.3931C23.2714 23.5145 23.2714 23.7573 23.2714 23.9395C23.2714 24.1823 23.2107 24.3645 23.15 24.5466L14.8929 34.6252Z" fill="white"/>
</g>
</svg>
