<svg width="48" height="48" viewBox="0 0 48 48" fill="none" xmlns="http://www.w3.org/2000/svg">
<rect width="48" height="48" rx="4" fill="#2A739E"/>
<mask id="mask0_1518_27680" style="mask-type:luminance" maskUnits="userSpaceOnUse" x="0" y="0" width="48" height="48">
<rect width="48" height="48" rx="4" fill="white"/>
</mask>
<g mask="url(#mask0_1518_27680)">
<path d="M21.7706 12.2952C21.8821 12.5738 22.105 12.7411 22.3837 12.7411H37.7116C38.4362 12.7411 39.2165 12.9083 39.8853 13.187C40.164 13.3542 40.4985 13.1312 40.4985 12.7411C40.5542 11.1804 39.328 9.95418 37.7673 9.89844H37.7116H20.9345C20.7673 9.89844 20.6001 10.0099 20.6001 10.1771C20.6001 10.2329 20.6001 10.3443 20.6558 10.4001L21.7706 12.2952Z" fill="white"/>
<path fill-rule="evenodd" clip-rule="evenodd" d="M21.882 15.5836H37.7115H37.7673C39.3279 15.6393 40.5541 16.8655 40.4984 18.4262V36.8754V36.9311C40.4984 38.4918 39.2722 39.718 37.7115 39.718H9.84267H9.78693C8.22627 39.6623 7.00004 38.436 7.05578 36.8754V11.3475V11.2918C7.05578 9.73111 8.28201 8.50488 9.84267 8.50488H14.5804C15.5837 8.50488 16.5312 9.06226 16.9771 9.95406L19.4296 14.1901C19.9869 15.0262 20.8787 15.5836 21.882 15.5836ZM28.1246 34.2C28.7935 34.8131 29.7968 34.8131 30.4099 34.1442C30.4788 34.1787 30.5051 34.1705 30.5415 34.1593C30.5639 34.1524 30.5903 34.1442 30.6328 34.1442C31.2459 33.4196 31.1345 32.4164 30.4099 31.8032L24.8918 26.2852C24.9125 26.2131 24.9331 26.1428 24.9533 26.0738C25.0426 25.7694 25.1251 25.4885 25.1705 25.1705V24.7246C25.1705 22.3278 23.2755 20.4328 20.9345 20.4328C20.5443 20.4328 20.0984 20.4885 19.7082 20.6L19.6525 20.6557C19.541 20.7114 19.4853 20.8787 19.5968 20.9901L21.9935 23.3869C22.1607 23.5541 22.1607 23.8885 21.9935 24.0557L20.3214 25.7278C20.1541 25.895 19.8197 25.895 19.6525 25.7278L17.2558 23.3311C17.2558 23.3032 17.2558 23.2893 17.2488 23.2823C17.2418 23.2754 17.2279 23.2754 17.2 23.2754C17.0328 23.2196 16.9214 23.3311 16.8656 23.4426C16.7541 23.8328 16.6984 24.2787 16.6984 24.6688V25.1147C16.9771 27.4557 19.0951 29.1836 21.4361 28.9049H21.4361C21.8263 28.8491 22.2164 28.7934 22.5509 28.6262L28.0689 34.1442L28.1246 34.2Z" fill="white"/>
</g>
</svg>
