<svg width="48" height="48" viewBox="0 0 48 48" fill="none" xmlns="http://www.w3.org/2000/svg">
<rect width="48" height="48" rx="4" fill="#6BBD6E"/>
<mask id="mask0_1518_27684" style="mask-type:luminance" maskUnits="userSpaceOnUse" x="0" y="0" width="48" height="48">
<rect width="48" height="48" rx="4" fill="white"/>
</mask>
<g mask="url(#mask0_1518_27684)">
<path d="M23.1499 10.3994C20.2599 10.5694 17.9366 12.8927 17.7666 15.7827C17.8799 12.8361 20.2033 10.5127 23.1499 10.3994Z" fill="white"/>
<path d="M29.1 15.7827C28.93 12.8927 26.6067 10.5694 23.7167 10.3994C26.6633 10.5127 28.9867 12.8361 29.1 15.7827Z" fill="white"/>
<path d="M32.2733 26.7198L26.4933 24.7365C26.04 24.5665 25.7 24.1698 25.7 23.6598V15.9531C25.7 14.7631 24.7366 13.7998 23.5466 13.7998H23.32C22.13 13.7998 21.1666 14.7631 21.1666 15.9531V31.1965C21.1666 32.4998 19.5233 33.0098 18.8433 31.8765L17.37 28.7598C16.5766 27.3998 14.82 27.0598 13.5733 27.9665L12.6666 28.6465L17.54 40.2065C17.7666 40.7165 18.22 40.9998 18.7866 40.9998H31.5933C32.2166 40.9998 32.7266 40.5465 32.8966 39.9798L35.1633 31.8765C35.6166 29.6665 34.37 27.4565 32.2733 26.7198Z" fill="white"/>
<path d="M17.7667 21.8462V16.0662C17.7667 15.9529 17.7667 15.8962 17.7667 15.7829C17.9367 12.8929 20.26 10.5696 23.15 10.3996C23.2633 10.3996 23.32 10.3996 23.4333 10.3996C23.5467 10.3996 23.6033 10.3996 23.7167 10.3996C26.6067 10.5696 28.93 12.8929 29.1 15.7829C29.1 15.8962 29.1 15.9529 29.1 16.0662V21.8462C29.1 22.3562 29.7233 22.5829 30.0633 22.2429C31.5933 20.5996 32.5 18.4462 32.5 16.0662C32.5 10.7962 27.9667 6.54622 22.5833 7.05622C18.5033 7.45289 15.1033 10.6262 14.48 14.6496C14.0267 17.4829 14.9333 20.2596 16.8033 22.2429C17.1433 22.5829 17.7667 22.3562 17.7667 21.8462Z" fill="white"/>
</g>
</svg>
