<svg width="48" height="48" viewBox="0 0 48 48" fill="none" xmlns="http://www.w3.org/2000/svg">
<rect width="48" height="48" rx="4" fill="#F2CF5B"/>
<mask id="mask0_1518_27686" style="mask-type:luminance" maskUnits="userSpaceOnUse" x="0" y="0" width="48" height="48">
<rect width="48" height="48" rx="4" fill="white"/>
</mask>
<g mask="url(#mask0_1518_27686)">
<path d="M35.2419 36.3383C31.4032 34.4738 28.6613 31.1835 27.2903 27.3996C26.7419 25.9738 26.4129 24.4932 26.2484 23.0674V20.6545H33.7064C34.3097 20.6545 34.6387 19.9964 34.2548 19.448L24.5484 7.8222C24.2193 7.38349 23.4516 7.38349 23.1774 7.8222L13.6903 19.448C13.3613 19.8867 13.6903 20.6545 14.2387 20.6545H21.7516C21.7516 21.6964 21.7516 23.0125 21.7516 23.0125V23.0674C21.5871 24.548 21.2032 26.0835 20.7097 27.3996C19.2839 31.1286 16.5968 34.4738 12.7581 36.3383C12.2097 36.5577 11.9903 37.2157 12.2097 37.7641L13.0871 39.848C13.3613 40.4512 13.9645 40.6157 14.5677 40.2867C18.7355 38.3125 21.971 35.1319 24 31.4028C26.029 35.1867 29.2645 38.3125 33.4871 40.2867C34.0903 40.5609 34.6935 40.5061 34.9677 39.848L35.8452 37.7641C36.0645 37.2157 35.7903 36.5577 35.2419 36.3383Z" fill="white"/>
</g>
</svg>
