<svg width="48" height="48" viewBox="0 0 48 48" fill="none" xmlns="http://www.w3.org/2000/svg">
<rect width="48" height="48" rx="4" fill="#34BECD"/>
<mask id="mask0_1518_27692" style="mask-type:luminance" maskUnits="userSpaceOnUse" x="0" y="0" width="48" height="48">
<rect width="48" height="48" rx="4" fill="white"/>
</mask>
<g mask="url(#mask0_1518_27692)">
<path fill-rule="evenodd" clip-rule="evenodd" d="M40.4984 24.0001C40.4426 15.3608 32.9738 8.39355 23.7213 8.39355C14.4689 8.39355 7 15.3608 7 24.0001C7 26.787 7.78033 29.3509 9.11803 31.6362C9.28525 31.9149 9.34098 32.2493 9.22951 32.528L7.66885 37.4886C7.39016 38.3804 8.22623 39.1608 9.11803 38.8821L14.023 37.1542C14.3574 37.0427 14.6918 37.0985 14.9705 37.2657C17.5344 38.7706 20.5443 39.6067 23.7771 39.6067C33.0295 39.6067 40.4984 32.6395 40.4984 24.0001ZM30.3998 29.51C30.5121 30.6287 29.6696 31.8034 28.6025 31.8034H18.9424C17.8752 31.8034 17.0328 30.6287 17.0328 29.51C17.089 27.8318 18.83 26.825 20.6834 25.9859C21.9752 25.4265 22.1437 24.9231 22.1437 24.3637C22.1437 23.8043 21.8067 23.3009 21.3574 22.9093C20.6273 22.2381 20.178 21.2312 20.178 20.1125C20.178 17.9868 21.4697 16.1968 23.7163 16.1968C25.9628 16.1968 27.2546 17.9868 27.2546 20.1125C27.2546 21.2312 26.8615 22.2381 26.0752 22.9093C25.6258 23.3009 25.2889 23.8043 25.2889 24.3637C25.2889 24.9231 25.4574 25.4265 26.7491 25.93C28.6025 26.7131 30.3436 27.8318 30.3998 29.51Z" fill="white"/>
</g>
</svg>
