<svg width="48" height="48" viewBox="0 0 48 48" fill="none" xmlns="http://www.w3.org/2000/svg">
<rect width="48" height="48" rx="4" fill="#969492"/>
<mask id="mask0_1518_27365" style="mask-type:luminance" maskUnits="userSpaceOnUse" x="0" y="0" width="48" height="48">
<rect width="48" height="48" rx="4" fill="white"/>
</mask>
<g mask="url(#mask0_1518_27365)">
<path d="M37.0333 7H18.9C17.03 7 15.5 8.53 15.5 10.4V10.9667C15.5 11.3067 15.7267 11.5333 16.0667 11.5333H32.5C34.37 11.5333 35.9 13.0633 35.9 14.9333V32.5C35.9 32.84 36.1267 33.0667 36.4667 33.0667H37.0333C38.9033 33.0667 40.4333 31.5367 40.4333 29.6667V10.4C40.4333 8.53 38.9033 7 37.0333 7Z" fill="white"/>
<path fill-rule="evenodd" clip-rule="evenodd" d="M29.1 14.9333H10.9667C9.09665 14.9333 7.56665 16.4633 7.56665 18.3333V37.6C7.56665 39.47 9.09665 41 10.9667 41H29.1C30.97 41 32.5 39.47 32.5 37.6V18.3333C32.5 16.4633 30.97 14.9333 29.1 14.9333ZM15.5 35.3333C15.5 35.9567 14.99 36.4667 14.3667 36.4667H13.2333C12.61 36.4667 12.1 35.9567 12.1 35.3333V34.2C12.1 33.5767 12.61 33.0667 13.2333 33.0667H14.3667C14.99 33.0667 15.5 33.5767 15.5 34.2V35.3333ZM14.3667 29.6667C14.99 29.6667 15.5 29.1567 15.5 28.5333V27.4C15.5 26.7767 14.99 26.2667 14.3667 26.2667H13.2333C12.61 26.2667 12.1 26.7767 12.1 27.4V28.5333C12.1 29.1567 12.61 29.6667 13.2333 29.6667H14.3667ZM15.5 21.7333C15.5 22.3567 14.99 22.8667 14.3667 22.8667H13.2333C12.61 22.8667 12.1 22.3567 12.1 21.7333V20.6C12.1 19.9767 12.61 19.4667 13.2333 19.4667H14.3667C14.99 19.4667 15.5 19.9767 15.5 20.6V21.7333ZM26.8333 36.4667C27.4566 36.4667 27.9667 35.9567 27.9667 35.3333V34.2C27.9667 33.5767 27.4566 33.0667 26.8333 33.0667H19.0133C18.39 33.0667 17.88 33.5767 17.88 34.2V35.3333C17.88 35.9567 18.39 36.4667 19.0133 36.4667H26.8333ZM27.9667 28.5333C27.9667 29.1567 27.4566 29.6667 26.8333 29.6667H19.0133C18.39 29.6667 17.88 29.1567 17.88 28.5333V27.4C17.88 26.7767 18.39 26.2667 19.0133 26.2667H26.8333C27.4566 26.2667 27.9667 26.7767 27.9667 27.4V28.5333ZM26.8333 22.8667C27.4566 22.8667 27.9667 22.3567 27.9667 21.7333V20.6C27.9667 19.9767 27.4566 19.4667 26.8333 19.4667H19.0133C18.39 19.4667 17.88 19.9767 17.88 20.6V21.7333C17.88 22.3567 18.39 22.8667 19.0133 22.8667H26.8333Z" fill="white"/>
</g>
</svg>
