<svg width="48" height="48" viewBox="0 0 48 48" fill="none" xmlns="http://www.w3.org/2000/svg">
<rect width="48" height="48" rx="4" fill="#969492"/>
<mask id="mask0_1518_27696" style="mask-type:luminance" maskUnits="userSpaceOnUse" x="0" y="0" width="48" height="48">
<rect width="48" height="48" rx="4" fill="white"/>
</mask>
<g mask="url(#mask0_1518_27696)">
<path d="M37.0333 7H18.9C17.03 7 15.5 8.53 15.5 10.4V10.9667C15.5 11.3067 15.7267 11.5333 16.0667 11.5333H32.5C34.37 11.5333 35.9 13.0633 35.9 14.9333V32.5C35.9 32.84 36.1267 33.0667 36.4667 33.0667H37.0333C38.9033 33.0667 40.4333 31.5367 40.4333 29.6667V10.4C40.4333 8.53 38.9033 7 37.0333 7Z" fill="white"/>
<path fill-rule="evenodd" clip-rule="evenodd" d="M10.9667 14.9336H29.1C30.97 14.9336 32.5 16.4636 32.5 18.3336V37.6003C32.5 39.4703 30.97 41.0003 29.1 41.0003H10.9667C9.09665 41.0003 7.56665 39.4703 7.56665 37.6003V18.3336C7.56665 16.4636 9.09665 14.9336 10.9667 14.9336ZM18.9 33.2369L27.57 24.5669C27.8533 24.2836 27.8533 23.7169 27.57 23.3769L26.38 22.1869C26.04 21.8469 25.53 21.8469 25.19 22.1869L17.71 29.6669L14.7067 26.6636C14.3667 26.3236 13.8567 26.3236 13.5167 26.6636L12.3267 27.8536C11.9867 28.1936 11.9867 28.7036 12.3267 29.0436L16.52 33.2369C16.86 33.5769 17.3133 33.7469 17.71 33.7469C18.1633 33.7469 18.56 33.5769 18.9 33.2369Z" fill="white"/>
</g>
</svg>
