<svg width="26" height="26" viewBox="0 0 26 26" fill="none" xmlns="http://www.w3.org/2000/svg">
<path fill-rule="evenodd" clip-rule="evenodd" d="M16 8.75C16 8.35 15.65 8 15.25 8H10.75C10.35 8 10 8.35 10 8.75V22.25C10 22.65 10.35 23 10.75 23H15.25C15.65 23 16 22.65 16 22.25V8.75ZM7 8.75C7 8.35 6.65 8 6.25 8H1.75C1.35 8 1 8.35 1 8.75V24.25C1 24.65 1.35 25 1.75 25H6.25C6.65 25 7 24.65 7 24.25V8.75ZM25 8.75C25 8.35 24.65 8 24.25 8H19.75C19.35 8 19 8.35 19 8.75V20.25C19 20.65 19.35 21 19.75 21H24.25C24.65 21 25 20.65 25 20.25V8.75ZM25 1.75C25 1.35 24.65 1 24.25 1H1.75C1.35 1 1 1.35 1 1.75V4.25C1 4.65 1.35 5 1.75 5H24.25C24.65 5 25 4.65 25 4.25V1.75Z" fill="#706E6B"/>
</svg>
