<svg width="48" height="48" viewBox="0 0 48 48" fill="none" xmlns="http://www.w3.org/2000/svg">
<rect width="48" height="48" rx="4" fill="#3C97DD"/>
<mask id="mask0_1518_27569" style="mask-type:luminance" maskUnits="userSpaceOnUse" x="0" y="0" width="48" height="48">
<rect width="48" height="48" rx="4" fill="white"/>
</mask>
<g mask="url(#mask0_1518_27569)">
<path d="M23.8933 24.1863C23.0393 24.2432 22.2424 23.9016 21.3884 23.617C16.8912 22.1369 12.3939 20.6568 7.95354 19.1197C7.6689 19.0059 7.44119 18.892 7.21348 18.7212C6.92884 18.4935 6.92884 18.2089 7.21348 17.9812C7.44119 17.8104 7.72583 17.6396 8.01046 17.5827C12.7924 16.1595 17.5743 14.7363 22.3562 13.2562C23.4378 12.9146 24.5195 12.9146 25.658 13.2562C30.383 14.6794 35.1649 16.1026 39.8899 17.5257C40.1745 17.6396 40.4592 17.7535 40.7438 17.9242C41.0854 18.1519 41.0854 18.4935 40.7438 18.7212C40.5161 18.892 40.2884 19.0059 40.0607 19.0628C35.3357 20.6568 30.5538 22.2507 25.7719 23.7878C25.1457 24.0724 24.5764 24.1863 23.8933 24.1863Z" fill="white"/>
<path d="M14.4433 24.414C13.7601 24.2433 13.5894 24.6987 13.5894 25.0402C13.5894 26.8619 13.5894 28.6267 13.5894 30.4484C13.5894 31.0746 13.8171 31.4731 14.2156 31.8715C14.3863 32.0423 14.5571 32.1562 14.7279 32.27C15.8665 33.067 17.1758 33.5794 18.5421 33.9209C21.2177 34.661 23.9502 34.7749 26.6827 34.4333C28.4475 34.2056 30.2122 33.7502 31.8631 33.0101C32.6032 32.6685 33.2863 32.27 33.7986 31.7008C34.1402 31.3592 34.311 31.0176 34.2541 30.5053C34.311 28.7975 34.311 27.0327 34.311 25.2679C34.311 24.3002 33.6279 24.414 33.3432 24.471C30.8384 25.3249 28.2767 26.1219 25.7719 26.9758C24.5195 27.3743 23.324 27.3743 22.0716 26.9758L14.4433 24.414Z" fill="white"/>
<path d="M38.1252 22.7632C37.8975 22.8201 37.8405 22.934 37.8405 23.1617C37.8405 24.7557 37.8405 26.3497 37.8405 27.9436C37.8405 28.1144 37.7836 28.2852 37.7267 28.456C37.3851 29.3099 36.9866 30.1638 36.702 31.0177C36.4173 31.8147 36.5881 32.6117 37.1574 33.2379C37.3282 33.4656 37.5559 33.6364 37.7836 33.8072C38.0113 33.978 38.3529 34.0918 38.6375 34.1487C39.1499 34.2057 39.5484 33.921 39.8899 33.6364C40.0607 33.4656 40.2315 33.2948 40.4023 33.124C40.8008 32.6117 40.9146 31.8716 40.7438 31.1885C40.5161 30.2207 40.1176 29.3668 39.6622 28.5129C39.5484 28.3421 39.4914 28.1144 39.4914 27.9436C39.4914 26.1789 39.4914 24.471 39.4914 22.7063C39.4914 22.3647 39.2068 22.4217 39.0929 22.4786L38.1252 22.7632Z" fill="white"/>
</g>
</svg>
