<svg width="48" height="48" viewBox="0 0 48 48" fill="none" xmlns="http://www.w3.org/2000/svg">
<g clip-path="url(#clip0_1518_27982)">
<mask id="mask0_1518_27982" style="mask-type:alpha" maskUnits="userSpaceOnUse" x="0" y="0" width="48" height="48">
<path d="M44 0H4C1.79086 0 0 1.79086 0 4V44C0 46.2091 1.79086 48 4 48H44C46.2091 48 48 46.2091 48 44V4C48 1.79086 46.2091 0 44 0Z" fill="white"/>
</mask>
<g mask="url(#mask0_1518_27982)">
<path d="M44 0H4C1.79086 0 0 1.79086 0 4V44C0 46.2091 1.79086 48 4 48H44C46.2091 48 48 46.2091 48 44V4C48 1.79086 46.2091 0 44 0Z" fill="#00A1E0"/>
<path d="M36.5233 22.1305C34.8233 14.3105 26.4933 8.58716 24.85 7.45383C24.7933 7.39716 24.7366 7.39716 24.6233 7.34049C24.1859 7.17036 23.7007 7.17036 23.2633 7.34049C23.2066 7.34049 23.2066 7.39716 23.15 7.39716C21.5066 8.47383 13.2333 14.1972 11.4766 22.0172C10.5821 25.8164 11.5034 29.8156 13.97 32.8405C16.0358 35.4949 18.9965 37.3075 22.3 37.9405L21.45 39.4138C21.3365 39.7249 21.3365 40.0661 21.45 40.3772C21.6192 40.6893 21.9449 40.8847 22.3 40.8872H25.7566C26.1032 40.8566 26.4166 40.6686 26.6066 40.3772C26.7201 40.0661 26.7201 39.7249 26.6066 39.4138L25.7566 37.9405C29.069 37.3306 32.0373 35.5133 34.0866 32.8405C36.4867 29.8275 37.3836 25.8853 36.5233 22.1305ZM31.82 31.0272C31.5366 31.3672 31.1966 31.7072 30.8566 32.1038C29.7128 29.3587 27.0306 27.5705 24.0566 27.5705H23.83C20.8834 27.5267 18.2283 29.3422 17.2 32.1038C16.86 31.7638 16.5766 31.4238 16.2366 31.0272C14.3399 28.6982 13.6096 25.631 14.2533 22.6972C15.6133 16.6905 21.79 11.8172 24 10.3438C26.21 11.8738 32.3866 16.7472 33.7466 22.7538C34.4608 25.6611 33.7451 28.7346 31.82 31.0272Z" fill="white"/>
<path d="M24 26.6645C26.6289 26.6645 28.76 24.5334 28.76 21.9045C28.76 19.2757 26.6289 17.1445 24 17.1445C21.3711 17.1445 19.24 19.2757 19.24 21.9045C19.24 24.5334 21.3711 26.6645 24 26.6645Z" fill="white"/>
</g>
</g>
<defs>
<clipPath id="clip0_1518_27982">
<rect width="48" height="48" fill="white"/>
</clipPath>
</defs>
</svg>
