<svg width="48" height="48" viewBox="0 0 48 48" fill="none" xmlns="http://www.w3.org/2000/svg">
<g clip-path="url(#clip0_1518_27952)">
<mask id="mask0_1518_27952" style="mask-type:alpha" maskUnits="userSpaceOnUse" x="0" y="0" width="48" height="48">
<path d="M44 0H4C1.79086 0 0 1.79086 0 4V44C0 46.2091 1.79086 48 4 48H44C46.2091 48 48 46.2091 48 44V4C48 1.79086 46.2091 0 44 0Z" fill="white"/>
</mask>
<g mask="url(#mask0_1518_27952)">
<path d="M44 0H4C1.79086 0 0 1.79086 0 4V44C0 46.2091 1.79086 48 4 48H44C46.2091 48 48 46.2091 48 44V4C48 1.79086 46.2091 0 44 0Z" fill="#00A1E0"/>
<path d="M37.4867 12.4961H10.57C9.66831 12.4961 8.8035 12.8543 8.16588 13.4919C7.52826 14.1296 7.17004 14.9944 7.17004 15.8961V32.1028C7.17004 33.9805 8.69228 35.5028 10.57 35.5028H37.43C39.3078 35.5028 40.83 33.9805 40.83 32.1028V15.8961C40.7923 14.056 39.3259 12.5648 37.4867 12.4961ZM17.71 15.5561C20.0886 15.5561 22.0167 17.4843 22.0167 19.8628C22.0167 22.2413 20.0886 24.1694 17.71 24.1694C15.3315 24.1694 13.4034 22.2413 13.4034 19.8628C13.4219 17.492 15.3392 15.5746 17.71 15.5561ZM23.2634 31.5928H12.2134C11.25 31.5928 11.08 30.9694 11.08 30.6861C11.5208 27.4601 14.2841 25.0603 17.54 25.0761H17.7667C21.0226 25.0603 23.786 27.4601 24.2267 30.6861C24.3967 30.9694 24.2267 31.5928 23.2634 31.5928ZM36.3534 27.6828C36.3534 28.3087 35.846 28.8161 35.22 28.8161H30.2334C29.6075 28.8161 29.1 28.3087 29.1 27.6828V25.9828C29.1 25.3568 29.6075 24.8494 30.2334 24.8494H35.22C35.846 24.8494 36.3534 25.3568 36.3534 25.9828V27.6828ZM36.3534 21.4494C36.3534 22.0754 35.846 22.5828 35.22 22.5828H26.8334C26.2075 22.5828 25.7 22.0754 25.7 21.4494V19.7494C25.7 19.1235 26.2075 18.6161 26.8334 18.6161H35.22C35.846 18.6161 36.3534 19.1235 36.3534 19.7494V21.4494Z" fill="white"/>
</g>
</g>
<defs>
<clipPath id="clip0_1518_27952">
<rect width="48" height="48" fill="white"/>
</clipPath>
</defs>
</svg>
