<svg width="48" height="48" viewBox="0 0 48 48" fill="none" xmlns="http://www.w3.org/2000/svg">
<rect width="48" height="48" rx="4" fill="#F49756"/>
<mask id="mask0_1518_27587" style="mask-type:luminance" maskUnits="userSpaceOnUse" x="0" y="0" width="48" height="48">
<rect width="48" height="48" rx="4" fill="white"/>
</mask>
<g mask="url(#mask0_1518_27587)">
<path fill-rule="evenodd" clip-rule="evenodd" d="M37.4885 14.1902L25.7278 7.61316C24.6131 7.00004 23.2753 7.00004 22.1606 7.61316L10.3999 14.2459C9.28519 14.8591 8.61633 16.0295 8.61633 17.2558V30.4656C8.67207 31.6918 9.34092 32.8066 10.3999 33.4755L22.1606 40.1082C23.2753 40.7214 24.6131 40.7214 25.7278 40.1082L37.4885 33.4755C38.6032 32.8623 39.2721 31.6918 39.2163 30.4656V17.2C39.2163 15.9738 38.5475 14.8033 37.4885 14.1902ZM18.8721 18.4263V32.3607C18.8721 33.0296 18.3704 33.5312 17.7016 33.5869C17.0327 33.5869 16.5311 33.0296 16.5311 32.3607V18.4263C16.1409 18.0361 15.918 17.5345 15.918 17.0328C15.918 16.0295 16.754 15.2492 17.7573 15.305C18.7606 15.3607 19.5409 16.141 19.4852 17.1443C19.4852 17.6459 19.2622 18.0918 18.8721 18.4263ZM32.918 27.6787C33.0852 27.5673 33.1967 27.4 33.1967 27.1771V18.8722C33.1967 18.8443 33.1827 18.8164 33.1688 18.7886C33.1549 18.7607 33.1409 18.7328 33.1409 18.705C33.0852 18.5935 32.918 18.5377 32.7508 18.5935C30.2566 19.9296 28.3635 19.3202 26.4732 18.7117C24.8151 18.178 23.1592 17.6449 21.1016 18.4263C20.8786 18.5377 20.7114 18.7607 20.7114 18.9836V26.8984V27.0656C20.8229 27.4 21.1573 27.5673 21.4917 27.4558C23.3954 26.8546 24.9613 27.3566 26.5284 27.8589C28.4486 28.4744 30.3707 29.0905 32.918 27.6787Z" fill="white"/>
</g>
</svg>
