<svg width="48" height="48" viewBox="0 0 48 48" fill="none" xmlns="http://www.w3.org/2000/svg">
<rect width="48" height="48" rx="4" fill="#7E8BE4"/>
<mask id="mask0_1518_27583" style="mask-type:luminance" maskUnits="userSpaceOnUse" x="0" y="0" width="48" height="48">
<rect width="48" height="48" rx="4" fill="white"/>
</mask>
<g mask="url(#mask0_1518_27583)">
<path fill-rule="evenodd" clip-rule="evenodd" d="M15.5279 7.27881H35.9836C38.1016 7.33455 39.7738 9.00668 39.8295 11.1247V36.9313C39.7738 39.0493 38.1016 40.7214 35.9836 40.7772H15.5279C13.4656 40.7772 11.682 39.4952 11.682 36.9313H10.4H10.3443C8.95081 36.9313 7.83606 35.7608 7.83606 34.3673C7.83606 32.9182 9.00655 31.8034 10.4 31.8034H11.682V26.6198H10.4C9.00655 26.6198 7.83606 25.4493 7.83606 24.0559C7.83606 22.6624 9.00655 21.4919 10.4 21.4919H11.682V16.3083H10.4H10.3443C8.95081 16.3083 7.83606 15.1378 7.83606 13.7444V13.6886C7.83606 12.2952 9.00655 11.1247 10.4 11.1247H11.682C11.7377 9.06242 13.4656 7.33455 15.5279 7.27881ZM17.1443 32.4165H34.1443V15.6952H17.1443V32.4165Z" fill="white"/>
<path d="M20.0984 21.5475H31.1902C31.4131 21.5475 31.6361 21.3802 31.6361 21.1573V21.1016V18.5934C31.6361 18.3704 31.4689 18.1475 31.2459 18.1475H31.1902H20.0984C19.8754 18.1475 19.6525 18.3147 19.6525 18.5376V18.5934V21.1016C19.6525 21.3245 19.8197 21.5475 20.0426 21.5475H20.0984Z" fill="white"/>
<path d="M20.0984 29.9082H22.6623C22.8853 29.9082 23.1082 29.741 23.1082 29.518V29.4623V24.4459C23.1082 24.223 22.941 24 22.718 24H22.6623H20.0984C19.8754 24 19.6525 24.1672 19.6525 24.3902V24.4459V29.4623C19.6525 29.6852 19.8197 29.9082 20.0426 29.9082H20.0984Z" fill="white"/>
<path d="M31.1344 24.0557H26.0066C25.7836 24.0557 25.5607 24.2229 25.5607 24.4458V24.5016V29.518C25.5607 29.7409 25.7279 29.9639 25.9508 29.9639H26.0066H31.1344C31.3574 29.9639 31.5803 29.7966 31.5803 29.5737V29.518V24.5016C31.5803 24.2786 31.4131 24.0557 31.1902 24.0557H31.1344Z" fill="white"/>
</g>
</svg>
