<svg width="48" height="48" viewBox="0 0 48 48" fill="none" xmlns="http://www.w3.org/2000/svg">
<rect width="48" height="48" rx="4" fill="#7E8BE4"/>
<mask id="mask0_1518_27581" style="mask-type:luminance" maskUnits="userSpaceOnUse" x="0" y="0" width="48" height="48">
<rect width="48" height="48" rx="4" fill="white"/>
</mask>
<g mask="url(#mask0_1518_27581)">
<path d="M27.3442 40.7771V31.5804L32.5836 25.7837H39.9967V36.9312C39.941 39.0493 38.2688 40.7214 36.1508 40.7771H27.3442Z" fill="white"/>
<path d="M23.9999 40.7772H15.7508C13.6885 40.7772 11.9049 39.4952 11.9049 36.9313H10.6229C9.22945 36.9313 8.05896 35.8165 8.05896 34.4231V34.3673C8.05896 32.9739 9.22945 31.8034 10.6229 31.8034H11.9049V26.6198H10.6229C9.22945 26.6198 8.05896 25.4493 8.05896 24.0559C8.05896 22.6624 9.22945 21.4919 10.6229 21.4919H11.9049V16.3083H10.6229C9.22945 16.3083 8.05896 15.1936 8.05896 13.8001V13.7444C8.05896 12.3509 9.17371 11.1804 10.5672 11.1247H10.6229H11.9049C12.0163 9.06242 13.6885 7.39028 15.7508 7.27881H36.1508C38.2688 7.33455 39.9409 9.00668 39.9967 11.1247V22.3837H32.3606L26.3967 15.8067C25.9508 15.3608 25.1704 15.3608 24.7245 15.8067L17.8688 23.3313C17.4786 23.7772 17.4786 24.446 17.8688 24.8919L23.8885 31.5247C23.8885 31.5247 23.9442 40.7772 23.9999 40.7772Z" fill="white"/>
</g>
</svg>
