<svg width="48" height="48" viewBox="0 0 48 48" fill="none" xmlns="http://www.w3.org/2000/svg">
<rect width="48" height="48" rx="4" fill="#54698D"/>
<mask id="mask0_1518_27591" style="mask-type:luminance" maskUnits="userSpaceOnUse" x="0" y="0" width="48" height="48">
<rect width="48" height="48" rx="4" fill="white"/>
</mask>
<g mask="url(#mask0_1518_27591)">
<path fill-rule="evenodd" clip-rule="evenodd" d="M20.09 22.3C20.3167 19.92 20.9967 17.5967 22.13 15.6133C24 12.3833 27.0033 10.5133 31.0833 10.4C31.7633 8.41667 33.69 7 35.9 7C38.7333 7 41 9.26667 41 12.1C41 14.9333 38.7333 17.2 35.9 17.2C33.69 17.2 31.82 15.7833 31.0833 13.8C26.4933 13.97 24 17.54 23.49 22.3H31.0833C31.7633 20.3167 33.69 18.9 35.9 18.9C38.7333 18.9 41 21.1667 41 24C41 26.8333 38.7333 29.1 35.9 29.1C33.69 29.1 31.7633 27.6833 31.0833 25.7H23.49C23.8867 30.8 26.2667 34.2567 31.0833 34.2C31.7633 32.2167 33.69 30.8 35.9 30.8C38.7333 30.8 41 33.0667 41 35.9C41 38.7333 38.7333 41 35.9 41C33.69 41 31.7633 39.5833 31.0833 37.6C26.89 37.6567 23.83 35.73 21.96 32.4433C20.8833 30.46 20.26 28.1367 20.09 25.7H16.9167C16.2367 27.6833 14.31 29.1 12.1 29.1C9.26667 29.1 7 26.8333 7 24C7 21.1667 9.26667 18.9 12.1 18.9C14.31 18.9 16.2367 20.3167 16.9167 22.3H20.09ZM35.9 13.8C36.8633 13.8 37.6 13.0633 37.6 12.1C37.6 11.1367 36.8633 10.4 35.9 10.4C34.9367 10.4 34.2 11.1367 34.2 12.1C34.2 13.0633 34.9367 13.8 35.9 13.8ZM37.6 35.9C37.6 36.8633 36.8633 37.6 35.9 37.6C34.9367 37.6 34.2 36.8633 34.2 35.9C34.2 34.9367 34.9367 34.2 35.9 34.2C36.8633 34.2 37.6 34.9367 37.6 35.9ZM35.9 25.7C36.8633 25.7 37.6 24.9633 37.6 24C37.6 23.0367 36.8633 22.3 35.9 22.3C34.9367 22.3 34.2 23.0367 34.2 24C34.2 24.9633 34.9367 25.7 35.9 25.7ZM13.8 24C13.8 24.9633 13.0633 25.7 12.1 25.7C11.1367 25.7 10.4 24.9633 10.4 24C10.4 23.0367 11.1367 22.3 12.1 22.3C13.0633 22.3 13.8 23.0367 13.8 24Z" fill="white"/>
</g>
</svg>
