<svg width="48" height="48" viewBox="0 0 48 48" fill="none" xmlns="http://www.w3.org/2000/svg">
<rect width="48" height="48" rx="4" fill="#EB7092"/>
<mask id="mask0_1518_27593" style="mask-type:luminance" maskUnits="userSpaceOnUse" x="0" y="0" width="48" height="48">
<rect width="48" height="48" rx="4" fill="white"/>
</mask>
<g mask="url(#mask0_1518_27593)">
<path fill-rule="evenodd" clip-rule="evenodd" d="M38.7333 19.4668H9.26663C8.6433 19.4668 8.1333 19.9768 8.1333 20.6001V37.6001C8.1333 39.4701 9.6633 41.0001 11.5333 41.0001H36.4666C38.3366 41.0001 39.8666 39.4701 39.8666 37.6001V20.6001C39.8666 19.9768 39.3566 19.4668 38.7333 19.4668ZM18.3333 35.3335C18.3333 35.9568 17.8233 36.4668 17.2 36.4668H14.9333C14.31 36.4668 13.8 35.9568 13.8 35.3335V33.0668C13.8 32.4435 14.31 31.9335 14.9333 31.9335H17.2C17.8233 31.9335 18.3333 32.4435 18.3333 33.0668V35.3335ZM17.2 28.5335C17.8233 28.5335 18.3333 28.0235 18.3333 27.4001V25.1335C18.3333 24.5101 17.8233 24.0001 17.2 24.0001H14.9333C14.31 24.0001 13.8 24.5101 13.8 25.1335V27.4001C13.8 28.0235 14.31 28.5335 14.9333 28.5335H17.2ZM26.2666 35.3335C26.2666 35.9568 25.7566 36.4668 25.1333 36.4668H22.8666C22.2433 36.4668 21.7333 35.9568 21.7333 35.3335V33.0668C21.7333 32.4435 22.2433 31.9335 22.8666 31.9335H25.1333C25.7566 31.9335 26.2666 32.4435 26.2666 33.0668V35.3335ZM25.1333 28.5335C25.7566 28.5335 26.2666 28.0235 26.2666 27.4001V25.1335C26.2666 24.5101 25.7566 24.0001 25.1333 24.0001H22.8666C22.2433 24.0001 21.7333 24.5101 21.7333 25.1335V27.4001C21.7333 28.0235 22.2433 28.5335 22.8666 28.5335H25.1333ZM34.2 35.3335C34.2 35.9568 33.69 36.4668 33.0666 36.4668H30.8C30.1766 36.4668 29.6666 35.9568 29.6666 35.3335V33.0668C29.6666 32.4435 30.1766 31.9335 30.8 31.9335H33.0666C33.69 31.9335 34.2 32.4435 34.2 33.0668V35.3335ZM33.0666 28.5335C33.69 28.5335 34.2 28.0235 34.2 27.4001V25.1335C34.2 24.5101 33.69 24.0001 33.0666 24.0001H30.8C30.1766 24.0001 29.6666 24.5101 29.6666 25.1335V27.4001C29.6666 28.0235 30.1766 28.5335 30.8 28.5335H33.0666Z" fill="white"/>
<path d="M36.4666 10.4H33.6333V9.26667C33.6333 8.02 32.6133 7 31.3666 7C30.12 7 29.1 8.02 29.1 9.26667V10.4H18.9V9.26667C18.9 8.02 17.88 7 16.6333 7C15.3866 7 14.3666 8.02 14.3666 9.26667V10.4H11.5333C9.6633 10.4 8.1333 11.93 8.1333 13.8V14.9333C8.1333 15.5567 8.6433 16.0667 9.26663 16.0667H38.7333C39.3566 16.0667 39.8666 15.5567 39.8666 14.9333V13.8C39.8666 11.93 38.3366 10.4 36.4666 10.4Z" fill="white"/>
</g>
</svg>
