<svg width="48" height="48" viewBox="0 0 48 48" fill="none" xmlns="http://www.w3.org/2000/svg">
<g clip-path="url(#clip0_1518_27980)">
<mask id="mask0_1518_27980" style="mask-type:alpha" maskUnits="userSpaceOnUse" x="0" y="0" width="48" height="48">
<path d="M44 0H4C1.79086 0 0 1.79086 0 4V44C0 46.2091 1.79086 48 4 48H44C46.2091 48 48 46.2091 48 44V4C48 1.79086 46.2091 0 44 0Z" fill="white"/>
</mask>
<g mask="url(#mask0_1518_27980)">
<path d="M44 0H4C1.79086 0 0 1.79086 0 4V44C0 46.2091 1.79086 48 4 48H44C46.2091 48 48 46.2091 48 44V4C48 1.79086 46.2091 0 44 0Z" fill="#3A3180"/>
<path d="M38.1667 9.15297H9.83336C9.14157 9.15147 8.47768 9.42561 7.98851 9.91478C7.49933 10.404 7.22519 11.0678 7.22669 11.7596V37.5996C7.22755 37.8542 7.38044 38.0837 7.61507 38.1825C7.84971 38.2812 8.12067 38.2303 8.30336 38.053L10.6267 35.7296C10.7337 35.587 10.9017 35.503 11.08 35.503C11.2584 35.503 11.4263 35.587 11.5334 35.7296L14.48 38.6763C14.587 38.819 14.755 38.903 14.9334 38.903C15.1117 38.903 15.2797 38.819 15.3867 38.6763L17.71 36.353C17.817 36.2103 17.985 36.1263 18.1634 36.1263C18.3417 36.1263 18.5097 36.2103 18.6167 36.353L20.94 38.6763C21.047 38.819 21.215 38.903 21.3934 38.903C21.5717 38.903 21.7397 38.819 21.8467 38.6763L24.17 36.353C24.277 36.2103 24.445 36.1263 24.6234 36.1263C24.8017 36.1263 24.9697 36.2103 25.0767 36.353L27.4 38.6763C27.507 38.819 27.675 38.903 27.8534 38.903C28.0317 38.903 28.1997 38.819 28.3067 38.6763L30.63 36.353C30.737 36.2103 30.905 36.1263 31.0834 36.1263C31.2617 36.1263 31.4297 36.2103 31.5367 36.353L33.86 38.6763C33.967 38.819 34.135 38.903 34.3134 38.903C34.4917 38.903 34.6597 38.819 34.7667 38.6763L37.09 36.353C37.197 36.2103 37.365 36.1263 37.5434 36.1263C37.7217 36.1263 37.8897 36.2103 37.9967 36.353L39.6967 38.053C39.8794 38.2303 40.1504 38.2812 40.385 38.1825C40.6196 38.0837 40.7725 37.8542 40.7734 37.5996V11.703C40.7734 11.0167 40.4971 10.3594 40.0066 9.87952C39.516 9.39964 38.8528 9.13772 38.1667 9.15297ZM25.7 24.2263V24.8496C25.1859 25.2132 24.573 25.4109 23.9434 25.4163C22.1908 25.4163 20.77 23.9956 20.77 22.243C20.77 20.4904 22.1908 19.0696 23.9434 19.0696C25.6122 19.0626 27.0003 20.3515 27.1167 22.0163C26.2707 22.4327 25.7252 23.2837 25.7 24.2263ZM34.2 32.2163C34.1648 32.6609 33.796 33.0052 33.35 33.0096H28.25C27.8157 33.0006 27.4657 32.6507 27.4567 32.2163V31.423C27.4657 30.9886 27.8157 30.6387 28.25 30.6296H33.4067C33.8411 30.6387 34.191 30.9886 34.2 31.423V32.2163ZM34.2 28.6463C34.1648 29.0909 33.796 29.4352 33.35 29.4396H28.25C27.8157 29.4306 27.4657 29.0807 27.4567 28.6463V27.853C27.4657 27.4186 27.8157 27.0687 28.25 27.0596H33.4067C33.8411 27.0687 34.191 27.4186 34.2 27.853V28.6463ZM34.2 25.0196C34.1648 25.4643 33.796 25.8085 33.35 25.813H28.25C27.8157 25.804 27.4657 25.454 27.4567 25.0196V24.2263C27.4657 23.792 27.8157 23.442 28.25 23.433H33.4067C33.8411 23.442 34.191 23.792 34.2 24.2263V25.0196ZM34.2568 21.7896C34.0031 21.6967 33.7328 21.6581 33.4634 21.6763H31.82V19.9763C30.5682 19.9763 29.5534 18.9615 29.5534 17.7096H18.3334C18.3334 18.9615 17.3185 19.9763 16.0667 19.9763V24.7363C17.3185 24.7363 18.3334 25.7511 18.3334 27.003H25.8134C25.7204 27.2566 25.6818 27.5268 25.7 27.7963V28.5896C25.7238 28.8786 25.7808 29.1638 25.87 29.4397H15.67C15.1577 29.4442 14.6649 29.2427 14.3026 28.8804C13.9403 28.5181 13.7388 28.0253 13.7433 27.513V17.2563C13.7388 16.7439 13.9403 16.2512 14.3026 15.8889C14.6649 15.5266 15.1577 15.3251 15.67 15.3296H32.33C32.8424 15.3251 33.3351 15.5266 33.6974 15.8889C34.0598 16.2512 34.2613 16.7439 34.2568 17.2563V21.7896Z" fill="white"/>
</g>
</g>
<defs>
<clipPath id="clip0_1518_27980">
<rect width="48" height="48" fill="white"/>
</clipPath>
</defs>
</svg>
