<svg width="26" height="26" viewBox="0 0 26 26" fill="none" xmlns="http://www.w3.org/2000/svg">
<path fill-rule="evenodd" clip-rule="evenodd" d="M22.575 1.00545H13.825C13.275 0.955452 12.775 1.25545 12.375 1.65545L1.675 12.4055C0.775 13.3055 0.775 14.8555 1.675 15.8055L10.175 24.3055C11.075 25.2055 12.625 25.2055 13.575 24.3055L24.425 13.4055C24.825 13.0055 25.075 12.3555 25.025 11.8055V3.40545C24.975 2.10545 23.875 1.00545 22.575 1.00545ZM13.925 18.6055L13.375 19.1555C13.075 19.4555 12.575 19.4555 12.275 19.1555L6.825 13.7555C6.525 13.4555 6.525 12.9555 6.825 12.6555L7.375 12.1055C7.675 11.8055 8.175 11.8055 8.475 12.1055L13.925 17.5555C14.275 17.8055 14.275 18.3055 13.925 18.6055ZM17.125 15.4055L16.575 15.9555C16.275 16.2555 15.775 16.2555 15.475 15.9555L10.025 10.5555C9.725 10.2555 9.725 9.75545 10.025 9.45545L10.575 8.90545C10.875 8.60545 11.375 8.60545 11.675 8.90545L17.125 14.3555C17.475 14.6055 17.475 15.1055 17.125 15.4055ZM19.375 8.60545C18.275 8.60545 17.375 7.70545 17.375 6.60545C17.375 5.50545 18.275 4.60545 19.375 4.60545C20.475 4.60545 21.375 5.50545 21.375 6.60545C21.375 7.70545 20.475 8.60545 19.375 8.60545Z" fill="#706E6B"/>
</svg>
