<svg width="26" height="26" viewBox="0 0 26 26" fill="none" xmlns="http://www.w3.org/2000/svg">
<path fill-rule="evenodd" clip-rule="evenodd" d="M22.35 3C17.85 3 14.4 6.5 14.4 11V21.75C14.4 22.15 14.75 22.5 15.15 22.5H23.65C24.05 22.5 24.4 22.15 24.4 21.75V13.25C24.4 12.85 24.05 12.5 23.65 12.5H17.4V11C17.4 8.5 19.85 6 22.35 6H23.65C24.05 6 24.4 5.65 24.4 5.25V3.75C24.4 3.35 24.05 3 23.65 3H22.35ZM9.95 3C5.45 3 2 6.5 2 11V21.75C2 22.15 2.35 22.5 2.75 22.5H11.25C11.65 22.5 12 22.15 12 21.75V13.25C12 12.85 11.65 12.5 11.25 12.5H5V11C5 8.5 7.45 6 9.95 6H11.25C11.65 6 12 5.65 12 5.25V3.75C12 3.35 11.65 3 11.25 3H9.95Z" fill="#706E6B"/>
</svg>
