<svg width="40" height="40" viewBox="0 0 40 40" fill="none" xmlns="http://www.w3.org/2000/svg">
<rect width="40" height="40" rx="20" fill="#7E8BE4"/>
<mask id="mask0_1518_28020" style="mask-type:luminance" maskUnits="userSpaceOnUse" x="0" y="0" width="40" height="40">
<rect width="40" height="40" rx="20" fill="white"/>
</mask>
<g mask="url(#mask0_1518_28020)">
<path fill-rule="evenodd" clip-rule="evenodd" d="M29.7 14.95H25.8C24.5 14.95 23.45 13.9 23.45 12.65V8.75C23.5 8.35 23.15 8 22.7 8H16.5C15.2 8 14.15 9.05 14.15 10.3V25C14.15 26.3 15.2 27.3 16.5 27.3H28.15C29.45 27.3 30.5 26.25 30.5 25V15.75C30.5 15.3 30.15 14.95 29.7 14.95ZM11.85 25.05V12.65C10.55 12.65 9.5 13.7 9.5 14.95V29.65C9.5 30.95 10.55 32 11.85 32H23.5C24.8 32 25.85 30.95 25.85 29.7H16.5C13.95 29.7 11.85 29.7 11.85 25.05ZM26.75 8.15L30.35 11.7C30.45 11.85 30.5 11.95 30.5 12.1C30.5 12.4 30.25 12.65 29.95 12.65H27.4C26.55 12.65 25.85 11.95 25.85 11.1V8.55C25.85 8.25 26.1 8 26.4 8C26.55 8 26.65 8.05 26.75 8.15Z" fill="white"/>
</g>
</svg>
