<svg width="40" height="40" viewBox="0 0 40 40" fill="none" xmlns="http://www.w3.org/2000/svg">
<rect width="40" height="40" rx="20" fill="#696E71"/>
<mask id="mask0_1518_28028" style="mask-type:luminance" maskUnits="userSpaceOnUse" x="0" y="0" width="40" height="40">
<rect width="40" height="40" rx="20" fill="white"/>
</mask>
<g mask="url(#mask0_1518_28028)">
<path d="M30.7756 26.8571H17.5511C17.1593 26.8571 16.8164 27.2 16.8164 27.5918V29.0612C16.8164 29.4531 17.1593 29.7959 17.5511 29.7959H30.7756C31.1674 29.7959 31.5103 29.4531 31.5103 29.0612V27.5918C31.5103 27.2 31.1674 26.8571 30.7756 26.8571Z" fill="white"/>
<path d="M19.4613 17.9429L9.95922 10.351C9.66535 10.1061 9.22453 10.1551 8.97963 10.498L8.14698 11.6735C7.90208 12.0163 8.00004 12.4572 8.29392 12.702L15.0531 18.0898C15.298 18.2857 15.298 18.6776 15.0531 18.8735L8.29392 24.2612C8.00004 24.5061 7.90208 24.9959 8.14698 25.2898L8.97963 26.5633C9.22453 26.9061 9.66535 26.9551 9.95922 26.7102L19.4613 19.1184C19.8531 18.8245 19.8531 18.2367 19.4613 17.9429Z" fill="white"/>
</g>
</svg>
