<svg width="26" height="26" viewBox="0 0 26 26" fill="none" xmlns="http://www.w3.org/2000/svg">
<path fill-rule="evenodd" clip-rule="evenodd" d="M15.7 8.15H19.8C20.1 8.15 20.35 7.9 20.35 7.6C20.35 7.45 20.3 7.35 20.2 7.2L15.1 2.15C14.95 2.05 14.85 2 14.7 2C14.4 2 14.15 2.25 14.15 2.55V6.6C14.15 7.45 14.85 8.15 15.7 8.15ZM24.75 13.35L24.3 12.9C24 12.6 23.55 12.6 23.2 12.9L17.25 18.85C17.2 18.9 17.25 18.95 17.25 19V20.25C17.25 20.35 17.25 20.45 17.35 20.45H18.65C18.7 20.45 18.75 20.4 18.8 20.4L24.75 14.5C25.1 14.1 25.1 13.65 24.75 13.35ZM19.95 22.7H16.4C15.6 22.7 14.95 22.05 14.95 21.25V18.55C14.95 18.15 15.05 17.75 15.4 17.5L20.15 12.75C20.3 12.6 20.4 12.4 20.4 12.2V11.2C20.4 10.8 20.05 10.45 19.65 10.45H14.15C12.85 10.45 11.85 9.4 11.85 8.15V2.75C11.85 2.35 11.5 2 11.05 2H3.3C2.05 2 1 3.05 1 4.3V22.7C1 23.95 2.05 25 3.3 25H18C19.1 25 20.1 24.2 20.3 23.15C20.35 22.95 20.15 22.7 19.95 22.7ZM4.1 8.9C4.1 8.5 4.45 8.15 4.85 8.15H7.95C8.4 8.15 8.7 8.5 8.7 8.9V9.65C8.7 10.05 8.35 10.4 7.95 10.4H4.85C4.4 10.4 4.1 10.05 4.1 9.65V8.9ZM11.85 18.85C11.85 19.25 11.5 19.6 11.1 19.6H4.85C4.4 19.6 4.1 19.25 4.1 18.85V18.1C4.1 17.7 4.45 17.35 4.85 17.35H11.05C11.5 17.35 11.8 17.7 11.8 18.1V18.85H11.85ZM13.4 14.25C13.4 14.65 13.05 15 12.65 15H4.85C4.4 15 4.1 14.65 4.1 14.25V13.5C4.1 13.1 4.45 12.75 4.85 12.75H12.6C13.05 12.75 13.35 13.1 13.35 13.5V14.25H13.4Z" fill="#706E6B"/>
</svg>
