<svg width="26" height="26" viewBox="0 0 26 26" fill="none" xmlns="http://www.w3.org/2000/svg">
<path fill-rule="evenodd" clip-rule="evenodd" d="M4.71404 16.7L9.16404 21.15C9.36404 21.35 9.66404 21.35 9.86404 21.15L20.964 10C21.164 9.8 21.164 9.5 20.964 9.3L16.564 4.9C16.364 4.7 16.064 4.7 15.864 4.9L4.71404 16.05C4.51404 16.25 4.51404 16.55 4.71404 16.7ZM18.014 2.85C17.814 3.05 17.814 3.35 18.014 3.55L22.414 7.95C22.614 8.15 22.914 8.15 23.114 7.95L24.364 6.7C25.164 5.95 25.164 4.75 24.364 3.95L22.014 1.6C21.214 0.8 19.964 0.8 19.164 1.6L18.014 2.85ZM1.01404 24.1C0.914037 24.6 1.36404 25.05 1.86404 24.95L7.31404 23.65C7.51404 23.6 7.66404 23.5 7.76404 23.4L7.86404 23.3C7.96404 23.2 8.01404 22.85 7.81404 22.65L3.31404 18.15C3.11404 17.95 2.76404 18 2.66404 18.1L2.56404 18.2C2.41404 18.35 2.36404 18.5 2.31404 18.65L1.01404 24.1Z" fill="#706E6B"/>
</svg>
