<svg width="26" height="26" viewBox="0 0 26 26" fill="none" xmlns="http://www.w3.org/2000/svg">
<path fill-rule="evenodd" clip-rule="evenodd" d="M14.2323 20.373C17.5124 20.4732 17.6378 21.0998 17.6425 23.6828L17.6427 24C16.3658 24 16.3658 22.9497 15.7873 22.9497C15.7873 23.3005 15.478 23.6506 14.8595 24C14.5154 23.2998 14.2061 22.9497 13.9318 22.9497C13.9318 23.2799 13.6578 23.6094 13.11 23.9383L13.004 24C12.3855 23.6506 12.0763 23.3005 12.0763 22.9497C11.8019 22.9497 11.4927 23.2998 11.1486 24C10.5301 23.6506 10.2208 23.3005 10.2208 22.9497C9.64224 22.9497 9.64224 24 8.36533 24L8.36578 23.5813C8.37398 21.1432 8.53126 20.5022 11.5486 20.381C11.5384 20.4473 11.5332 20.5155 11.5332 20.5848C11.5332 21.3393 12.1411 21.9509 12.8909 21.9509C13.6407 21.9509 14.2486 21.3393 14.2486 20.5848C14.2486 20.5128 14.243 20.442 14.2323 20.373ZM14.923 4.21476C16.3168 5.87523 16.0075 6.63217 16.0682 7.16125C17.5798 6.83898 18.8111 7.12142 19.6412 7.52956C20.4713 7.9377 20.9696 8.58846 21.0154 9.04885C20.3283 9.18696 19.8702 9.41716 19.6412 9.73943C20.4657 10.0617 21.6033 10.5479 22.4355 11.535C23.2676 12.522 23.489 13.0082 23.9471 14.1131C24.0387 14.2513 23.9929 14.4354 23.9471 14.4814C23.3516 15.08 22.9592 15.4698 22.5271 15.7705C22.095 16.0713 20.878 16.9215 20.649 17.0136C21.3819 17.474 21.7483 17.8883 21.7941 18.3487C21.0154 18.5906 20.5449 18.7456 20.0468 18.9316C19.8115 19.0195 19.3586 19.1818 18.8514 19.353C19.5929 14.5344 16.5513 14.096 15.204 14.096C14.2281 14.096 13.7044 14.895 12.8831 14.895C12.0619 14.895 11.558 14.0977 10.5539 14.0977C9.52115 14.0977 6.69311 14.9113 7.19201 19.0699C6.93894 18.9664 6.66035 18.8647 6.35696 18.7631C5.62403 18.5329 4.8453 18.3948 4.06657 18.3487C3.9 18.3487 3.80914 18.2346 3.794 18.0755L3.79173 18.0264V17.9344C4.02076 17.0136 4.59081 16.2718 4.89111 15.9547C5.19141 15.6376 5.80726 15.2181 6.0363 15.2641C5.75493 14.7727 5.16596 14.2017 4.47884 13.8369C3.79173 13.4721 2.50911 13.2844 2.28007 13.2384C2.05103 13.1924 1.92237 13.1924 2.05103 12.778C2.82976 10.7983 3.74592 9.55528 4.8453 9.00281C5.94469 8.45034 6.90665 8.22015 7.59376 8.31223C7.43497 7.7416 7.26443 7.4029 7.14546 7.16125C7.0265 6.9196 6.91126 6.68737 6.58599 6.28651C6.49438 6.14839 6.49438 5.9182 6.6318 5.82612C6.67761 5.82612 6.72342 5.78008 6.76923 5.78008C7.2273 5.688 7.68538 5.73404 8.18926 5.87216C8.83057 6.05632 9.42607 6.47067 9.97576 7.11521C9.92996 5.22762 9.74672 3.61625 9.33446 2.3732C9.28865 1.36034 13.5292 2.55429 14.923 4.21476ZM11.5045 16.7143C11.8794 16.7143 12.1833 17.224 12.1833 17.8527C12.1833 18.4814 11.8794 18.9911 11.5045 18.9911C11.1296 18.9911 10.8257 18.4814 10.8257 17.8527C10.8257 17.224 11.1296 16.7143 11.5045 16.7143ZM14.4963 16.7143C14.8712 16.7143 15.1752 17.224 15.1752 17.8527C15.1752 18.4814 14.8712 18.9911 14.4963 18.9911C14.1214 18.9911 13.8175 18.4814 13.8175 17.8527C13.8175 17.224 14.1214 16.7143 14.4963 16.7143Z" fill="#706E6B"/>
</svg>
