<svg width="26" height="26" viewBox="0 0 26 26" fill="none" xmlns="http://www.w3.org/2000/svg">
<path fill-rule="evenodd" clip-rule="evenodd" d="M22.9 14.05C22.9 13.65 22.4 13.4 22.05 13.7L14.75 20.45C14.25 20.9 13.65 21.15 12.95 21.15C12.25 21.15 11.65 20.9 11.15 20.5L3.9 13.7C3.55 13.4 3.05 13.6 3.05 14.05C3 13.95 3 23.05 3 23.05C3 23.95 3.75 24.7 4.65 24.7H21.2C22.1 24.7 22.85 23.95 22.85 23.05V14.05H22.9ZM22.8 10.3C22.9 10.2 22.95 10.1 22.95 10C22.95 9.85 22.9 9.75 22.8 9.65L13.4 1C13.15 0.75 12.8 0.75 12.55 1L3.25 9.6C3.2 9.65 3.2 9.7 3.15 9.7V9.75C3.15 9.8 3.1 9.85 3.1 9.9C3.1 10.05 3.15 10.15 3.25 10.25L12.5 18.85C12.75 19.1 13.1 19.1 13.35 18.85L22.8 10.3C22.8 10.35 22.8 10.3 22.8 10.3Z" fill="#706E6B"/>
</svg>
