<svg width="26" height="26" viewBox="0 0 26 26" fill="none" xmlns="http://www.w3.org/2000/svg">
<path fill-rule="evenodd" clip-rule="evenodd" d="M12.3 20.2998C12.3 18.8998 12.65 17.5998 13.3 16.4498H12.15C11.9 16.4498 11.75 16.2998 11.75 16.0498V11.4498C11.75 11.1998 11.9 11.0498 12.15 11.0498H16.75C17 11.0498 17.15 11.1998 17.15 11.4498V12.9498C18.1 12.5498 19.2 12.2998 20.3 12.2998C21.05 12.2998 21.75 12.3998 22.4 12.5998C22.5 12.0498 22.55 11.4998 22.55 10.9498C22.5 5.4498 17.75 1.0498 11.8 1.0498C5.85002 1.0498 1.10002 5.4498 1.10002 10.8498C1.10002 12.5498 1.60002 14.1498 2.40002 15.5998C2.55002 15.7998 2.60002 16.0998 2.50002 16.3498L1.10002 20.1498C0.950022 20.4998 1.30002 20.7998 1.70002 20.7498L5.55002 19.2498C5.75002 19.1498 6.05002 19.1998 6.30002 19.3498C7.90002 20.2498 9.85002 20.7998 11.9 20.7998H12.3V20.2998ZM6.40002 6.0998C6.40002 5.8498 6.55002 5.6998 6.80002 5.6998H16.75C17 5.6998 17.15 5.8498 17.15 6.0998V8.39981C17.15 8.64981 16.95 8.7998 16.7 8.7998H6.80002C6.55002 8.7998 6.40002 8.64981 6.40002 8.39981V6.0998ZM9.50002 16.0498C9.50002 16.2998 9.30002 16.4498 9.05002 16.4498H6.75002C6.50002 16.4498 6.35002 16.2998 6.35002 16.0498V11.4498C6.35002 11.1998 6.50002 11.0498 6.75002 11.0498H9.10002C9.35002 11.0498 9.50002 11.1998 9.50002 11.4498V16.0498ZM15.9 17.2998L18.9 20.2998L15.9 23.2998C15.6 23.5998 15.6 24.0998 15.9 24.3498L16.25 24.6998C16.55 24.9998 17.05 24.9998 17.3 24.6998L20.3 21.6998L23.3 24.6998C23.6 24.9998 24.1 24.9998 24.35 24.6998L24.7 24.3498C25 24.0498 25 23.5498 24.7 23.2998L21.7 20.2998L24.7 17.2998C25 16.9998 25 16.4998 24.7 16.2498L24.35 15.8998C24.05 15.5998 23.55 15.5998 23.3 15.8998L20.3 18.8998L17.3 15.8998C17 15.5998 16.5 15.5998 16.25 15.8998L15.9 16.2498C15.6 16.5498 15.6 17.0498 15.9 17.2998Z" fill="#706E6B"/>
</svg>
