<svg width="26" height="26" viewBox="0 0 26 26" fill="none" xmlns="http://www.w3.org/2000/svg">
<path fill-rule="evenodd" clip-rule="evenodd" d="M12.3 20.2996C12.3 15.8996 15.9 12.2996 20.3 12.2996C21.05 12.2996 21.75 12.3996 22.4 12.5996C22.5 12.0496 22.55 11.5496 22.55 10.9996C22.5 5.49961 17.7 1.09961 11.8 1.09961C5.85002 1.09961 1.10002 5.49961 1.10002 10.8996C1.10002 12.5996 1.60002 14.1996 2.40002 15.6496C2.55002 15.8496 2.60002 16.1496 2.50002 16.3996L1.10002 20.1996C0.950022 20.5496 1.30002 20.8496 1.70002 20.7996L5.55002 19.2996C5.75002 19.1996 6.05002 19.2496 6.30002 19.3996C7.90002 20.2996 9.85002 20.8496 11.9 20.8496H12.3V20.2996ZM17.2 9.14961C18.2 9.14961 19 9.94961 19 10.9496C19 11.9496 18.2 12.7496 17.2 12.7496C16.2 12.7496 15.4 11.9496 15.4 10.9496C15.4 9.94961 16.2 9.14961 17.2 9.14961ZM6.45002 12.6996C5.45002 12.6996 4.65002 11.8996 4.65002 10.8996C4.65002 9.89961 5.45002 9.09961 6.45002 9.09961C7.45002 9.09961 8.25002 9.89961 8.25002 10.8996C8.25002 11.8996 7.40002 12.6996 6.45002 12.6996ZM11.8 12.6996C10.8 12.6996 10 11.8996 10 10.8996C10 9.89961 10.8 9.09961 11.8 9.09961C12.8 9.09961 13.6 9.89961 13.6 10.8996C13.6 11.8996 12.8 12.6996 11.8 12.6996ZM15.85 17.2996L18.85 20.2996L15.85 23.2996C15.55 23.5996 15.55 24.0996 15.85 24.3496L16.2 24.6996C16.5 24.9996 17 24.9996 17.25 24.6996L20.25 21.6996L23.25 24.6996C23.55 24.9996 24.05 24.9996 24.3 24.6996L24.65 24.3496C24.95 24.0496 24.95 23.5496 24.65 23.2996L21.65 20.2996L24.65 17.2996C24.95 16.9996 24.95 16.4996 24.65 16.2496L24.3 15.8996C24 15.5996 23.5 15.5996 23.25 15.8996L20.25 18.8996L17.25 15.8996C16.95 15.5996 16.45 15.5996 16.2 15.8996L15.85 16.2496C15.6 16.4996 15.6 16.9996 15.85 17.2996Z" fill="#706E6B"/>
</svg>
