<svg width="26" height="26" viewBox="0 0 26 26" fill="none" xmlns="http://www.w3.org/2000/svg">
<path d="M13 1.63867C19.5369 1.63867 24.8724 6.43276 24.8724 12.397C24.8724 18.3612 19.5369 23.1553 13 23.1553C12.1512 23.1553 11.3136 23.0745 10.498 22.916L10.2492 22.8644L10.1763 22.9032C9.13851 23.4345 7.46718 23.8644 5.1144 24.2294L4.85018 24.2697L4.27411 24.3529C3.3933 24.4801 2.88816 23.3821 3.55784 22.796C4.2293 22.2084 4.73965 21.4375 5.08847 20.47L5.10147 20.4307L4.93967 20.2977C2.59331 18.3328 1.19234 15.5789 1.12987 12.6048L1.12769 12.397C1.12769 6.43276 6.46316 1.63867 13 1.63867ZM16.5745 15.2982H9.42556C8.86152 15.2982 8.40428 15.7555 8.40428 16.3195C8.40428 16.8836 8.86152 17.3408 9.42556 17.3408H16.5745C17.1385 17.3408 17.5958 16.8836 17.5958 16.3195C17.5958 15.7555 17.1385 15.2982 16.5745 15.2982ZM18.617 11.4685H7.38301C6.81897 11.4685 6.36173 11.9257 6.36173 12.4897C6.36173 13.0538 6.81897 13.511 7.38301 13.511H18.617C19.1811 13.511 19.6383 13.0538 19.6383 12.4897C19.6383 11.9257 19.1811 11.4685 18.617 11.4685ZM16.5745 7.63867H9.42556C8.86152 7.63867 8.40428 8.09591 8.40428 8.65995C8.40428 9.22398 8.86152 9.68122 9.42556 9.68122H16.5745C17.1385 9.68122 17.5958 9.22398 17.5958 8.65995C17.5958 8.09591 17.1385 7.63867 16.5745 7.63867Z" fill="#706E6B"/>
</svg>
