<svg width="26" height="26" viewBox="0 0 26 26" fill="none" xmlns="http://www.w3.org/2000/svg">
<path d="M21.6401 14.9202C21.6401 14.9202 21.6881 15.6882 20.9201 15.6882H7.81605C7.38405 15.6882 7.19205 15.1122 7.48005 14.8242L10.1681 12.1362C10.4561 11.8482 10.4561 11.4162 10.1681 11.1282L9.16005 10.1202C8.87205 9.83223 8.44006 9.83223 8.15206 10.1202L1.67205 16.6002C1.38405 16.8882 1.38405 17.3202 1.67205 17.6082L8.20005 24.0882C8.48805 24.3762 8.92005 24.3762 9.20806 24.0882L10.2161 23.0802C10.5041 22.7922 10.5041 22.3602 10.2161 22.0722L7.52805 19.3842C7.24005 19.0482 7.43205 18.5682 7.86405 18.5682H23.8001C24.1361 18.5682 24.5201 18.1842 24.5201 17.8002V1.96023C24.5201 1.62423 24.1841 1.24023 23.8001 1.24023H22.3601C21.9761 1.24023 21.6401 1.62423 21.6401 1.96023V14.9202Z" fill="#706E6B"/>
</svg>
