<svg width="26" height="26" viewBox="0 0 26 26" fill="none" xmlns="http://www.w3.org/2000/svg">
<path fill-rule="evenodd" clip-rule="evenodd" d="M4.4 4.49994C2.2 6.74994 1 9.69994 1 12.7999C1 13.4999 1.55 13.9999 2.2 13.9999C2.85 13.9999 3.4 13.4499 3.4 12.7999C3.35 10.3499 4.35 7.99994 6.1 6.24994C7.85 4.49994 10.25 3.54994 12.65 3.54994C13.35 3.54994 13.85 2.99994 13.85 2.34994C13.85 1.64994 13.3 1.14994 12.65 1.14994C9.6 1.09994 6.6 2.29994 4.4 4.49994ZM5.85 12.7999C5.85 13.4999 6.35 13.9999 7.05 13.9999C7.75 13.9999 8.25 13.4499 8.25 12.7999C8.25 11.6499 8.7 10.4999 9.55 9.69994C10.4 8.84994 11.5 8.44994 12.65 8.39994C13.35 8.39994 13.85 7.84994 13.85 7.19994C13.85 6.49994 13.35 5.99994 12.65 5.99994C10.85 5.99994 9.1 6.69994 7.8 7.94994C7.6 8.19994 5.75 10.0499 5.85 12.7999ZM22.75 7.59994C22.3 6.99994 21.7 6.29994 21.6 6.19994C21.45 6.09994 21.25 5.99994 21.05 5.99994C20.85 5.99994 20.65 6.04994 20.55 6.19994L15.5 11.1999C14.3 10.1999 12.5 10.2499 11.35 11.3999C10.2 12.5499 10.15 14.3499 11.15 15.5499L6.3 20.3999C6.15 20.5499 6.05 20.7499 6.05 20.9499C6.05 21.1999 6.15 21.4499 6.35 21.5999L7.7 22.5999C9.55 24.0499 11.85 24.8499 14.3 24.8499C20.2 24.8499 25 20.0499 25 14.1499C25 11.7499 24.15 9.44994 22.75 7.59994Z" fill="#706E6B"/>
</svg>
