<svg width="26" height="26" viewBox="0 0 26 26" fill="none" xmlns="http://www.w3.org/2000/svg">
<path fill-rule="evenodd" clip-rule="evenodd" d="M24 4.75C24 4.35 23.65 4 23.25 4H2.75C2.35 4 2 4.35 2 4.75V6.25C2 6.65 2.35 7 2.75 7H23.25C23.65 7 24 6.65 24 6.25V4.75ZM24 19.75C24 19.35 23.65 19 23.25 19H2.75C2.35 19 2 19.35 2 19.75V21.25C2 21.65 2.35 22 2.75 22H23.25C23.65 22 24 21.65 24 21.25V19.75ZM15 14.5H17.25C17.65 14.5 18 14.15 18 13.75V12.25C18 11.85 17.65 11.5 17.25 11.5H15C14.7 11.5 14.5 11.3 14.5 11V8.75C14.5 8.35 14.15 8 13.75 8H12.25C11.85 8 11.5 8.35 11.5 8.75V11C11.5 11.3 11.3 11.5 11 11.5H8.75C8.35 11.5 8 11.85 8 12.25V13.75C8 14.15 8.35 14.5 8.75 14.5H11C11.3 14.5 11.5 14.7 11.5 15V17.25C11.5 17.65 11.85 18 12.25 18H13.75C14.15 18 14.5 17.65 14.5 17.25V15C14.5 14.7 14.7 14.5 15 14.5Z" fill="#706E6B"/>
</svg>
