<svg width="26" height="26" viewBox="0 0 26 26" fill="none" xmlns="http://www.w3.org/2000/svg">
<path fill-rule="evenodd" clip-rule="evenodd" d="M24.4 1H16.65C16.15 1 16 1.45 16.4 1.85L18.85 4.3L14.35 8.8C14.1 9.05 14.1 9.45 14.35 9.75L16.2 11.6C16.45 11.85 16.85 11.85 17.15 11.6L21.7 7.05L24.15 9.5C24.55 9.9 25 9.75 25 9.25V1.55C25 1.25 24.7 1 24.4 1ZM1.75 25H9.45C9.95 25 10.1 24.45 9.7 24.05L7.25 21.55L11.75 17C12 16.75 12 16.3 11.75 16.05L9.9 14.2C9.65 13.95 9.25 13.95 8.95 14.2L4.45 18.7L1.95 16.25C1.5 15.85 1 16 1 16.5V24.2C1 24.55 1.4 25 1.75 25ZM25 24.4V16.65C25 16.15 24.55 16 24.15 16.4L21.7 18.85L17.2 14.35C16.95 14.1 16.55 14.1 16.25 14.35L14.4 16.2C14.15 16.45 14.15 16.85 14.4 17.15L18.95 21.7L16.5 24.15C16.1 24.55 16.25 25 16.75 25H24.45C24.75 25 25 24.7 25 24.4ZM1 1.75V9.45C1 9.95 1.55 10.1 1.95 9.7L4.45 7.25L9 11.75C9.25 12 9.7 12 9.95 11.75L11.8 9.9C12.05 9.65 12.05 9.25 11.8 8.95L7.3 4.45L9.75 1.95C10.15 1.5 10 1 9.5 1H1.8C1.45 1 1 1.4 1 1.75Z" fill="#706E6B"/>
</svg>
