<svg width="48" height="48" viewBox="0 0 48 48" fill="none" xmlns="http://www.w3.org/2000/svg">
<rect width="48" height="48" rx="4" fill="#FCB95B"/>
<mask id="mask0_1518_27645" style="mask-type:luminance" maskUnits="userSpaceOnUse" x="0" y="0" width="48" height="48">
<rect width="48" height="48" rx="4" fill="white"/>
</mask>
<g mask="url(#mask0_1518_27645)">
<path d="M31.3668 16.0667H37.3734C37.8268 16.0667 38.1668 15.7267 38.1668 15.2733C38.1668 15.0467 38.1101 14.8767 37.9401 14.7067L30.4601 7.22667C30.2901 7.05667 30.1201 7 29.8934 7C29.4401 7 29.1001 7.34 29.1001 7.79333V13.8C29.1001 15.0467 30.1201 16.0667 31.3668 16.0667Z" fill="white"/>
<path fill-rule="evenodd" clip-rule="evenodd" d="M37.0334 19.4667H29.1C27.23 19.4667 25.7 17.9367 25.7 16.0667V8.13333C25.7 7.51 25.19 7 24.5667 7H13.2334C11.3634 7 9.83337 8.53 9.83337 10.4V37.6C9.83337 39.47 11.3634 41 13.2334 41H34.7667C36.6367 41 38.1667 39.47 38.1667 37.6V20.6C38.1667 19.9767 37.6567 19.4667 37.0334 19.4667ZM17.0867 33.2367C17.0867 34.88 16.2934 35.4467 15.0467 35.4467L14.0834 35.3333L14.2534 34.3133L14.9334 34.4267C15.5 34.4267 15.84 34.2 15.84 33.2933V29.61H17.0867V33.2367ZM17.88 34.9933C18.39 35.22 18.9567 35.3333 19.5234 35.3333C21.11 35.3333 21.8467 34.37 21.8467 33.5767C21.8467 32.7833 21.11 32.16 20.3734 31.8767C19.6367 31.5933 19.2967 31.3667 19.2967 31.0833C19.2967 30.8 19.58 30.5167 20.1467 30.5167C20.5434 30.5167 20.94 30.63 21.3367 30.8L21.62 29.78C21.1667 29.5533 20.6567 29.4967 20.1467 29.4967C18.7867 29.4967 17.9934 30.3467 17.9934 31.1967C17.9934 32.0467 18.9 32.67 19.58 32.8967C20.26 33.1233 20.5434 33.2933 20.5434 33.69C20.5434 34.0867 20.2034 34.3133 19.6367 34.3133C19.1267 34.3133 18.6734 34.2 18.22 33.9733L17.88 34.9933Z" fill="white"/>
</g>
</svg>
