<svg width="48" height="48" viewBox="0 0 48 48" fill="none" xmlns="http://www.w3.org/2000/svg">
<g clip-path="url(#clip0_1518_27976)">
<mask id="mask0_1518_27976" style="mask-type:alpha" maskUnits="userSpaceOnUse" x="0" y="0" width="48" height="48">
<path d="M44 0H4C1.79086 0 0 1.79086 0 4V44C0 46.2091 1.79086 48 4 48H44C46.2091 48 48 46.2091 48 44V4C48 1.79086 46.2091 0 44 0Z" fill="white"/>
</mask>
<g mask="url(#mask0_1518_27976)">
<path d="M44 0H4C1.79086 0 0 1.79086 0 4V44C0 46.2091 1.79086 48 4 48H44C46.2091 48 48 46.2091 48 44V4C48 1.79086 46.2091 0 44 0Z" fill="#00A1E0"/>
<path d="M21.9033 25.3033C26.9107 25.3033 30.97 21.244 30.97 16.2366C30.97 11.2292 26.9107 7.16992 21.9033 7.16992C16.896 7.16992 12.8367 11.2292 12.8367 16.2366C12.8367 21.244 16.896 25.3033 21.9033 25.3033Z" fill="white"/>
<path d="M33.4067 24.6231C31.6929 24.6217 30.0489 25.3018 28.8371 26.5136C27.6253 27.7254 26.9452 29.3694 26.9467 31.0832C26.9467 35.4465 31.5367 39.5832 32.9533 40.6598C33.1916 40.8858 33.565 40.8858 33.8033 40.6598C35.22 39.5265 39.81 35.4465 39.81 31.0832C39.8328 29.3728 39.1674 27.725 37.9632 26.5102C36.759 25.2954 35.1172 24.6154 33.4067 24.6231ZM33.4067 33.6898C31.9357 33.6898 30.7433 32.4974 30.7433 31.0265C30.7433 29.5556 31.9357 28.3632 33.4067 28.3632C34.8776 28.3632 36.07 29.5556 36.07 31.0265C36.0517 32.4898 34.8699 33.6715 33.4067 33.6898Z" fill="white"/>
<path d="M24.2267 40.8295H25.02C27.9667 40.5461 26.38 38.7328 26.38 38.7328C24.5667 36.1261 23.5467 33.5761 23.5467 31.0828C23.5361 30.2767 23.6508 29.4738 23.8867 28.7028C24 27.5695 23.5467 27.2861 23.32 27.1728H23.2067C22.7551 27.1245 22.3008 27.1055 21.8467 27.1161C14.9956 27.1235 9.19558 32.1744 8.2467 38.9595C8.2467 39.6395 8.47337 40.9428 10.6267 40.9428H24.1134C24.1134 40.8295 24.17 40.8295 24.2267 40.8295Z" fill="white"/>
</g>
</g>
<defs>
<clipPath id="clip0_1518_27976">
<rect width="48" height="48" fill="white"/>
</clipPath>
</defs>
</svg>
