<svg width="27" height="26" viewBox="0 0 27 26" fill="none" xmlns="http://www.w3.org/2000/svg">
<path fill-rule="evenodd" clip-rule="evenodd" d="M12.725 14.9C12.425 14.6 11.975 14.6 11.675 14.9L9.875 16.7C9.575 17 9.025 16.8 9.025 16.35V9.75C9.025 9.35 8.675 9 8.275 9H6.775C6.375 9 6.025 9.35 6.025 9.75V16.35C6.025 16.8 5.475 17 5.175 16.7L3.375 14.9C3.075 14.6 2.625 14.6 2.325 14.9L1.225 16C0.925 16.3 0.925 16.75 1.225 17.05L6.975 22.8C7.275 23.1 7.725 23.1 8.025 22.8L13.825 17C14.125 16.7 14.125 16.25 13.825 15.95L12.725 14.9ZM26.025 3.75C26.025 3.35 25.675 3 25.275 3H6.775C6.375 3 6.025 3.35 6.025 3.75V5.25C6.025 5.65 6.375 6 6.775 6H25.275C25.675 6 26.025 5.65 26.025 5.25V3.75ZM26.025 9.75C26.025 9.35 25.675 9 25.275 9H11.775C11.375 9 11.025 9.35 11.025 9.75V11.25C11.025 11.65 11.375 12 11.775 12H25.275C25.675 12 26.025 11.65 26.025 11.25V9.75ZM26.025 15.75C26.025 15.35 25.675 15 25.275 15H16.775C16.375 15 16.025 15.35 16.025 15.75V17.25C16.025 17.65 16.375 18 16.775 18H25.275C25.675 18 26.025 17.65 26.025 17.25V15.75Z" fill="#706E6B"/>
</svg>
