<svg width="26" height="26" viewBox="0 0 26 26" fill="none" xmlns="http://www.w3.org/2000/svg">
<path fill-rule="evenodd" clip-rule="evenodd" d="M24.25 2H1.75C1.35 2 1 2.35 1 2.75V5.25C1 5.65 1.35 6 1.75 6H24.25C24.65 6 25 5.65 25 5.25V2.75C24.95 2.35 24.65 2 24.25 2ZM5.35 8H1.85C1.45 8 1.1 8.35 1.1 8.75V23.65C1.1 24.05 1.45 24.4 1.85 24.4H5.35C5.75 24.4 6.1 24.05 6.1 23.65V8.75C6.1 8.35 5.75 8 5.35 8ZM24.25 8H20.75C20.35 8 20 8.35 20 8.75V23.65C20 24.05 20.35 24.4 20.75 24.4H24.25C24.65 24.4 25 24.05 25 23.65V8.75C25 8.35 24.65 8 24.25 8ZM17.25 8H8.85C8.45 8 8.1 8.35 8.1 8.75V23.65C8.1 24.05 8.45 24.4 8.85 24.4H17.25C17.65 24.4 18 24.05 18 23.65V8.75C18 8.35 17.65 8 17.25 8Z" fill="#706E6B"/>
</svg>
