<svg width="26" height="26" viewBox="0 0 26 26" fill="none" xmlns="http://www.w3.org/2000/svg">
<path fill-rule="evenodd" clip-rule="evenodd" d="M17.2273 18C17.4773 17.75 17.4773 17.35 17.2273 17.1L16.3273 16.2C16.0773 15.95 15.6773 15.95 15.4273 16.2L13.2273 18.4C13.0773 18.55 12.7773 18.55 12.6273 18.4L10.4273 16.2C10.1773 15.95 9.77732 15.95 9.52732 16.2L8.62732 17.1C8.37732 17.35 8.37732 17.75 8.62732 18L10.8273 20.2C10.9773 20.35 10.9773 20.65 10.8273 20.8L8.62732 23C8.37732 23.25 8.37732 23.65 8.62732 23.9L9.52732 24.8C9.77732 25.05 10.1773 25.05 10.4273 24.8L12.6273 22.6C12.7773 22.45 13.0773 22.45 13.2273 22.6L15.4273 24.8C15.6773 25.05 16.0773 25.05 16.3273 24.8L17.2273 23.9C17.4773 23.65 17.4773 23.25 17.2273 23L15.0273 20.8C14.8773 20.65 14.8773 20.35 15.0273 20.2L17.2273 18ZM23.7273 5.75C20.9773 2.7 17.0773 1 12.9273 1C8.77732 1 4.87732 2.7 2.12732 5.75C1.92732 5.95 1.97732 6.3 2.17732 6.45L3.67732 7.75C3.87732 7.95 4.17732 7.9 4.37732 7.7C6.57732 5.35 9.67732 4 12.9273 4C16.1773 4 19.2773 5.35 21.4773 7.7C21.6773 7.9 21.9773 7.9 22.1773 7.75L23.6773 6.45C23.8773 6.25 23.9273 5.95 23.7273 5.75ZM12.9273 8C10.8273 8 8.82732 8.9 7.42732 10.5C7.22732 10.7 7.27732 11.05 7.47732 11.25L9.07732 12.45C9.27732 12.6 9.57732 12.6 9.72732 12.4C10.5773 11.5 11.7273 11 12.9273 11C14.1273 11 15.2773 11.5 16.0773 12.35C16.2273 12.55 16.5273 12.55 16.7273 12.4L18.3273 11.2C18.5773 11 18.5773 10.7 18.3773 10.45C17.0273 8.9 15.0273 8 12.9273 8Z" fill="#706E6B"/>
</svg>
