<svg width="26" height="26" viewBox="0 0 26 26" fill="none" xmlns="http://www.w3.org/2000/svg">
<path fill-rule="evenodd" clip-rule="evenodd" d="M19.15 4.95H8.4C7.35 4.95 6.55 5.8 6.55 6.8V7.1C6.55 7.25 6.7 7.4 6.85 7.4H16.65C17.7 7.4 18.5 8.25 18.5 9.25V20.3C18.5 20.45 18.65 20.6 18.8 20.6H19.1C20.15 20.6 20.95 19.75 20.95 18.75V6.8C21 5.8 20.15 4.95 19.15 4.95ZM23.15 1H12.4C11.35 1 10.55 1.85 10.55 2.85V3.15C10.55 3.3 10.7 3.45 10.85 3.45H20.65C21.7 3.45 22.5 4.3 22.5 5.3V16.35C22.5 16.5 22.65 16.65 22.8 16.65H23.1C24.15 16.65 24.95 15.8 24.95 14.8V2.85C25 1.85 24.15 1 23.15 1ZM16.8 10.9C16.8 9.9 15.95 9.05 14.95 9.05H3.85C2.8 9.05 2 9.9 2 10.9V23.15C2 24.15 2.85 25 3.85 25H14.95C16 25 16.8 24.15 16.8 23.15V10.9Z" fill="#706E6B"/>
</svg>
