<svg width="48" height="48" viewBox="0 0 48 48" fill="none" xmlns="http://www.w3.org/2000/svg">
<rect width="48" height="48" rx="4" fill="#EC94ED"/>
<mask id="mask0_1518_27635" style="mask-type:luminance" maskUnits="userSpaceOnUse" x="0" y="0" width="48" height="48">
<rect width="48" height="48" rx="4" fill="white"/>
</mask>
<g mask="url(#mask0_1518_27635)">
<path fill-rule="evenodd" clip-rule="evenodd" d="M13.2333 11.1934H40.0367C40.5467 11.1934 41 11.6467 41 12.2134V34.71C41 36.1267 39.81 37.3167 38.3933 37.3167H12.2133H9.60667C8.19 37.3167 7 36.1267 7 34.71V18.05C7 17.54 7.45333 17.0867 7.96333 17.0867H8.92667C9.32333 17.0867 9.60667 17.37 9.60667 17.7667V32.0467C9.60667 32.67 10.06 33.2934 10.74 33.4067C11.5333 33.52 12.27 32.8967 12.27 32.1034V12.1567C12.27 11.6467 12.7233 11.1934 13.2333 11.1934ZM24.6233 30.8567C25.02 30.8567 25.3033 30.5734 25.3033 30.1767V28.8734C25.3033 28.4767 25.02 28.1934 24.6233 28.1934H16.8033C16.4067 28.1934 16.1233 28.4767 16.1233 28.8734V30.1767C16.1233 30.5734 16.4067 30.8567 16.8033 30.8567H24.6233ZM25.3033 24.9634C25.3033 25.36 25.02 25.6434 24.6233 25.6434H16.8033C16.4067 25.6434 16.1233 25.36 16.1233 24.9634V23.66C16.1233 23.2634 16.4067 22.98 16.8033 22.98H24.6233C25.02 22.98 25.3033 23.2634 25.3033 23.66V24.9634ZM36.41 30.8567C36.8067 30.8567 37.09 30.5734 37.09 30.1767V28.8734C37.09 28.4767 36.8067 28.1934 36.41 28.1934H28.59C28.1933 28.1934 27.91 28.4767 27.91 28.8734V30.1767C27.91 30.5734 28.1933 30.8567 28.59 30.8567H36.41ZM37.09 24.9634C37.09 25.36 36.8067 25.6434 36.41 25.6434H28.59C28.1933 25.6434 27.91 25.36 27.91 24.9634V23.66C27.91 23.2634 28.1933 22.98 28.59 22.98H36.41C36.8067 22.98 37.09 23.2634 37.09 23.66V24.9634ZM36.41 20.3734C36.8067 20.3734 37.09 20.09 37.09 19.6934V15.7834C37.09 15.3867 36.8067 15.1034 36.41 15.1034H16.8033C16.4067 15.1034 16.1233 15.3867 16.1233 15.7834V19.6934C16.1233 20.09 16.4067 20.3734 16.8033 20.3734H36.41Z" fill="white"/>
</g>
</svg>
