<svg width="48" height="48" viewBox="0 0 48 48" fill="none" xmlns="http://www.w3.org/2000/svg">
<rect width="48" height="48" rx="4" fill="#54698D"/>
<mask id="mask0_1518_27637" style="mask-type:luminance" maskUnits="userSpaceOnUse" x="0" y="0" width="48" height="48">
<rect width="48" height="48" rx="4" fill="white"/>
</mask>
<g mask="url(#mask0_1518_27637)">
<path d="M13.8566 35.3902C13.5166 35.3902 13.1766 35.1069 13.1766 34.7102V30.5736C13.1766 30.2336 13.46 29.8936 13.8566 29.8936H18.1066C18.4466 29.8936 18.7866 30.1769 18.7866 30.5736V34.7669C18.7866 35.1069 18.5033 35.4469 18.1066 35.4469H13.8566V35.3902Z" fill="white"/>
<path d="M21.9034 35.3903C21.5634 35.3903 21.2234 35.1069 21.2234 34.7103V28.3636C21.2234 28.0236 21.5067 27.6836 21.9034 27.6836H26.1534C26.4934 27.6836 26.8334 27.9669 26.8334 28.3636V34.7669C26.8334 35.1069 26.5501 35.4469 26.1534 35.4469H21.9034V35.3903Z" fill="white"/>
<path d="M29.95 35.3902C29.61 35.3902 29.27 35.1069 29.27 34.7102V30.5736C29.27 30.2336 29.5534 29.8936 29.95 29.8936H34.2C34.54 29.8936 34.88 30.1769 34.88 30.5736V34.7669C34.88 35.1069 34.5967 35.4469 34.2 35.4469H29.95V35.3902Z" fill="white"/>
<path d="M13.8566 19.977C13.5166 19.977 13.1766 19.6937 13.1766 19.297V13.2904C13.1766 12.9504 13.46 12.6104 13.8566 12.6104H26.1533C26.4933 12.6104 26.8333 12.8937 26.8333 13.2904V19.3537C26.8333 19.6937 26.55 20.0337 26.1533 20.0337H13.8566V19.977Z" fill="white"/>
<path d="M29.95 19.9771C29.61 19.9771 29.27 19.6938 29.27 19.2971V15.1605C29.27 14.8205 29.5534 14.4805 29.95 14.4805H34.2C34.54 14.4805 34.88 14.7638 34.88 15.1605V19.2971C34.88 19.6371 34.5967 19.9771 34.2 19.9771H29.95Z" fill="white"/>
<path fill-rule="evenodd" clip-rule="evenodd" d="M37.4867 7H10.5133C8.58667 7 7 8.58667 7 10.5133V37.4867C7 39.4133 8.58667 41 10.5133 41H37.4867C39.4133 41 41 39.4133 41 37.4867V10.5133C41 8.58667 39.4133 7 37.4867 7ZM37.4867 36.2967C37.4867 36.9767 36.9767 37.4867 36.2967 37.4867H11.7033C11.08 37.4867 10.5133 36.9767 10.5133 36.2967V25.53H37.4867V36.2967ZM10.5133 22.13H37.4867V11.7033C37.4867 11.0233 36.92 10.5133 36.2967 10.5133H11.7033C11.0233 10.5133 10.5133 11.0233 10.5133 11.7033V22.13Z" fill="white"/>
</g>
</svg>
