<svg width="48" height="48" viewBox="0 0 48 48" fill="none" xmlns="http://www.w3.org/2000/svg">
<rect width="48" height="48" rx="4" fill="#54698D"/>
<mask id="mask0_1518_27639" style="mask-type:luminance" maskUnits="userSpaceOnUse" x="0" y="0" width="48" height="48">
<rect width="48" height="48" rx="4" fill="white"/>
</mask>
<g mask="url(#mask0_1518_27639)">
<path d="M30.8558 35.5378V39.8854C30.8558 40.2198 31.1345 40.4985 31.4689 40.4985C31.5804 40.4985 31.7476 40.4427 31.8033 40.387L40.2197 33.5313C40.3312 33.4198 40.3869 33.2526 40.3869 33.0854C40.3869 32.9181 40.2754 32.7509 40.164 32.6395L31.7476 25.4493C31.6918 25.3936 31.5804 25.3936 31.4689 25.3936C31.1345 25.3936 30.8558 25.6722 30.8558 26.0067V30.6329C25.6722 32.0263 21.4361 27.4558 21.4361 27.4558C21.3246 27.3444 21.1574 27.2886 20.9902 27.2886C20.6558 27.2886 20.3771 27.5673 20.3771 27.9018V28.0132C22.4951 36.764 30.8558 35.5378 30.8558 35.5378Z" fill="white"/>
<path d="M17.1443 28.682L17.0328 28.2918V27.9016V27.7902C17.0328 25.6164 18.8164 23.8328 20.9902 23.8328C22.0492 23.8328 22.9967 24.2229 23.777 25.0033L23.8328 25.059L23.8885 25.1148C24.3902 25.6721 25.8393 26.8426 27.5672 27.3443V25.9508C27.5672 23.777 29.3508 21.9934 31.5246 21.9934C32.3607 21.9934 32.918 22.2164 33.3082 22.4393L33.6984 22.6066L34.0328 22.8852L38.7705 26.8984C39.8852 25.7836 40.5541 24.2229 40.5541 22.5508C40.5541 19.0951 37.7672 16.3082 34.3115 16.3082H33.977V15.7508C33.977 12.2951 31.1344 9.45246 27.6787 9.45246C26.0066 9.45246 24.5574 10.0656 23.4426 11.1246C22.5508 8.78361 20.2656 7 17.5344 7C14.0787 7 11.2361 9.84262 11.2361 13.2984C11.2361 14.4689 11.5705 15.5279 12.0721 16.4754C9.28524 17.1443 7.27869 19.5967 7.27869 22.6066C7.27869 26.0066 9.89836 28.7377 13.2984 28.8492H17.4229C17.2 28.7934 17.2 28.7377 17.1443 28.682Z" fill="white"/>
</g>
</svg>
