<svg width="48" height="48" viewBox="0 0 48 48" fill="none" xmlns="http://www.w3.org/2000/svg">
<rect width="48" height="48" rx="4" fill="#2A739E"/>
<mask id="mask0_1518_27643" style="mask-type:luminance" maskUnits="userSpaceOnUse" x="0" y="0" width="48" height="48">
<rect width="48" height="48" rx="4" fill="white"/>
</mask>
<g mask="url(#mask0_1518_27643)">
<path fill-rule="evenodd" clip-rule="evenodd" d="M15.3606 20.377C19.0546 20.377 22.0492 17.3825 22.0492 13.6885C22.0492 9.99455 19.0546 7 15.3606 7C11.6667 7 8.67212 9.99455 8.67212 13.6885C8.67212 17.3825 11.6667 20.377 15.3606 20.377Z" fill="white"/>
<path fill-rule="evenodd" clip-rule="evenodd" d="M32.6393 30.4103C36.3333 30.4103 39.3279 27.4157 39.3279 23.7217C39.3279 20.0278 36.3333 17.0332 32.6393 17.0332C28.9454 17.0332 25.9508 20.0278 25.9508 23.7217C25.9508 27.4157 28.9454 30.4103 32.6393 30.4103Z" fill="white"/>
<path fill-rule="evenodd" clip-rule="evenodd" d="M15.3606 37.0982C17.2076 37.0982 18.7049 35.6009 18.7049 33.754C18.7049 31.907 17.2076 30.4097 15.3606 30.4097C13.5137 30.4097 12.0164 31.907 12.0164 33.754C12.0164 35.6009 13.5137 37.0982 15.3606 37.0982ZM15.3606 40.4425C11.6667 40.4425 8.67212 37.4479 8.67212 33.754C8.67212 30.06 11.6667 27.0654 15.3606 27.0654C19.0546 27.0654 22.0492 30.06 22.0492 33.754C22.0492 37.4479 19.0546 40.4425 15.3606 40.4425ZM19.1107 18.8931C21.1072 21.3493 23.7406 22.7841 26.9534 23.171C27.5646 23.2446 28.1198 22.8088 28.1934 22.1976C28.267 21.5863 27.8312 21.0311 27.22 20.9575C24.5772 20.6392 22.4699 19.4911 20.8408 17.4868C20.4524 17.0091 19.7503 16.9366 19.2726 17.325C18.7949 17.7133 18.7224 18.4154 19.1107 18.8931Z" fill="white"/>
<path fill-rule="evenodd" clip-rule="evenodd" d="M17.75 28.5283C19.0321 25.6343 19.115 22.6366 18.0012 19.5983C17.7893 19.0203 17.1489 18.7235 16.5709 18.9354C15.9928 19.1473 15.696 19.7877 15.9079 20.3657C16.8241 22.865 16.7578 25.2637 15.7116 27.6253C15.4622 28.1881 15.7164 28.8466 16.2793 29.096C16.8422 29.3454 17.5007 29.0912 17.75 28.5283Z" fill="white"/>
<path fill-rule="evenodd" clip-rule="evenodd" d="M20.3565 10.2068C22.4646 9.04854 24.6305 8.92031 26.9471 9.82262C29.1805 10.7729 30.6118 12.5571 31.1667 14.386C31.4609 15.318 31.5246 15.9143 31.5246 17.8838C31.5246 18.4995 32.0237 18.9986 32.6393 18.9986C33.255 18.9986 33.7541 18.4995 33.7541 17.8838C33.7541 15.7065 33.6684 14.9049 33.2965 13.7267C32.565 11.3156 30.7068 8.99916 27.7879 7.75801C24.8295 6.60517 21.974 6.77423 19.2829 8.2528C18.7433 8.54926 18.5462 9.22701 18.8427 9.76659C19.1391 10.3062 19.8169 10.5033 20.3565 10.2068Z" fill="white"/>
<path fill-rule="evenodd" clip-rule="evenodd" d="M20.3565 37.2532C22.4646 38.4114 24.6305 38.5396 26.9471 37.6373C29.1805 36.6871 30.6118 34.9028 31.1667 33.074C31.4609 32.142 31.5246 31.5457 31.5246 29.5761C31.5246 28.9605 32.0237 28.4614 32.6393 28.4614C33.255 28.4614 33.7541 28.9605 33.7541 29.5761C33.7541 31.7535 33.6684 32.5551 33.2965 33.7332C32.565 36.1443 30.7068 38.4608 27.7879 39.7019C24.8295 40.8548 21.974 40.6857 19.2829 39.2072C18.7433 38.9107 18.5462 38.233 18.8427 37.6934C19.1391 37.1538 19.8169 36.9567 20.3565 37.2532Z" fill="white"/>
</g>
</svg>
