<svg width="10" height="10" viewBox="0 0 10 10" fill="none" xmlns="http://www.w3.org/2000/svg">
<path fill-rule="evenodd" clip-rule="evenodd" d="M4.62984 1.16857L4.30291 0.841647C4.20676 0.745493 4.07214 0.745493 3.97599 0.841647L1.93753 2.86088L1.11061 2.05319C1.01445 1.95703 0.879836 1.95703 0.783682 2.05319L0.456759 2.38011C0.360605 2.47626 0.360605 2.61088 0.456759 2.70703L1.59137 3.84165C1.68753 3.9378 1.80291 3.97626 1.9183 3.97626C2.03368 3.97626 2.14907 3.9378 2.24522 3.84165L4.62984 1.49549C4.70676 1.41857 4.70676 1.26472 4.62984 1.16857ZM9.32214 3.36088H5.30291C5.12984 3.36088 4.99522 3.22626 4.99522 3.05318V2.4378C4.99522 2.26472 5.12984 2.13011 5.30291 2.13011H9.32214C9.49522 2.13011 9.62984 2.26472 9.62984 2.4378V3.05318C9.62984 3.22626 9.49522 3.36088 9.32214 3.36088ZM9.32215 7.76953H4.37985C4.20677 7.76953 4.07215 7.63492 4.07215 7.46184V6.84645C4.07215 6.67338 4.20677 6.53876 4.37985 6.53876H9.32215C9.49523 6.53876 9.62984 6.67338 9.62984 6.84645V7.46184C9.62984 7.63492 9.49523 7.76953 9.32215 7.76953ZM2.51443 7.76953H1.89905C1.72597 7.76953 1.59136 7.63492 1.59136 7.46184V6.84645C1.59136 6.67338 1.72597 6.53876 1.89905 6.53876H2.51443C2.68751 6.53876 2.82212 6.67338 2.82212 6.84645V7.46184C2.84136 7.63492 2.68751 7.76953 2.51443 7.76953Z" fill="#706E6B"/>
</svg>
