<svg width="26" height="26" viewBox="0 0 26 26" fill="none" xmlns="http://www.w3.org/2000/svg">
<path fill-rule="evenodd" clip-rule="evenodd" d="M15.8 1H10.2C9.85 1 9.6 1.3 9.6 1.65V2.9C9.6 3.25 9.9 3.55 10.2 3.55H15.8C16.15 3.55 16.4 3.25 16.4 2.9V1.65C16.45 1.3 16.15 1 15.8 1ZM24.35 1H18.75C18.4 1 18.1 1.3 18.1 1.65V2.9C18.1 3.25 18.4 3.55 18.75 3.55H24.35C24.7 3.5 25 3.25 25 2.9V1.65C25 1.3 24.7 1 24.35 1ZM24.35 5.2H8.5C8.15 5.2 7.85 4.9 7.85 4.55V1.65C7.85 1.3 7.55 1 7.2 1H1.65C1.3 1 1 1.3 1 1.65V24.4C1 24.7 1.3 25 1.65 25H24.35C24.7 25 25 24.7 25 24.35V5.85C25 5.5 24.7 5.2 24.35 5.2Z" fill="#706E6B"/>
</svg>
