<svg width="26" height="26" viewBox="0 0 26 26" fill="none" xmlns="http://www.w3.org/2000/svg">
<path d="M13.1 1.15039C18.2687 1.23194 22.4235 5.43118 22.45 10.6004C22.45 17.1004 15.8 23.0004 13.7 24.6504C13.3347 24.9429 12.8154 24.9429 12.45 24.6504C10.35 23.1004 3.65002 17.1004 3.65002 10.6004V10.5004C3.66103 5.34109 7.84073 1.16139 13 1.15039H13.1ZM13 3.75039C10.4057 3.76861 8.04789 5.2614 6.92178 7.5986C5.79568 9.9358 6.09757 12.7101 7.70002 14.7504C8.25002 13.9004 9.40002 13.3504 10.5 12.8504C10.555 12.857 10.61 12.8387 10.65 12.8004C10.7613 12.7501 10.8888 12.7501 11 12.8004C11.5901 13.1992 12.2878 13.4085 13 13.4004C13.7076 13.3782 14.3971 13.1713 15 12.8004C15.1113 12.7501 15.2388 12.7501 15.35 12.8004C15.405 12.7938 15.46 12.8121 15.5 12.8504C16.6 13.3004 17.75 13.9004 18.3 14.7004C19.9012 12.6668 20.2017 9.89783 19.0741 7.56808C17.9465 5.23832 15.5883 3.75619 13 3.75039ZM13 6.05039C14.5464 6.05039 15.8 7.43831 15.8 9.15039C15.8 10.8625 14.5464 12.2504 13 12.2504C11.4536 12.2504 10.2 10.8625 10.2 9.15039C10.2 7.43831 11.4536 6.05039 13 6.05039Z" fill="#706E6B"/>
</svg>
