<svg width="26" height="26" viewBox="0 0 26 26" fill="none" xmlns="http://www.w3.org/2000/svg">
<path fill-rule="evenodd" clip-rule="evenodd" d="M22.35 24.7008H3.65005C2.35005 24.7008 1.30005 23.6508 1.30005 22.3508V3.65078C1.30005 2.35078 2.35005 1.30078 3.65005 1.30078H22.4C23.7 1.30078 24.75 2.35078 24.75 3.65078V22.4008C24.7001 23.6508 23.65 24.7008 22.35 24.7008ZM4.45005 5.20078V20.8008C4.45005 21.2508 4.80005 21.6008 5.25005 21.6008H20.85C21.3 21.6008 21.65 21.2508 21.65 20.8008V5.20078C21.65 4.75078 21.3 4.40078 20.85 4.40078H5.25005C4.80005 4.40078 4.45005 4.75078 4.45005 5.20078ZM7.60005 17.6508V8.35078C7.60005 7.90078 7.95005 7.55078 8.40005 7.55078H9.95005C10.4 7.55078 10.75 7.90078 10.75 8.35078V17.6508C10.75 18.1008 10.4 18.4508 9.95005 18.4508H8.40005C7.95005 18.4508 7.60005 18.1008 7.60005 17.6508Z" fill="#706E6B"/>
</svg>
