<svg width="26" height="26" viewBox="0 0 26 26" fill="none" xmlns="http://www.w3.org/2000/svg">
<path fill-rule="evenodd" clip-rule="evenodd" d="M12.95 8L15.1 13H10.6L12.55 8H12.95ZM24 4V22C24 23.1 23.1 24 22 24H4C2.9 24 2 23.1 2 22V4C2 2.9 2.9 2 4 2H22C23.1 2 24 2.9 24 4ZM21.25 20.35L15.25 5.5C15.1 5.2 14.85 5 14.5 5H10.95C10.65 5 10.35 5.2 10.25 5.5L4.75 20.35C4.65 20.65 4.85 21 5.2 21H7.25C7.55 21 7.85 20.75 7.95 20.45L9.55 16H16.25L18 20.45C18.1 20.75 18.4 21 18.7 21H20.75C21.1 21 21.35 20.65 21.25 20.35Z" fill="#706E6B"/>
</svg>
