<svg width="26" height="26" viewBox="0 0 26 26" fill="none" xmlns="http://www.w3.org/2000/svg">
<path fill-rule="evenodd" clip-rule="evenodd" d="M5.2 18H7.25C7.55 18 7.85 17.75 7.95 17.45L9.55 13H16.25L18 17.45C18.1 17.75 18.4 18 18.7 18H20.75C21.1 18 21.35 17.65 21.2 17.35L15.2 2.5C15.1 2.2 14.85 2 14.55 2H11C10.7 2 10.4 2.2 10.3 2.5L4.8 17.35C4.65 17.65 4.9 18 5.2 18ZM12.55 5H13L15.15 10H10.65L12.55 5ZM24.25 21H1.75C1.35 21 1 21.35 1 21.75V23.25C1 23.65 1.35 24 1.75 24H24.25C24.65 24 25 23.65 25 23.25V21.75C25 21.35 24.65 21 24.25 21Z" fill="#706E6B"/>
</svg>
