<svg width="26" height="26" viewBox="0 0 26 26" fill="none" xmlns="http://www.w3.org/2000/svg">
<path d="M19.6 14.25C22.6 14.25 25 16.6 25 19.6C25 22.6 22.6 25 19.6 25H6.2C3.3 24.9 1 22.5 1 19.6C1 16.7 3.3 14.35 6.2 14.25H19.6ZM19.8 15.85H6.15L5.95138 15.8651C4.04511 16.0604 2.55 17.6683 2.55 19.65C2.55 21.7 4.15 23.35 6.15 23.45H19.8L19.9986 23.4349C21.9049 23.2396 23.4 21.6317 23.4 19.65C23.4 17.6 21.8 15.95 19.8 15.85ZM19.6 17C21.0359 17 22.2 18.1641 22.2 19.6C22.2 21.0359 21.0359 22.2 19.6 22.2C18.1641 22.2 17 21.0359 17 19.6C17 18.1641 18.1641 17 19.6 17ZM19.6 1C22.6 1 25 3.4 25 6.4C25 9.4 22.55 11.8 19.6 11.8H6.2C3.3 11.7 1 9.35 1 6.4C1 3.45 3.3 1.1 6.2 1H19.6ZM6.35 3.4C4.7 3.4 3.35 4.75 3.35 6.4C3.35 8.05 4.7 9.4 6.35 9.4C8 9.4 9.35 8.05 9.35 6.4C9.35 4.75 8 3.4 6.35 3.4Z" fill="#706E6B"/>
</svg>
