<svg width="26" height="26" viewBox="0 0 26 26" fill="none" xmlns="http://www.w3.org/2000/svg">
<path fill-rule="evenodd" clip-rule="evenodd" d="M8.6875 17.6375C8.6375 17.4875 8.4875 17.3375 8.3375 17.2875L7.2375 16.9875C7.0375 16.9375 6.7875 17.0375 6.6875 17.2375L4.7875 20.4875C4.2875 21.3875 4.5875 21.6875 5.4875 21.1875L8.7875 19.2875C8.9875 19.1875 9.0875 18.9375 9.0375 18.7375L8.6875 17.6375ZM17.2875 8.3375C17.3375 8.4875 17.4875 8.6375 17.6375 8.6875L18.7375 8.9875C18.9375 9.0375 19.1875 8.9375 19.2875 8.7375L21.1875 5.4375C21.6875 4.5375 21.3875 4.2375 20.4875 4.7375L17.1875 6.6375C16.9875 6.7375 16.8875 6.9875 16.9375 7.1875L17.2875 8.3375ZM6.6875 8.7875C6.7875 8.9875 7.0375 9.0875 7.2375 9.0375L8.3375 8.7375C8.4875 8.6875 8.6375 8.5375 8.6875 8.3875L8.9875 7.2875C9.0375 7.0875 8.9375 6.8375 8.7375 6.7375L5.4875 4.7875C4.5875 4.2875 4.2875 4.5875 4.7875 5.4875L6.6875 8.7875ZM19.2875 17.1875C19.1875 16.9875 18.9375 16.8875 18.7375 16.9375L17.6375 17.2375C17.4875 17.2875 17.3375 17.4375 17.2875 17.5875L16.9875 18.7375C16.9375 18.9375 17.0375 19.1875 17.2375 19.2875L20.5375 21.1875C21.4375 21.6875 21.7375 21.3875 21.2375 20.4875L19.2875 17.1875ZM24.3375 12.5875L16.1375 10.3875C15.8375 10.3375 15.6375 10.0875 15.5875 9.8375L13.3875 1.6375C13.1375 0.7875 12.7875 0.7875 12.5375 1.6375L10.3375 9.8375C10.2875 10.1375 10.0375 10.3375 9.7875 10.3875L1.6375 12.5875C0.7875 12.8375 0.7875 13.1875 1.6375 13.4375L9.8375 15.6375C10.1375 15.6875 10.3375 15.9375 10.3875 16.1875L12.5875 24.3875C12.8375 25.2375 13.1875 25.2375 13.4375 24.3875L15.6375 16.1875C15.6875 15.8875 15.9375 15.6875 16.1875 15.6375L24.3875 13.4375C25.1875 13.1875 25.1875 12.7875 24.3375 12.5875ZM12.9875 14.9875C11.8875 14.9875 10.9875 14.0875 10.9875 12.9875C10.9875 11.8875 11.8875 10.9875 12.9875 10.9875C14.0875 10.9875 14.9875 11.8875 14.9875 12.9875C14.9875 14.0875 14.0875 14.9875 12.9875 14.9875Z" fill="#706E6B"/>
</svg>
