<svg width="26" height="26" viewBox="0 0 26 26" fill="none" xmlns="http://www.w3.org/2000/svg">
<path d="M24.95 18.5508C24.95 19.7443 24.4759 20.8888 23.632 21.7328C22.7881 22.5767 21.6435 23.0508 20.45 23.0508H7.15C7.20043 22.8023 7.22555 22.5493 7.225 22.2958C7.22533 22.0455 7.2002 21.7959 7.15 21.5508H20.46C21.2556 21.5508 22.0187 21.2347 22.5813 20.6721C23.1439 20.1095 23.46 19.3464 23.46 18.5508C23.46 17.7551 23.1439 16.9921 22.5813 16.4295C22.0187 15.8669 21.2556 15.5508 20.46 15.5508H5.5C4.30653 15.5508 3.16193 15.0767 2.31802 14.2328C1.47411 13.3888 1 12.2443 1 11.0508C1 9.85731 1.47411 8.71271 2.31802 7.8688C3.16193 7.02489 4.30653 6.55078 5.5 6.55078H15.635C15.7478 7.06716 15.9154 7.57002 16.135 8.05078H5.5C4.70435 8.05078 3.94129 8.36685 3.37868 8.92946C2.81607 9.49207 2.5 10.2551 2.5 11.0508C2.5 11.8464 2.81607 12.6095 3.37868 13.1721C3.94129 13.7347 4.70435 14.0508 5.5 14.0508H20.46C21.0671 14.0501 21.6679 14.1743 22.225 14.4158C22.85 14.6791 23.4048 15.0849 23.845 15.6008C24.5567 16.4189 24.9491 17.4664 24.95 18.5508Z" fill="#706E6B"/>
<path d="M3.245 24.5349C4.48488 24.5349 5.49 23.5298 5.49 22.2899C5.49 21.05 4.48488 20.0449 3.245 20.0449C2.00512 20.0449 1 21.05 1 22.2899C1 23.5298 2.00512 24.5349 3.245 24.5349Z" fill="#706E6B"/>
<path d="M21.235 1.46484C20.7391 1.4655 20.2481 1.56399 19.7903 1.75468C19.3325 1.94538 18.9169 2.22452 18.5671 2.57612C18.2174 2.92772 17.9404 3.34487 17.7522 3.80368C17.5639 4.26248 17.468 4.75392 17.47 5.24984C17.47 7.86484 20.165 10.2498 20.995 10.8998C21.0663 10.9558 21.1544 10.9862 21.245 10.9862C21.3357 10.9862 21.4237 10.9558 21.495 10.8998C22.325 10.2448 24.995 7.86484 24.995 5.24984C24.997 4.75434 24.9012 4.26331 24.7133 3.80483C24.5253 3.34635 24.2489 2.92942 23.8996 2.57789C23.5504 2.22635 23.1353 1.9471 22.6781 1.75612C22.2209 1.56513 21.7305 1.46615 21.235 1.46484ZM21.235 6.81484C20.9215 6.81484 20.6151 6.72188 20.3544 6.54772C20.0938 6.37356 19.8906 6.12602 19.7707 5.8364C19.6507 5.54678 19.6193 5.22809 19.6805 4.92063C19.7416 4.61317 19.8926 4.33075 20.1142 4.10908C20.3359 3.88741 20.6183 3.73646 20.9258 3.6753C21.2332 3.61414 21.5519 3.64553 21.8416 3.76549C22.1312 3.88546 22.3787 4.08861 22.5529 4.34926C22.727 4.60992 22.82 4.91636 22.82 5.22984C22.8187 5.64981 22.6513 6.05219 22.3543 6.34915C22.0573 6.64611 21.655 6.81353 21.235 6.81484Z" fill="#706E6B"/>
</svg>
