<svg width="26" height="26" viewBox="0 0 26 26" fill="none" xmlns="http://www.w3.org/2000/svg">
<path fill-rule="evenodd" clip-rule="evenodd" d="M7.59998 14.1996V11.9996C10.15 11.5496 12.1 9.29961 12.1 6.59961C12.1 3.54961 9.64998 1.09961 6.59998 1.09961C3.54998 1.09961 1.09998 3.54961 1.09998 6.59961C1.09998 9.29961 3.04998 11.5496 5.59998 11.9996V14.1996C3.04998 14.6496 1.09998 16.8996 1.09998 19.5996C1.09998 22.6496 3.54998 25.0996 6.59998 25.0996C9.64998 25.0996 12.1 22.6496 12.1 19.5996C12.1 16.8996 10.15 14.6996 7.59998 14.1996ZM3.09998 6.59961C3.09998 4.64961 4.64998 3.09961 6.59998 3.09961C8.54998 3.09961 10.1 4.64961 10.1 6.59961C10.1 8.54961 8.54998 10.0996 6.59998 10.0996C4.64998 10.0996 3.09998 8.59961 3.09998 6.59961ZM15.15 4.59961H24.1C24.65 4.59961 25.1 5.04961 25.1 5.59961V7.59961C25.1 8.14961 24.65 8.59961 24.1 8.59961H15.15C14.6 8.59961 14.15 8.14961 14.15 7.59961V5.59961C14.15 5.04961 14.6 4.59961 15.15 4.59961ZM15.15 17.5996H24.1C24.65 17.5996 25.1 18.0496 25.1 18.5996V20.5996C25.1 21.1496 24.65 21.5996 24.1 21.5996H15.15C14.6 21.5996 14.15 21.1496 14.15 20.5996V18.5996C14.15 18.0996 14.6 17.5996 15.15 17.5996Z" fill="#706E6B"/>
</svg>
