<svg width="26" height="26" viewBox="0 0 26 26" fill="none" xmlns="http://www.w3.org/2000/svg">
<path fill-rule="evenodd" clip-rule="evenodd" d="M13.4117 1C15.0617 1 16.3617 2.3 16.3617 3.95C16.3617 5.6 15.0117 6.9 13.4117 6.9C11.8117 6.9 10.4617 5.6 10.4617 3.95C10.4617 2.3 11.7617 1 13.4117 1ZM21.0117 9.05C20.4117 9 19.8617 9.4 19.8117 9.95L19.5117 12.85C19.4117 12.85 19.3617 13 19.2617 13H16.5117L14.6117 9.65C14.4617 9.35 14.1617 9.1 13.8117 9.05L10.9117 8.65C10.4117 8.6 9.9117 8.85 9.7117 9.35L7.5117 15C7.3617 15.45 7.5617 15.9 7.9617 16.15L13.3617 19.85L13.8117 24.05C13.8617 24.6 14.3617 25 14.9117 25C15.5617 25 16.0617 24.5 16.0117 23.9L15.5117 18.75C15.5117 18.5 15.3617 18.25 15.1117 18.05L12.1617 14.75L13.2617 12.05L14.5617 14.3C14.7617 14.6 15.1117 14.95 15.5117 14.95H19.3117L18.2117 23.95C18.1617 24.5 18.5617 24.95 19.1617 25C19.2117 25 19.2617 24.95 19.2617 24.95C19.8117 24.95 20.2617 24.55 20.3617 24L22.0117 10.1C22.0617 9.6 21.6117 9.1 21.0117 9.05ZM5.6117 13.85L7.4617 9.1C7.5617 8.8 7.7117 8.5 7.9117 8.2L7.6617 8.15C6.0617 7.95 4.5617 8.9 4.0617 10.35L3.0617 12.95C2.8617 13.5 3.1617 14.15 3.7617 14.3L4.2117 14.4C4.8117 14.65 5.4117 14.35 5.6117 13.85ZM6.3117 17.6L4.0617 24.3C3.9617 24.65 4.2117 24.95 4.5617 24.95H5.8117C6.2617 24.95 6.7117 24.65 6.8617 24.25L9.0617 19.4L6.5617 17.85C6.5117 17.75 6.4117 17.65 6.3117 17.6Z" fill="#706E6B"/>
</svg>
