<svg width="26" height="26" viewBox="0 0 26 26" fill="none" xmlns="http://www.w3.org/2000/svg">
<path fill-rule="evenodd" clip-rule="evenodd" d="M23.5 10.5L21.25 4.4C20.9 3.25 19.8 2.5 18.6 2.5H7.4C6.2 2.5 5.1 3.25 4.7 4.4L2.5 10.5C1.45 10.8 1 11.8 1 12.9V18.7C1 19.75 2.1 20.65 3 21V23C3 23.65 3.35 24 4 24H6.55C7.2 24 7.5 23.65 7.5 23V21H18.5V23C18.5 23.65 18.85 24 19.5 24H22C22.65 24 23 23.65 23 23V21C23.9 20.65 25 19.8 25 18.7V12.9C25 11.8 24.55 10.8 23.5 10.5ZM5.5 17C4.4 17 3.5 16.1 3.5 15C3.5 13.9 4.4 13 5.5 13C6.6 13 7.5 13.9 7.5 15C7.5 16.1 6.6 17 5.5 17ZM13.8 10.5H5.9C5.6 10.5 5.4 10.25 5.5 10L7 5.5C7.05 5.35 7.15 5 7.5 5H18.5C18.9 5 18.95 5.4 19 5.5L20.5 10C20.6 10.3 20.45 10.5 20.05 10.5H13.8ZM20.5 17C19.4 17 18.5 16.1 18.5 15C18.5 13.9 19.4 13 20.5 13C21.6 13 22.5 13.9 22.5 15C22.5 16.1 21.6 17 20.5 17Z" fill="#706E6B"/>
</svg>
