<svg width="26" height="26" viewBox="0 0 26 26" fill="none" xmlns="http://www.w3.org/2000/svg">
<path fill-rule="evenodd" clip-rule="evenodd" d="M11.7529 13.8C12.0529 14.1 12.4529 14.1 12.7529 13.8L23.4529 3.95C23.6529 3.6 23.6029 3 22.8529 3H1.75289C1.20289 3 0.752889 3.55 1.15289 4L11.7529 13.8ZM15.1029 19.3C15.3529 16.5 17.6029 14.2 20.4529 13.9C20.7029 13.9 20.9529 13.85 21.1529 13.85C22.0529 13.85 22.8529 14.05 23.6029 14.35V8.15C23.6029 7.65 23.0029 7.4 22.6529 7.75L14.3529 15.45C13.8029 15.95 13.0529 16.25 12.3029 16.25C11.5529 16.25 10.8029 15.95 10.2529 15.45L1.95289 7.75C1.55289 7.4 1.00289 7.65 1.00289 8.15V17.95C1.00289 19.2 2.05289 20.25 3.30289 20.25H15.1529C15.1029 19.95 15.1029 19.6 15.1029 19.3ZM21.1029 16C18.9029 16 17.1029 17.8 17.1029 20C17.1029 22.2 18.9029 24 21.1029 24C23.3029 24 25.1029 22.2 25.1029 20C25.1029 17.8 23.3029 16 21.1029 16ZM24.1029 20.8C24.1029 20.9 24.0029 21 23.8529 21H18.3529C18.2029 21 18.1029 20.9 18.1029 20.8V19.2C18.1029 19.1 18.2029 19 18.3529 19H23.8529C24.0029 19 24.1029 19.1 24.1029 19.2V20.8Z" fill="#706E6B"/>
</svg>
