<svg width="26" height="26" viewBox="0 0 26 26" fill="none" xmlns="http://www.w3.org/2000/svg">
<path fill-rule="evenodd" clip-rule="evenodd" d="M24 5.5H2C1.45 5.5 1 5.95 1 6.5V19.5C1 20.05 1.45 20.5 2 20.5H24C24.55 20.5 25 20.05 25 19.5V6.5C25 5.95 24.55 5.5 24 5.5ZM23 18.5H3V7.5H23V18.5ZM5.6 10.9H6.1C6.5 10.9 6.85 10.55 6.85 10.15V9.65C6.85 9.25 6.5 8.9 6.1 8.9H5.6C5.2 8.9 4.85 9.25 4.85 9.65V10.15C4.85 10.55 5.2 10.9 5.6 10.9ZM8.45 10.9H8.95C9.35 10.9 9.7 10.55 9.7 10.15V9.65C9.7 9.25 9.35 8.9 8.95 8.9H8.45C8.05 8.9 7.7 9.25 7.7 9.65V10.15C7.7 10.55 8.05 10.9 8.45 10.9ZM14.2 10.9H14.7C15.1 10.9 15.45 10.55 15.45 10.15V9.65C15.45 9.25 15.1 8.9 14.7 8.9H14.2C13.8 8.9 13.45 9.25 13.45 9.65V10.15C13.45 10.55 13.8 10.9 14.2 10.9ZM11.3 10.9H11.8C12.2 10.9 12.55 10.55 12.55 10.15V9.65C12.55 9.25 12.2 8.9 11.8 8.9H11.3C10.9 8.9 10.55 9.25 10.55 9.65V10.15C10.55 10.55 10.9 10.9 11.3 10.9ZM19.95 10.9H20.45C20.85 10.9 21.2 10.55 21.2 10.15V9.65C21.2 9.25 20.85 8.9 20.45 8.9H19.95C19.55 8.9 19.2 9.25 19.2 9.65V10.15C19.2 10.55 19.55 10.9 19.95 10.9ZM17.05 10.9H17.55C17.95 10.9 18.3 10.55 18.3 10.15V9.65C18.3 9.25 17.95 8.9 17.55 8.9H17.05C16.65 8.9 16.3 9.25 16.3 9.65V10.15C16.3 10.55 16.65 10.9 17.05 10.9ZM5.6 13.9H6.1C6.5 13.9 6.85 13.55 6.85 13.15V12.65C6.85 12.25 6.5 11.9 6.1 11.9H5.6C5.2 11.9 4.85 12.25 4.85 12.65V13.15C4.85 13.55 5.2 13.9 5.6 13.9ZM8.45 13.9H8.95C9.35 13.9 9.7 13.55 9.7 13.15V12.65C9.7 12.25 9.35 11.9 8.95 11.9H8.45C8.05 11.9 7.7 12.25 7.7 12.65V13.15C7.7 13.55 8.05 13.9 8.45 13.9ZM14.2 13.9H14.7C15.1 13.9 15.45 13.55 15.45 13.15V12.65C15.45 12.25 15.1 11.9 14.7 11.9H14.2C13.8 11.9 13.45 12.25 13.45 12.65V13.15C13.45 13.55 13.8 13.9 14.2 13.9ZM11.3 13.9H11.8C12.2 13.9 12.55 13.55 12.55 13.15V12.65C12.55 12.25 12.2 11.9 11.8 11.9H11.3C10.9 11.9 10.55 12.25 10.55 12.65V13.15C10.55 13.55 10.9 13.9 11.3 13.9ZM19.95 13.9H20.45C20.85 13.9 21.2 13.55 21.2 13.15V12.65C21.2 12.25 20.85 11.9 20.45 11.9H19.95C19.55 11.9 19.2 12.25 19.2 12.65V13.15C19.2 13.55 19.55 13.9 19.95 13.9ZM17.05 13.9H17.55C17.95 13.9 18.3 13.55 18.3 13.15V12.65C18.3 12.25 17.95 11.9 17.55 11.9H17.05C16.65 11.9 16.3 12.25 16.3 12.65V13.15C16.3 13.55 16.65 13.9 17.05 13.9ZM5.6 16.9H6.1C6.5 16.9 6.85 16.55 6.85 16.15V15.65C6.85 15.25 6.5 14.9 6.1 14.9H5.6C5.2 14.9 4.85 15.25 4.85 15.65V16.15C4.85 16.55 5.2 16.9 5.6 16.9ZM8.45 16.9H17.55C17.95 16.9 18.3 16.55 18.3 16.15V15.65C18.3 15.25 17.95 14.9 17.55 14.9H8.45C8.05 14.9 7.7 15.25 7.7 15.65V16.15C7.7 16.55 8.05 16.9 8.45 16.9ZM19.95 16.9H20.45C20.85 16.9 21.2 16.55 21.2 16.15V15.65C21.2 15.25 20.85 14.9 20.45 14.9H19.95C19.55 14.9 19.2 15.25 19.2 15.65V16.15C19.2 16.55 19.55 16.9 19.95 16.9Z" fill="#706E6B"/>
</svg>
