<svg width="26" height="26" viewBox="0 0 26 26" fill="none" xmlns="http://www.w3.org/2000/svg">
<path fill-rule="evenodd" clip-rule="evenodd" d="M16.4462 1.75C16.2645 1.30087 15.8306 1.00503 15.3462 1H10.1462C9.68938 1.01792 9.29128 1.31649 9.14617 1.75L1.04617 23.55C0.964131 23.7646 0.992577 24.0057 1.12229 24.1953C1.252 24.3849 1.46647 24.4987 1.69617 24.5H4.69617C5.17458 24.4671 5.58746 24.1525 5.74617 23.7L8.09617 17.15H17.9462L20.4962 23.7C20.6549 24.1525 21.0678 24.4671 21.5462 24.5H24.5462C24.7852 24.5087 25.014 24.4029 25.1621 24.2152C25.3103 24.0275 25.3601 23.7804 25.2962 23.55L16.4462 1.75ZM9.64617 12.75L12.4962 5.4H13.0962L16.2462 12.75H9.64617Z" fill="#706E6B"/>
</svg>
