<svg width="48" height="48" viewBox="0 0 48 48" fill="none" xmlns="http://www.w3.org/2000/svg">
<rect width="48" height="48" rx="4" fill="#EB7092"/>
<path fill-rule="evenodd" clip-rule="evenodd" d="M17.5693 13.2575H19.6885C19.9808 13.2575 20.2 13.0382 20.2 12.7459V11.1382H27.7269V12.7459C27.7269 13.0382 27.9462 13.2575 28.2385 13.2575H30.3577C30.65 13.2575 30.8692 13.0382 30.8692 12.7459V11.1382C30.8692 9.38439 29.4077 7.92285 27.6539 7.92285H20.2731C18.5192 7.92285 17.0577 9.38439 17.0577 11.1382V12.7459C17.0577 13.0382 17.2039 13.2575 17.5693 13.2575ZM36.8616 16.4729H11.1385C9.38463 16.4729 7.9231 17.9344 7.9231 19.6882V36.8613C7.9231 38.6152 9.38463 40.0767 11.1385 40.0767H36.8616C38.6154 40.0767 40.0769 38.6152 40.0769 36.8613V19.6882C40.0769 17.9344 38.6154 16.4729 36.8616 16.4729Z" fill="white"/>
</svg>
