<svg width="48" height="48" viewBox="0 0 48 48" fill="none" xmlns="http://www.w3.org/2000/svg">
<rect width="48" height="48" rx="4" fill="#EB7092"/>
<mask id="mask0_1518_27647" style="mask-type:luminance" maskUnits="userSpaceOnUse" x="0" y="0" width="48" height="48">
<rect width="48" height="48" rx="4" fill="white"/>
</mask>
<g mask="url(#mask0_1518_27647)">
<path d="M16.8033 13.7433H29.1566C29.7799 13.7433 30.2899 13.2333 30.2899 12.61V10.3433C30.2899 8.47333 28.7599 7 26.9466 7H19.0699C17.1999 7 15.7266 8.53 15.7266 10.3433V12.61C15.6699 13.2333 16.1799 13.7433 16.8033 13.7433Z" fill="white"/>
<path d="M35.3333 9.77637H34.2C33.86 9.77637 33.6333 10.003 33.6333 10.343V12.6097C33.6333 15.103 31.5933 17.0864 29.1567 17.0864H16.8033C14.31 17.0864 12.3267 15.0464 12.3267 12.6097V10.343C12.3267 10.003 12.1 9.77637 11.76 9.77637H10.6267C8.75666 9.77637 7.28333 11.3064 7.28333 13.1197V36.1264C7.28333 37.9964 8.81333 39.4697 10.6267 39.4697H21.96C23.5467 39.4697 23.7167 38.1664 23.7167 37.713V25.5864C23.7167 24.283 24.4533 23.9997 24.85 23.9997H37.09C38.45 23.9997 38.6767 22.8097 38.6767 22.413V13.233C38.7333 11.3064 37.2033 9.77637 35.3333 9.77637Z" fill="white"/>
<path fill-rule="evenodd" clip-rule="evenodd" d="M40.0934 29.8937H27.74C27.4 29.8937 27.1167 29.6104 27.1167 29.2704V28.0237C27.1167 27.6837 27.4 27.4004 27.74 27.4004H40.0934C40.4334 27.4004 40.7167 27.6837 40.7167 28.0237V29.2704C40.7167 29.6104 40.4334 29.8937 40.0934 29.8937ZM40.0934 35.4471H27.74C27.4 35.4471 27.1167 35.1637 27.1167 34.8237V33.5771C27.1167 33.2371 27.4 32.9537 27.74 32.9537H40.0934C40.4334 32.9537 40.7167 33.2371 40.7167 33.5771V34.8237C40.7167 35.1637 40.4334 35.4471 40.0934 35.4471ZM27.74 41.0004H40.0934C40.4334 41.0004 40.7167 40.7171 40.7167 40.3771V39.1304C40.7167 38.7904 40.4334 38.5071 40.0934 38.5071H27.74C27.4 38.5071 27.1167 38.7904 27.1167 39.1304V40.3771C27.1167 40.7171 27.4 41.0004 27.74 41.0004Z" fill="white"/>
</g>
</svg>
