<svg width="48" height="48" viewBox="0 0 48 48" fill="none" xmlns="http://www.w3.org/2000/svg">
<g clip-path="url(#clip0_1518_27978)">
<mask id="mask0_1518_27978" style="mask-type:alpha" maskUnits="userSpaceOnUse" x="0" y="0" width="48" height="48">
<path d="M44 0H4C1.79086 0 0 1.79086 0 4V44C0 46.2091 1.79086 48 4 48H44C46.2091 48 48 46.2091 48 44V4C48 1.79086 46.2091 0 44 0Z" fill="white"/>
</mask>
<g mask="url(#mask0_1518_27978)">
<path d="M44 0H4C1.79086 0 0 1.79086 0 4V44C0 46.2091 1.79086 48 4 48H44C46.2091 48 48 46.2091 48 44V4C48 1.79086 46.2091 0 44 0Z" fill="#00A1E0"/>
<path d="M20.94 25.3033C25.9787 25.3033 30.0633 21.2187 30.0633 16.18C30.0633 11.1413 25.9787 7.05664 20.94 7.05664C15.9013 7.05664 11.8167 11.1413 11.8167 16.18C11.8167 21.2187 15.9013 25.3033 20.94 25.3033Z" fill="white"/>
<path d="M23.32 40.7743C24.9067 40.7743 24 39.6976 24 39.6976C22.4583 37.7666 21.619 35.3686 21.62 32.8976C21.6101 31.3529 21.9389 29.8248 22.5834 28.4209L22.6967 28.1943C22.8547 27.9963 22.8862 27.7257 22.7778 27.4967C22.6693 27.2678 22.44 27.1207 22.1867 27.1176C21.7539 27.0705 21.3186 27.0515 20.8834 27.0609C14.0189 27.0622 8.19926 32.1091 7.22668 38.9043C7.22668 39.5843 7.45335 40.8876 9.60668 40.8876H23.0367C23.2634 40.7743 23.2633 40.7743 23.32 40.7743Z" fill="white"/>
<path d="M32.67 24.6797C28.2103 24.6642 24.5824 28.2668 24.5667 32.7264C24.5511 37.1861 28.1537 40.814 32.6134 40.8297C37.073 40.8453 40.701 37.2428 40.7167 32.7831C40.7242 30.6415 39.8806 28.5846 38.3716 27.0649C36.8625 25.5452 34.8116 24.6873 32.67 24.6797ZM32.67 27.2298C33.6689 27.236 34.4771 28.0442 34.4833 29.0431C34.4903 29.4561 34.3496 29.858 34.0867 30.1765L35.39 32.6131C35.4467 32.7265 35.39 32.8398 35.2767 32.8398C35.0501 32.8859 34.837 32.9828 34.6533 33.1231C34.54 33.1798 34.4267 33.1231 34.4267 33.0665L33.18 30.7431C33.0137 30.787 32.8418 30.8061 32.67 30.7998C31.6711 30.7936 30.8628 29.9854 30.8567 28.9865C30.8532 28.5096 31.045 28.052 31.3875 27.7202C31.7301 27.3884 32.1935 27.2112 32.67 27.2298ZM31.5367 31.8765L30.29 34.1998C30.6451 34.5413 30.8491 35.0105 30.8567 35.5031C30.8567 36.5046 30.0448 37.3165 29.0433 37.3165C28.0418 37.3165 27.23 36.5046 27.23 35.5031C27.23 34.5016 28.0418 33.6898 29.0433 33.6898H29.27L30.5733 31.2531C30.63 31.1398 30.6867 31.1398 30.8567 31.1965C31.0369 31.3543 31.2497 31.4704 31.48 31.5365C31.5367 31.7631 31.5933 31.8765 31.5367 31.8765ZM36.24 37.4298C35.5117 37.4338 34.8477 37.0133 34.54 36.3531H32.0467C31.9333 36.3531 31.82 36.2398 31.9333 36.1265C31.9833 35.9614 32.0026 35.7885 31.99 35.6165V35.5031C31.99 35.3898 32.0467 35.2765 32.1033 35.2765H34.4833C34.6279 34.4208 35.3722 33.7966 36.24 33.8031C37.2389 33.8093 38.0471 34.6176 38.0533 35.6165C37.9875 36.5894 37.2129 37.364 36.24 37.4298Z" fill="white"/>
</g>
</g>
<defs>
<clipPath id="clip0_1518_27978">
<rect width="48" height="48" fill="white"/>
</clipPath>
</defs>
</svg>
