<svg width="48" height="48" viewBox="0 0 48 48" fill="none" xmlns="http://www.w3.org/2000/svg">
<rect width="48" height="48" rx="4" fill="#969492"/>
<mask id="mask0_1518_27774" style="mask-type:luminance" maskUnits="userSpaceOnUse" x="0" y="0" width="48" height="48">
<rect width="48" height="48" rx="4" fill="white"/>
</mask>
<g mask="url(#mask0_1518_27774)">
<path fill-rule="evenodd" clip-rule="evenodd" d="M7.05664 33.3502C7.05664 29.1568 10.4566 25.7568 14.65 25.7568C18.8433 25.7568 22.2433 29.1568 22.2433 33.3502C22.2433 37.5435 18.8433 40.9435 14.65 40.9435C10.4566 40.9435 7.05664 37.5435 7.05664 33.3502ZM10.4 33.3502C10.4 35.6735 12.3266 37.6002 14.65 37.6002C16.9733 37.6002 18.9 35.7302 18.9 33.3502C18.9 31.0268 16.9733 29.1002 14.65 29.1002C12.3266 29.1002 10.4 31.0268 10.4 33.3502Z" fill="white"/>
<path d="M33.3499 25.7568C29.1566 25.7568 25.7566 29.1568 25.7566 33.3502C25.7566 37.5435 29.1566 40.9435 33.3499 40.9435C37.5433 40.9435 40.9433 37.5435 40.9433 33.3502C40.9433 29.1568 37.5433 25.7568 33.3499 25.7568Z" fill="white"/>
<path fill-rule="evenodd" clip-rule="evenodd" d="M7.05664 14.5933C7.05664 10.4 10.4566 7 14.65 7C18.8433 7 22.2433 10.4 22.2433 14.5933C22.2433 18.7867 18.8433 22.1867 14.65 22.1867C10.4566 22.1867 7.05664 18.7867 7.05664 14.5933ZM10.4 14.5933C10.4 16.9167 12.3266 18.8433 14.65 18.8433C16.9733 18.8433 18.9 16.9167 18.9 14.5933C18.9 12.27 16.9733 10.3433 14.65 10.3433C12.3266 10.3433 10.4 12.27 10.4 14.5933Z" fill="white"/>
<path d="M33.3499 7C29.1566 7 25.7566 10.4 25.7566 14.5933C25.7566 18.7867 29.1566 22.1867 33.3499 22.1867C37.5433 22.1867 40.9433 18.7867 40.9433 14.5933C40.9433 10.4 37.5433 7 33.3499 7Z" fill="white"/>
</g>
</svg>
