<svg width="48" height="48" viewBox="0 0 48 48" fill="none" xmlns="http://www.w3.org/2000/svg">
<rect width="48" height="48" rx="4" fill="#4BC076"/>
<mask id="mask0_1518_27776" style="mask-type:luminance" maskUnits="userSpaceOnUse" x="0" y="0" width="48" height="48">
<rect width="48" height="48" rx="4" fill="white"/>
</mask>
<g mask="url(#mask0_1518_27776)">
<path d="M23.3868 20.0426C23.777 20.377 24.2229 20.377 24.6131 20.0426L37.4327 8.17049C37.6557 7.72459 37.5999 7 36.7081 7L11.2917 7.05574C10.6229 7.05574 10.0655 7.66885 10.5672 8.22623L23.3868 20.0426Z" fill="white"/>
<path d="M37.5442 13.2422C37.5442 12.6291 36.8196 12.3504 36.4294 12.7406L26.4524 21.9931C25.7835 22.6062 24.8917 22.9406 23.9999 22.9406C23.1081 22.9406 22.2163 22.6062 21.5474 21.9931L11.5147 12.7406C11.0688 12.3504 10.3999 12.6291 10.3999 13.2422V25.0586C10.3999 26.5636 11.6261 27.7898 13.131 27.7898H26.4524V24.3898C26.5638 22.5504 28.013 21.0455 29.9081 20.9341H30.2983C32.1376 21.0455 33.6425 22.4947 33.754 24.3898V27.7898H34.9802C36.4851 27.7898 37.7114 26.5636 37.7114 25.0586C37.5442 25.0586 37.5442 16.8652 37.5442 13.2422Z" fill="white"/>
<path d="M35.7606 31.3576L32.0262 30.0756C31.7475 29.9641 31.5245 29.6854 31.5245 29.4068V24.4461C31.5245 23.6658 30.9114 23.1084 30.1311 23.1084H30.0196C29.2393 23.1084 28.6262 23.7215 28.6262 24.4461V34.2002C28.6262 35.0363 27.5672 35.3707 27.1213 34.6461L26.1737 32.6395C25.6721 31.8035 24.5573 31.5248 23.7213 32.1379L23.1082 32.6395L26.2295 40.0527C26.3409 40.3871 26.6754 40.5543 27.0655 40.5543H35.259C35.6491 40.5543 35.9836 40.2756 36.095 39.9412L37.5442 34.7576C37.8786 33.2527 37.0983 31.8592 35.7606 31.3576Z" fill="white"/>
</g>
</svg>
