<svg width="48" height="48" viewBox="0 0 48 48" fill="none" xmlns="http://www.w3.org/2000/svg">
<rect width="48" height="48" rx="4" fill="#7DC37D"/>
<mask id="mask0_1518_27389" style="mask-type:luminance" maskUnits="userSpaceOnUse" x="0" y="0" width="48" height="48">
<rect width="48" height="48" rx="4" fill="white"/>
</mask>
<g mask="url(#mask0_1518_27389)">
<path d="M17.7666 13.8H30.2333C30.8566 13.8 31.3666 13.29 31.3666 12.6667V10.4C31.3666 8.53 29.8366 7 27.9666 7H20.0333C18.1633 7 16.6333 8.53 16.6333 10.4V12.6667C16.6333 13.29 17.1433 13.8 17.7666 13.8Z" fill="white"/>
<path fill-rule="evenodd" clip-rule="evenodd" d="M36.4666 9.83337H35.3333C34.9933 9.83337 34.7666 10.06 34.7666 10.4V12.6667C34.7666 15.16 32.7266 17.2 30.2333 17.2H17.7666C15.2733 17.2 13.2333 15.16 13.2333 12.6667V10.4C13.2333 10.06 13.0066 9.83337 12.6666 9.83337H11.5333C9.6633 9.83337 8.1333 11.3634 8.1333 13.2334V37.6C8.1333 39.47 9.6633 41 11.5333 41H36.4666C38.3366 41 39.8666 39.47 39.8666 37.6V13.2334C39.8666 11.3634 38.3366 9.83337 36.4666 9.83337ZM17.7666 34.2C17.7666 34.8234 17.2566 35.3334 16.6333 35.3334H15.5C14.8766 35.3334 14.3666 34.8234 14.3666 34.2V33.0667C14.3666 32.4434 14.8766 31.9334 15.5 31.9334H16.6333C17.2566 31.9334 17.7666 32.4434 17.7666 33.0667V34.2ZM16.6333 29.6667C17.2566 29.6667 17.7666 29.1567 17.7666 28.5334V27.4C17.7666 26.7767 17.2566 26.2667 16.6333 26.2667H15.5C14.8766 26.2667 14.3666 26.7767 14.3666 27.4V28.5334C14.3666 29.1567 14.8766 29.6667 15.5 29.6667H16.6333ZM17.7666 22.8667C17.7666 23.49 17.2566 24 16.6333 24H15.5C14.8766 24 14.3666 23.49 14.3666 22.8667V21.7334C14.3666 21.11 14.8766 20.6 15.5 20.6H16.6333C17.2566 20.6 17.7666 21.11 17.7666 21.7334V22.8667ZM32.5 35.3334C33.1233 35.3334 33.6333 34.8234 33.6333 34.2V33.0667C33.6333 32.4434 33.1233 31.9334 32.5 31.9334H21.1666C20.5433 31.9334 20.0333 32.4434 20.0333 33.0667V34.2C20.0333 34.8234 20.5433 35.3334 21.1666 35.3334H32.5ZM33.6333 28.5334C33.6333 29.1567 33.1233 29.6667 32.5 29.6667H21.1666C20.5433 29.6667 20.0333 29.1567 20.0333 28.5334V27.4C20.0333 26.7767 20.5433 26.2667 21.1666 26.2667H32.5C33.1233 26.2667 33.6333 26.7767 33.6333 27.4V28.5334ZM32.5 24C33.1233 24 33.6333 23.49 33.6333 22.8667V21.7334C33.6333 21.11 33.1233 20.6 32.5 20.6H21.1666C20.5433 20.6 20.0333 21.11 20.0333 21.7334V22.8667C20.0333 23.49 20.5433 24 21.1666 24H32.5Z" fill="white"/>
</g>
</svg>
