<svg width="48" height="48" viewBox="0 0 48 48" fill="none" xmlns="http://www.w3.org/2000/svg">
<rect width="48" height="48" rx="4" fill="#EB7092"/>
<mask id="mask0_1518_27784" style="mask-type:luminance" maskUnits="userSpaceOnUse" x="0" y="0" width="48" height="48">
<rect width="48" height="48" rx="4" fill="white"/>
</mask>
<g mask="url(#mask0_1518_27784)">
<path d="M17.7666 13.8H30.2333C30.8566 13.8 31.3666 13.29 31.3666 12.6667V10.4C31.3666 8.53 29.8366 7 27.9666 7H20.0333C18.1633 7 16.6333 8.53 16.6333 10.4V12.6667C16.6333 13.29 17.1433 13.8 17.7666 13.8Z" fill="white"/>
<path fill-rule="evenodd" clip-rule="evenodd" d="M35.3333 9.83301H36.4666C38.3366 9.83301 39.8666 11.363 39.8666 13.233V37.5997C39.8666 39.4697 38.3366 40.9997 36.4666 40.9997H11.5333C9.6633 40.9997 8.1333 39.4697 8.1333 37.5997V13.233C8.1333 11.363 9.6633 9.83301 11.5333 9.83301H12.6666C13.0066 9.83301 13.2333 10.0597 13.2333 10.3997V12.6663C13.2333 15.1597 15.2733 17.1997 17.7666 17.1997H30.2333C32.7266 17.1997 34.7666 15.1597 34.7666 12.6663V10.3997C34.7666 10.0597 34.9933 9.83301 35.3333 9.83301ZM31.3666 37.543L32.1033 36.8063C32.33 36.5797 32.33 36.2397 32.0466 36.1263L27.4566 31.5363C28.42 30.233 28.8733 28.533 28.6466 26.7763C28.25 23.773 25.8133 21.4497 22.81 21.1663C18.73 20.713 15.2733 24.2263 15.67 28.3063C15.9533 31.253 18.3333 33.7463 21.28 34.143C23.0933 34.3697 24.7366 33.8597 26.04 32.953L30.63 37.543C30.8566 37.713 31.1966 37.713 31.3666 37.543Z" fill="white"/>
<path d="M22.2433 23.1504C19.7499 23.1504 17.7666 25.1904 17.7666 27.6271C17.7666 30.1204 19.7499 32.1037 22.2433 32.1037C24.7366 32.1037 26.7199 30.1204 26.7199 27.6271C26.7199 25.1337 24.7366 23.1504 22.2433 23.1504Z" fill="white"/>
</g>
</svg>
