<svg width="48" height="48" viewBox="0 0 48 48" fill="none" xmlns="http://www.w3.org/2000/svg">
<rect width="48" height="48" rx="4" fill="#1589E4"/>
<mask id="mask0_1518_27788" style="mask-type:luminance" maskUnits="userSpaceOnUse" x="0" y="0" width="48" height="48">
<rect width="48" height="48" rx="4" fill="white"/>
</mask>
<g mask="url(#mask0_1518_27788)">
<path fill-rule="evenodd" clip-rule="evenodd" d="M26.992 17.1998H32.296C32.636 17.1998 32.908 17.5058 32.908 17.8458V19.1038C32.908 19.4438 32.602 19.7498 32.262 19.7498H15.704C15.364 19.7498 15.058 19.4438 15.058 19.1038V17.8458C15.058 17.5058 15.364 17.1998 15.704 17.1998H21.042V15.4998C21.042 14.5478 21.824 13.7998 22.742 13.7998H25.292C26.244 13.7998 26.992 14.5818 26.992 15.4998V17.1998ZM22.708 17.1998H25.224V15.9418C25.224 15.7038 25.054 15.5338 24.816 15.5338H23.116C22.878 15.5338 22.708 15.7038 22.708 15.9418V17.1998Z" fill="white"/>
<path fill-rule="evenodd" clip-rule="evenodd" d="M17.4039 21.4502H30.5959C30.9359 21.4502 31.2079 21.7562 31.1739 22.0962V32.0922C31.1739 33.2822 30.2559 34.2002 29.0659 34.2002H18.8659C17.6759 34.2002 16.7579 33.2822 16.7579 32.0922V22.0962C16.7579 21.7562 17.0639 21.4502 17.4039 21.4502ZM20.7019 32.0582L22.8439 32.0242C23.1839 32.0242 23.4559 31.7522 23.4559 31.4122C23.4559 31.3102 23.4219 31.2082 23.3539 31.1062C23.2519 30.9362 23.0479 30.8342 22.8439 30.8342L20.7359 30.8682C20.7359 30.8682 20.4979 30.8342 20.3279 30.5622C20.1579 30.3242 20.2599 30.0182 20.8379 29.0322L21.3819 29.3722C21.4499 29.4062 21.5179 29.4062 21.5859 29.3722C21.6539 29.3382 21.6539 29.2702 21.6539 29.2022L21.2799 27.5022L21.2459 27.3662C21.1779 27.2302 21.1099 27.2302 21.0419 27.2302L20.9059 27.2642L19.2399 27.6722C19.1379 27.7062 19.1039 27.7402 19.1039 27.8082C19.0699 27.8762 19.1039 27.9442 19.1719 27.9782L19.7839 28.3862C19.1379 29.5082 18.6959 30.2902 19.2739 31.2082C19.8179 32.0582 20.6339 32.0582 20.7019 32.0582ZM24.3739 25.8362C24.3739 25.7682 24.4079 25.7002 24.4759 25.6662L25.0539 25.3942C24.5439 24.3742 24.3399 24.1362 24.0339 24.1362C23.7313 24.1362 23.6173 24.2708 23.5719 24.3244C23.5662 24.3311 23.5617 24.3365 23.5579 24.3402L22.4359 26.1422C22.3339 26.3122 22.1299 26.4142 21.9259 26.4142C21.8239 26.4142 21.7219 26.3802 21.6199 26.3122C21.3479 26.1422 21.2459 25.7682 21.4499 25.4962L22.5719 23.6942C22.6059 23.6262 23.0479 22.9462 24.0339 22.9462C25.0988 22.9462 25.5123 23.7279 26.1032 24.8449L26.1419 24.9182L26.8219 24.6122C26.8899 24.5782 26.9579 24.6122 26.9919 24.6462C27.0259 24.6802 27.0599 24.7482 27.0259 24.8162L26.4479 26.5502C26.4479 26.5842 26.4139 26.6182 26.3459 26.6522C26.2779 26.6862 26.2099 26.6522 26.2099 26.6522L24.4759 26.0062C24.4079 25.9722 24.3739 25.9042 24.3739 25.8362ZM26.1079 31.9562C27.3999 31.9902 28.3179 31.9902 28.8279 31.0382C29.2907 30.1787 28.95 29.5121 28.8995 29.4133C28.8981 29.4104 28.8969 29.4081 28.8959 29.4062L27.8419 27.5702C27.6719 27.2642 27.2979 27.1622 27.0259 27.3322C26.9239 27.4002 26.8559 27.4682 26.7879 27.5702C26.6859 27.7402 26.6859 27.9782 26.7879 28.1482L27.8419 29.9842C27.8759 30.0182 27.9439 30.2222 27.8079 30.4942C27.6719 30.7662 27.3319 30.8002 26.2099 30.8002L26.2439 30.1542C26.2439 30.0862 26.2099 30.0182 26.1419 29.9842C26.086 29.9562 26.053 29.9743 26.0052 30.0005C25.995 30.0062 25.984 30.0122 25.9719 30.0182L24.6119 31.2082L24.5439 31.2762C24.5439 31.2762 24.4419 31.3782 24.5439 31.4802L25.8019 32.8062C25.8553 32.8596 25.9087 32.8501 25.9456 32.8436C25.9557 32.8418 25.9646 32.8402 25.9719 32.8402C26.0399 32.8402 26.0739 32.7722 26.0739 32.7042L26.1079 31.9562Z" fill="white"/>
</g>
</svg>
