<svg width="48" height="48" viewBox="0 0 48 48" fill="none" xmlns="http://www.w3.org/2000/svg">
<rect width="48" height="48" rx="4" fill="#3C97DD"/>
<mask id="mask0_1518_27790" style="mask-type:luminance" maskUnits="userSpaceOnUse" x="0" y="0" width="48" height="48">
<rect width="48" height="48" rx="4" fill="white"/>
</mask>
<g mask="url(#mask0_1518_27790)">
<path d="M36.0416 35.3345H33.9161V31.0833H36.0416C36.4661 31.0833 36.75 30.7994 36.75 30.375V11.9583C36.75 11.5333 36.4661 11.25 36.0416 11.25H17.625C17.2 11.25 16.9166 11.5333 16.9166 11.9583V14.0833H12.6666V11.9583C12.6666 9.19583 14.8625 7 17.625 7H36.0416C38.8047 7 41 9.19583 41 11.9583V30.375C41 33.1381 38.8058 35.3345 36.0416 35.3345Z" fill="white"/>
<path d="M28.25 16.917H9.83333C8.27557 16.917 7 18.1914 7 19.7503V38.167C7 39.7253 8.27557 41.0003 9.83333 41.0003H28.25C29.8083 41.0003 31.0833 39.7253 31.0833 38.167V19.7503C31.0833 18.192 29.8095 16.917 28.25 16.917Z" fill="white"/>
</g>
</svg>
