<svg width="48" height="48" viewBox="0 0 48 48" fill="none" xmlns="http://www.w3.org/2000/svg">
<rect width="48" height="48" rx="4" fill="#009688"/>
<mask id="mask0_1518_27395" style="mask-type:luminance" maskUnits="userSpaceOnUse" x="0" y="0" width="48" height="48">
<rect width="48" height="48" rx="4" fill="white"/>
</mask>
<g mask="url(#mask0_1518_27395)">
<path fill-rule="evenodd" clip-rule="evenodd" d="M8.67216 8.28198H29.2394C29.9082 8.28198 30.5213 8.83936 30.5213 9.50821V12.1279C30.5213 12.7967 29.964 13.4099 29.2951 13.4099H8.67216C8.00331 13.4099 7.39019 12.8525 7.39019 12.1836V9.56395C7.33445 8.8951 7.89183 8.28198 8.67216 8.28198ZM36.9869 8.28198H39.5508C40.2197 8.28198 40.8328 8.83936 40.8328 9.50821V12.1279C40.8328 12.7967 40.2754 13.4099 39.6066 13.4099H36.9869C36.3181 13.4099 35.7049 12.8525 35.7049 12.1836V9.56395C35.6492 8.8951 36.2066 8.33772 36.8754 8.28198H36.9869ZM23.1082 20.9344C23.1082 20.2656 22.4951 19.7082 21.8263 19.7082H8.61642C7.94757 19.7082 7.39019 20.3213 7.39019 20.9902V23.6099C7.39019 24.2787 8.00331 24.8361 8.67216 24.8361H21.882C22.5508 24.8361 23.1082 24.223 23.1082 23.5541V20.9344ZM16.9213 31.1344C17.5902 31.1344 18.2033 31.6918 18.2033 32.3607V34.9803C18.2033 35.6492 17.6459 36.2623 16.9771 36.2623H8.67216C8.00331 36.2623 7.39019 35.7049 7.39019 35.0361V32.4164C7.39019 31.7476 7.94757 31.1344 8.61642 31.1344H16.9213ZM30.6328 32.5836C36.2066 31.5246 40.8885 25.3377 40.2197 19.3738C40.2197 18.8721 39.6623 18.2033 39.1607 18.259H38.1017C37.6558 18.3705 37.0426 18.9279 37.0426 19.318C37.4328 23.5541 33.7541 28.459 29.4066 29.2951L28.5148 29.4623C28.3476 29.518 28.1804 29.4623 28.0689 29.3508C27.7902 29.1836 27.7902 28.7935 27.9574 28.5705L30.4099 24.8361V24.7803C30.6886 24.4459 30.5771 23.8885 30.1869 23.6656L28.7935 22.718H28.7377C28.4033 22.4394 27.8459 22.5508 27.623 22.941L21.4918 31.9705V32.0262C21.2131 32.3607 21.3246 32.918 21.7148 33.141L30.6886 39.2164H30.7443C31.0787 39.4951 31.6361 39.3836 31.859 38.9935L32.8066 37.6V37.5443C33.0853 37.2099 33.0295 36.7082 32.6394 36.4295L28.9049 33.9213C28.7935 33.8656 28.682 33.7541 28.682 33.5869C28.6263 33.2525 28.8492 32.9738 29.1279 32.918L30.6328 32.5836Z" fill="white"/>
</g>
</svg>
