<svg width="48" height="48" viewBox="0 0 48 48" fill="none" xmlns="http://www.w3.org/2000/svg">
<rect width="48" height="48" rx="4" fill="#7E8BE4"/>
<mask id="mask0_1518_27541" style="mask-type:luminance" maskUnits="userSpaceOnUse" x="0" y="0" width="48" height="48">
<rect width="48" height="48" rx="4" fill="white"/>
</mask>
<g mask="url(#mask0_1518_27541)">
<path d="M8.67213 7.39014H19.8197C20.6 7.39014 21.2131 8.00325 21.2131 8.78358V39.3836C21.2131 40.1639 20.6 40.777 19.8197 40.777H8.67213C7.8918 40.777 7.27869 40.1639 7.27869 39.3836V8.78358C7.27869 8.00325 7.8918 7.39014 8.67213 7.39014Z" fill="white"/>
<path d="M28.1803 7.33447H39.3278C40.1082 7.33447 40.7213 7.94759 40.7213 8.72792V19.8197C40.7213 20.6 40.1082 21.2132 39.3278 21.2132H28.1803C27.4 21.2132 26.7869 20.6 26.7869 19.8197V8.72792C26.7869 7.94759 27.4 7.33447 28.1803 7.33447Z" fill="white"/>
<path d="M28.1803 26.8428H39.3278C40.1082 26.8428 40.7213 27.4559 40.7213 28.2362V39.328C40.7213 40.1083 40.1082 40.7215 39.3278 40.7215H28.1803C27.4 40.7215 26.7869 40.1083 26.7869 39.328V28.2362C26.7869 27.5116 27.4 26.8428 28.1803 26.8428Z" fill="white"/>
</g>
</svg>
