<svg width="48" height="48" viewBox="0 0 48 48" fill="none" xmlns="http://www.w3.org/2000/svg">
<rect width="48" height="48" rx="4" fill="#EF6E64"/>
<mask id="mask0_1518_27543" style="mask-type:luminance" maskUnits="userSpaceOnUse" x="0" y="0" width="48" height="48">
<rect width="48" height="48" rx="4" fill="white"/>
</mask>
<g mask="url(#mask0_1518_27543)">
<path fill-rule="evenodd" clip-rule="evenodd" d="M7 24C7 14.65 14.65 7 24 7C33.35 7 41 14.65 41 24C41 33.35 33.35 41 24 41C14.65 41 7 33.35 7 24ZM36.4667 24C36.4667 17.1433 30.8567 11.5333 24 11.5333C17.1433 11.5333 11.5333 17.1433 11.5333 24C11.5333 24.5667 11.59 25.1333 11.6467 25.7H16.69C17.2567 25.7 17.7667 26.0967 17.8233 26.6633C18.2767 29.61 20.8833 31.9333 24 31.9333C27.1167 31.9333 29.7233 29.61 30.1767 26.6633C30.29 26.0967 30.7433 25.7 31.31 25.7H36.3533C36.41 25.1333 36.4667 24.5667 36.4667 24Z" fill="white"/>
<path d="M22.6966 28.1932C24.0566 28.9298 25.8133 28.3632 26.55 27.0032C27.6266 25.0198 29.6666 16.2932 29.1566 16.0665C28.6466 15.7832 22.5833 22.3565 21.5633 24.3965C20.77 25.7565 21.28 27.4565 22.6966 28.1932Z" fill="white"/>
</g>
</svg>
