<svg width="48" height="48" viewBox="0 0 48 48" fill="none" xmlns="http://www.w3.org/2000/svg">
<rect width="48" height="48" rx="4" fill="#1589EE"/>
<mask id="mask0_1518_27547" style="mask-type:luminance" maskUnits="userSpaceOnUse" x="0" y="0" width="48" height="48">
<rect width="48" height="48" rx="4" fill="white"/>
</mask>
<g mask="url(#mask0_1518_27547)">
<path fill-rule="evenodd" clip-rule="evenodd" d="M31.842 39.9032H35.571C35.3517 38.1484 35.1871 36.3935 35.1871 34.7484V7H31.2388V18.6806C29.2646 16.6516 26.6871 15.6097 23.4517 15.6097C21.2033 15.6097 19.2839 16.2129 17.5839 17.3097C15.9388 18.3516 14.6226 19.9419 13.7452 21.8065C12.8678 23.671 12.4291 25.8097 12.4291 28.1677C12.4291 31.7871 13.3065 34.8032 15.1162 37.1065C16.9259 39.4645 19.5581 40.5613 22.9033 40.5613C26.8517 40.5613 29.7033 39.1355 31.4581 36.3387H31.5129C31.5129 37.3806 31.6226 38.5871 31.842 39.9032ZM31.2388 22.2452V29.7581C31.2388 32.0065 30.5807 33.8161 29.1549 35.1871C27.8388 36.6677 26.0291 37.3806 23.7807 37.3806C21.5323 37.3806 19.7226 36.5581 18.4613 34.8581C17.2 33.1581 16.5968 30.9097 16.5968 28.0581C16.5968 25.3161 17.2 23.0677 18.571 21.3129C19.942 19.5581 21.7517 18.7355 24.0549 18.7355C25.5904 18.7355 26.9065 19.0097 28.1129 19.5581C29.2646 20.2161 30.3065 21.0387 31.2388 22.2452Z" fill="white"/>
</g>
</svg>
