<svg width="48" height="48" viewBox="0 0 48 48" fill="none" xmlns="http://www.w3.org/2000/svg">
<rect width="48" height="48" rx="4" fill="#2A739E"/>
<mask id="mask0_1518_27545" style="mask-type:luminance" maskUnits="userSpaceOnUse" x="0" y="0" width="48" height="48">
<rect width="48" height="48" rx="4" fill="white"/>
</mask>
<g mask="url(#mask0_1518_27545)">
<path fill-rule="evenodd" clip-rule="evenodd" d="M32.6645 15.0066C32.6645 12.8679 34.4194 11.113 36.5581 11.113C38.6968 11.113 40.4516 12.8679 40.5065 15.0066C40.5065 17.1453 38.7516 18.9001 36.6129 18.9001C36.0097 18.9001 35.4065 18.7356 34.8581 18.4614L30.5258 21.313C30.5258 21.4439 30.5383 21.5872 30.5514 21.7371C30.5657 21.9013 30.5807 22.0733 30.5807 22.2453C30.5807 24.2743 29.5387 26.1388 28.0032 27.2356L28.6613 30.4711C30.8549 30.6356 32.6645 32.3356 32.8839 34.584C33.1032 37.1066 31.2936 39.355 28.771 39.5743C26.2484 39.7937 24 37.984 23.7807 35.4614C23.6161 33.9259 24.2742 32.4453 25.4258 31.513L24.8226 28.4421H24.3291C22.5742 28.4421 20.9839 27.6743 19.8323 26.4679L15.5 28.0034C15.5 28.2227 15.4452 28.4421 15.3903 28.6614C14.7871 30.855 12.5387 32.1163 10.4 31.513C8.20647 30.9098 6.94518 28.6614 7.54841 26.5227C8.15163 24.3292 10.4 23.0679 12.5387 23.6711C13.3613 23.8904 14.0194 24.3292 14.5129 24.8775L18.2968 23.5066C18.2913 23.4623 18.2857 23.4185 18.2802 23.3752C18.2314 22.9898 18.1871 22.6397 18.1871 22.2453C18.1871 21.4775 18.3516 20.7098 18.6258 20.0517L12.4291 15.7195C11.4968 16.1034 10.4549 16.1034 9.5226 15.6646C7.76776 14.8421 7.00002 12.6485 7.8226 10.8937C8.64518 9.13883 10.7839 8.37109 12.5936 9.19367C14.1291 9.90658 14.9516 11.6614 14.5678 13.2517L20.6 17.4195C21.642 16.5969 22.9581 16.1034 24.3839 16.1034C26.3032 16.1034 27.9484 16.9808 29.1 18.2969L32.7742 15.884L32.7742 15.884C32.7194 15.6098 32.6645 15.3356 32.6645 15.0066ZM20.4355 22.3001C20.4355 24.4937 22.1903 26.2485 24.3839 26.2485C26.5774 26.2485 28.3323 24.4388 28.3323 22.3001C28.3323 20.1066 26.5774 18.3517 24.3839 18.3517C22.1903 18.3517 20.4355 20.1066 20.4355 22.3001Z" fill="white"/>
<path d="M24.4387 24.0551C25.4078 24.0551 26.1935 23.2694 26.1935 22.3002C26.1935 21.3311 25.4078 20.5454 24.4387 20.5454C23.4695 20.5454 22.6838 21.3311 22.6838 22.3002C22.6838 23.2694 23.4695 24.0551 24.4387 24.0551Z" fill="white"/>
</g>
</svg>
