<svg width="48" height="48" viewBox="0 0 48 48" fill="none" xmlns="http://www.w3.org/2000/svg">
<g clip-path="url(#clip0_1518_27994)">
<mask id="mask0_1518_27994" style="mask-type:alpha" maskUnits="userSpaceOnUse" x="0" y="0" width="48" height="48">
<path d="M44 0H4C1.79086 0 0 1.79086 0 4V44C0 46.2091 1.79086 48 4 48H44C46.2091 48 48 46.2091 48 44V4C48 1.79086 46.2091 0 44 0Z" fill="white"/>
</mask>
<g mask="url(#mask0_1518_27994)">
<path d="M44 0H4C1.79086 0 0 1.79086 0 4V44C0 46.2091 1.79086 48 4 48H44C46.2091 48 48 46.2091 48 44V4C48 1.79086 46.2091 0 44 0Z" fill="#EB7092"/>
<path d="M36.8633 32.9533C36.2302 32.9485 35.6063 33.1044 35.05 33.4066L30.0633 29.7233C30.5207 28.809 30.7538 27.7989 30.7433 26.7766C30.7373 23.7111 28.666 21.0347 25.7 20.2599V14.5933C27.0615 13.9477 27.9397 12.5865 27.9666 11.0799C27.9666 8.92049 26.2161 7.16992 24.0566 7.16992C21.8972 7.16992 20.1466 8.92049 20.1466 11.0799C20.1357 12.5978 21.0259 13.9776 22.4133 14.5933V20.2599C19.4473 21.0347 17.376 23.7111 17.37 26.7766C17.3594 27.7989 17.5925 28.809 18.05 29.7233L13.0633 33.4066C12.5019 33.1176 11.8813 32.9624 11.25 32.9533C9.09053 32.9533 7.33997 34.7038 7.33997 36.8633C7.33997 39.0227 9.09053 40.7733 11.25 40.7733C13.4094 40.7733 15.16 39.0227 15.16 36.8633C15.16 36.5799 15.1033 36.3533 15.1033 36.1266L20.3166 32.2733C22.6167 33.9353 25.7232 33.9353 28.0233 32.2733L33.2366 36.1266C33.1896 36.3692 33.1706 36.6163 33.18 36.8633C33.18 39.0227 34.9305 40.7733 37.09 40.7733C39.2494 40.7733 41 39.0227 41 36.8633C40.8496 34.6816 39.05 32.9805 36.8633 32.9533ZM24.7933 30.0633C24.5336 30.1287 24.2676 30.1667 24 30.1766C22.4953 30.1374 21.1889 29.129 20.77 27.6833C20.7044 27.4043 20.6665 27.1196 20.6566 26.8333C20.6536 25.6319 21.3051 24.5243 22.3566 23.9433C23.4086 23.3359 24.7047 23.3359 25.7566 23.9433C26.8081 24.5243 27.4597 25.6319 27.4566 26.8333C27.4468 27.1196 27.4088 27.4043 27.3433 27.6833C26.9431 28.852 25.9869 29.7445 24.7933 30.0633Z" fill="white"/>
</g>
</g>
<defs>
<clipPath id="clip0_1518_27994">
<rect width="48" height="48" fill="white"/>
</clipPath>
</defs>
</svg>
