<svg width="48" height="48" viewBox="0 0 48 48" fill="none" xmlns="http://www.w3.org/2000/svg">
<rect width="48" height="48" rx="4" fill="#969492"/>
<mask id="mask0_1518_27551" style="mask-type:luminance" maskUnits="userSpaceOnUse" x="0" y="0" width="48" height="48">
<rect width="48" height="48" rx="4" fill="white"/>
</mask>
<g mask="url(#mask0_1518_27551)">
<path fill-rule="evenodd" clip-rule="evenodd" d="M33.6333 10.4H36.4666C38.3366 10.4 39.8666 11.93 39.8666 13.8V14.9333C39.8666 15.5567 39.3566 16.0667 38.7333 16.0667H9.26663C8.6433 16.0667 8.1333 15.5567 8.1333 14.9333V13.8C8.1333 11.93 9.6633 10.4 11.5333 10.4H14.3666V9.26667C14.3666 8.02 15.3866 7 16.6333 7C17.88 7 18.9 8.02 18.9 9.26667V10.4H29.1V9.26667C29.1 8.02 30.12 7 31.3666 7C32.6133 7 33.6333 8.02 33.6333 9.26667V10.4ZM9.26663 19.4667H38.7333C39.3566 19.4667 39.8666 19.9767 39.8666 20.6V37.6C39.8666 39.47 38.3366 41 36.4666 41H11.5333C9.6633 41 8.1333 39.47 8.1333 37.6V20.6C8.1333 19.9767 8.6433 19.4667 9.26663 19.4667ZM17.2 36.4667C17.8233 36.4667 18.3333 35.9567 18.3333 35.3333V33.0667C18.3333 32.4433 17.8233 31.9333 17.2 31.9333H14.9333C14.31 31.9333 13.8 32.4433 13.8 33.0667V35.3333C13.8 35.9567 14.31 36.4667 14.9333 36.4667H17.2ZM26.2666 35.3333C26.2666 35.9567 25.7566 36.4667 25.1333 36.4667H22.8666C22.2433 36.4667 21.7333 35.9567 21.7333 35.3333V33.0667C21.7333 32.4433 22.2433 31.9333 22.8666 31.9333H25.1333C25.7566 31.9333 26.2666 32.4433 26.2666 33.0667V35.3333ZM25.1333 28.5333C25.7566 28.5333 26.2666 28.0233 26.2666 27.4V25.1333C26.2666 24.51 25.7566 24 25.1333 24H22.8666C22.2433 24 21.7333 24.51 21.7333 25.1333V27.4C21.7333 28.0233 22.2433 28.5333 22.8666 28.5333H25.1333ZM34.2 27.4C34.2 28.0233 33.69 28.5333 33.0666 28.5333H30.8C30.1766 28.5333 29.6666 28.0233 29.6666 27.4V25.1333C29.6666 24.51 30.1766 24 30.8 24H33.0666C33.69 24 34.2 24.51 34.2 25.1333V27.4Z" fill="white"/>
</g>
</svg>
