<svg width="48" height="48" viewBox="0 0 48 48" fill="none" xmlns="http://www.w3.org/2000/svg">
<rect width="48" height="48" rx="4" fill="#8199AF"/>
<mask id="mask0_1518_27557" style="mask-type:luminance" maskUnits="userSpaceOnUse" x="0" y="0" width="48" height="48">
<rect width="48" height="48" rx="4" fill="white"/>
</mask>
<g mask="url(#mask0_1518_27557)">
<path opacity="0.5" d="M21.1313 14.8625C22.2469 13.7469 23.7344 13.0562 25.4344 13.0562C27.6656 13.0562 29.6313 14.2781 30.6938 16.0844C31.5969 15.7125 32.6063 15.4469 33.6688 15.4469C37.7063 15.5 41 18.7406 41 22.725C41 26.7625 37.7063 30.0031 33.6688 30.0031C33.1906 30.0031 32.7125 29.95 32.2344 29.8438C31.3312 31.4375 29.5781 32.5531 27.5594 32.5531C26.7094 32.5531 25.9125 32.3406 25.2219 32.0219C24.2656 34.1469 22.1406 35.6875 19.5906 35.6875C16.9344 35.6875 14.7031 34.0406 13.8531 31.7563C13.4813 31.8094 13.1094 31.8625 12.6844 31.8625C9.55 31.8625 7 29.3656 7 26.2312C7 24.1594 8.11562 22.3 9.81562 21.3438C9.44375 20.5469 9.28437 19.6969 9.28437 18.7937C9.28437 15.2344 12.2594 12.3125 15.8719 12.3125C18.05 12.3125 19.9625 13.3219 21.1313 14.8625Z" fill="white"/>
</g>
</svg>
