<svg width="48" height="48" viewBox="0 0 48 48" fill="none" xmlns="http://www.w3.org/2000/svg">
<rect width="48" height="48" rx="4" fill="#969492"/>
<mask id="mask0_1518_27353" style="mask-type:luminance" maskUnits="userSpaceOnUse" x="0" y="0" width="48" height="48">
<rect width="48" height="48" rx="4" fill="white"/>
</mask>
<g mask="url(#mask0_1518_27353)">
<path fill-rule="evenodd" clip-rule="evenodd" d="M11.3475 7.33441H36.1508C38.5475 7.33441 40.4984 9.28523 40.4426 11.682V36.3738C40.4426 38.7705 38.4918 40.7213 36.0951 40.7213H11.3475C8.95082 40.7213 7 38.7705 7 36.3738V11.682C7 9.28523 8.95082 7.33441 11.3475 7.33441ZM14.2459 13.1311C13.4656 13.1311 12.7967 13.8 12.7967 14.5803V16.0852C12.7967 16.8656 13.4656 17.5344 14.2459 17.5344H30.577C31.3574 17.5344 31.9705 16.8656 31.9705 16.0852V14.5803C31.9705 13.8 31.3016 13.1311 30.5213 13.1311H14.2459ZM29.9639 33.5311C29.9639 34.3115 29.3508 34.9803 28.5705 34.9803H14.2459C13.4656 34.9803 12.7967 34.3115 12.7967 33.5311V32.082C12.7967 31.3016 13.4656 30.6328 14.2459 30.6328H28.5148C29.2951 30.6328 29.9639 31.3016 29.9639 32.082V33.5311ZM33.2525 26.2295C34.0328 26.2295 34.6459 25.5606 34.6459 24.7803V23.3311C34.6459 22.5508 33.977 21.882 33.1967 21.882H14.2459C13.4656 21.882 12.7967 22.5508 12.7967 23.3311V24.7803C12.7967 25.5606 13.4656 26.2295 14.2459 26.2295H33.2525Z" fill="white"/>
</g>
</svg>
