<svg width="48" height="48" viewBox="0 0 48 48" fill="none" xmlns="http://www.w3.org/2000/svg">
<rect width="48" height="48" rx="4" fill="#969492"/>
<mask id="mask0_1518_27561" style="mask-type:luminance" maskUnits="userSpaceOnUse" x="0" y="0" width="48" height="48">
<rect width="48" height="48" rx="4" fill="white"/>
</mask>
<g mask="url(#mask0_1518_27561)">
<path d="M8.67213 36.1509H39.8852C40.4984 36.1509 41 36.6525 41 37.2656V39.4951C41 40.1083 40.4984 40.6099 39.8852 40.6099H8.67213C8.05901 40.6099 7.55737 40.1083 7.55737 39.4951V37.2656C7.55737 36.6525 8.05901 36.1509 8.67213 36.1509Z" fill="white"/>
<path d="M8.67213 26.1182H39.8852C40.4984 26.1182 41 26.6198 41 27.2329V29.4624C41 30.0755 40.4984 30.5772 39.8852 30.5772H8.67213C8.05901 30.5772 7.55737 30.0755 7.55737 29.4624V27.2329C7.55737 26.6198 8.05901 26.1182 8.67213 26.1182Z" fill="white"/>
<path d="M28.5148 16.085H39.8853C40.4984 16.085 41 16.5866 41 17.1997V19.4292C41 20.0423 40.4984 20.544 39.8853 20.544H28.5148C27.9017 20.544 27.4 20.0423 27.4 19.4292V17.1997C27.4 16.5866 27.9017 16.085 28.5148 16.085Z" fill="white"/>
<path fill-rule="evenodd" clip-rule="evenodd" d="M17.6459 7.83596L22.941 20.8786C22.9967 21.1573 22.8295 21.436 22.4951 21.436H19.9312C19.7082 21.436 19.4295 21.213 19.3738 20.9901L18.259 18.2032H12.0721L11.0689 20.9901C11.0131 21.213 10.7344 21.436 10.5115 21.436H7.94755C7.61313 21.436 7.50165 21.1015 7.55739 20.8786L12.4623 7.83596C12.518 7.61301 12.7967 7.4458 13.0197 7.4458H17.0328C17.3115 7.4458 17.5344 7.61301 17.6459 7.83596ZM14.859 10.7343L13.2426 14.8589H16.9771L15.1935 10.7343H14.859Z" fill="white"/>
</g>
</svg>
