<svg width="48" height="48" viewBox="0 0 48 48" fill="none" xmlns="http://www.w3.org/2000/svg">
<rect width="48" height="48" rx="4" fill="#BAAC93"/>
<mask id="mask0_1518_27563" style="mask-type:luminance" maskUnits="userSpaceOnUse" x="0" y="0" width="48" height="48">
<rect width="48" height="48" rx="4" fill="white"/>
</mask>
<g mask="url(#mask0_1518_27563)">
<path d="M37.0334 19.4667H29.1C27.23 19.4667 25.7 17.9367 25.7 16.0667V8.13333C25.7 7.51 25.19 7 24.5667 7H13.2334C11.3634 7 9.83337 8.53 9.83337 10.4V37.6C9.83337 39.47 11.3634 41 13.2334 41H34.7667C36.6367 41 38.1667 39.47 38.1667 37.6V20.6C38.1667 19.9767 37.6567 19.4667 37.0334 19.4667Z" fill="white"/>
<path d="M37.9401 14.7067L30.4601 7.22667C30.2901 7.05667 30.1201 7 29.8934 7C29.4401 7 29.1001 7.34 29.1001 7.79333V13.8C29.1001 15.0467 30.1201 16.0667 31.3668 16.0667H37.3734C37.8268 16.0667 38.1668 15.7267 38.1668 15.2733C38.1668 15.0467 38.1101 14.8767 37.9401 14.7067Z" fill="white"/>
</g>
</svg>
