<svg width="48" height="48" viewBox="0 0 48 48" fill="none" xmlns="http://www.w3.org/2000/svg">
<rect width="48" height="48" rx="4" fill="#6CA1E9"/>
<mask id="mask0_1518_27565" style="mask-type:luminance" maskUnits="userSpaceOnUse" x="0" y="0" width="48" height="48">
<rect width="48" height="48" rx="4" fill="white"/>
</mask>
<g mask="url(#mask0_1518_27565)">
<path d="M37.0333 7H18.9C17.03 7 15.5 8.53 15.5 10.4V10.9667C15.5 11.3067 15.7267 11.5333 16.0667 11.5333H32.5C34.37 11.5333 35.9 13.0633 35.9 14.9333V32.5C35.9 32.84 36.1267 33.0667 36.4667 33.0667H37.0333C38.9033 33.0667 40.4333 31.5367 40.4333 29.6667V10.4C40.4333 8.53 38.9033 7 37.0333 7Z" fill="white"/>
<path fill-rule="evenodd" clip-rule="evenodd" d="M10.9667 14.9331H29.1C30.97 14.9331 32.5 16.4631 32.5 18.3331V37.5998C32.5 39.4698 30.97 40.9998 29.1 40.9998H10.9667C9.09665 40.9998 7.56665 39.4698 7.56665 37.5998V18.3331C7.56665 16.4631 9.09665 14.9331 10.9667 14.9331ZM13.2333 19.4664C12.61 19.4664 12.1 19.9764 12.1 20.5998V21.7331C12.1 22.3564 12.61 22.8664 13.2333 22.8664H24.5667C25.19 22.8664 25.7 22.3564 25.7 21.7331V20.5998C25.7 19.9764 25.19 19.4664 24.5667 19.4664H13.2333ZM25.7 35.3331C25.7 35.9564 25.19 36.4664 24.5667 36.4664H13.2333C12.61 36.4664 12.1 35.9564 12.1 35.3331V34.1998C12.1 33.5764 12.61 33.0664 13.2333 33.0664H24.5667C25.19 33.0664 25.7 33.5764 25.7 34.1998V35.3331ZM26.8333 29.6664C27.4566 29.6664 27.9667 29.1564 27.9667 28.5331V27.3998C27.9667 26.7764 27.4566 26.2664 26.8333 26.2664H13.2333C12.61 26.2664 12.1 26.7764 12.1 27.3998V28.5331C12.1 29.1564 12.61 29.6664 13.2333 29.6664H26.8333Z" fill="white"/>
</g>
</svg>
