<svg width="26" height="26" viewBox="0 0 26 26" fill="none" xmlns="http://www.w3.org/2000/svg">
<path fill-rule="evenodd" clip-rule="evenodd" d="M12.85 1.00035C6.19999 1.10035 0.949988 6.55035 0.999988 13.1504C1.09999 19.8004 6.54999 25.0504 13.15 25.0004C19.8 24.9004 25.05 19.4504 25 12.8504C24.9 6.20035 19.45 0.950354 12.85 1.00035ZM12.85 2.60035C14.65 2.55035 16.35 3.00035 17.8 3.75035L16.2 6.45035C15.25 5.95035 14.15 5.70035 13 5.70035C11.85 5.70035 10.75 5.95035 9.79999 6.45035L8.19999 3.75035C9.59999 3.05035 11.15 2.60035 12.85 2.60035ZM6.44999 16.2004L3.74999 17.8004C3.04999 16.4004 2.59999 14.8004 2.59999 13.1004C2.54999 11.3004 2.99999 9.60035 3.74999 8.15035L6.44999 9.75035C5.94999 10.7004 5.69999 11.8004 5.69999 12.9504C5.69999 14.1004 5.94999 15.2504 6.44999 16.2004ZM13.15 23.4004C11.35 23.4504 9.64999 23.0004 8.19999 22.2504L9.79999 19.5504C10.75 20.0504 11.85 20.3004 13 20.3004C14.15 20.3004 15.25 20.0504 16.2 19.5504L17.8 22.2504C16.4 22.9504 14.85 23.4004 13.15 23.4004ZM13 18.7504C9.79999 18.7504 7.24999 16.1504 7.24999 13.0004C7.24999 9.80035 9.84999 7.25035 13 7.25035C16.2 7.25035 18.75 9.85035 18.75 13.0004C18.75 16.2004 16.2 18.7504 13 18.7504ZM19.55 16.2004C20.05 15.2504 20.3 14.1504 20.3 13.0004C20.3 11.8504 20.05 10.7504 19.55 9.80035L22.25 8.20035C22.95 9.60035 23.4 11.2004 23.4 12.9004C23.45 14.7004 23 16.4004 22.25 17.8504L19.55 16.2004Z" fill="#706E6B"/>
</svg>
