<svg width="27" height="26" viewBox="0 0 27 26" fill="none" xmlns="http://www.w3.org/2000/svg">
<path fill-rule="evenodd" clip-rule="evenodd" d="M25.9125 12.4929C25.1125 10.8929 24.0625 9.44286 22.7625 8.29286L18.5125 12.4929V12.9429C18.5125 15.9929 16.0625 18.4429 13.0125 18.4429H12.5625L9.8625 21.1429C10.8625 21.3429 11.9125 21.4929 12.9625 21.4929C18.6125 21.4929 23.5125 18.1929 25.8625 13.4429C26.0625 13.0929 26.0625 12.7929 25.9125 12.4929ZM24.2625 2.74286L23.2125 1.69286C22.9125 1.39286 22.3625 1.44286 22.0125 1.84286L18.3625 5.49286C16.7125 4.79286 14.9125 4.44286 13.0125 4.44286C7.3625 4.44286 2.4625 7.74286 0.1125 12.4929C-0.0375 12.7929 -0.0375 13.1429 0.1125 13.3929C1.2125 15.6429 2.8625 17.4929 4.9125 18.8929L1.9125 21.9429C1.5625 22.2929 1.5125 22.8429 1.7625 23.1429L2.8125 24.1929C3.1125 24.4929 3.6625 24.4429 4.0125 24.0429L24.1125 3.94286C24.5125 3.59286 24.5625 3.04286 24.2625 2.74286ZM7.5125 12.9429C7.5125 9.89286 9.9625 7.44286 13.0125 7.44286C14.0125 7.44286 14.9125 7.69286 15.7125 8.14286L14.2125 9.64286C13.8125 9.54286 13.4125 9.44286 13.0125 9.44286C11.0625 9.44286 9.5125 10.9929 9.5125 12.9429C9.5125 13.3429 9.6125 13.7429 9.7125 14.1429L8.2125 15.6429C7.7625 14.8429 7.5125 13.9429 7.5125 12.9429Z" fill="#706E6B"/>
</svg>
