<svg width="26" height="26" viewBox="0 0 26 26" fill="none" xmlns="http://www.w3.org/2000/svg">
<path fill-rule="evenodd" clip-rule="evenodd" d="M11.6 11.6H5.45C5.1 11.6 4.75 11.9 4.75 12.25V17.5H2.7C2.35 17.5 2 17.85 2 18.2V23.2C2 23.55 2.35 23.9 2.7 23.9H9.55C9.9 23.9 10.25 23.55 10.25 23.2V18.2C10.25 17.85 9.9 17.5 9.55 17.5H7.5V14.3H18.45V17.5H16.4C16.05 17.5 15.7 17.85 15.7 18.2V23.2C15.7 23.55 16.05 23.9 16.4 23.9H23.25C23.6 23.9 23.9 23.55 23.9 23.2V18.2C23.9 17.85 23.6 17.5 23.25 17.5H21.15V12.25C21.15 11.9 20.8 11.6 20.45 11.6H14.35V8.4H16.4C16.75 8.4 17.05 8.05 17.05 7.7V2.7C17.05 2.35 16.75 2 16.4 2H9.55C9.2 2 8.85 2.35 8.85 2.7V7.7C8.85 8.05 9.2 8.4 9.55 8.4H11.65V11.6H11.6Z" fill="#706E6B"/>
</svg>
