<svg width="26" height="26" viewBox="0 0 26 26" fill="none" xmlns="http://www.w3.org/2000/svg">
<path d="M12.1231 13.4623C12.2616 13.5084 12.5385 13.5546 12.5385 14.0161V23.3854C12.5385 24.0777 11.9385 24.0777 11.9385 24.0777H10.4616C9.90772 24.0777 9.81541 23.6623 9.76926 23.4777V18.77C9.76926 18.1238 9.35388 18.4469 9.21541 18.5854L4.41541 23.3854C3.90772 23.8931 3.53849 23.6161 3.44618 23.5238L2.38465 22.4623C1.92311 22.0008 2.47695 21.4931 2.47695 21.4931L7.09234 16.7854L7.1712 16.7005C7.53615 16.2724 7.03532 16.2315 6.86157 16.2315H2.4308C2.24618 16.2315 1.87695 16.0931 1.87695 15.4931L1.87716 14.1458C1.88003 14.0654 1.92311 13.4623 2.56926 13.4623H12.1231ZM17.8923 7.69306C18.0308 7.69306 18.3539 7.78537 18.3077 8.24691V17.6161C18.3077 18.3084 17.7077 18.3084 17.7077 18.3084H16.2308C15.677 18.3084 15.5846 17.8931 15.5385 17.7084V11.4315C15.5385 10.6931 15.1231 10.5084 14.8462 10.4623H8.20003C8.01541 10.4623 7.64618 10.3238 7.64618 9.72383L7.64639 8.37655C7.64926 8.29614 7.69234 7.69306 8.33849 7.69306H17.8923ZM23.6616 1.92383C23.8 1.92383 24.077 2.01614 24.077 2.47767V11.8469C24.077 12.5392 23.477 12.5392 23.477 12.5392H22C21.4462 12.5392 21.3539 12.1238 21.3077 11.9392V5.66229C21.3077 4.92383 20.8923 4.73921 20.6154 4.69306H13.9693C13.7846 4.69306 13.4154 4.5546 13.4154 3.9546V2.61614C13.4154 2.61614 13.4154 1.92383 14.1077 1.92383H23.6616Z" fill="#706E6B"/>
</svg>
