<svg width="26" height="26" viewBox="0 0 26 26" fill="none" xmlns="http://www.w3.org/2000/svg">
<path fill-rule="evenodd" clip-rule="evenodd" d="M24.502 13.5H22.002V24.5C22.002 24.8 21.802 25 21.502 25H16.502C16.202 25 16.002 24.8 16.002 24.5V16H10.002V24.5C10.002 24.8 9.80203 25 9.50203 25H4.50203C4.20203 25 4.00203 24.8 4.00203 24.5V13.5H1.50203C1.30203 13.5 1.10203 13.4 1.05203 13.2C0.952026 13 1.00203 12.8 1.15203 12.65L12.652 1.15C12.852 0.95 13.202 0.95 13.352 1.15L24.852 12.65C25.002 12.8 25.002 13 24.952 13.2C24.902 13.4 24.702 13.5 24.502 13.5Z" fill="#706E6B"/>
</svg>
