<svg width="26" height="26" viewBox="0 0 26 26" fill="none" xmlns="http://www.w3.org/2000/svg">
<rect width="18" height="24" transform="translate(4 1)" fill="white"/>
<path d="M20.875 1H5.125C4.50367 1 4 1.50367 4 2.125V2.875C4 3.49633 4.50367 4 5.125 4C5.125 8.26398 7.51638 11.8625 10.7895 13C7.51638 14.1375 5.125 17.736 5.125 22C4.50367 22 4 22.5037 4 23.125V23.875C4 24.4963 4.50367 25 5.125 25H20.875C21.4963 25 22 24.4963 22 23.875V23.125C22 22.5037 21.4963 22 20.875 22C20.875 17.736 18.4836 14.1375 15.2105 13C18.4836 11.8625 20.875 8.26398 20.875 4C21.4963 4 22 3.49633 22 2.875V2.125C22 1.50367 21.4963 1 20.875 1ZM17.875 22H8.125C8.125 18.3692 10.2908 15.25 13 15.25C15.7087 15.25 17.875 18.368 17.875 22Z" fill="#706E6B"/>
</svg>
