<svg width="40" height="40" viewBox="0 0 40 40" fill="none" xmlns="http://www.w3.org/2000/svg">
<rect width="40" height="40" rx="20" fill="#3C97DD"/>
<mask id="mask0_1518_28352" style="mask-type:luminance" maskUnits="userSpaceOnUse" x="0" y="0" width="40" height="40">
<rect width="40" height="40" rx="20" fill="white"/>
</mask>
<g mask="url(#mask0_1518_28352)">
<path d="M25 17C25 15.9 24.1 15 23 15H10C8.9 15 8 15.9 8 17V30C8 31.1 8.9 32 10 32H23C24.1 32 25 31.1 25 30V17Z" fill="white"/>
<path d="M28.5 28H27V25H28.5C28.8 25 29 24.8 29 24.5V11.5C29 11.2 28.8 11 28.5 11H15.5C15.2 11 15 11.2 15 11.5V13H12V11.5C12 9.55 13.55 8 15.5 8H28.5C30.45 8 32 9.55 32 11.5V24.5C32 26.45 30.45 28 28.5 28Z" fill="white"/>
</g>
</svg>
