<svg width="48" height="48" viewBox="0 0 48 48" fill="none" xmlns="http://www.w3.org/2000/svg">
<rect width="48" height="48" rx="4" fill="#62B7ED"/>
<mask id="mask0_1518_27597" style="mask-type:luminance" maskUnits="userSpaceOnUse" x="0" y="0" width="48" height="48">
<rect width="48" height="48" rx="4" fill="white"/>
</mask>
<g mask="url(#mask0_1518_27597)">
<path d="M23.4688 36.4845C23.2563 36.4845 22.9906 36.4314 22.725 36.272C22.3 36.0595 21.9812 35.5814 21.875 35.1033L17.7312 18.5283L14.2781 26.4439C14.0656 27.0814 13.4812 27.4533 12.8438 27.4533H8.0625C7.47812 27.4533 7 26.9751 7 26.3908V25.3283C7 24.7439 7.47812 24.2658 8.0625 24.2658H11.7812L16.6687 13.0033C16.9344 12.3658 17.5719 11.9939 18.2625 12.047C18.9531 12.1001 19.5375 12.5783 19.6969 13.2689L23.8937 30.0564L29.4188 17.7845C29.6844 17.147 30.3219 16.7751 31.0125 16.8283C31.5969 16.8814 32.1281 17.3064 32.3937 17.8908L35.1562 24.2658H39.9375C40.5219 24.2658 41 24.7439 41 25.3283V26.3908C41 26.9751 40.5219 27.4533 39.9375 27.4533H34.0938C33.4562 27.4533 32.8719 27.0814 32.6063 26.497L30.8531 22.4064L24.9031 35.5283C24.6375 36.1126 24.1063 36.4845 23.4688 36.4845Z" fill="white"/>
</g>
</svg>
