<svg width="48" height="48" viewBox="0 0 48 48" fill="none" xmlns="http://www.w3.org/2000/svg">
<rect width="48" height="48" rx="4" fill="#0079BC"/>
<mask id="mask0_1518_27607" style="mask-type:luminance" maskUnits="userSpaceOnUse" x="0" y="0" width="48" height="48">
<rect width="48" height="48" rx="4" fill="white"/>
</mask>
<g mask="url(#mask0_1518_27607)">
<path d="M40.3869 13.5213C38.9377 10.6787 35.259 5.38359 28.4033 8.50491C24.1672 10.4557 21.7705 11.5705 21.7705 11.5705L15.6394 14.2459C13.9115 15.082 10.1213 13.9115 8.00331 13.1311C7.39019 12.9082 6.83282 13.577 7.11151 14.1902C8.56069 17.0328 12.2394 22.3279 19.0951 19.2065C23.3312 17.2557 31.859 13.577 31.859 13.577C33.5869 12.741 37.3771 13.9115 39.4951 14.6918C40.1082 14.8033 40.6656 14.1902 40.3869 13.5213Z" fill="white"/>
<path d="M25.6722 22.4952C24.8919 22.9411 21.8263 24.3346 21.8263 24.3346L18.7607 25.6723C17.2558 26.5083 13.9673 25.3936 12.0165 24.6133C11.4591 24.3346 10.9574 25.0592 11.2361 25.6165C12.4624 28.4034 15.7509 33.4198 21.7706 30.3542C25.505 28.4592 28.682 27.2329 28.682 27.2329C30.187 26.3969 33.4755 27.5116 35.4263 28.2919C35.9837 28.5149 36.4853 27.846 36.2066 27.2329C34.9247 24.446 31.6361 19.4297 25.6722 22.4952Z" fill="white"/>
<path d="M23.4427 34.8129C22.8296 35.1473 21.7705 35.8162 21.7705 35.8162C20.6001 36.5408 18.1476 35.5932 16.6984 34.8687C16.3083 34.6457 15.9181 35.3146 16.141 35.8719C17.0328 38.3801 19.4853 42.8949 24.0001 40.108C25.6722 39.049 25.6722 39.1047 25.6722 39.1047C26.8984 38.4916 29.2951 39.3277 30.7443 39.9965C31.1345 40.2195 31.5246 39.5506 31.3017 38.9932C30.4099 36.5408 28.1246 32.249 23.4427 34.8129Z" fill="white"/>
</g>
</svg>
