<svg width="48" height="48" viewBox="0 0 48 48" fill="none" xmlns="http://www.w3.org/2000/svg">
<rect width="48" height="48" rx="4" fill="#8B9AE3"/>
<mask id="mask0_1518_27609" style="mask-type:luminance" maskUnits="userSpaceOnUse" x="0" y="0" width="48" height="48">
<rect width="48" height="48" rx="4" fill="white"/>
</mask>
<g mask="url(#mask0_1518_27609)">
<path d="M38.1667 15.33H22.0733C21.0533 15.33 20.1467 14.7633 19.58 13.9133L17.0867 9.60663C16.6333 8.69997 15.7267 8.1333 14.65 8.1333H9.83333C8.24667 8.1333 7 9.43663 7 11.0233V16.8033V36.9766C7 38.5633 8.24667 39.8666 9.83333 39.8666H38.1667C39.7533 39.8666 41 38.5633 41 36.9766V18.22C41 16.6333 39.7533 15.33 38.1667 15.33Z" fill="white"/>
<path d="M38.1666 9.5498H21.1099C20.8266 9.5498 20.6566 9.83314 20.8266 10.0598L21.9599 11.9865C22.0733 12.2698 22.2999 12.4398 22.5833 12.4398H38.1666C38.9599 12.4398 39.7533 12.6098 40.3766 12.8931C40.6599 13.0631 40.9999 12.8365 40.9999 12.4398C40.9999 10.8531 39.7533 9.5498 38.1666 9.5498Z" fill="white"/>
</g>
</svg>
