<svg width="48" height="48" viewBox="0 0 48 48" fill="none" xmlns="http://www.w3.org/2000/svg">
<rect width="48" height="48" rx="4" fill="#6BBD6E"/>
<mask id="mask0_1518_27611" style="mask-type:luminance" maskUnits="userSpaceOnUse" x="0" y="0" width="48" height="48">
<rect width="48" height="48" rx="4" fill="white"/>
</mask>
<g mask="url(#mask0_1518_27611)">
<path fill-rule="evenodd" clip-rule="evenodd" d="M37.0806 14.1778C37.0806 14.1778 35.4278 10.7778 31.7444 10.7778C28.0611 10.7778 26.3139 14.2723 26.3139 14.2723C23.8583 13.0917 21.6389 14.2723 21.6389 14.2723C21.6389 14.2723 19.9389 10.7778 16.2556 10.7778C12.5722 10.7778 10.9194 14.1778 10.9194 14.1778C10.9194 14.1778 7.47223 21.8751 7.37778 28.7695C7.28334 35.5695 11.8639 37.2223 14.0361 37.2223C16.3972 37.2223 21.9694 36.2306 21.6861 28.4862C21.6861 28.4862 22.2528 27.1639 23.8111 27.2112C25.7 27.2112 26.3611 28.4862 26.3611 28.4862C26.0778 36.2306 31.65 37.2223 33.9639 37.2223C36.0889 37.2223 40.7167 35.5695 40.6222 28.7695C40.5278 21.8751 37.0806 14.1778 37.0806 14.1778ZM14.4611 34.2001C12.1944 34.2001 10.3528 32.3584 10.3528 30.0917C10.3528 27.8251 12.1944 25.9834 14.4611 25.9834C16.7278 25.9834 18.5694 27.8251 18.5694 30.0917C18.5694 32.3584 16.7278 34.2001 14.4611 34.2001ZM29.4306 30.0917C29.4306 32.3584 31.2722 34.2001 33.5389 34.2001C35.8056 34.2001 37.6472 32.3584 37.6472 30.0917C37.6472 27.8251 35.8056 25.9834 33.5389 25.9834C31.2722 25.9834 29.4306 27.8251 29.4306 30.0917Z" fill="white"/>
</g>
</svg>
