<svg width="48" height="48" viewBox="0 0 48 48" fill="none" xmlns="http://www.w3.org/2000/svg">
<rect width="48" height="48" rx="4" fill="#54698D"/>
<mask id="mask0_1518_27613" style="mask-type:luminance" maskUnits="userSpaceOnUse" x="0" y="0" width="48" height="48">
<rect width="48" height="48" rx="4" fill="white"/>
</mask>
<g mask="url(#mask0_1518_27613)">
<path d="M27.0033 7.67997C26.38 7.28331 25.6433 7.05664 24.68 7.05664C24.4533 7.05664 24.2267 7.05664 24 7.11331C21.5067 7.50997 19.8633 9.77664 18.8433 11.93C18.39 12.95 17.9933 14.0266 17.5967 15.0466C17.4267 15.5566 17.2 16.01 17.03 16.52C17.03 16.5766 16.7467 17.54 16.69 17.54H14.4233H14.14C13.8 17.54 13.5167 17.8233 13.5167 18.1633C13.5167 18.5033 13.8 18.7866 14.14 18.7866H16.35L15.1033 24.1133C13.8567 30.0633 12.1567 36.8633 11.76 38.0533C11.3633 39.3 10.7967 39.9233 10.0033 39.9233C9.83333 39.9233 9.72 39.8666 9.60667 39.81C9.49333 39.7533 9.43667 39.64 9.43667 39.5266C9.43667 39.4133 9.49333 39.2433 9.66333 39.0166C9.83333 38.79 9.89 38.5066 9.89 38.28C9.89 37.8266 9.72 37.43 9.43667 37.1466C9.09667 36.8633 8.75667 36.75 8.36 36.75C7.96333 36.75 7.56667 36.92 7.22667 37.2033C7.17 37.6 7 37.9966 7 38.5066C7 39.1866 7.28333 39.7533 7.85 40.2633C8.41667 40.7733 9.15333 41 10.1167 41C11.6467 41 13.0067 40.32 14.0267 39.13C14.65 38.3933 15.1033 37.5433 15.5 36.6366C16.7467 33.86 17.4267 30.8 18.1633 27.8533C18.9 24.85 19.58 21.8466 20.2033 18.8433H22.64C22.98 18.8433 23.2633 18.56 23.2633 18.22C23.2633 17.88 22.98 17.5966 22.64 17.5966H22.5833H20.3733C21.62 12.8933 23.0367 9.66331 23.32 9.20997C23.7733 8.41664 24.2833 8.01997 24.85 8.01997C25.0767 8.01997 25.19 8.07664 25.2467 8.18997C25.3033 8.30331 25.36 8.41664 25.36 8.47331C25.36 8.52997 25.3033 8.69997 25.1333 8.98331C24.9633 9.26664 24.9067 9.54997 24.9067 9.83331C24.9067 10.23 25.0767 10.57 25.36 10.8533C25.6433 11.1366 26.04 11.3066 26.4367 11.3066C26.8333 11.3066 27.23 11.1366 27.5133 10.8533C27.7967 10.57 27.9667 10.1733 27.9667 9.66331C27.91 8.69997 27.6267 8.07664 27.0033 7.67997Z" fill="white"/>
<path d="M38.3367 21.9601C39.2434 21.9601 41 21.2234 41 18.8434C41 16.4634 39.3 16.3501 38.7334 16.3501C37.7134 16.3501 36.6367 17.0868 35.73 18.6734C34.8234 20.2601 33.8034 22.0734 33.8034 22.0734H33.7467C33.52 20.9401 33.35 20.0334 33.2367 19.5801C33.0667 18.6168 31.9334 16.4634 29.5534 16.4634C27.1734 16.4634 25.02 17.8234 25.02 17.8234C24.6234 18.0501 24.34 18.5034 24.34 19.0134C24.34 19.8068 24.9634 20.4301 25.7567 20.4301C25.9834 20.4301 26.21 20.3734 26.38 20.2601C26.38 20.2601 28.1934 19.2401 28.5334 20.2601C28.6467 20.5434 28.76 20.8834 28.8734 21.2234C29.3267 22.7534 29.7234 24.5668 30.12 26.2101L28.7034 28.5334C28.7034 28.5334 26.9467 27.9101 26.04 27.9101C25.1334 27.9101 23.3767 28.6468 23.3767 31.0268C23.3767 33.4068 25.0767 33.5201 25.6434 33.5201C26.6634 33.5201 27.74 32.7834 28.6467 31.1968C29.5534 29.6101 30.5734 27.7968 30.5734 27.7968C30.8567 29.2701 31.14 30.4601 31.31 30.9134C31.8767 32.6134 33.2367 33.5768 35.05 33.5768C35.05 33.5768 36.92 33.5768 39.0734 32.3301C39.5834 32.1034 39.98 31.5934 39.98 31.0268C39.98 30.2334 39.3567 29.6101 38.5634 29.6101C38.3367 29.6101 38.11 29.6668 37.94 29.7801C37.94 29.7801 36.41 30.6301 35.8434 29.9501C35.4467 29.2134 35.1634 28.2501 34.88 27.0601C34.6534 25.9834 34.37 24.7368 34.1434 23.5468L35.73 21.2801C35.6734 21.3368 37.43 21.9601 38.3367 21.9601Z" fill="white"/>
</g>
</svg>
