<svg width="48" height="48" viewBox="0 0 48 48" fill="none" xmlns="http://www.w3.org/2000/svg">
<rect width="48" height="48" rx="4" fill="#F2CF5B"/>
<mask id="mask0_1518_27764" style="mask-type:luminance" maskUnits="userSpaceOnUse" x="0" y="0" width="48" height="48">
<rect width="48" height="48" rx="4" fill="white"/>
</mask>
<g mask="url(#mask0_1518_27764)">
<path fill-rule="evenodd" clip-rule="evenodd" d="M23.7213 8.39355C14.4689 8.39355 7 15.3608 7 24.0001C7 26.787 7.78033 29.3509 9.11803 31.6362C9.28525 31.9149 9.34098 32.2493 9.22951 32.528L7.66885 37.4886C7.39016 38.3804 8.22623 39.1608 9.11803 38.8821L14.023 37.1542C14.3574 37.0427 14.6918 37.0985 14.9705 37.2657C17.5344 38.7706 20.5443 39.6067 23.7771 39.6067C33.0295 39.6067 40.4984 32.6395 40.4984 24.0001C40.4426 15.3608 32.9738 8.39355 23.7213 8.39355ZM25.3934 33.4755C25.3934 34.0886 24.8918 34.5903 24.2787 34.5903H23.1639C22.5508 34.5903 22.0492 34.0886 22.0492 33.4755V32.3608C22.0492 31.7477 22.5508 31.246 23.1639 31.246H24.2787C24.8918 31.246 25.3934 31.7477 25.3934 32.3608V33.4755ZM25.3934 26.9542C25.3934 26.6755 25.6164 26.4526 25.8393 26.3968C28.682 25.4493 30.4656 22.8296 30.3541 19.9313C30.2426 16.4198 27.3443 13.5214 23.8328 13.4099C21.9934 13.3542 20.2656 14.0231 18.9836 15.305C17.9803 16.2526 17.3672 17.4788 17.0885 18.8165C16.977 19.4854 17.5344 20.1542 18.2033 20.1542H19.3738C19.8754 20.1542 20.3213 19.764 20.4328 19.2624C20.5443 18.705 20.8787 18.1477 21.3246 17.7018C21.9934 17.0886 22.8852 16.6985 23.7771 16.7542C26.2852 16.8099 28.1803 19.7083 26.2852 22.2165C25.9508 22.7181 25.3934 22.9968 24.7803 23.2198C23.1639 23.7772 22.0492 25.2821 22.0492 26.9542V27.846C22.0492 28.4591 22.5508 29.0165 23.1639 29.0165H24.2787C24.8918 29.0165 25.3934 28.4591 25.3934 27.846V26.9542Z" fill="white"/>
</g>
</svg>
