<svg width="48" height="48" viewBox="0 0 48 48" fill="none" xmlns="http://www.w3.org/2000/svg">
<rect width="48" height="48" rx="4" fill="#54698D"/>
<mask id="mask0_1518_27766" style="mask-type:luminance" maskUnits="userSpaceOnUse" x="0" y="0" width="48" height="48">
<rect width="48" height="48" rx="4" fill="white"/>
</mask>
<g mask="url(#mask0_1518_27766)">
<path d="M33.9733 7.05664C32.33 7.05664 30.9133 8.24664 30.3467 9.88997C32.5 10.8533 34.1433 12.95 34.71 15.5C36.4667 15.1033 37.77 13.4033 37.77 11.3633C37.77 8.92664 36.07 7.05664 33.9733 7.05664Z" fill="white"/>
<path d="M37.4867 17.1436C36.75 17.8236 35.8434 18.2769 34.8234 18.4469C34.6534 19.9769 34.0867 21.3936 33.2367 22.5269H39.5267C40.32 22.5269 40.9434 21.9036 40.9434 21.1102V20.4302C40.9434 18.9002 39.2434 17.9369 37.4867 17.1436Z" fill="white"/>
<path d="M31.4799 24C30.3466 25.02 28.9299 25.6433 27.3999 25.6433C27.2866 27.4 26.7766 28.9867 25.9833 30.3467H33.9166C34.8233 30.3467 35.6166 29.61 35.6166 28.6467V27.9667C35.5599 26.0967 33.5199 24.9633 31.4799 24Z" fill="white"/>
<path d="M24.17 32.6133C22.5833 34.2 20.43 35.1067 18.1633 35.1067C15.84 35.1067 13.6867 34.1433 12.1 32.5C9.49333 33.7467 7 35.3333 7 37.6567V38.7333C7 39.98 8.02 40.9433 9.21 40.9433H26.9467C28.1933 40.9433 29.1567 39.9233 29.1567 38.7333V37.7133C29.1567 35.3333 26.7767 33.8033 24.17 32.6133Z" fill="white"/>
<path d="M18.1067 31.5931C21.4554 31.5931 24.17 28.5993 24.17 24.9064C24.17 21.2134 21.4554 18.2197 18.1067 18.2197C14.758 18.2197 12.0433 21.2134 12.0433 24.9064C12.0433 28.5993 14.758 31.5931 18.1067 31.5931Z" fill="white"/>
<path d="M27.23 12.3838C25.1334 12.3838 23.3767 13.9138 22.8667 16.0671C24.9634 17.4271 26.4934 19.7505 27.1167 22.4138C27.1734 22.4138 27.1734 22.4138 27.23 22.4138C29.7234 22.4138 31.7634 20.1471 31.7634 17.3705C31.82 14.6505 29.78 12.3838 27.23 12.3838Z" fill="white"/>
</g>
</svg>
