<svg width="48" height="48" viewBox="0 0 48 48" fill="none" xmlns="http://www.w3.org/2000/svg">
<rect width="48" height="48" rx="4" fill="#30C85A"/>
<mask id="mask0_1518_27768" style="mask-type:luminance" maskUnits="userSpaceOnUse" x="0" y="0" width="48" height="48">
<rect width="48" height="48" rx="4" fill="white"/>
</mask>
<g mask="url(#mask0_1518_27768)">
<path fill-rule="evenodd" clip-rule="evenodd" d="M9.83333 8.41699H38.1667C39.7533 8.41699 41 9.72033 41 11.2503V13.7437C41 14.3103 40.49 14.8203 39.9233 14.8203H8.07667C7.51 14.8203 7 14.3103 7 13.7437V11.2503C7 9.66366 8.24667 8.41699 9.83333 8.41699ZM13.7433 17.6537H8.07667C7.51 17.6537 7 18.1637 7 18.7303V36.807C7 38.3937 8.24667 39.6403 9.83333 39.6403H13.7433C14.31 39.6403 14.82 39.1303 14.82 38.5637V18.7303C14.82 18.107 14.31 17.6537 13.7433 17.6537ZM39.9233 17.6537H18.6733C18.1067 17.6537 17.5967 18.1637 17.5967 18.7303V38.5637C17.5967 39.1303 18.1067 39.6403 18.6733 39.6403H38.1667C39.7533 39.6403 41 38.3937 41 36.807V18.6737C41 18.107 40.49 17.6537 39.9233 17.6537Z" fill="white"/>
</g>
</svg>
