<svg width="48" height="48" viewBox="0 0 48 48" fill="none" xmlns="http://www.w3.org/2000/svg">
<rect width="48" height="48" rx="4" fill="#62B7ED"/>
<mask id="mask0_1518_27910" style="mask-type:luminance" maskUnits="userSpaceOnUse" x="0" y="0" width="48" height="48">
<rect width="48" height="48" rx="4" fill="white"/>
</mask>
<g mask="url(#mask0_1518_27910)">
<path d="M32.8967 22.1858C32.84 21.9024 32.6133 21.7324 32.33 21.7324H15.67C15.3867 21.7324 15.16 21.9024 15.1033 22.1858C14.99 22.7524 14.9333 23.3758 14.9333 23.9991C14.9333 24.6224 14.99 25.2458 15.1033 25.8124C15.16 26.0958 15.3867 26.2658 15.67 26.2658H32.33C32.6133 26.2658 32.84 26.0958 32.8967 25.8124C33.01 25.2458 33.0667 24.6224 33.0667 23.9991C33.0667 23.3758 33.01 22.7524 32.8967 22.1858Z" fill="white"/>
<path fill-rule="evenodd" clip-rule="evenodd" d="M7 24C7 14.65 14.65 7 24 7C33.35 7 41 14.65 41 24C41 33.35 33.35 41 24 41C14.65 41 7 33.35 7 24ZM11.5333 24C11.5333 30.8567 17.1433 36.4667 24 36.4667C30.8567 36.4667 36.4667 30.8567 36.4667 24C36.4667 17.1433 30.8567 11.5333 24 11.5333C17.1433 11.5333 11.5333 17.1433 11.5333 24Z" fill="white"/>
</g>
</svg>
