<svg width="40" height="40" viewBox="0 0 40 40" fill="none" xmlns="http://www.w3.org/2000/svg">
<rect width="40" height="40" rx="20" fill="#54698D"/>
<mask id="mask0_1518_28040" style="mask-type:luminance" maskUnits="userSpaceOnUse" x="0" y="0" width="40" height="40">
<rect width="40" height="40" rx="20" fill="white"/>
</mask>
<g mask="url(#mask0_1518_28040)">
<path d="M20.9 25.8C19.4 25.2 19.15 24.65 19.15 24.05C19.15 23.45 19.55 22.9 20.05 22.45C20.95 21.7 21.35 20.5 21.35 19.25C21.35 16.9 19.9 15 17.2 15C14.5 15 13.05 16.9 13.05 19.25C13.05 20.5 13.45 21.7 14.35 22.45C14.85 22.9 15.25 23.45 15.25 24.05C15.25 24.65 15 25.2 13.5 25.8C11.3 26.7 9.20002 27.7 9.15002 29.6C9.25002 30.9 10.25 32 11.5 32H17.25H23C24.25 32 25.25 30.9 25.25 29.65C25.2 27.75 23.1 26.7 20.9 25.8Z" fill="white"/>
<path d="M29.5 16.5C29.5 12.8 26.45 9.75 22.75 9.75V8L19.35 10.75C19.2 10.9 19.25 11.15 19.4 11.3L22.75 14V12.25C25.1 12.25 27 14.15 27 16.5H25.25L28 19.9C28.15 20.05 28.4 20.05 28.55 19.9L31.25 16.5H29.5Z" fill="white"/>
</g>
</svg>
