<svg width="40" height="40" viewBox="0 0 40 40" fill="none" xmlns="http://www.w3.org/2000/svg">
<rect width="40" height="40" rx="20" fill="#EF6E64"/>
<mask id="mask0_1518_28048" style="mask-type:luminance" maskUnits="userSpaceOnUse" x="0" y="0" width="40" height="40">
<rect width="40" height="40" rx="20" fill="white"/>
</mask>
<g mask="url(#mask0_1518_28048)">
<path d="M22.9053 19.8737L31.1789 11.6C31.5579 11.221 31.5579 10.6526 31.1789 10.2737L29.8526 8.94734C29.4737 8.5684 28.9053 8.5684 28.5263 8.94734L20.2526 17.221C20 17.4737 19.621 17.4737 19.3684 17.221L11.0947 8.88419C10.7158 8.50524 10.1474 8.50524 9.76841 8.88419L8.44209 10.2105C8.06315 10.5894 8.06315 11.1579 8.44209 11.5368L16.7158 19.8105C16.9684 20.0631 16.9684 20.4421 16.7158 20.6947L8.37894 29.0316C7.99999 29.4105 7.99999 29.9789 8.37894 30.3579L9.70525 31.6842C10.0842 32.0631 10.6526 32.0631 11.0316 31.6842L19.3684 23.4105C19.621 23.1579 20 23.1579 20.2526 23.4105L28.5263 31.6842C28.9053 32.0631 29.4737 32.0631 29.8526 31.6842L31.1789 30.3579C31.5579 29.9789 31.5579 29.4105 31.1789 29.0316L22.9053 20.7579C22.7158 20.5052 22.7158 20.1263 22.9053 19.8737Z" fill="white"/>
</g>
</svg>
