<svg width="30" height="30" viewBox="0 0 30 30" fill="none" xmlns="http://www.w3.org/2000/svg">
<path d="M4.39062 0C3.07812 0 2 1.07812 2 2.39062V27.6094C2 28.9219 3.07812 30 4.39062 30H25.8594C27.1719 30 28.25 28.9219 28.25 27.6094V9.51562L19.3906 0H4.39062V0Z" fill="#277A84"/>
<path d="M28.25 9.5625V10.0312H22.25C22.25 10.0312 19.25 9.42188 19.3437 6.89062C19.3437 6.89062 19.4375 9.5625 22.1562 9.5625H28.25Z" fill="#1E5B60"/>
<path opacity="0.5" d="M19.3906 0V6.84375C19.3906 7.59375 19.9062 9.5625 22.25 9.5625H28.25L19.3906 0Z" fill="white"/>
<path fill-rule="evenodd" clip-rule="evenodd" d="M16.0882 17.5349C16.2004 17.4095 16.3357 17.258 16.3906 17.2031C16.3906 17.2031 16.4844 17.0625 16.6719 17.1562C17.0469 17.2969 17.3281 17.6719 17.4219 17.8594C17.5156 18.0938 17.4219 18.1875 17.4219 18.1875C17.4219 18.1875 17 18.5625 16.9062 18.6562C16.7656 18.7969 16.625 18.75 16.625 18.75C16.2031 18.6094 15.9219 18.1406 15.875 18C15.8281 17.8125 15.875 17.7656 15.9219 17.7188C15.9413 17.6993 16.009 17.6236 16.0882 17.5349ZM14.7031 18.4219L15.6875 17.4375H6.92188C6.92188 17.4375 6.73438 17.4375 6.73438 17.625V18.2812C6.73438 18.375 6.82812 18.4219 6.92188 18.4219H14.7031ZM11.2812 21.8438L12.2656 20.8594H6.92188C6.92188 20.8594 6.73438 20.8594 6.73438 21.0469V21.6562C6.73438 21.6562 6.82812 21.8438 6.92188 21.8438H11.2812ZM9.03125 24.2812L8.89062 25.2656H6.92188C6.82812 25.2656 6.73438 25.1719 6.73438 25.0781V24.4688C6.73438 24.2812 6.92188 24.2812 6.92188 24.2812H9.03125ZM9.3125 25.2656C9.3125 25.2656 10.1094 25.2188 10.25 25.2188C10.3906 25.1719 10.4375 25.125 10.4844 25.0781L16.625 18.9375C16.625 18.9375 16.3906 19.125 15.875 18.6094C15.5 18.1875 15.6875 17.9531 15.6875 17.9531C15.6875 17.9531 9.6875 23.9062 9.59375 24.0469C9.45312 24.1406 9.45312 24.2344 9.45312 24.2812C9.45312 24.3281 9.3125 25.2656 9.3125 25.2656Z" fill="white"/>
</svg>
