<svg width="30" height="30" viewBox="0 0 30 30" fill="none" xmlns="http://www.w3.org/2000/svg">
<path fill-rule="evenodd" clip-rule="evenodd" d="M4.39062 0C3.07812 0 2 1.07812 2 2.39062V27.6094C2 28.9219 3.07812 30 4.39062 30H25.8594C27.1719 30 28.25 28.9219 28.25 27.6094V9.51562L19.3906 0H4.39062V0Z" fill="#FFC35E"/>
<path fill-rule="evenodd" clip-rule="evenodd" d="M16.7656 24.6562C17.2344 25.0781 17.8906 25.3594 18.7344 25.3594C20.2812 25.3594 20.7969 24.5156 20.7969 23.7188C20.7969 22.5301 19.7401 22.2494 18.8175 22.0044C18.1028 21.8146 17.4688 21.6462 17.4688 21.0938C17.4688 20.5312 17.9844 20.2031 18.6406 20.2031C19.1562 20.2031 19.6719 20.3438 20.0938 20.6719C20.1406 20.7188 20.2344 20.7656 20.2812 20.7656C20.4688 20.7656 20.6094 20.5781 20.6094 20.3906C20.6094 20.2969 20.5625 20.2031 20.5156 20.1562C20.0469 19.7812 19.4375 19.5469 18.6875 19.5469C17.6094 19.5469 16.7656 20.2031 16.7656 21.0938C16.7656 22.1838 17.739 22.4513 18.633 22.697C19.392 22.9055 20.0938 23.0984 20.0938 23.7656C20.0938 24.1875 19.7656 24.75 18.7812 24.75C18.125 24.75 17.5625 24.4688 17.1875 24.1406C17.1406 24.0938 17.0469 24.0469 17 24.0469C16.7656 24.0469 16.6719 24.2344 16.6719 24.4219C16.6719 24.5156 16.6719 24.6094 16.7656 24.6562ZM7.25 25.2656H10.1562C10.3438 25.2656 10.4844 25.125 10.4844 24.9375C10.4844 24.7969 10.3438 24.6562 10.1562 24.6562H7.4375V22.6875H10.1094C10.2969 22.6875 10.4375 22.5469 10.4375 22.4062C10.4375 22.2188 10.2969 22.0781 10.1094 22.0781H7.4375V20.25H10.1562C10.3438 20.25 10.4844 20.1094 10.4844 19.9688C10.4844 19.7812 10.3438 19.6406 10.1562 19.6406H7.25C6.96875 19.6406 6.73438 19.875 6.73438 20.1562V24.75C6.73438 25.0312 6.96875 25.2656 7.25 25.2656ZM12.4531 23.0156H14C15.125 23.0156 15.7812 22.2656 15.7812 21.3281C15.7812 20.4375 15.1719 19.6406 14 19.6406H12.2656C11.9844 19.6406 11.75 19.875 11.75 20.1562V24.9844C11.75 25.1719 11.8906 25.3125 12.125 25.3125C12.3125 25.3125 12.4531 25.1719 12.4531 24.9844V23.0156ZM13.9531 20.25H12.4531V22.4062H13.9531C14.6094 22.4062 15.0781 21.9844 15.0781 21.3281C15.0781 20.7188 14.6094 20.25 13.9531 20.25Z" fill="white"/>
<path d="M28.2501 9.5625V10.0312H22.2501C21.1251 10.0312 19.2969 9.42188 19.3907 6.84375C19.3907 6.84375 19.4844 9.5625 22.2032 9.5625H28.2501Z" fill="#FFB446"/>
<path opacity="0.5" d="M19.3906 0V6.84375C19.3906 7.59375 19.9062 9.5625 22.25 9.5625H28.25L19.3906 0Z" fill="white"/>
</svg>
