<svg width="30" height="30" viewBox="0 0 30 30" fill="none" xmlns="http://www.w3.org/2000/svg">
<path fill-rule="evenodd" clip-rule="evenodd" d="M4.39062 0C3.07812 0 2 1.07812 2 2.39062V27.6094C2 28.9219 3.07812 30 4.39062 30H25.8594C27.1719 30 28.25 28.9219 28.25 27.6094V9.51562L19.3906 0H4.39062V0Z" fill="#E53C3C"/>
<path d="M28.2499 9.51562V9.98438H22.2499C22.2499 9.98438 19.2968 9.42188 19.3437 6.84375C19.3437 6.84375 19.4374 9.51562 22.1562 9.51562H28.2499Z" fill="#DE2D2D"/>
<path opacity="0.5" d="M19.3906 0V6.84375C19.3906 7.59375 19.9062 9.51562 22.25 9.51562H28.25L19.3906 0Z" fill="white"/>
<path fill-rule="evenodd" clip-rule="evenodd" d="M12.125 25.2188H14.6562C14.8438 25.2188 14.9844 25.0781 14.9844 24.8906C14.9844 24.7031 14.8438 24.6094 14.6562 24.6094H12.3125V19.875C12.3125 19.6875 12.1719 19.5469 11.9844 19.5469C11.75 19.5469 11.6094 19.6875 11.6094 19.875V24.7031C11.6094 24.9844 11.8438 25.2188 12.125 25.2188ZM7.4375 20.2031H10.2031C10.3438 20.2031 10.4844 20.0625 10.4844 19.9219C10.4844 19.7344 10.3438 19.5938 10.2031 19.5938H7.25C6.96875 19.5938 6.73438 19.8281 6.73438 20.1094V24.9375C6.73438 25.125 6.92188 25.2656 7.10938 25.2656C7.29688 25.2656 7.4375 25.125 7.4375 24.9375V22.6406H10.1094C10.2969 22.6406 10.4375 22.5 10.4375 22.3594C10.4375 22.1719 10.2969 22.0312 10.1094 22.0312H7.4375V20.2031ZM20.375 25.2656C20.2344 25.2656 20.1406 25.1719 20.0469 25.0312L19.625 23.9531H16.8125L16.3906 25.0312C16.3438 25.1719 16.2031 25.2656 16.0625 25.2656C15.875 25.2656 15.6875 25.0781 15.6875 24.8906C15.6875 24.8438 15.6875 24.7969 15.7344 24.75L17.6562 19.9219C17.75 19.6875 17.9844 19.5469 18.2188 19.5469C18.5 19.5469 18.6875 19.6875 18.7812 19.9219L20.75 24.75C20.75 24.7734 20.7617 24.7969 20.7734 24.8203C20.7852 24.8438 20.7969 24.8672 20.7969 24.8906C20.7969 25.0781 20.6094 25.2656 20.375 25.2656ZM17.0469 23.3438L18.2188 20.2969L19.4375 23.3438H17.0469Z" fill="white"/>
</svg>
