<svg width="30" height="30" viewBox="0 0 30 30" fill="none" xmlns="http://www.w3.org/2000/svg">
<path d="M26.3705 10.3125C27.5466 10.3125 28.5 11.2659 28.5 12.442V27.1116C28.5 28.2877 27.5466 29.2411 26.3705 29.2411H4.12946C2.95339 29.2411 2 28.2877 2 27.1116V9.12946C2 7.95339 2.95339 7 4.12946 7H9.57143C11.3696 7 11.5589 7.56786 12.742 9.12946C13.7357 10.4071 16.1491 10.3125 17.6634 10.3125H26.3705Z" fill="#003462"/>
<path d="M26.3706 11.7795H6.35359C5.17751 11.7795 4.22412 12.7329 4.22412 13.9089V15.2813L6.35359 12.2054H26.3706L28.5 15.2813V13.9089C28.5 12.7329 27.5466 11.7795 26.3706 11.7795Z" fill="#87C8F2"/>
<path d="M4.17683 29.4777H26.3706C27.5466 29.4777 28.5 28.5243 28.5 27.3482V14.3348C28.5 13.1588 27.5466 12.2054 26.3706 12.2054H6.40093C5.82801 12.1926 5.27414 12.4113 4.86449 12.8121C4.45485 13.2128 4.22401 13.7618 4.22415 14.3348V27.3482C4.23238 27.4585 4.23238 27.5692 4.22415 27.6795C4.22415 28.2806 3.73686 28.7679 3.13576 28.7679C2.53465 28.7679 2.04736 28.2806 2.04736 27.6795C2.21187 28.7247 3.11884 29.4905 4.17683 29.4777Z" fill="#00A1E0"/>
</svg>
