<svg width="30" height="30" viewBox="0 0 30 30" fill="none" xmlns="http://www.w3.org/2000/svg">
<path fill-rule="evenodd" clip-rule="evenodd" d="M4.39062 0C3.07812 0 2 1.07812 2 2.39062V27.6094C2 28.9219 3.07812 30 4.39062 30H25.8594C27.1719 30 28.25 28.9219 28.25 27.6094V9.51562L19.3906 0H4.39062V0Z" fill="#F8BE46"/>
<path fill-rule="evenodd" clip-rule="evenodd" d="M6.73438 17.5781V23.1562H11V25.2656H16.8125V19.6875H12.5469V17.5781H6.73438ZM12.5469 20.7188H12.3594V19.6875H12.5469V20.7188ZM12.5469 20.7188H16.2969V24.1875H11.5156V23.1562H12.5469V20.7188ZM11.5156 23.1562H11V22.875H11.5156V23.1562ZM12.0312 22.0781H7.29688V18.6094H12.0312V22.0781Z" fill="white"/>
<path d="M28.25 9.5625V10.0312H22.25C22.25 10.0312 19.25 9.42188 19.3437 6.89062C19.3437 6.89062 19.4375 9.5625 22.1562 9.5625H28.25Z" fill="#F6AD34"/>
<path opacity="0.5" d="M19.3906 0V6.84375C19.3906 7.59375 19.9062 9.5625 22.25 9.5625H28.25L19.3906 0Z" fill="white"/>
</svg>
