<svg width="30" height="30" viewBox="0 0 30 30" fill="none" xmlns="http://www.w3.org/2000/svg">
<path d="M4.39062 0C3.07812 0 2.04688 1.07812 2.04688 2.39062V27.6562C2.04688 28.9688 3.07812 30 4.39062 30H25.8594C27.1719 30 28.25 28.9688 28.25 27.6562V9.5625L19.3906 0H4.39062Z" fill="#49C9A7"/>
<path d="M28.2499 9.5625V10.0312H22.2499C22.2499 10.0312 19.2968 9.42188 19.3437 6.84375C19.3437 6.84375 19.4843 9.5625 22.2031 9.5625H28.2499Z" fill="#37BB91"/>
<path opacity="0.5" d="M19.3906 0V6.84375C19.3906 7.59375 19.9062 9.5625 22.25 9.5625H28.25L19.3906 0Z" fill="white"/>
<path fill-rule="evenodd" clip-rule="evenodd" d="M6.73438 25.1719V15.375H16.5312V25.1719H6.73438ZM15.5469 16.3594H7.71875V22.2656H15.5469V16.3594ZM11.0469 20.2969L12.875 17.8125L13.4844 18.7969L14.0938 18.6094L14.5625 21.2344H8.42188L10.0625 19.6875L11.0469 20.2969ZM9.26562 18.5625C8.84375 18.5625 8.46875 18.2812 8.46875 17.8594C8.46875 17.4844 8.84375 17.1562 9.26562 17.1562C9.6875 17.1562 10.0156 17.4844 10.0156 17.8594C10.0156 18.2812 9.6875 18.5625 9.26562 18.5625Z" fill="white"/>
</svg>
