<svg width="30" height="30" viewBox="0 0 30 30" fill="none" xmlns="http://www.w3.org/2000/svg">
<path fill-rule="evenodd" clip-rule="evenodd" d="M4.4375 0C3.125 0 2.04688 1.07812 2.04688 2.39062V27.6094C2.04688 28.9219 3.125 30 4.4375 30H25.8594C27.1719 30 28.25 28.9219 28.25 27.6094V9.51562L19.3906 0H4.4375V0Z" fill="#4E74B7"/>
<path d="M28.2499 9.5625V10.0312H22.2499C22.2499 10.0312 19.2968 9.42188 19.3437 6.84375C19.3437 6.84375 19.4843 9.5625 22.2031 9.5625H28.2499Z" fill="#3A57A5"/>
<path opacity="0.5" d="M19.3906 0V6.84375C19.3906 7.59375 19.9062 9.5625 22.25 9.5625H28.25L19.3906 0Z" fill="white"/>
<path fill-rule="evenodd" clip-rule="evenodd" d="M15.6875 24.75V19.1719C15.6875 19.0781 15.6875 19.0312 15.6406 18.9844L14.8906 16.7344C14.8438 16.5 14.6094 16.3594 14.375 16.3594H8.04688C7.8125 16.3594 7.57812 16.5 7.53125 16.7344L6.78125 18.9844C6.73438 19.0312 6.73438 19.0781 6.73438 19.1719V24.75C6.73438 25.0312 7.01562 25.3125 7.29688 25.3125H15.125C15.4531 25.3125 15.6875 25.0312 15.6875 24.75ZM13.9531 17.4844L14.5156 19.1719H7.90625L8.46875 17.4844H13.9531Z" fill="white"/>
</svg>
