<svg width="30" height="30" viewBox="0 0 30 30" fill="none" xmlns="http://www.w3.org/2000/svg">
<path fill-rule="evenodd" clip-rule="evenodd" d="M4.39062 0C3.07812 0 2 1.07812 2 2.39062V27.6094C2 28.9219 3.07812 30 4.39062 30H25.8594C27.1719 30 28.25 28.9219 28.25 27.6094V9.51562L19.3906 0H4.39062V0Z" fill="#6A6AE2"/>
<path d="M28.2499 9.5625V10.0312H22.2499C22.2499 10.0312 19.2968 9.42188 19.3437 6.84375C19.3437 6.84375 19.4843 9.5625 22.2031 9.5625H28.2499Z" fill="#4F4FDA"/>
<path opacity="0.5" d="M19.3906 0V6.84375C19.3906 7.59375 19.9062 9.5625 22.25 9.5625H28.25L19.3906 0Z" fill="white"/>
<path fill-rule="evenodd" clip-rule="evenodd" d="M14.5625 25.3125C12.9688 25.3125 11.7031 24.1406 11.7031 22.4062C11.7031 20.6719 12.9688 19.5 14.5625 19.5C15.4062 19.5 16.0625 19.8281 16.5312 20.25C16.5781 20.2969 16.625 20.3906 16.625 20.4844C16.625 20.6719 16.4844 20.8125 16.2969 20.8125C16.2031 20.8125 16.1094 20.7656 16.0625 20.7188C15.6875 20.3438 15.125 20.1094 14.5625 20.1094C13.3438 20.1094 12.4062 21.0469 12.4062 22.4062C12.4062 23.7188 13.3438 24.7031 14.5625 24.7031C15.2656 24.7031 15.8281 24.375 16.1094 24.0938V22.9219H14.4219C14.2344 22.9219 14.0938 22.7812 14.0938 22.5938C14.0938 22.4531 14.2344 22.3125 14.4219 22.3125H16.2969C16.5781 22.3125 16.8125 22.5469 16.8125 22.8281V23.9531C16.8125 24.7969 15.5938 25.3125 14.5625 25.3125ZM7.4375 22.9688H9.03125C10.1094 22.9688 10.7656 22.2188 10.7656 21.2812C10.7656 20.3438 10.1562 19.5938 9.03125 19.5938H7.25C6.96875 19.5938 6.73438 19.8281 6.73438 20.0625V24.8906C6.73438 25.125 6.92188 25.2656 7.10938 25.2656C7.29688 25.2656 7.4375 25.125 7.4375 24.8906V22.9688ZM7.4375 20.2031H8.9375C9.59375 20.2031 10.0625 20.6719 10.0625 21.2812C10.0625 21.8906 9.59375 22.3594 8.9375 22.3594H7.4375V20.2031ZM17.9844 24.6094C18.4531 25.0312 19.1094 25.3125 19.9531 25.3125C21.5 25.3125 22.0156 24.4688 22.0156 23.6719C22.0156 22.4832 20.9588 22.1877 20.0362 21.9296C19.3216 21.7298 18.6875 21.5524 18.6875 21C18.6875 20.4844 19.2031 20.1094 19.8594 20.1094C20.375 20.1094 20.8906 20.25 21.3125 20.625C21.3594 20.6719 21.4531 20.6719 21.5 20.6719C21.6875 20.6719 21.8281 20.5312 21.8281 20.3438C21.8281 20.25 21.7812 20.1562 21.7344 20.1094C21.2656 19.7344 20.6562 19.5 19.9062 19.5C18.8281 19.5 17.9844 20.1094 17.9844 21.0469C17.9844 22.1369 18.9578 22.4044 19.8517 22.6501C20.6107 22.8587 21.3125 23.0515 21.3125 23.7188C21.3125 24.1406 20.9844 24.7031 20 24.7031C19.3438 24.7031 18.7812 24.4219 18.4062 24.0469C18.3594 24 18.2656 24 18.2188 24C17.9844 24 17.8906 24.1875 17.8906 24.375C17.8906 24.4688 17.8906 24.5625 17.9844 24.6094Z" fill="white"/>
</svg>
