<svg width="30" height="30" viewBox="0 0 30 30" fill="none" xmlns="http://www.w3.org/2000/svg">
<path d="M4.39062 0C3.07812 0 2 1.07812 2 2.39062V27.6094C2 28.9219 3.07812 30 4.39062 30H25.8594C27.1719 30 28.25 28.9219 28.25 27.6094V9.51562L19.3906 0H4.39062V0Z" fill="#8C181A"/>
<path d="M28.25 9.5625V10.0312H22.25C22.25 10.0312 19.2969 9.42188 19.3906 6.89062C19.3906 6.89062 19.4844 9.5625 22.2031 9.5625H28.25Z" fill="#6B0D12"/>
<path opacity="0.5" d="M19.3906 0V6.84375C19.3906 7.64062 19.9062 9.5625 22.25 9.5625H28.25L19.3906 0Z" fill="white"/>
<path fill-rule="evenodd" clip-rule="evenodd" d="M8.98438 22.9688H7.4375V24.8906C7.4375 25.0781 7.29688 25.2188 7.0625 25.2188C6.875 25.2188 6.73438 25.0781 6.73438 24.8906V20.1094C6.73438 19.8281 6.96875 19.5938 7.25 19.5938H8.98438C10.1094 19.5938 10.7656 20.3906 10.7656 21.2812C10.7656 22.2188 10.1094 22.9688 8.98438 22.9688ZM8.9375 20.2031H7.4375V22.3594H8.9375C9.59375 22.3594 10.0625 21.9375 10.0625 21.2812C10.0625 20.625 9.59375 20.2031 8.9375 20.2031ZM12.4062 25.2188H13.8125C15.5938 25.2188 16.7188 24 16.7188 22.4062C16.7188 20.8125 15.5469 19.5938 13.8125 19.5938H12.4062C12.125 19.5938 11.8906 19.8281 11.8906 20.1094V24.7031C11.8906 24.9844 12.125 25.2188 12.4062 25.2188ZM13.8125 20.2031H12.5938V24.5625H13.8125C15.1719 24.5625 15.9688 23.5781 15.9688 22.3594C16.0156 21.1875 15.2188 20.2031 13.8125 20.2031ZM18.7344 20.2031H21.4531C21.6406 20.2031 21.7812 20.0625 21.7344 19.9219C21.7344 19.7344 21.6406 19.5938 21.4531 19.5938H18.5469C18.2656 19.5938 18.0312 19.8281 18.0312 20.1094V24.8906C18.0312 25.0781 18.1719 25.2188 18.3594 25.2188C18.5938 25.2188 18.7344 25.0781 18.7344 24.8906V22.6406H21.4062C21.5469 22.6406 21.6875 22.5469 21.6875 22.3594C21.6875 22.1719 21.5938 22.0312 21.4062 22.0312H18.7344V20.2031Z" fill="white"/>
</svg>
