<svg width="30" height="30" viewBox="0 0 30 30" fill="none" xmlns="http://www.w3.org/2000/svg">
<path fill-rule="evenodd" clip-rule="evenodd" d="M4.39062 0.046875C3.07812 0.046875 2 1.07812 2 2.39062V27.6562C2 28.9688 3.07812 30 4.39062 30H25.8594C27.1719 30 28.25 28.9688 28.25 27.6562V9.5625L19.3906 0.046875H4.39062V0.046875Z" fill="#0C77C6"/>
<path d="M28.2499 9.5625V10.0312H22.2499C22.2499 10.0312 19.2968 9.42188 19.3437 6.84375C19.3437 6.84375 19.4843 9.5625 22.2031 9.5625H28.2499Z" fill="#0959B7"/>
<path opacity="0.5" d="M19.3906 0V6.84375C19.3906 7.59375 19.9062 9.5625 22.25 9.5625H28.25L19.3906 0Z" fill="white"/>
<path fill-rule="evenodd" clip-rule="evenodd" d="M11.75 24.6094C12.2188 25.0312 12.875 25.3125 13.7188 25.3125C15.2656 25.3125 15.8281 24.4688 15.8281 23.6719C15.8281 22.4832 14.7564 22.1877 13.8208 21.9296C13.0961 21.7298 12.4531 21.5524 12.4531 21C12.4531 20.4844 12.9688 20.1094 13.625 20.1094C14.1406 20.1094 14.6562 20.25 15.0781 20.625C15.125 20.6719 15.2188 20.6719 15.2656 20.6719C15.4531 20.6719 15.5938 20.5312 15.5938 20.3438C15.5938 20.25 15.5469 20.1562 15.5 20.1094C15.0312 19.7344 14.4219 19.5 13.6719 19.5C12.5938 19.5 11.75 20.1094 11.75 21.0469C11.75 22.1369 12.7234 22.4044 13.6173 22.6501C14.3764 22.8587 15.0781 23.0515 15.0781 23.7188C15.0781 24.1406 14.75 24.7031 13.7656 24.7031C13.1094 24.7031 12.5469 24.4219 12.1719 24.0938C12.125 24 12.0312 24 11.9844 24C11.7969 24 11.6562 24.1875 11.6562 24.375C11.6562 24.4688 11.7031 24.5625 11.75 24.6094ZM9.03125 22.9688H7.4375V24.9375C7.4375 25.125 7.29688 25.2656 7.10938 25.2656C6.92188 25.2656 6.73438 25.125 6.73438 24.9375V20.1094C6.73438 19.8281 6.96875 19.5938 7.25 19.5938H9.03125C10.1562 19.5938 10.7656 20.3438 10.7656 21.2812C10.7656 22.2188 10.1094 22.9688 9.03125 22.9688ZM8.9375 20.2031H7.4375V22.3594H8.9375C9.59375 22.3594 10.0625 21.8906 10.0625 21.2812C10.0625 20.625 9.59375 20.2031 8.9375 20.2031ZM18.9688 25.2188H17.5625C17.2812 25.2188 17.0469 24.9844 17.0469 24.7031V20.1094C17.0469 19.8281 17.2812 19.5938 17.5625 19.5938H18.9688C20.75 19.5938 21.875 20.8125 21.875 22.4062C21.875 24 20.75 25.2188 18.9688 25.2188ZM17.75 20.2031H18.9688C20.375 20.2031 21.1719 21.1875 21.1719 22.4062C21.1719 23.625 20.375 24.6094 18.9688 24.6094H17.75V20.2031Z" fill="white"/>
</svg>
