<svg width="30" height="30" viewBox="0 0 30 30" fill="none" xmlns="http://www.w3.org/2000/svg">
<path fill-rule="evenodd" clip-rule="evenodd" d="M2 2.39062V27.5625C2 28.9219 3.07812 30 4.39062 30H25.8125C27.125 30 28.2031 28.9219 28.2031 27.6094V9.84375L19.3438 0H4.39062C3.07812 0 2 1.07812 2 2.39062Z" fill="#3D87F5"/>
<path opacity="0.5" d="M19.3438 0L28.25 9.84375H21.7344C20.4219 9.84375 19.2969 8.76562 19.2969 7.40625L19.3438 0Z" fill="white"/>
<path opacity="0.5" d="M19.3438 7.45312V7.92188C19.3438 9.23438 20.4219 10.3594 21.7812 10.3594H28.25V9.89062H21.7344C20.4219 9.84375 19.3438 8.76562 19.3438 7.45312Z" fill="#216AC1"/>
<path d="M13.0156 21.8906H9.78125C9.59375 21.8906 9.40625 22.0312 9.40625 22.2656C9.40625 22.5 9.54688 22.6406 9.78125 22.6406H13.0156C13.2031 22.6406 13.3906 22.5 13.3906 22.2656C13.3906 22.0312 13.2031 21.8906 13.0156 21.8906Z" fill="white"/>
<path d="M9.73438 19.3594H12.9688C13.1562 19.3594 13.3438 19.2188 13.3438 18.9844C13.3438 18.7969 13.2031 18.6094 12.9688 18.6094H9.73438C9.54688 18.6094 9.35938 18.75 9.35938 18.9844C9.40625 19.2188 9.54688 19.3594 9.73438 19.3594Z" fill="white"/>
<path d="M8.65625 20.25C8.46875 20.25 8.28125 20.3906 8.28125 20.625C8.28125 20.8125 8.42188 21 8.65625 21H14.0469C14.2344 21 14.4219 20.8594 14.4219 20.625C14.4219 20.4375 14.2812 20.25 14.0469 20.25H8.65625Z" fill="white"/>
<path d="M14.5625 17.2032C12.7344 15.4688 9.82816 15.5157 8.04691 17.2969C6.26566 19.0782 6.21879 21.9844 7.95316 23.8125C8.84379 24.75 10.0625 25.3125 11.375 25.3125H15.6875C15.875 25.3125 16.0625 25.1719 16.0625 24.9375V20.625C16.0625 19.3125 15.5469 18.0938 14.5625 17.2032ZM15.3125 24.6094H11.375C10.2969 24.6094 9.21879 24.1407 8.46879 23.3438C7.71879 22.5469 7.34379 21.4688 7.39066 20.3907C7.53129 18.375 9.12504 16.7813 11.0938 16.6875C11.1875 16.6875 11.2813 16.6875 11.3282 16.6875C13.5313 16.6875 15.3125 18.4688 15.3125 20.6719V24.6094Z" fill="white"/>
</svg>
