<svg width="30" height="30" viewBox="0 0 30 30" fill="none" xmlns="http://www.w3.org/2000/svg">
<path fill-rule="evenodd" clip-rule="evenodd" d="M4.39062 0C3.07812 0 2 1.07812 2 2.39062V27.6094C2 28.9219 3.07812 30 4.39062 30H25.8594C27.1719 30 28.25 28.9219 28.25 27.6094V9.51562L19.3906 0H4.39062V0Z" fill="#00A1EE"/>
<path d="M28.2499 9.5625V10.0312H22.2499C22.2499 10.0312 19.2968 9.42188 19.3437 6.84375C19.3437 6.84375 19.4843 9.5625 22.2031 9.5625H28.2499Z" fill="#0089E9"/>
<path opacity="0.5" d="M19.3906 0V6.84375C19.3906 7.59375 19.9062 9.5625 22.25 9.5625H28.25L19.3906 0Z" fill="white"/>
<path fill-rule="evenodd" clip-rule="evenodd" d="M10.5312 24.7031L9.3125 22.875C10.1094 22.8281 10.7656 22.2656 10.7656 21.2344C10.7656 20.2031 10.0625 19.5469 9.03125 19.5469H7.25C6.96875 19.5469 6.73438 19.7812 6.73438 20.0625V24.8906C6.73438 25.0781 6.92188 25.2188 7.10938 25.2188C7.29688 25.2188 7.4375 25.0781 7.4375 24.8906V22.9688H8.5625L9.96875 25.0781C10.0156 25.1719 10.1094 25.2188 10.25 25.2188C10.4375 25.2188 10.5781 25.0781 10.5781 24.8906C10.5781 24.8438 10.5781 24.7969 10.5312 24.7031ZM7.4375 22.3125V20.1562H8.9375C9.59375 20.1562 10.0625 20.625 10.0625 21.2344C10.0625 21.8906 9.59375 22.3125 8.9375 22.3125H7.4375ZM15.6406 20.1562H14.0938V24.8906C14.0938 25.0781 13.9531 25.2188 13.7656 25.2188C13.5312 25.2188 13.3906 25.0781 13.3906 24.8906V20.1562H11.8906C11.7031 20.1562 11.5625 20.0625 11.5625 19.875C11.5625 19.6875 11.7031 19.5469 11.8906 19.5469H15.6406C15.8281 19.5469 15.9219 19.6875 15.9219 19.875C15.9219 20.0625 15.8281 20.1562 15.6406 20.1562ZM17.75 20.1562H20.4688C20.6562 20.1562 20.75 20.0625 20.75 19.875C20.75 19.6875 20.6562 19.5469 20.4688 19.5469H17.5156C17.2344 19.5469 17.0469 19.7812 17.0469 20.0625V24.8906C17.0469 25.0781 17.1875 25.2188 17.375 25.2188C17.5625 25.2188 17.75 25.0781 17.75 24.8906V22.6406H20.4219C20.5625 22.6406 20.7031 22.5 20.7031 22.3125C20.7031 22.125 20.5625 21.9844 20.4219 21.9844H17.75V20.1562Z" fill="white"/>
</svg>
