<svg width="30" height="30" viewBox="0 0 30 30" fill="none" xmlns="http://www.w3.org/2000/svg">
<path d="M4.4375 0C3.125 0 2.04688 1.07812 2.04688 2.39062V27.6094C2.04688 28.9219 3.125 30 4.4375 30H25.8594C27.1719 30 28.25 28.9219 28.25 27.6094V9.51562L19.3906 0H4.4375V0Z" fill="#80BC4B"/>
<path d="M28.2499 9.5625V10.0312H22.2499C22.2499 10.0312 19.2968 9.42188 19.3437 6.84375C19.3437 6.84375 19.4843 9.5625 22.2031 9.5625H28.2499Z" fill="#60AB38"/>
<path opacity="0.5" d="M19.3906 0V6.84375C19.3906 7.59375 19.9062 9.5625 22.25 9.5625H28.25L19.3906 0Z" fill="white"/>
<path d="M11.6094 25.2656C14 25.125 15.9219 23.1094 15.9219 20.6719C15.9219 18.2344 14 16.2188 11.6094 16.0781V25.2656Z" fill="#CFE8AF"/>
<path d="M11.0469 25.2656C8.65625 25.0781 6.78125 23.1094 6.78125 20.6719C6.78125 18.2344 8.65625 16.2188 11.0469 16.0781V25.2656Z" fill="white"/>
</svg>
