<svg width="30" height="30" viewBox="0 0 30 30" fill="none" xmlns="http://www.w3.org/2000/svg">
<path fill-rule="evenodd" clip-rule="evenodd" d="M4.39062 0C3.07812 0 2 1.03125 2 2.34375V27.6094C2 28.9219 3.07812 30 4.39062 30H25.8594C27.1719 30 28.25 28.9219 28.25 27.6094V9.51562L19.3906 0H4.39062V0Z" fill="#14A9DA"/>
<path d="M28.2499 9.5625V10.0312H22.2499C22.2499 10.0312 19.2968 9.42188 19.3437 6.84375C19.3437 6.84375 19.4843 9.5625 22.2031 9.5625H28.2499Z" fill="#0F93D0"/>
<path opacity="0.5" d="M19.3906 0V6.84375C19.3906 7.59375 19.9062 9.5625 22.25 9.5625H28.25L19.3906 0Z" fill="white"/>
<path fill-rule="evenodd" clip-rule="evenodd" d="M12.6406 22.4531C12.6406 24.0938 13.7656 25.3594 15.4531 25.3594C17.0938 25.3594 18.2188 24.0938 18.2188 22.4531C18.2188 20.7656 17.0938 19.5469 15.4531 19.5469C13.7656 19.5469 12.6406 20.8125 12.6406 22.4531ZM8.65625 25.2656H7.25C6.96875 25.2656 6.73438 25.0312 6.73438 24.75V20.1094C6.73438 19.8281 6.96875 19.6406 7.25 19.6406H8.65625C10.4375 19.6406 11.5625 20.8594 11.5625 22.4531C11.5625 24.0469 10.4375 25.2656 8.65625 25.2656ZM8.65625 20.25H7.4375V24.6094H8.65625C10.0625 24.6094 10.8594 23.625 10.8594 22.4531C10.8594 21.2344 10.0625 20.25 8.65625 20.25ZM15.4531 20.1562C14.1875 20.1562 13.3906 21.1406 13.3906 22.4531C13.3906 23.7656 14.1875 24.7031 15.4531 24.7031C16.6719 24.7031 17.5156 23.7656 17.5156 22.4531C17.5156 21.1406 16.6719 20.1562 15.4531 20.1562ZM24.1719 20.5781C24.1719 20.4844 24.125 20.3906 24.0781 20.3438C23.6562 19.875 23.0469 19.5469 22.2031 19.5469C20.5625 19.5469 19.2969 20.7188 19.2969 22.4531C19.2969 24.1875 20.5625 25.3594 22.2031 25.3594C23.0469 25.3594 23.6562 25.0312 24.0781 24.5625C24.0907 24.5374 24.1032 24.5156 24.1149 24.4954C24.1468 24.4403 24.1719 24.3968 24.1719 24.3281C24.1719 24.1406 24.0312 23.9531 23.8438 23.9531C23.75 23.9531 23.6562 24 23.6094 24.0938C23.2344 24.5156 22.7188 24.7031 22.2031 24.7031C20.9844 24.7031 20.0469 23.7656 20.0469 22.4531C20.0469 21.0938 20.9844 20.1562 22.2031 20.1562C22.7188 20.1562 23.2812 20.3906 23.6094 20.8125C23.6562 20.8594 23.75 20.9062 23.8438 20.9062C24.0312 20.9062 24.1719 20.7656 24.1719 20.5781Z" fill="white"/>
</svg>
