<svg width="30" height="30" viewBox="0 0 30 30" fill="none" xmlns="http://www.w3.org/2000/svg">
<path fill-rule="evenodd" clip-rule="evenodd" d="M4.39062 0C3.07812 0 2 1.03125 2 2.34375V27.6094C2 28.9219 3.07812 30 4.39062 30H25.8594C27.1719 30 28.25 28.9219 28.25 27.6094V9.51562L19.3906 0H4.39062V0Z" fill="#8199AF"/>
<path d="M28.2499 9.5625V10.0312H22.2499C22.2499 10.0312 19.2968 9.42188 19.3437 6.84375C19.3437 6.84375 19.4843 9.5625 22.2031 9.5625H28.2499Z" fill="#617F9B"/>
<path opacity="0.5" d="M19.3906 0V6.84375C19.3906 7.59375 19.9062 9.5625 22.25 9.5625H28.25L19.3906 0Z" fill="white"/>
<path fill-rule="evenodd" clip-rule="evenodd" d="M10.8125 25.125L9.07812 22.7812L7.34375 25.125C7.25 25.2188 7.15625 25.2188 7.0625 25.2188C6.875 25.2188 6.73438 25.0781 6.73438 24.8906C6.73438 24.8438 6.73438 24.75 6.78125 24.7031L8.60938 22.3125L6.92188 20.0156C6.875 19.9688 6.875 19.9219 6.875 19.8281C6.875 19.6875 7.01562 19.5 7.20312 19.5C7.29688 19.5 7.39062 19.5469 7.48438 19.6406L9.07812 21.7969L10.6719 19.6406C10.7656 19.5469 10.8594 19.5 10.9531 19.5C11.1406 19.5 11.2812 19.6406 11.2812 19.8281C11.2812 19.9219 11.2812 19.9688 11.2344 20.0156L9.54688 22.2656L11.375 24.7031C11.4219 24.75 11.4219 24.8438 11.4219 24.8906C11.4219 25.0781 11.2812 25.2188 11.0938 25.2188C11 25.2188 10.9062 25.2188 10.8125 25.125ZM20.5156 25.125H21.9219C23.7031 25.125 24.8281 23.9062 24.8281 22.3125C24.8281 20.7188 23.7031 19.5 21.9219 19.5H20.5156C20.2344 19.5 20 19.6875 20 19.9688V24.6094C20 24.8906 20.2344 25.125 20.5156 25.125ZM20.7031 20.1094H21.9219C23.3281 20.1094 24.125 21.0938 24.125 22.3125C24.125 23.4844 23.3281 24.4688 21.9219 24.4688H20.7031V20.1094ZM17.5156 20.5312V24.8906C17.5156 25.0781 17.6562 25.2188 17.8438 25.2188C18.0781 25.2188 18.2188 25.0781 18.2188 24.8906V20.0625C18.2188 19.7812 17.9375 19.5 17.6094 19.5C17.375 19.5 17.1406 19.6406 17.0469 19.875L15.4531 23.8125L13.8594 19.875C13.7656 19.6406 13.5312 19.5 13.2969 19.5C12.9688 19.5 12.6875 19.7812 12.6875 20.0625V24.8906C12.6875 25.0781 12.8281 25.2188 13.0625 25.2188C13.25 25.2188 13.3906 25.0781 13.3906 24.8906V20.5312L15.2656 25.125C15.3125 25.1719 15.3594 25.2188 15.4531 25.2188C15.5469 25.2188 15.5938 25.1719 15.6406 25.125L17.5156 20.5312Z" fill="white"/>
</svg>
