<svg width="30" height="30" viewBox="0 0 30 30" fill="none" xmlns="http://www.w3.org/2000/svg">
<path fill-rule="evenodd" clip-rule="evenodd" d="M4.39062 0C3.07812 0 2 1.03125 2 2.34375V27.6094C2 28.9219 3.07812 30 4.39062 30H25.8594C27.1719 30 28.25 28.9219 28.25 27.6094V9.51562L19.3906 0H4.39062V0Z" fill="#FC7B24"/>
<path d="M28.2499 9.5625V10.0312H22.2499C22.2499 10.0312 19.2968 9.42188 19.3437 6.84375C19.3437 6.84375 19.4843 9.5625 22.2031 9.5625H28.2499Z" fill="#FB5C1B"/>
<path opacity="0.5" d="M19.3906 0V6.84375C19.3906 7.59375 19.9062 9.5625 22.25 9.5625H28.25L19.3906 0Z" fill="white"/>
<path fill-rule="evenodd" clip-rule="evenodd" d="M10.8125 25.125L9.07812 22.7812L7.34375 25.125C7.25 25.2188 7.15625 25.2188 7.0625 25.2188C6.875 25.2188 6.73438 25.0781 6.73438 24.8906C6.73438 24.8438 6.73438 24.75 6.78125 24.7031L8.60938 22.3125L6.92188 20.0156C6.875 19.9688 6.875 19.9219 6.875 19.8281C6.875 19.6875 7.01562 19.5 7.20312 19.5C7.29688 19.5 7.39062 19.5469 7.48438 19.6406L9.07812 21.7969L10.6719 19.6406C10.7656 19.5469 10.8594 19.5 10.9531 19.5C11.1406 19.5 11.2812 19.6406 11.2812 19.8281C11.2812 19.9219 11.2812 19.9688 11.2344 20.0156L9.54688 22.2656L11.375 24.7031C11.4219 24.75 11.4219 24.8438 11.4219 24.8906C11.4219 25.0781 11.2812 25.2188 11.0938 25.2188C11 25.2188 10.9062 25.2188 10.8125 25.125ZM17.5156 24.8906V20.5312L15.6406 25.125C15.5938 25.1719 15.5469 25.2188 15.4531 25.2188C15.3594 25.2188 15.3125 25.1719 15.2656 25.125L13.3906 20.5312V24.8906C13.3906 25.0781 13.25 25.2188 13.0625 25.2188C12.8281 25.2188 12.6875 25.0781 12.6875 24.8906V20.0625C12.6875 19.7812 12.9688 19.5 13.2969 19.5C13.5312 19.5 13.7656 19.6406 13.8594 19.875L15.4531 23.8125L17.0469 19.875C17.1406 19.6406 17.375 19.5 17.6094 19.5C17.9375 19.5 18.2188 19.7812 18.2188 20.0625V24.8906C18.2188 25.0781 18.0781 25.2188 17.8438 25.2188C17.6562 25.2188 17.5156 25.0781 17.5156 24.8906ZM20.2344 25.1719H22.8125C22.9531 25.1719 23.0938 25.0312 23.0938 24.8438C23.0938 24.7031 22.9531 24.5625 22.8125 24.5625H20.4219V19.8281C20.4219 19.6406 20.2812 19.5 20.0938 19.5C19.9062 19.5 19.7188 19.6406 19.7188 19.8281V24.6562C19.7188 24.9375 19.9531 25.1719 20.2344 25.1719Z" fill="white"/>
</svg>
