<svg width="26" height="26" viewBox="0 0 26 26" fill="none" xmlns="http://www.w3.org/2000/svg">
<path fill-rule="evenodd" clip-rule="evenodd" d="M23 4H17.45C17.45 4 17.5 4.35 17.5 4.5C17.5 6.45 15.95 8 14 8H11C9.05 8 7.5 6.45 7.5 4.5C7.5 4.35 7.5 4 7.55 4H3C1.9 4 1 4.9 1 6V21C1 22.1 1.9 23 3 23H23C24.1 23 25 22.1 25 21V6C25 4.9 24.1 4 23 4ZM10.85 19H5.15C4.5 19 4 18.4 4 17.75C4 16.75 5.05 16.2 6.15 15.75C6.9 15.45 7 15.15 7 14.8C7 14.5 6.8 14.2 6.55 13.95C6.1 13.55 5.85 12.95 5.85 12.3C5.85 11.05 6.6 10 7.95 10C9.3 10 10.05 11.05 10.05 12.3C10.05 12.95 9.8 13.55 9.35 13.95C9.1 14.2 8.9 14.5 8.9 14.8C8.9 15.1 9 15.4 9.75 15.75C10.85 16.2 11.9 16.75 11.9 17.75C12 18.4 11.5 19 10.85 19ZM22 17C22 17.3 21.8 17.5 21.5 17.5H14.5C14.2 17.5 14 17.3 14 17V16C14 15.7 14.2 15.5 14.5 15.5H21.5C21.8 15.5 22 15.7 22 16V17ZM23 13C23 13.3 22.8 13.5 22.5 13.5H14.5C14.2 13.5 14 13.3 14 13V12C14 11.7 14.2 11.5 14.5 11.5H22.5C22.8 11.5 23 11.7 23 12V13ZM11 6H14C14.85 6 15.5 5.35 15.5 4.5C15.5 3.65 14.85 3 14 3H11C10.15 3 9.5 3.65 9.5 4.5C9.5 5.35 10.15 6 11 6Z" fill="#706E6B"/>
</svg>
