<svg width="26" height="26" viewBox="0 0 26 26" fill="none" xmlns="http://www.w3.org/2000/svg">
<path fill-rule="evenodd" clip-rule="evenodd" d="M25 5C25 3.9 24.1 3 23 3H3C1.9 3 1 3.9 1 5V21C1 22.1 1.9 23 3 23H23C24.1 23 25 22.1 25 21V5ZM19.8 19H5.3C4.7 19 4.35 18.35 4.65 17.85L9.05 10.2C9.25 9.85 9.7 9.85 9.9 10.2L12.55 14.75C12.75 15.05 13.2 15.1 13.4 14.8L15.55 11.7C15.75 11.4 16.2 11.4 16.4 11.7L20.35 18C20.65 18.45 20.35 19 19.8 19ZM18.5 10C17.4 10 16.5 9.1 16.5 8C16.5 6.9 17.4 6 18.5 6C19.6 6 20.5 6.9 20.5 8C20.5 9.1 19.6 10 18.5 10Z" fill="#706E6B"/>
</svg>
