<svg width="26" height="26" viewBox="0 0 26 26" fill="none" xmlns="http://www.w3.org/2000/svg">
<path fill-rule="evenodd" clip-rule="evenodd" d="M24.963 16.75L23.963 14.65L24.963 12.55C25.063 12.4 24.963 12.15 24.813 12.1C24.788 12.1 24.763 12.0875 24.738 12.075C24.713 12.0625 24.688 12.05 24.663 12.05H21.413C21.163 11.4 20.513 9.8 19.913 8.9C19.163 7.7 18.313 6.7 17.313 5.9C16.163 4.95 14.863 4.15 13.363 3.55L13.013 3.5L12.663 3.6C12.613 3.6 12.063 3.8 11.213 4.2C10.513 4.55 9.71301 5.05 8.91301 5.7C7.36301 6.95 6.16301 8.45 5.31301 10.2L5.26885 10.2971C5.02824 10.8259 4.74845 11.4408 4.51301 12.1H1.36301C1.31301 12.1 1.26301 12.1 1.21301 12.15C1.06301 12.2 0.963006 12.45 1.01301 12.6L1.91301 14.7L1.01301 16.8V16.9C1.01301 17.1 1.16301 17.25 1.36301 17.25H3.61301V18.15C3.61301 18.5 3.61301 18.9 3.66301 19.15V19.8L4.26301 20.15C4.27551 20.15 4.34426 20.1844 4.46457 20.2445C4.8255 20.425 5.65051 20.8375 6.81301 21.25C8.21301 21.75 10.463 22.35 13.163 22.35C15.513 22.35 17.813 21.9 20.013 21C20.663 20.75 21.263 20.45 21.813 20.15L22.313 19.9L22.413 19.5L22.463 19.15V18.1C22.463 17.9 22.463 17.8 22.413 17.7C22.413 17.6634 22.4063 17.6268 22.3978 17.5804C22.3831 17.5 22.363 17.3902 22.363 17.2H24.663C24.863 17.2 25.013 17.05 25.013 16.85C25.013 16.85 25.013 16.8 24.963 16.75ZM20.713 18.55C20.713 18.65 20.713 18.75 20.663 18.85C20.213 19.1 19.763 19.3 19.3131 19.5L19.313 19.5L19.313 19.5C17.313 20.3 15.263 20.7 13.113 20.7C10.663 20.7 8.61301 20.15 7.31301 19.7C6.36301 19.35 5.66301 19.05 5.31301 18.85V17.8C5.31301 17.65 5.31301 17.55 5.36301 16.5C5.46301 15.05 5.81301 13.7 6.06301 12.95C6.31301 12.2 6.61301 11.5 6.86301 10.95C7.61301 9.4 8.66301 8.15 10.013 7.05C10.863 6.35 11.563 5.95 11.963 5.75C12.0835 5.69644 12.1969 5.64646 12.3021 5.60007L12.3022 5.6C12.5898 5.4732 12.8166 5.3732 12.963 5.3C14.163 5.8 15.213 6.45 16.163 7.25C17.013 7.95 17.763 8.8 18.413 9.9C18.913 10.7 19.613 12.4 19.813 12.9C19.813 12.9 20.463 15 20.513 16.4C20.5221 16.6008 20.5296 16.7716 20.536 16.9181L20.536 16.9185V16.9185C20.5647 17.5747 20.5721 17.7457 20.613 17.95C20.613 18.05 20.613 18.1 20.663 18.2V18.55H20.713ZM12.213 18.7C12.413 18.85 12.613 18.95 12.913 18.95C13.163 18.95 13.413 18.9 13.663 18.7C13.863 18.5 13.963 18.25 13.963 17.95C13.963 17.7 13.863 17.45 13.663 17.25C13.513 17.05 13.263 16.95 12.963 16.95C12.663 16.95 12.413 17.05 12.213 17.25C12.013 17.4 11.913 17.65 11.913 17.95C11.913 18.25 12.013 18.5 12.213 18.7ZM9.96301 10.25C9.71301 10.7 9.56301 11.1 9.56301 11.55C9.56301 11.75 9.66301 11.95 9.91301 12.15C10.113 12.3 10.313 12.4 10.563 12.4C11.013 12.4 11.313 12.15 11.463 11.65C11.613 11.15 11.813 10.8 12.063 10.55C12.313 10.3 12.663 10.15 13.163 10.15C13.613 10.15 13.963 10.25 14.213 10.5C14.463 10.75 14.613 11.05 14.613 11.4C14.613 11.55 14.563 11.75 14.463 11.9C14.363 12.1 14.263 12.2 14.113 12.35C14.0244 12.4091 13.9184 12.503 13.7846 12.6216C13.6918 12.7037 13.5858 12.7977 13.463 12.9C13.113 13.2 12.863 13.45 12.663 13.65L12.663 13.65C12.463 13.9 12.313 14.1 12.213 14.4C12.063 14.7 12.013 15 12.013 15.4C12.013 15.7 12.063 15.95 12.213 16C12.363 16.15 12.563 16.25 12.813 16.25C13.263 16.25 13.513 16 13.613 15.55C13.6264 15.4964 13.6398 15.4464 13.6522 15.4C13.6862 15.2732 13.713 15.1732 13.713 15.1C13.713 15.05 13.763 14.95 13.813 14.85C13.863 14.75 13.913 14.65 14.013 14.55C14.0449 14.4863 14.1174 14.4225 14.2046 14.3458C14.2542 14.3022 14.3086 14.2544 14.363 14.2C14.5463 14.0333 14.713 13.8833 14.8611 13.75C15.1574 13.4833 15.3797 13.2833 15.513 13.15C15.713 12.95 15.913 12.7 16.063 12.4C16.213 12.1 16.313 11.8 16.313 11.4C16.313 10.9 16.163 10.45 15.913 10.05C15.663 9.6 15.263 9.3 14.763 9.05C14.263 8.8 13.663 8.7 13.013 8.7C12.313 8.7 11.713 8.85 11.163 9.15C10.663 9.45 10.263 9.8 9.96301 10.25Z" fill="#706E6B"/>
</svg>
