<svg width="26" height="26" viewBox="0 0 26 26" fill="none" xmlns="http://www.w3.org/2000/svg">
<path fill-rule="evenodd" clip-rule="evenodd" d="M24.25 18.9502L21.2 16.5002C20.5 15.9502 19.5 15.9002 18.8 16.4502L16.2 18.3502C15.9 18.6002 15.45 18.5502 15.15 18.2502L11.25 14.7502L7.75002 10.8502C7.45002 10.5502 7.45002 10.1502 7.65002 9.8002L9.55002 7.2002C10.1 6.5002 10.05 5.5002 9.50002 4.8002L7.05002 1.7502C6.30002 0.850195 4.95002 0.750195 4.10002 1.6002L1.50002 4.2002C1.10002 4.6002 0.900024 5.1502 0.900024 5.7002C1.15002 10.8002 3.45002 15.6502 6.85002 19.0502C10.25 22.4502 15.1 24.7502 20.2 25.0002C20.75 25.0502 21.3 24.8002 21.7 24.4002L24.3 21.8002C25.25 21.0502 25.2 19.6502 24.25 18.9502ZM14.8 12.0002H22.5C23 12.0002 23.15 11.4502 22.75 11.0502L20.3 8.5502L24.8 4.0002C25.05 3.7502 25.05 3.3002 24.8 3.0502L22.95 1.2002C22.7 0.950195 22.3 0.950195 22 1.2002L17.45 5.7502L14.9 3.3002C14.55 2.8502 14 3.0002 14 3.5002V11.1502C14 11.5002 14.45 12.0002 14.8 12.0002Z" fill="#706E6B"/>
</svg>
