<svg width="26" height="26" viewBox="0 0 26 26" fill="none" xmlns="http://www.w3.org/2000/svg">
<path fill-rule="evenodd" clip-rule="evenodd" d="M13 1C6.35 1 1 6.35 1 13C1 19.65 6.35 25 13 25C19.65 25 25 19.65 25 13C25 6.35 19.65 1 13 1ZM13 22C8 22 4 18 4 13C4 8 8 4 13 4C18 4 22 8 22 13C22 18 18 22 13 22ZM13 7.05C13.85 7.05 14.5 7.7 14.5 8.55C14.5 9.4 13.85 10.05 13 10.05C12.15 10.05 11.5 9.4 11.5 8.55C11.5 7.7 12.15 7.05 13 7.05ZM15.5 17.55C15.5 17.8 15.3 18 15 18H11C10.75 18 10.5 17.85 10.5 17.55V16.55C10.5 16.3 10.7 16 11 16C11.25 16 11.5 15.85 11.5 15.55V13.55C11.5 13.3 11.3 13 11 13C10.75 13 10.5 12.85 10.5 12.55V11.55C10.5 11.3 10.7 11 11 11H14C14.25 11 14.5 11.25 14.5 11.55V15.55C14.5 15.8 14.7 16 15 16C15.25 16 15.5 16.25 15.5 16.55V17.55Z" fill="#706E6B"/>
</svg>
