<svg width="26" height="26" viewBox="0 0 26 26" fill="none" xmlns="http://www.w3.org/2000/svg">
<path fill-rule="evenodd" clip-rule="evenodd" d="M8.15 6.11007L7 5.16007C6.65 4.91007 6.25 4.96007 5.95 5.26007L0.15 12.5601C-0.05 12.8101 -0.05 13.2101 0.15 13.5101L6 20.7601C6.25 21.0601 6.7 21.1601 7.05 20.8601L8.2 19.9101C8.55 19.6601 8.6 19.1601 8.3 18.8601L3.6 13.0101L8.35 7.16007C8.55 6.86007 8.5 6.41007 8.15 6.11007ZM25.85 12.5601L20 5.31007C19.75 5.01007 19.3 4.91007 18.95 5.21007L17.8 6.16007C17.45 6.41007 17.4 6.91007 17.7 7.21007L22.45 13.0601L17.7 18.9101C17.45 19.2101 17.5 19.7101 17.8 19.9601L18.95 20.9101C19.3 21.1601 19.7 21.1101 20 20.8101L25.85 13.5101C26.05 13.1601 26.05 12.8101 25.85 12.5601ZM15.8 5.41007L14.3 5.06007C13.9 4.96007 13.45 5.21007 13.35 5.61007L9.65 19.8101C9.55 20.2101 9.8 20.6101 10.2 20.7101L11.7 21.0601C12.1 21.1601 12.55 20.9101 12.65 20.5101L16.35 6.31007C16.45 5.86007 16.2 5.51007 15.8 5.41007Z" fill="#706E6B"/>
</svg>
