<svg width="26" height="26" viewBox="0 0 26 26" fill="none" xmlns="http://www.w3.org/2000/svg">
<path fill-rule="evenodd" clip-rule="evenodd" d="M1.89998 22.6496H24.4C24.8 22.6496 25.15 22.2996 25.15 21.8996V17.7496C25.15 17.3496 24.8 16.9996 24.4 16.9996H1.89998C1.49998 16.9996 1.14998 17.3496 1.14998 17.7496V21.8996C1.14998 22.2996 1.49998 22.6496 1.89998 22.6496ZM1.89998 3.34961C1.49998 3.34961 1.09998 3.69961 1.09998 4.09961V14.2996C1.09998 14.6496 1.49998 14.9996 1.89998 14.9996H24.3C24.7 14.9996 25.05 14.6496 25.05 14.2496V4.09961C25.05 3.69961 24.7 3.34961 24.3 3.34961H1.89998Z" fill="#706E6B"/>
</svg>
