<svg width="26" height="26" viewBox="0 0 26 26" fill="none" xmlns="http://www.w3.org/2000/svg">
<path fill-rule="evenodd" clip-rule="evenodd" d="M19 5.65V5C19 4.45 18.55 4 18 4H11C10.45 4 10 4.45 10 5V6C10 6.55 10.45 7 11 7C11.85 7 12.5 7.8 12.3 8.6L10.5 17.4C10.35 18.05 9.8 18.5 9.2 18.5H8C7.45 18.5 7 18.95 7 19.5V20.5C7 21.05 7.45 21.5 8 21.5H15C15.55 21.5 16 21.05 16 20.5V19.5C16 18.95 15.55 18.5 15 18.5C14.15 18.5 13.5 17.7 13.7 16.9L15.5 8.1C15.65 7.45 16.2 7 16.8 7H17.65C18.4 7 19 6.4 19 5.65Z" fill="#706E6B"/>
</svg>
