<svg width="26" height="26" viewBox="0 0 26 26" fill="none" xmlns="http://www.w3.org/2000/svg">
<path fill-rule="evenodd" clip-rule="evenodd" d="M22.65 8.25L20.95 10C20.65 10.3 20.5 10.65 20.5 11.05V19.75C20.5 20.15 20.15 20.5 19.75 20.5H6.25C5.85 20.5 5.5 20.15 5.5 19.75V6.25C5.5 5.85 5.85 5.5 6.25 5.5H15C15.4 5.5 15.8 5.35 16.05 5.05L17.75 3.35C18.05 3.05 17.85 2.5 17.4 2.5H4.5C3.4 2.5 2.5 3.4 2.5 4.5V21.5C2.5 22.6 3.4 23.5 4.5 23.5H21.5C22.6 23.5 23.5 22.6 23.5 21.5V8.6C23.5 8.15 22.95 7.95 22.65 8.25ZM9.35 15.1L11.2 16.95C11.3 17.05 11.4 17.05 11.5 16.95L21.2 7C21.3 6.9 21.3 6.8 21.2 6.7L19.4 4.9C19.3 4.8 19.2 4.8 19.1 4.9L9.35 14.8C9.25 14.9 9.25 15 9.35 15.1ZM19.95 4.05C19.85 4.15 19.85 4.25 19.95 4.35L21.75 6.15C21.85 6.25 21.95 6.25 22.05 6.15L23.3 4.9C23.65 4.6 23.65 4.1 23.3 3.75L22.4 2.85C22.05 2.5 21.55 2.5 21.2 2.85C21.15 2.85 19.95 4.05 19.95 4.05ZM7.7 18.2C7.65 18.4 7.85 18.6 8.05 18.55C8.35 18.45 8.7 18.4 9 18.3C9.25 18.25 9.5 18.2 9.75 18.1C10 18.05 10.25 18 10.45 17.9C10.55 17.85 10.75 17.65 10.6 17.5L8.7 15.6C8.55 15.45 8.4 15.6 8.35 15.7C8.2 15.9 8.15 16.2 8.1 16.4C8.05 16.65 7.95 16.9 7.9 17.15C7.85 17.6 7.8 17.9 7.7 18.2Z" fill="#706E6B"/>
</svg>
