<svg width="26" height="26" viewBox="0 0 26 26" fill="none" xmlns="http://www.w3.org/2000/svg">
<path fill-rule="evenodd" clip-rule="evenodd" d="M22 1H7C5.9 1 5 1.9 5 3V4.5H3.5C2.65 4.5 2 5.15 2 6C2 6.85 2.65 7.5 3.5 7.5H5V11.5H3.5C2.65 11.5 2 12.15 2 13C2 13.85 2.65 14.5 3.5 14.5H5V18.5H3.5C2.65 18.5 2 19.15 2 20C2 20.85 2.65 21.5 3.5 21.5H5V23C5 24.1 5.9 25 7 25H22C23.1 25 24 24.1 24 23V3C24 1.9 23.1 1 22 1ZM18.5 18C18.5 18.3 18.3 18.5 18 18.5H11C10.7 18.5 10.5 18.3 10.5 18V17C10.5 16.7 10.7 16.5 11 16.5H18C18.3 16.5 18.5 16.7 18.5 17V18ZM19.5 14C19.5 14.3 19.3 14.5 19 14.5H10C9.7 14.5 9.5 14.3 9.5 14V13C9.5 12.7 9.7 12.5 10 12.5H19C19.3 12.5 19.5 12.7 19.5 13V14ZM20.5 9C20.5 9.3 20.3 9.5 20 9.5H9C8.7 9.5 8.5 9.3 8.5 9V6C8.5 5.7 8.7 5.5 9 5.5H20C20.3 5.5 20.5 5.7 20.5 6V9Z" fill="#706E6B"/>
</svg>
