<svg width="48" height="48" viewBox="0 0 48 48" fill="none" xmlns="http://www.w3.org/2000/svg">
<rect width="48" height="48" rx="4" fill="#F59F71"/>
<mask id="mask0_1518_28442" style="mask-type:luminance" maskUnits="userSpaceOnUse" x="0" y="0" width="48" height="48">
<rect width="48" height="48" rx="4" fill="white"/>
</mask>
<g mask="url(#mask0_1518_28442)">
<path d="M35.7049 12.0164C32.6394 8.95082 28.5705 7.27869 24.2787 7.27869C23.3312 7.27869 22.6066 8.00328 22.6066 8.95082C22.6066 9.89836 23.3312 10.6229 24.2787 10.6229C27.6787 10.6229 30.9115 11.9607 33.3639 14.3574C35.7607 16.8098 37.0984 20.0426 37.0984 23.4426C37.0984 24.3902 37.823 25.1148 38.7705 25.1148C39.718 25.1148 40.4426 24.3902 40.4426 23.4426C40.4426 19.1508 38.7705 15.082 35.7049 12.0164Z" fill="white"/>
<path d="M24.2787 13.9672C23.3312 13.9672 22.6066 14.6918 22.6066 15.6393C22.6066 16.5868 23.3312 17.3114 24.2787 17.3114C25.8951 17.3114 27.4557 17.9245 28.6262 19.095C29.7967 20.2655 30.4098 21.7704 30.4098 23.4426C30.4098 24.3901 31.1344 25.1147 32.082 25.1147C33.0295 25.1147 33.7541 24.3901 33.7541 23.4426C33.7541 20.9344 32.7508 18.5377 30.9672 16.754C29.1836 14.9704 26.7869 13.9672 24.2787 13.9672Z" fill="white"/>
<path d="M21.882 29.9639L23.3312 26.0622C24.3344 26.4524 25.4492 26.2294 26.2853 25.4486C27.4 24.3338 27.4 22.6059 26.2853 21.4912C25.1705 20.3764 23.4426 20.3764 22.3279 21.4912C21.4918 22.3273 21.3246 23.5535 21.7705 24.6125L18.1476 26.2294L11.6262 19.7081C11.1803 19.2622 10.4 19.2622 10.0098 19.7639C5.82952 24.7803 6.10821 32.2491 10.8459 36.9311C15.5279 41.6125 22.9967 41.8912 28.0131 37.7672C28.5148 37.377 28.5148 36.5967 28.0689 36.1508L21.882 29.9639Z" fill="white"/>
</g>
</svg>
