<svg width="48" height="48" viewBox="0 0 48 48" fill="none" xmlns="http://www.w3.org/2000/svg">
<rect width="48" height="48" rx="4" fill="#48C7C8"/>
<mask id="mask0_1518_28422" style="mask-type:luminance" maskUnits="userSpaceOnUse" x="0" y="0" width="48" height="48">
<rect width="48" height="48" rx="4" fill="white"/>
</mask>
<g mask="url(#mask0_1518_28422)">
<path d="M17.4193 22.7387C17.4193 22.3 16.8709 22.0258 16.5419 22.3L8.86447 28.2225C8.04189 28.8258 7.54834 29.8129 7.54834 30.8548V33.1032C7.54834 33.4871 7.93221 33.7613 8.26124 33.5967L16.7064 30.4161C17.1451 30.2516 17.4193 29.8677 17.4193 29.3742V22.7387Z" fill="white"/>
<path d="M29.5387 38.0936L27.2903 36.6129V34.4194V28.9355V19.0645V16.3226V11.7162C27.2903 10.2355 25.7 8.59035 24.6581 7.76777C24.2742 7.43874 23.671 7.43874 23.2871 7.76777C22.3 8.59035 20.6548 10.2355 20.6548 11.7162V16.3226V19.0645V28.9355V34.4194V36.6129L18.1322 38.2581C17.6935 38.5871 17.3645 39.0807 17.3645 39.6291V39.9581C17.3645 40.2323 17.5839 40.4516 17.8581 40.4516H24H29.9774C30.2516 40.4516 30.5806 40.2323 30.5806 39.9581C30.5806 39.1903 30.1419 38.5323 29.5387 38.0936Z" fill="white"/>
<path d="M39.1354 28.2225L31.458 22.3C31.0747 22.0258 30.5806 22.3 30.5806 22.7387V29.429C30.5806 29.8677 30.8548 30.3064 31.2935 30.4704L39.7386 33.651C40.1225 33.7613 40.4515 33.5419 40.4515 33.158V30.9096C40.4515 29.8129 39.958 28.8258 39.1354 28.2225Z" fill="white"/>
</g>
</svg>
