<svg width="48" height="48" viewBox="0 0 48 48" fill="none" xmlns="http://www.w3.org/2000/svg">
<rect width="48" height="48" rx="4" fill="#8D9BFB"/>
<mask id="mask0_1518_28526" style="mask-type:luminance" maskUnits="userSpaceOnUse" x="0" y="0" width="48" height="48">
<rect width="48" height="48" rx="4" fill="white"/>
</mask>
<g mask="url(#mask0_1518_28526)">
<path fill-rule="evenodd" clip-rule="evenodd" d="M8.7 7H39.3C40.2633 7 41 7.73667 41 8.7C41 9.66333 40.2633 10.4 39.3 10.4H25.7V13.8567C31.82 14.65 36.4667 19.8633 36.4667 26.1533V30.0633C36.4667 34.2567 33.18 37.6 29.0433 37.6H19.0133C14.82 37.6 11.5333 34.2567 11.5333 30.12V26.21C11.5333 19.92 16.18 14.7067 22.3 13.9133V10.4H8.7C7.73667 10.4 7 9.66333 7 8.7C7 7.73667 7.73667 7 8.7 7ZM28.9867 29.1C30.63 29.1 31.9333 27.7967 31.9333 26.1533C31.8767 21.8467 28.42 18.3333 24.1133 18.3333H23.8867C19.5933 18.3333 16.1447 21.825 16.0673 26.1702C16.0671 26.1646 16.0669 26.1589 16.0667 26.1533V26.21V26.2106C16.0668 26.1971 16.067 26.1836 16.0673 26.1702C16.1319 27.8056 17.3756 29.1 19.0133 29.1H28.9867Z" fill="white"/>
<path d="M10.4 41.0001C11.6518 41.0001 12.6666 39.9853 12.6666 38.7335C12.6666 37.4816 11.6518 36.4668 10.4 36.4668C9.14812 36.4668 8.1333 37.4816 8.1333 38.7335C8.1333 39.9853 9.14812 41.0001 10.4 41.0001Z" fill="white"/>
<path d="M37.6 41.0001C38.8519 41.0001 39.8667 39.9853 39.8667 38.7335C39.8667 37.4816 38.8519 36.4668 37.6 36.4668C36.3482 36.4668 35.3334 37.4816 35.3334 38.7335C35.3334 39.9853 36.3482 41.0001 37.6 41.0001Z" fill="white"/>
</g>
</svg>
