<svg width="48" height="48" viewBox="0 0 48 48" fill="none" xmlns="http://www.w3.org/2000/svg">
<rect width="48" height="48" rx="4" fill="#43B5B5"/>
<mask id="mask0_1518_28464" style="mask-type:luminance" maskUnits="userSpaceOnUse" x="0" y="0" width="48" height="48">
<rect width="48" height="48" rx="4" fill="white"/>
</mask>
<g mask="url(#mask0_1518_28464)">
<path fill-rule="evenodd" clip-rule="evenodd" d="M10.1875 13.1094H37.8125C39.5656 13.1094 41 14.5438 41 16.2969V31.7031C41 33.4562 39.5656 34.8906 37.8125 34.8906H10.1875C8.43438 34.8906 7 33.4562 7 31.7031V16.2969C7 14.5438 8.43438 13.1094 10.1875 13.1094ZM10.1875 27.9844C12.2594 27.9844 13.9062 29.6313 13.9062 31.7031H34.0938C34.0938 29.6313 35.7406 27.9844 37.8125 27.9844V20.0156C35.7406 20.0156 34.0938 18.3688 34.0938 16.2969H13.9062C13.9062 18.3688 12.2594 20.0156 10.1875 20.0156V27.9844Z" fill="white"/>
<path d="M24 29.0469C26.934 29.0469 29.3125 26.6684 29.3125 23.7344C29.3125 20.8004 26.934 18.4219 24 18.4219C21.066 18.4219 18.6875 20.8004 18.6875 23.7344C18.6875 26.6684 21.066 29.0469 24 29.0469Z" fill="white"/>
</g>
</svg>
