<svg width="48" height="48" viewBox="0 0 48 48" fill="none" xmlns="http://www.w3.org/2000/svg">
<rect width="48" height="48" rx="4" fill="#F28B00"/>
<mask id="mask0_1518_28596" style="mask-type:luminance" maskUnits="userSpaceOnUse" x="0" y="0" width="48" height="48">
<rect width="48" height="48" rx="4" fill="white"/>
</mask>
<g mask="url(#mask0_1518_28596)">
<path d="M40.2576 24.8673H36.7596V40.2191C36.7681 40.4217 36.6904 40.6184 36.5457 40.7604C36.4009 40.9024 36.2028 40.9763 36.0004 40.9639H29.0092C28.6333 40.9187 28.3623 40.5816 28.3989 40.2047V28.3653H19.8893V40.2191C19.918 40.589 19.6518 40.9164 19.2839 40.9639H12.2927C12.0876 40.9767 11.887 40.9009 11.7418 40.7556C11.5965 40.6104 11.5207 40.4097 11.5335 40.2047V24.8673H8.03545C7.73273 24.8673 7.42522 24.7135 7.42522 24.4108C7.27146 24.1081 7.27146 23.8005 7.57898 23.6516L23.6901 7.54051C23.9928 7.2378 24.4492 7.2378 24.603 7.54051L40.7141 23.666C41.0168 23.8198 41.0168 24.1225 40.8678 24.4252C40.7189 24.7279 40.5651 24.8817 40.2576 24.8817V24.8673Z" fill="white"/>
</g>
</svg>
