<svg width="48" height="48" viewBox="0 0 48 48" fill="none" xmlns="http://www.w3.org/2000/svg">
<rect width="48" height="48" rx="4" fill="#DA627F"/>
<mask id="mask0_1518_28544" style="mask-type:luminance" maskUnits="userSpaceOnUse" x="0" y="0" width="48" height="48">
<rect width="48" height="48" rx="4" fill="white"/>
</mask>
<g mask="url(#mask0_1518_28544)">
<path fill-rule="evenodd" clip-rule="evenodd" d="M37.6279 7.58537C38.1713 7.57143 38.7148 7.5575 38.9934 7.5575C39.941 7.50176 40.7213 8.28209 40.7213 9.22963V33.1411C40.7213 36.2067 37.7115 38.7149 34.0328 38.7149C30.3541 38.7149 27.3443 36.2067 27.3443 33.1411C27.3443 30.0755 30.3541 27.5673 34.0328 27.5673C34.8131 27.5673 35.7049 27.6788 36.2623 27.9018V22.1608C36.2623 21.4919 35.7601 20.9903 35.0918 21.046C28.0131 21.4919 24.2229 22.2165 21.4918 22.8854C20.9902 22.9968 20.6557 23.4427 20.6557 23.9444V35.3149C20.6557 38.3805 17.6459 40.8886 13.9672 40.8886C10.2885 40.8886 7.27869 38.3805 7.27869 35.3149C7.27869 32.2493 10.2885 29.7411 13.9672 29.7411C14.7475 29.7411 15.6393 29.8526 16.1967 30.0755V11.905C16.1967 11.2362 16.6426 10.5673 17.3115 10.3444C17.8131 10.1772 27.6787 8.05914 36.2623 7.61324C36.541 7.61324 37.0844 7.5993 37.6279 7.58537ZM21.9934 18.0919C24.9475 17.4231 28.4033 16.7542 35.2033 16.3641C35.8164 16.3641 36.2623 15.8624 36.2623 15.1936V13.41C36.2623 12.7411 35.7601 12.2395 35.0918 12.2952C27.9574 12.7411 24.4459 13.4657 21.5475 14.1345C20.9902 14.3018 20.6557 14.7477 20.6557 15.2493V16.9772C20.6557 17.7018 21.2689 18.2591 21.9934 18.0919Z" fill="white"/>
</g>
</svg>
