<svg width="48" height="48" viewBox="0 0 48 48" fill="none" xmlns="http://www.w3.org/2000/svg">
<rect width="48" height="48" rx="4" fill="#D472D4"/>
<mask id="mask0_1518_28454" style="mask-type:luminance" maskUnits="userSpaceOnUse" x="0" y="0" width="48" height="48">
<rect width="48" height="48" rx="4" fill="white"/>
</mask>
<g mask="url(#mask0_1518_28454)">
<path d="M17.5967 36.4667H15.2733C14.8767 36.4667 14.48 36.6933 14.31 37.0333L13.5167 38.3933C13.0633 39.1867 13.2333 40.2067 13.97 40.7167C14.2533 40.9433 14.5933 41 14.9333 41C15.5 41 16.0667 40.7167 16.4067 40.15L18.1067 37.3167C18.3333 36.92 18.05 36.4667 17.5967 36.4667Z" fill="white"/>
<path d="M33.69 37.0333C33.4639 36.6933 33.1234 36.4667 32.7273 36.4667H30.4034C29.95 36.4667 29.6667 36.92 29.8939 37.3167L31.5939 40.15C31.9334 40.7167 32.5 41 33.0667 41C33.4067 41 33.7467 40.8867 34.03 40.7167C34.7667 40.2067 34.9367 39.13 34.4834 38.3933L33.69 37.0333Z" fill="white"/>
<path fill-rule="evenodd" clip-rule="evenodd" d="M14.3667 7H33.6333C35.5033 7 37.0333 8.53 37.0333 10.4V29.6667C37.0333 31.5367 35.5033 33.0667 33.6333 33.0667H14.3667C12.4967 33.0667 10.9667 31.5367 10.9667 29.6667V10.4C10.9667 8.53 12.4967 7 14.3667 7ZM14.3667 29.1C14.3667 30.0633 15.1033 30.8 16.0667 30.8C17.03 30.8 17.7667 30.0633 17.7667 29.1C17.7667 28.1367 17.03 27.4 16.0667 27.4C15.1033 27.4 14.3667 28.1367 14.3667 29.1ZM31.9333 30.8C30.97 30.8 30.2333 30.0633 30.2333 29.1C30.2333 28.1367 30.97 27.4 31.9333 27.4C32.8967 27.4 33.6333 28.1367 33.6333 29.1C33.6333 30.0633 32.8967 30.8 31.9333 30.8ZM32.5 25.1333C33.1233 25.1333 33.6333 24.6233 33.6333 24V12.6667C33.6333 12.0433 33.1233 11.5333 32.5 11.5333H15.5C14.8767 11.5333 14.3667 12.0433 14.3667 12.6667V24C14.3667 24.6233 14.8767 25.1333 15.5 25.1333H32.5Z" fill="white"/>
</g>
</svg>
