<svg width="48" height="48" viewBox="0 0 48 48" fill="none" xmlns="http://www.w3.org/2000/svg">
<rect width="48" height="48" rx="4" fill="#D15B97"/>
<mask id="mask0_1518_28546" style="mask-type:luminance" maskUnits="userSpaceOnUse" x="0" y="0" width="48" height="48">
<rect width="48" height="48" rx="4" fill="white"/>
</mask>
<g mask="url(#mask0_1518_28546)">
<path fill-rule="evenodd" clip-rule="evenodd" d="M28.7812 20.5469H39.9375C40.5219 20.5469 41 21.025 41 21.6094V24.425C41 24.9563 40.6276 25.3813 40.15 25.4875L31.1719 27.4531C30.6406 27.5594 30.2682 28.0906 30.3218 28.6219C30.375 28.9406 30.375 29.2594 30.375 29.5781C30.375 34.7312 26.0718 38.875 20.8656 38.6094C17.7844 38.45 15.0219 36.6432 13.5344 34.0406C13.0031 34.2531 12.4187 34.3594 11.8344 34.3594C9.1781 34.3594 7.0531 32.2344 7.0531 29.5781C7.0531 26.9219 9.1781 24.7969 11.8344 24.7969C12.4187 24.7969 13.0031 24.9037 13.5344 25.1156C15.0219 22.5125 17.7312 20.7062 20.8656 20.5469H23.4687C24.0531 20.5469 24.5312 21.025 24.5312 21.6094V22.1406C24.5312 23.0438 25.275 23.7344 26.125 23.7344C27.0281 23.7344 27.7187 22.9906 27.7187 22.1406V21.6094C27.7187 21.025 28.1968 20.5469 28.7812 20.5469ZM10.1875 29.5781C10.1875 30.4812 10.8781 31.1719 11.7812 31.1719C11.9937 31.1719 12.2062 31.1187 12.4187 31.013C12.3656 30.7474 12.3125 30.4818 12.3125 30.1625C12.3125 29.4719 12.3125 28.7812 12.4187 28.1438C12.2594 28.0375 11.9937 27.9844 11.7812 27.9844C10.8781 27.9844 10.1875 28.675 10.1875 29.5781Z" fill="white"/>
<path d="M26.125 16.8281C27.0281 16.8281 27.7188 16.1375 27.7188 15.2344V10.4531C27.7188 9.55 27.0281 8.85938 26.125 8.85938C25.2219 8.85938 24.5312 9.55 24.5312 10.4531V15.2344C24.5312 16.1375 25.2219 16.8281 26.125 16.8281Z" fill="white"/>
<path d="M18.5281 17.3596C18.8468 17.7314 19.2718 17.8908 19.75 17.8908C20.1218 17.8908 20.4937 17.7846 20.8125 17.5189C21.5031 16.9346 21.5562 15.9252 20.9718 15.2877L17.7843 11.5689C17.2 10.8783 16.1906 10.8252 15.5531 11.4096C14.8625 11.9939 14.8093 13.0033 15.3937 13.6408L18.5281 17.3596Z" fill="white"/>
<path d="M32.5 17.8905C32.925 17.8905 33.4031 17.678 33.7219 17.3593L36.9094 13.6405C37.4943 12.9499 37.3875 11.9405 36.75 11.4093C36.0594 10.8249 35.05 10.9312 34.5187 11.5687L31.3312 15.2874C30.7469 15.978 30.8536 16.9874 31.4906 17.5187C31.7562 17.7843 32.1281 17.8905 32.5 17.8905Z" fill="white"/>
</g>
</svg>
