<svg width="48" height="48" viewBox="0 0 48 48" fill="none" xmlns="http://www.w3.org/2000/svg">
<rect width="48" height="48" rx="4" fill="#5AB0D2"/>
<mask id="mask0_1518_28436" style="mask-type:luminance" maskUnits="userSpaceOnUse" x="0" y="0" width="48" height="48">
<rect width="48" height="48" rx="4" fill="white"/>
</mask>
<g mask="url(#mask0_1518_28436)">
<path fill-rule="evenodd" clip-rule="evenodd" d="M37.8125 30.9062H10.1875C9.60312 30.9062 9.125 30.4281 9.125 29.8438V12.8438C9.125 11.0906 10.5594 9.65625 12.3125 9.65625H35.6875C37.4406 9.65625 38.875 11.0906 38.875 12.8438V29.8438C38.875 30.4281 38.3969 30.9062 37.8125 30.9062ZM13.375 12.8438C12.7906 12.8438 12.3125 13.3219 12.3125 13.9062V26.6562C12.3125 27.2406 12.7906 27.7188 13.375 27.7188H34.625C35.2094 27.7188 35.6875 27.2406 35.6875 26.6562V13.9062C35.6875 13.3219 35.2094 12.8438 34.625 12.8438H13.375Z" fill="white"/>
<path d="M39.9375 34.0938H28.25C27.6656 34.0938 27.1875 34.5719 27.1875 35.1562C27.1875 35.7406 26.7094 36.2188 26.125 36.2188H21.875C21.2906 36.2188 20.8125 35.7406 20.8125 35.1562C20.8125 34.5719 20.3344 34.0938 19.75 34.0938H8.0625C7.47812 34.0938 7 34.5719 7 35.1562C7 36.9094 8.43438 38.3438 10.1875 38.3438H37.8125C39.5656 38.3438 41 36.9094 41 35.1562C41 34.5719 40.5219 34.0938 39.9375 34.0938Z" fill="white"/>
</g>
</svg>
