<svg width="48" height="48" viewBox="0 0 48 48" fill="none" xmlns="http://www.w3.org/2000/svg">
<rect width="48" height="48" rx="4" fill="#F279AB"/>
<mask id="mask0_1518_28512" style="mask-type:luminance" maskUnits="userSpaceOnUse" x="0" y="0" width="48" height="48">
<rect width="48" height="48" rx="4" fill="white"/>
</mask>
<g mask="url(#mask0_1518_28512)">
<path d="M35.6571 32.635H8.56507C8.02539 32.635 7.53967 33.1207 7.53967 33.6604V33.7144C7.53967 35.4953 8.99682 36.9525 10.7778 36.9525H33.4444C35.2254 36.9525 36.6825 35.4953 36.6825 33.7144V33.6604C36.6825 33.1207 36.1968 32.635 35.6571 32.635Z" fill="white"/>
<path fill-rule="evenodd" clip-rule="evenodd" d="M33.3905 11.0476H34.5238C38.0857 11.0476 40.946 13.9619 40.946 17.5238C40.946 21.0857 38.0318 24 34.4699 24C33.7143 24 33.0127 23.8921 32.3651 23.6762C31.1238 26.0508 29.2884 27.9942 27.1841 29.2889C27.0217 29.3968 26.8598 29.4508 26.6445 29.4508H15.3651C15.2032 29.4508 14.9873 29.3968 14.8254 29.2889C11.1016 27.0222 8.40319 22.7587 7.7016 17.7397C7.48573 16.1746 7.48573 13.5841 7.64763 12.127C7.7016 11.5333 8.13335 11.0476 8.67303 11.0476H27.508H33.3905ZM33.7143 20.654C33.9842 20.7079 34.254 20.7619 34.5238 20.7619C36.3048 20.7619 37.7619 19.3048 37.7619 17.5238C37.7619 15.7428 36.3048 14.2857 34.5238 14.2857V15.1492C34.5238 17.0921 34.254 18.927 33.7143 20.654L33.7143 20.654Z" fill="white"/>
</g>
</svg>
