<svg width="48" height="48" viewBox="0 0 48 48" fill="none" xmlns="http://www.w3.org/2000/svg">
<rect width="48" height="48" rx="4" fill="#679EF0"/>
<mask id="mask0_1518_28528" style="mask-type:luminance" maskUnits="userSpaceOnUse" x="0" y="0" width="48" height="48">
<rect width="48" height="48" rx="4" fill="white"/>
</mask>
<g mask="url(#mask0_1518_28528)">
<path d="M9.22947 15.918H38.7704C39.495 15.918 40.0524 15.1935 39.8295 14.5246C39.1606 12.2394 38.1573 10.1213 36.8196 8.28198C36.4295 7.7246 35.6491 7.66887 35.2032 8.11477C33.8655 9.341 32.0262 10.0656 30.0754 10.0656C28.0131 10.0656 26.1174 9.22952 24.724 7.83608C24.2781 7.44592 23.6092 7.44592 23.2191 7.83608C21.8256 9.22952 19.9305 10.0656 17.8683 10.0656C15.9174 10.0656 14.1338 9.341 12.7404 8.11477C12.2387 7.66887 11.5142 7.78034 11.124 8.28198C9.78628 10.1213 8.78301 12.2394 8.11415 14.5246C7.9475 15.1935 8.50487 15.918 9.22947 15.918Z" fill="white"/>
<path d="M40.7213 20.377C40.7213 19.7638 40.2197 19.2622 39.6066 19.2622H8.39344C7.78033 19.2622 7.27869 19.7638 7.27869 20.377C7.27869 20.4327 7.27869 20.5442 7.27869 20.5999C7.27869 30.9671 14.5246 39.6065 24 40.9442C33.4754 39.6065 40.7213 30.9671 40.7213 20.5999C40.7213 20.4884 40.7213 20.4327 40.7213 20.377Z" fill="white"/>
</g>
</svg>
