<svg width="48" height="48" viewBox="0 0 48 48" fill="none" xmlns="http://www.w3.org/2000/svg">
<rect width="48" height="48" rx="4" fill="#CD9F65"/>
<mask id="mask0_1518_28532" style="mask-type:luminance" maskUnits="userSpaceOnUse" x="0" y="0" width="48" height="48">
<rect width="48" height="48" rx="4" fill="white"/>
</mask>
<g mask="url(#mask0_1518_28532)">
<path fill-rule="evenodd" clip-rule="evenodd" d="M24 7C23.0367 7 22.3 7.73667 22.3 8.7V39.3C22.3 40.2633 23.0367 41 24 41C33.35 41 41 33.35 41 24C41 14.65 33.35 7 24 7ZM37.4867 22.3H33.01C32.84 18.2767 31.9334 14.7633 30.5734 12.1C34.3134 14.1967 36.92 17.9367 37.4867 22.3ZM25.7 25.7V36.8633C27.6267 35.22 29.3267 31.0267 29.61 25.7H25.7ZM25.7 22.3V11.1367C27.6267 12.78 29.3267 16.9733 29.61 22.3H25.7ZM33.0106 25.7C32.7834 29.7233 31.9334 33.2367 30.5734 35.9C34.3134 33.8033 36.92 30.0633 37.4867 25.7H33.0106Z" fill="white"/>
<path d="M14.65 18.2767C15.1033 18.6167 15.7833 18.56 16.18 18.1067L19.2967 14.5934C19.6933 14.14 19.6933 13.46 19.24 13.0634L16.1233 9.94669C15.7267 9.55003 15.16 9.49336 14.7067 9.77669C14.48 9.89003 14.31 10.06 14.0833 10.1734C9.83333 13.2334 7 18.2767 7 24C7 29.7234 9.83333 34.7667 14.0833 37.8267C14.31 37.9967 14.48 38.11 14.7067 38.2228C15.16 38.5061 15.7267 38.4495 16.1233 38.0528L19.24 34.9361C19.6367 34.5395 19.6933 33.8028 19.2967 33.4061L16.18 29.8934C15.7833 29.4395 15.1033 29.3834 14.65 29.7228L13.46 30.63C12.2133 28.7034 11.5333 26.4367 11.5333 24C11.5333 21.5634 12.2133 19.2967 13.46 17.37L14.65 18.2767Z" fill="white"/>
</g>
</svg>
