<svg width="48" height="48" viewBox="0 0 48 48" fill="none" xmlns="http://www.w3.org/2000/svg">
<rect width="48" height="48" rx="4" fill="#F28B00"/>
<mask id="mask0_1518_28586" style="mask-type:luminance" maskUnits="userSpaceOnUse" x="0" y="0" width="48" height="48">
<rect width="48" height="48" rx="4" fill="white"/>
</mask>
<g mask="url(#mask0_1518_28586)">
<path fill-rule="evenodd" clip-rule="evenodd" d="M35.2322 7.12951H40.1905C40.3651 7.12626 40.5338 7.1928 40.6592 7.31437C40.7846 7.43594 40.8563 7.6025 40.8584 7.77713V40.2188C40.8563 40.3934 40.7846 40.56 40.6592 40.6815C40.5338 40.8031 40.3651 40.8697 40.1905 40.8664H35.2322C35.0576 40.8697 34.8889 40.8031 34.7635 40.6815C34.6382 40.56 34.5665 40.3934 34.5643 40.2188V7.77713C34.5665 7.6025 34.6382 7.43594 34.7635 7.31437C34.8889 7.1928 35.0576 7.12626 35.2322 7.12951ZM31.0429 15.0224H26.0846C25.91 15.0191 25.7413 15.0857 25.6159 15.2072C25.4905 15.3288 25.4188 15.4954 25.4167 15.67V40.2188C25.4188 40.3934 25.4905 40.56 25.6159 40.6815C25.7413 40.8031 25.91 40.8697 26.0846 40.8664H31.0429C31.2175 40.8697 31.3862 40.8031 31.5116 40.6815C31.6369 40.56 31.7086 40.3934 31.7108 40.2188V15.67C31.7156 15.4932 31.6461 15.3225 31.5191 15.1994C31.3922 15.0763 31.2194 15.0121 31.0429 15.0224ZM16.9572 26.4002H21.9155V26.3962C22.0901 26.3929 22.2588 26.4595 22.3842 26.581C22.5096 26.7026 22.5813 26.8692 22.5834 27.0438V40.2188C22.5813 40.3934 22.5096 40.56 22.3842 40.6815C22.2588 40.8031 22.0901 40.8697 21.9155 40.8664H16.9774C16.8028 40.8697 16.6341 40.8031 16.5088 40.6815C16.3834 40.56 16.3117 40.3934 16.3096 40.2188V27.0438C16.3161 26.6895 16.6029 26.4045 16.9572 26.4002ZM7.80958 29.4967H12.7679V29.4926C12.9435 29.486 13.1141 29.5514 13.2402 29.6737C13.3664 29.796 13.437 29.9645 13.4358 30.1402V40.1905C13.4358 40.3665 13.3651 40.5351 13.2394 40.6585C13.1138 40.7818 12.9439 40.8494 12.7679 40.8462H7.80958C7.63358 40.8494 7.46366 40.7818 7.33805 40.6585C7.21244 40.5351 7.14169 40.3665 7.14172 40.1905V30.1443C7.14385 29.9696 7.21555 29.8031 7.34092 29.6815C7.46629 29.5599 7.63498 29.4934 7.80958 29.4967Z" fill="white"/>
</g>
</svg>
