<svg width="48" height="48" viewBox="0 0 48 48" fill="none" xmlns="http://www.w3.org/2000/svg">
<rect width="48" height="48" rx="4" fill="#ACD360"/>
<mask id="mask0_1518_28418" style="mask-type:luminance" maskUnits="userSpaceOnUse" x="0" y="0" width="48" height="48">
<rect width="48" height="48" rx="4" fill="white"/>
</mask>
<g mask="url(#mask0_1518_28418)">
<path d="M20.0334 12.0433C20.2034 12.44 20.6 12.6666 21.0534 12.6666H26.8334C27.2867 12.6666 27.6834 12.44 27.8534 12.0433L30.12 7.84997C30.29 7.45331 30.0067 7.05664 29.6106 7.05664H24H18.39C17.9934 7.05664 17.71 7.50997 17.88 7.84997L20.0334 12.0433Z" fill="white"/>
<path fill-rule="evenodd" clip-rule="evenodd" d="M20.6 16.0667H27.3434C32.9534 16.0667 37.6 20.6567 37.6 26.2667V37.6C37.6 39.47 36.0134 41 34.1434 41H13.8C11.93 41 10.4 39.47 10.4 37.6V26.2667C10.4 20.6567 14.99 16.0667 20.6 16.0667ZM25.7 37.0333V35.1067C27.9667 34.5967 29.44 32.9533 29.3834 31.14C29.3834 28.4772 26.72 27.23 24.34 26.4367C22.4134 25.7566 22.1867 25.3033 22.1867 24.9067C22.1867 24.6233 22.5834 24.17 23.5467 24.17C24.17 24.17 25.1334 24.51 26.2667 25.1333L26.2667 25.1333C26.4367 25.19 26.6067 25.2467 26.7767 25.2472C27.1161 25.2472 27.5134 25.0206 27.7395 24.7372L28.5895 23.7172C28.7595 23.5472 28.8722 23.2639 28.8161 22.9806C28.76 22.6972 28.6461 22.4139 28.4195 22.3006C28.0228 22.0172 26.7767 21.4506 25.6434 21.1672V19.4672C25.6434 19.1272 25.3034 18.9006 24.9634 18.9006H22.6967C22.4134 18.9006 22.2434 19.1272 22.2434 19.4672V21.1672C19.41 21.7339 18.39 23.5472 18.39 25.0772C18.39 27.6833 20.77 28.8733 22.6967 29.5533C24.85 30.2894 25.0767 30.8561 25.0767 31.1966C25.0767 31.65 24.4534 32.0466 23.66 32.0466C22.9234 32.0466 21.9034 31.7061 20.77 31.0266H20.7134C20.5434 30.9133 20.3734 30.8561 20.1467 30.8561C19.8067 30.8561 19.4667 31.0267 19.2967 31.31L18.56 32.4433C18.22 32.9533 18.3334 33.35 18.7867 33.7467C19.1834 34.0867 20.6 34.8228 22.3 35.1633V37.0333C22.3 37.3733 22.4134 37.6 22.7534 37.6H25.02C25.36 37.6 25.7 37.3733 25.7 37.0333Z" fill="white"/>
</g>
</svg>
