<svg width="48" height="48" viewBox="0 0 48 48" fill="none" xmlns="http://www.w3.org/2000/svg">
<rect width="48" height="48" rx="4" fill="#EB687F"/>
<mask id="mask0_1518_28444" style="mask-type:luminance" maskUnits="userSpaceOnUse" x="0" y="0" width="48" height="48">
<rect width="48" height="48" rx="4" fill="white"/>
</mask>
<g mask="url(#mask0_1518_28444)">
<path fill-rule="evenodd" clip-rule="evenodd" d="M35.6733 11.42L38.45 20.1466C39.9233 20.5433 41 21.8466 41 23.4333V30.2333C41 31.7633 40.0367 33.01 38.7333 33.4633V38.1666C38.7333 38.79 38.2233 39.3 37.6 39.3H33.0667C32.4433 39.3 31.9333 38.79 31.9333 38.1666V33.6333H25.1333H16.0667V38.1666C16.0667 38.79 15.5567 39.3 14.9333 39.3H10.4C9.77667 39.3 9.26667 38.79 9.26667 38.1666V33.4633C7.96333 32.9533 7 31.7066 7 30.2333V23.4333C7 21.8466 8.07667 20.5433 9.55 20.1466L12.27 11.42C12.8367 9.77662 14.3667 8.69995 16.0667 8.69995H25.1333H31.9333C33.6333 8.69995 35.1633 9.77662 35.6733 11.42ZM9.83333 26.8333C9.83333 28.42 11.08 29.6666 12.6667 29.6666C14.2533 29.6666 15.5 28.42 15.5 26.8333C15.5 25.2466 14.2533 24 12.6667 24C11.08 24 9.83333 25.2466 9.83333 26.8333ZM25.1333 20.0333H13.9133C13.5167 20.0333 13.2333 19.6366 13.3467 19.2966L15.5 12.4966C15.5567 12.27 15.7833 12.1 16.01 12.1H25.0767H31.8767C32.1028 12.1 32.33 12.27 32.3861 12.44L34.5394 19.2966C34.6528 19.6366 34.3694 20.0333 33.9728 20.0333H25.1333ZM31.9333 26.8333C31.9333 28.42 33.18 29.6666 34.7667 29.6666C36.3533 29.6666 37.6 28.42 37.6 26.8333C37.6 25.2466 36.3533 24 34.7667 24C33.18 24 31.9333 25.2466 31.9333 26.8333Z" fill="white"/>
</g>
</svg>
