<svg width="48" height="48" viewBox="0 0 48 48" fill="none" xmlns="http://www.w3.org/2000/svg">
<rect width="48" height="48" rx="4" fill="#E7806F"/>
<mask id="mask0_1518_28548" style="mask-type:luminance" maskUnits="userSpaceOnUse" x="0" y="0" width="48" height="48">
<rect width="48" height="48" rx="4" fill="white"/>
</mask>
<g mask="url(#mask0_1518_28548)">
<path d="M37.4328 18.0359C37.6558 18.2589 37.9902 18.2589 38.2132 18.0359L38.9935 17.2556C40.8886 15.3605 40.9443 12.4622 39.105 10.6228C39.105 10.6228 36.7083 8.17035 36.6531 8.17035C34.758 6.6097 32.1378 7.33429 30.6334 8.83921L29.8525 9.61953C29.6296 9.84248 29.6296 10.1769 29.8525 10.3999L37.4328 18.0359Z" fill="white"/>
<path fill-rule="evenodd" clip-rule="evenodd" d="M26.6203 12.7409C26.8427 12.518 27.1776 12.518 27.4 12.7409L35.0361 20.4327C35.259 20.6557 35.259 20.9901 35.0361 21.2131L19.764 36.4852C18.9279 37.3213 17.9246 37.9338 16.8099 38.2683C14.3017 39.0491 9.1738 40.6655 9.1738 40.6655C9.00659 40.7213 8.83938 40.7213 8.67216 40.7213C8.11479 40.7213 7.55741 40.4426 7.22298 39.8852C7.00003 39.495 6.94429 38.9377 7.11151 38.4918L9.45249 30.9672C9.84265 29.7972 10.4558 28.7934 11.2918 27.9573L26.6203 12.7409ZM13.3556 35.8718C14.2721 35.585 15.1459 35.3117 15.8066 35.0918C16.364 34.9245 16.9213 34.5901 17.3672 34.1442L13.6328 30.4098C13.1869 30.8557 12.8525 31.3573 12.6853 31.9705L11.2361 36.5409C11.9158 36.3222 12.6484 36.093 13.3556 35.8718Z" fill="white"/>
</g>
</svg>
