<svg width="48" height="48" viewBox="0 0 48 48" fill="none" xmlns="http://www.w3.org/2000/svg">
<rect width="48" height="48" rx="4" fill="#F28B00"/>
<mask id="mask0_1518_28592" style="mask-type:luminance" maskUnits="userSpaceOnUse" x="0" y="0" width="48" height="48">
<rect width="48" height="48" rx="4" fill="white"/>
</mask>
<g mask="url(#mask0_1518_28592)">
<path fill-rule="evenodd" clip-rule="evenodd" d="M9.23682 10.5791H38.7631C39.8719 10.618 40.7433 11.5412 40.7181 12.6504V14.0686C40.7232 14.2231 40.6573 14.3714 40.5392 14.4712L25.6508 26.6844C24.7142 27.5906 23.2276 27.5906 22.291 26.6844L7.40261 14.4846C7.28453 14.3848 7.21861 14.2365 7.22366 14.082V12.6325C7.21618 11.511 8.1154 10.5938 9.23682 10.5791ZM7.51892 16.7125C7.34604 16.7942 7.23613 16.9687 7.23708 17.1599H7.24155V30.3975C7.22752 30.6062 7.34811 30.8006 7.54129 30.8807C7.72793 30.9706 7.95191 30.9206 8.08261 30.7599L15.3076 23.9375C15.4021 23.834 15.4519 23.6973 15.4463 23.5573C15.452 23.418 15.3924 23.284 15.2852 23.1949L8.06024 16.793C7.91917 16.6461 7.69665 16.613 7.51892 16.7125ZM7.23708 33.7125C7.23936 33.5697 7.29712 33.4333 7.39813 33.3323L16.4931 24.8457C16.6773 24.6661 16.9711 24.6661 17.1552 24.8457L20.9981 28.268C22.6774 29.8475 25.2957 29.8475 26.975 28.268L30.8179 24.8457C31.0056 24.675 31.2923 24.675 31.48 24.8457L40.5794 33.3144C40.6839 33.4131 40.7423 33.5509 40.7405 33.6946V35.3454C40.7489 35.8877 40.5415 36.411 40.1639 36.8003C39.7863 37.1896 39.2696 37.413 38.7273 37.4212H9.23682C8.1094 37.404 7.20872 36.4773 7.22366 35.3499V33.6991L7.23708 33.7125ZM40.4587 30.8762C40.6466 30.79 40.7646 30.5997 40.7584 30.393L40.7808 30.3796V17.1465C40.7741 16.9525 40.6579 16.779 40.481 16.6991C40.3124 16.6029 40.101 16.6264 39.9576 16.7573L32.7326 23.177C32.6187 23.2624 32.5522 23.397 32.5537 23.5394C32.548 23.6794 32.5979 23.8161 32.6923 23.9196L39.9173 30.7554C40.0557 30.9032 40.2706 30.9511 40.4587 30.8762Z" fill="white"/>
</g>
</svg>
