<svg width="48" height="48" viewBox="0 0 48 48" fill="none" xmlns="http://www.w3.org/2000/svg">
<rect width="48" height="48" rx="4" fill="#5A95DD"/>
<mask id="mask0_1518_28538" style="mask-type:luminance" maskUnits="userSpaceOnUse" x="0" y="0" width="48" height="48">
<rect width="48" height="48" rx="4" fill="white"/>
</mask>
<g mask="url(#mask0_1518_28538)">
<path fill-rule="evenodd" clip-rule="evenodd" d="M39.7738 12.7411L29.741 7.72473C29.2951 7.50178 28.7377 7.50178 28.2361 7.72473L18.9836 12.351L9.67541 7.72473C9.17377 7.44604 8.56065 7.50178 8.05901 7.78047C7.55738 8.11489 7.27869 8.67227 7.27869 9.22965V34.3116C7.27869 34.9247 7.61311 35.5378 8.22623 35.8165L18.259 40.8329C18.7049 41.0553 19.2623 41.0553 19.7639 40.8329L29.0164 36.2067L38.3246 40.8329C38.5475 40.9444 38.8262 41.0001 39.0492 41.0001C39.3279 41.0001 39.6623 40.8887 39.941 40.7772C40.4426 40.4428 40.7213 39.8854 40.7213 39.328V14.246C40.7213 13.6329 40.3869 13.0198 39.7738 12.7411ZM37.377 15.9739V29.1837C37.377 29.9641 36.5967 30.5215 35.8721 30.2428C34.4762 29.6965 34.4351 28.1755 34.3904 26.5252C34.3531 25.1444 34.3133 23.6731 33.4754 22.6067C32.7123 21.6467 31.8405 21.5455 30.9224 21.4389C29.7617 21.3042 28.5269 21.1609 27.3443 19.2624C25.282 15.9739 28.0689 13.6329 30.5213 12.351C30.8557 12.1837 31.1902 12.1837 31.5246 12.351L36.7082 14.9706C37.1541 15.1378 37.377 15.528 37.377 15.9739ZM21.9377 35.2029C22.2721 35.5378 22.7738 35.593 23.1639 35.3706L23.8885 35.0362C24.1672 34.869 24.3344 34.5903 24.4459 34.3116C24.5313 34.0341 24.6146 33.7362 24.7006 33.4289C25.0637 32.1308 25.4741 30.6638 26.2852 29.8526C27.9574 28.1805 27.4 25.951 26.2852 24.8362C25.1705 23.7214 24.6131 23.1641 21.2689 24.2788C18.6646 25.1469 18.0883 24.325 17.4344 23.3924C17.2486 23.1273 17.0565 22.8534 16.8098 22.6067C16.2525 22.0493 15.5557 22.0493 14.9287 22.0493C14.3016 22.0493 13.7443 22.0493 13.4656 21.4919C12.9082 20.3772 14.5803 19.2624 16.2525 19.8198C16.8326 20.0132 17.2718 20.381 17.6469 20.6951C18.3531 21.2864 18.8323 21.6876 19.5967 20.3772C20.6557 18.5936 21.1574 17.3674 18.6492 15.9182L18.4262 15.8067C18.3984 15.8067 18.3705 15.7928 18.3426 15.7788C18.3148 15.7649 18.2869 15.751 18.259 15.751L12.2393 12.7411C11.5148 12.351 10.6229 12.9083 10.6229 13.7444V23.8887C10.6229 24.5575 11.1803 25.0592 11.8492 25.0034C14.5803 24.7247 17.8689 25.5051 17.8689 28.1805C17.8689 30.1395 18.8252 30.7597 19.6174 31.2735C20.1776 31.6368 20.6557 31.9469 20.6557 32.6395C20.6557 33.587 21.2131 34.5903 21.9377 35.2029Z" fill="white"/>
</g>
</svg>
