<svg width="48" height="48" viewBox="0 0 48 48" fill="none" xmlns="http://www.w3.org/2000/svg">
<rect width="48" height="48" rx="4" fill="#3CC2B3"/>
<mask id="mask0_1518_28412" style="mask-type:luminance" maskUnits="userSpaceOnUse" x="0" y="0" width="48" height="48">
<rect width="48" height="48" rx="4" fill="white"/>
</mask>
<g mask="url(#mask0_1518_28412)">
<path d="M39.8667 13.8H36.4667C35.73 13.8 34.9933 13.46 34.4267 12.95L31.7067 10.6266C31.14 10.1733 30.4033 9.83331 29.6667 9.83331H23.0367C22.1867 9.83331 21.3933 10.1733 20.77 10.7966L17.2567 13.6866C16.9733 13.9133 16.9733 14.3666 17.2 14.65L18.2767 15.67C19.0133 16.2366 19.9767 16.35 20.7133 15.84L23.83 13.97C24.2267 13.6866 24.7933 13.8 25.1333 14.14L34.9367 23.66C35.1633 23.8866 35.3333 24.2266 35.3333 24.5666V27.1166C35.3333 27.7966 35.8433 28.5333 36.4667 28.5333H39.8667C40.49 28.5333 41 28.0233 41 27.3433V14.9333C41 14.2533 40.49 13.8 39.8667 13.8Z" fill="white"/>
<path d="M30.2333 24L24.1133 18.05L22.4133 19.07C21.5633 19.58 20.6 19.8633 19.6367 19.8633C18.4467 19.8633 17.2 19.41 16.2367 18.6166L14.0267 16.8033C13.5167 16.4066 13.2333 15.9533 13.1767 15.33C13.0633 14.7066 12.61 14.3666 12.0433 14.3666H9.32333H8.13333C7.51 14.3666 7 14.7066 7 15.3866V25.7C7 26.38 7.51 26.8333 8.13333 26.8333H10.4C10.57 26.8333 10.7967 26.21 11.0233 25.9266C11.8733 24.7933 13.12 24.1694 14.48 24C15.84 23.8866 17.1433 24.34 18.22 25.3033L25.3033 31.7633C25.9272 32.33 26.38 32.9533 26.6633 33.7466C26.8333 34.1433 27.2867 34.2561 27.57 33.9727L30.2333 31.31C31.5933 29.95 32.6133 26.7766 31.3667 25.3027L30.2333 24Z" fill="white"/>
<path d="M16.0099 28.1933C15.2733 27.5133 14.1966 27.6266 13.6299 28.4194C13.0066 29.2127 13.1199 30.3461 13.8566 31.0266L20.9399 37.43C21.28 37.77 21.7333 37.8833 22.1866 37.8266C22.6399 37.7694 23.0366 37.5433 23.32 37.1466C23.9433 36.3533 23.8299 35.22 23.0933 34.5394L16.0099 28.1933Z" fill="white"/>
</g>
</svg>
