<svg width="48" height="48" viewBox="0 0 48 48" fill="none" xmlns="http://www.w3.org/2000/svg">
<rect width="48" height="48" rx="4" fill="#EA70B1"/>
<mask id="mask0_1518_28490" style="mask-type:luminance" maskUnits="userSpaceOnUse" x="0" y="0" width="48" height="48">
<rect width="48" height="48" rx="4" fill="white"/>
</mask>
<g mask="url(#mask0_1518_28490)">
<path d="M11.08 24.9068C14.7634 24.2268 17.9934 22.7534 21.5067 21.1101C22.64 20.6001 24.7367 19.5801 25.7567 19.1268C26.0973 18.9568 26.3234 18.6168 26.2106 18.2201C25.9267 16.5768 24.5667 15.2168 22.8667 15.2168H21.7334V13.0634C21.7334 12.4401 21.1667 11.8734 20.6 11.8734V9.55011C20.6 8.92677 20.09 8.36011 19.4667 8.36011H17.2C16.5767 8.36011 16.0667 8.87011 16.0667 9.55011V11.8734C15.5 11.8734 14.9334 12.3834 14.9334 13.0634V15.2168H13.8C11.93 15.2168 10.4 16.9734 10.4 18.9001V24.3401C10.4 24.6801 10.74 24.9634 11.08 24.9068Z" fill="white"/>
<path fill-rule="evenodd" clip-rule="evenodd" d="M41 20.7135C40.6033 29.8368 36.4667 36.2968 36.4667 36.2968C37.0333 36.9201 37.3167 37.9401 37.4867 38.7901C37.6 39.5274 36.92 40.2068 36.1833 40.094C28.8734 38.9035 16.1235 38.0535 10.1734 37.6568L10.1733 37.6568C8.41667 37.5435 7 36.0701 7 34.2001V29.8935C7 29.3268 7.45333 28.7601 8.07667 28.7601C13.858 28.5135 18.3145 26.4519 22.9002 24.3305C27.7986 22.0645 32.8444 19.7302 39.81 19.4668C40.49 19.4668 41 20.0335 41 20.7135ZM34.2 24.2835C34.2 25.2468 34.9367 25.9835 35.9 25.9835C36.8633 25.9835 37.6 25.2468 37.6 24.2835C37.6 23.3201 36.8633 22.5835 35.9 22.5835C34.9367 22.5835 34.2 23.3201 34.2 24.2835Z" fill="white"/>
</g>
</svg>
