<svg width="48" height="48" viewBox="0 0 48 48" fill="none" xmlns="http://www.w3.org/2000/svg">
<rect width="48" height="48" rx="4" fill="#D8C760"/>
<mask id="mask0_1518_28484" style="mask-type:luminance" maskUnits="userSpaceOnUse" x="0" y="0" width="48" height="48">
<rect width="48" height="48" rx="4" fill="white"/>
</mask>
<g mask="url(#mask0_1518_28484)">
<path d="M18.7903 10.6194C20.1613 11.5516 21.5322 13.8 22.0806 15.5C22.1903 15.8839 22.5193 16.1581 22.9032 16.2129C23.2871 16.3226 23.6161 16.3226 24 16.3226C24.6032 16.3226 25.0967 16.3226 25.5903 16.1033C27.0161 15.6097 28.2225 15.0065 29.2639 13.9645C30.9645 12.2645 31.5672 9.85164 30.9091 7.82261C28.8806 7.21938 26.4672 7.76777 24.7677 9.46777C24.2742 9.96132 23.8897 10.5097 23.5613 11.1129C22.6838 9.74196 21.6419 8.53551 20.4355 7.76777C19.6129 7.27422 18.5709 7.54842 18.0774 8.371C17.7484 9.19358 18.0774 10.1258 18.7903 10.6194Z" fill="white"/>
<path d="M35.6258 18.626C29.9774 15.4453 28.771 19.7227 24 19.7227C19.229 19.7227 18.0226 15.4453 12.3742 18.626C6.89033 21.7518 8.48065 31.8421 10.6742 35.626C12.6484 38.9711 16.2129 42.426 23.5065 39.1356C23.7807 39.0265 24.1645 39.0265 24.4387 39.1356C31.7323 42.426 35.3516 38.9711 37.271 35.6265C39.5194 31.8421 41.1097 21.6969 35.6258 18.626Z" fill="white"/>
</g>
</svg>
