<svg width="48" height="48" viewBox="0 0 48 48" fill="none" xmlns="http://www.w3.org/2000/svg">
<rect width="48" height="48" rx="4" fill="#9FDB66"/>
<mask id="mask0_1518_28394" style="mask-type:luminance" maskUnits="userSpaceOnUse" x="0" y="0" width="48" height="48">
<rect width="48" height="48" rx="4" fill="white"/>
</mask>
<g mask="url(#mask0_1518_28394)">
<path d="M40.32 9.55C34.54 7.34 27.7967 6.83 21.9034 8.75666C16.6334 10.5133 11.25 14.4233 10.4567 20.3167C10.2867 21.5633 10.3434 22.8667 10.6267 24.0567C10.74 24.6806 10.9667 25.3033 11.1934 25.9272C11.3067 26.2672 11.42 26.5506 11.59 26.8339C11.3634 27.1739 11.1367 27.5139 10.91 27.8539C9.26669 30.4033 8.13335 33.2933 7.45335 36.24C7.17002 37.4867 6.49002 39.3 7.79335 40.2067C8.30335 40.5472 9.04002 40.5472 9.55002 40.2639C10.23 39.8672 10.3434 39.1872 10.4567 38.4506C10.9667 35.4472 11.9867 32.4439 13.63 29.8939C14.4234 28.6472 15.2734 27.4006 16.2367 26.2672C17.0867 25.3606 18.3334 23.6039 19.75 24.1139C21.1667 24.6233 21.11 26.2672 20.1467 27.1172C19.1834 27.9672 18.39 28.8739 18.39 30.2339C18.39 31.2539 18.8434 32.2739 19.6934 32.9539C20.8267 33.8611 23.0934 34.0872 24.4534 33.9739C27.4567 33.8039 29.8939 32.8978 32.33 31.1406C35.5034 28.93 36.75 25.0767 37.3734 21.3933C37.77 19.1267 38.0534 16.86 38.8473 14.7067C39.1873 13.8 39.64 12.8933 40.1506 12.1C40.3773 11.7033 40.8306 11.25 40.9439 10.7967C41.1134 10.23 40.7734 9.72 40.32 9.55Z" fill="white"/>
</g>
</svg>
