<svg width="48" height="48" viewBox="0 0 48 48" fill="none" xmlns="http://www.w3.org/2000/svg">
<rect width="48" height="48" rx="4" fill="#7698F0"/>
<mask id="mask0_1518_28434" style="mask-type:luminance" maskUnits="userSpaceOnUse" x="0" y="0" width="48" height="48">
<rect width="48" height="48" rx="4" fill="white"/>
</mask>
<g mask="url(#mask0_1518_28434)">
<path d="M10.4 7C8.53 7 7 8.53 7 10.4C7 11.42 7.45333 12.3267 8.13333 12.95V38.7333C8.13333 39.98 9.15333 41 10.4 41C11.6467 41 12.6667 39.98 12.6667 38.7333V12.95C13.3467 12.3267 13.8 11.42 13.8 10.4C13.8 8.53 12.27 7 10.4 7Z" fill="white"/>
<path d="M40.15 13.12C31.2533 17.7666 25.19 9.77663 16.8033 12.8366C16.35 13.0066 16.0667 13.4033 16.0667 13.9133V28.5333C16.0667 29.27 16.8033 29.8366 17.54 29.61C25.5867 27.1733 31.65 34.7666 40.4333 29.95C40.7733 29.78 41 29.3833 41 28.9866V13.63C41 13.1766 40.5467 12.8933 40.15 13.12Z" fill="white"/>
</g>
</svg>
