<svg width="48" height="48" viewBox="0 0 48 48" fill="none" xmlns="http://www.w3.org/2000/svg">
<rect width="48" height="48" rx="4" fill="#F26891"/>
<mask id="mask0_1518_28552" style="mask-type:luminance" maskUnits="userSpaceOnUse" x="0" y="0" width="48" height="48">
<rect width="48" height="48" rx="4" fill="white"/>
</mask>
<g mask="url(#mask0_1518_28552)">
<path d="M39.8667 9.26667H20.6H19.4667H11.5333V8.13333C11.5333 7.51 11.0233 7 10.4 7H8.13333C7.51 7 7 7.51 7 8.13333V10.4V12.6667V28.5333V30.8V39.8667C7 40.49 7.51 41 8.13333 41H10.4C11.0233 41 11.5333 40.49 11.5333 39.8667V30.8V28.5333V13.8H19.4667H20.6H39.8667C40.49 13.8 41 13.29 41 12.6667V10.4C41 9.77667 40.49 9.26667 39.8667 9.26667Z" fill="white"/>
<path fill-rule="evenodd" clip-rule="evenodd" d="M18.3333 17.2002H37.6C39.47 17.2002 41 18.7302 41 20.6002V33.0669C41 34.9369 39.47 36.4669 37.6 36.4669H18.3333C16.4633 36.4669 14.9333 34.9369 14.9333 33.0669V20.6002C14.9333 18.7302 16.4633 17.2002 18.3333 17.2002ZM33.0667 26.8335H34.4833C34.7667 26.8335 34.88 26.4935 34.71 26.3235L28.3633 20.1469C28.1361 19.9769 27.8528 19.9769 27.6267 20.1469L21.28 26.3235C21.0533 26.4935 21.1667 26.8335 21.45 26.8335H22.8667V32.5002C22.8667 32.8402 23.0933 33.0669 23.4333 33.0669H25.7C26.04 33.0669 26.2667 32.8402 26.2667 32.5002V29.1002C26.2667 28.7602 26.4934 28.5335 26.8333 28.5335H29.1C29.44 28.5335 29.6667 28.7602 29.6667 29.1002V32.5002C29.6667 32.8402 29.8933 33.0669 30.2333 33.0669H32.5C32.84 33.0669 33.0667 32.8402 33.0667 32.5002V26.8335Z" fill="white"/>
</g>
</svg>
