<svg width="48" height="48" viewBox="0 0 48 48" fill="none" xmlns="http://www.w3.org/2000/svg">
<rect width="48" height="48" rx="4" fill="#439CBA"/>
<mask id="mask0_1518_28570" style="mask-type:luminance" maskUnits="userSpaceOnUse" x="0" y="0" width="48" height="48">
<rect width="48" height="48" rx="4" fill="white"/>
</mask>
<g mask="url(#mask0_1518_28570)">
<path d="M27.4 17.2V8.7C27.4 7.73667 26.6633 7 25.7 7H23.4333C22.47 7 21.7333 7.73667 21.7333 8.7C21.7333 9.66333 22.47 10.4 23.4333 10.4H24V17.2C24 20.94 20.94 24 17.2 24C13.46 24 10.4 20.94 10.4 17.2V10.4H10.9667C11.93 10.4 12.6667 9.66333 12.6667 8.7C12.6667 7.73667 11.93 7 10.9667 7H8.7C7.73667 7 7 7.73667 7 8.7V17.2C7 22.81 11.59 27.4 17.2 27.4C22.81 27.4 27.4 22.81 27.4 17.2Z" fill="white"/>
<path fill-rule="evenodd" clip-rule="evenodd" d="M35.9 18.8999C38.7334 18.8999 41 21.1666 41 23.9999C41 26.2099 39.5834 28.0799 37.6 28.8166V30.0632C37.6 36.0699 32.67 40.9999 26.6067 40.9999H26.4367C21.1667 40.9999 16.69 37.2032 15.7267 32.1599C15.6134 31.4799 16.1234 30.7999 16.86 30.7999H17.9934C18.56 30.7999 19.0134 31.1971 19.1267 31.7066C19.9195 35.0499 22.9234 37.5999 26.4934 37.5999H26.6634C30.8 37.5999 34.2 34.1999 34.2 30.0632V28.8166C32.2167 28.0799 30.8 26.2099 30.8 23.9999C30.8 21.1666 33.0667 18.8999 35.9 18.8999ZM34.2 23.9999C34.2 24.9632 34.9367 25.6999 35.9 25.6999C36.8634 25.6999 37.6 24.9632 37.6 23.9999C37.6 23.0366 36.8634 22.2999 35.9 22.2999C34.9367 22.2999 34.2 23.0366 34.2 23.9999Z" fill="white"/>
</g>
</svg>
