<svg width="48" height="48" viewBox="0 0 48 48" fill="none" xmlns="http://www.w3.org/2000/svg">
<rect width="48" height="48" rx="4" fill="#E36EE3"/>
<mask id="mask0_1518_28524" style="mask-type:luminance" maskUnits="userSpaceOnUse" x="0" y="0" width="48" height="48">
<rect width="48" height="48" rx="4" fill="white"/>
</mask>
<g mask="url(#mask0_1518_28524)">
<path d="M36.0133 13.12C32.67 9.77667 28.1933 8.02 23.49 8.13333C14.4233 8.41667 7 16.18 7 25.4733V30.8C7 32.67 8.53 34.2 10.4 34.2H12.6667V36.92C12.6667 38.3939 13.7433 39.6967 15.2167 39.8667C16.9167 40.0367 18.3333 38.6767 18.3333 37.0333V26.9467C18.3333 25.4728 17.2567 24.17 15.7833 24C14.0833 23.83 12.6667 25.19 12.6667 26.8333V30.8H11.5333C10.91 30.8 10.4 30.29 10.4 29.6667V25.4733C10.4 17.9933 16.35 11.76 23.6033 11.5333C27.3439 11.42 30.8 12.78 33.4633 15.3867C36.1267 17.9933 37.6 21.45 37.6 25.1333V29.6667C37.6 30.29 37.09 30.8 36.4667 30.8H35.3333V26.9467C35.3333 25.4728 34.2567 24.17 32.7833 24C31.0833 23.83 29.6667 25.19 29.6667 26.8333V36.92C29.6667 38.3939 30.7433 39.6967 32.2167 39.8667C33.9167 40.0367 35.3333 38.6767 35.3333 37.0333V34.2H37.6C39.47 34.2 41 32.67 41 30.8V25.4733C41 20.8833 39.3 16.4067 36.0133 13.12Z" fill="white"/>
</g>
</svg>
