<svg width="48" height="48" viewBox="0 0 48 48" fill="none" xmlns="http://www.w3.org/2000/svg">
<rect width="48" height="48" rx="4" fill="#53B6D7"/>
<mask id="mask0_1518_28458" style="mask-type:luminance" maskUnits="userSpaceOnUse" x="0" y="0" width="48" height="48">
<rect width="48" height="48" rx="4" fill="white"/>
</mask>
<g mask="url(#mask0_1518_28458)">
<path d="M24 21.1665C21.5067 21.1665 19.4667 23.2065 19.4667 25.6998C19.4667 28.1932 21.5067 30.2332 24 30.2332C26.4933 30.2332 28.5333 28.1932 28.5333 25.6998C28.5333 23.2065 26.4933 21.1665 24 21.1665Z" fill="white"/>
<path fill-rule="evenodd" clip-rule="evenodd" d="M33.01 15.4999H37.6C39.47 15.4999 41 17.0299 41 18.8999V34.7666C41 36.6366 39.47 38.1666 37.6 38.1666H10.4C8.53 38.1666 7 36.6366 7 34.7666V18.8999C7 17.0299 8.53 15.4999 10.4 15.4999H14.99C15.4433 15.4999 15.84 15.2166 16.01 14.8199L17.4833 11.7033C18.05 10.5699 19.24 9.83325 20.5433 9.83325H27.4561C28.7594 9.83325 29.9494 10.5699 30.5161 11.7033L31.9894 14.8199C32.16 15.2733 32.5561 15.4999 33.01 15.4999ZM16.0667 25.8133C16.0667 30.1766 19.6367 33.7466 24 33.7466C28.3633 33.7466 31.9333 30.1766 31.9333 25.8133C31.9333 21.4499 28.3633 17.8799 24 17.8799C19.6367 17.8799 16.0667 21.4499 16.0667 25.8133Z" fill="white"/>
</g>
</svg>
