<svg width="48" height="48" viewBox="0 0 48 48" fill="none" xmlns="http://www.w3.org/2000/svg">
<rect width="48" height="48" rx="4" fill="#6D9DE3"/>
<mask id="mask0_1518_28574" style="mask-type:luminance" maskUnits="userSpaceOnUse" x="0" y="0" width="48" height="48">
<rect width="48" height="48" rx="4" fill="white"/>
</mask>
<g mask="url(#mask0_1518_28574)">
<path d="M40.6599 11.93L37.7133 9.72C37.3166 9.43667 36.8633 9.26667 36.3533 9.26667H26.2666V8.13333C26.2666 7.51 25.7566 7 25.1333 7H22.8666C22.2433 7 21.7333 7.51 21.7333 8.13333V9.26667H10.3999C9.7766 9.26667 9.2666 9.77667 9.2666 10.4V12.78V14.9333C9.2666 15.5567 9.7766 16.0667 10.3999 16.0667H21.7333H26.2666H36.2966C36.806 16.0667 37.2599 15.8967 37.656 15.6133L40.6027 13.4033C41.1133 13.0067 41.1133 12.3267 40.6599 11.93Z" fill="white"/>
<path d="M37.6 21.7335H26.2667V20.0335C26.2667 19.6935 26.04 19.4668 25.7 19.4668H22.3C21.96 19.4668 21.7333 19.6935 21.7333 20.0335V21.7335H11.7033C11.1933 21.7335 10.74 21.9035 10.3433 22.1868L7.39666 24.3968C6.88666 24.7368 6.88666 25.4729 7.39666 25.8701L10.3433 28.0801C10.74 28.3635 11.1933 28.5335 11.7033 28.5335H21.7333H26.2667H37.6C38.2233 28.5335 38.7333 28.0235 38.7333 27.4001V25.0201V22.8668C38.7333 22.2435 38.2233 21.7335 37.6 21.7335Z" fill="white"/>
<path d="M26.2667 36.2398V32.4998C26.2667 32.1598 26.04 31.9331 25.7 31.9331H22.3C21.96 31.9331 21.7333 32.1598 21.7333 32.4998V36.2398C19.4667 36.8637 18.22 38.2231 17.8233 39.9231C17.71 40.4331 18.1067 40.9998 18.6733 40.9998H29.3833C29.95 40.9998 30.3467 40.4898 30.2333 39.9231C29.78 38.2231 28.5333 36.8631 26.2667 36.2398Z" fill="white"/>
</g>
</svg>
