<svg width="48" height="48" viewBox="0 0 48 48" fill="none" xmlns="http://www.w3.org/2000/svg">
<rect width="48" height="48" rx="4" fill="#D95879"/>
<mask id="mask0_1518_28472" style="mask-type:luminance" maskUnits="userSpaceOnUse" x="0" y="0" width="48" height="48">
<rect width="48" height="48" rx="4" fill="white"/>
</mask>
<g mask="url(#mask0_1518_28472)">
<rect x="14.9688" y="20.2812" width="18.0625" height="7.4375" fill="white"/>
<path fill-rule="evenodd" clip-rule="evenodd" d="M41 16.5625V19.3781C41 19.8031 40.7875 20.1219 40.4688 20.3875C39.1937 21.1312 38.3438 22.4594 38.3438 24.0531C38.3438 25.5938 39.1937 26.975 40.4688 27.7188C40.7875 27.8781 41 28.25 41 28.6219V31.4375C41 33.1906 39.5656 34.625 37.8125 34.625H10.1875C8.43438 34.625 7 33.1906 7 31.4375V28.5156C7 28.1438 7.2125 27.825 7.53125 27.6125C8.80625 26.8688 9.65625 25.5406 9.65625 23.9469C9.65625 22.4062 8.80625 21.025 7.53125 20.2812C7.2125 20.1219 7 19.75 7 19.3781V16.5625C7 14.8094 8.43438 13.375 10.1875 13.375H37.8125C39.5656 13.375 41 14.8094 41 16.5625ZM12.8438 30.9062H35.1562C35.7406 30.9062 36.2188 30.4281 36.2188 29.8438V18.1562C36.2188 17.5719 35.7406 17.0938 35.1562 17.0938H12.8438C12.2594 17.0938 11.7812 17.5719 11.7812 18.1562V29.8438C11.7812 30.4281 12.2594 30.9062 12.8438 30.9062Z" fill="white"/>
</g>
</svg>
