<svg width="48" height="48" viewBox="0 0 48 48" fill="none" xmlns="http://www.w3.org/2000/svg">
<rect width="48" height="48" rx="4" fill="#618FD8"/>
<mask id="mask0_1518_28510" style="mask-type:luminance" maskUnits="userSpaceOnUse" x="0" y="0" width="48" height="48">
<rect width="48" height="48" rx="4" fill="white"/>
</mask>
<g mask="url(#mask0_1518_28510)">
<path fill-rule="evenodd" clip-rule="evenodd" d="M7 24C7 14.65 14.65 7 24 7C33.35 7 41 14.65 41 24C41 33.35 33.35 41 24 41C14.65 41 7 33.35 7 24ZM11.5333 24C11.5333 30.8567 17.1433 36.4667 24 36.4667C30.8567 36.4667 36.4667 30.8567 36.4667 24C36.4667 17.1433 30.8567 11.5333 24 11.5333C17.1433 11.5333 11.5333 17.1433 11.5333 24Z" fill="white"/>
<path fill-rule="evenodd" clip-rule="evenodd" d="M21.1667 20.0901L30.5733 16.6901C31.0266 16.5201 31.48 16.9734 31.31 17.4268L27.91 26.8334C27.74 27.3434 27.3433 27.7395 26.8333 27.9101L17.4267 31.3101C16.9733 31.4801 16.52 31.0268 16.69 30.5734L20.09 21.1668C20.26 20.6568 20.6567 20.2601 21.1667 20.0901ZM21.7333 24.0001C21.7333 25.2468 22.7533 26.2668 24 26.2668C25.2467 26.2668 26.2667 25.2468 26.2667 24.0001C26.2667 22.7534 25.2467 21.7334 24 21.7334C22.7533 21.7334 21.7333 22.7534 21.7333 24.0001Z" fill="white"/>
</g>
</svg>
