<svg width="48" height="48" viewBox="0 0 48 48" fill="none" xmlns="http://www.w3.org/2000/svg">
<rect width="48" height="48" rx="4" fill="#F77E75"/>
<mask id="mask0_1518_28414" style="mask-type:luminance" maskUnits="userSpaceOnUse" x="0" y="0" width="48" height="48">
<rect width="48" height="48" rx="4" fill="white"/>
</mask>
<g mask="url(#mask0_1518_28414)">
<path d="M35.3333 21.79C33.3499 20.94 33.0666 20.2033 33.0666 19.41C33.0666 18.56 33.6333 17.8233 34.3133 17.2C35.5033 16.1233 36.1266 14.65 36.1266 12.95C36.1266 9.77667 34.1433 7 30.5727 7C27.5133 7 25.6433 9.04 25.1333 11.6467C25.0766 11.8733 25.1899 12.1 25.3599 12.2133C27.9099 14.0267 29.4966 17.0867 29.4966 20.77C29.4966 23.32 28.6466 25.6439 27.0599 27.4C26.8333 27.6833 26.8899 28.1367 27.2866 28.3067C28.2499 28.7033 29.3833 29.27 30.5166 29.8939C30.8566 30.12 31.2533 30.2339 31.6499 30.2339H38.1666C39.7533 30.2339 40.9999 28.9872 40.9999 27.4572V27.0039C40.9999 24.4533 38.2233 23.0367 35.3333 21.79Z" fill="white"/>
<path d="M25.19 31.14C22.81 30.1772 22.47 29.27 22.47 28.3067C22.47 27.3439 23.15 26.4367 23.9433 25.7C25.3033 24.4533 26.0966 22.7533 26.0966 20.7133C26.0966 16.9733 23.7166 13.7433 19.5233 13.7433C15.33 13.7433 12.95 16.9733 12.95 20.7133C12.95 22.7533 13.6866 24.4533 15.1033 25.7C15.8966 26.38 16.5766 27.3433 16.5766 28.3067C16.5766 29.27 16.2366 30.12 13.8566 31.14C10.4 32.5567 7.11331 34.2 7.05664 37.2033V37.7133C7.05664 39.5267 8.58664 41 10.4566 41H19.58H28.5333C30.4033 41 31.9333 39.5267 31.9333 37.7133V37.2033C31.9333 34.2 28.6466 32.5567 25.19 31.14Z" fill="white"/>
</g>
</svg>
