<svg width="48" height="48" viewBox="0 0 48 48" fill="none" xmlns="http://www.w3.org/2000/svg">
<rect width="48" height="48" rx="4" fill="#7F93F9"/>
<mask id="mask0_1518_28468" style="mask-type:luminance" maskUnits="userSpaceOnUse" x="0" y="0" width="48" height="48">
<rect width="48" height="48" rx="4" fill="white"/>
</mask>
<g mask="url(#mask0_1518_28468)">
<path fill-rule="evenodd" clip-rule="evenodd" d="M40.8455 20.4969C40.8651 20.4379 40.8848 20.3939 40.9016 20.3563C40.9288 20.2955 40.9485 20.2515 40.9485 20.1878V20.0848V19.8787V19.8272V19.7757V19.5696V19.4666C40.9485 19.4408 40.9355 19.4151 40.9225 19.3893C40.9095 19.3636 40.8965 19.3378 40.8965 19.312C40.8965 19.2902 40.8965 19.2776 40.8925 19.2664C40.8871 19.2512 40.8746 19.2386 40.8449 19.209C40.8449 19.1585 40.7949 19.108 40.7449 19.0575L40.7419 19.0545C40.7419 19.0287 40.729 19.0158 40.7162 19.003C40.7033 18.9901 40.6904 18.9772 40.6904 18.9514L34.5086 10.1939C34.2515 9.83326 33.7879 9.57568 33.2727 9.57568H24H14.7273C14.2121 9.57568 13.7485 9.83326 13.4394 10.2454L7.25758 19.003C7.25758 19.0287 7.2447 19.0416 7.23182 19.0545C7.21894 19.0674 7.20606 19.0802 7.20606 19.106C7.1803 19.1317 7.16742 19.1575 7.15455 19.1833C7.14167 19.209 7.12879 19.2348 7.10303 19.2605C7.10303 19.2824 7.10303 19.295 7.09908 19.3062C7.09373 19.3214 7.08114 19.3339 7.05152 19.3636L7.05152 19.3636C7.05152 19.3893 7.03864 19.4151 7.02576 19.4408L7.02576 19.4408L7.02576 19.4408C7.01288 19.4666 7 19.4924 7 19.5181V19.6211V19.8272V19.8787V19.9302V20.1363V20.2393C7 20.3424 7.05152 20.4454 7.10303 20.4969V20.5484C7.12879 20.5742 7.14167 20.6128 7.15455 20.6514C7.16742 20.6901 7.1803 20.7287 7.20606 20.7545C7.20606 20.7802 7.21894 20.7931 7.23182 20.806C7.2447 20.8189 7.25758 20.8317 7.25758 20.8575L7.36061 20.9605L22.8152 37.9605L22.8667 38.0126L22.9182 38.0641L22.9697 38.1151C22.9697 38.1151 23.0212 38.1151 23.0212 38.1666C23.047 38.1666 23.0598 38.1795 23.0727 38.1924C23.0856 38.2052 23.0985 38.2181 23.1242 38.2181C23.1242 38.2181 23.1758 38.2181 23.1758 38.2701C23.1758 38.2701 23.2273 38.2701 23.2273 38.3217C23.2273 38.3217 23.2788 38.3217 23.2788 38.3737H23.3303H23.3818H23.4848H23.5364H23.5879H23.6394H23.8455H24.0515H24.103H24.1545H24.2061H24.3091H24.3606C24.3606 38.3737 24.4121 38.3737 24.4121 38.3217C24.4121 38.3217 24.4636 38.3217 24.4636 38.2701C24.4636 38.2701 24.5152 38.2701 24.5152 38.2181C24.5152 38.2181 24.5667 38.2181 24.5667 38.1666C24.5924 38.1666 24.6053 38.1537 24.6182 38.1408C24.6311 38.128 24.6439 38.1151 24.6697 38.1151C24.6697 38.1151 24.7212 38.1151 24.7212 38.063L24.7727 38.0115L24.8242 37.9595L24.8758 37.909L40.3303 20.909L40.4333 20.806C40.4333 20.7802 40.4462 20.7673 40.4591 20.7545C40.472 20.7416 40.4848 20.7287 40.4848 20.703C40.7939 20.6514 40.8455 20.5999 40.8455 20.4969ZM24 18.3333H21.5273L24 14.1605L26.4727 18.3333H24ZM27.0909 21.4242H24H20.9091L24 31.5727L27.0909 21.4242ZM26.6788 12.6666H30.5424L29.1 16.7878L26.6788 12.6666ZM17.4576 12.6666L18.9 16.7878L21.3212 12.6666H17.4576ZM17.7152 21.4242L20.5485 30.7484L12.0485 21.4242H17.7152ZM35.9515 21.4242H30.2848L27.4515 30.7484L35.9515 21.4242ZM36.4667 18.3333H31.8303L33.3758 13.9545L36.4667 18.3333ZM16.1697 18.3333L14.6242 13.9545L11.5333 18.3333H16.1697Z" fill="white"/>
</g>
</svg>
