<svg width="48" height="48" viewBox="0 0 48 48" fill="none" xmlns="http://www.w3.org/2000/svg">
<rect width="48" height="48" rx="4" fill="#F28B00"/>
<mask id="mask0_1518_28600" style="mask-type:luminance" maskUnits="userSpaceOnUse" x="0" y="0" width="48" height="48">
<rect width="48" height="48" rx="4" fill="white"/>
</mask>
<g mask="url(#mask0_1518_28600)">
<path d="M40.8023 21.9838L40.0116 20.7978L37.7107 21.7901C34.7376 17.0024 29.2937 13.4878 23.6125 13.4878C15.1797 13.4838 7.19763 21.2604 7.19763 29.4955V30.0015L7.23321 30.6736H11.2658L11.2144 30.0015C11.206 29.8395 11.206 29.6772 11.2144 29.5152C11.2144 22.8615 16.7769 17.4334 23.6165 17.4334C27.9414 17.4186 31.9656 19.6446 34.2514 23.3162L26.3721 26.7399C24.9501 25.558 22.9595 25.3401 21.3155 26.1864C20.2573 26.7099 19.4573 27.6411 19.0994 28.7662C18.7415 29.8913 18.8565 31.1136 19.4179 32.1522C20.6167 34.3255 23.326 35.1522 25.5339 34.0183C27.165 33.2029 28.1219 31.4638 27.9376 29.6497L35.2476 25.3008C35.7693 26.6461 36.0374 28.0763 36.0383 29.5192V30.0055L35.9869 30.6776H40.0195L40.0551 30.0055C40.0638 29.8369 40.0638 29.668 40.0551 29.4994C40.0246 27.3555 39.5111 25.2461 38.5527 23.328L40.8023 21.9838Z" fill="white"/>
</g>
</svg>
