<svg width="48" height="48" viewBox="0 0 48 48" fill="none" xmlns="http://www.w3.org/2000/svg">
<rect width="48" height="48" rx="4" fill="#904D4C"/>
<mask id="mask0_1518_28568" style="mask-type:luminance" maskUnits="userSpaceOnUse" x="0" y="0" width="48" height="48">
<rect width="48" height="48" rx="4" fill="white"/>
</mask>
<g mask="url(#mask0_1518_28568)">
<path d="M20.0426 24.0001H36.4852C36.9863 24.0001 37.4322 23.6657 37.5437 23.164L40.5535 12.5739C40.7771 11.8493 40.2197 11.1804 39.4951 11.1804H14.0787L13.6328 9.61978C13.4098 8.89519 12.741 8.39355 12.0164 8.39355H9.34098C8.44918 8.39355 7.61312 9.06241 7.55738 9.95421C7.50164 10.9018 8.28197 11.7378 9.22951 11.7378H10.7902L16.0295 29.4624C16.2525 30.187 16.8656 30.6886 17.6459 30.6886H37.0426C37.9344 30.6886 38.7705 30.0198 38.8257 29.128C38.882 28.1804 38.1011 27.3444 37.1535 27.3444H20.0984C19.3738 27.3444 18.7049 26.8427 18.5377 26.1739V26.1181C18.1475 25.0591 18.9836 24.0001 20.0426 24.0001Z" fill="white"/>
<path d="M20.3771 39.6065C21.9162 39.6065 23.164 38.3588 23.164 36.8196C23.164 35.2804 21.9162 34.0327 20.3771 34.0327C18.8379 34.0327 17.5902 35.2804 17.5902 36.8196C17.5902 38.3588 18.8379 39.6065 20.3771 39.6065Z" fill="white"/>
<path d="M33.754 39.6065C35.2932 39.6065 36.5409 38.3588 36.5409 36.8196C36.5409 35.2804 35.2932 34.0327 33.754 34.0327C32.2149 34.0327 30.9672 35.2804 30.9672 36.8196C30.9672 38.3588 32.2149 39.6065 33.754 39.6065Z" fill="white"/>
</g>
</svg>
