<svg width="48" height="48" viewBox="0 0 48 48" fill="none" xmlns="http://www.w3.org/2000/svg">
<rect width="48" height="48" rx="4" fill="#F6707B"/>
<mask id="mask0_1518_28550" style="mask-type:luminance" maskUnits="userSpaceOnUse" x="0" y="0" width="48" height="48">
<rect width="48" height="48" rx="4" fill="white"/>
</mask>
<g mask="url(#mask0_1518_28550)">
<path d="M38.1666 31.9331H9.8333C8.86997 31.9331 8.1333 32.6698 8.1333 33.6331C8.1333 34.5964 8.86997 35.3331 9.8333 35.3331H12.1L13.0633 40.1498C13.1766 40.6598 13.63 40.9998 14.14 40.9998H32.7833C33.2933 40.9998 33.7466 40.6598 33.86 40.1498L34.7666 35.3331H38.1666C39.13 35.3331 39.8666 34.5964 39.8666 33.6331C39.8666 32.6698 39.13 31.9331 38.1666 31.9331Z" fill="white"/>
<path d="M14.3666 28.5333H22.2999V25.36C21.6199 24.9633 21.1666 24.2267 21.1666 23.4333C21.1666 22.1867 22.1866 21.1667 23.4333 21.1667C24.6799 21.1667 25.6999 22.1867 25.6999 23.4333C25.6999 24.2833 25.2466 25.02 24.5666 25.36V28.5333H32.4999C33.1233 28.5333 33.6333 28.0233 33.6333 27.4V25.7C33.6333 22.2433 30.3466 21.0533 27.7399 19.9767C25.9833 19.24 25.6999 18.56 25.6999 17.88C25.6999 17.1433 26.2099 16.4633 26.7766 15.9533C27.7966 15.0467 28.4194 13.7433 28.4194 12.2133C28.4194 9.43667 26.606 7 23.4327 7C20.2594 7 18.446 9.43667 18.446 12.2133C18.446 13.7433 19.0127 14.99 20.0894 15.9533C20.656 16.4633 21.166 17.1433 21.166 17.88C21.166 18.6167 20.8827 19.24 19.126 19.9767C16.5199 21.0533 13.2333 22.4133 13.2333 25.7V27.4C13.2333 28.0233 13.7433 28.5333 14.3666 28.5333Z" fill="white"/>
</g>
</svg>
