<svg width="48" height="48" viewBox="0 0 48 48" fill="none" xmlns="http://www.w3.org/2000/svg">
<rect width="48" height="48" rx="4" fill="#D876E5"/>
<mask id="mask0_1518_28556" style="mask-type:luminance" maskUnits="userSpaceOnUse" x="0" y="0" width="48" height="48">
<rect width="48" height="48" rx="4" fill="white"/>
</mask>
<g mask="url(#mask0_1518_28556)">
<path fill-rule="evenodd" clip-rule="evenodd" d="M9.8333 7H38.1666C39.13 7 39.8666 7.73667 39.8666 8.7V35.9C39.8666 36.8633 39.13 37.6 38.1666 37.6H37.6V39.3C37.6 40.2633 36.8633 41 35.9 41H34.7666C33.8033 41 33.0666 40.2633 33.0666 39.3V37.6H14.9333V39.3C14.9333 40.2633 14.1966 41 13.2333 41H12.1C11.1366 41 10.4 40.2633 10.4 39.3V37.6H9.8333C8.86997 37.6 8.1333 36.8633 8.1333 35.9V8.7C8.1333 7.73667 8.86997 7 9.8333 7ZM11.5333 32.5C11.5333 33.4633 12.27 34.2 13.2333 34.2H34.7666C35.73 34.2 36.4666 33.4633 36.4666 32.5V12.1C36.4666 11.1367 35.73 10.4 34.7666 10.4H13.2333C12.27 10.4 11.5333 11.1367 11.5333 12.1V32.5Z" fill="white"/>
<path fill-rule="evenodd" clip-rule="evenodd" d="M16.0667 13.7998H31.9333C32.5567 13.7998 33.0667 14.3098 33.0667 14.9331V29.6665C33.0667 30.2898 32.5567 30.7998 31.9333 30.7998H16.0667C15.4433 30.7998 14.9333 30.2898 14.9333 29.6665V14.9331C14.9333 14.3098 15.4433 13.7998 16.0667 13.7998ZM24.5667 23.9998H29.27C30.12 23.9998 30.7433 23.1498 30.7433 22.2998C30.7433 21.4498 30.0633 20.5998 29.2133 20.5998H24.5667C24 19.4665 22.64 18.3331 21.0533 18.3331C18.9 18.3331 17.2 20.1465 17.2 22.2998C17.2 24.4531 18.9 26.2665 21.0533 26.2665C22.64 26.2665 23.9433 25.1331 24.5667 23.9998Z" fill="white"/>
</g>
</svg>
