<svg width="48" height="48" viewBox="0 0 48 48" fill="none" xmlns="http://www.w3.org/2000/svg">
<rect width="48" height="48" rx="4" fill="#6B92DC"/>
<mask id="mask0_1518_28506" style="mask-type:luminance" maskUnits="userSpaceOnUse" x="0" y="0" width="48" height="48">
<rect width="48" height="48" rx="4" fill="white"/>
</mask>
<g mask="url(#mask0_1518_28506)">
<path d="M39.3 34.7666H8.7C7.79333 34.7666 7 35.5033 7 36.4666C7 37.3733 7.73667 38.1666 8.7 38.1666H39.3C40.2067 38.1666 41 37.4299 41 36.4666C41 35.5033 40.2633 34.7666 39.3 34.7666Z" fill="white"/>
<path fill-rule="evenodd" clip-rule="evenodd" d="M9.26663 31.3666H28.5333V29.0999C28.5333 28.4766 29.0433 27.9666 29.6666 27.9666H35.3333C35.9566 27.9666 36.4666 28.4766 36.4666 29.0999V31.3666H38.7333C39.3566 31.3666 39.8666 30.8566 39.8666 30.2333V10.9666C39.8666 10.3433 39.3566 9.83325 38.7333 9.83325H9.26663C8.6433 9.83325 8.1333 10.3433 8.1333 10.9666V30.2333C8.1333 30.8566 8.6433 31.3666 9.26663 31.3666ZM14.3666 16.6333C14.3666 16.0099 14.8766 15.4999 15.5 15.4999H31.9333C32.5566 15.4999 33.0666 16.0099 33.0666 16.6333V17.7666C33.0666 18.3899 32.5566 18.8999 31.9333 18.8999H15.5C14.8766 18.8999 14.3666 18.3899 14.3666 17.7666V16.6333ZM15.5 22.2999C14.8766 22.2999 14.3666 22.8099 14.3666 23.4333V24.5666C14.3666 25.1899 14.8766 25.6999 15.5 25.6999H26.2666C26.89 25.6999 27.4 25.1899 27.4 24.5666V23.4333C27.4 22.8099 26.89 22.2999 26.2666 22.2999H15.5Z" fill="white"/>
</g>
</svg>
