<svg width="48" height="48" viewBox="0 0 48 48" fill="none" xmlns="http://www.w3.org/2000/svg">
<rect width="48" height="48" rx="4" fill="#ECB46C"/>
<mask id="mask0_1518_28390" style="mask-type:luminance" maskUnits="userSpaceOnUse" x="0" y="0" width="48" height="48">
<rect width="48" height="48" rx="4" fill="white"/>
</mask>
<g mask="url(#mask0_1518_28390)">
<path d="M24 17.2C20.26 17.2 17.2 20.26 17.2 24C17.2 27.74 20.26 30.8 24 30.8C27.74 30.8 30.8 27.74 30.8 24C30.8 20.26 27.74 17.2 24 17.2Z" fill="white"/>
<path fill-rule="evenodd" clip-rule="evenodd" d="M38.1547 21.3262C39.5689 22.1147 41 22.9125 41 24C41 25.0875 39.5689 25.8853 38.1547 26.6738C36.9897 27.3234 35.8361 27.9665 35.5033 28.76C35.1659 29.5906 35.5299 30.8966 35.8929 32.1991C36.3224 33.7402 36.7504 35.2762 36.0133 36.0133C35.2762 36.7504 33.7402 36.3224 32.1991 35.8929C30.8966 35.5299 29.5906 35.1659 28.76 35.5033C27.9665 35.8361 27.3234 36.9897 26.6738 38.1547C25.8853 39.5689 25.0875 41 24 41C22.9125 41 22.1147 39.5689 21.3262 38.1547C20.6766 36.9897 20.0335 35.8361 19.24 35.5033C18.4094 35.1659 17.1032 35.5298 15.8006 35.8928C14.2596 36.3221 12.7237 36.7501 11.9867 36.0133C11.2496 35.2762 11.6776 33.7402 12.1071 32.1991C12.4701 30.8966 12.8341 29.5906 12.4967 28.76C12.1639 27.9665 11.0103 27.3234 9.84529 26.6738C8.43106 25.8853 7 25.0875 7 24C7 22.9125 8.43106 22.1147 9.84529 21.3262C11.0103 20.6766 12.1639 20.0335 12.4967 19.24C12.8341 18.4094 12.4701 17.1034 12.1071 15.8009C11.6776 14.2598 11.2496 12.7238 11.9867 11.9867C12.7238 11.2496 14.2598 11.6776 15.8009 12.1071C17.1034 12.4701 18.4094 12.8341 19.24 12.4967C20.0335 12.1639 20.6766 11.0103 21.3262 9.84529C22.1147 8.43106 22.9125 7 24 7C25.0875 7 25.8853 8.43106 26.6738 9.84529C27.3234 11.0103 27.9665 12.1639 28.76 12.4967C29.5903 12.8341 30.8962 12.4701 32.1987 12.1072C33.7399 11.6777 35.2762 11.2496 36.0133 11.9867C36.7504 12.7238 36.3224 14.2598 35.8929 15.8009C35.5299 17.1034 35.1659 18.4094 35.5033 19.24C35.8361 20.0335 36.9897 20.6766 38.1547 21.3262ZM13.8 24C13.8 29.61 18.39 34.2 24 34.2C29.61 34.2 34.2 29.61 34.2 24C34.2 18.39 29.61 13.8 24 13.8C18.39 13.8 13.8 18.39 13.8 24Z" fill="white"/>
</g>
</svg>
