<svg width="48" height="48" viewBox="0 0 48 48" fill="none" xmlns="http://www.w3.org/2000/svg">
<rect width="48" height="48" rx="4" fill="#DB6D7A"/>
<mask id="mask0_1518_28534" style="mask-type:luminance" maskUnits="userSpaceOnUse" x="0" y="0" width="48" height="48">
<rect width="48" height="48" rx="4" fill="white"/>
</mask>
<g mask="url(#mask0_1518_28534)">
<path d="M23.9434 27.0033C23.7734 26.55 23.3201 26.21 22.8101 26.2667C22.6401 26.2667 22.4701 26.2667 22.3001 26.2667C16.0667 26.2667 10.9667 21.1667 10.9667 14.9333C10.9667 14.82 10.9667 14.7633 10.9667 14.65C10.9667 14.0833 10.2301 13.8567 9.94672 14.31C9.55005 14.8767 9.26672 15.5567 9.04005 16.2933C8.07672 19.5233 9.32339 23.0367 12.0434 25.02C13.2901 25.9272 14.5934 26.3233 15.9534 26.4939L16.3501 27.57C16.4067 27.74 16.5201 27.8533 16.6334 27.9106L18.3334 28.6472C18.6167 28.7606 18.7301 29.1006 18.6167 29.3839L18.0501 31.0272C17.9367 31.3106 18.1067 31.5939 18.3334 31.7067L19.2401 32.1033C19.5234 32.2167 19.6367 32.5567 19.5234 32.84L19.0134 34.5967C18.9567 34.88 19.0701 35.1633 19.2967 35.2767L20.6001 35.8433C20.8834 35.9561 20.9967 36.2967 20.8834 36.58L20.4301 38.3367C20.3734 38.62 20.4867 38.9033 20.7701 39.0167L24.6234 40.7733C24.9067 40.8867 25.2473 40.7733 25.3606 40.49L27.0606 36.6939C27.1734 36.4106 27.1734 36.1272 27.1173 35.8439L23.9434 27.0033Z" fill="white"/>
<path fill-rule="evenodd" clip-rule="evenodd" d="M29.9501 17.0301L38.9601 26.4367C39.1868 26.6067 39.3001 26.8901 39.3001 27.2862V31.4228C39.3001 31.7634 39.0734 31.9895 38.7334 31.9895H34.4834C34.2001 31.9895 33.9734 31.8195 33.9168 31.5362L33.6334 29.7228C33.6334 29.3828 33.4068 29.1562 33.0668 29.1562H31.6501C31.3668 29.1562 31.1401 28.9862 31.0834 28.7028L30.8001 26.8895C30.8001 26.5495 30.5734 26.3228 30.2334 26.3228H29.2701C28.9868 26.3228 28.7034 26.0967 28.7034 25.8134L28.5334 24.0567C28.5334 23.7167 28.3068 23.4901 27.9668 23.4901H26.0401C25.8701 23.4901 25.7568 23.4334 25.6434 23.3201L24.8501 22.4701C23.5468 22.9234 22.1301 23.0367 20.6568 22.7534C17.3134 22.0734 14.7634 19.2967 14.3668 15.8967C13.8568 10.9667 17.8234 6.83008 22.6968 7.05675C25.9268 7.22675 28.7034 9.43675 29.7801 12.4401C30.3468 14.0834 30.3468 15.6134 29.9501 17.0301ZM18.3334 13.8001C18.3334 15.3867 19.5801 16.6334 21.1668 16.6334C22.7534 16.6334 24.0001 15.3301 24.0001 13.8001C24.0001 12.2134 22.7534 10.9667 21.1668 10.9667C19.5801 10.9667 18.3334 12.2134 18.3334 13.8001Z" fill="white"/>
</g>
</svg>
