<svg width="48" height="48" viewBox="0 0 48 48" fill="none" xmlns="http://www.w3.org/2000/svg">
<rect width="48" height="48" rx="4" fill="#DF6184"/>
<mask id="mask0_1518_28410" style="mask-type:luminance" maskUnits="userSpaceOnUse" x="0" y="0" width="48" height="48">
<rect width="48" height="48" rx="4" fill="white"/>
</mask>
<g mask="url(#mask0_1518_28410)">
<path d="M37.6 8.13336H10.4C8.53 8.13336 7 9.66336 7 11.5334V14.9334C7 15.5567 7.51 16.0667 8.13333 16.0667H39.8667C40.49 16.0667 41 15.5567 41 14.9334V11.5334C41 9.66336 39.47 8.13336 37.6 8.13336Z" fill="white"/>
<path fill-rule="evenodd" clip-rule="evenodd" d="M10.4001 19.4667H37.6001C38.2234 19.4667 38.7334 19.9767 38.7334 20.6V36.4667C38.7334 38.3367 37.2034 39.8667 35.3334 39.8667H12.6667C10.7967 39.8667 9.26672 38.3367 9.26672 36.4667V20.6C9.26672 19.9767 9.77672 19.4667 10.4001 19.4667ZM28.5334 26.2667C29.4967 26.2667 30.2334 25.4733 30.2334 24.5667C30.2334 23.6033 29.4967 22.8667 28.5334 22.8667H19.4667C18.5034 22.8667 17.7667 23.66 17.7667 24.5667C17.7667 25.53 18.5601 26.2667 19.4667 26.2667H28.5334Z" fill="white"/>
</g>
</svg>
