<svg width="48" height="48" viewBox="0 0 48 48" fill="none" xmlns="http://www.w3.org/2000/svg">
<rect width="48" height="48" rx="4" fill="#5A9CDD"/>
<mask id="mask0_1518_28496" style="mask-type:luminance" maskUnits="userSpaceOnUse" x="0" y="0" width="48" height="48">
<rect width="48" height="48" rx="4" fill="white"/>
</mask>
<g mask="url(#mask0_1518_28496)">
<path d="M25.7288 25.7866V39.8476C25.7288 40.3086 26.1898 40.5391 26.5932 40.3662C29.3593 38.8103 37.7728 34.0272 37.7728 34.0272C38.8677 33.3933 39.5593 32.2408 39.5593 30.973V18.3527C39.5593 17.8916 39.0983 17.6611 38.6949 17.834L26.305 24.8069C25.9593 25.0374 25.7288 25.3832 25.7288 25.7866Z" fill="white"/>
<path d="M24.5762 21.8678L37.0237 14.8949C37.4271 14.6644 37.4271 14.1458 37.0237 13.9152C34.2576 12.3593 25.7864 7.51864 25.7864 7.51864C24.6921 6.88474 23.3085 6.88474 22.2135 7.51864C22.2135 7.51864 13.7424 12.3017 10.9762 13.9152C10.5729 14.1458 10.5729 14.6644 10.9762 14.8949L23.4237 21.8678C23.7695 22.0407 24.2305 22.0407 24.5762 21.8678Z" fill="white"/>
<path d="M21.6949 24.8067L9.30508 17.8338C8.90169 17.6033 8.44067 17.8914 8.44067 18.3525V30.9152C8.44067 32.183 9.1322 33.3355 10.2271 33.9694C10.2271 33.9694 18.6407 38.7525 21.4068 40.3084C21.8102 40.5389 22.2712 40.2508 22.2712 39.7903V25.7864C22.2712 25.383 22.0407 25.0372 21.6949 24.8067Z" fill="white"/>
</g>
</svg>
