<svg width="48" height="48" viewBox="0 0 48 48" fill="none" xmlns="http://www.w3.org/2000/svg">
<rect width="48" height="48" rx="4" fill="#E1D951"/>
<mask id="mask0_1518_28392" style="mask-type:luminance" maskUnits="userSpaceOnUse" x="0" y="0" width="48" height="48">
<rect width="48" height="48" rx="4" fill="white"/>
</mask>
<g mask="url(#mask0_1518_28392)">
<path d="M10.9484 14.5129L22.3549 7.9871C23.3968 7.38388 24.713 7.38388 25.7549 7.9871L37.1065 14.5129C38.1479 15.1161 38.8065 16.2677 38.8065 17.4742V30.5258C38.8065 31.7317 38.2033 32.8839 37.1065 33.4866L25.7549 40.0129C24.713 40.6161 23.3968 40.6161 22.3549 40.0129L10.9484 33.4871C9.90651 32.8839 9.1936 31.7323 9.1936 30.5258V17.4742C9.1936 16.2677 9.90651 15.1161 10.9484 14.5129Z" fill="white"/>
</g>
</svg>
