<svg width="48" height="48" viewBox="0 0 48 48" fill="none" xmlns="http://www.w3.org/2000/svg">
<rect width="48" height="48" rx="4" fill="#8784EA"/>
<mask id="mask0_1518_28406" style="mask-type:luminance" maskUnits="userSpaceOnUse" x="0" y="0" width="48" height="48">
<rect width="48" height="48" rx="4" fill="white"/>
</mask>
<g mask="url(#mask0_1518_28406)">
<path d="M25.4807 8.31612L29.8678 17.5839L39.5742 19.0645C40.671 19.229 41.1097 20.6548 40.2871 21.4226L33.2678 28.6613L34.913 38.8064C35.0775 39.9581 33.9807 40.8355 32.9936 40.2871L24.2742 35.4613L15.5549 40.2871C14.5678 40.8355 13.4162 39.9575 13.6355 38.8064L15.2807 28.6613L8.2065 21.4226C7.43876 20.6 7.87747 19.229 8.9194 19.0645L18.6807 17.5839L23.0678 8.31612C23.5613 7.27418 24.9871 7.27418 25.4807 8.31612Z" fill="white"/>
</g>
</svg>
