<svg width="48" height="48" viewBox="0 0 48 48" fill="none" xmlns="http://www.w3.org/2000/svg">
<rect width="48" height="48" rx="4" fill="#BDD25F"/>
<mask id="mask0_1518_28440" style="mask-type:luminance" maskUnits="userSpaceOnUse" x="0" y="0" width="48" height="48">
<rect width="48" height="48" rx="4" fill="white"/>
</mask>
<g mask="url(#mask0_1518_28440)">
<path d="M37.5434 11.5333H36.5234C35.8434 11.5333 35.3334 12.1 35.3334 12.78V35.3333C35.3334 35.39 35.3334 35.5033 35.39 35.56L36.8067 37.5433C36.92 37.6561 37.09 37.6561 37.2606 37.5433L38.6773 35.56C38.7334 35.5033 38.7334 35.4467 38.7334 35.3333V12.78C38.7334 12.1 38.2234 11.5333 37.5434 11.5333Z" fill="white"/>
<path fill-rule="evenodd" clip-rule="evenodd" d="M28.5334 7H12.6667C10.7967 7 9.26672 8.53 9.26672 10.4V37.6C9.26672 39.47 10.7967 41 12.6667 41H28.5334C30.4034 41 31.9334 39.47 31.9334 37.6V10.4C31.9334 8.53 30.4034 7 28.5334 7ZM20.6001 39.8667C19.6367 39.8667 18.9001 39.13 18.9001 38.1667C18.9001 37.2033 19.6367 36.4667 20.6001 36.4667C21.5634 36.4667 22.3001 37.2033 22.3001 38.1667C22.3001 39.13 21.5634 39.8667 20.6001 39.8667ZM27.4001 35.3333C28.0234 35.3333 28.5334 34.8233 28.5334 34.2V12.6667C28.5334 12.0433 28.0234 11.5333 27.4001 11.5333H13.8001C13.1767 11.5333 12.6667 12.0433 12.6667 12.6667V34.2C12.6667 34.8233 13.1767 35.3333 13.8001 35.3333H27.4001Z" fill="white"/>
</g>
</svg>
