<svg width="48" height="48" viewBox="0 0 48 48" fill="none" xmlns="http://www.w3.org/2000/svg">
<rect width="48" height="48" rx="4" fill="#BF5A88"/>
<mask id="mask0_1518_28502" style="mask-type:luminance" maskUnits="userSpaceOnUse" x="0" y="0" width="48" height="48">
<rect width="48" height="48" rx="4" fill="white"/>
</mask>
<g mask="url(#mask0_1518_28502)">
<path d="M40.4516 21.4225C39.1355 13.5806 32.2807 7.54834 24 7.54834C15.7194 7.54834 8.86452 13.5806 7.54839 21.4225C7.43872 21.9161 8.04194 22.3 8.42581 21.9709C9.24839 21.258 10.2903 20.8741 11.4968 20.8741C13.0323 20.8741 14.3484 21.587 15.2258 22.6838C15.4452 22.958 15.8839 22.958 16.1032 22.6838C16.9807 21.587 18.2968 20.8741 19.8323 20.8741C21.3677 20.8741 22.6839 21.587 23.5613 22.6838C23.7807 22.958 24.2194 22.958 24.4387 22.6838C25.3167 21.587 26.6323 20.8741 28.1677 20.8741C29.7038 20.8741 31.0194 21.587 31.8973 22.6838C32.1161 22.958 32.5548 22.958 32.7747 22.6838C33.6522 21.587 34.9683 20.8741 36.5038 20.8741C37.6559 20.8741 38.7527 21.3129 39.5753 21.9709C39.9581 22.3 40.5065 21.9709 40.4516 21.4225Z" fill="white"/>
<path d="M30.5807 33.871C29.6484 33.871 28.9355 34.5839 28.9355 35.5162C28.9355 36.4484 28.2226 37.1613 27.2903 37.1613C26.3581 37.1613 25.6452 36.4484 25.6452 35.5162V27.8388C25.6452 26.9065 24.9323 26.1936 24 26.1936C23.0678 26.1936 22.3549 26.9065 22.3549 27.8388V35.5162C22.3549 38.2581 24.5484 40.4517 27.2903 40.4517C30.0323 40.4517 32.2258 38.2581 32.2258 35.5162C32.2258 34.5839 31.5129 33.871 30.5807 33.871Z" fill="white"/>
</g>
</svg>
