<svg width="48" height="48" viewBox="0 0 48 48" fill="none" xmlns="http://www.w3.org/2000/svg">
<rect width="48" height="48" rx="4" fill="#DD6085"/>
<mask id="mask0_1518_28576" style="mask-type:luminance" maskUnits="userSpaceOnUse" x="0" y="0" width="48" height="48">
<rect width="48" height="48" rx="4" fill="white"/>
</mask>
<g mask="url(#mask0_1518_28576)">
<path fill-rule="evenodd" clip-rule="evenodd" d="M29.8438 12.8969V26.3375C31.5438 27.9312 32.5 30.1094 32.5 32.5C32.5 37.175 28.675 41 24 41C19.325 41 15.5 37.175 15.5 32.5C15.5 30.162 16.4562 27.9312 18.1562 26.3375V12.8969C18.1562 9.60312 20.7062 7 23.9469 7H24.0531C27.2938 7 29.8438 9.60312 29.8438 12.8969ZM19.5375 32.5H28.4625C28.9406 32.5 29.3125 32.0219 29.1531 31.5438C28.9401 30.3219 28.2495 29.1531 27.2401 28.3563C26.8687 28.0375 26.6562 27.6656 26.6031 27.1875H25.0094C24.1062 27.1875 23.4156 26.4969 23.4156 25.5938C23.4156 24.6906 24.1062 24 25.0094 24H26.6031V21.875H25.0094C24.1062 21.875 23.4156 21.1844 23.4156 20.2812C23.4156 19.3781 24.1062 18.6875 25.0094 18.6875H26.6031V16.5625H25.0094C24.1062 16.5625 23.4156 15.8719 23.4156 14.9688C23.4156 14.0656 24.1062 13.375 25.0094 13.375H26.6031V12.8969C26.6031 11.3562 25.4875 10.1875 24 10.1875H23.8937C22.4594 10.1875 21.2906 11.3562 21.2906 12.8969V27.0812C21.2906 27.5594 21.025 28.037 20.6531 28.3563C19.6438 29.1531 18.9531 30.2688 18.7406 31.5438C18.6875 32.0219 19.0594 32.5 19.5375 32.5Z" fill="white"/>
</g>
</svg>
