<svg width="48" height="48" viewBox="0 0 48 48" fill="none" xmlns="http://www.w3.org/2000/svg">
<rect width="48" height="48" rx="4" fill="#F28B00"/>
<mask id="mask0_1518_28588" style="mask-type:luminance" maskUnits="userSpaceOnUse" x="0" y="0" width="48" height="48">
<rect width="48" height="48" rx="4" fill="white"/>
</mask>
<g mask="url(#mask0_1518_28588)">
<path fill-rule="evenodd" clip-rule="evenodd" d="M31.2221 28.4734C31.705 28.7578 32.1314 29.0088 32.5074 29.1832V29.2017C35.3346 30.5358 35.3346 31.9919 35.3346 31.9919V34.4532H12.647V31.9956C12.647 31.9956 12.647 30.5395 15.4742 29.2201C15.849 29.0443 16.2713 28.7945 16.7483 28.5124C18.0161 27.7624 19.6703 26.784 21.8455 26.3597C21.0768 25.4912 20.5076 24.1386 19.9052 22.5162C19.6097 21.7076 19.6138 20.9903 19.6192 20.056C19.6199 19.927 19.6207 19.7939 19.6207 19.6558C19.6207 19.4083 19.6075 19.1178 19.5936 18.8126C19.5606 18.0832 19.5237 17.2702 19.6539 16.7621C20.3118 14.2527 21.9896 13.5469 23.9631 13.5469C25.9365 13.5469 27.607 14.2343 28.2759 16.7251C28.4217 17.2526 28.385 18.0899 28.3525 18.8294C28.3398 19.121 28.3276 19.3974 28.3276 19.6336C28.3276 19.8203 28.3299 19.9975 28.3321 20.1674C28.3433 21.034 28.352 21.7124 28.0431 22.494C27.4407 24.1054 26.8568 25.4543 26.0881 26.3227C28.2713 26.7358 29.9445 27.7211 31.2221 28.4734ZM15.0048 28.0745C15.3226 27.923 15.7255 27.7049 16.1763 27.424C17.0964 26.8601 18.0575 26.3659 19.0515 25.9458C18.1805 25.4386 17.2333 25.0755 16.2465 24.8704C16.7639 24.2864 17.1483 23.3921 17.5511 22.313C17.74 21.6961 17.8078 21.0486 17.7507 20.406C17.7507 20.2508 17.7586 20.0675 17.767 19.8731C17.7884 19.3774 17.813 18.8093 17.7174 18.451C17.2665 16.7806 16.1468 16.326 14.8422 16.326C13.5376 16.326 12.4031 16.7954 11.967 18.451C11.856 18.8057 11.8798 19.3844 11.9005 19.8865V19.8865V19.8866C11.9081 20.0699 11.9152 20.243 11.9152 20.3912C11.8593 21.0387 11.9271 21.6908 12.1148 22.313C12.5176 23.3995 12.902 24.3012 13.4194 24.8704C11.9816 25.1376 10.8839 25.7914 10.0383 26.295C9.71459 26.4878 9.42783 26.6586 9.17307 26.7773C7.28459 27.6643 7.26611 28.6251 7.26611 28.6251V30.2623H12.1296C12.8931 29.3073 13.8808 28.5558 15.0048 28.0745ZM38.8122 26.7773C38.566 26.6606 38.2889 26.4964 37.9765 26.3112C37.1214 25.8043 36.0025 25.141 34.5326 24.8704C35.05 24.2864 35.4344 23.3921 35.8372 22.313C36.0261 21.6961 36.0939 21.0486 36.0368 20.406C36.0368 20.2509 36.0447 20.0675 36.0531 19.8731V19.873V19.873C36.0745 19.3774 36.0991 18.8093 36.0035 18.451C35.5526 16.7806 34.4329 16.326 33.1283 16.326C31.8237 16.326 30.6855 16.7954 30.2531 18.4658C30.1577 18.8129 30.182 19.3748 30.2034 19.8693C30.2118 20.0645 30.2198 20.2491 30.2198 20.406C30.1639 21.0534 30.2316 21.7056 30.4194 22.3277C30.8222 23.4143 31.2065 24.316 31.7239 24.8851C30.7537 25.0932 29.823 25.455 28.967 25.9569C29.9549 26.3799 30.9109 26.8739 31.8274 27.4351C32.2783 27.7012 32.6811 27.9377 32.9989 28.0856C34.5363 28.8062 35.39 29.5897 35.8926 30.303H40.7339V28.6473C40.7339 28.6473 40.7007 27.6606 38.8122 26.7736V26.7773Z" fill="white"/>
</g>
</svg>
