<svg width="48" height="48" viewBox="0 0 48 48" fill="none" xmlns="http://www.w3.org/2000/svg">
<rect width="48" height="48" rx="4" fill="#B55D5B"/>
<mask id="mask0_1518_28536" style="mask-type:luminance" maskUnits="userSpaceOnUse" x="0" y="0" width="48" height="48">
<rect width="48" height="48" rx="4" fill="white"/>
</mask>
<g mask="url(#mask0_1518_28536)">
<path d="M13.5167 19.4667H15.7834C16.1234 19.4667 16.3501 19.24 16.3501 18.9V18.05C16.3501 13.7433 19.5801 10.4 23.7167 10.4C27.8534 10.4 31.0834 13.7433 31.0834 18.05V18.9C31.0834 19.24 31.3101 19.4667 31.6501 19.4667H33.9167C34.2567 19.4667 34.4834 19.24 34.4834 18.9V18.05C34.4834 11.8733 29.7801 7 23.7167 7C17.6534 7 12.9501 11.8733 12.9501 18.05V18.9C12.9501 19.24 13.1767 19.4667 13.5167 19.4667Z" fill="white"/>
<path fill-rule="evenodd" clip-rule="evenodd" d="M12.95 22.8667H35.05C36.92 22.8667 38.45 24.3967 38.45 26.2667V37.6C38.45 39.47 36.92 41 35.05 41H12.95C11.08 41 9.55005 39.47 9.55005 37.6V26.2667C9.55005 24.3967 11.08 22.8667 12.95 22.8667ZM26.1534 34.5973C25.9273 33.69 26.2106 32.7834 26.72 31.99C27.06 31.4234 27.2867 30.8 27.2867 30.0634C27.2867 27.9667 25.3034 26.2667 22.98 26.72C21.5634 27.0034 20.43 28.0806 20.1467 29.44C19.9767 30.3473 20.2034 31.2534 20.7134 31.99C21.2234 32.7273 21.5067 33.6334 21.28 34.54L20.8834 36.2973C20.77 36.9206 21.2234 37.6006 21.9034 37.6006H25.53C26.21 37.6006 26.6634 36.9206 26.55 36.2973L26.1534 34.5973Z" fill="white"/>
</g>
</svg>
