<svg width="48" height="48" viewBox="0 0 48 48" fill="none" xmlns="http://www.w3.org/2000/svg">
<rect width="48" height="48" rx="4" fill="#517E82"/>
<mask id="mask0_1518_28566" style="mask-type:luminance" maskUnits="userSpaceOnUse" x="0" y="0" width="48" height="48">
<rect width="48" height="48" rx="4" fill="white"/>
</mask>
<g mask="url(#mask0_1518_28566)">
<path fill-rule="evenodd" clip-rule="evenodd" d="M37.7134 27.6268L24.7934 21.7335C24.4528 21.5635 24.1134 21.5635 23.7734 21.7335L10.8534 27.6268C10.1167 27.9668 9.89004 28.8168 10.3434 29.4968C11.7034 31.4229 12.5534 33.9168 12.8934 35.0501C13.0067 35.5035 13.4034 35.7868 13.8 35.9001C18.2767 36.9768 21.96 39.5268 23.49 40.7168C23.9434 41.0568 24.5667 41.0568 25.02 40.7168C26.55 39.5268 30.29 36.9768 34.71 35.9001C35.1634 35.7868 35.5028 35.5035 35.6167 35.0501C35.9567 33.8601 36.8067 31.3668 38.1667 29.4968C38.6767 28.8735 38.45 27.9668 37.7134 27.6268ZM20.8834 30.8001C19.92 30.8001 19.1834 29.7801 19.1834 28.5335C19.1834 27.2868 19.92 26.2668 20.8834 26.2668C21.8467 26.2668 22.5834 27.2868 22.5834 28.5335C22.5834 29.7801 21.8467 30.8001 20.8834 30.8001ZM25.9834 28.5335C25.9834 29.7801 26.72 30.8001 27.6834 30.8001C28.6467 30.8001 29.3834 29.7801 29.3834 28.5335C29.3834 27.2868 28.6467 26.2668 27.6834 26.2668C26.72 26.2668 25.9834 27.2868 25.9834 28.5335Z" fill="white"/>
<path d="M15.4434 21.79L22.3567 18.6167C23.2067 18.22 24.1134 18.1067 25.0767 18.2767C25.4728 18.3333 25.8695 18.5033 26.2667 18.6733L33.1234 21.8467C33.52 22.0167 33.9167 21.7333 33.9167 21.3367V18.7867C33.9167 18.5033 33.8034 18.22 33.5767 17.9933C33.1234 17.4833 32.2167 16.6333 30.5167 16.6333V13.29C30.5167 12.8933 30.29 12.4967 29.95 12.3267C29.3267 11.9867 28.25 11.4767 26.55 11.1933V8.13333C26.55 7.51 26.04 7 25.4167 7H23.15C22.5267 7 22.0167 7.51 22.0167 8.13333V11.1933C20.3167 11.4767 19.24 11.9867 18.6167 12.3267C18.2767 12.4967 18.05 12.8933 18.05 13.29V16.6333C16.35 16.6333 15.4434 17.4833 14.99 17.9367C14.7634 18.1633 14.65 18.4467 14.65 18.73V21.28C14.65 21.6767 15.0467 21.96 15.4434 21.79Z" fill="white"/>
</g>
</svg>
