<svg width="48" height="48" viewBox="0 0 48 48" fill="none" xmlns="http://www.w3.org/2000/svg">
<rect width="48" height="48" rx="4" fill="#38C393"/>
<mask id="mask0_1518_28446" style="mask-type:luminance" maskUnits="userSpaceOnUse" x="0" y="0" width="48" height="48">
<rect width="48" height="48" rx="4" fill="white"/>
</mask>
<g mask="url(#mask0_1518_28446)">
<path fill-rule="evenodd" clip-rule="evenodd" d="M40.15 15.67L26.89 23.2067C26.6067 23.3767 26.3233 23.4333 26.04 23.4333C25.4167 23.4333 24.7939 23.0933 24.5106 22.47C24.1139 21.6767 24.5106 20.6567 25.3033 20.2033L29.7233 17.71V13.3467C29.7233 12.8933 29.27 12.6667 28.8733 12.8367L12.7233 22.0733C12.44 22.2433 12.1567 22.3 11.8733 22.3C11.3067 22.3 10.6833 22.0167 10.4 21.45C9.94667 20.6567 10.23 19.58 11.0233 19.1267L13.8 17.54V8.13333C13.8 7.51 13.29 7 12.6667 7H8.13333C7.51 7 7 7.51 7 8.13333V37.6C7 39.47 8.53 41 10.4 41H13.8H20.0333C20.6567 41 21.1667 40.49 21.1667 39.8667V35.9C21.1667 35.2767 21.6767 34.7667 22.3 34.7667H25.7C26.3233 34.7667 26.8333 35.2767 26.8333 35.9V39.8667C26.8333 40.49 27.3433 41 27.9667 41H37.6C39.47 41 41 39.47 41 37.6V18.73V16.18C41 15.7267 40.5467 15.4433 40.15 15.67ZM15.5 31.3667C15.5 31.99 14.99 32.5 14.3667 32.5H13.2333C12.61 32.5 12.1 31.99 12.1 31.3667V27.9667C12.1 27.3433 12.61 26.8333 13.2333 26.8333H14.3667C14.99 26.8333 15.5 27.3433 15.5 27.9667V31.3667ZM21.1667 32.5C21.79 32.5 22.3 31.99 22.3 31.3667V27.9667C22.3 27.3433 21.79 26.8333 21.1667 26.8333H20.0333C19.41 26.8333 18.9 27.3433 18.9 27.9667V31.3667C18.9 31.99 19.41 32.5 20.0333 32.5H21.1667ZM29.1 31.3667C29.1 31.99 28.59 32.5 27.9667 32.5H26.8333C26.21 32.5 25.7 31.99 25.7 31.3667V27.9667C25.7 27.3433 26.21 26.8333 26.8333 26.8333H27.9667C28.59 26.8333 29.1 27.3433 29.1 27.9667V31.3667ZM34.7667 32.5C35.39 32.5 35.9 31.99 35.9 31.3667V27.9667C35.9 27.3433 35.39 26.8333 34.7667 26.8333H33.6333C33.01 26.8333 32.5 27.3433 32.5 27.9667V31.3667C32.5 31.99 33.01 32.5 33.6333 32.5H34.7667Z" fill="white"/>
</g>
</svg>
