<svg width="48" height="48" viewBox="0 0 48 48" fill="none" xmlns="http://www.w3.org/2000/svg">
<rect width="48" height="48" rx="4" fill="#97CF5D"/>
<mask id="mask0_1518_28448" style="mask-type:luminance" maskUnits="userSpaceOnUse" x="0" y="0" width="48" height="48">
<rect width="48" height="48" rx="4" fill="white"/>
</mask>
<g mask="url(#mask0_1518_28448)">
<path fill-rule="evenodd" clip-rule="evenodd" d="M16.5625 19.2188H31.9688C32.5531 19.2188 33.0312 19.6969 33.0312 20.2812V24.5312C33.0312 25.1156 32.5531 25.5938 31.9688 25.5938H16.5625C15.9781 25.5938 15.5 25.1156 15.5 24.5312V20.2812C15.5 19.6969 15.9781 19.2188 16.5625 19.2188ZM22.9375 22.4062C22.9375 23.3094 23.6281 24 24.5312 24C25.4344 24 26.125 23.3094 26.125 22.4062C26.125 21.5031 25.4344 20.8125 24.5312 20.8125C23.6281 20.8125 22.9375 21.5031 22.9375 22.4062Z" fill="white"/>
<path d="M39.9375 11.7812H8.0625C7.47812 11.7812 7 12.2594 7 12.8438V13.9062C7 15.075 7.95625 16.0312 9.125 16.0312V35.1562C9.125 35.7406 9.60313 36.2188 10.1875 36.2188H11.25C11.8344 36.2188 12.3125 35.7406 12.3125 35.1562V16.0312H36.2188V35.1562C36.2188 35.7406 36.6969 36.2188 37.2812 36.2188H38.3438C38.9281 36.2188 39.4062 35.7406 39.4062 35.1562V16.0312H38.875C40.0438 16.0312 41 15.075 41 13.9062V12.8438C41 12.2594 40.5219 11.7812 39.9375 11.7812Z" fill="white"/>
</g>
</svg>
