<svg width="48" height="48" viewBox="0 0 48 48" fill="none" xmlns="http://www.w3.org/2000/svg">
<rect width="48" height="48" rx="4" fill="#41C8A0"/>
<mask id="mask0_1518_28530" style="mask-type:luminance" maskUnits="userSpaceOnUse" x="0" y="0" width="48" height="48">
<rect width="48" height="48" rx="4" fill="white"/>
</mask>
<g mask="url(#mask0_1518_28530)">
<path d="M26.8333 37.0332H21.1667C20.5433 37.0332 20.0333 37.5432 20.0333 38.1665V39.8665C20.0333 40.4899 20.5433 40.9999 21.1667 40.9999H26.8333C27.4567 40.9999 27.9667 40.4899 27.9667 39.8665V38.1665C27.9667 37.5432 27.4567 37.0332 26.8333 37.0332Z" fill="white"/>
<path fill-rule="evenodd" clip-rule="evenodd" d="M11.5333 18.9C11.5333 12.3267 17.0867 7 24 7C30.9133 7 36.4667 12.3267 36.4667 18.9C36.4667 23.15 34.1433 26.89 30.6867 28.9867C29.3272 29.78 28.42 31.14 28.1367 32.67C28.0233 33.1806 27.57 33.5772 27.0033 33.5772H21.11C20.5433 33.5772 20.09 33.18 19.9767 32.67C19.6933 31.14 18.7867 29.78 17.4267 28.9867C13.8567 26.89 11.5333 23.15 11.5333 18.9ZM18.3333 19.07C18.39 17.03 19.0133 14.48 20.1467 12.3267C20.3733 11.8733 19.92 11.3633 19.4667 11.5333C13.8 13.46 13.46 23.2633 18.6733 25.9272C19.1833 26.1533 19.6933 25.7 19.4667 25.19C18.73 23.2067 18.3333 21.1667 18.3333 19.07ZM24.51 25.8133C24.3394 26.2667 23.66 26.2667 23.49 25.8133C22.5833 23.6033 22.3567 20.9967 22.3 18.6167C22.3567 16.2367 22.5833 13.63 23.49 11.42C23.66 10.9667 24.34 10.9667 24.51 11.42C25.4167 13.63 25.6433 16.2367 25.7 18.6167C25.6433 20.9967 25.4167 23.6033 24.51 25.8133ZM28.3067 25.19C28.1367 25.7 28.6467 26.1533 29.1 25.9267C34.37 23.2633 34.03 13.46 28.3639 11.5339C27.9106 11.3639 27.4572 11.8739 27.6839 12.3272C28.8172 14.4239 29.44 16.9172 29.4972 18.7306C29.44 20.8833 29.1 23.15 28.3067 25.19Z" fill="white"/>
</g>
</svg>
