<svg width="26" height="26" viewBox="0 0 26 26" fill="none" xmlns="http://www.w3.org/2000/svg">
<path fill-rule="evenodd" clip-rule="evenodd" d="M22.25 20H3.75C3.35 20 3 20.35 3 20.75V22.25C3 22.65 3.35 23 3.75 23H22.25C22.65 23 23 22.65 23 22.25V20.75C23 20.35 22.65 20 22.25 20ZM12.65 18C8.9 17.8 6 14.55 6 10.8V4C6 3.45 6.45 3 7 3H8C8.55 3 9 3.45 9 4V10.85C9 13 10.6 14.85 12.75 15C15.1 15.15 17 13.3 17 11V4C17 3.45 17.45 3 18 3H19C19.55 3 20 3.45 20 4V11C20 15 16.65 18.2 12.65 18Z" fill="#706E6B"/>
</svg>
