<svg width="26" height="26" viewBox="0 0 26 26" fill="none" xmlns="http://www.w3.org/2000/svg">
<path fill-rule="evenodd" clip-rule="evenodd" d="M24.25 15.525H22.75C22.35 15.525 22 15.925 22 16.275V21.275C22 21.675 21.65 22.025 21.25 22.025H4.75C4.35 22.025 4 21.675 4 21.275V16.275C4 15.925 3.65 15.525 3.25 15.525H1.75C1.35 15.525 1 15.925 1 16.275V23.025C1 24.125 1.9 25.025 3 25.025H23C24.1 25.025 25 24.125 25 23.025V16.275C25 15.925 24.65 15.525 24.25 15.525ZM13.5 1.225C13.2 0.925 12.75 0.925 12.45 1.225L5.7 7.975C5.4 8.275 5.4 8.725 5.7 9.025L6.75 10.075C7.05 10.375 7.5 10.375 7.8 10.075L10.6 7.275C10.9 6.975 11.5 7.175 11.5 7.625V18.225C11.5 18.625 11.8 18.975 12.2 18.975H13.7C14.1 18.975 14.5 18.575 14.5 18.225V7.675C14.5 7.225 15 7.025 15.35 7.325L18.15 10.125C18.45 10.425 18.9 10.425 19.2 10.125L20.25 9.075C20.55 8.775 20.55 8.325 20.25 8.025L13.5 1.225Z" fill="#706E6B"/>
</svg>
