<svg width="26" height="26" viewBox="0 0 26 26" fill="none" xmlns="http://www.w3.org/2000/svg">
<path fill-rule="evenodd" clip-rule="evenodd" d="M10.9722 18.0015C10.9722 16.6515 11.4222 15.1015 12.1222 13.9015C12.9722 12.4015 13.9222 11.8015 14.6722 10.7015C15.9222 8.8515 16.1722 6.2015 15.3722 4.2015C14.5722 2.1515 12.6722 0.951503 10.4722 1.0015C8.27222 1.0515 6.47222 2.4015 5.77222 4.4515C4.97222 6.7015 5.32222 9.4015 7.12222 11.1015C7.87222 11.8015 8.57222 12.9015 8.17222 13.9515C7.82222 14.9515 6.62222 15.4015 5.77222 15.8015C3.82222 16.6515 1.47222 17.8515 1.07222 20.1515C0.672217 22.0515 1.97222 24.0015 4.02222 24.0015H12.5222C12.9222 24.0015 13.1722 23.5015 12.9222 23.2015C11.6722 21.7515 10.9722 19.9015 10.9722 18.0015ZM18.9722 12.0015C15.6722 12.0015 12.9722 14.7015 12.9722 18.0015C12.9722 21.3015 15.6722 24.0015 18.9722 24.0015C22.2722 24.0015 24.9722 21.3015 24.9722 18.0015C24.9722 14.7015 22.2722 12.0015 18.9722 12.0015ZM20.0222 18.5515C19.8722 18.5515 19.6722 18.5015 19.5222 18.4515L17.2222 20.7515C17.0722 20.9015 16.8722 20.9515 16.7222 20.9515C16.5222 20.9515 16.3722 20.9015 16.2222 20.7515C15.9722 20.5015 15.9722 20.0515 16.2222 19.7515L18.5222 17.4515C18.4722 17.3015 18.4222 17.1515 18.4222 16.9515C18.3222 15.9015 19.1722 14.9515 20.2222 14.9515C20.3722 14.9515 20.5722 15.0015 20.7222 15.0515C20.8222 15.0515 20.8222 15.1515 20.7722 15.2015L19.7722 16.2515C19.6722 16.3015 19.6722 16.4515 19.7722 16.5015L20.4722 17.2015C20.5722 17.3015 20.6722 17.3015 20.7722 17.2015L21.7722 16.2015C21.8222 16.1515 21.9222 16.1515 21.9222 16.2515C21.9722 16.4015 22.0222 16.6015 22.0222 16.7515C22.0222 17.8015 21.1222 18.6515 20.0222 18.5515Z" fill="#706E6B"/>
</svg>
