<svg width="40" height="40" viewBox="0 0 40 40" fill="none" xmlns="http://www.w3.org/2000/svg">
<rect width="40" height="40" rx="20" fill="#FBB439"/>
<mask id="mask0_1518_28374" style="mask-type:luminance" maskUnits="userSpaceOnUse" x="0" y="0" width="40" height="40">
<rect width="40" height="40" rx="20" fill="white"/>
</mask>
<g mask="url(#mask0_1518_28374)">
<path d="M11.5 8.75C11.5 8.35 11.15 8 10.75 8H9.25C8.85 8 8.5 8.35 8.5 8.75V31.25C8.5 31.65 8.85 32 9.25 32H10.75C11.15 32 11.5 31.65 11.5 31.25V8.75Z" fill="white"/>
<path d="M30.75 10.8499C22.75 15.0499 23.65 6.44989 14 9.79989C13.7 9.89989 13.5 10.1999 13.5 10.4999V22.1499C13.5 22.4999 13.85 22.7499 14.15 22.5999C23.75 19.3999 22.75 28.1999 31.1 23.4999C31.35 23.3499 31.5 23.0999 31.5 22.8499V11.2499C31.5 10.8999 31.1 10.6499 30.75 10.8499Z" fill="white"/>
</g>
</svg>
