<svg width="48" height="48" viewBox="0 0 48 48" fill="none" xmlns="http://www.w3.org/2000/svg">
<rect width="48" height="48" rx="4" fill="#3C97DD"/>
<mask id="mask0_1518_27920" style="mask-type:luminance" maskUnits="userSpaceOnUse" x="0" y="0" width="48" height="48">
<rect width="48" height="48" rx="4" fill="white"/>
</mask>
<g mask="url(#mask0_1518_27920)">
<path fill-rule="evenodd" clip-rule="evenodd" d="M26.7913 23.3311L26.7913 23.3311L26.7914 23.3311C27.4616 22.6267 28.0768 21.9802 28.5705 21.2122C30.3541 18.5368 30.7443 14.7466 29.5738 11.8482C28.4033 8.89414 25.6721 7.16627 22.4951 7.22201C19.318 7.27775 16.7541 9.22857 15.7508 12.1827C14.5803 15.4155 15.082 19.3171 17.7016 21.7696C18.7607 22.7728 19.7639 24.3892 19.2066 25.8941C18.7769 27.1355 17.4474 27.7634 16.3042 28.3033L16.3041 28.3034C16.1128 28.3937 15.9266 28.4816 15.7508 28.5696C12.9639 29.7958 9.56394 31.5237 9.00656 34.8122C8.44918 37.5433 10.2885 40.3859 13.2426 40.3859H26.2295C26.7869 40.3859 27.2885 39.7171 26.9541 39.3269C25.1705 37.2646 23.2754 34.4777 23.2754 31.7466C23.1082 29.7958 23.6656 27.622 24.6131 25.8941C25.3491 24.8467 26.0996 24.0581 26.7913 23.3311ZM32.5279 33.4187C31.023 33.4187 29.741 32.1925 29.741 30.6876C29.741 29.1827 30.9672 27.9564 32.5279 27.9564C34.0328 27.9564 35.3148 29.1827 35.3148 30.6876C35.3705 32.1925 34.0328 33.4187 32.5279 33.4187ZM25.8951 30.6876C25.8951 27.0089 28.8492 24.0548 32.5279 24.0548C36.2066 24.0548 39.1607 27.0089 39.1607 30.6876C39.1607 35.2023 34.423 39.3827 32.9738 40.5532C32.6393 40.7761 32.3049 40.7761 32.082 40.5532C30.6328 39.4941 25.8951 35.2023 25.8951 30.6876Z" fill="white"/>
</g>
</svg>
