<svg width="48" height="48" viewBox="0 0 48 48" fill="none" xmlns="http://www.w3.org/2000/svg">
<rect width="48" height="48" rx="4" fill="#3C97DD"/>
<mask id="mask0_1518_27918" style="mask-type:luminance" maskUnits="userSpaceOnUse" x="0" y="0" width="48" height="48">
<rect width="48" height="48" rx="4" fill="white"/>
</mask>
<g mask="url(#mask0_1518_27918)">
<path fill-rule="evenodd" clip-rule="evenodd" d="M12.6667 28.5333C12.0433 28.5333 11.5333 28.0233 11.5333 27.4V26.2667C11.5333 25.6433 12.0433 25.1333 12.6667 25.1333H24C24.2833 25.1333 24.51 25.2467 24.7367 25.4167C26.55 23.4333 29.1 22.0733 31.9333 21.79V10.4C31.9333 8.53 30.4033 7 28.5333 7H10.4C8.53 7 7 8.53 7 10.4V29.6667C7 31.5367 8.53 33.0667 10.4 33.0667H21.7333C21.7333 31.48 22.0733 29.95 22.6967 28.5333H12.6667ZM11.5333 12.6667C11.5333 12.0433 12.0433 11.5333 12.6667 11.5333H24C24.6233 11.5333 25.1333 12.0433 25.1333 12.6667V13.8C25.1333 14.4233 24.6233 14.9333 24 14.9333H12.6667C12.0433 14.9333 11.5333 14.4233 11.5333 13.8V12.6667ZM12.6667 18.3333C12.0433 18.3333 11.5333 18.8433 11.5333 19.4667V20.6C11.5333 21.2233 12.0433 21.7333 12.6667 21.7333H26.2667C26.89 21.7333 27.4 21.2233 27.4 20.6V19.4667C27.4 18.8433 26.89 18.3333 26.2667 18.3333H12.6667Z" fill="white"/>
<path fill-rule="evenodd" clip-rule="evenodd" d="M25.1333 33.0661C25.1333 28.7028 28.7033 25.1328 33.0666 25.1328C37.43 25.1328 41 28.7028 41 33.0661C41 37.4295 37.43 40.9995 33.0666 40.9995C28.7033 40.9995 25.1333 37.4295 25.1333 33.0661ZM32.5 36.5795L37.5433 31.0828C37.7133 30.9128 37.7133 30.5161 37.5433 30.3461L36.75 29.6095C36.5233 29.3828 36.1833 29.3828 35.9566 29.6095L31.7066 34.3695L29.78 32.4428C29.5533 32.2161 29.2133 32.2161 28.9866 32.4428L28.1933 33.1795C27.9666 33.3495 27.9666 33.6895 28.1933 33.9161L30.9133 36.5795C31.14 36.8061 31.4233 36.9195 31.7066 36.9195C32.0466 36.9195 32.2733 36.8061 32.5 36.5795Z" fill="white"/>
</g>
</svg>
