<svg width="48" height="48" viewBox="0 0 48 48" fill="none" xmlns="http://www.w3.org/2000/svg">
<rect width="48" height="48" rx="4" fill="#FCB95B"/>
<mask id="mask0_1518_27922" style="mask-type:luminance" maskUnits="userSpaceOnUse" x="0" y="0" width="48" height="48">
<rect width="48" height="48" rx="4" fill="white"/>
</mask>
<g mask="url(#mask0_1518_27922)">
<path d="M27.06 26.0396C26.72 26.0396 26.38 25.7563 26.38 25.3596V21.223C26.38 20.883 26.6633 20.543 27.06 20.543H31.31C31.65 20.543 31.99 20.8263 31.99 21.223V25.3596C31.99 25.6996 31.7067 26.0396 31.31 26.0396H27.06Z" fill="white"/>
<path d="M28.8734 28.4771L26.4367 31.1404C26.2667 31.3104 26.2667 31.5371 26.4367 31.7071L28.8734 34.3704C29.0434 34.5404 29.3267 34.5404 29.4967 34.3704L31.9334 31.7071C32.1034 31.5371 32.1034 31.3104 31.9334 31.1404L29.4967 28.4771C29.3267 28.3071 29.0434 28.3071 28.8734 28.4771Z" fill="white"/>
<path d="M18.73 34.1432C20.2635 34.1432 21.5067 32.9 21.5067 31.3665C21.5067 29.833 20.2635 28.5898 18.73 28.5898C17.1965 28.5898 15.9534 29.833 15.9534 31.3665C15.9534 32.9 17.1965 34.1432 18.73 34.1432Z" fill="white"/>
<path d="M16.2934 21.5074L18.4467 20.2608C18.6167 20.1474 18.9 20.1474 19.07 20.2608L21.2234 21.5074C21.3934 21.6208 21.5634 21.8474 21.5634 22.0741V24.5108C21.5634 24.7374 21.45 24.9641 21.2234 25.0774L19.07 26.3241C18.9 26.4374 18.6167 26.4374 18.4467 26.3241L16.2934 25.0774C16.1234 24.9641 15.9534 24.7374 15.9534 24.5108V22.0741C15.9534 21.8474 16.0667 21.6208 16.2934 21.5074Z" fill="white"/>
<path fill-rule="evenodd" clip-rule="evenodd" d="M37.4867 7H10.5133C8.58667 7 7 8.58667 7 10.5133V37.4867C7 39.4133 8.58667 41 10.5133 41H37.4867C39.4133 41 41 39.4133 41 37.4867V10.5133C41 8.58667 39.4133 7 37.4867 7ZM37.4867 36.2967C37.4867 36.9767 36.9767 37.4867 36.2967 37.4867H11.7033C11.08 37.4867 10.5133 36.9767 10.5133 36.2967V17.3133H37.4867V36.2967ZM10.5133 13.9133H37.4867V11.7033C37.4867 11.0233 36.92 10.5133 36.2967 10.5133H11.7033C11.0233 10.5133 10.5133 11.0233 10.5133 11.7033V13.9133Z" fill="white"/>
</g>
</svg>
