<svg width="40" height="40" viewBox="0 0 40 40" fill="none" xmlns="http://www.w3.org/2000/svg">
<rect width="40" height="40" rx="20" fill="#54698D"/>
<mask id="mask0_1518_28382" style="mask-type:luminance" maskUnits="userSpaceOnUse" x="0" y="0" width="40" height="40">
<rect width="40" height="40" rx="20" fill="white"/>
</mask>
<g mask="url(#mask0_1518_28382)">
<path d="M30.56 21.9202H29.12C28.736 21.9202 28.4 22.2562 28.4 22.6402V27.9202C28.4 28.3042 28.064 28.6402 27.68 28.6402H11.84C11.456 28.6402 11.12 28.3042 11.12 27.9202V17.8402C11.12 17.4562 11.456 17.1202 11.84 17.1202H13.76C14.144 17.1202 14.48 16.7842 14.48 16.4002V14.9602C14.48 14.5762 14.144 14.2402 13.76 14.2402H10.16C9.10399 14.2402 8.23999 15.1042 8.23999 16.1602V29.6002C8.23999 30.6562 9.10399 31.5202 10.16 31.5202H29.36C30.416 31.5202 31.28 30.6562 31.28 29.6002V22.6402C31.28 22.2562 30.944 21.9202 30.56 21.9202Z" fill="white"/>
<path d="M23.6 14.2401C18.8 14.2401 14.432 18.5121 14.048 23.5521C14 23.9361 14.336 24.3201 14.768 24.3201H16.208C16.592 24.3201 16.88 24.0321 16.928 23.6961C17.264 20.0961 20.336 17.1201 24.08 17.1201H24.848C25.28 17.1201 25.472 17.6481 25.184 17.9361L22.544 20.6241C22.256 20.9121 22.256 21.3441 22.544 21.6321L23.552 22.6401C23.84 22.9281 24.272 22.9281 24.56 22.6401L31.088 16.1601C31.376 15.8721 31.376 15.4401 31.088 15.1521L24.608 8.67205C24.32 8.38405 23.888 8.38405 23.6 8.67205L22.592 9.68005C22.304 9.96805 22.256 10.4001 22.544 10.6881L25.232 13.3761C25.52 13.6641 25.328 14.1921 24.896 14.1921L23.6 14.2401Z" fill="white"/>
</g>
</svg>
