<svg width="40" height="40" viewBox="0 0 40 40" fill="none" xmlns="http://www.w3.org/2000/svg">
<rect width="40" height="40" rx="20" fill="#699BE1"/>
<mask id="mask0_1518_28380" style="mask-type:luminance" maskUnits="userSpaceOnUse" x="0" y="0" width="40" height="40">
<rect width="40" height="40" rx="20" fill="white"/>
</mask>
<g mask="url(#mask0_1518_28380)">
<path fill-rule="evenodd" clip-rule="evenodd" d="M9.6 8H30.4C31.3 8 32 8.7 32 9.6V12.8C32 13.7 31.3 14.4 30.4 14.4H9.6C8.7 14.4 8 13.7 8 12.8V9.6C8 8.7 8.7 8 9.6 8ZM20.4 9.6V12.8H30.4V9.6H20.4Z" fill="white"/>
<path fill-rule="evenodd" clip-rule="evenodd" d="M9.6 16.7998H30.4C31.3 16.7998 32 17.4998 32 18.3998V21.5998C32 22.4998 31.3 23.1998 30.4 23.1998H9.6C8.7 23.1998 8 22.4998 8 21.5998V18.3998C8 17.4998 8.7 16.7998 9.6 16.7998ZM16.8 18.3998V21.5998H30.4V18.3998H16.8Z" fill="white"/>
<path fill-rule="evenodd" clip-rule="evenodd" d="M9.6 25.5996H30.4C31.3 25.5996 32 26.2996 32 27.1996V30.3996C32 31.2996 31.3 31.9996 30.4 31.9996H9.6C8.7 31.9996 8 31.2996 8 30.3996V27.1996C8 26.2996 8.7 25.5996 9.6 25.5996ZM24 27.1996V30.3996H30.4V27.1996H24Z" fill="white"/>
</g>
</svg>
