<svg width="40" height="40" viewBox="0 0 40 40" fill="none" xmlns="http://www.w3.org/2000/svg">
<rect width="40" height="40" rx="20" fill="#65CAE4"/>
<mask id="mask0_1518_28336" style="mask-type:luminance" maskUnits="userSpaceOnUse" x="0" y="0" width="40" height="40">
<rect width="40" height="40" rx="20" fill="white"/>
</mask>
<g mask="url(#mask0_1518_28336)">
<path d="M19.7551 8.97949C13.2408 8.97949 8 13.7795 8 19.755C8 21.6652 8.53878 23.4285 9.46939 25.0448C9.56735 25.2407 9.61633 25.4856 9.56735 25.6815L8.4898 29.0611C8.29388 29.6979 8.88163 30.2366 9.51837 30.0407L12.9469 28.8652C13.1918 28.7672 13.4367 28.8162 13.6327 28.9632C15.4449 29.9917 17.551 30.5795 19.8041 30.5795C26.3184 30.5795 31.5592 25.7795 31.5592 19.804C31.4122 13.7795 26.1714 8.97949 19.7551 8.97949Z" fill="white"/>
</g>
</svg>
