<svg width="48" height="48" viewBox="0 0 48 48" fill="none" xmlns="http://www.w3.org/2000/svg">
<g clip-path="url(#clip0_1518_27954)">
<mask id="mask0_1518_27954" style="mask-type:alpha" maskUnits="userSpaceOnUse" x="0" y="0" width="48" height="48">
<path d="M44 0H4C1.79086 0 0 1.79086 0 4V44C0 46.2091 1.79086 48 4 48H44C46.2091 48 48 46.2091 48 44V4C48 1.79086 46.2091 0 44 0Z" fill="white"/>
</mask>
<g mask="url(#mask0_1518_27954)">
<path d="M44 0H4C1.79086 0 0 1.79086 0 4V44C0 46.2091 1.79086 48 4 48H44C46.2091 48 48 46.2091 48 44V4C48 1.79086 46.2091 0 44 0Z" fill="#EF6E64"/>
<path d="M34.6533 7.16998C37.8409 7.17617 40.5004 9.60704 40.7921 12.7813C41.0839 15.9556 38.9122 18.8306 35.7791 19.4177C32.6459 20.0048 29.5806 18.1113 28.7033 15.0467H28.4766C26.9118 15.0467 25.6433 16.3152 25.6433 17.88V20.3167L29.2133 23.8867C29.4309 24.0932 29.5541 24.38 29.5541 24.68C29.5541 24.98 29.4309 25.2669 29.2133 25.4734L28.4766 26.2667C28.2701 26.4843 27.9833 26.6076 27.6833 26.6076C27.3833 26.6076 27.0964 26.4843 26.8899 26.2667L25.6999 25.0767V30.1767C25.717 33.5073 23.0789 36.246 19.7499 36.3534H19.2966C18.4217 39.4236 15.3529 41.3228 12.2147 40.7361C9.07661 40.1493 6.90132 37.2696 7.19483 34.0907C7.48834 30.9117 10.1541 28.479 13.3466 28.4767C16.1012 28.4903 18.5203 30.3103 19.2966 32.9534H19.5233C21.0881 32.9534 22.3566 31.6848 22.3566 30.12V25.19L21.3366 26.2667C21.1301 26.4843 20.8433 26.6076 20.5433 26.6076C20.2433 26.6076 19.9564 26.4843 19.7499 26.2667L18.9566 25.4734C18.739 25.2669 18.6158 24.98 18.6158 24.68C18.6158 24.38 18.739 24.0932 18.9566 23.8867L22.2999 20.5434V17.88C22.2829 14.5494 24.921 11.8108 28.2499 11.7034H28.7033C29.4301 9.01848 31.8718 7.15815 34.6533 7.16998ZM13.3466 31.8767C11.7818 31.8767 10.5133 33.1452 10.5133 34.71C10.5133 36.2748 11.7818 37.5434 13.3466 37.5434C14.9114 37.5434 16.1799 36.2748 16.1799 34.71C16.1799 33.1452 14.9114 31.8767 13.3466 31.8767ZM34.6533 10.5134C33.0885 10.5134 31.8199 11.7819 31.8199 13.3467C31.8199 14.9115 33.0885 16.18 34.6533 16.18C36.2181 16.18 37.4866 14.9115 37.4866 13.3467C37.4866 12.5953 37.1881 11.8746 36.6567 11.3432C36.1254 10.8119 35.4047 10.5134 34.6533 10.5134Z" fill="white"/>
</g>
</g>
<defs>
<clipPath id="clip0_1518_27954">
<rect width="48" height="48" fill="white"/>
</clipPath>
</defs>
</svg>
