<svg width="48" height="48" viewBox="0 0 48 48" fill="none" xmlns="http://www.w3.org/2000/svg">
<rect width="48" height="48" rx="4" fill="#B070E6"/>
<mask id="mask0_1518_27549" style="mask-type:luminance" maskUnits="userSpaceOnUse" x="0" y="0" width="48" height="48">
<rect width="48" height="48" rx="4" fill="white"/>
</mask>
<g mask="url(#mask0_1518_27549)">
<path d="M25.0601 7.33996L37.483 13.8566C38.3324 14.31 38.8633 15.2166 38.8633 16.18V31.3666C38.8633 32.3866 38.3324 33.2933 37.483 33.69L25.0601 40.2066C24.3699 40.5466 23.5736 40.5466 22.8834 40.2066L10.5136 33.69C9.66419 33.2366 9.1333 32.33 9.1333 31.3666V16.18C9.1333 15.16 9.66419 14.2533 10.5136 13.8566L22.9365 7.33996C23.5736 6.99996 24.423 6.99996 25.0601 7.33996Z" fill="white"/>
</g>
</svg>
