<svg width="48" height="48" viewBox="0 0 48 48" fill="none" xmlns="http://www.w3.org/2000/svg">
<rect width="48" height="48" rx="4" fill="#969492"/>
<mask id="mask0_1518_27553" style="mask-type:luminance" maskUnits="userSpaceOnUse" x="0" y="0" width="48" height="48">
<rect width="48" height="48" rx="4" fill="white"/>
</mask>
<g mask="url(#mask0_1518_27553)">
<path d="M36.4666 10.4H33.6333V9.26667C33.6333 8.02 32.6133 7 31.3666 7C30.12 7 29.1 8.02 29.1 9.26667V10.4H18.9V9.26667C18.9 8.02 17.88 7 16.6333 7C15.3866 7 14.3666 8.02 14.3666 9.26667V10.4H11.5333C9.6633 10.4 8.1333 11.93 8.1333 13.8V14.9333C8.1333 15.5567 8.6433 16.0667 9.26663 16.0667H38.7333C39.3566 16.0667 39.8666 15.5567 39.8666 14.9333V13.8C39.8666 11.93 38.3366 10.4 36.4666 10.4Z" fill="white"/>
<path fill-rule="evenodd" clip-rule="evenodd" d="M9.26663 19.4668H38.7333C39.3566 19.4668 39.8666 19.9768 39.8666 20.6001V37.6001C39.8666 39.4701 38.3366 41.0001 36.4666 41.0001H11.5333C9.6633 41.0001 8.1333 39.4701 8.1333 37.6001V20.6001C8.1333 19.9768 8.6433 19.4668 9.26663 19.4668ZM15.5566 30.2335C15.5566 34.8801 19.3533 38.6768 24 38.6768C28.6466 38.6768 32.4433 34.8801 32.4433 30.2335C32.4433 25.5868 28.6466 21.7901 24 21.7901C19.3533 21.7901 15.5566 25.5868 15.5566 30.2335Z" fill="white"/>
<path d="M24.85 29.8935V26.2669C24.85 25.9835 24.6234 25.7002 24.2834 25.7002H23.7167C23.4334 25.7002 23.15 25.9269 23.15 26.2669V30.2335C23.15 30.4602 23.2067 30.6869 23.3767 30.8002L26.0967 33.5202C26.3234 33.7469 26.6634 33.7469 26.89 33.5202L27.2867 33.1235C27.5134 32.8969 27.5134 32.5569 27.2867 32.3302L24.85 29.8935Z" fill="white"/>
</g>
</svg>
