<svg width="48" height="48" viewBox="0 0 48 48" fill="none" xmlns="http://www.w3.org/2000/svg">
<rect width="48" height="48" rx="4" fill="#FF9A3C"/>
<mask id="mask0_1518_27555" style="mask-type:luminance" maskUnits="userSpaceOnUse" x="0" y="0" width="48" height="48">
<rect width="48" height="48" rx="4" fill="white"/>
</mask>
<g mask="url(#mask0_1518_27555)">
<path fill-rule="evenodd" clip-rule="evenodd" d="M40.66 11.9867L37.7133 9.77667C37.26 9.49333 36.8633 9.32333 36.3533 9.32333H26.2667V8.13333C26.2667 7.51 25.7567 7 25.1333 7H22.8667C22.2433 7 21.7333 7.51 21.7333 8.13333V9.26667H10.4C9.77666 9.26667 9.26666 9.77667 9.26666 10.4V14.9333C9.26666 15.5567 9.77666 16.0667 10.4 16.0667H36.3533C36.8633 16.0667 37.3733 15.9533 37.7133 15.6133L40.66 13.4033C41.1133 13.0067 41.1133 12.3267 40.66 11.9867ZM37.6 21.7333H26.2667V20.0333C26.2667 19.6933 26.04 19.4667 25.7 19.4667H22.3C21.96 19.4667 21.7333 19.6933 21.7333 20.0333V21.7333H11.7033C11.1933 21.7333 10.6833 21.8467 10.3433 22.1867L7.39666 24.3967C6.88666 24.7367 6.88666 25.4733 7.39666 25.87L10.3433 28.08C10.7967 28.3633 11.1933 28.5333 11.7033 28.5333H37.6C38.2233 28.5333 38.7333 28.0233 38.7333 27.4V22.8667C38.7333 22.2433 38.2233 21.7333 37.6 21.7333ZM26.2667 33.4633V36.24C28.5333 36.92 29.8367 38.2233 30.2333 39.9233C30.4033 40.49 29.95 41 29.3833 41H18.6733C18.1067 41 17.71 40.4333 17.8233 39.9233C18.22 38.2233 19.4667 36.8633 21.7333 36.24V33.4633C21.7333 33.1233 21.96 32.8967 22.3 32.8967H25.7C26.04 32.8967 26.2667 33.1233 26.2667 33.4633Z" fill="white"/>
</g>
</svg>
