<svg width="48" height="48" viewBox="0 0 48 48" fill="none" xmlns="http://www.w3.org/2000/svg">
<rect width="48" height="48" rx="4" fill="#04844B"/>
<mask id="mask0_1518_27559" style="mask-type:luminance" maskUnits="userSpaceOnUse" x="0" y="0" width="48" height="48">
<rect width="48" height="48" rx="4" fill="white"/>
</mask>
<g mask="url(#mask0_1518_27559)">
<path fill-rule="evenodd" clip-rule="evenodd" d="M38.6968 20.6548H26.3581C25.2613 20.6548 25.0968 21.8064 25.0968 21.9161V40.6709H39.7936V22.1903C39.9033 20.9838 39.0258 20.6548 38.6968 20.6548ZM31.3484 37.4354C31.3484 38.0387 30.8549 38.587 30.1968 38.587H29.0452C28.442 38.587 27.8936 38.0935 27.8936 37.4354V36.2838C27.8936 35.6806 28.3871 35.1322 29.0452 35.1322H30.1968C30.8 35.1322 31.3484 35.6258 31.3484 36.2838V37.4354ZM30.1968 32.829C30.8549 32.829 31.3484 32.2806 31.3484 31.6774V30.5258C31.3484 29.8677 30.8 29.3741 30.1968 29.3741H29.0452C28.3871 29.3741 27.8936 29.9225 27.8936 30.5258V31.6774C27.8936 32.3354 28.442 32.829 29.0452 32.829H30.1968ZM31.3484 25.9193C31.3484 26.5225 30.8549 27.0709 30.1968 27.0709H29.0452C28.442 27.0709 27.8936 26.5774 27.8936 25.9193V24.7677C27.8936 24.1645 28.3871 23.6161 29.0452 23.6161H30.1968C30.8 23.6161 31.3484 24.1096 31.3484 24.7677V25.9193ZM35.8452 38.587C36.5033 38.587 36.9968 38.0387 36.9968 37.4354V36.2838C36.9968 35.6258 36.4484 35.1322 35.8452 35.1322H34.6936C34.0355 35.1322 33.542 35.6806 33.542 36.2838V37.4354C33.542 38.0935 34.0903 38.587 34.6936 38.587H35.8452ZM36.9968 31.6774C36.9968 32.2806 36.5033 32.829 35.8452 32.829H34.6936C34.0903 32.829 33.542 32.3354 33.542 31.6774V30.5258C33.542 29.9225 34.0355 29.3741 34.6936 29.3741H35.8452C36.4484 29.3741 36.9968 29.8677 36.9968 30.5258V31.6774ZM35.8452 27.0709C36.5033 27.0709 36.9968 26.5225 36.9968 25.9193V24.7677C36.9968 24.1096 36.4484 23.6161 35.8452 23.6161H34.6936C34.0355 23.6161 33.542 24.1645 33.542 24.7677V25.9193C33.542 26.5774 34.0903 27.0709 34.6936 27.0709H35.8452Z" fill="white"/>
<path fill-rule="evenodd" clip-rule="evenodd" d="M8.26129 7.93213H27.2903C27.6742 7.93213 28.4968 8.26116 28.4419 9.46761V16.0483C28.4419 16.9257 27.8387 17.145 27.3452 17.1999H27.1258H22.9581C21.6968 17.1999 21.6968 18.5708 21.6968 18.5708V40.616H7V9.19342C7 9.08374 7.16452 7.93213 8.26129 7.93213ZM12.1 38.0934C12.7581 38.0934 13.2516 37.545 13.2516 36.9418V35.7902C13.2516 35.1321 12.7032 34.6386 12.1 34.6386H10.9484C10.2903 34.6386 9.79677 35.187 9.79677 35.7902V36.9418C9.79677 37.5999 10.3452 38.0934 10.9484 38.0934H12.1ZM13.2516 31.1289C13.2516 31.7321 12.7581 32.2805 12.1 32.2805H10.9484C10.3452 32.2805 9.79677 31.787 9.79677 31.1289V29.9773C9.79677 29.3741 10.2903 28.8257 10.9484 28.8257H12.1C12.7032 28.8257 13.2516 29.3192 13.2516 29.9773V31.1289ZM12.1 26.4676C12.7581 26.4676 13.2516 25.9192 13.2516 25.316V24.1644C13.2516 23.5063 12.7032 23.0128 12.1 23.0128H10.9484C10.2903 23.0128 9.79677 23.5612 9.79677 24.1644V25.316C9.79677 25.9741 10.3452 26.4676 10.9484 26.4676H12.1ZM13.2516 19.5031C13.2516 20.1063 12.7581 20.6547 12.1 20.6547H10.9484C10.3452 20.6547 9.79677 20.1612 9.79677 19.5031V18.3515C9.79677 17.7483 10.2903 17.1999 10.9484 17.1999H12.1C12.7032 17.1999 13.2516 17.6934 13.2516 18.3515V19.5031ZM12.1 14.8966C12.7581 14.8966 13.2516 14.3483 13.2516 13.745V12.5934C13.2516 11.9354 12.7032 11.4418 12.1 11.4418H10.9484C10.2903 11.4418 9.79677 11.9902 9.79677 12.5934V13.745C9.79677 14.4031 10.3452 14.8966 10.9484 14.8966H12.1ZM19.4484 36.9418C19.4484 37.545 18.9548 38.0934 18.2968 38.0934H17.1452C16.5419 38.0934 15.9935 37.5999 15.9935 36.9418V35.7902C15.9935 35.187 16.4871 34.6386 17.1452 34.6386H18.2968C18.9 34.6386 19.4484 35.1321 19.4484 35.7902V36.9418ZM18.2968 32.2805C18.9548 32.2805 19.4484 31.7321 19.4484 31.1289V29.9773C19.4484 29.3192 18.9 28.8257 18.2968 28.8257H17.1452C16.4871 28.8257 15.9935 29.3741 15.9935 29.9773V31.1289C15.9935 31.787 16.5419 32.2805 17.1452 32.2805H18.2968ZM19.4484 25.316C19.4484 25.9192 18.9548 26.4676 18.2968 26.4676H17.1452C16.5419 26.4676 15.9935 25.9741 15.9935 25.316V24.1644C15.9935 23.5612 16.4871 23.0128 17.1452 23.0128H18.2968C18.9 23.0128 19.4484 23.5063 19.4484 24.1644V25.316ZM18.2968 20.6547C18.9548 20.6547 19.4484 20.1063 19.4484 19.5031V18.3515C19.4484 17.6934 18.9 17.1999 18.2968 17.1999H17.1452C16.4871 17.1999 15.9935 17.7483 15.9935 18.3515V19.5031C15.9935 20.1612 16.5419 20.6547 17.1452 20.6547H18.2968ZM19.4484 13.745C19.4484 14.3483 18.9548 14.8966 18.2968 14.8966H17.1452C16.5419 14.8966 15.9935 14.4031 15.9935 13.745V12.5934C15.9935 11.9902 16.4871 11.4418 17.1452 11.4418H18.2968C18.9 11.4418 19.4484 11.9354 19.4484 12.5934V13.745ZM24.5484 14.8966C25.1516 14.8966 25.7 14.3483 25.7 13.745V12.5934C25.7 11.9354 25.1516 11.4418 24.5484 11.4418H23.3968C22.7387 11.4418 22.2452 11.9902 22.2452 12.5934V13.745C22.2452 14.4031 22.7935 14.8966 23.3968 14.8966H24.5484Z" fill="white"/>
<path d="M40.1774 14.1289C39.8483 13.8547 39.3 13.9095 39.0258 14.2386L38.5871 14.7869C38.2032 11.4418 35.7354 10.0708 33.8709 9.63211L34.3096 9.35792C34.6935 9.13856 34.8032 8.59018 34.5838 8.2063C34.3645 7.82243 33.8161 7.71276 33.4322 7.93211L31.2387 9.35792C31.0193 9.46759 30.9096 9.68695 30.8548 9.9063C30.8 10.1257 30.8548 10.345 31.0193 10.5644L32.829 12.8676C32.9935 13.0869 33.2129 13.1966 33.4871 13.1966C33.6516 13.1966 33.8709 13.1418 33.9806 13.0321C34.3645 12.7579 34.4193 12.2095 34.1451 11.8805L33.7064 11.2773C34.858 11.5515 36.6677 12.4837 36.9419 15.0063L36.558 14.5676C36.229 14.2386 35.7354 14.2386 35.4064 14.5676C35.0774 14.8966 35.0774 15.3902 35.4064 15.7192L37.2161 17.5837C37.3806 17.7482 37.6 17.8031 37.8193 17.8031C37.8193 17.8031 37.8193 17.8031 37.8741 17.8031C38.0935 17.8031 38.3129 17.6934 38.4774 17.5289L40.3419 15.2257C40.5612 14.9515 40.5064 14.4031 40.1774 14.1289Z" fill="white"/>
</g>
</svg>
