<svg width="48" height="48" viewBox="0 0 48 48" fill="none" xmlns="http://www.w3.org/2000/svg">
<rect width="48" height="48" rx="4" fill="#54698D"/>
<mask id="mask0_1518_27567" style="mask-type:luminance" maskUnits="userSpaceOnUse" x="0" y="0" width="48" height="48">
<rect width="48" height="48" rx="4" fill="white"/>
</mask>
<g mask="url(#mask0_1518_27567)">
<path d="M20.4355 36.0095C20.4355 35.9547 20.4355 35.845 20.4355 35.7902C15.5 34.2547 11.9355 29.7031 11.9355 24.274C11.9355 17.6385 17.3645 12.2095 24 12.2095C30.6355 12.2095 36.0645 17.6385 36.0645 24.274C36.0645 25.3708 35.9 26.4676 35.6258 27.5095C35.7903 27.6192 35.9548 27.7289 36.1193 27.8385C36.3387 27.8385 36.5032 27.7837 36.7226 27.7837C37.8193 27.7837 38.9161 28.1127 39.7935 28.6063C40.1774 27.2353 40.3968 25.7547 40.3968 24.2192C40.3968 15.1708 32.9935 7.76758 23.9451 7.76758C14.8968 7.76758 7.49353 15.1708 7.49353 24.2192C7.49353 32.9385 14.2935 40.0676 22.8484 40.616C21.4226 39.6289 20.4355 37.9289 20.4355 36.0095Z" fill="white"/>
<path d="M27.6742 26.1933C28.7161 26.1933 29.7032 26.4675 30.5806 26.9062C30.8 26.8514 31.0193 26.7965 31.2387 26.7417C31.5129 25.9739 31.6774 25.1514 31.6774 24.2739C31.6774 20.0514 28.2774 16.6514 24.0548 16.6514C19.8323 16.6514 16.4323 20.0514 16.4323 24.2739C16.4323 27.6739 18.6258 30.5256 21.6968 31.5675C22.0258 28.4965 24.5484 26.1933 27.6742 26.1933Z" fill="white"/>
<path d="M30.3613 30.1965C30.9097 29.6481 31.6775 29.2642 32.5549 29.2642C33.7065 29.2642 34.6936 29.8675 35.242 30.7997C35.6807 30.6352 36.2291 30.4707 36.7775 30.4707C38.8065 30.4707 40.5065 32.1707 40.5065 34.1449C40.5065 36.1739 38.8065 37.8191 36.7775 37.8191C36.5581 37.8191 36.2839 37.8191 36.0646 37.7642C35.6258 38.5868 34.6936 39.1352 33.7065 39.1352C33.2678 39.1352 32.8839 39.0255 32.5 38.861C32.0065 39.9578 30.9097 40.7255 29.6484 40.7255C28.2775 40.7255 27.1807 39.903 26.742 38.7513C26.5775 38.7513 26.3581 38.8062 26.1388 38.8062C24.5484 38.8062 23.2323 37.5449 23.2323 35.9546C23.2323 34.9126 23.7807 33.9804 24.6581 33.4868C24.4936 33.103 24.3839 32.6642 24.3839 32.1707C24.3839 30.361 25.9194 28.8804 27.7291 28.8804C28.771 28.9352 29.7581 29.4288 30.3613 30.1965Z" fill="white"/>
</g>
</svg>
