<svg width="40" height="40" viewBox="0 0 40 40" fill="none" xmlns="http://www.w3.org/2000/svg">
<rect width="40" height="40" rx="20" fill="#7DC37D"/>
<mask id="mask0_1518_28378" style="mask-type:luminance" maskUnits="userSpaceOnUse" x="0" y="0" width="40" height="40">
<rect width="40" height="40" rx="20" fill="white"/>
</mask>
<g mask="url(#mask0_1518_28378)">
<path d="M15.7 12.8H24.35C24.8 12.8 25.15 12.45 25.15 12V10.4C25.15 9.1 24.1 8 22.8 8H17.3C16 8 14.95 9.1 14.95 10.4V12C14.9 12.45 15.25 12.8 15.7 12.8Z" fill="white"/>
<path fill-rule="evenodd" clip-rule="evenodd" d="M28.65 10H27.85C27.6 10 27.45 10.15 27.45 10.4V12C27.45 13.75 26.05 15.2 24.3 15.2H15.7C13.95 15.2 12.55 13.75 12.55 12V10.4C12.55 10.15 12.4 10 12.15 10H11.35C10.05 10 9 11.1 9 12.4V29.6C9 30.9 10.05 32 11.35 32H28.65C29.95 32 31 30.9 31 29.6V12.4C31 11.1 29.95 10 28.65 10ZM15.7 27.2C15.7 27.65 15.35 28 14.9 28H14.1C13.65 28 13.3 27.65 13.3 27.2V26.4C13.3 25.95 13.65 25.6 14.1 25.6H14.9C15.35 25.6 15.7 25.95 15.7 26.4V27.2ZM14.9 24C15.35 24 15.7 23.65 15.7 23.2V22.4C15.7 21.95 15.35 21.6 14.9 21.6H14.1C13.65 21.6 13.3 21.95 13.3 22.4V23.2C13.3 23.65 13.65 24 14.1 24H14.9ZM15.7 19.2C15.7 19.65 15.35 20 14.9 20H14.1C13.65 20 13.3 19.65 13.3 19.2V18.4C13.3 17.95 13.65 17.6 14.1 17.6H14.9C15.35 17.6 15.7 17.95 15.7 18.4V19.2ZM25.9 28C26.35 28 26.7 27.65 26.7 27.2V26.4C26.7 25.95 26.35 25.6 25.9 25.6H18.05C17.6 25.6 17.25 25.95 17.25 26.4V27.2C17.25 27.65 17.6 28 18.05 28H25.9ZM26.7 23.2C26.7 23.65 26.35 24 25.9 24H18.05C17.6 24 17.25 23.65 17.25 23.2V22.4C17.25 21.95 17.6 21.6 18.05 21.6H25.9C26.35 21.6 26.7 21.95 26.7 22.4V23.2ZM25.9 20C26.35 20 26.7 19.65 26.7 19.2V18.4C26.7 17.95 26.35 17.6 25.9 17.6H18.05C17.6 17.6 17.25 17.95 17.25 18.4V19.2C17.25 19.65 17.6 20 18.05 20H25.9Z" fill="white"/>
</g>
</svg>
