<svg width="40" height="40" viewBox="0 0 40 40" fill="none" xmlns="http://www.w3.org/2000/svg">
<rect width="40" height="40" rx="20" fill="#EF6E64"/>
<mask id="mask0_1518_28324" style="mask-type:luminance" maskUnits="userSpaceOnUse" x="0" y="0" width="40" height="40">
<rect width="40" height="40" rx="20" fill="white"/>
</mask>
<g mask="url(#mask0_1518_28324)">
<path fill-rule="evenodd" clip-rule="evenodd" d="M26.6127 27.837H28.0821C29.9923 27.837 31.5107 26.3186 31.5107 24.4084V11.6737C31.5107 9.76348 29.9923 8.24512 28.0821 8.24512H15.3469C13.4377 8.24512 11.9184 9.76348 11.9184 11.6737V13.1431H14.8571V11.6737C14.8571 11.3798 15.0531 11.1839 15.3469 11.1839H28.0821C28.376 11.1839 28.5719 11.3798 28.5719 11.6737V24.4084C28.5719 24.7023 28.376 24.8982 28.0821 24.8982H26.6127V27.837ZM24.6536 17.0614C24.6536 15.9839 23.7724 15.1023 22.6944 15.1023H9.95918C8.88212 15.1023 8 15.9839 8 17.0614V29.7961C8 30.8737 8.88212 31.7553 9.95918 31.7553H22.6944C23.7724 31.7553 24.6536 30.8737 24.6536 29.7961V17.0614ZM12.4082 24.4084C12.1633 24.4084 11.9184 24.1635 11.9184 23.9186V22.939C11.9184 22.6941 12.1633 22.4492 12.4082 22.4492H20.2454C20.4903 22.4492 20.7352 22.6941 20.7352 22.939V23.9186C20.7352 24.1635 20.4903 24.4084 20.2454 24.4084H12.4082Z" fill="white"/>
</g>
</svg>
