<svg width="40" height="40" viewBox="0 0 40 40" fill="none" xmlns="http://www.w3.org/2000/svg">
<rect width="40" height="40" rx="20" fill="#54698D"/>
<mask id="mask0_1518_28328" style="mask-type:luminance" maskUnits="userSpaceOnUse" x="0" y="0" width="40" height="40">
<rect width="40" height="40" rx="20" fill="white"/>
</mask>
<g mask="url(#mask0_1518_28328)">
<path d="M30.6956 8.26074H29.1304C28.713 8.26074 28.3478 8.62596 28.3478 9.04335V12.6955C28.3478 13.1651 28.0869 13.3738 27.7217 13.0607C27.5652 12.852 27.4087 12.6955 27.2 12.539C24.5913 9.93031 20.9391 8.83466 17.1826 9.56509C15.8783 9.82596 14.6261 10.3477 13.5304 11.0781C10.3478 13.1651 8.52173 16.5564 8.46956 20.2086C8.41738 23.026 9.51303 25.8434 11.4956 27.8781C13.5826 30.0694 16.4 31.2694 19.4261 31.2694C22.0869 31.2694 24.5913 30.3303 26.5739 28.6607C26.9391 28.3477 26.9391 27.826 26.6261 27.5129L25.5304 26.4173C25.2696 26.1564 24.8 26.1042 24.4869 26.3651C22.6087 27.9303 20.0522 28.5564 17.4956 27.9303C16.8174 27.7738 16.1391 27.4607 15.513 27.0955C12.5391 25.2694 11.1304 21.826 11.9652 18.3825C12.1217 17.7042 12.4348 17.026 12.8 16.3999C14.2609 13.8434 16.8174 12.4347 19.5304 12.4347C21.6174 12.4347 23.6 13.2694 25.0609 14.7303C25.3217 14.939 25.5304 15.1999 25.6869 15.4607C25.8435 15.8781 25.4783 16.0868 25.0087 16.0868H21.3565C20.9391 16.0868 20.5739 16.452 20.5739 16.8694V18.4868C20.5739 18.9042 20.8869 19.2173 21.3043 19.2173H30.8522C31.2174 19.2173 31.5304 18.9042 31.5304 18.539V9.04335C31.4783 8.62596 31.113 8.26074 30.6956 8.26074Z" fill="white"/>
</g>
</svg>
