<svg width="48" height="48" viewBox="0 0 48 48" fill="none" xmlns="http://www.w3.org/2000/svg">
<rect width="48" height="48" rx="4" fill="#4BC076"/>
<mask id="mask0_1518_27405" style="mask-type:luminance" maskUnits="userSpaceOnUse" x="0" y="0" width="48" height="48">
<rect width="48" height="48" rx="4" fill="white"/>
</mask>
<g mask="url(#mask0_1518_27405)">
<path d="M22.6401 10.5134L21.4501 9.32336C21.1101 8.98336 20.6001 8.98336 20.2601 9.32336L12.7801 16.8034L9.77672 13.8C9.43672 13.46 8.92672 13.46 8.58672 13.8L7.39672 14.99C7.05672 15.33 7.05672 15.84 7.39672 16.18L11.5901 20.3734C11.9301 20.7134 12.3834 20.8834 12.7801 20.8834C13.2334 20.8834 13.6301 20.7134 13.9701 20.3734L22.6401 11.7034C22.9234 11.42 22.9234 10.8534 22.6401 10.5134Z" fill="white"/>
<path d="M39.8667 18.6167H25.1333C24.51 18.6167 24 18.1067 24 17.4834V15.2167C24 14.5934 24.51 14.0834 25.1333 14.0834H39.8667C40.49 14.0834 41 14.5934 41 15.2167V17.4834C41 18.1067 40.49 18.6167 39.8667 18.6167Z" fill="white"/>
<path d="M39.8668 28.8167H21.7334C21.1101 28.8167 20.6001 28.3067 20.6001 27.6833V25.4167C20.6001 24.7933 21.1101 24.2833 21.7334 24.2833H39.8668C40.4901 24.2833 41.0001 24.7933 41.0001 25.4167V27.6833C41.0001 28.3067 40.4901 28.8167 39.8668 28.8167Z" fill="white"/>
<path d="M14.9334 28.8167H12.6668C12.0434 28.8167 11.5334 28.3067 11.5334 27.6833V25.4167C11.5334 24.7933 12.0434 24.2833 12.6668 24.2833H14.9334C15.5568 24.2833 16.0668 24.7933 16.0668 25.4167V27.6833C16.0668 28.3067 15.5568 28.8167 14.9334 28.8167Z" fill="white"/>
<path d="M14.9334 39.0167H12.6668C12.0434 39.0167 11.5334 38.5067 11.5334 37.8834V35.6167C11.5334 34.9934 12.0434 34.4834 12.6668 34.4834H14.9334C15.5568 34.4834 16.0668 34.9934 16.0668 35.6167V37.8834C16.0668 38.5067 15.5568 39.0167 14.9334 39.0167Z" fill="white"/>
<path d="M39.8668 39.0167H21.7334C21.1101 39.0167 20.6001 38.5067 20.6001 37.8834V35.6167C20.6001 34.9934 21.1101 34.4834 21.7334 34.4834H39.8668C40.4901 34.4834 41.0001 34.9934 41.0001 35.6167V37.8834C41.0001 38.5067 40.4901 39.0167 39.8668 39.0167Z" fill="white"/>
</g>
</svg>
