<svg width="48" height="48" viewBox="0 0 48 48" fill="none" xmlns="http://www.w3.org/2000/svg">
<rect width="48" height="48" rx="4" fill="#4BC076"/>
<mask id="mask0_1518_27886" style="mask-type:luminance" maskUnits="userSpaceOnUse" x="0" y="0" width="48" height="48">
<rect width="48" height="48" rx="4" fill="white"/>
</mask>
<g mask="url(#mask0_1518_27886)">
<path d="M19.8067 36.1838C19.1267 36.1838 18.4467 35.9005 17.9367 35.3905L7.34 24.7938C6.88667 24.3405 6.88667 23.6605 7.34 23.2071L9.43667 21.1105C9.89 20.6571 10.57 20.6571 11.0233 21.1105L19.8067 29.8371L36.9767 12.6671C37.43 12.2138 38.11 12.2138 38.5633 12.6671L40.66 14.7638C41.1133 15.2171 41.1133 15.8971 40.66 16.3505L21.62 35.3905C21.11 35.9005 20.4867 36.1838 19.8067 36.1838Z" fill="white"/>
</g>
</svg>
