<svg width="48" height="48" viewBox="0 0 48 48" fill="none" xmlns="http://www.w3.org/2000/svg">
<rect width="48" height="48" rx="4" fill="#969492"/>
<mask id="mask0_1518_27411" style="mask-type:luminance" maskUnits="userSpaceOnUse" x="0" y="0" width="48" height="48">
<rect width="48" height="48" rx="4" fill="white"/>
</mask>
<g mask="url(#mask0_1518_27411)">
<path fill-rule="evenodd" clip-rule="evenodd" d="M10.4 41H37.6C39.47 41 41 39.47 41 37.6V10.4C41 8.53 39.47 7 37.6 7H10.4C8.53 7 7 8.53 7 10.4V37.6C7 39.47 8.53 41 10.4 41ZM11.59 35.3333V12.6667C11.59 12.0433 12.1 11.5333 12.7233 11.5333H35.3333C35.9567 11.5333 36.4667 12.0433 36.4667 12.6667V35.3333C36.4667 35.9567 35.9567 36.4667 35.3333 36.4667H12.7233C12.1 36.4667 11.59 35.9567 11.59 35.3333Z" fill="white"/>
<path d="M30.7434 24.6799C31.3101 24.6799 31.8767 25.1899 31.8767 25.8133V30.7433C31.8767 31.3666 31.3667 31.8766 30.7434 31.8766H25.5301C24.9067 31.8766 24.3967 31.3666 24.3967 30.7433C24.3967 30.3466 24.5667 30.0066 24.8501 29.7233C25.1901 29.3833 25.5867 28.9866 25.9267 28.6466C26.6634 27.9666 27.4567 27.2866 28.1934 26.6066C28.7034 26.1533 29.2134 25.6433 29.7801 25.1899C29.9501 25.0766 30.0634 24.9066 30.2334 24.8499C30.4034 24.7366 30.5734 24.6799 30.7434 24.6799Z" fill="white"/>
</g>
</svg>
