<svg width="48" height="48" viewBox="0 0 48 48" fill="none" xmlns="http://www.w3.org/2000/svg">
<rect width="48" height="48" rx="4" fill="#969492"/>
<mask id="mask0_1518_27413" style="mask-type:luminance" maskUnits="userSpaceOnUse" x="0" y="0" width="48" height="48">
<rect width="48" height="48" rx="4" fill="white"/>
</mask>
<g mask="url(#mask0_1518_27413)">
<path fill-rule="evenodd" clip-rule="evenodd" d="M10.4 41H37.6C39.47 41 41 39.47 41 37.6V10.4C41 8.53 39.47 7 37.6 7H10.4C8.53 7 7 8.53 7 10.4V37.6C7 39.47 8.53 41 10.4 41ZM11.59 35.3333V12.6667C11.59 12.0433 12.1 11.5333 12.7233 11.5333H35.3333C35.9567 11.5333 36.4667 12.0433 36.4667 12.6667V35.3333C36.4667 35.9567 35.9567 36.4667 35.3333 36.4667H12.7233C12.1 36.4667 11.59 35.9567 11.59 35.3333Z" fill="white"/>
<path d="M16.1801 30.7433V17.2566C16.1801 16.6333 16.6901 16.1233 17.3134 16.1233H19.5801C20.2034 16.1233 20.7134 16.6333 20.7134 17.2566V30.7433C20.7134 31.3666 20.2034 31.8766 19.5801 31.8766H17.3134C16.6901 31.8766 16.1801 31.3666 16.1801 30.7433Z" fill="white"/>
</g>
</svg>
