<svg width="48" height="48" viewBox="0 0 48 48" fill="none" xmlns="http://www.w3.org/2000/svg">
<rect width="48" height="48" rx="4" fill="#B8C3CE"/>
<mask id="mask0_1518_27892" style="mask-type:luminance" maskUnits="userSpaceOnUse" x="0" y="0" width="48" height="48">
<rect width="48" height="48" rx="4" fill="white"/>
</mask>
<g mask="url(#mask0_1518_27892)">
<path opacity="0.5" fill-rule="evenodd" clip-rule="evenodd" d="M37.6 15.5H32.67C34.0867 13.29 33.9733 10.3433 32.2167 8.53C31.2533 7.56667 29.95 7 28.59 7C27.1167 7 25.6433 7.68 24.5667 8.81333C24.34 9.04 24.17 9.26667 24 9.55C23.83 9.26667 23.66 9.04 23.4333 8.81333C22.3567 7.62333 20.8833 7 19.41 7C18.05 7 16.8033 7.56667 15.84 8.53C14.0833 10.3433 13.97 13.29 15.3867 15.5H10.4C8.53 15.5 7 17.03 7 18.9V21.1667C7 21.79 7.51 22.3 8.13333 22.3H39.8667C40.49 22.3 41 21.79 41 21.1667V18.9C41 17.03 39.47 15.5 37.6 15.5ZM22.3 15.5C21.11 15.5 19.41 15.0467 18.4467 14.0267C17.5967 13.12 17.4833 11.6467 18.2767 10.91C18.6733 10.5133 19.07 10.4567 19.41 10.4567C19.9767 10.4567 20.5433 10.74 20.94 11.1933C21.9033 12.27 22.3 14.0833 22.3 15.2167V15.5ZM25.7 15.5C26.89 15.5 28.59 15.0467 29.5533 14.0267C30.4033 13.0633 30.46 11.6467 29.7233 10.8533C29.3267 10.4567 28.8733 10.4 28.59 10.4C28.08 10.4 27.5133 10.6833 27.06 11.1367C26.0967 12.2133 25.7 14.0267 25.7 15.16V15.5Z" fill="white"/>
<path opacity="0.5" d="M37.6 25.7002H25.7V41.0002H35.4466C37.26 41.0002 38.7333 39.5269 38.7333 37.7135V26.8335C38.7333 26.2102 38.2233 25.7002 37.6 25.7002Z" fill="white"/>
<path opacity="0.5" d="M9.26672 26.8335V37.6002C9.26672 39.4702 10.7967 41.0002 12.6667 41.0002H22.3001V25.7002H10.4001C9.77672 25.7002 9.26672 26.2102 9.26672 26.8335Z" fill="white"/>
</g>
</svg>
