<svg width="48" height="48" viewBox="0 0 48 48" fill="none" xmlns="http://www.w3.org/2000/svg">
<rect width="48" height="48" rx="4" fill="#7DC37D"/>
<mask id="mask0_1518_27896" style="mask-type:luminance" maskUnits="userSpaceOnUse" x="0" y="0" width="48" height="48">
<rect width="48" height="48" rx="4" fill="white"/>
</mask>
<g mask="url(#mask0_1518_27896)">
<path fill-rule="evenodd" clip-rule="evenodd" d="M12.1567 7H35.8434C38.28 7 40.2634 8.98333 40.2067 11.42V36.5233C40.2067 38.96 38.2234 40.9433 35.7867 40.9433H12.1567C9.72003 40.9433 7.73669 38.96 7.73669 36.5233V11.42C7.73669 8.98333 9.72003 7 12.1567 7ZM32.8967 35.1067C33.69 35.1067 34.37 34.4267 34.37 33.6333H34.3134V32.16C34.3134 31.3667 33.6334 30.6867 32.84 30.6867H15.1034C14.31 30.6867 13.63 31.3667 13.63 32.16V33.6333C13.63 34.4267 14.31 35.1067 15.1034 35.1067H32.8967ZM18.8434 24L19.6367 23.2067C19.8634 22.98 20.2034 22.98 20.43 23.2067L22.47 25.2467L27.57 20.1467C27.7967 19.92 28.1367 19.92 28.3634 20.1467L29.1567 20.94C29.3267 21.1667 29.3267 21.5633 29.1567 21.7333L23.32 27.6833C23.0934 27.91 22.81 28.0233 22.5267 28.0233C22.2434 28.0233 21.96 27.91 21.7334 27.6833L18.9 24.85C18.6167 24.5667 18.6167 24.2267 18.8434 24ZM32.8967 17.37C33.69 17.37 34.37 16.69 34.37 15.8967H34.3134V14.3667C34.3134 13.5733 33.6334 12.8933 32.84 12.8933H15.1034C14.31 12.8933 13.63 13.5733 13.63 14.3667V15.8967C13.63 16.69 14.31 17.37 15.1034 17.37H32.8967Z" fill="white"/>
</g>
</svg>
