<svg width="48" height="48" viewBox="0 0 48 48" fill="none" xmlns="http://www.w3.org/2000/svg">
<rect width="48" height="48" rx="4" fill="#7E8BE4"/>
<mask id="mask0_1518_27898" style="mask-type:luminance" maskUnits="userSpaceOnUse" x="0" y="0" width="48" height="48">
<rect width="48" height="48" rx="4" fill="white"/>
</mask>
<g mask="url(#mask0_1518_27898)">
<path fill-rule="evenodd" clip-rule="evenodd" d="M12.1567 7H35.8434C38.28 7 40.2634 8.98333 40.2067 11.42V36.5233C40.2067 38.96 38.2234 40.9433 35.7867 40.9433H12.1567C9.72003 40.9433 7.73669 38.96 7.73669 36.5233V11.42C7.73669 8.98333 9.72003 7 12.1567 7ZM32.8967 35.1067C33.69 35.1067 34.37 34.4267 34.37 33.6333H34.3134V32.16C34.3134 31.3667 33.6334 30.6867 32.84 30.6867H15.1034C14.31 30.6867 13.63 31.3667 13.63 32.16V33.6333C13.63 34.4267 14.31 35.1067 15.1034 35.1067H32.8967ZM34.37 24.7367C34.37 25.53 33.69 26.21 32.8967 26.21H15.1034C14.31 26.21 13.63 25.53 13.63 24.7367V23.2633C13.63 22.47 14.31 21.79 15.1034 21.79H32.84C33.6334 21.79 34.3134 22.47 34.3134 23.2633V24.7367H34.37ZM32.8967 17.37C33.69 17.37 34.37 16.69 34.37 15.8967H34.3134V14.3667C34.3134 13.5733 33.6334 12.8933 32.84 12.8933H15.1034C14.31 12.8933 13.63 13.5733 13.63 14.3667V15.8967C13.63 16.69 14.31 17.37 15.1034 17.37H32.8967Z" fill="white"/>
</g>
</svg>
