<svg width="48" height="48" viewBox="0 0 48 48" fill="none" xmlns="http://www.w3.org/2000/svg">
<rect width="48" height="48" rx="4" fill="#56AADF"/>
<mask id="mask0_1518_27904" style="mask-type:luminance" maskUnits="userSpaceOnUse" x="0" y="0" width="48" height="48">
<rect width="48" height="48" rx="4" fill="white"/>
</mask>
<g mask="url(#mask0_1518_27904)">
<path d="M30.4599 16.7475C30.5733 17.1442 30.8566 17.4275 31.2533 17.5409L32.4999 17.8809C32.7266 17.9375 33.0099 17.8242 33.1233 17.5975L35.7866 13.0075C36.4099 11.9309 36.0699 11.5342 34.9366 12.1575L30.3466 14.8209C30.1199 14.9342 30.0066 15.2175 30.0633 15.4442L30.4599 16.7475Z" fill="white"/>
<path d="M14.8767 17.5971C14.99 17.8238 15.2734 17.9371 15.5 17.8805L16.7467 17.5405C17.1434 17.4271 17.4267 17.1438 17.54 16.7471L17.88 15.5005C17.9367 15.2738 17.8234 14.9905 17.5967 14.8771L13.0067 12.2138C11.93 11.5905 11.5334 11.9305 12.1567 13.0638L14.8767 17.5971Z" fill="white"/>
<path d="M33.1234 30.4032C33.01 30.1766 32.7267 30.0632 32.5 30.1199L31.2534 30.4599C30.8567 30.5732 30.5734 30.8566 30.46 31.2532L30.12 32.4999C30.0634 32.7266 30.1767 33.0099 30.4034 33.1232L34.9934 35.7866C36.07 36.4099 36.4667 36.0699 35.8434 34.9366L33.1234 30.4032Z" fill="white"/>
<path d="M17.54 31.2532C17.4266 30.8566 17.1433 30.5732 16.7466 30.4599L15.5 30.1199C15.2733 30.0632 14.99 30.1766 14.8766 30.4032L12.2133 34.9932C11.59 36.0699 11.93 36.4666 13.0633 35.8432L17.6533 33.1799C17.88 33.0666 17.9933 32.7832 17.9366 32.5566L17.54 31.2532Z" fill="white"/>
<path fill-rule="evenodd" clip-rule="evenodd" d="M28.4767 20.3171L40.0933 23.4338C41.2833 23.7171 41.2833 24.2838 40.0933 24.5671L28.5333 27.6838C28.1367 27.7971 27.8533 28.0805 27.74 28.4771L24.6233 40.0938C24.2833 41.2838 23.7733 41.2838 23.4333 40.0938L20.3167 28.5338C20.2033 28.1371 19.92 27.8538 19.5233 27.7405L7.90666 24.6238C6.71666 24.2838 6.71666 23.7738 7.90666 23.4338L19.4667 20.3171C19.8633 20.2038 20.1467 19.9205 20.26 19.5238L23.3767 7.90715C23.7167 6.71715 24.2267 6.71715 24.5667 7.90715L27.6833 19.5238C27.7967 19.9205 28.08 20.2038 28.4767 20.3171ZM21.1667 24.0005C21.1667 25.5871 22.4133 26.8338 24 26.8338C25.5867 26.8338 26.8333 25.5871 26.8333 24.0005C26.8333 22.4138 25.5867 21.1671 24 21.1671C22.4133 21.1671 21.1667 22.4138 21.1667 24.0005Z" fill="white"/>
</g>
</svg>
