<svg width="48" height="48" viewBox="0 0 48 48" fill="none" xmlns="http://www.w3.org/2000/svg">
<rect width="48" height="48" rx="4" fill="#56AAD0"/>
<mask id="mask0_1518_27906" style="mask-type:luminance" maskUnits="userSpaceOnUse" x="0" y="0" width="48" height="48">
<rect width="48" height="48" rx="4" fill="white"/>
</mask>
<g mask="url(#mask0_1518_27906)">
<path fill-rule="evenodd" clip-rule="evenodd" d="M35.5033 15.1033H39.9799C40.2633 15.1033 40.5466 15.33 40.5466 15.3867V15.5L39.6399 18.9C39.5833 19.1833 39.3566 19.3533 39.0733 19.3533H34.3133L32.1033 27.9667H36.7499C37.0899 27.9667 37.3166 28.25 37.3166 28.5333V28.6467L36.4099 32.0467C36.3533 32.33 36.1266 32.5 35.8433 32.5H30.9133L28.9299 40.2633C28.8733 40.5467 28.6466 40.7167 28.3633 40.7167H24.7933C24.4533 40.7167 24.2266 40.4333 24.2266 40.15V40.0367L26.1533 32.5567H17.2566L15.2733 40.32C15.2166 40.6033 14.9899 40.7733 14.7066 40.7733H11.1366C10.7966 40.7733 10.5699 40.49 10.5699 40.2067V40.0933L12.4966 32.6133H7.96327C7.62327 32.6133 7.39661 32.33 7.39661 32.0467V31.9333L8.30327 28.5333C8.41661 28.3067 8.58661 28.1367 8.86994 28.1367H13.6866L15.8966 19.5233H11.1933C10.8533 19.5233 10.6266 19.24 10.6266 18.9567V18.8433L11.5333 15.4433C11.6466 15.2167 11.8166 15.0467 12.0999 15.0467H17.0866L19.0699 7.45333C19.1266 7.22667 19.3533 7 19.6366 7H23.2066C23.5466 7 23.7733 7.28333 23.7733 7.56667V7.73667L21.8466 15.1033H30.7999L32.7266 7.45333C32.7833 7.22667 33.0099 7 33.2933 7H36.8633C37.2033 7 37.4299 7.28333 37.4299 7.56667V7.73667L35.5033 15.1033ZM18.4466 28.25H27.3999L29.5533 19.6367H20.6566L18.4466 28.25Z" fill="white"/>
</g>
</svg>
