<svg width="48" height="48" viewBox="0 0 48 48" fill="none" xmlns="http://www.w3.org/2000/svg">
<rect width="48" height="48" rx="4" fill="#4B8B44"/>
<mask id="mask0_1518_27908" style="mask-type:luminance" maskUnits="userSpaceOnUse" x="0" y="0" width="48" height="48">
<rect width="48" height="48" rx="4" fill="white"/>
</mask>
<g mask="url(#mask0_1518_27908)">
<path d="M14.3573 31.9707L12.5737 34.033H16.1409L14.3573 31.9707Z" fill="white"/>
<path d="M16.0294 36.2068H19.5966L17.813 34.1445L16.0294 36.2068Z" fill="white"/>
<path d="M30.2983 34.7576L32.0819 32.6953L33.8656 34.7576H30.2983Z" fill="white"/>
<path fill-rule="evenodd" clip-rule="evenodd" d="M23.554 7.66838C23.8327 7.50117 24.2229 7.50117 24.5016 7.66838C34.5344 11.9044 40.9442 21.77 40.6655 32.6389V35.0356C40.6655 35.4258 40.4426 35.7602 40.1639 35.9831C35.5934 39.1044 30.1868 40.7766 24.6688 40.9995H24.6131H24.0557C18.3147 40.9438 12.6295 39.1602 7.83601 35.9831C7.50158 35.7602 7.33437 35.4258 7.33437 35.0356V32.6389C7.16716 21.77 13.577 11.9044 23.554 7.66838ZM24.0557 10.0651C24.0557 10.0651 19.5409 11.6815 15.4721 16.4749C13.0754 19.3733 10.9016 23.2749 10.0655 28.5143L12.9081 28.4028L20.6557 17.0881C20.6713 17.0724 20.687 17.048 20.7051 17.0197C20.7515 16.9472 20.8141 16.8495 20.9344 16.8094C21.4917 16.4192 22.2163 16.5864 22.6065 17.0881L26.4524 22.6061L27.8458 20.5995C27.8615 20.5839 27.8771 20.5594 27.8953 20.5311C27.9417 20.4587 28.0043 20.3609 28.1245 20.3208C28.6819 19.9307 29.4065 20.0979 29.7967 20.5995L35.259 28.4585H38.1016C35.9689 15.3426 25.9311 10.8969 24.2338 10.1451C24.1567 10.111 24.0968 10.0845 24.0557 10.0651ZM32.3606 28.5143H29.0721H25.2819L27.1213 25.8946L28.7934 23.4421L32.3606 28.5143ZM25.1147 24.7241L22.3278 20.711L21.6032 19.7635L18.5934 24.2225L15.7508 28.4585H21.7704H22.495L25.1147 24.7241ZM25.0032 36.8749L23.9999 38.6585C21.9376 38.6585 20.0426 38.3799 17.8688 37.8782C15.0262 37.1536 12.2393 35.9831 9.78683 34.4782V32.7503C9.78683 32.193 9.78683 31.5799 9.84257 30.911H15.0819H22.1606C21.2131 32.3602 21.659 34.311 23.1639 35.2028C23.2688 35.2378 23.3518 35.2947 23.4266 35.3461L23.4267 35.3461C23.471 35.3765 23.5125 35.405 23.554 35.4258L24.6688 35.9274C25.0032 36.0389 25.1147 36.4848 25.0032 36.8749ZM32.695 37.0421C34.6458 36.429 36.5409 35.4815 38.3803 34.3667H38.3245V32.5831C38.3245 32.2335 38.3093 31.899 38.2948 31.5799C38.2815 31.2885 38.2688 31.0098 38.2688 30.7438H27.3442H25.1704L24.1672 31.9143C24.1672 31.9143 24.1114 32.0258 24.1114 32.0815C23.9442 32.4717 24.1114 32.8618 24.5016 33.029L25.6163 33.5307C25.6506 33.5991 25.7268 33.6255 25.7935 33.6486C25.8354 33.6632 25.8735 33.6764 25.895 33.6979C27.4557 34.5897 27.9573 36.4848 27.0655 37.9897L26.8426 38.3799C26.8691 38.3774 26.8958 38.375 26.9225 38.3726C27.5136 38.3191 28.1535 38.2611 28.7934 38.1012C29.9639 37.8782 31.0786 37.5995 32.1934 37.2094C32.3049 37.2094 32.695 37.0421 32.695 37.0421Z" fill="white"/>
</g>
</svg>
