<svg width="48" height="48" viewBox="0 0 48 48" fill="none" xmlns="http://www.w3.org/2000/svg">
<rect width="48" height="48" rx="4" fill="#B8C3CE"/>
<mask id="mask0_1518_27617" style="mask-type:luminance" maskUnits="userSpaceOnUse" x="0" y="0" width="48" height="48">
<rect width="48" height="48" rx="4" fill="white"/>
</mask>
<g mask="url(#mask0_1518_27617)">
<path opacity="0.15" d="M24.9107 7H23.0893C22.6036 7 22.1786 7.425 22.1786 7.91071V15.8036C22.1786 16.2893 22.6036 16.7143 23.0893 16.7143H24.9107C25.3964 16.7143 25.8214 16.2893 25.8214 15.8036V7.91071C25.8214 7.425 25.3964 7 24.9107 7Z" fill="white"/>
<path opacity="0.15" d="M40.0893 22.1787H32.1965C31.7108 22.1787 31.2858 22.6037 31.2858 23.0894V24.9109C31.2858 25.3966 31.7108 25.8216 32.1965 25.8216H40.0893C40.5751 25.8216 41.0001 25.3966 41.0001 24.9109V23.0894C41.0001 22.6037 40.5751 22.1787 40.0893 22.1787Z" fill="white"/>
<path opacity="0.15" d="M24.9107 31.2856H23.0893C22.6036 31.2856 22.1786 31.7106 22.1786 32.1964V40.0892C22.1786 40.5749 22.6036 40.9999 23.0893 40.9999H24.9107C25.3964 40.9999 25.8214 40.5749 25.8214 40.0892V32.1964C25.8214 31.7106 25.3964 31.2856 24.9107 31.2856Z" fill="white"/>
<path opacity="0.15" d="M16.7143 24.9109V23.0894C16.7143 22.6037 16.2893 22.1787 15.8036 22.1787H7.91071C7.425 22.1787 7 22.6037 7 23.0894V24.9109C7 25.3966 7.425 25.8216 7.91071 25.8216H15.8036C16.2893 25.8216 16.7143 25.3966 16.7143 24.9109Z" fill="white"/>
<path opacity="0.15" d="M29.7678 19.5071C30.1321 19.8714 30.6785 19.8714 31.0428 19.5071L36.6285 13.9214C36.9928 13.5571 36.9928 13.0106 36.6285 12.6464L35.3535 11.3714C34.9892 11.0071 34.4428 11.0071 34.0785 11.3714L28.4928 16.9571C28.1285 17.3214 28.1285 17.8678 28.4928 18.2321L29.7678 19.5071Z" fill="white"/>
<path opacity="0.15" d="M31.1036 28.4929C30.7393 28.1287 30.1929 28.1287 29.8286 28.4929L28.5536 29.7679C28.1893 30.1322 28.1893 30.6787 28.5536 31.0429L34.1393 36.6287C34.5036 36.9929 35.05 36.9929 35.4143 36.6287L36.6893 35.3537C37.0536 34.9894 37.0536 34.4429 36.6893 34.0787L31.1036 28.4929Z" fill="white"/>
<path opacity="0.15" d="M18.2322 28.4929C17.8679 28.1287 17.3215 28.1287 16.9572 28.4929L11.3715 34.0787C11.0072 34.4429 11.0072 34.9894 11.3715 35.3537L12.6465 36.6287C13.0108 36.9929 13.5572 36.9929 13.9215 36.6287L19.5072 31.0429C19.8715 30.6787 19.8715 30.1322 19.5072 29.7679L18.2322 28.4929Z" fill="white"/>
<path opacity="0.15" d="M13.9215 11.3108C13.5572 10.9465 13.0108 10.9465 12.6465 11.3108L11.3715 12.5858C11.0072 12.9501 11.0072 13.4965 11.3715 13.8608L16.9572 19.4465C17.3215 19.8108 17.8679 19.8108 18.2322 19.4465L19.5072 18.1715C19.8715 17.8072 19.8715 17.2608 19.5072 16.8965L13.9215 11.3108Z" fill="white"/>
</g>
</svg>
