<svg width="48" height="48" viewBox="0 0 48 48" fill="none" xmlns="http://www.w3.org/2000/svg">
<rect width="48" height="48" rx="4" fill="#54698D"/>
<mask id="mask0_1518_27619" style="mask-type:luminance" maskUnits="userSpaceOnUse" x="0" y="0" width="48" height="48">
<rect width="48" height="48" rx="4" fill="white"/>
</mask>
<g mask="url(#mask0_1518_27619)">
<path fill-rule="evenodd" clip-rule="evenodd" d="M30.8548 24.1093C29.5387 24.1093 27.6193 24.3286 25.8096 25.6996L25.5903 25.7545C25.541 25.8037 25.4806 25.853 25.4141 25.9073L25.4141 25.9073C25.3327 25.9738 25.2421 26.0478 25.1516 26.1383C24.2377 26.9984 23.4819 28.0693 22.8326 28.9894L22.8326 28.9894L22.7935 29.0448C22.5741 29.3738 22.4645 29.7028 22.3548 30.0319V25.6448H18.5709C18.8451 30.4706 20.3258 34.3641 22.0258 36.119C21.4774 36.7222 20.929 37.4899 20.7096 38.4222C20.6 38.9706 20.5451 39.519 20.6548 40.0674C13.1967 38.477 7.54834 31.8416 7.54834 23.9448C7.54834 14.8964 14.9516 7.49316 24 7.49316C33.0483 7.49316 40.4516 14.8964 40.4516 23.9448H40.0677H39.0258C38.7241 23.9448 38.4225 23.9585 38.1209 23.9722C37.8193 23.9859 37.5177 23.9996 37.2161 23.9996C36.6677 24.0545 36.229 24.0545 35.7354 24.0545L30.8548 24.1093ZM32.7193 22.4093H37.0516C36.5032 18.1867 33.9806 14.5674 30.3612 12.5383C31.6774 15.1157 32.5548 18.5157 32.7193 22.4093ZM25.6451 11.6061C27.5096 13.1964 29.1548 17.2545 29.429 22.4093H25.6451V11.6061ZM22.3548 22.4093V11.6061C20.4903 13.1964 18.8451 17.2545 18.5709 22.4093H22.3548ZM10.9483 25.6996H15.2806C15.4451 29.5932 16.3225 32.9932 17.6387 35.5706C14.0193 33.5416 11.4967 29.9222 10.9483 25.6996ZM10.9483 22.4093H15.2806C15.5 18.5157 16.3225 15.1157 17.6387 12.5383C14.0193 14.5674 11.4967 18.1867 10.9483 22.4093Z" fill="white"/>
<path d="M23.0676 35.132C23.287 34.9675 23.4515 34.7481 23.616 34.6384C23.7805 34.4191 23.9999 34.1997 24.1644 33.9804C23.287 33.5965 22.6289 32.8287 22.3547 31.8965V35.8449C22.6289 35.5158 22.8483 35.2965 23.0676 35.132Z" fill="white"/>
<path d="M40.287 26.9064C40.1773 26.7968 40.0677 26.7419 39.958 26.7419C38.587 26.6871 37.1612 26.7968 35.7903 26.7968L30.9096 26.8516C29.429 26.8516 28.2225 27.1806 27.0709 28.2226C26.358 28.8806 25.6451 29.8129 25.0967 30.6355C25.0419 30.7451 24.987 30.8548 24.987 30.9645C24.987 31.2935 25.2612 31.5129 25.5354 31.5129C25.8644 31.5129 25.9193 31.2935 26.0838 31.0742C26.2483 30.8548 26.4128 30.6355 26.6322 30.4161C27.3999 29.7032 28.4419 29.3193 29.429 29.429C28.5515 31.8419 27.3451 34.5839 25.5903 36.5032C24.8773 37.2709 23.6161 38.0935 23.3419 39.1903C23.0677 40.3419 24.2193 40.6161 25.0967 40.2871C26.1935 39.8484 26.8515 38.6968 27.4548 37.7645C28.1128 36.558 28.7709 35.2968 29.2644 34.0355C29.8128 32.7742 30.3612 31.5129 30.8548 30.2516C31.1838 29.4839 31.2935 29.4839 32.0612 29.4839H34.1999C33.4322 31.2387 32.6644 32.9935 31.9515 34.8032C31.4032 36.1742 30.4161 38.1484 31.129 39.629C31.8419 41.1097 33.7612 40.5613 34.8032 39.7935C35.8999 39.0258 36.558 37.8193 37.1612 36.6677C37.2709 36.4484 37.3806 36.229 37.2709 35.9548C37.1612 35.7355 36.9967 35.6258 36.7773 35.6258C36.2838 35.6258 36.1741 36.229 36.0096 36.558C35.7354 37.1613 35.0773 37.7097 34.3644 37.6C32.7741 37.3806 34.1999 34.4742 34.4741 33.7064C34.7483 32.8839 35.0773 32.1161 35.4612 31.3484C35.6806 30.9097 35.8451 30.4161 36.0644 29.9774C36.3386 29.429 36.3386 29.429 36.9967 29.3742C37.5451 29.3742 39.1354 29.6484 39.629 29.3193C40.0128 29.0451 40.2322 28.1129 40.4515 27.4C40.4515 27.2355 40.4515 27.0709 40.287 26.9064Z" fill="white"/>
</g>
</svg>
