<svg width="48" height="48" viewBox="0 0 48 48" fill="none" xmlns="http://www.w3.org/2000/svg">
<rect width="48" height="48" rx="4" fill="#56AADF"/>
<mask id="mask0_1518_27355" style="mask-type:luminance" maskUnits="userSpaceOnUse" x="0" y="0" width="48" height="48">
<rect width="48" height="48" rx="4" fill="white"/>
</mask>
<g mask="url(#mask0_1518_27355)">
<path d="M10.9667 7C9.09665 7 7.56665 8.53 7.56665 10.4C7.56665 11.42 8.01998 12.3267 8.69998 12.95V38.7333C8.69998 39.98 9.71998 41 10.9667 41C12.2133 41 13.2333 39.98 13.2333 38.7333V12.95C13.9133 12.3267 14.3667 11.42 14.3667 10.4C14.3667 8.53 12.8367 7 10.9667 7Z" fill="white"/>
<path fill-rule="evenodd" clip-rule="evenodd" d="M27.6026 13.3633C31.2186 14.4811 34.8363 15.5993 39.5833 13.12C39.98 12.8934 40.4333 13.1767 40.4333 13.63V29.0434C40.4333 29.44 40.2066 29.78 39.8666 30.0067C35.0184 32.6341 31.3442 31.4977 27.6718 30.3618C24.6912 29.4399 21.7117 28.5184 18.1066 29.61C17.37 29.8367 16.6333 29.27 16.6333 28.5334V13.9134C16.6333 13.46 16.9166 13.0067 17.37 12.8367C21.2818 11.4094 24.4416 12.3861 27.6026 13.3633ZM33.7466 21.1667C34.88 21.1667 35.9566 21.1667 37.0333 20.8834V17.6534C36.2284 17.8228 35.4234 17.8022 34.5948 17.7811C34.3151 17.7739 34.0327 17.7667 33.7466 17.7667H33.6333V21.1667C32.4433 21.1667 31.31 21.1667 30.2333 20.94V17.5967C29.0433 17.37 27.9666 17.1434 26.8333 16.8034V20.2034C26.7483 20.175 26.6775 20.1609 26.6066 20.1467C26.5358 20.1325 26.465 20.1184 26.38 20.09C25.7131 19.9081 25.1597 19.7263 24.659 19.5617C24.2239 19.4187 23.8286 19.2888 23.4333 19.1834V15.7834C23.3942 15.7762 23.3553 15.7691 23.3166 15.7621C22.738 15.6562 22.1935 15.5567 21.45 15.5567C20.9966 15.5567 20.4866 15.6134 20.0333 15.67V19.07C20.4866 19.0134 20.94 18.9567 21.45 18.9567C22.2433 18.9567 22.8666 19.07 23.4333 19.1834V22.4134C22.8666 22.3567 22.1866 22.3 21.45 22.3C20.9966 22.3 20.4866 22.3567 20.0333 22.4134V25.8134C20.4866 25.7567 20.94 25.7 21.45 25.7C22.1866 25.7 22.8666 25.7567 23.4333 25.8134V22.4134C24.4755 22.5622 25.3438 22.8415 26.3808 23.175C26.5279 23.2223 26.6784 23.2707 26.8333 23.32V26.6634L26.8333 26.6634C27.1733 26.7767 27.5133 26.89 27.91 27.0034C28.6466 27.23 29.44 27.4567 30.2333 27.6267V24.2267C31.3666 24.4534 32.5 24.6234 33.6333 24.6234V28.0234H33.7466C34.9933 28.0234 36.0133 27.91 37.0333 27.57V24.2267C35.9566 24.51 34.88 24.5667 33.7466 24.5667H33.6333V21.1667H33.7466Z" fill="white"/>
<path d="M26.8334 20.2033V23.32C27.06 23.3766 27.3434 23.49 27.57 23.5466C28.4767 23.7733 29.3267 24.0566 30.2334 24.2266V20.9966C29.0434 20.7133 27.9667 20.4866 26.8334 20.2033Z" fill="white"/>
</g>
</svg>
