<svg width="40" height="40" viewBox="0 0 40 40" fill="none" xmlns="http://www.w3.org/2000/svg">
<rect width="40" height="40" rx="20" fill="#1DCCBF"/>
<mask id="mask0_1518_28062" style="mask-type:luminance" maskUnits="userSpaceOnUse" x="0" y="0" width="40" height="40">
<rect width="40" height="40" rx="20" fill="white"/>
</mask>
<g mask="url(#mask0_1518_28062)">
<path d="M30.9225 10.6449L28.8654 8.58776C28.0817 7.80408 26.8572 7.80408 26.1225 8.58776L24.5062 10.2041C24.3103 10.4 24.3103 10.6939 24.5062 10.8898L28.6695 15.0531C28.8654 15.249 29.1593 15.249 29.3552 15.0531L30.9715 13.4367C31.7062 12.6531 31.7062 11.4286 30.9225 10.6449Z" fill="white"/>
<path d="M23.1347 12.2612C22.9388 12.0653 22.6449 12.0653 22.449 12.2612L9.66533 25.0449L8.049 30.5796C7.90206 31.1183 8.39186 31.6571 8.93063 31.5102L14.5143 29.9428H14.4653L27.249 17.1592C27.4449 16.9632 27.4449 16.6694 27.249 16.4734L23.1347 12.2612Z" fill="white"/>
</g>
</svg>
