<svg width="40" height="40" viewBox="0 0 40 40" fill="none" xmlns="http://www.w3.org/2000/svg">
<rect width="40" height="40" rx="20" fill="#34BECD"/>
<mask id="mask0_1518_28058" style="mask-type:luminance" maskUnits="userSpaceOnUse" x="0" y="0" width="40" height="40">
<rect width="40" height="40" rx="20" fill="white"/>
</mask>
<g mask="url(#mask0_1518_28058)">
<path d="M26.5633 22.449C26.4653 22.351 26.2694 22.351 26.1715 22.449L20.4409 28.1796L19.6082 31.0204C19.5102 31.3143 19.8041 31.5592 20.098 31.5102L22.9878 30.6775L28.7184 24.9469C28.8164 24.849 28.8164 24.653 28.7184 24.5551L26.5633 22.449Z" fill="white"/>
<path d="M31.4612 20.7347L30.3836 19.6572C29.9918 19.2653 29.3551 19.2653 28.9632 19.6572C28.9632 19.6572 28.3265 20.2939 27.9836 20.6857C27.8857 20.7837 27.8857 20.9796 27.9836 21.0776L30.0408 23.1347C30.1387 23.2327 30.3346 23.2327 30.4326 23.1347C30.7755 22.7919 31.4612 22.1551 31.4612 22.1551C31.853 21.7633 31.853 21.1265 31.4612 20.7347Z" fill="white"/>
<path d="M20 13.7306C20 14.8082 19.7061 15.8367 19.1184 16.7184C18.9224 17.0122 19.0204 17.4531 19.3632 17.649C20.4408 18.1878 21.6653 18.8735 22.351 20.049C22.449 20.2449 22.6939 20.2939 22.8898 20.2939H24.2612C25.1428 20.2939 25.7306 19.7061 25.7306 18.7755C25.6816 17.4041 24.3102 16.5714 22.8408 15.9347C21.8122 15.4939 21.6653 15.102 21.6653 14.6612C21.6653 14.2204 21.9592 13.8286 22.302 13.4857C22.8898 12.9469 23.2326 12.1633 23.2326 11.2327C23.1837 9.46939 22.1551 8 20.3428 8C19.2653 8 18.4326 8.53878 17.9918 9.32245C19.2163 10.2531 20 11.8204 20 13.7306Z" fill="white"/>
<path d="M20.7347 21.8612C20.6857 20.2939 19.1184 19.6082 17.4531 18.8735C16.3265 18.3837 16.1306 17.9429 16.1306 17.4531C16.1306 16.9633 16.4245 16.4735 16.8163 16.1306C17.5021 15.4939 17.8449 14.6123 17.8449 13.5837C17.8449 11.6735 16.7184 10.0082 14.6612 10.0082C14.6123 10.0082 14.6123 10.0082 14.5633 10.0082C14.5143 10.0082 14.5143 10.0082 14.4653 10.0082C12.4082 10.0082 11.2816 11.6735 11.2816 13.5837C11.2816 14.6123 11.6245 15.4939 12.3102 16.1306C12.702 16.4735 12.9959 16.9633 12.9959 17.4531C12.9959 17.9429 12.8 18.3837 11.6735 18.8735C10.0082 19.6082 8.44083 20.3429 8.39185 21.8612C8.4898 22.8898 9.2245 23.6735 10.2041 23.6735H12.2612H17.0123H19.0204C20 23.6735 20.7347 22.8898 20.7347 21.8612Z" fill="white"/>
</g>
</svg>
