<svg width="48" height="48" viewBox="0 0 48 48" fill="none" xmlns="http://www.w3.org/2000/svg">
<g clip-path="url(#clip0_1456_1994)">
<mask id="mask0_1456_1994" style="mask-type:alpha" maskUnits="userSpaceOnUse" x="0" y="0" width="48" height="48">
<path d="M44 0H4C1.79086 0 0 1.79086 0 4V44C0 46.2091 1.79086 48 4 48H44C46.2091 48 48 46.2091 48 44V4C48 1.79086 46.2091 0 44 0Z" fill="white"/>
</mask>
<g mask="url(#mask0_1456_1994)">
<path d="M44 0H4C1.79086 0 0 1.79086 0 4V44C0 46.2091 1.79086 48 4 48H44C46.2091 48 48 46.2091 48 44V4C48 1.79086 46.2091 0 44 0Z" fill="#00847C"/>
</g>
<path fill-rule="evenodd" clip-rule="evenodd" d="M14.5596 30.0404L8.84803 24.2942C8.64034 24.0865 8.64034 23.7404 8.84803 23.5327L9.60957 22.7712C9.81726 22.5635 10.1634 22.5635 10.3711 22.7712L14.6634 27.0981C14.8019 27.2365 15.0442 27.2365 15.1826 27.0981L23.5942 18.6173C23.8019 18.4096 24.148 18.4096 24.3557 18.6173L25.1173 19.3788C25.325 19.5865 25.325 19.9327 25.1173 20.1404L15.3211 30.0404C15.1134 30.2827 14.7673 30.2827 14.5596 30.0404Z" fill="white"/>
<path fill-rule="evenodd" clip-rule="evenodd" d="M39.4615 25.25C39.4615 25.65 39.273 26 39.0576 26H26.9423C26.7269 26 26.5384 25.65 26.5384 25.25V23.75C26.5384 23.35 26.7269 23 26.9423 23H39.0576C39.273 23 39.4615 23.35 39.4615 23.75V25.25Z" fill="white"/>
</g>
<defs>
<clipPath id="clip0_1456_1994">
<rect width="48" height="48" fill="white"/>
</clipPath>
</defs>
</svg>
