<svg width="48" height="48" viewBox="0 0 48 48" fill="none" xmlns="http://www.w3.org/2000/svg">
<rect width="48" height="48" rx="4" fill="#5876A3"/>
<mask id="mask0_1518_27337" style="mask-type:luminance" maskUnits="userSpaceOnUse" x="0" y="0" width="48" height="48">
<rect width="48" height="48" rx="4" fill="white"/>
</mask>
<g mask="url(#mask0_1518_27337)">
<path d="M22.718 31.7475H39.3836C39.9967 31.7475 40.4984 32.2492 40.4984 32.8623V35.0918C40.4984 35.7049 39.9967 36.2066 39.3836 36.2066H22.718C22.1049 36.2066 21.6033 35.7049 21.6033 35.0918V32.8623C21.6033 32.2492 22.1049 31.7475 22.718 31.7475Z" fill="white"/>
<path d="M22.718 21.7705H39.3836C39.9967 21.7705 40.4984 22.2721 40.4984 22.8852V25.1148C40.4984 25.7279 39.9967 26.2295 39.3836 26.2295H22.718C22.1049 26.2295 21.6033 25.7279 21.6033 25.1148V22.8852C21.6033 22.2721 22.1049 21.7705 22.718 21.7705Z" fill="white"/>
<path d="M22.718 11.8492H39.3836C39.9967 11.8492 40.4984 12.3508 40.4984 12.9639V15.1934C40.4984 15.8066 39.9967 16.3082 39.3836 16.3082H22.718C22.1049 16.3082 21.6033 15.8066 21.6033 15.1934V12.9639C21.6033 12.3508 22.1049 11.8492 22.718 11.8492Z" fill="white"/>
<path d="M12.0164 11.8492C10.7901 11.8492 9.78687 12.8525 9.78687 14.0787C9.78687 15.3049 10.7901 16.3082 12.0164 16.3082C13.2426 16.3082 14.2459 15.3049 14.2459 14.0787C14.2459 12.8525 13.2426 11.8492 12.0164 11.8492Z" fill="white"/>
<path d="M12.0164 31.7475C10.7901 31.7475 9.78687 32.7508 9.78687 33.9771C9.78687 35.2033 10.7901 36.2066 12.0164 36.2066C13.2426 36.2066 14.2459 35.2033 14.2459 33.9771C14.2459 32.7508 13.2426 31.7475 12.0164 31.7475Z" fill="white"/>
<path fill-rule="evenodd" clip-rule="evenodd" d="M7 24C7 21.2131 9.22951 18.9836 12.0164 18.9836C14.8033 18.9836 17.0328 21.2131 17.0328 24C17.0328 26.7869 14.8033 29.0164 12.0164 29.0164C9.22951 29.0164 7 26.7869 7 24ZM10.3443 24C10.3443 24.8918 11.0689 25.6721 12.0164 25.6721C12.9639 25.6721 13.6885 24.9475 13.6885 24C13.6885 23.1082 12.9082 22.3279 12.0164 22.3279C11.1246 22.3279 10.3443 23.0525 10.3443 24Z" fill="white"/>
</g>
</svg>
