<svg width="48" height="48" viewBox="0 0 48 48" fill="none" xmlns="http://www.w3.org/2000/svg">
<rect width="48" height="48" rx="4" fill="#54698D"/>
<mask id="mask0_1518_27425" style="mask-type:luminance" maskUnits="userSpaceOnUse" x="0" y="0" width="48" height="48">
<rect width="48" height="48" rx="4" fill="white"/>
</mask>
<g mask="url(#mask0_1518_27425)">
<path d="M27.9666 20.8834C27.1166 20.8834 26.4366 20.2034 26.4366 19.3534V9.55002C26.4366 8.70002 27.1166 8.02002 27.9666 8.02002H37.94C38.79 8.02002 39.47 8.70002 39.47 9.55002V19.3534C39.47 20.2034 38.79 20.8834 37.94 20.8834H27.9666Z" fill="white"/>
<path d="M32.2734 26.6632L26.4368 32.9532C26.0968 33.2932 26.0968 33.9166 26.4368 34.2566L32.2734 40.5466C32.6701 40.9432 33.2934 40.9432 33.6901 40.5466L39.5268 34.2566C39.8668 33.9166 39.8668 33.2932 39.5268 32.9532L33.6901 26.6632C33.2934 26.2666 32.6134 26.2666 32.2734 26.6632Z" fill="white"/>
<path d="M14.82 39.9799C18.4504 39.9799 21.3934 37.0369 21.3934 33.4066C21.3934 29.7762 18.4504 26.8333 14.82 26.8333C11.1897 26.8333 8.2467 29.7762 8.2467 33.4066C8.2467 37.0369 11.1897 39.9799 14.82 39.9799Z" fill="white"/>
<path d="M9.04004 10.2299L14.0834 7.33994C14.5367 7.05661 15.1034 7.05661 15.6134 7.33994L20.6567 10.2299C21.11 10.5133 21.3934 11.0233 21.3934 11.5333V17.3133C21.3934 17.8233 21.11 18.3333 20.6567 18.6166L15.6134 21.5066C15.16 21.7899 14.5934 21.7899 14.0834 21.5066L9.04004 18.6166C8.5867 18.3333 8.2467 17.8233 8.2467 17.3133V11.5333C8.2467 10.9666 8.5867 10.4566 9.04004 10.2299Z" fill="white"/>
</g>
</svg>
