<svg width="48" height="48" viewBox="0 0 48 48" fill="none" xmlns="http://www.w3.org/2000/svg">
<rect width="48" height="48" rx="4" fill="#F2CF5B"/>
<mask id="mask0_1518_27433" style="mask-type:luminance" maskUnits="userSpaceOnUse" x="0" y="0" width="48" height="48">
<rect width="48" height="48" rx="4" fill="white"/>
</mask>
<g mask="url(#mask0_1518_27433)">
<path fill-rule="evenodd" clip-rule="evenodd" d="M7 24.0001C7 15.3608 14.4689 8.39355 23.7213 8.39355C32.9738 8.39355 40.4426 15.3608 40.4984 24.0001C40.4984 32.6395 33.0295 39.6067 23.7771 39.6067C20.5443 39.6067 17.5344 38.7706 14.9705 37.2657C14.6918 37.0985 14.3574 37.0427 14.023 37.1542L9.11803 38.8821C8.22623 39.1608 7.39016 38.3804 7.66885 37.4886L9.22951 32.528C9.34098 32.2493 9.28525 31.9149 9.11803 31.6362C7.78033 29.3509 7 26.787 7 24.0001ZM23.2197 29.0722L31.7475 20.5444C32.082 20.2657 32.082 19.7083 31.7475 19.3739L30.577 18.2034C30.2426 17.869 29.741 17.869 29.4066 18.2034L22.0492 25.5608L19.0951 22.6067C18.7607 22.2722 18.259 22.2722 17.9246 22.6067L16.7541 23.7772C16.4197 24.1116 16.4197 24.6132 16.7541 24.9477L20.8787 29.0722C21.2131 29.4067 21.6033 29.5739 22.0492 29.5739C22.4951 29.5739 22.8852 29.4067 23.2197 29.0722Z" fill="white"/>
</g>
</svg>
