<svg width="48" height="48" viewBox="0 0 48 48" fill="none" xmlns="http://www.w3.org/2000/svg">
<rect width="48" height="48" rx="4" fill="#F2CF5B"/>
<mask id="mask0_1518_27431" style="mask-type:luminance" maskUnits="userSpaceOnUse" x="0" y="0" width="48" height="48">
<rect width="48" height="48" rx="4" fill="white"/>
</mask>
<g mask="url(#mask0_1518_27431)">
<path d="M36.0243 33.5366C35.5682 33.5366 35.1951 33.9098 35.1951 34.3659V34.7805H36.8536V34.3659C36.8536 33.9098 36.4804 33.5366 36.0243 33.5366Z" fill="white" fill-opacity="0.65"/>
<path fill-rule="evenodd" clip-rule="evenodd" d="M40.5853 24.4148V40.1709H24.8292L40.5853 24.4148ZM37.8902 38.0977C38.2219 38.0977 38.5122 37.8075 38.5122 37.4758V35.4026C38.5122 35.0709 38.2219 34.7806 37.8902 34.7806H37.6829V34.366C37.6829 33.4538 36.9365 32.7075 36.0243 32.7075C35.1122 32.7075 34.3658 33.4538 34.3658 34.366V34.7806H34.1585C33.8268 34.7806 33.5365 35.0709 33.5365 35.4026V37.4758C33.5365 37.8075 33.8268 38.0977 34.1585 38.0977H37.8902Z" fill="white" fill-opacity="0.65"/>
<path fill-rule="evenodd" clip-rule="evenodd" d="M7.37317 19.4391C7.37317 13.0123 12.9293 7.82935 19.8122 7.82935C26.7366 7.82935 32.2512 13.0123 32.2927 19.4391C32.2927 25.8659 26.7366 31.0489 19.8537 31.0489C17.4488 31.0489 15.2098 30.4269 13.3024 29.3074C13.0951 29.183 12.8463 29.1415 12.5976 29.2245L8.94878 30.5098C8.28536 30.7172 7.66341 30.1367 7.87073 29.4732L9.03171 25.783C9.11463 25.5757 9.07317 25.3269 8.94878 25.1196C7.95366 23.4196 7.37317 21.5123 7.37317 19.4391ZM19.4805 23.2123L25.8244 16.8684C26.0317 16.6611 26.0317 16.2464 25.8244 15.9976L24.9537 15.1269C24.7049 14.8781 24.3317 14.8781 24.0829 15.1269L18.6098 20.6001L16.4122 18.4025C16.1634 18.1537 15.7902 18.1537 15.5415 18.4025L14.6707 19.2732C14.4219 19.522 14.4219 19.8952 14.6707 20.144L17.739 23.2123C17.9878 23.4611 18.278 23.5854 18.6098 23.5854C18.9415 23.5854 19.2317 23.4611 19.4805 23.2123Z" fill="white"/>
</g>
</svg>
