<svg width="48" height="48" viewBox="0 0 48 48" fill="none" xmlns="http://www.w3.org/2000/svg">
<rect width="48" height="48" rx="4" fill="#54698D"/>
<mask id="mask0_1518_27435" style="mask-type:luminance" maskUnits="userSpaceOnUse" x="0" y="0" width="48" height="48">
<rect width="48" height="48" rx="4" fill="white"/>
</mask>
<g mask="url(#mask0_1518_27435)">
<path d="M23.8355 18.516L31.5129 10.8386C31.8968 10.4547 31.8968 9.79667 31.5129 9.4128L29.8678 7.76764C29.4839 7.38377 28.8258 7.38377 28.4419 7.76764L20.7645 15.4451L23.8355 18.516Z" fill="white"/>
<path d="M32.2807 27.1806L39.9581 19.5032C40.342 19.1193 40.342 18.4612 39.9581 18.0774L38.3129 16.4322C37.9291 16.0483 37.271 16.0483 36.8871 16.4322L29.2097 24.1096L32.2807 27.1806Z" fill="white"/>
<path d="M31.1839 33.5419C31.2935 33.3774 31.4032 33.2129 31.458 32.9935C31.5129 32.7193 31.458 32.4451 31.2935 32.2258C31.2387 32.171 31.2387 32.1161 31.1839 32.0613L31.129 32.0064L15.6645 16.5419L15.6097 16.4871C15.4451 16.2677 15.1161 16.2129 14.8968 16.2129C14.5677 16.2129 14.3484 16.3774 14.129 16.5419C13.9645 16.6516 13.8548 16.7613 13.7451 16.9258C13.6355 17.0355 13.5806 17.0903 13.5258 17.2C13.4161 17.3097 13.3613 17.4193 13.2516 17.529C13.1419 17.6935 13.0322 17.8032 12.9774 17.9677C12.8677 18.1322 12.758 18.2968 12.7032 18.5161C12.5935 18.7355 12.4839 18.9548 12.3742 19.1193C12.2645 19.3387 12.1548 19.6129 12.1 19.8322C11.9903 20.1064 11.8806 20.3806 11.8258 20.6548C11.7161 20.9839 11.6613 21.3129 11.5516 21.5871C11.4419 21.971 11.3871 22.3 11.3322 22.6839C11.2774 23.0677 11.1677 23.5064 11.1129 23.8903C11.058 24.329 11.0032 24.7677 10.9484 25.2064C10.8935 25.7 10.8935 26.1935 10.8387 26.6871C10.8387 27.2355 10.8387 27.7839 10.8387 28.3322C10.8387 28.9355 10.8387 29.5387 10.8935 30.1419C10.9484 30.8 10.9484 31.4581 11.0032 32.1161C11.0032 32.2806 11.058 32.5 11.058 32.6645H11.1677L7.60321 36.229C7.21934 36.6129 7.21934 37.271 7.60321 37.6548L10.1258 40.1774C10.5097 40.5613 11.1677 40.5613 11.5516 40.1774L15.1161 36.6129C16.3774 36.7226 17.6935 36.8322 19.0097 36.8322C20.1064 36.8322 21.1484 36.8322 22.2451 36.7226C23.1226 36.6677 24 36.5581 24.8774 36.3935C25.5903 36.2839 26.3032 36.1193 26.9613 35.9C27.5097 35.7355 28.058 35.5161 28.5516 35.2968C28.9355 35.1322 29.3742 34.9129 29.7032 34.6935C30.1968 34.3645 30.6903 34.0355 31.0742 33.5968C31.0742 33.6516 31.129 33.5968 31.1839 33.5419Z" fill="white"/>
</g>
</svg>
