<svg width="48" height="48" viewBox="0 0 48 48" fill="none" xmlns="http://www.w3.org/2000/svg">
<rect width="48" height="48" rx="4" fill="#54698D"/>
<mask id="mask0_1518_27437" style="mask-type:luminance" maskUnits="userSpaceOnUse" x="0" y="0" width="48" height="48">
<rect width="48" height="48" rx="4" fill="white"/>
</mask>
<g mask="url(#mask0_1518_27437)">
<path d="M39.8667 33.9167H20.8267C20.26 33.9167 19.75 34.4267 19.75 34.9934V37.0901C19.75 37.6567 20.26 38.1667 20.8267 38.1667H39.8667C40.4333 38.1667 40.9433 37.6567 40.9433 37.0901V34.9934C40.9433 34.3701 40.4333 33.9167 39.8667 33.9167Z" fill="white"/>
<path d="M23.5466 21.0533L9.88994 10.06C9.49328 9.72001 8.81328 9.77667 8.47328 10.2867L7.28328 11.9867C6.94328 12.4967 7.05661 13.12 7.50994 13.46L17.1999 21.2233C17.5399 21.5067 17.5399 22.0733 17.1999 22.3567L7.45328 30.1767C7.05661 30.5167 6.88661 31.2533 7.22661 31.65L8.41661 33.4633C8.75661 33.9733 9.37994 34.03 9.83328 33.69L23.5466 22.7533C24.1133 22.3 24.1133 21.45 23.5466 21.0533Z" fill="white"/>
</g>
</svg>
