<svg width="48" height="48" viewBox="0 0 48 48" fill="none" xmlns="http://www.w3.org/2000/svg">
<rect width="48" height="48" rx="4" fill="#FCB95B"/>
<mask id="mask0_1518_27439" style="mask-type:luminance" maskUnits="userSpaceOnUse" x="0" y="0" width="48" height="48">
<rect width="48" height="48" rx="4" fill="white"/>
</mask>
<g mask="url(#mask0_1518_27439)">
<path d="M30.4098 12.0165H13.4098C12.4623 12.0165 11.682 12.7968 11.682 13.7444V30.7444H9.11803C7.94754 30.7444 7 29.7968 7 28.6264V9.39684C7 8.22635 7.94754 7.27881 9.11803 7.27881H28.3475C29.518 7.27881 30.4656 8.22635 30.4656 9.39684V12.0165H30.4098Z" fill="white"/>
<path d="M19.1509 17.3674H38.3804C39.5509 17.3674 40.4984 18.315 40.4984 19.4855V38.715C40.4984 39.8855 39.5509 40.833 38.3804 40.833H19.1509C17.9804 40.833 17.0328 39.8855 17.0328 38.715V19.4297C17.0328 18.315 17.9804 17.3674 19.1509 17.3674Z" fill="white"/>
</g>
</svg>
