<svg width="48" height="48" viewBox="0 0 48 48" fill="none" xmlns="http://www.w3.org/2000/svg">
<rect width="48" height="48" rx="4" fill="#50CC7A"/>
<mask id="mask0_1518_27441" style="mask-type:luminance" maskUnits="userSpaceOnUse" x="0" y="0" width="48" height="48">
<rect width="48" height="48" rx="4" fill="white"/>
</mask>
<g mask="url(#mask0_1518_27441)">
<path d="M37.377 26.5083H31.2459C29.4066 26.5083 27.9016 25.0034 27.9016 23.164C28.1803 18.2034 30.4656 17.9247 30.6885 14.7476C30.9115 11.4034 28.7934 8.39352 25.5049 7.66893C21.1574 6.77712 17.3115 10.0656 17.3115 14.246C17.3115 17.9247 19.8197 17.9247 20.0984 23.164C20.0984 25.0034 18.5934 26.5083 16.7541 26.5083H10.6229C8.7836 26.5083 7.27869 28.0132 7.27869 29.8525V32.082C7.27869 32.6952 7.78033 33.1968 8.39344 33.1968H39.6066C40.2197 33.1968 40.7213 32.6952 40.7213 32.082V29.8525C40.7213 28.0132 39.2164 26.5083 37.377 26.5083Z" fill="white"/>
<path d="M37.4328 36.541H10.5672C9.95408 36.541 9.50818 37.0427 9.50818 37.6V37.6558C9.50818 39.4951 11.0131 41 12.8524 41H35.2033C37.0426 41 38.4918 39.4951 38.4918 37.6558V37.6C38.4918 37.0427 37.9901 36.541 37.4328 36.541Z" fill="white"/>
</g>
</svg>
