<svg width="48" height="48" viewBox="0 0 48 48" fill="none" xmlns="http://www.w3.org/2000/svg">
<rect width="48" height="48" rx="4" fill="#3C97DD"/>
<mask id="mask0_1518_27445" style="mask-type:luminance" maskUnits="userSpaceOnUse" x="0" y="0" width="48" height="48">
<rect width="48" height="48" rx="4" fill="white"/>
</mask>
<g mask="url(#mask0_1518_27445)">
<path d="M13.8 7H9.26667C8.02 7 7 8.02 7 9.26667V13.8C7 15.0467 8.02 16.0667 9.26667 16.0667H13.8C15.0467 16.0667 16.0667 15.0467 16.0667 13.8V9.26667C16.0667 8.02 15.0467 7 13.8 7Z" fill="white"/>
<path d="M26.2667 7H21.7333C20.4867 7 19.4667 8.02 19.4667 9.26667V13.8C19.4667 15.0467 20.4867 16.0667 21.7333 16.0667H26.2667C27.5133 16.0667 28.5333 15.0467 28.5333 13.8V9.26667C28.5333 8.02 27.5133 7 26.2667 7Z" fill="white"/>
<path d="M38.7333 7H34.2C32.9533 7 31.9333 8.02 31.9333 9.26667V13.8C31.9333 15.0467 32.9533 16.0667 34.2 16.0667H38.7333C39.98 16.0667 41 15.0467 41 13.8V9.26667C41 8.02 39.98 7 38.7333 7Z" fill="white"/>
<path d="M13.8 19.4666H9.26667C8.02 19.4666 7 20.4866 7 21.7332V26.2666C7 27.5132 8.02 28.5332 9.26667 28.5332H13.8C15.0467 28.5332 16.0667 27.5132 16.0667 26.2666V21.7332C16.0667 20.4866 15.0467 19.4666 13.8 19.4666Z" fill="white"/>
<path d="M26.2667 19.4666H21.7333C20.4867 19.4666 19.4667 20.4866 19.4667 21.7332V26.2666C19.4667 27.5132 20.4867 28.5332 21.7333 28.5332H26.2667C27.5133 28.5332 28.5333 27.5132 28.5333 26.2666V21.7332C28.5333 20.4866 27.5133 19.4666 26.2667 19.4666Z" fill="white"/>
<path d="M38.7333 19.4666H34.2C32.9533 19.4666 31.9333 20.4866 31.9333 21.7332V26.2666C31.9333 27.5132 32.9533 28.5332 34.2 28.5332H38.7333C39.98 28.5332 41 27.5132 41 26.2666V21.7332C41 20.4866 39.98 19.4666 38.7333 19.4666Z" fill="white"/>
<path d="M13.8 31.9333H9.26667C8.02 31.9333 7 32.9533 7 34.2V38.7333C7 39.98 8.02 41 9.26667 41H13.8C15.0467 41 16.0667 39.98 16.0667 38.7333V34.2C16.0667 32.9533 15.0467 31.9333 13.8 31.9333Z" fill="white"/>
<path d="M26.2667 31.9333H21.7333C20.4867 31.9333 19.4667 32.9533 19.4667 34.2V38.7333C19.4667 39.98 20.4867 41 21.7333 41H26.2667C27.5133 41 28.5333 39.98 28.5333 38.7333V34.2C28.5333 32.9533 27.5133 31.9333 26.2667 31.9333Z" fill="white"/>
<path d="M38.7333 31.9333H34.2C32.9533 31.9333 31.9333 32.9533 31.9333 34.2V38.7333C31.9333 39.98 32.9533 41 34.2 41H38.7333C39.98 41 41 39.98 41 38.7333V34.2C41 32.9533 39.98 31.9333 38.7333 31.9333Z" fill="white"/>
</g>
</svg>
