<svg width="48" height="48" viewBox="0 0 48 48" fill="none" xmlns="http://www.w3.org/2000/svg">
<rect width="48" height="48" rx="4" fill="#FA975C"/>
<mask id="mask0_1518_27449" style="mask-type:luminance" maskUnits="userSpaceOnUse" x="0" y="0" width="48" height="48">
<rect width="48" height="48" rx="4" fill="white"/>
</mask>
<g mask="url(#mask0_1518_27449)">
<path fill-rule="evenodd" clip-rule="evenodd" d="M29.7967 14.9148C34.0328 17.0328 36.9869 21.3803 36.9869 26.3967V26.6197C39.3279 27.2885 41 29.4623 40.8885 31.9705C40.8885 35.0361 38.3803 37.5443 35.3148 37.5443C34.0328 37.5443 32.9181 37.0984 31.9705 36.4295C29.7967 38.1574 27.0656 39.1607 24.1672 39.1607C21.2689 39.1607 18.5377 38.1017 16.364 36.4295C15.4164 37.1541 14.2459 37.5443 13.0197 37.5443C9.95412 37.5443 7.44592 35.0361 7.44592 31.9705C7.44592 29.4066 9.17379 27.2885 11.459 26.6197V26.3967C11.459 21.3803 14.4131 16.9771 18.6492 14.9148V14.4131C18.6492 11.3476 21.1574 8.83936 24.223 8.83936C27.2885 8.83936 29.7967 11.3476 29.7967 14.4131V14.9148ZM18.7049 31.9705C18.7049 32.8623 18.482 33.6984 18.0918 34.4787C19.8197 35.7607 21.9377 36.5967 24.2787 36.5967C26.6197 36.5967 28.7377 35.8164 30.4656 34.4787C30.0754 33.6984 29.8525 32.8623 29.8525 31.9705C29.8525 29.2394 31.859 26.9541 34.4787 26.5082V26.3967C34.4787 22.4951 32.2492 19.0951 29.0164 17.3672C28.0131 18.9279 26.2853 19.9869 24.2787 19.9869C22.2722 19.9869 20.5443 18.9279 19.541 17.3672C16.3082 19.0951 14.0787 22.4951 14.0787 26.3967V26.5082C16.6984 26.9541 18.7049 29.2394 18.7049 31.9705Z" fill="white"/>
</g>
</svg>
