<svg width="48" height="48" viewBox="0 0 48 48" fill="none" xmlns="http://www.w3.org/2000/svg">
<g clip-path="url(#clip0_1518_28002)">
<mask id="mask0_1518_28002" style="mask-type:alpha" maskUnits="userSpaceOnUse" x="0" y="0" width="48" height="48">
<path d="M44 0H4C1.79086 0 0 1.79086 0 4V44C0 46.2091 1.79086 48 4 48H44C46.2091 48 48 46.2091 48 44V4C48 1.79086 46.2091 0 44 0Z" fill="white"/>
</mask>
<g mask="url(#mask0_1518_28002)">
<path d="M44 0H4C1.79086 0 0 1.79086 0 4V44C0 46.2091 1.79086 48 4 48H44C46.2091 48 48 46.2091 48 44V4C48 1.79086 46.2091 0 44 0Z" fill="#317A92"/>
<path d="M23.4536 33.6529C23.4603 31.7118 24.0762 29.8218 25.2143 28.2493H14.3464C14.1984 28.2603 14.0529 28.2063 13.948 28.1014C13.843 27.9964 13.789 27.8509 13.8 27.7029V27.1565C13.789 27.0084 13.843 26.863 13.948 26.758C14.0529 26.6531 14.1984 26.599 14.3464 26.61H26.6107C27.1459 26.1178 27.7368 25.6899 28.3714 25.335C28.3107 25.2743 28.3107 25.2136 28.3107 25.0922V17.3815C28.2997 17.2334 28.3537 17.088 28.4587 16.983C28.5636 16.8781 28.7091 16.824 28.8571 16.835H29.8893C30.0373 16.824 30.1828 16.8781 30.2877 16.983C30.3927 17.088 30.4467 17.2334 30.4357 17.3815V24.6065C32.3554 24.032 34.4147 24.1393 36.2643 24.91V8.69933C36.2545 7.89868 35.6078 7.25201 34.8071 7.24219H9.61071C8.81005 7.25201 8.16339 7.89868 8.15356 8.69933V33.8958C8.16339 34.6964 8.81005 35.3431 9.61071 35.3529H12.8286V36.8708C12.8384 37.6714 13.4851 38.3181 14.2857 38.3279H15.9857C16.7864 38.3181 17.433 37.6714 17.4429 36.8708V35.3529H23.6964C23.5225 34.8034 23.4405 34.2291 23.4536 33.6529ZM20.1143 25.2136C20.1253 25.3616 20.0713 25.5071 19.9663 25.6121C19.8614 25.717 19.7159 25.7711 19.5679 25.76H18.5357C18.3877 25.7711 18.2422 25.717 18.1372 25.6121C18.0323 25.5071 17.9783 25.3616 17.9893 25.2136V17.3815C17.9783 17.2334 18.0323 17.088 18.1372 16.983C18.2422 16.8781 18.3877 16.824 18.5357 16.835H19.5679C19.7159 16.824 19.8614 16.8781 19.9663 16.983C20.0713 17.088 20.1253 17.2334 20.1143 17.3815V25.2136ZM24.7893 25.2136C24.8003 25.3616 24.7463 25.5071 24.6413 25.6121C24.5364 25.717 24.3909 25.7711 24.2428 25.76H22.1786C22.0305 25.7711 21.8851 25.717 21.7801 25.6121C21.6751 25.5071 21.6211 25.3616 21.6321 25.2136V17.3815C21.6211 17.2334 21.6751 17.088 21.7801 16.983C21.8851 16.8781 22.0305 16.824 22.1786 16.835H24.2428C24.3909 16.824 24.5364 16.8781 24.6413 16.983C24.7463 17.088 24.8003 17.2334 24.7893 17.3815V25.2136ZM26.7929 25.2136C26.7929 25.5154 26.5482 25.76 26.2464 25.76C25.9446 25.76 25.7 25.5154 25.7 25.2136V17.3815C25.7 17.1863 25.8041 17.0059 25.9732 16.9083C26.1423 16.8106 26.3506 16.8106 26.5196 16.9083C26.6887 17.0059 26.7929 17.1863 26.7929 17.3815V25.2136ZM13.8607 14.7708C13.8497 14.6227 13.9037 14.4773 14.0087 14.3723C14.1136 14.2673 14.2591 14.2133 14.4071 14.2243H30.0107C30.1587 14.2133 30.3042 14.2673 30.4092 14.3723C30.5141 14.4773 30.5681 14.6227 30.5571 14.7708V15.3172C30.5681 15.4652 30.5141 15.6107 30.4092 15.7156C30.3042 15.8206 30.1587 15.8746 30.0107 15.8636H14.3464C14.1984 15.8746 14.0529 15.8206 13.948 15.7156C13.843 15.6107 13.789 15.4652 13.8 15.3172V14.7708H13.8607ZM13.8607 17.3815C13.8497 17.2334 13.9037 17.088 14.0087 16.983C14.1136 16.8781 14.2591 16.824 14.4071 16.835H16.4714C16.6194 16.824 16.7649 16.8781 16.8699 16.983C16.9748 17.088 17.0289 17.2334 17.0178 17.3815V25.2136C17.0289 25.3616 16.9748 25.5071 16.8699 25.6121C16.7649 25.717 16.6194 25.7711 16.4714 25.76H14.4071C14.2591 25.7711 14.1136 25.717 14.0087 25.6121C13.9037 25.5071 13.8497 25.3616 13.8607 25.2136V17.3815Z" fill="white"/>
<path d="M33.7749 33.7743C33.7076 33.6636 33.6661 33.5391 33.6535 33.41V30.4958C33.6642 30.2464 33.4771 30.0325 33.2285 30.01H32.3178C32.0692 30.0325 31.8821 30.2464 31.8928 30.4958V34.1386C31.9054 34.2676 31.9469 34.3921 32.0142 34.5029L34.2606 36.7493C34.3378 36.8359 34.4483 36.8853 34.5642 36.8853C34.6802 36.8853 34.7906 36.8359 34.8678 36.7493L35.5356 36.0815C35.7193 35.8967 35.7193 35.5983 35.5356 35.4136L33.7749 33.7743ZM32.8035 26.3672C28.7797 26.4007 25.545 29.6898 25.5785 33.7136C25.612 37.7374 28.9011 40.9721 32.9249 40.9386C36.925 40.9053 40.1499 37.6531 40.1499 33.6529C40.11 29.6221 36.8345 26.3736 32.8035 26.3672ZM32.8035 39.1172C29.7857 39.1172 27.3392 36.6707 27.3392 33.6529C27.3392 30.6351 29.7857 28.1886 32.8035 28.1886C35.8213 28.1886 38.2678 30.6351 38.2678 33.6529C38.2776 35.1051 37.705 36.5006 36.6781 37.5275C35.6513 38.5544 34.2557 39.127 32.8035 39.1172Z" fill="white"/>
</g>
</g>
<defs>
<clipPath id="clip0_1518_28002">
<rect width="48" height="48" fill="white"/>
</clipPath>
</defs>
</svg>
