<svg width="48" height="48" viewBox="0 0 48 48" fill="none" xmlns="http://www.w3.org/2000/svg">
<g clip-path="url(#clip0_1518_27958)">
<mask id="mask0_1518_27958" style="mask-type:alpha" maskUnits="userSpaceOnUse" x="0" y="0" width="48" height="48">
<path d="M44 0H4C1.79086 0 0 1.79086 0 4V44C0 46.2091 1.79086 48 4 48H44C46.2091 48 48 46.2091 48 44V4C48 1.79086 46.2091 0 44 0Z" fill="white"/>
</mask>
<g mask="url(#mask0_1518_27958)">
<path d="M44 0H4C1.79086 0 0 1.79086 0 4V44C0 46.2091 1.79086 48 4 48H44C46.2091 48 48 46.2091 48 44V4C48 1.79086 46.2091 0 44 0Z" fill="#317A92"/>
<path d="M23.4536 33.6529C23.4603 31.7118 24.0762 29.8218 25.2143 28.2493H14.3464C14.1984 28.2603 14.0529 28.2063 13.948 28.1014C13.843 27.9964 13.789 27.8509 13.8 27.7029V27.1565C13.789 27.0084 13.843 26.863 13.948 26.758C14.0529 26.6531 14.1984 26.599 14.3464 26.61H26.6107C27.1459 26.1178 27.7368 25.6899 28.3714 25.335C28.3107 25.2743 28.3107 25.2136 28.3107 25.0922V17.3815C28.2997 17.2334 28.3537 17.088 28.4587 16.983C28.5636 16.8781 28.7091 16.824 28.8571 16.835H29.8893C30.0373 16.824 30.1828 16.8781 30.2877 16.983C30.3927 17.088 30.4467 17.2334 30.4357 17.3815V24.6065C32.3554 24.032 34.4147 24.1393 36.2643 24.91V8.69933C36.2545 7.89868 35.6078 7.25201 34.8071 7.24219H9.61071C8.81005 7.25201 8.16339 7.89868 8.15356 8.69933V33.8958C8.16339 34.6964 8.81005 35.3431 9.61071 35.3529H12.8286V36.8708C12.8384 37.6714 13.4851 38.3181 14.2857 38.3279H15.9857C16.7864 38.3181 17.433 37.6714 17.4429 36.8708V35.3529H23.6964C23.5225 34.8034 23.4405 34.2291 23.4536 33.6529ZM20.1143 25.2136C20.1253 25.3616 20.0713 25.5071 19.9663 25.6121C19.8614 25.717 19.7159 25.7711 19.5679 25.76H18.5357C18.3877 25.7711 18.2422 25.717 18.1372 25.6121C18.0323 25.5071 17.9783 25.3616 17.9893 25.2136V17.3815C17.9783 17.2334 18.0323 17.088 18.1372 16.983C18.2422 16.8781 18.3877 16.824 18.5357 16.835H19.5679C19.7159 16.824 19.8614 16.8781 19.9663 16.983C20.0713 17.088 20.1253 17.2334 20.1143 17.3815V25.2136ZM24.7893 25.2136C24.8003 25.3616 24.7463 25.5071 24.6413 25.6121C24.5364 25.717 24.3909 25.7711 24.2428 25.76H22.1786C22.0305 25.7711 21.8851 25.717 21.7801 25.6121C21.6751 25.5071 21.6211 25.3616 21.6321 25.2136V17.3815C21.6211 17.2334 21.6751 17.088 21.7801 16.983C21.8851 16.8781 22.0305 16.824 22.1786 16.835H24.2428C24.3909 16.824 24.5364 16.8781 24.6413 16.983C24.7463 17.088 24.8003 17.2334 24.7893 17.3815V25.2136ZM26.7929 25.2136C26.7929 25.5154 26.5482 25.76 26.2464 25.76C25.9446 25.76 25.7 25.5154 25.7 25.2136V17.3815C25.7 17.1863 25.8041 17.0059 25.9732 16.9083C26.1423 16.8106 26.3506 16.8106 26.5196 16.9083C26.6887 17.0059 26.7929 17.1863 26.7929 17.3815V25.2136ZM13.8607 14.7708C13.8497 14.6227 13.9037 14.4773 14.0087 14.3723C14.1136 14.2673 14.2591 14.2133 14.4071 14.2243H30.0107C30.1587 14.2133 30.3042 14.2673 30.4092 14.3723C30.5141 14.4773 30.5681 14.6227 30.5571 14.7708V15.3172C30.5681 15.4652 30.5141 15.6107 30.4092 15.7156C30.3042 15.8206 30.1587 15.8746 30.0107 15.8636H14.3464C14.1984 15.8746 14.0529 15.8206 13.948 15.7156C13.843 15.6107 13.789 15.4652 13.8 15.3172V14.7708H13.8607ZM13.8607 17.3815C13.8497 17.2334 13.9037 17.088 14.0087 16.983C14.1136 16.8781 14.2591 16.824 14.4071 16.835H16.4714C16.6194 16.824 16.7649 16.8781 16.8699 16.983C16.9748 17.088 17.0289 17.2334 17.0178 17.3815V25.2136C17.0289 25.3616 16.9748 25.5071 16.8699 25.6121C16.7649 25.717 16.6194 25.7711 16.4714 25.76H14.4071C14.2591 25.7711 14.1136 25.717 14.0087 25.6121C13.9037 25.5071 13.8497 25.3616 13.8607 25.2136V17.3815Z" fill="white"/>
<path d="M32.8643 26.3672C28.8332 26.3736 25.5577 29.6221 25.5178 33.6529C25.5178 37.6531 28.7428 40.9053 32.7428 40.9386C36.7666 40.9721 40.0557 37.7374 40.0893 33.7136C40.1228 29.6898 36.888 26.4007 32.8643 26.3672ZM37.7214 33.9565L34.5035 37.235C34.4264 37.3216 34.3159 37.3711 34.2 37.3711C34.084 37.3711 33.9736 37.3216 33.8964 37.235C33.6792 37.0264 33.4763 36.8032 33.2892 36.5672C33.2027 36.49 33.1532 36.3796 33.1532 36.2636C33.1532 36.1477 33.2027 36.0372 33.2892 35.96L34.2607 34.9279C34.3524 34.854 34.3864 34.7296 34.345 34.6193C34.3037 34.509 34.1963 34.4376 34.0785 34.4422H28.1893C27.9609 34.4274 27.779 34.2455 27.7642 34.0172V33.1065C27.7609 32.9927 27.8045 32.8827 27.885 32.8022C27.9654 32.7218 28.0755 32.6781 28.1893 32.6815H34.0785C34.1928 32.6791 34.294 32.6073 34.3341 32.5003C34.3743 32.3933 34.3452 32.2727 34.2607 32.1958L33.2892 31.285C33.2027 31.2079 33.1532 31.0974 33.1532 30.9815C33.1532 30.8655 33.2027 30.7551 33.2892 30.6779L33.8964 30.0708C33.9736 29.9842 34.084 29.9347 34.2 29.9347C34.3159 29.9347 34.4264 29.9842 34.5035 30.0708L37.7214 33.41C37.808 33.4742 37.859 33.5755 37.859 33.6833C37.859 33.791 37.808 33.8924 37.7214 33.9565Z" fill="white"/>
</g>
</g>
<defs>
<clipPath id="clip0_1518_27958">
<rect width="48" height="48" fill="white"/>
</clipPath>
</defs>
</svg>
