<svg width="26" height="26" viewBox="0 0 26 26" fill="none" xmlns="http://www.w3.org/2000/svg">
<path fill-rule="evenodd" clip-rule="evenodd" d="M14.45 21.5V24C14.45 24.55 14 25 13.45 25H12.45C11.9 25 11.45 24.55 11.45 24V21.5C11.45 21.2 11.7 21.05 11.95 21.1C11.95 21.1 12.45 21.25 12.95 21.25C13.45 21.25 14 21.1 14 21.1C14.3 21.05 14.5 21.25 14.45 21.5ZM5.5 5.4V2C5.5 1.45 5.05 1 4.5 1H3.5C2.95 1 2.5 1.45 2.5 2V5.4C1.6 5.9 1 6.9 1 8C1 9.65 2.35 11 4 11C5.65 11 7 9.65 7 8C7 6.9 6.4 5.9 5.5 5.4ZM5 13.1C5 13.1 4.45 13.25 3.95 13.25C3.45 13.25 2.95 13.1 2.95 13.1C2.7 13.05 2.45 13.2 2.45 13.5V24C2.45 24.55 2.9 25 3.45 25H4.45C5 25 5.45 24.55 5.45 24V13.5C5.5 13.2 5.3 13.05 5 13.1ZM23 15.1C23 15.1 22.45 15.25 21.95 15.25C21.45 15.25 20.95 15.1 20.95 15.1C20.7 15.05 20.45 15.2 20.45 15.5V24C20.45 24.55 20.9 25 21.45 25H22.45C23 25 23.45 24.55 23.45 24V15.5C23.5 15.25 23.3 15.05 23 15.1ZM23.5 7.4V2C23.5 1.45 23.05 1 22.5 1H21.5C20.95 1 20.5 1.45 20.5 2V7.4C19.6 7.9 19 8.9 19 10C19 11.65 20.35 13 22 13C23.65 13 25 11.65 25 10C25 8.9 24.4 7.9 23.5 7.4ZM14.5 13.4V2C14.5 1.45 14.05 1 13.5 1H12.5C11.95 1 11.5 1.45 11.5 2V13.4C10.6 13.9 10 14.9 10 16C10 17.65 11.35 19 13 19C14.65 19 16 17.65 16 16C16 14.9 15.4 13.9 14.5 13.4Z" fill="#706E6B"/>
</svg>
