<svg width="26" height="26" viewBox="0 0 26 26" fill="none" xmlns="http://www.w3.org/2000/svg">
<path fill-rule="evenodd" clip-rule="evenodd" d="M11.6 5.1C9.05 2.55 5 1.75 1.45 2.85C1.3 2.85 1.1 3.1 1.1 3.5V5.45C1.1 5.85 1.45 5.95 1.65 5.9C4.35 4.8 7.65 5.3 9.8 7.55L10.35 8.1C10.65 8.4 10.4 8.95 10 8.95H6.1C5.7 8.95 5.35 9.25 5.35 9.7V11.2C5.35 11.6 5.65 11.95 6.1 11.95L15.7 12.05C16.1 12.05 16.45 11.75 16.45 11.3L16.5 1.75C16.5 1.35 16.2 1 15.75 1H14.25C13.85 1 13.45 1.3 13.45 1.7L13.4 5.65C13.4 6.05 12.85 6.3 12.55 6C12.6 6.05 11.6 5.1 11.6 5.1ZM1.75 13.9H3.25C3.65 13.9 4 14.25 4 14.65V21.25C4 21.65 4.35 22 4.75 22H21.25C21.65 22 22 21.65 22 21.25V8.45C22 8.05 21.65 7.7 21.25 7.7H19.25C18.85 7.7 18.5 7.35 18.5 6.95V5.45C18.5 5.05 18.85 4.7 19.25 4.7H23C24.1 4.7 25 5.6 25 6.7V23C25 24.1 24.1 25 23 25H3C1.9 25 1 24.1 1 23V14.65C1 14.25 1.35 13.9 1.75 13.9Z" fill="#706E6B"/>
</svg>
