<svg width="26" height="26" viewBox="0 0 26 26" fill="none" xmlns="http://www.w3.org/2000/svg">
<path fill-rule="evenodd" clip-rule="evenodd" d="M8.60005 5.8H17.4C17.85 5.8 18.2 5.45 18.2 5V3.4C18.2 2.1 17.1 1 15.8 1H10.2C8.90005 1 7.80005 2.1 7.80005 3.4V5C7.80005 5.45 8.15005 5.8 8.60005 5.8ZM21.8 3H21C20.75 3 20.6 3.15 20.6 3.4V5C20.6 6.75 19.15 8.2 17.4 8.2H8.60005C6.85005 8.2 5.40005 6.75 5.40005 5V3.4C5.40005 3.15 5.25005 3 5.00005 3H4.20005C2.90005 3 1.80005 4.1 1.80005 5.4V22.6C1.80005 23.9 2.90005 25 4.20005 25H21.8C23.1 25 24.2 23.9 24.2 22.6V5.4C24.2 4.1 23.1 3 21.8 3ZM18.75 22.05L18.25 22.55C18.1 22.7 17.9 22.7 17.75 22.55L14.5 19.3C13.55 19.95 12.4 20.3 11.15 20.1C9.05005 19.8 7.40005 18.05 7.20005 15.95C6.90005 13.05 9.35005 10.6 12.25 10.9C14.4 11.1 16.1 12.75 16.4 14.85C16.6 16.1 16.25 17.3 15.6 18.2L18.85 21.45C18.9 21.65 18.9 21.85 18.75 22.05ZM11.75 12.4C10 12.4 8.60005 13.85 8.60005 15.55C8.60005 17.3 10 18.7 11.75 18.7C13.5 18.7 14.9 17.3 14.9 15.55C14.9 13.8 13.5 12.4 11.75 12.4Z" fill="#706E6B"/>
</svg>
