<svg width="26" height="26" viewBox="0 0 26 26" fill="none" xmlns="http://www.w3.org/2000/svg">
<path fill-rule="evenodd" clip-rule="evenodd" d="M8.60005 5.8H17.4C17.85 5.8 18.2 5.45 18.2 5V3.4C18.2 2.1 17.1 1 15.8 1H10.2C8.90005 1 7.80005 2.1 7.80005 3.4V5C7.80005 5.45 8.15005 5.8 8.60005 5.8ZM21.8 3H21C20.75 3 20.6 3.15 20.6 3.4V5C20.6 6.75 19.15 8.2 17.4 8.2H8.60005C6.85005 8.2 5.40005 6.75 5.40005 5V3.4C5.40005 3.15 5.25005 3 5.00005 3H4.20005C2.90005 3 1.80005 4.1 1.80005 5.4V22.6C1.80005 23.9 2.90005 25 4.20005 25H21.8C23.1 25 24.2 23.9 24.2 22.6V5.4C24.2 4.1 23.1 3 21.8 3ZM17 15.2L10.6 21.6L7.80005 22.4C7.55005 22.45 7.30005 22.2 7.35005 21.95L8.15005 19.2L14.55 12.8C14.65 12.7 14.8 12.7 14.9 12.8L16.95 14.9C17.1 14.95 17.1 15.1 17 15.2ZM18.85 13.35L18.05 14.15C17.95 14.25 17.8 14.25 17.7 14.15L15.6 12.05C15.5 11.95 15.5 11.8 15.6 11.7L16.4 10.9C16.75 10.5 17.4 10.5 17.75 10.9L18.8 11.95C19.25 12.35 19.25 12.95 18.85 13.35Z" fill="#706E6B"/>
</svg>
