<svg width="26" height="26" viewBox="0 0 26 26" fill="none" xmlns="http://www.w3.org/2000/svg">
<path fill-rule="evenodd" clip-rule="evenodd" d="M8.60005 5.8H17.4C17.85 5.8 18.2 5.45 18.2 5V3.4C18.2 2.1 17.1 1 15.8 1H10.2C8.90005 1 7.80005 2.1 7.80005 3.4V5C7.80005 5.45 8.15005 5.8 8.60005 5.8ZM21.8 3H21C20.75 3 20.6 3.15 20.6 3.4V5C20.6 6.75 19.15 8.2 17.4 8.2H8.60005C6.85005 8.2 5.40005 6.75 5.40005 5V3.4C5.40005 3.15 5.25005 3 5.00005 3H4.20005C2.90005 3 1.80005 4.1 1.80005 5.4V22.6C1.80005 23.9 2.90005 25 4.20005 25H21.8C23.1 25 24.2 23.9 24.2 22.6V5.4C24.2 4.1 23.1 3 21.8 3ZM18.85 17.1C18.85 17.3 18.65 17.5 18.45 17.5H14.05C13.9 17.5 13.8 17.6 13.8 17.75V22.15C13.8 22.35 13.6 22.55 13.4 22.55H12.6C12.4 22.55 12.2 22.35 12.2 22.15V17.75C12.2 17.6 12.1 17.5 11.95 17.5H7.55005C7.35005 17.5 7.15005 17.3 7.15005 17.1V16.3C7.15005 16.1 7.35005 15.9 7.55005 15.9H11.95C12.1 15.9 12.2 15.8 12.2 15.65V11.25C12.2 11.05 12.4 10.85 12.6 10.85H13.4C13.6 10.85 13.8 11.05 13.8 11.25V15.65C13.8 15.8 13.9 15.9 14.05 15.9H18.45C18.65 15.9 18.85 16.1 18.85 16.3V17.1Z" fill="#706E6B"/>
</svg>
