<svg width="26" height="26" viewBox="0 0 26 26" fill="none" xmlns="http://www.w3.org/2000/svg">
<path fill-rule="evenodd" clip-rule="evenodd" d="M19.5 17.5L13.9 11.95L13.5 11.55L8.55001 6.6L6.35001 4.4L3.95001 2C3.60001 1.6 3.05001 1.55 2.75001 1.85L1.70001 2.9C1.45001 3.15 1.45001 3.55 1.65001 3.9L21.9 24.2L21.95 24.25C22.3 24.6 22.85 24.65 23.15 24.4L24.2 23.35C24.5 23.05 24.45 22.5 24.05 22.15L21.7 19.8L19.5 17.5ZM12.45 5.5C14.45 5.5 16.35 6.3 17.75 7.7C18 7.9 18.2 8.15 18.35 8.4C18.5 8.8 18.15 9 17.7 9H14.05L17.05 12H23.35C23.7 12 24 11.7 24 11.35V2.25C23.9 1.85 23.55 1.5 23.15 1.5H21.65C21.25 1.5 20.9 1.85 20.9 2.25V5.75C20.9 6.2 20.65 6.4 20.3 6.1C20.15 5.9 20 5.75 19.8 5.6C17.3 3.1 13.8 2.05 10.2 2.75C9.55001 2.9 8.95001 3.05 8.35001 3.35L10.75 5.75C11.25 5.55 11.85 5.5 12.45 5.5ZM13.45 20.7C11.45 20.7 9.55001 19.9 8.15001 18.5C7.90001 18.3 7.70001 18.05 7.55001 17.8C7.40001 17.4 7.75001 17.2 8.20001 17.2H11.7C11.75 17.2 11.8 17.2 11.9 17.15L8.95001 14.2H2.60001C2.25001 14.2 1.95001 14.5 1.95001 14.85V23.95C2.00001 24.35 2.35001 24.7 2.75001 24.7H4.25001C4.65001 24.7 5.00001 24.35 5.00001 23.95V20.45C5.00001 20 5.25001 19.8 5.60001 20.1C5.75001 20.3 5.90001 20.45 6.10001 20.6C8.60001 23.1 12.1 24.15 15.7 23.45C16.35 23.3 16.95 23.15 17.55 22.85L15.15 20.45C14.6 20.6 14.05 20.7 13.45 20.7Z" fill="#706E6B"/>
</svg>
