<svg width="26" height="26" viewBox="0 0 26 26" fill="none" xmlns="http://www.w3.org/2000/svg">
<path d="M21 10C21.4 10 21.7 10.35 21.75 10.75V22.5C21.75 23.9 20.65 25 19.25 25H7.24995C5.84995 25 4.74995 23.9 4.74995 22.5V10.75C4.74995 10.35 5.09995 10 5.49995 10H21ZM17.8 17.2C17.6 16.8 17.15 16.7 16.85 16.9C16.7 17 16.65 17.1 16.55 17.2C16.45 17.4 16.45 17.7 16.55 17.9L17.8 20.05C17.85 20.1 17.9 20.35 17.75 20.65C17.55 20.95 17.15 21 15.85 21V20.25C15.85 20.15 15.85 20.1 15.75 20.05C15.65 20 15.65 20.05 15.55 20.1L13.95 21.5L13.85 21.6C13.85 21.6 13.75 21.75 13.85 21.85L15.35 23.4C15.45 23.5 15.5 23.45 15.55 23.45C15.6 23.45 15.65 23.4 15.65 23.3L15.7 22.4C17.2 22.4 18.2999 22.4 18.9 21.3C19.4499 20.25 19.0499 19.45 19.0499 19.35L17.8 17.2ZM9.74625 16.8007L9.69995 16.8L9.54995 16.85L7.59995 17.35C7.49995 17.4 7.44995 17.4 7.44995 17.5C7.44995 17.6 7.44995 17.65 7.54995 17.7L8.24995 18.2C7.49995 19.5 6.94995 20.4 7.64995 21.5C8.29995 22.5 9.24995 22.5 9.34995 22.5L11.85 22.45C12.25 22.45 12.6 22.1 12.55 21.65C12.55 21.55 12.55 21.4 12.45 21.3C12.35 21.1 12.1 21 11.85 21L9.34995 21.05C9.34995 21.05 9.04995 21 8.84995 20.7C8.64995 20.4 8.74995 20.05 9.44995 18.9L10.1 19.3C10.2 19.35 10.25 19.35 10.35 19.3C10.45 19.25 10.45 19.2 10.45 19.1L9.99995 17.1L9.94995 16.95C9.84995 16.8 9.79995 16.8 9.69995 16.8L9.74625 16.8007ZM13.25 11.75C12.1 11.75 11.6 12.55 11.55 12.65L10.25 14.75C9.99995 15.05 10.15 15.5 10.45 15.7C10.55 15.75 10.7 15.8 10.8 15.8C11.05 15.8 11.3 15.7 11.4 15.5L12.7 13.4C12.75 13.35 12.85 13.15 13.25 13.15C13.6 13.15 13.85 13.45 14.45 14.65L13.75 14.95C13.7 15 13.65 15.05 13.65 15.15C13.65 15.25 13.7 15.3 13.8 15.35L15.85 16.1C15.85 16.1 15.9 16.15 16 16.1C16.05 16.1 16.1 16.05 16.1 16L16.8 13.95C16.85 13.85 16.8 13.8 16.75 13.75C16.7 13.7 16.65 13.65 16.55 13.7L15.75 14.05C15 12.7 14.55 11.75 13.25 11.75ZM14.7 1C15.8 1 16.7 1.9 16.7 3V5H23C23.4 5 23.7 5.35 23.7 5.75V7.25C23.7 7.65 23.35 8 22.95 8H3.44995C3.04995 8 2.69995 7.65 2.69995 7.25V5.75C2.69995 5.35 3.04995 5 3.44995 5H9.69995V3C9.69995 1.9 10.6 1 11.7 1H14.7ZM14.2 3H12.2C11.9 3 11.7 3.2 11.7 3.5V5H14.7V3.5C14.7 3.2 14.5 3 14.2 3Z" fill="#706E6B"/>
</svg>
