<svg width="26" height="26" viewBox="0 0 26 26" fill="none" xmlns="http://www.w3.org/2000/svg">
<path fill-rule="evenodd" clip-rule="evenodd" d="M18.4 6.425H18.75C19.25 6.425 19.25 6.075 18.95 5.775L16.5 3.325C16.2 3.075 16.2 2.575 16.5 2.275L17.55 1.225C17.8 0.925 18.3 0.925 18.6 1.225L25.05 7.675C25.3 7.925 25.3 8.325 25.05 8.575L18.55 15.075C18.25 15.325 17.9 15.325 17.6 15.025L16.5 13.925C16.2 13.625 16.15 13.175 16.45 12.875L18.9 10.425C19.25 10.075 19.35 9.775 18.95 9.575C18.8 9.525 18.4 9.525 18.4 9.525H11.45C7.9 9.525 5.05 12.375 5.05 15.925C5.05 19.475 7.9 22.325 11.45 22.325H15.5C15.9 22.325 16.2 22.675 16.2 23.075V24.675C16.2 25.075 15.95 25.375 15.55 25.375H11.45C6.25 25.375 2 21.175 2 15.925C2 10.675 6.25 6.475 11.45 6.475L18.4 6.425Z" fill="#706E6B"/>
</svg>
