<svg width="26" height="26" viewBox="0 0 26 26" fill="none" xmlns="http://www.w3.org/2000/svg">
<path fill-rule="evenodd" clip-rule="evenodd" d="M18 10C18 8.9 17.1 8 16 8H3C1.9 8 1 8.9 1 10V23C1 24.1 1.9 25 3 25H16C17.1 25 18 24.1 18 23V10ZM14 17C14 17.25 13.75 17.5 13.5 17.5H10.5V20.5C10.5 20.75 10.25 21 10 21H9C8.75 21 8.5 20.75 8.5 20.5V17.5H5.5C5.25 17.5 5 17.25 5 17V16C5 15.75 5.25 15.5 5.5 15.5H8.5V12.5C8.5 12.25 8.75 12 9 12H10C10.25 12 10.5 12.25 10.5 12.5V15.5H13.5C13.75 15.5 14 15.75 14 16V17ZM21.5 21H20V18H21.5C21.8 18 22 17.8 22 17.5V4.5C22 4.2 21.8 4 21.5 4H8.5C8.2 4 8 4.2 8 4.5V6H5V4.5C5 2.55 6.55 1 8.5 1H21.5C23.45 1 25 2.55 25 4.5V17.5C25 19.45 23.45 21 21.5 21Z" fill="#706E6B"/>
</svg>
