<svg width="26" height="26" viewBox="0 0 26 26" fill="none" xmlns="http://www.w3.org/2000/svg">
<path fill-rule="evenodd" clip-rule="evenodd" d="M11.9854 18.3158C11.6854 18.3158 11.3854 18.2658 11.0854 18.1658C10.7854 18.1158 10.4354 18.0158 10.1354 17.9158C9.93542 17.8658 9.73542 17.9158 9.63542 18.0158L9.43542 18.2158C8.18542 19.4658 6.13542 19.6158 4.78542 18.4658C3.33542 17.1658 3.23542 14.9158 4.63542 13.5658L7.93542 10.2658C8.38542 9.81583 8.88542 9.56583 9.43542 9.41583C10.1354 9.21583 10.8854 9.26583 11.5354 9.56583C11.9354 9.71583 12.3354 9.96583 12.6354 10.3158C12.7854 10.4658 12.9354 10.6658 13.0854 10.9158C13.2354 11.2158 13.6354 11.2658 13.8854 11.0158L15.1354 9.76583C15.3354 9.56583 15.3354 9.31583 15.1854 9.11583C14.9854 8.86583 14.7854 8.66583 14.5854 8.41583C14.2854 8.11583 13.8854 7.81583 13.5354 7.56583C12.8854 7.16583 12.2354 6.91583 11.4854 6.76583C10.1354 6.51583 8.68542 6.71583 7.38542 7.41583C6.88542 7.66583 6.43542 8.01583 6.03542 8.41583L2.83542 11.6158C0.535417 13.9158 0.335417 17.6658 2.58542 20.0658C4.93542 22.5658 8.88542 22.6658 11.2854 20.2158L12.3854 19.1158C12.6354 18.8658 12.4354 18.3658 11.9854 18.3158ZM20.2354 11.2658C22.6354 8.86583 22.5854 4.91583 20.0854 2.56583C17.6854 0.365831 13.9354 0.515831 11.6354 2.81583L10.6354 3.81583C10.3354 4.11583 10.5354 4.61583 10.9354 4.66583C11.5354 4.71583 12.1854 4.81583 12.7854 5.01583C12.9854 5.06583 13.1854 5.01583 13.2854 4.91583L13.4854 4.71583C14.7354 3.46583 16.7854 3.31583 18.1354 4.46583C19.5854 5.76583 19.6854 8.01583 18.2854 9.36583L14.9854 12.6658C14.5354 13.1158 14.0354 13.3658 13.4854 13.5158C12.7854 13.7158 12.0354 13.6658 11.3854 13.3658C10.9854 13.2158 10.5854 12.9658 10.2854 12.6158C10.1354 12.4658 9.98542 12.2658 9.88542 12.0658C9.73542 11.7658 9.33542 11.7158 9.08542 11.9658L7.88542 13.1658C7.68542 13.3658 7.68542 13.6158 7.83542 13.8158C8.03542 14.0658 8.18542 14.2658 8.43542 14.5158C8.78542 14.8658 9.13542 15.1158 9.48542 15.3658C10.1354 15.7658 10.7854 16.0158 11.5354 16.1658C12.8854 16.4158 14.3354 16.2158 15.6354 15.5158C16.1354 15.2658 16.5854 14.9158 16.9854 14.5158L20.2354 11.2658ZM22.5354 20.5158L24.8354 18.2158C25.0354 18.0158 25.0354 17.7158 24.8354 17.5158L23.4354 16.1158C23.2354 15.9158 22.9354 15.9158 22.7354 16.1158L20.4854 18.4658L18.3354 16.3158C18.1354 16.1158 17.8354 16.1158 17.6354 16.3158L16.2354 17.7158C16.0354 17.9158 16.0354 18.2158 16.2354 18.4158L18.3854 20.5658L16.2854 22.6658C16.0854 22.8658 16.0854 23.1658 16.2854 23.3658L17.6854 24.7658C17.8854 24.9658 18.1854 24.9658 18.3854 24.7658L20.4854 22.6658L22.7354 24.9158C22.9354 25.1158 23.2354 25.1158 23.4354 24.9158L24.8354 23.5158C25.0354 23.3158 25.0354 23.0158 24.8354 22.8158L22.5354 20.5158Z" fill="#706E6B"/>
</svg>
