<svg width="26" height="26" viewBox="0 0 26 26" fill="none" xmlns="http://www.w3.org/2000/svg">
<path fill-rule="evenodd" clip-rule="evenodd" d="M21 11.5078H5C3.9 11.5078 3 12.4078 3 13.5078V23.0078C3 24.1078 3.9 25.0078 5 25.0078H21C22.1 25.0078 23 24.1078 23 23.0078V13.5078C23 12.4078 22.1 11.5078 21 11.5078ZM15.5 22.2578C14.75 22.7578 13.9 23.0078 13 23.0078C12.7 23.0078 12.4 22.9578 12.1 22.9078C10.9 22.6578 9.9 22.0078 9.25 21.0078L10.9 19.9078C11.25 20.4578 11.85 20.8578 12.5 20.9578C13.15 21.1078 13.8 20.9578 14.4 20.5578C15.55 19.8078 15.85 18.2078 15.1 17.1078C14.75 16.5578 14.15 16.1578 13.5 16.0578C12.85 15.9078 12.2 16.0578 11.6 16.4578C11.45 16.5578 11.35 16.6578 11.25 16.7578L13 18.5078H8.5V14.0078L9.8 15.3078C10 15.1078 10.25 14.9078 10.45 14.7578C11.45 14.1078 12.65 13.8578 13.85 14.0578C15.05 14.3078 16.05 14.9578 16.7 15.9578C18.1 18.0578 17.55 20.8578 15.5 22.2578ZM5 9.05785V9.25784V9.05785ZM5.5 9.50784H7.5C7.8 9.50784 8 9.35785 8 9.05785V9.00784C8 6.15785 10.45 3.80784 13.35 4.00784C16 4.20784 18 6.50784 18 9.20784V9.05785C18 9.35785 18.2 9.50784 18.5 9.50784H20.5C20.8 9.50784 21 9.35785 21 9.05785V9.00784C21 4.45784 17.2 0.807845 12.6 1.00784C8.35 1.20784 5.1 4.80785 5 9.05785C5.05 9.30785 5.25 9.50784 5.5 9.50784Z" fill="#706E6B"/>
</svg>
