<svg width="26" height="26" viewBox="0 0 26 26" fill="none" xmlns="http://www.w3.org/2000/svg">
<path fill-rule="evenodd" clip-rule="evenodd" d="M18.9722 12.0015C15.6222 12.0015 12.9222 14.7515 12.9222 18.1015C12.9222 21.4515 15.6222 24.1515 18.9722 24.1515C22.3222 24.1515 25.0222 21.4015 25.0222 18.1015C25.0222 14.8015 22.3222 12.0015 18.9722 12.0015ZM23.2222 18.7015H18.8222V14.0515C18.8222 14.0515 20.4722 13.9515 21.9722 15.5015C23.4722 17.0515 23.2222 18.7015 23.2222 18.7015ZM11.1222 18.1515C11.1222 16.8015 11.5722 15.2015 12.2722 14.0015C13.1222 12.5015 14.0722 11.9015 14.8222 10.7515C16.0722 8.9015 16.3222 6.2015 15.5222 4.2015C14.7222 2.1515 12.8222 0.951503 10.5722 1.0015C8.37222 1.0515 6.52222 2.4015 5.82222 4.5015C5.02222 6.7515 5.37222 9.5015 7.17222 11.2015C7.92222 11.9015 8.62222 13.0015 8.22222 14.1015C7.87222 15.1015 6.67222 15.5515 5.82222 15.9515C3.87222 16.8015 1.47222 18.0015 1.07222 20.3515C0.672217 22.2515 1.97222 24.2515 4.02222 24.2515H12.5722C12.9722 24.2515 13.2222 23.7515 12.9722 23.4515C11.8222 21.9515 11.1222 20.1015 11.1222 18.1515Z" fill="#706E6B"/>
</svg>
