<svg width="26" height="26" viewBox="0 0 26 26" fill="none" xmlns="http://www.w3.org/2000/svg">
<path fill-rule="evenodd" clip-rule="evenodd" d="M10.9722 18.0015C10.9722 16.6515 11.4222 15.1015 12.1222 13.9015C12.9722 12.4015 13.9222 11.8015 14.6722 10.7015C15.9222 8.8515 16.1722 6.2015 15.3722 4.2015C14.5722 2.1515 12.6722 0.951503 10.4722 1.0015C8.27222 1.0515 6.47222 2.4015 5.77222 4.4515C4.97222 6.7015 5.32222 9.4015 7.12222 11.1015C7.87222 11.8015 8.57222 12.9015 8.17222 13.9515C7.82222 14.9515 6.62222 15.4015 5.77222 15.8015C3.82222 16.6515 1.47222 17.8515 1.07222 20.1515C0.672217 22.0515 1.97222 24.0015 4.02222 24.0015H12.5222C12.9222 24.0015 13.1722 23.5015 12.9222 23.2015C11.6722 21.7515 10.9722 19.9015 10.9722 18.0015ZM23.2222 13.7515C20.8722 11.4015 17.0722 11.4015 14.7222 13.7515C12.3722 16.1015 12.3722 19.9015 14.7222 22.2515C17.0722 24.6015 20.8722 24.6015 23.2222 22.2515C25.5722 19.9015 25.5722 16.1015 23.2222 13.7515ZM21.4722 19.0515C21.6722 19.2515 21.6722 19.6015 21.4222 19.8015L20.7222 20.5015C20.5222 20.7015 20.2722 20.7015 20.0722 20.4515L19.0222 19.4015L17.9222 20.5015C17.7222 20.7015 17.4722 20.7015 17.2722 20.4515L16.5222 19.7515C16.3222 19.5515 16.2722 19.3015 16.4722 19.1015L17.5722 18.0015L16.5222 16.9015C16.3222 16.7015 16.2722 16.4515 16.4722 16.2515L17.1722 15.5515C17.3722 15.3515 17.7222 15.3015 17.9222 15.5015L18.9722 16.5515L20.0222 15.5015C20.2222 15.3015 20.5722 15.2515 20.7722 15.4515L21.4722 16.1515C21.6722 16.3515 21.6722 16.7015 21.4222 16.9015L20.3722 17.9515L21.4722 19.0515Z" fill="#706E6B"/>
</svg>
