<svg width="26" height="26" viewBox="0 0 26 26" fill="none" xmlns="http://www.w3.org/2000/svg">
<path d="M5.15 3C5.4 3 5.55 3.15 5.55 3.4V5C5.55 6.75 6.95 8.2 8.7 8.2H17.3C19.05 8.2 20.45 6.75 20.45 5V3.4C20.45 3.15 20.6 3 20.85 3H21.65C22.95 3 24 4.1 24 5.4V22.6C24 23.9 22.95 25 21.65 25H4.35C3.05 25 2 23.9 2 22.6V5.4C2 4.1 3.05 3 4.35 3H5.15ZM17.5 12C17.3 11.75 16.95 11.75 16.7 12L11.55 17.15L9.45 15.05C9.25 14.8 8.9 14.8 8.65 15.05L7.85 15.85C7.6 16.05 7.6 16.4 7.85 16.65L10.75 19.55C10.95 19.8 11.3 19.9 11.55 19.9C11.85 19.9 12.1 19.8 12.35 19.55L18.35 13.55C18.55 13.35 18.55 12.95 18.3 12.8L17.5 12ZM15.8 1C17.1 1 18.15 2.1 18.15 3.4V5C18.15 5.45 17.8 5.8 17.35 5.8H8.7C8.25 5.8 7.9 5.45 7.95 5V3.4C7.95 2.1 9 1 10.3 1H15.8Z" fill="#706E6B"/>
</svg>
