<svg width="27" height="26" viewBox="0 0 27 26" fill="none" xmlns="http://www.w3.org/2000/svg">
<path fill-rule="evenodd" clip-rule="evenodd" d="M25.825 14.4L24.775 13.35C24.475 13.05 24.025 13.05 23.725 13.35L22.375 14.7C22.025 15.05 21.525 14.8 21.525 14.35V6C21.525 4.9 20.625 4 19.525 4H12.275C11.875 4 11.525 4.35 11.525 4.75V6.25C11.525 6.65 11.875 7 12.275 7H17.775C18.175 7 18.525 7.35 18.525 7.75V14.35C18.525 14.8 17.975 15 17.625 14.7L16.325 13.4C16.025 13.1 15.525 13.1 15.275 13.4L14.225 14.5C13.925 14.8 13.925 15.25 14.225 15.55L19.475 20.8C19.775 21.1 20.225 21.1 20.525 20.8L25.825 15.5C26.075 15.2 26.075 14.7 25.825 14.4ZM13.775 19H8.275C7.875 19 7.525 18.65 7.525 18.25V11.65C7.525 11.2 8.075 11 8.425 11.3L9.725 12.6C10.025 12.9 10.525 12.9 10.775 12.6L11.825 11.55C12.125 11.25 12.125 10.8 11.825 10.5L6.625 5.2C6.325 4.9 5.875 4.9 5.575 5.2L0.225 10.5C-0.075 10.8 -0.075 11.25 0.225 11.55L1.275 12.6C1.575 12.9 2.025 12.9 2.325 12.6L3.675 11.25C3.975 10.95 4.525 11.15 4.525 11.6V20C4.525 21.1 5.475 22 6.575 22H13.825C14.225 22 14.575 21.65 14.575 21.25V19.75C14.525 19.35 14.175 19 13.775 19Z" fill="#706E6B"/>
</svg>
