<svg width="26" height="26" viewBox="0 0 26 26" fill="none" xmlns="http://www.w3.org/2000/svg">
<path fill-rule="evenodd" clip-rule="evenodd" d="M11.6 18.35L6.9 25L5.7 21.8H2.5L6.6 16.25C7.4 16.75 8.25 16.8 8.85 16.95C9.05 17 9.3 17.05 9.4 17.05C9.5 17.1 9.7 17.25 9.8 17.35C10.25 17.65 10.85 18.1 11.6 18.35ZM19.2 16.25C18.4 16.75 17.55 16.8 16.95 16.95C16.75 17 16.45 17.05 16.35 17.05C16.25 17.1 16.05 17.25 15.95 17.35C15.5 17.65 14.95 18.15 14.2 18.4L18.9 25L20.1 21.8H23.3L19.2 16.25ZM12.9 5.8C11.35 5.8 10.1 7.05 10.1 8.6C10.1 10.15 11.35 11.4 12.9 11.4C14.45 11.4 15.7 10.15 15.7 8.6C15.7 7.05 14.45 5.8 12.9 5.8ZM20.5 8.6C20.5 9.55 19.45 10.3 19.1 11.15C18.75 12.05 18.95 13.3 18.25 13.95C17.6 14.6 16.35 14.45 15.45 14.8C14.6 15.15 13.85 16.2 12.9 16.2C11.95 16.2 11.2 15.15 10.35 14.8C9.45 14.45 8.2 14.65 7.55 13.95C6.9 13.3 7.05 12.05 6.7 11.15C6.35 10.3 5.3 9.55 5.3 8.6C5.3 7.65 6.35 6.9 6.7 6.05C7.05 5.15 6.85 3.9 7.55 3.25C8.2 2.6 9.45 2.75 10.35 2.4C11.2 2.05 11.95 1 12.9 1C13.85 1 14.6 2.05 15.45 2.4C16.35 2.75 17.6 2.55 18.25 3.25C18.9 3.9 18.75 5.15 19.1 6.05C19.45 6.9 20.5 7.65 20.5 8.6ZM18.1 8.6C18.1 5.7 15.8 3.4 12.9 3.4C10 3.4 7.7 5.7 7.7 8.6C7.7 11.5 10 13.8 12.9 13.8C15.8 13.8 18.1 11.5 18.1 8.6Z" fill="#706E6B"/>
</svg>
