<svg width="26" height="26" viewBox="0 0 26 26" fill="none" xmlns="http://www.w3.org/2000/svg">
<path fill-rule="evenodd" clip-rule="evenodd" d="M4 7.25C4 7.65 3.65 8 3.25 8H1.75C1.35 8 1 7.65 1 7.25V5.75C1 5.35 1.35 5 1.75 5H3.25C3.65 5 4 5.35 4 5.75V7.25ZM25 5.75C25 5.35 24.65 5 24.25 5H6.75C6.35 5 6 5.35 6 5.75V7.25C6 7.65 6.35 8 6.75 8H24.25C24.65 8 25 7.65 25 7.25V5.75ZM4 12.75C4 12.35 3.65 12 3.25 12H1.75C1.35 12 1 12.35 1 12.75V14.25C1 14.65 1.35 15 1.75 15H3.25C3.65 15 4 14.65 4 14.25V12.75ZM23 12.75C23 12.35 22.65 12 22.25 12H6.75C6.35 12 6 12.35 6 12.75V14.25C6 14.65 6.35 15 6.75 15H22.25C22.65 15 23 14.65 23 14.25V12.75ZM4 19.75C4 19.35 3.65 19 3.25 19H1.75C1.35 19 1 19.35 1 19.75V21.25C1 21.65 1.35 22 1.75 22H3.25C3.65 22 4 21.65 4 21.25V19.75ZM25 19.75C25 19.35 24.65 19 24.25 19H6.75C6.35 19 6 19.35 6 19.75V21.25C6 21.65 6.35 22 6.75 22H24.25C24.65 22 25 21.65 25 21.25V19.75Z" fill="#706E6B"/>
</svg>
