<svg width="26" height="26" viewBox="0 0 26 26" fill="none" xmlns="http://www.w3.org/2000/svg">
<path fill-rule="evenodd" clip-rule="evenodd" d="M25 3.25V4.75C25 5.15 24.65 5.5 24.25 5.5H10.75C10.35 5.5 10 5.15 10 4.75V3.25C10 2.85 10.35 2.5 10.75 2.5H24.25C24.65 2.5 25 2.85 25 3.25ZM10.75 10.5H19.75C20.15 10.5 20.5 10.15 20.5 9.75V8.25C20.5 7.85 20.15 7.5 19.75 7.5H10.75C10.35 7.5 10 7.85 10 8.25V9.75C10 10.15 10.35 10.5 10.75 10.5ZM24.25 15H10.75C10.35 15 10 15.35 10 15.75V17.25C10 17.65 10.35 18 10.75 18H24.25C24.65 18 25 17.65 25 17.25V15.75C25 15.35 24.65 15 24.25 15ZM19.75 20H10.75C10.35 20 10 20.35 10 20.75V22.25C10 22.65 10.35 23 10.75 23H19.75C20.15 23 20.5 22.65 20.5 22.25V20.75C20.5 20.35 20.15 20 19.75 20ZM1.75 4H3V10.25C3 10.65 3.35 11 3.75 11H4.25C4.65 11 5 10.65 5 10.25V3C5 2.45 4.55 2 4 2H1.75C1.35 2 1 2.35 1 2.75V3.25C1 3.65 1.35 4 1.75 4ZM6 14H1.75C1.35 14 1 14.35 1 14.75V15.25C1 15.65 1.35 16 1.75 16H5V18H2C1.45 18 1 18.45 1 19V23C1 23.55 1.45 24 2 24H6.25C6.65 24 7 23.65 7 23.25V22.75C7 22.35 6.65 22 6.25 22H3V20H6C6.55 20 7 19.55 7 19V15C7 14.45 6.55 14 6 14Z" fill="#706E6B"/>
</svg>
