<svg width="26" height="26" viewBox="0 0 26 26" fill="none" xmlns="http://www.w3.org/2000/svg">
<path fill-rule="evenodd" clip-rule="evenodd" d="M25.05 12.5L21 8.45C20.8 8.25 20.45 8.25 20.25 8.45L19.5 9.2C19.3 9.4 19.3 9.75 19.5 9.95L20.75 11.2C20.95 11.4 20.8 11.8 20.5 11.8H9.45L16.05 5.25C16.25 5.05 16.65 5.2 16.65 5.5V7.3C16.65 7.6 16.85 7.8 17.15 7.8H18.2C18.5 7.8 18.7 7.6 18.7 7.3V1.5C18.7 1.2 18.5 1 18.2 1H12.5C12.25 1 12 1.25 12 1.55V2.55C12 2.85 12.2 3.05 12.5 3.05H14.3C14.6 3.05 14.75 3.4 14.55 3.65L6.45 11.75H1.5C1.2 11.75 1 12 1 12.3V13.35C1 13.65 1.3 13.9 1.55 13.9H6.55L14.6 21.95C14.8 22.15 14.65 22.55 14.35 22.55H12.55C12.25 22.55 12.05 22.75 12.05 23.05V24.05C12.05 24.3 12.25 24.55 12.55 24.6H18.25C18.55 24.6 18.75 24.4 18.75 24.1V18.35C18.75 18.05 18.55 17.85 18.25 17.85H17.2C16.9 17.85 16.7 18.05 16.7 18.35V20.15C16.7 20.45 16.35 20.6 16.1 20.4L9.5 13.9H20.55C20.85 13.9 21 14.3 20.8 14.5L19.5 15.75C19.3 15.95 19.3 16.3 19.5 16.5L20.25 17.25C20.45 17.45 20.8 17.45 21 17.25L25.05 13.25C25.25 13 25.25 12.7 25.05 12.5Z" fill="#706E6B"/>
</svg>
