<svg width="26" height="26" viewBox="0 0 26 26" fill="none" xmlns="http://www.w3.org/2000/svg">
<path fill-rule="evenodd" clip-rule="evenodd" d="M15.4 24.725C15.7 24.825 16.05 24.825 16.35 24.725L22.3 22.775C22.7 22.625 23 22.275 23 21.825V3.825C23 3.525 22.8 3.225 22.5 3.125L16.45 1.075C16.1 0.975 15.75 0.975 15.45 1.075L3.5 5.675C3.2 5.775 3 6.075 3 6.375V19.925C3 20.225 3.2 20.525 3.5 20.625L15.4 24.725ZM16 21.375C16 21.675 15.75 21.925 15.5 21.875L5.5 20.525C5.25 20.475 5.05 20.275 5.05 20.025V19.825C5.05 19.625 5.15 19.475 5.4 19.375L7.3 18.475C7.5 18.375 7.6 18.225 7.6 18.025V7.375C7.6 7.125 7.75 6.925 8 6.875L15.5 5.175C15.8 5.125 16.1 5.325 16.1 5.675V21.375H16Z" fill="#706E6B"/>
</svg>
