<svg width="26" height="26" viewBox="0 0 26 26" fill="none" xmlns="http://www.w3.org/2000/svg">
<path fill-rule="evenodd" clip-rule="evenodd" d="M20 10.75C19.5 7.5 16.65 5 13.25 5C9.45 5 6.4 8.05 6.4 11.85C6.4 12 6.4 12.2 6.45 12.35C3.95 12.55 2 14.65 2 17.15C2 19.85 4.15 22 6.85 22H12.6L8.55 17.95C8.35 17.75 8.35 17.5 8.55 17.3L9.2 16.65C9.4 16.45 9.65 16.45 9.85 16.65L11.6 18.4C11.8 18.6 12.15 18.45 12.15 18.2V11.45C12.15 11.25 12.4 11 12.65 11H13.6C13.85 11 14.05 11.2 14.05 11.45V18.15C14.05 18.45 14.45 18.55 14.6 18.35L16.35 16.6C16.55 16.4 16.8 16.4 17 16.6L17.65 17.25C17.85 17.45 17.85 17.7 17.65 17.9L13.7 22H19.85C22.9 21.95 25.35 19.45 25.35 16.35C25.4 13.3 23 10.85 20 10.75Z" fill="#706E6B"/>
</svg>
