<svg width="26" height="26" viewBox="0 0 26 26" fill="none" xmlns="http://www.w3.org/2000/svg">
<path fill-rule="evenodd" clip-rule="evenodd" d="M17.375 1.5H23.675C23.925 1.5 24.125 1.7 24.175 1.95V8.25C24.175 8.65 23.775 8.8 23.475 8.45L21.475 6.45L21.125 6.1L18.575 8.65C19.875 10.35 20.675 12.5 20.675 14.8C20.675 20.3 16.225 24.75 10.725 24.75C8.425 24.75 6.275 24 4.575 22.65L3.875 23.3C3.575 23.6 3.125 23.6 2.825 23.3L2.225 22.7C1.925 22.4 1.925 21.95 2.225 21.65L4.075 19.8C4.375 19.5 4.825 19.5 5.125 19.8C5.125 19.8 7.575 22.65 10.675 22.35C14.875 22.35 17.925 19 17.925 14.8C18.175 11.85 15.625 9.25 15.625 9.25C15.375 8.95 15.375 8.45 15.675 8.15L19.425 4.45L19.175 4.2L17.175 2.2C16.825 1.85 16.975 1.5 17.375 1.5ZM15.575 14.9C15.575 17.6338 13.3588 19.85 10.625 19.85C7.89119 19.85 5.675 17.6338 5.675 14.9C5.675 12.1662 7.89119 9.95 10.625 9.95C13.3588 9.95 15.575 12.1662 15.575 14.9Z" fill="#706E6B"/>
</svg>
