<svg width="26" height="26" viewBox="0 0 26 26" fill="none" xmlns="http://www.w3.org/2000/svg">
<path fill-rule="evenodd" clip-rule="evenodd" d="M3 1H23C24.1 1 25 1.9 25 3V21C25 22.1 24.1 23 23 23H17C16.7 23 16.5 22.8 16.5 22.5V20.5C16.5 20.2 16.7 20 17 20H21.25C21.65 20 22 19.65 22 19.25V6.75C22 6.35 21.65 6 21.25 6H4.75C4.35 6 4 6.35 4 6.75V19.25C4 19.65 4.35 20 4.75 20H9C9.3 20 9.5 20.2 9.5 20.5V22.5C9.5 22.8 9.3 23 9 23H3C1.9 23 1 22.1 1 21V3C1 1.9 1.9 1 3 1ZM19.8 16.25L18.75 17.3C18.45 17.55 17.95 17.55 17.65 17.3L15.35 14.95C15 14.65 14.5 14.85 14.5 15.3V24.25C14.5 24.65 14.1 25 13.7 25H12.2C11.8 25 11.5 24.65 11.5 24.25V15.3C11.5 14.85 10.9 14.65 10.6 14.95L8.3 17.25C8 17.55 7.55 17.55 7.25 17.25L6.2 16.2C5.9 15.9 5.9 15.45 6.2 15.15L12.45 8.9C12.75 8.6 13.2 8.6 13.5 8.9L19.8 15.2C20.1 15.5 20.1 15.95 19.8 16.25Z" fill="#706E6B"/>
</svg>
