<svg width="26" height="26" viewBox="0 0 26 26" fill="none" xmlns="http://www.w3.org/2000/svg">
<path fill-rule="evenodd" clip-rule="evenodd" d="M21.9985 7.5C21.9985 6.4 21.0985 5.5 19.9985 5.5H12.6485C11.7485 5.5 10.8985 4.5 10.8985 4.5L9.64845 3C9.64845 3 9.04845 2 7.89845 2H5.99845C4.89845 2 3.99845 2.9 3.99845 4V8.5H21.9985V7.5ZM23.4485 10.5H2.54845C1.54845 10.5 0.798454 11.45 1.04845 12.4L3.89845 22.9C4.09845 23.55 4.69845 24 5.39845 24H20.6485C21.3485 24 21.9985 23.55 22.1485 22.9L24.9985 12.4C25.1985 11.45 24.4485 10.5 23.4485 10.5Z" fill="#706E6B"/>
</svg>
