<svg width="26" height="26" viewBox="0 0 26 26" fill="none" xmlns="http://www.w3.org/2000/svg">
<path fill-rule="evenodd" clip-rule="evenodd" d="M24.35 18.95L21.3 16.5C20.6 15.95 19.6 15.9 18.9 16.45L16.3 18.35C16 18.6 15.55 18.55 15.25 18.25L11.35 14.75L7.85 10.85C7.55 10.55 7.55 10.15 7.75 9.8L9.65 7.2C10.2 6.5 10.15 5.5 9.6 4.8L7.15 1.75C6.4 0.85 5.05 0.75 4.2 1.6L1.6 4.2C1.2 4.6 1 5.15 1 5.7C1.25 10.8 3.55 15.65 6.95 19.05C10.35 22.45 15.2 24.75 20.3 25C20.85 25.05 21.4 24.8 21.8 24.4L24.4 21.8C25.35 21.05 25.3 19.65 24.35 18.95ZM24.3 1H16.6C16.1 1 15.95 1.55 16.35 1.95L18.8 4.45L14.3 9C14.05 9.25 14.05 9.7 14.3 9.95L16.15 11.8C16.4 12.05 16.8 12.05 17.1 11.8L21.65 7.25L24.2 9.7C24.55 10.15 25.1 10 25.1 9.5V1.85C25.1 1.5 24.65 1 24.3 1Z" fill="#706E6B"/>
</svg>
