<svg width="26" height="26" viewBox="0 0 26 26" fill="none" xmlns="http://www.w3.org/2000/svg">
<path fill-rule="evenodd" clip-rule="evenodd" d="M18.1 5.7998L18.05 5.7498C17.75 5.4998 17.3 5.4998 17.05 5.7998L15.95 6.8498C15.65 7.14981 15.7 7.5998 15.95 7.8498L18.75 10.6498C18.85 10.7498 18.9 10.8498 18.9 10.9998C18.9 11.2998 18.7 11.5498 18.4 11.5498H7.80005C7.40005 11.5498 7.05005 11.8498 7.05005 12.2498V13.7498C7.10005 14.1498 7.40005 14.4998 7.80005 14.5498H18.45C18.55 14.5498 18.65 14.5998 18.7 14.6498C18.95 14.8498 18.95 15.1498 18.8 15.3998L16 18.2498C15.7 18.5498 15.75 18.9998 16 19.2498L17.05 20.3498C17.35 20.6498 17.8 20.5998 18.05 20.3498L24.8 13.5998C25.1 13.2998 25.05 12.8498 24.8 12.5998L18.1 5.7998ZM10.55 8.5998H12.05C12.45 8.5998 12.8 8.2498 12.8 7.8498V3.0498C12.8 1.9498 11.9 1.0498 10.8 1.0498H3.05005C1.95005 1.0498 1.05005 1.9498 1.05005 3.0498V23.0498C1.05005 24.1498 1.95005 25.0498 3.05005 25.0498H10.75C11.85 25.0498 12.75 24.1498 12.75 23.0498V18.2998C12.75 17.8998 12.4 17.5498 12 17.5498H10.5C10.1 17.5498 9.75005 17.8998 9.75005 18.2998V21.2498C9.75005 21.6498 9.40005 21.9998 9.00005 21.9998H4.80005C4.40005 21.9998 4.05005 21.6498 4.05005 21.2498V4.7498C4.05005 4.3498 4.40005 3.9998 4.80005 3.9998H9.00005C9.40005 3.9998 9.75005 4.3498 9.75005 4.7498V7.7998C9.80005 8.2498 10.1 8.5998 10.55 8.5998Z" fill="#706E6B"/>
</svg>
