<svg width="40" height="40" viewBox="0 0 40 40" fill="none" xmlns="http://www.w3.org/2000/svg">
<rect width="40" height="40" rx="20" fill="#779EF2"/>
<mask id="mask0_1518_28076" style="mask-type:luminance" maskUnits="userSpaceOnUse" x="0" y="0" width="40" height="40">
<rect width="40" height="40" rx="20" fill="white"/>
</mask>
<g mask="url(#mask0_1518_28076)">
<path d="M25.1428 19.951C25.0939 18.5796 23.7714 17.7469 22.351 17.1102C21.3714 16.6694 21.1755 16.2775 21.1755 15.8367C21.1755 15.3959 21.4694 15.0041 21.7632 14.6612C22.4 14.1224 22.6939 13.3388 22.6939 12.4082C22.6939 10.6939 21.7143 9.22449 19.902 9.22449C18.8245 9.22449 18.0898 9.76326 17.6 10.5469C18.8245 11.4775 19.5592 13.0939 19.5592 14.9551C19.5592 16.0327 19.2653 17.0612 18.7265 17.9429C18.5306 18.2367 18.6285 18.6775 18.9714 18.8735C20 19.4122 21.1755 20.098 21.8612 21.2735C21.9592 21.4694 22.1551 21.5184 22.4 21.5184H23.7224C24.5551 21.4694 25.1428 20.8816 25.1428 19.951Z" fill="white"/>
<path d="M17.1592 20.049C16.0326 19.5592 15.8857 19.1184 15.8857 18.6286C15.8857 18.1388 16.1796 17.649 16.5714 17.3062C17.2081 16.6694 17.551 15.7878 17.551 14.7592C17.551 12.849 16.4245 11.1837 14.4653 11.1837C14.4163 11.1837 14.4163 11.1837 14.3673 11.1837C14.3673 11.1837 14.3673 11.1837 14.3183 11.1837C12.3592 11.1837 11.2326 12.849 11.2326 14.7592C11.2326 15.7878 11.5755 16.6694 12.2122 17.3062C12.6041 17.649 12.8979 18.1388 12.8979 18.6286C12.8979 19.1184 12.751 19.5592 11.6245 20.049C10.0081 20.7837 8.48978 21.5184 8.4408 23.0368C8.48978 24.1143 9.22447 24.898 10.1551 24.898H12.1143H16.7183H18.6775C19.6081 24.898 20.3428 24.1143 20.3428 23.0858C20.2939 21.5184 18.7265 20.7837 17.1592 20.049Z" fill="white"/>
<path d="M31.2652 24.898H29.0611V22.6939C29.0611 22.3021 28.7183 21.9592 28.3265 21.9592H26.8571C26.4652 21.9592 26.1224 22.3021 26.1224 22.6939V24.898H23.9183C23.5265 24.898 23.1836 25.2409 23.1836 25.6327V27.1021C23.1836 27.4939 23.5265 27.8368 23.9183 27.8368H26.1224V30.0409C26.1224 30.4327 26.4652 30.7756 26.8571 30.7756H28.3265C28.7183 30.7756 29.0611 30.4327 29.0611 30.0409V27.8368H31.2652C31.6571 27.8368 31.9999 27.4939 31.9999 27.1021V25.6327C31.9999 25.2409 31.6571 24.898 31.2652 24.898Z" fill="white"/>
</g>
</svg>
