<svg width="48" height="48" viewBox="0 0 48 48" fill="none" xmlns="http://www.w3.org/2000/svg">
<rect width="48" height="48" rx="4" fill="#34BECD"/>
<mask id="mask0_1518_27914" style="mask-type:luminance" maskUnits="userSpaceOnUse" x="0" y="0" width="48" height="48">
<rect width="48" height="48" rx="4" fill="white"/>
</mask>
<g mask="url(#mask0_1518_27914)">
<path d="M41 36.0139V37.6006C41 39.4706 39.47 41.0006 37.6 41.0006H10.4C8.53 41.0006 7 39.4706 7 37.6006V36.0139C7 31.8772 11.8167 29.3839 16.35 27.4006C16.52 27.3439 16.6333 27.2872 16.8033 27.1739C17.1433 27.0039 17.54 27.0039 17.88 27.2306C19.6933 28.4206 21.79 29.1006 24 29.1006C26.21 29.1006 28.3067 28.4206 30.12 27.2872C30.46 27.0606 30.8567 27.0606 31.1967 27.2306C31.3667 27.2872 31.48 27.3439 31.65 27.4572C36.1833 29.3839 41 31.8772 41 36.0139Z" fill="white"/>
<path d="M24 25.7C28.6631 25.7 32.4433 21.5139 32.4433 16.35C32.4433 11.1861 28.6631 7 24 7C19.3369 7 15.5566 11.1861 15.5566 16.35C15.5566 21.5139 19.3369 25.7 24 25.7Z" fill="white"/>
</g>
</svg>
