<svg width="48" height="48" viewBox="0 0 48 48" fill="none" xmlns="http://www.w3.org/2000/svg">
<rect width="48" height="48" rx="4" fill="#8FC96E"/>
<mask id="mask0_1518_27912" style="mask-type:luminance" maskUnits="userSpaceOnUse" x="0" y="0" width="48" height="48">
<rect width="48" height="48" rx="4" fill="white"/>
</mask>
<g mask="url(#mask0_1518_27912)">
<path fill-rule="evenodd" clip-rule="evenodd" d="M20.9344 31.6927C20.9344 29.7976 21.5475 27.6796 22.5508 26.0075C23.2283 24.8137 23.9619 24.0308 24.665 23.2805C25.1766 22.7345 25.672 22.2057 26.118 21.5485C27.8459 18.9845 28.1803 15.3058 27.0655 12.519C25.9508 9.67634 23.3311 8.00421 20.2655 8.05994C17.2 8.11568 14.6918 10.0108 13.7442 12.8534C12.6295 15.9747 13.1311 19.7649 15.6393 22.1058C16.6983 23.0534 17.6459 24.614 17.0885 26.0632C16.6455 27.2938 15.2897 27.9158 14.1727 28.4282L14.1725 28.4283C14.0247 28.4961 13.881 28.562 13.7442 28.6272C11.0131 29.7976 7.7803 31.4698 7.22292 34.7026C6.66554 37.3222 8.44915 40.0534 11.3475 40.0534H23.1639C23.7213 40.0534 24.0557 39.3845 23.7213 38.9386C21.9377 36.9321 20.9344 34.3681 20.9344 31.6927ZM32.0819 23.3321C27.5114 23.3321 23.7213 27.0665 23.7213 31.6927C23.7213 36.319 27.4557 40.0534 32.0819 40.0534C36.7082 40.0534 40.4426 36.319 40.4426 31.6927C40.4426 27.0665 36.7082 23.3321 32.0819 23.3321ZM32.8623 32.3616C33.0295 32.4173 33.3082 32.4731 33.5311 32.4731C35.0918 32.5845 36.318 31.414 36.2623 29.8534C36.2623 29.6862 36.2065 29.4075 36.1508 29.1845C36.1508 29.0731 35.9836 29.0731 35.9278 29.1288L34.5344 30.5222C34.4229 30.6337 34.2557 30.6337 34.1442 30.5222L33.1967 29.5747C33.0852 29.519 33.0852 29.296 33.1967 29.2403L34.6459 27.8468C34.7016 27.7354 34.7016 27.6239 34.5901 27.6239C34.4229 27.5681 34.1442 27.5124 33.9213 27.5124C32.4721 27.5124 31.3016 28.8501 31.4131 30.2993C31.4131 30.5373 31.4537 30.694 31.5003 30.8736C31.5083 30.9043 31.5164 30.9356 31.5246 30.9681L28.3475 34.1452C28.0131 34.5911 28.0131 35.2042 28.3475 35.5386C28.5147 35.7616 28.7377 35.8173 29.0164 35.8173C29.1836 35.8173 29.4623 35.7616 29.6852 35.5386L32.8623 32.3616Z" fill="white"/>
</g>
</svg>
