<svg width="40" height="40" viewBox="0 0 40 40" fill="none" xmlns="http://www.w3.org/2000/svg">
<rect width="40" height="40" rx="20" fill="#F5675B"/>
<mask id="mask0_1518_28364" style="mask-type:luminance" maskUnits="userSpaceOnUse" x="0" y="0" width="40" height="40">
<rect width="40" height="40" rx="20" fill="white"/>
</mask>
<g mask="url(#mask0_1518_28364)">
<path fill-rule="evenodd" clip-rule="evenodd" d="M29.5538 12.1072L31.2154 10.4457C31.4923 10.1688 32 10.3534 32 10.7688V26.4611V28.3072C32 29.3226 31.1692 30.1534 30.1538 30.1534H27.8462H9.84615C8.83077 30.1534 8 29.3226 8 28.3072V10.7688C8 10.3534 8.50769 10.1688 8.78462 10.4457L9.98462 11.6457C10.1692 11.8303 10.4462 11.8303 10.6308 11.6457L12.2923 9.98416C12.4769 9.79955 12.7538 9.79955 12.9385 9.98416L14.6 11.6457C14.7846 11.8303 15.0615 11.8303 15.2462 11.6457L16.9077 9.98416C17.0923 9.79955 17.3692 9.79955 17.5538 9.98416L19.2154 11.6457C19.4 11.8303 19.6769 11.8303 19.8615 11.6457L21.5231 9.98416C21.7077 9.79955 21.9846 9.79955 22.1692 9.98416L23.8308 11.6457C24.0154 11.8303 24.2923 11.8303 24.4769 11.6457L26.1385 9.98416C26.3231 9.79955 26.6 9.79955 26.7846 9.98416L28.9077 12.1072C29.0923 12.2919 29.3692 12.2919 29.5538 12.1072ZM17.2308 27.3842C17.5077 27.3842 17.6923 27.1995 17.6923 26.9226V18.6149C17.6923 18.338 17.5077 18.1534 17.2308 18.1534H11.6923C11.4154 18.1534 11.2308 18.338 11.2308 18.6149V26.9226C11.2308 27.1995 11.4154 27.3842 11.6923 27.3842H17.2308ZM28.7692 26.9226C28.7692 27.1995 28.5846 27.3842 28.3077 27.3842H20C19.7231 27.3842 19.5385 27.1995 19.5385 26.9226V25.9995C19.5385 25.7226 19.7231 25.538 20 25.538H28.3077C28.5846 25.538 28.7692 25.7226 28.7692 25.9995V26.9226ZM19.5385 23.6919H28.7692V21.8457H19.5385V23.6919ZM28.7692 19.538C28.7692 19.8149 28.5846 19.9995 28.3077 19.9995H20C19.7231 19.9995 19.5385 19.8149 19.5385 19.538V18.6149C19.5385 18.338 19.7231 18.1534 20 18.1534H28.3077C28.5846 18.1534 28.7692 18.338 28.7692 18.6149V19.538ZM28.3077 16.3072C28.5846 16.3072 28.7692 16.1226 28.7692 15.8457V14.9226C28.7692 14.6457 28.5846 14.4611 28.3077 14.4611H11.6923C11.4154 14.4611 11.2308 14.6457 11.2308 14.9226V15.8457C11.2308 16.1226 11.4154 16.3072 11.6923 16.3072H28.3077Z" fill="white"/>
</g>
</svg>
