<svg width="26" height="26" viewBox="0 0 26 26" fill="none" xmlns="http://www.w3.org/2000/svg">
<path fill-rule="evenodd" clip-rule="evenodd" d="M24 25H2C1.45 25 1 24.55 1 24V2C1 1.45 1.45 1 2 1H24C24.55 1 25 1.45 25 2V24C25 24.55 24.55 25 24 25ZM3 23H23V3H3V23ZM19.5 10H6.5C6.2 10 6 9.8 6 9.5V6.5C6 6.2 6.2 6 6.5 6H19.5C19.8 6 20 6.2 20 6.5V9.5C20 9.8 19.8 10 19.5 10ZM9.5 20H6.5C6.2 20 6 19.8 6 19.5V13.5C6 13.2 6.2 13 6.5 13H9.5C9.8 13 10 13.2 10 13.5V19.5C10 19.8 9.8 20 9.5 20ZM19.5 20H13.5C13.2 20 13 19.8 13 19.5V13.5C13 13.2 13.2 13 13.5 13H19.5C19.8 13 20 13.2 20 13.5V19.5C20 19.8 19.8 20 19.5 20Z" fill="#706E6B"/>
</svg>
