<svg width="26" height="26" viewBox="0 0 26 26" fill="none" xmlns="http://www.w3.org/2000/svg">
<path fill-rule="evenodd" clip-rule="evenodd" d="M12.85 11.2004C12.6 11.5504 12.75 12.0504 13.15 12.3004C13.95 12.7504 14.85 13.2504 15.6 13.9504C16.85 13.0004 18.35 12.4504 20 12.3504C19.45 11.4004 18.3 10.7504 17.1 10.2004C15.95 9.70039 15.7 9.25039 15.7 8.70039C15.7 8.20039 16.05 7.75039 16.4 7.30039C17.1 6.65039 17.45 5.75039 17.45 4.65039C17.5 2.65039 16.35 0.900391 14.25 0.900391C13 0.900391 12.15 1.55039 11.55 2.45039C13 3.55039 13.85 5.45039 13.85 7.60039C13.8 9.00039 13.45 10.2004 12.85 11.2004ZM15.9 17.3504L18.9 20.3504L15.9 23.3504C15.6 23.6504 15.6 24.1504 15.9 24.4004L16.25 24.7504C16.55 25.0504 17.05 25.0504 17.3 24.7504L20.3 21.7504L23.3 24.7504C23.6 25.0504 24.1 25.0504 24.35 24.7504L24.7 24.4004C25 24.1004 25 23.6004 24.7 23.3504L21.7 20.3504L24.7 17.3504C25 17.0504 25 16.5504 24.7 16.3004L24.35 15.9504C24.05 15.6504 23.55 15.6504 23.3 15.9504L20.3 18.9504L17.3 15.9504C17 15.6504 16.5 15.6504 16.25 15.9504L15.9 16.3004C15.65 16.5504 15.65 17.0504 15.9 17.3504ZM14.1 15.3504C13.4 14.6504 12.35 14.2004 11.3 13.7004C10 13.1504 9.8 12.6004 9.8 12.0504C9.8 11.5004 10.15 10.9004 10.6 10.5004C11.35 9.75039 11.75 8.70039 11.75 7.50039C11.75 5.25039 10.45 3.30039 8.15 3.30039H7.9C5.6 3.30039 4.3 5.25039 4.3 7.50039C4.3 8.70039 4.7 9.75039 5.45 10.5004C5.9 10.9004 6.25 11.4504 6.25 12.0504C6.25 12.6004 6.1 13.1504 4.75 13.7004C2.85 14.5504 1.1 15.4004 1 17.2004C1.1 18.4504 1.95 19.4004 3.05 19.4004H12.35C12.6 17.8504 13.2 16.4504 14.1 15.3504Z" fill="#706E6B"/>
</svg>
