<svg width="26" height="26" viewBox="0 0 26 26" fill="none" xmlns="http://www.w3.org/2000/svg">
<path fill-rule="evenodd" clip-rule="evenodd" d="M4 5.9502C4 5.6002 3.65 5.2002 3.25 5.2002H1.75C1.35 5.2002 1 5.6002 1 5.9502V14.0502C1 14.4502 1.4 14.8502 1.75 14.8502H18.35C18.8 14.8502 19 15.3502 18.7 15.7002L15.9 18.5002C15.6 18.8002 15.6 19.2502 15.9 19.5502L16.95 20.6002C17.25 20.9002 17.7 20.9002 18 20.6002L24.8 13.8502C25.1 13.5502 25.1 13.1002 24.8 12.8002L18.05 6.0502C17.75 5.7502 17.3 5.7502 17 6.0502L15.95 7.1002C15.65 7.4002 15.65 7.8502 15.95 8.1502L18.75 10.9502C19.05 11.2502 18.85 11.8502 18.4 11.8502H4.75C3.95 11.8502 4 11.0502 4 11.0502V5.9502Z" fill="#706E6B"/>
</svg>
