<svg width="26" height="26" viewBox="0 0 26 26" fill="none" xmlns="http://www.w3.org/2000/svg">
<path fill-rule="evenodd" clip-rule="evenodd" d="M4.75 22.025C4.4 22.025 4 22.375 4 22.775V24.275C4 24.675 4.4 25.025 4.75 25.025H16.7C17.1 25.025 17.5 24.625 17.5 24.275V7.675C17.5 7.225 18 7.025 18.35 7.325L21.15 10.125C21.45 10.425 21.9 10.425 22.2 10.125L23.25 9.075C23.55 8.775 23.55 8.325 23.25 8.025L16.5 1.225C16.2 0.925 15.75 0.925 15.45 1.225L8.7 7.975C8.4 8.275 8.4 8.725 8.7 9.025L9.75 10.075C10.05 10.375 10.5 10.375 10.8 10.075L13.6 7.275C13.9 6.975 14.5 7.175 14.5 7.625V21.275C14.5 22.075 13.7 22.025 13.7 22.025H4.75Z" fill="#706E6B"/>
</svg>
