<svg width="26" height="26" viewBox="0 0 26 26" fill="none" xmlns="http://www.w3.org/2000/svg">
<path d="M16.1837 1C16.8694 1 17.2613 1.58776 16.8694 2.17551C15.7919 4.28163 14.7633 6.38775 13.6857 8.49388C13.6368 8.6898 13.5388 8.83673 13.4408 9.03265C13.4408 9.03265 13.147 9.52245 13.7347 9.52245H18.4368C18.8286 9.52245 19.1225 9.76735 19.2204 10.1592C19.3184 10.4041 19.2204 10.649 19.0735 10.7959C18.2408 11.6776 17.3592 12.6082 16.5266 13.4898L16.4776 13.5388C16.3796 13.5878 16.1837 13.7347 15.8408 13.7347C15.3511 13.7347 14.9102 13.9306 14.5674 14.2735C14.2735 14.5673 13.9796 14.8612 13.6857 15.1551C13.2939 15.5469 13.147 15.9878 13.147 16.4776L13.1478 16.4874C13.1528 16.5578 13.1715 16.9918 12.9021 17.2612C12.6572 17.5061 12.4613 17.751 12.2164 17.9959C10.2572 20.102 8.29799 22.1592 6.3388 24.2163C6.09391 24.4612 5.84901 24.6082 5.50615 24.5102C5.01636 24.3633 4.82044 23.9224 5.01636 23.4327C5.55513 22.0612 6.09391 20.6898 6.68166 19.3184C7.26942 17.8 7.85717 16.3306 8.44493 14.8122C8.78778 13.9306 8.10207 13.7837 7.75921 13.7347H3.00819C2.46942 13.7347 2.12656 13.3918 2.17554 12.902C2.17554 12.8531 2.22452 12.7551 2.22452 12.6571C3.64493 8.93469 5.11431 5.26122 6.5837 1.53878C6.77962 1.14694 6.97554 1 7.41636 1H16.1837ZM19.4653 14.2735C19.4653 14.2735 19.5143 14.2735 19.5633 14.3224C19.7102 14.4204 19.7592 14.5184 19.7592 14.6653C19.8082 14.9102 19.8082 15.1551 19.8572 15.4C19.8572 15.449 19.9062 15.498 19.9551 15.498C20.249 15.5959 20.4939 15.7429 20.7878 15.8408H20.8368C20.8368 15.8408 20.8368 15.7918 20.8857 15.7918C21.0817 15.6449 21.3266 15.449 21.5225 15.302C21.5715 15.2531 21.6694 15.2041 21.7184 15.2041C21.7674 15.2041 21.8653 15.2531 21.9143 15.302C22.2082 15.5959 22.5021 15.8898 22.7959 16.1837C22.9429 16.3306 22.9429 16.4776 22.8449 16.6245C22.698 16.8204 22.5021 17.0653 22.3551 17.2612V17.4082C22.4531 17.6531 22.6 17.9469 22.698 18.2408C22.698 18.2898 22.747 18.3388 22.7959 18.3388C23.0408 18.3878 23.3347 18.3878 23.5796 18.4367C23.7755 18.4857 23.8735 18.5837 23.8735 18.8286V20.0531C23.8735 20.249 23.7755 20.3959 23.5796 20.3959C23.3347 20.4449 23.0408 20.4449 22.7959 20.4939C22.747 20.4939 22.698 20.5429 22.698 20.5918C22.6 20.8857 22.4531 21.1306 22.3551 21.4245C22.3062 21.4735 22.3062 21.5224 22.3551 21.5714C22.5021 21.8163 22.698 22.0122 22.8449 22.2082C22.9429 22.3551 22.9429 22.502 22.7959 22.649L21.9143 23.5306C21.8164 23.5796 21.7674 23.6286 21.6694 23.6286C21.6204 23.6286 21.5225 23.5796 21.4735 23.5306C21.2776 23.3837 21.0327 23.1878 20.8368 23.0408C20.8368 22.9918 20.7878 22.9918 20.7878 22.9918H20.7388C20.4939 23.0898 20.2 23.2367 19.9062 23.3347C19.8572 23.3347 19.8082 23.3837 19.8082 23.4327C19.7592 23.6776 19.7592 23.9714 19.7102 24.2163C19.6613 24.4122 19.5633 24.5102 19.3674 24.5102H18.1429C17.947 24.5102 17.8 24.4122 17.8 24.2163C17.751 23.9714 17.7511 23.6776 17.7021 23.4327C17.7021 23.3837 17.6531 23.3347 17.6041 23.3347C17.3102 23.2367 17.0653 23.0898 16.7715 22.9918H16.7225C16.6735 22.9918 16.6735 23.0408 16.6245 23.0408C16.3796 23.1878 16.1837 23.3837 15.9878 23.5306C15.9388 23.5796 15.8408 23.6286 15.7919 23.6286C15.6939 23.6286 15.6449 23.6286 15.547 23.5306L14.6653 22.649C14.5184 22.502 14.5184 22.3551 14.6164 22.2082C14.7633 22.0122 14.9592 21.7673 15.1062 21.5714C15.1551 21.5224 15.1062 21.4735 15.1062 21.4245C15.0082 21.1306 14.8613 20.8857 14.7633 20.5918C14.7633 20.5429 14.7143 20.4939 14.6653 20.4939C14.4204 20.4449 14.1755 20.3959 13.9306 20.3959C13.7837 20.3469 13.6857 20.298 13.5878 20.151V18.6816C13.6368 18.5347 13.7837 18.4367 13.9306 18.4367C14.1755 18.3878 14.4204 18.3878 14.6653 18.3388C14.7143 18.3388 14.7633 18.2898 14.7633 18.2408C14.8613 17.9469 15.0082 17.702 15.1062 17.4082C15.1551 17.3592 15.1551 17.3102 15.1062 17.2612C14.9592 17.0163 14.7633 16.8204 14.6164 16.6245C14.5184 16.4776 14.5184 16.3306 14.6653 16.1837C14.9592 15.8898 15.2531 15.5959 15.547 15.302C15.6449 15.2531 15.6939 15.2041 15.7919 15.2041C15.8898 15.2041 15.9388 15.2531 15.9878 15.302C16.2327 15.449 16.4286 15.6449 16.6245 15.7918C16.6735 15.8408 16.6735 15.8408 16.7225 15.8408H16.7715C17.0653 15.7429 17.3102 15.5959 17.6041 15.498C17.6531 15.498 17.7021 15.449 17.7021 15.4C17.7511 15.1551 17.8 14.9102 17.8 14.6653C17.8 14.5184 17.898 14.4204 17.9959 14.3224C18.0449 14.2735 18.0939 14.2735 18.1919 14.2735H19.4653ZM18.7796 17.4571L18.634 17.4625C17.6237 17.5377 16.8204 18.3878 16.8204 19.4163C16.8204 20.4939 17.6531 21.3755 18.7796 21.3755L18.9255 21.3696C19.8903 21.2911 20.6922 20.4426 20.7388 19.4163C20.7388 18.3388 19.8572 17.4571 18.7796 17.4571Z" fill="#706E6B"/>
</svg>
