<svg width="26" height="26" viewBox="0 0 26 26" fill="none" xmlns="http://www.w3.org/2000/svg">
<path fill-rule="evenodd" clip-rule="evenodd" d="M20.5 11.7H20.25V11.3C20.25 8.8 18.2 6.75 15.7 6.75C14.5 6.75 13.45 7.2 12.65 7.95C12 6.25 10.35 5 8.4 5C5.9 5 3.85 7.05 3.85 9.55C3.85 10.4 4.1 11.15 4.45 11.85C2.45 12.35 1 14.1 1 16.25C1 18.7 2.9 20.65 5.35 20.75H20.45C22.95 20.75 25 18.7 25 16.2C25 13.7 23 11.7 20.5 11.7ZM8.2 12.1L12.1 10.25C12.25 10.15 12.5 10.15 12.65 10.25L16.55 12.1C16.8 12.2 16.8 12.5 16.55 12.65L12.65 14.5C12.5 14.6 12.25 14.6 12.1 14.5L8.2 12.65C8 12.55 8 12.2 8.2 12.1ZM16.6 16.7L12.7 18.55C12.55 18.65 12.3 18.65 12.15 18.55L8.25 16.7C8 16.6 8 16.3 8.25 16.15L8.75 15.9C8.8 15.85 8.9 15.85 9 15.9L12.15 17.4C12.3 17.5 12.55 17.5 12.7 17.4L15.8 15.9C15.85 15.85 15.95 15.85 16.05 15.9L16.55 16.15C16.8 16.25 16.8 16.6 16.6 16.7ZM16.6 14.7L12.7 16.55C12.55 16.65 12.3 16.65 12.15 16.55L8.25 14.7C8 14.6 8 14.3 8.25 14.15L8.8 13.9C8.85 13.85 8.95 13.85 9.05 13.9L12.15 15.4C12.3 15.5 12.55 15.5 12.7 15.4L15.8 13.9C15.85 13.85 15.95 13.85 16.05 13.9L16.6 14.15C16.8 14.25 16.8 14.55 16.6 14.7Z" fill="#706E6B"/>
</svg>
