<svg width="26" height="26" viewBox="0 0 26 26" fill="none" xmlns="http://www.w3.org/2000/svg">
<path fill-rule="evenodd" clip-rule="evenodd" d="M8.65001 18.0504L8.10001 17.3504C8.10001 17.3504 7.75001 16.8504 7.65001 16.5504C7.55001 16.4004 7.40001 16.3004 7.20001 16.3004H6.90001C5.15001 16.3004 3.65001 15.0004 3.55001 13.3004C3.40001 11.4004 4.95001 9.85039 6.80001 9.85039H11.35C11.95 9.85039 12.5 10.0504 12.95 10.2504C13.55 10.6004 14.05 11.1504 14.3 11.8004C14.45 12.2004 14.55 12.6004 14.55 13.1004C14.55 13.3504 14.5 13.5504 14.45 13.8004C14.35 14.1504 14.6 14.4504 14.95 14.4004H16.65C16.9 14.4004 17.05 14.2004 17.15 14.0004C17.2 13.7004 17.2 13.4004 17.2 13.1004C17.2 12.7004 17.15 12.2504 17.05 11.8004C16.9 11.1004 16.6 10.4504 16.2 9.85039C15.45 8.75039 14.3 7.85039 13 7.50039C12.5 7.35039 11.9 7.25039 11.4 7.25039H7.00001C3.85001 7.25039 1.15001 9.70039 1.05001 12.8504C0.900014 16.1504 3.55001 18.9004 6.85001 18.9004H8.35001C8.70001 18.8504 8.90001 18.3504 8.65001 18.0504ZM24.95 12.8004C24.85 9.65039 22.15 7.15039 19 7.20039L17.65 7.15039C17.25 7.15039 17 7.65039 17.25 7.95039C17.65 8.40039 17.95 8.90039 18.25 9.45039C18.35 9.60039 18.5 9.70039 18.7 9.70039H19C20.75 9.70039 22.25 11.0004 22.35 12.7004C22.5 14.6004 20.95 16.1504 19.1 16.1504H14.55C13.95 16.1504 13.4 15.9504 12.95 15.7504C12.35 15.4004 11.85 14.8504 11.6 14.2004C11.45 13.8004 11.35 13.4004 11.35 12.9004C11.35 12.6504 11.4 12.4504 11.45 12.2004C11.55 11.8504 11.3 11.5504 10.95 11.6004H9.25001C9.00001 11.6004 8.85001 11.8004 8.75001 12.0004C8.70001 12.3004 8.70001 12.6004 8.70001 12.9004C8.70001 13.3004 8.75001 13.8004 8.85001 14.2004C9.00001 14.9004 9.30001 15.5504 9.70001 16.1004C10.45 17.2004 11.6 18.1004 12.9 18.4504C13.4 18.6004 14 18.7004 14.5 18.7004H19.05C22.4 18.8504 25.05 16.1004 24.95 12.8004Z" fill="#706E6B"/>
</svg>
