<svg width="26" height="26" viewBox="0 0 26 26" fill="none" xmlns="http://www.w3.org/2000/svg">
<path fill-rule="evenodd" clip-rule="evenodd" d="M23 1H11C9.9 1 9 1.9 9 3V3.05C10.8 3.25 12.45 3.9 13.8 4.95H21.2C21.6 4.95 22 5.35 22 5.75V19.25C22 19.65 21.6 19.95 21.2 19.95H12.7C12.3 19.95 12 19.65 12 19.25V19.2C12 19.15 11.95 19.05 11.9 19.05C11.05 19.45 10.1 19.7 9.15 19.8C9.05 19.9 9 20 9 20.25V22.95C9 24.05 9.85 24.95 10.95 24.95H22.95C24.05 24.95 25 24.05 25 22.95V3C25 1.9 24.1 1 23 1ZM17 24C16.15 24 15.5 23.35 15.5 22.5C15.5 21.65 16.15 21 17 21C17.85 21 18.5 21.65 18.5 22.5C18.5 23.35 17.85 24 17 24ZM1 11.45C1 15 4.15 17.85 7.95 17.9C9.3 17.9 10.55 17.55 11.6 16.95C11.8 16.85 11.95 16.85 12.1 16.9L14.6 17.85C14.85 17.9 15.05 17.7 15 17.45L14.1 14.95C14.05 14.75 14.05 14.6 14.15 14.45C14.7 13.5 15 12.45 15 11.35C15 7.85 11.9 5 8 5C4.15 5 1.05 7.85 1 11.45Z" fill="#706E6B"/>
</svg>
