<svg width="26" height="26" viewBox="0 0 26 26" fill="none" xmlns="http://www.w3.org/2000/svg">
<path fill-rule="evenodd" clip-rule="evenodd" d="M24.4 4.74427L17.2 1.14427C16.85 0.994272 16.45 0.994272 16.15 1.14427L9.5 4.49427L2.8 1.14427C2.4 0.944272 1.9 0.944272 1.55 1.19427C1.2 1.39427 1 1.79427 1 2.19427V20.1943C1 20.6443 1.25 21.0443 1.65 21.2443L8.85 24.8443C9.2 24.9943 9.6 24.9943 9.9 24.8443L16.6 21.4943L23.25 24.8443C23.4 24.9443 23.6 24.9943 23.8 24.9943C24 24.9943 24.25 24.9443 24.45 24.7943C24.8 24.5943 25 24.1943 25 23.7943V5.79427C25 5.34427 24.8 4.94427 24.4 4.74427ZM22.5 7.04427V16.5443C22.5 17.0943 22 17.4943 21.5 17.2943C19.65 16.5943 21.15 13.4943 19.8 11.7943C18.55 10.2443 16.95 11.8443 15.4 9.39427C13.95 7.04427 15.9 5.34427 17.7 4.44427C17.95 4.34427 18.2 4.34427 18.4 4.44427L22.1 6.29427C22.4 6.44427 22.5 6.74427 22.5 7.04427ZM12.45 20.9443C12.15 21.0943 11.8 21.0443 11.55 20.8443C11.05 20.3943 10.65 19.6943 10.65 18.9943C10.65 17.7943 8.65 18.1943 8.65 15.7943C8.65 13.8443 6.35 13.3443 4.4 13.5443C3.9 13.5943 3.55 13.2443 3.55 12.7443V5.44427C3.55 4.84427 4.15 4.44427 4.65 4.74427L8.95 6.89427C9 6.89427 9.05 6.94427 9.05 6.94427L9.2 7.04427C11 8.09427 10.65 8.94427 9.9 10.2443C9.05 11.6943 8.7 10.2443 7.5 9.84427C6.3 9.44427 5.1 10.2443 5.5 11.0443C5.9 11.8443 7.1 11.0443 7.9 11.8443C8.7 12.6443 8.7 13.8443 11.1 13.0443C13.5 12.2443 13.9 12.6443 14.7 13.4443C15.5 14.2443 15.9 15.8443 14.7 17.0443C14 17.7443 13.7 19.2443 13.4 20.2443C13.35 20.4443 13.2 20.6443 13 20.7443L12.45 20.9443Z" fill="#706E6B"/>
</svg>
