<svg width="26" height="26" viewBox="0 0 26 26" fill="none" xmlns="http://www.w3.org/2000/svg">
<path fill-rule="evenodd" clip-rule="evenodd" d="M23.8225 4.575C23.3725 3.475 22.8225 2.475 22.1725 1.525C21.8725 1.125 21.3225 1.075 21.0225 1.425C20.0725 2.325 18.7225 2.825 17.3225 2.825C15.8225 2.825 14.4725 2.225 13.4725 1.225C13.1725 0.925 12.6725 0.925 12.3725 1.225C11.3725 2.225 10.0225 2.825 8.52249 2.825C7.12249 2.825 5.82248 2.325 4.82249 1.425C4.47249 1.125 3.92249 1.175 3.67249 1.525C3.02249 2.425 2.47249 3.475 2.02249 4.575C2.02249 4.575 0.822485 7.025 1.02249 11.075V11.475C1.02249 11.675 1.07249 11.875 1.07249 12.075V12.125C1.77249 18.825 6.72249 24.175 12.9725 25.025C19.2725 24.125 24.1725 18.775 24.8725 12.075V11.925C24.8725 11.825 24.8725 11.675 24.9225 11.525C25.2725 7.225 23.8225 4.575 23.8225 4.575ZM20.4225 9.725L12.1225 18.175C11.9225 18.375 11.6725 18.375 11.4725 18.175L6.62249 13.275C6.42248 13.075 6.42248 12.825 6.62249 12.625L7.27249 11.975C7.47249 11.775 7.72249 11.775 7.92248 11.975L11.5725 15.675C11.6725 15.775 11.8725 15.775 12.0225 15.675L19.1725 8.475C19.3725 8.275 19.6225 8.275 19.8225 8.475L20.4725 9.125C20.6225 9.275 20.6225 9.575 20.4225 9.725Z" fill="#706E6B"/>
</svg>
