<svg width="26" height="26" viewBox="0 0 26 26" fill="none" xmlns="http://www.w3.org/2000/svg">
<path fill-rule="evenodd" clip-rule="evenodd" d="M10.5 24.25V22.75C10.5 22.35 10.15 22 9.75 22H4.75C4.35 22 4 21.65 4 21.25V4.75C4 4.35 4.35 4 4.75 4H9.75C10.15 4 10.5 3.65 10.5 3.25V1.75C10.5 1.35 10.15 1 9.75 1H3C1.9 1 1 1.9 1 3V23C1 24.1 1.9 25 3 25H9.75C10.15 25 10.5 24.65 10.5 24.25ZM24.8 13.5C25.1 13.2 25.1 12.75 24.8 12.45L18.05 5.7C17.75 5.4 17.3 5.4 17 5.7L15.95 6.75C15.65 7.05 15.65 7.5 15.95 7.8L18.75 10.6C19.05 10.9 18.85 11.45 18.4 11.45H7.75C7.35 11.45 7 11.75 7 12.15V13.65C7 14.05 7.35 14.45 7.75 14.45H18.35C18.8 14.45 19 15 18.7 15.3L15.9 18.1C15.6 18.4 15.6 18.85 15.9 19.15L16.95 20.2C17.25 20.5 17.7 20.5 18 20.2L24.8 13.5Z" fill="#706E6B"/>
</svg>
