<svg width="26" height="26" viewBox="0 0 26 26" fill="none" xmlns="http://www.w3.org/2000/svg">
<path fill-rule="evenodd" clip-rule="evenodd" d="M3.30005 1H1.80005C1.40005 1 1.05005 1.35 1.05005 1.75V24.25C1.05005 24.65 1.40005 25 1.80005 25H3.30005C3.70005 25 4.05005 24.65 4.05005 24.25V1.75C4.05005 1.35 3.70005 1 3.30005 1ZM20.3 12.3C21.65 12.3 22.9 12.65 24.05 13.25V3.3C24.05 2.95 23.65 2.7 23.3 2.9C15.3 7.1 16.2 -1.5 6.55005 1.85C6.25005 1.95 6.05005 2.25 6.05005 2.55V14.2C6.05005 14.55 6.40005 14.8 6.70005 14.65C10.55 13.35 12.65 14 14.4 14.95C15.85 13.3 17.95 12.3 20.3 12.3ZM15.9 17.3L18.9 20.3L15.9 23.3C15.6 23.6 15.6 24.1 15.9 24.35L16.25 24.7C16.55 25 17.05 25 17.3 24.7L20.3 21.7L23.3 24.7C23.6 25 24.1 25 24.35 24.7L24.7 24.35C25 24.05 25 23.55 24.7 23.3L21.7 20.3L24.7 17.3C25 17 25 16.5 24.7 16.25L24.35 15.9C24.05 15.6 23.55 15.6 23.3 15.9L20.3 18.9L17.3 15.9C17 15.6 16.5 15.6 16.25 15.9L15.9 16.25C15.6 16.5 15.6 17 15.9 17.3Z" fill="#706E6B"/>
</svg>
