<svg width="26" height="26" viewBox="0 0 26 26" fill="none" xmlns="http://www.w3.org/2000/svg">
<path d="M23.0616 9.44552C23.6154 9.44552 24.0769 9.90706 24.0769 10.4609V21.3994C24.0769 21.9532 23.6154 22.4148 23.0616 22.4148H16.5539C16 22.4148 15.5385 21.9532 15.5385 21.3994V10.4609C15.5385 9.90706 16 9.44552 16.5539 9.44552H23.0616ZM12.0769 18.3994C12.2789 18.3994 12.4455 18.5407 12.4839 18.7306L12.4923 18.8148V19.5994C12.4923 19.8013 12.6337 19.9679 12.8236 20.0064L12.9077 20.0148H13.7846V21.3994C13.7846 21.7159 13.8185 21.9984 13.9445 22.2471L14.0154 22.3686H7.50771C7.25848 22.3686 6.97186 22.1443 6.91703 21.8639L6.90771 21.7686V21.584C6.90771 20.7994 7.5664 20.0971 8.33945 20.0215L8.47694 20.0148H9.67694C9.87886 20.0148 10.0455 19.8734 10.0839 19.6835L10.0923 19.5994V18.8148C10.0923 18.6128 10.2337 18.4462 10.4236 18.4078L10.5077 18.3994H12.0769ZM19.2308 3.58398C20.0154 3.58398 20.7177 4.24267 20.7933 5.01572L20.8 5.15322V7.64552H18.4462V6.49168C18.4462 6.24245 18.2219 5.95583 17.9415 5.901L17.8462 5.89168H4.87694C4.62771 5.89168 4.3411 6.11598 4.28627 6.39637L4.27694 6.49168V13.9686C4.27694 14.2178 4.50125 14.5044 4.78163 14.5593L4.87694 14.5686H13.7846V16.9686H3.49233C2.70771 16.9686 2.00543 16.3099 1.92982 15.5369L1.9231 15.3994V5.15322C1.9231 4.3686 2.58179 3.66632 3.35483 3.59071L3.49233 3.58398H19.2308Z" fill="#706E6B"/>
</svg>
