<svg width="26" height="26" viewBox="0 0 26 26" fill="none" xmlns="http://www.w3.org/2000/svg">
<path fill-rule="evenodd" clip-rule="evenodd" d="M6 14.75V4.5C6 3.4 5.1 2.5 4 2.5H2.75C2.35 2.5 2 2.85 2 3.25V14.75C2 15.15 2.35 15.5 2.75 15.5H5.25C5.65 15.5 6 15.15 6 14.75ZM24 13V6.75C24 2.4 20.55 2 16.8 2C13.25 2 12.1 3.35 8.7 3.5C8.3 3.5 8 3.85 8 4.25V14.25C8 14.65 8.35 15 8.75 15C11.15 15 13 17.6 13 20.25V23.25C13 23.65 13.35 24 13.75 24H15C16.1 24 17 23.1 17 22V17C17 15.9 17.9 15 19 15H22C23.1 15 24 14.1 24 13Z" fill="#706E6B"/>
</svg>
