<svg width="26" height="26" viewBox="0 0 26 26" fill="none" xmlns="http://www.w3.org/2000/svg">
<path fill-rule="evenodd" clip-rule="evenodd" d="M21.75 1.25H4.3C2.6 1.25 1.25 2.6 1.25 4.3V21.65C1.25 23.35 2.6 24.7 4.3 24.7H21.7C23.4 24.7 24.75 23.35 24.75 21.65V4.3C24.8 2.6 23.4 1.25 21.75 1.25ZM5.3 6.35C5.3 5.8 5.75 5.35 6.3 5.35H17.75C18.3 5.35 18.75 5.8 18.75 6.35V7.4C18.75 7.95 18.3 8.4 17.75 8.4H6.25C5.7 8.4 5.25 7.95 5.25 7.4V6.35H5.3ZM17.35 19.65C17.35 20.2 16.9 20.65 16.35 20.65H6.35C5.8 20.65 5.35 20.2 5.35 19.65V18.65C5.35 18.1 5.8 17.65 6.35 17.65H16.35C16.9 17.65 17.35 18.1 17.35 18.65V19.65ZM20.7 13.5C20.7 14.05 20.25 14.5 19.7 14.5H6.35C5.8 14.5 5.35 14.05 5.35 13.5V12.5C5.35 11.95 5.8 11.5 6.35 11.5H19.65C20.2 11.5 20.65 11.95 20.65 12.5V13.5H20.7Z" fill="#706E6B"/>
</svg>
