<svg width="26" height="26" viewBox="0 0 26 26" fill="none" xmlns="http://www.w3.org/2000/svg">
<path fill-rule="evenodd" clip-rule="evenodd" d="M15.45 17.15C15.45 18.05 14.35 18.4 13.85 17.65L12.85 15.5C12.3 14.55 11.1 14.35 10.2 14.95L9.55002 15.45L12.9 23.4C13.05 23.75 13.4 23.95 13.8 23.95H22.6C23.05 23.95 23.4 23.65 23.5 23.25L25.05 17.7C25.45 16.15 24.55 14.65 23.15 14.1L19.15 12.75C13.5 10.7 15.35 16.95 15.45 17.15ZM0.900024 14.25H3.80002V17.15H0.900024V14.25ZM7.20002 2H10.1V4.9H7.20002V2ZM7.20002 21H10.1V23.9H7.20002V21ZM0.900024 7.9H3.80002V10.8H0.900024V7.9ZM0.900024 2.05H3.80002V4.95H0.900024V2.05ZM13.55 2H16.45V4.9H13.55V2ZM19.9 2H22.8V4.9H19.9V2ZM0.900024 21.05H3.80002V23.95H0.900024V21.05ZM19.9 8.4H22.8V11.3H19.9V8.4Z" fill="#706E6B"/>
</svg>
