<svg width="26" height="26" viewBox="0 0 26 26" fill="none" xmlns="http://www.w3.org/2000/svg">
<path fill-rule="evenodd" clip-rule="evenodd" d="M10.4 21.4998V21.3498C6.85005 20.1998 4.25005 16.9498 4.25005 12.9998C4.25005 8.1998 8.20005 4.2498 13 4.2498C17.8 4.2498 21.75 8.1998 21.75 12.9998C21.75 13.7998 21.65 14.5998 21.45 15.3498C21.55 15.4498 21.7 15.4998 21.8 15.5998C21.95 15.5998 22.1 15.5498 22.25 15.5498C23.05 15.5498 23.85 15.7998 24.45 16.1498C24.75 15.1498 24.9 14.0998 24.9 12.9998C24.85 6.3998 19.5 1.0498 12.95 1.0498C6.40005 1.0498 1.05005 6.3998 1.05005 12.9498C1.05005 19.2498 5.95005 24.3998 12.15 24.7998C11.15 24.0998 10.4 22.8498 10.4 21.4998ZM15.65 14.3998C16.4 14.3998 17.1 14.5998 17.75 14.8998C17.9 14.8498 18.05 14.7998 18.25 14.7998C18.45 14.2498 18.55 13.6498 18.55 12.9998C18.55 9.9498 16.1 7.4998 13.05 7.4998C10 7.4998 7.55005 9.9498 7.55005 12.9998C7.55005 15.4498 9.15005 17.4998 11.35 18.2498C11.55 16.0498 13.4 14.3998 15.65 14.3998ZM17.6 17.2998C18 16.8998 18.55 16.6498 19.2 16.6498C20.05 16.6498 20.75 17.0998 21.15 17.7498C21.45 17.6498 21.85 17.4998 22.25 17.4998C23.7 17.4998 24.95 18.7498 24.95 20.1498C24.95 21.5998 23.7 22.7998 22.25 22.7998C22.1 22.7998 21.9 22.7998 21.75 22.7498C21.45 23.3498 20.75 23.7498 20.05 23.7498C19.75 23.7498 19.45 23.6498 19.2 23.5498C18.85 24.3498 18.05 24.8998 17.15 24.8998C16.15 24.8998 15.35 24.2998 15.05 23.4498C14.95 23.4498 14.75 23.4998 14.6 23.4998C13.45 23.4998 12.5 22.5998 12.5 21.4498C12.5 20.6998 12.9 19.9998 13.55 19.6498C13.45 19.3498 13.35 19.0498 13.35 18.6998C13.35 17.3998 14.45 16.2998 15.75 16.2998C16.45 16.3498 17.15 16.7498 17.6 17.2998Z" fill="#706E6B"/>
</svg>
