<svg width="40" height="40" viewBox="0 0 40 40" fill="none" xmlns="http://www.w3.org/2000/svg">
<rect width="40" height="40" rx="20" fill="#4A698D"/>
<mask id="mask0_1518_28376" style="mask-type:luminance" maskUnits="userSpaceOnUse" x="0" y="0" width="40" height="40">
<rect width="40" height="40" rx="20" fill="white"/>
</mask>
<g mask="url(#mask0_1518_28376)">
<path d="M16.6 18.3004C16.35 18.0004 16.5 17.5004 16.85 17.4004H21.35C24.7 17.4004 27.4 20.2504 27.1 23.7004C26.8 26.6504 24.2 28.8504 21.2 28.8504H19.5C19.1 28.8504 18.7 29.2004 18.7 29.6504V31.2004C18.7 31.6004 19.05 32.0004 19.5 32.0004H21.3C26.15 32.0004 30.05 28.1004 30.15 23.3004C30.25 18.3504 26.05 14.3004 21.1 14.2504H16.95C16.95 14.2504 15.6 14.3004 16.45 13.3504L19.4 10.4504C19.7 10.1504 19.7 9.65039 19.4 9.35039L18.3 8.25039C18 7.95039 17.5 7.95039 17.2 8.25039L10.2 15.3004C9.89998 15.6004 9.89998 16.1004 10.2 16.4004L17.25 23.4504C17.55 23.7504 18.05 23.7504 18.35 23.4504L19.45 22.3504C19.75 22.0504 19.75 21.5504 19.45 21.2504L16.6 18.3004Z" fill="white"/>
</g>
</svg>
