<svg width="40" height="40" viewBox="0 0 40 40" fill="none" xmlns="http://www.w3.org/2000/svg">
<rect width="40" height="40" rx="20" fill="#54698D"/>
<mask id="mask0_1518_28326" style="mask-type:luminance" maskUnits="userSpaceOnUse" x="0" y="0" width="40" height="40">
<rect width="40" height="40" rx="20" fill="white"/>
</mask>
<g mask="url(#mask0_1518_28326)">
<path d="M22.9053 19.8738L31.1789 11.6001C31.5579 11.2212 31.5579 10.6527 31.1789 10.2738L29.8526 8.94747C29.4737 8.56852 28.9053 8.56852 28.5263 8.94747L20.2526 17.2212C20 17.4738 19.621 17.4738 19.3684 17.2212L11.0947 8.88431C10.7158 8.50536 10.1474 8.50536 9.76841 8.88431L8.44209 10.2106C8.06315 10.5896 8.06315 11.158 8.44209 11.5369L16.7158 19.8106C16.9684 20.0633 16.9684 20.4422 16.7158 20.6948L8.37894 29.0317C7.99999 29.4106 7.99999 29.979 8.37894 30.358L9.70525 31.6843C10.0842 32.0633 10.6526 32.0633 11.0316 31.6843L19.3684 23.4106C19.621 23.158 20 23.158 20.2526 23.4106L28.5263 31.6843C28.9053 32.0633 29.4737 32.0633 29.8526 31.6843L31.1789 30.358C31.5579 29.979 31.5579 29.4106 31.1789 29.0317L22.9053 20.758C22.7158 20.5054 22.7158 20.1264 22.9053 19.8738Z" fill="white"/>
</g>
</svg>
