<svg width="40" height="40" viewBox="0 0 40 40" fill="none" xmlns="http://www.w3.org/2000/svg">
<rect width="40" height="40" rx="20" fill="#F88962"/>
<mask id="mask0_1518_28366" style="mask-type:luminance" maskUnits="userSpaceOnUse" x="0" y="0" width="40" height="40">
<rect width="40" height="40" rx="20" fill="white"/>
</mask>
<g mask="url(#mask0_1518_28366)">
<path d="M20.8 21.1496C20.5 21.4496 20.5 21.8996 20.8 22.1996L21.85 23.2496C22.15 23.5496 22.6 23.5496 22.9 23.2496L29.65 16.4996C29.95 16.1996 29.95 15.7496 29.65 15.4496L22.95 8.69961C22.65 8.39961 22.2 8.39961 21.9 8.69961L20.85 9.74961C20.55 10.0496 20.55 10.4996 20.85 10.7996L23.7 13.5996C24.5 14.4996 23.2 14.4496 23.2 14.4496H19.2C14.45 14.4996 10.4 18.3996 10.5 23.1496C10.6 27.7496 14.35 31.4996 19 31.4996H20.75C21.15 31.4996 21.5 31.1496 21.5 30.7496V29.2496C21.5 28.8496 21.15 28.4996 20.75 28.4996H19.15C16.3 28.4996 13.8 26.3996 13.5 23.5496C13.2 20.2496 15.8 17.4996 19 17.4996H23H23.3C23.65 17.5996 23.8 18.0496 23.55 18.3496L20.8 21.1496Z" fill="white"/>
</g>
</svg>
