<svg width="48" height="48" viewBox="0 0 48 48" fill="none" xmlns="http://www.w3.org/2000/svg">
<rect width="48" height="48" rx="4" fill="#6B9EE2"/>
<mask id="mask0_1518_27706" style="mask-type:luminance" maskUnits="userSpaceOnUse" x="0" y="0" width="48" height="48">
<rect width="48" height="48" rx="4" fill="white"/>
</mask>
<g mask="url(#mask0_1518_27706)">
<path fill-rule="evenodd" clip-rule="evenodd" d="M25.9508 24.1002C25.8108 23.9498 25.74 23.7477 25.7557 23.5428V18.8441C25.7468 18.4415 25.4226 18.1173 25.02 18.1084H23.5652C23.1626 18.1173 22.8383 18.4415 22.8295 18.8441V24.7858C22.8388 24.9866 22.9066 25.1804 23.0245 25.3432L26.6586 28.9773C26.7932 29.118 26.9795 29.1976 27.1742 29.1976C27.3689 29.1976 27.5552 29.118 27.6898 28.9773L28.7377 27.9015C28.8784 27.7669 28.958 27.5807 28.958 27.3859C28.958 27.1912 28.8784 27.005 28.7377 26.8704L25.9508 24.1002Z" fill="white"/>
<path fill-rule="evenodd" clip-rule="evenodd" d="M24.2787 12.2168C17.7741 12.2291 12.5099 17.5099 12.5181 24.0146C12.5263 30.5192 17.8038 35.7868 24.3084 35.7827C30.8131 35.7786 36.084 30.5044 36.084 23.9997C36.0656 17.4911 30.7873 12.2229 24.2787 12.2168ZM24.2787 32.8397C19.404 32.8244 15.463 28.8634 15.4722 23.9887C15.4814 19.1139 19.4374 15.1679 24.3121 15.1709C29.1869 15.174 33.1379 19.125 33.141 23.9997C33.1257 28.8834 29.1624 32.8342 24.2787 32.8342V32.8397Z" fill="white"/>
<path fill-rule="evenodd" clip-rule="evenodd" d="M12.4734 29.5232C9.86692 26.3041 9.86692 21.7006 12.4734 18.4815L10.5171 16.1963C6.56284 20.6343 6.56284 27.3314 10.5171 31.7694L12.4734 29.5232Z" fill="white"/>
<path fill-rule="evenodd" clip-rule="evenodd" d="M36.1118 18.4924C38.7183 21.7115 38.7183 26.315 36.1118 29.5341L38.0125 31.8026C41.9667 27.3646 41.9667 20.6675 38.0125 16.2295L36.1118 18.4924Z" fill="white"/>
</g>
</svg>
