<svg width="48" height="48" viewBox="0 0 48 48" fill="none" xmlns="http://www.w3.org/2000/svg">
<rect width="48" height="48" rx="4" fill="#ED683F"/>
<mask id="mask0_1518_27712" style="mask-type:luminance" maskUnits="userSpaceOnUse" x="0" y="0" width="48" height="48">
<rect width="48" height="48" rx="4" fill="white"/>
</mask>
<g mask="url(#mask0_1518_27712)">
<path d="M35.2094 34.625H12.7906C12.2594 34.625 11.7812 35.1031 11.7812 35.6344V35.6875C11.7812 37.4406 13.2156 38.875 14.9688 38.875H33.0312C34.7844 38.875 36.2188 37.4406 36.2188 35.6875V35.6344C36.2188 35.1031 35.7406 34.625 35.2094 34.625Z" fill="white"/>
<path d="M37.8125 12.8438C36.0594 12.8438 34.625 14.2781 34.625 16.0312C34.625 16.9875 35.05 17.8906 35.7406 18.475C34.8375 20.5469 32.7656 21.9812 30.3219 21.875C27.5063 21.7156 25.2219 19.4312 25.0625 16.6156C25.0625 16.1375 25.0625 15.7125 25.1688 15.2875C26.3375 14.8094 27.1875 13.6937 27.1875 12.3125C27.1875 10.5594 25.7531 9.125 24 9.125C22.2469 9.125 20.8125 10.5594 20.8125 12.3125C20.8125 13.6406 21.6625 14.8094 22.8313 15.2875C22.9375 15.7125 22.9375 16.1375 22.9375 16.6156C22.7781 19.4312 20.4938 21.7156 17.6781 21.875C15.2344 22.0344 13.1094 20.5469 12.2594 18.475C12.95 17.8906 13.375 16.9875 13.375 16.0312C13.375 14.2781 11.9406 12.8438 10.1875 12.8438C8.43438 12.8438 7 14.2781 7 16.0312C7 17.7844 8.43438 19.2188 10.1875 19.2188L11.675 30.5875C11.7281 31.0656 12.1531 31.4375 12.6844 31.4375H35.3156C35.7937 31.4375 36.2188 31.0656 36.325 30.5875L37.8125 19.2188C39.5656 19.2188 41 17.7844 41 16.0312C41 14.2781 39.5656 12.8438 37.8125 12.8438Z" fill="white"/>
</g>
</svg>
