<svg width="48" height="48" viewBox="0 0 48 48" fill="none" xmlns="http://www.w3.org/2000/svg">
<rect width="48" height="48" rx="4" fill="#769ED9"/>
<mask id="mask0_1518_27716" style="mask-type:luminance" maskUnits="userSpaceOnUse" x="0" y="0" width="48" height="48">
<rect width="48" height="48" rx="4" fill="white"/>
</mask>
<g mask="url(#mask0_1518_27716)">
<path d="M40.32 31.1397L38.28 30.1763C37.9967 30.0063 37.6 30.0063 37.3167 30.1763L25.1333 35.9563C24.4533 36.2963 23.6033 36.2963 22.9233 35.9563L10.6833 30.1763C10.4 30.0063 10.0033 30.0063 9.72 30.1763L7.68 31.1397C6.77333 31.593 6.77333 32.783 7.68 33.2363L22.8667 40.433C23.5467 40.773 24.3967 40.773 25.0767 40.433L40.2633 33.2363C41.2267 32.783 41.2267 31.5363 40.32 31.1397Z" fill="white"/>
<path d="M40.32 23.2061L38.2233 22.2427C37.94 22.0727 37.5433 22.0727 37.26 22.2427L25.1333 28.0227C24.4533 28.3627 23.6033 28.3627 22.9233 28.0227L10.74 22.2427C10.4567 22.0727 10.06 22.0727 9.77667 22.2427L7.68 23.2061C6.77333 23.6594 6.77333 24.8494 7.68 25.3027L22.8667 32.5561C23.5467 32.8961 24.3967 32.8961 25.0767 32.5561L40.2633 25.3594C41.2267 24.9061 41.2267 23.6594 40.32 23.2061Z" fill="white"/>
<path d="M7.68 17.3696L22.8667 24.5663C23.5467 24.9063 24.3967 24.9063 25.0767 24.5663L40.2633 17.3696C41.17 16.9163 41.17 15.7263 40.2633 15.273L25.0767 8.07629C24.3967 7.73629 23.5467 7.73629 22.8667 8.07629L7.68 15.3296C6.77333 15.7263 6.77333 16.973 7.68 17.3696Z" fill="white"/>
</g>
</svg>
