<svg width="48" height="48" viewBox="0 0 48 48" fill="none" xmlns="http://www.w3.org/2000/svg">
<rect width="48" height="48" rx="4" fill="#439CBA"/>
<mask id="mask0_1518_27369" style="mask-type:luminance" maskUnits="userSpaceOnUse" x="0" y="0" width="48" height="48">
<rect width="48" height="48" rx="4" fill="white"/>
</mask>
<g mask="url(#mask0_1518_27369)">
<path d="M8.00328 26.1181H31.1344C31.7475 26.1181 32.0262 26.8984 31.6361 27.2885L24.9475 33.9771C24.5016 34.423 24.5016 35.0361 24.9475 35.4263L26.5082 36.9869C26.9541 37.4328 27.5672 37.4328 27.9574 36.9869L40.1639 24.7246C40.6098 24.2787 40.6098 23.6656 40.1639 23.2754L27.9016 11.0131C27.4557 10.5672 26.8426 10.5672 26.4525 11.0131L25.0033 12.4623C24.5574 12.9082 24.5574 13.5213 25.0033 13.9115L31.6918 20.6C32.1377 21.1017 31.859 21.882 31.1902 21.882H8.05902C7.50164 21.882 7 22.3279 7 22.8853V25.0033C7 25.5607 7.4459 26.1181 8.00328 26.1181Z" fill="white"/>
</g>
</svg>
