<svg width="26" height="26" viewBox="0 0 26 26" fill="none" xmlns="http://www.w3.org/2000/svg">
<path d="M10.4041 21.6204C10.7959 22.551 11.3837 23.4327 12.1184 24.1673C12.2286 24.2408 12.3112 24.3418 12.4077 24.4497L12.5102 24.5592H10.551C10.1919 24.5592 9.87383 24.2711 9.82332 23.9213L9.81635 23.8245V22.3551C9.81635 22.0122 10.0612 21.6694 10.4041 21.6204ZM21.8163 14.4694C24.1184 16.7714 24.1184 20.4939 21.8163 22.7959C19.5143 25.098 15.7919 25.098 13.4898 22.7959C11.1878 20.4939 11.1878 16.7714 13.4898 14.4694C15.7919 12.1673 19.5143 12.1673 21.8163 14.4694ZM7.12247 21.5714C7.48166 21.5714 7.79968 21.8595 7.85019 22.2094L7.85717 22.3061V23.7755C7.85717 24.1347 7.56907 24.4527 7.21924 24.5032L7.12247 24.5102H2.71431C2.35512 24.5102 2.0371 24.2221 1.98659 23.8723L1.97961 23.7755V22.3061C1.97961 21.9469 2.26771 21.6289 2.61754 21.5784L2.71431 21.5714H7.12247ZM18.1505 14.862L17.2123 14.8612C17.1633 14.8612 17.1143 14.8612 17.0653 14.9102C17.0163 14.9592 16.9184 15.0571 16.9184 15.1551C16.9184 15.351 16.9184 15.498 16.8694 15.6939C16.8694 15.6939 16.8694 15.7429 16.8204 15.7429C16.6368 15.7796 16.5082 15.8714 16.3521 15.9357L16.1837 15.9878C16.1806 15.9847 16.1715 15.9755 16.1347 15.9388C15.9878 15.8408 15.8408 15.6939 15.6449 15.5959C15.6449 15.5959 15.5959 15.5469 15.498 15.5469C15.4245 15.5469 15.4061 15.5469 15.3602 15.5676L15.3021 15.5959L14.6653 16.2327C14.5674 16.3306 14.5674 16.4776 14.6163 16.5755C14.7143 16.7224 14.8612 16.8694 14.9592 17.0653C15.0082 17.1143 15.0082 17.1143 14.9592 17.1633C14.9102 17.4082 14.7633 17.5551 14.7143 17.8C14.7143 17.8 14.7143 17.849 14.6653 17.849C14.4694 17.849 14.3225 17.849 14.1266 17.898C14.0482 17.898 13.9698 17.9293 13.9165 18.0171L13.8817 18.0939V19.1714C13.9306 19.2694 14.0286 19.3184 14.1266 19.3673C14.3225 19.3673 14.4694 19.3673 14.6653 19.4163C14.6653 19.4163 14.7143 19.4163 14.7143 19.4653C14.7633 19.7102 14.9102 19.8571 14.9592 20.102C14.9592 20.151 15.0082 20.151 14.9592 20.2C14.8612 20.3469 14.7143 20.5429 14.6163 20.6898C14.5772 20.7682 14.5693 20.8779 14.6179 20.9688L14.6653 21.0327L15.3021 21.6694C15.351 21.7184 15.4 21.7184 15.498 21.7184C15.498 21.7184 15.5959 21.7184 15.6449 21.6694C15.7919 21.5714 15.9388 21.4245 16.1347 21.3265C16.1347 21.3265 16.1347 21.299 16.1554 21.2852L16.1837 21.2776H16.2327C16.4776 21.3265 16.6245 21.4735 16.8694 21.5224C16.8694 21.5224 16.9184 21.5224 16.9184 21.5714C16.9184 21.7673 16.9184 21.9633 16.9674 22.1592C16.9674 22.3271 17.0393 22.3871 17.1524 22.4008L17.2123 22.4041H18.1429C18.1429 22.4041 18.3388 22.3061 18.3878 22.1592C18.3878 21.9633 18.3878 21.7673 18.4368 21.5714C18.4368 21.5714 18.4368 21.5224 18.4857 21.5224C18.6817 21.4833 18.8776 21.3814 19.0233 21.3171L19.1225 21.2776H19.1715C19.1715 21.2776 19.2204 21.2776 19.2204 21.3265C19.3674 21.4245 19.5633 21.5714 19.7102 21.6694C19.7102 21.6694 19.8082 21.7184 19.8572 21.7184C19.8939 21.7184 19.9306 21.7184 19.988 21.6977L20.0531 21.6694L20.6898 21.0327C20.7878 20.9347 20.7878 20.7878 20.7388 20.6898C20.6408 20.5429 20.4939 20.3959 20.3959 20.2C20.347 20.151 20.347 20.151 20.3959 20.102C20.4449 19.8571 20.5919 19.7102 20.6408 19.4653C20.6408 19.4653 20.6408 19.4163 20.6898 19.4163C20.8857 19.4163 21.0817 19.4163 21.2776 19.3673C21.4455 19.3673 21.5055 19.2954 21.5192 19.1823L21.5225 19.1224H21.4245V18.2408C21.4245 17.9959 21.3266 17.9469 21.1796 17.898C20.9837 17.898 20.7878 17.898 20.5919 17.849C20.5919 17.849 20.5429 17.849 20.5429 17.8C20.5037 17.6041 20.4018 17.4082 20.3376 17.2624L20.298 17.1633V17.0653C20.3959 16.9184 20.5429 16.7224 20.6408 16.5755C20.68 16.4971 20.6879 16.3874 20.6393 16.2965L20.5919 16.2327L19.9551 15.5959C19.9551 15.5959 19.8572 15.5469 19.8082 15.5469C19.8082 15.5469 19.7102 15.5469 19.6612 15.5959C19.5143 15.6939 19.3184 15.8408 19.1715 15.9388C19.1347 15.9388 19.1255 15.9663 19.1232 15.9801L19.1225 15.9878H19.0735C18.8286 15.9388 18.6817 15.7918 18.4368 15.7429C18.4368 15.7429 18.3878 15.7429 18.3878 15.6939C18.3878 15.498 18.3878 15.351 18.3388 15.1551C18.3388 15.0571 18.3388 14.9592 18.1919 14.9102C18.1919 14.8735 18.1643 14.8643 18.1505 14.862ZM17.7021 17.1633C18.4857 17.1633 19.1225 17.8 19.1715 18.6327C19.1225 19.4163 18.4857 20.102 17.7021 20.102C16.8694 20.102 16.2327 19.4653 16.2327 18.6327C16.2327 17.8 16.8694 17.1633 17.7021 17.1633ZM7.12247 16.6735C7.48166 16.6735 7.79968 16.9616 7.85019 17.3114L7.85717 17.4082V18.8776C7.85717 19.2367 7.56907 19.5548 7.21924 19.6053L7.12247 19.6122H2.71431C2.35512 19.6122 2.0371 19.3242 1.98659 18.9743L1.97961 18.8776V17.4082C1.97961 17.049 2.26771 16.731 2.61754 16.6804L2.71431 16.6735H7.12247ZM13.8327 11.7755C13.2449 12.1184 12.6572 12.5592 12.1184 13.098C11.7102 13.5061 11.3701 13.9483 11.0696 14.4245L10.8939 14.7143H10.551C10.1919 14.7143 9.87383 14.4262 9.82332 14.0764L9.81635 13.9796V12.5102C9.81635 12.151 10.1044 11.833 10.4543 11.7825L10.551 11.7755H13.8327ZM7.12247 11.7755C7.48166 11.7755 7.79968 12.0636 7.85019 12.4134L7.85717 12.5102V13.9796C7.85717 14.3388 7.56907 14.6568 7.21924 14.7073L7.12247 14.7143H2.71431C2.35512 14.7143 2.0371 14.4262 1.98659 14.0764L1.97961 13.9796V12.5102C1.97961 12.151 2.26771 11.833 2.61754 11.7825L2.71431 11.7755H7.12247ZM22.7959 11.7755C23.1551 11.7755 23.4732 12.0636 23.5237 12.4134L23.5306 12.5102V13.4408C23.4327 13.3429 23.3347 13.1959 23.1878 13.098C22.768 12.6362 22.2762 12.2463 21.7432 11.9284L21.4735 11.7755H22.7959ZM14.9592 6.87755C15.3184 6.87755 15.6364 7.16565 15.6869 7.51548L15.6939 7.61225V9.08163C15.6939 9.44082 15.4058 9.75884 15.056 9.80935L14.9592 9.81633H10.551C10.1919 9.81633 9.87383 9.52823 9.82332 9.1784L9.81635 9.08163V7.61225C9.81635 7.25306 10.1044 6.93503 10.4543 6.88452L10.551 6.87755H14.9592ZM22.7959 6.87755C23.1551 6.87755 23.4732 7.16565 23.5237 7.51548L23.5306 7.61225V9.08163C23.5306 9.44082 23.2425 9.75884 22.8927 9.80935L22.7959 9.81633H18.3878C18.0286 9.81633 17.7106 9.52823 17.6601 9.1784L17.6531 9.08163V7.61225C17.6531 7.25306 17.9412 6.93503 18.291 6.88452L18.3878 6.87755H22.7959ZM7.12247 6.87755C7.48166 6.87755 7.79968 7.16565 7.85019 7.51548L7.85717 7.61225V9.08163C7.85717 9.44082 7.56907 9.75884 7.21924 9.80935L7.12247 9.81633H2.71431C2.35512 9.81633 2.0371 9.52823 1.98659 9.1784L1.97961 9.08163V7.61225C1.97961 7.25306 2.26771 6.93503 2.61754 6.88452L2.71431 6.87755H7.12247ZM22.7959 1C23.1551 1 23.4732 1.2881 23.5237 1.63793L23.5306 1.73469V4.18367C23.5306 4.54286 23.2425 4.86088 22.8927 4.91139L22.7959 4.91837H2.71431C2.35512 4.91837 2.0371 4.63027 1.98659 4.28044L1.97961 4.18367V1.73469C1.97961 1.37551 2.26771 1.05748 2.61754 1.00697L2.71431 1H22.7959Z" fill="#706E6B"/>
</svg>
