<svg width="26" height="26" viewBox="0 0 26 26" fill="none" xmlns="http://www.w3.org/2000/svg">
<path fill-rule="evenodd" clip-rule="evenodd" d="M25 5C25 3.9 24.1 3 23 3H3C1.9 3 1 3.9 1 5V21C1 22.1 1.9 23 3 23H23C24.1 23 25 22.1 25 21V5ZM3.45 14.5C2.6 14.5 1.95 13.85 1.95 13C1.95 12.15 2.6 11.5 3.45 11.5C4.3 11.5 4.95 12.15 4.95 13C4.95 13.85 4.25 14.5 3.45 14.5ZM22 19.25C22 19.65 21.65 20 21.25 20H6.75C6.35 20 6 19.65 6 19.25V6.75C6 6.35 6.35 6 6.75 6H21.25C21.65 6 22 6.35 22 6.75V19.25Z" fill="#706E6B"/>
</svg>
