<svg width="26" height="26" viewBox="0 0 26 26" fill="none" xmlns="http://www.w3.org/2000/svg">
<path fill-rule="evenodd" clip-rule="evenodd" d="M23 3C23 1.9 22.1 1 21 1H5C3.9 1 3 1.9 3 3V23C3 24.1 3.9 25 5 25H21C22.1 25 23 24.1 23 23V3ZM12.95 24C12.1 24 11.45 23.35 11.45 22.5C11.45 21.65 12.1 21 12.95 21C13.8 21 14.45 21.65 14.45 22.5C14.45 23.35 13.75 24 12.95 24ZM20 19.25C20 19.65 19.65 20 19.25 20H6.75C6.35 20 6 19.65 6 19.25V4.75C6 4.35 6.35 4 6.75 4H19.25C19.65 4 20 4.35 20 4.75V19.25Z" fill="#706E6B"/>
</svg>
