<svg width="26" height="26" viewBox="0 0 26 26" fill="none" xmlns="http://www.w3.org/2000/svg">
<path fill-rule="evenodd" clip-rule="evenodd" d="M24.7 23.95C24.6 22.35 24.55 20.7 24.55 19.1C24.55 18.3 24.55 17.5 24.6 16.65C24.6 15.9 24.7 15.15 24.4 14.45C23.75 12.85 21.65 12.55 20.15 12.55C19.4 12.55 18.6 12.65 17.8 12.85C17.25 13 16.7 13.2 16.25 13.45L16.75 14.7C16.85 14.95 16.9 15.2 16.95 15.45C17.95 14.95 18.95 14.7 20 14.7C21.6 14.7 22.4 15.35 22.4 16.6V17.2H21.3C19.25 17.2 17.7 17.5 16.65 18.1C15.5 18.65 15 19.7 15 21.25C15 22.4 15.35 23.3 16.05 23.9C16.75 24.5 17.65 24.85 18.75 24.85C19.7 24.85 20.45 24.7 21.05 24.45C21.65 24.2 22.15 23.75 22.55 23.2H22.6C22.65 23.45 22.7 23.9 22.8 24.5C22.8 24.55 24.6 24.5 24.75 24.5C24.75 24.3 24.7 24.15 24.7 23.95ZM22.4 20C22.4 20.3 22.35 20.55 22.25 20.8C22.2 21 22.1 21.2 21.95 21.35C21.45 22.05 20.65 22.4 19.85 22.5C19.35 22.6 18.85 22.55 18.35 22.45C17.95 22.4 17.6 22.2 17.35 21.85C17 21.3 17.1 20.45 17.45 19.95C17.7 19.65 18.05 19.45 18.4 19.3C19.35 19 20.5 19 21.5 19H22.35V20H22.4ZM14.95 15.5L9.35005 1.7C9.25005 1.45 9.05005 1.25 8.75005 1.25H7.00005C6.75005 1.25 6.45005 1.45 6.35005 1.7L1.30005 15.5C1.15005 15.75 1.40005 16.1 1.65005 16.1H3.60005C3.85005 16.1 4.15005 15.9 4.25005 15.6L5.50005 12H10.5L11.95 15.6C12.05 15.85 12.3 16.1 12.6 16.1H14.55C14.85 16.1 15.05 15.75 14.95 15.5ZM6.55005 9.25L8.00005 5.5L9.60005 9.25H6.55005Z" fill="#706E6B"/>
</svg>
