<svg width="26" height="26" viewBox="0 0 26 26" fill="none" xmlns="http://www.w3.org/2000/svg">
<path fill-rule="evenodd" clip-rule="evenodd" d="M10.05 18.6008V18.5008C10.15 17.1508 11.25 16.0508 12.65 16.0508H16C15.45 15.1008 15.55 13.8508 16.35 12.9508L16.45 12.8508L17.25 12.1008C17.7001 11.6008 18.35 11.3508 18.95 11.3008V3.05078C18.95 1.95078 18.05 1.05078 16.95 1.05078H3.05005C1.95005 1.05078 1.05005 1.95078 1.05005 3.05078V17.0008C1.05005 18.1008 1.95005 19.0008 3.05005 19.0008H10V18.6008H10.05ZM4.05005 4.15078C4.05005 3.85078 4.25005 3.65078 4.55005 3.65078H7.55005C7.85005 3.65078 8.05005 3.85078 8.05005 4.15078V5.55078C8.05005 5.85078 7.85005 6.05078 7.55005 6.05078H4.55005C4.25005 6.05078 4.05005 5.85078 4.05005 5.55078V4.15078ZM4.05005 8.50078C4.05005 8.20078 4.25005 8.00078 4.55005 8.00078H15.5C15.8 8.00078 16 8.20078 16 8.50078V9.90078C16 10.2008 15.8 10.4008 15.5 10.4008H4.60005C4.30005 10.4008 4.10005 10.2008 4.10005 9.90078L4.05005 8.50078ZM4.05005 14.3008V12.9008C4.05005 12.6008 4.25005 12.4008 4.55005 12.4008H13.55C13.85 12.4008 14.05 12.6008 14.05 12.9008V14.3008C14.05 14.6008 13.85 14.8008 13.55 14.8008H4.60005C4.25005 14.8008 4.05005 14.6008 4.05005 14.3008ZM19.6 13.5008C19.3 13.2508 18.95 13.2508 18.75 13.5008L17.9 14.3008C17.7 14.5508 17.7 14.9008 17.9 15.1008L20.1 17.3008C20.2 17.4008 20.2 17.4508 20.2 17.6008C20.2 17.8508 20.05 18.0008 19.8 18.0008H12.65C12.35 18.0008 12.1 18.2508 12.05 18.5508V19.7508C12.1 20.0508 12.35 20.3008 12.65 20.4008H19.8C19.9 20.4008 19.95 20.4508 20 20.5008C20.15 20.6008 20.2 20.9008 20.1 21.0508L17.9 23.2508C17.7 23.5008 17.7 23.8508 17.9 24.0508L18.7 24.9008C18.95 25.1008 19.3 25.1008 19.5 24.9008L24.8 19.6008C25 19.3508 25 19.0008 24.8 18.8008L19.6 13.5008Z" fill="#706E6B"/>
</svg>
