<svg width="26" height="26" viewBox="0 0 26 26" fill="none" xmlns="http://www.w3.org/2000/svg">
<path fill-rule="evenodd" clip-rule="evenodd" d="M22.4 24.75H3.6C2.3 24.75 1.25 23.7 1.25 22.4V3.6C1.25 2.3 2.3 1.25 3.6 1.25H22.4C23.7 1.25 24.75 2.3 24.75 3.6V22.4C24.75 23.7 23.7 24.75 22.4 24.75ZM4.4 5.15V20.8C4.4 21.25 4.75 21.6 5.2 21.6H20.85C21.3 21.6 21.65 21.25 21.65 20.8V5.15C21.65 4.7 21.3 4.35 20.85 4.35H5.2C4.75 4.4 4.4 4.75 4.4 5.15ZM17.65 13.5C18.05 13.5 18.45 13.85 18.45 14.3V17.7C18.45 18.15 18.1 18.5 17.65 18.5H14.05C13.6 18.5 13.3 18.15 13.25 17.7C13.25 17.4 13.4 17.2 13.55 17L14.3 16.25C14.8 15.75 15.35 15.3 15.85 14.85C16.2 14.5 16.55 14.2 16.95 13.85C17.05 13.75 17.15 13.65 17.25 13.6C17.45 13.5 17.55 13.5 17.65 13.5Z" fill="#706E6B"/>
</svg>
