<svg width="26" height="26" viewBox="0 0 26 26" fill="none" xmlns="http://www.w3.org/2000/svg">
<path fill-rule="evenodd" clip-rule="evenodd" d="M15.2125 1.5625C14.4625 0.8125 13.3125 0.8125 12.5625 1.5625L1.5625 12.5625C0.8125 13.3125 0.8125 14.4625 1.5625 15.1625L7.4125 21.0625C8.1625 21.7625 9.3125 21.7625 10.0125 21.0625L21.0625 10.0125C21.7625 9.3125 21.7625 8.1625 21.0625 7.4125L15.2125 1.5625ZM6.1125 2.5125C5.8625 2.2625 5.3625 2.2625 5.1125 2.5125L2.5125 5.1125C2.2625 5.3625 2.2625 5.8625 2.5125 6.1125L3.5125 7.0625C3.7625 7.3625 4.2125 7.3625 4.4625 7.0625L7.0625 4.4625C7.3625 4.2125 7.3625 3.7625 7.0625 3.5125L6.1125 2.5125ZM15.5625 18.1625C15.2625 18.4125 15.2625 18.8625 15.5625 19.1125L21.2125 24.8125C21.4625 25.0625 21.9625 25.0625 22.2125 24.8125L24.8125 22.2125C25.0625 21.9625 25.0625 21.4625 24.8125 21.2125L19.1125 15.5125C18.8625 15.2625 18.4125 15.2625 18.1625 15.5125L15.5625 18.1625Z" fill="#706E6B"/>
</svg>
