<svg width="26" height="26" viewBox="0 0 26 26" fill="none" xmlns="http://www.w3.org/2000/svg">
<path fill-rule="evenodd" clip-rule="evenodd" d="M7.25 2H2.75C2.35 2 2 2.35 2 2.75V11.25C2 11.65 2.35 12 2.75 12H7.25C7.65 12 8 11.65 8 11.25V2.75C8 2.35 7.65 2 7.25 2ZM15.25 2H10.75C10.35 2 10 2.35 10 2.75V11.25C10 11.65 10.35 12 10.75 12H15.25C15.65 12 16 11.65 16 11.25V2.75C16 2.35 15.65 2 15.25 2ZM23.25 2H18.75C18.35 2 18 2.35 18 2.75V11.25C18 11.65 18.35 12 18.75 12H23.25C23.65 12 24 11.65 24 11.25V2.75C24 2.35 23.65 2 23.25 2ZM7.25 14H2.75C2.35 14 2 14.35 2 14.75V23.25C2 23.65 2.35 24 2.75 24H7.25C7.65 24 8 23.65 8 23.25V14.75C8 14.35 7.65 14 7.25 14ZM15.25 14H10.75C10.35 14 10 14.35 10 14.75V23.25C10 23.65 10.35 24 10.75 24H15.25C15.65 24 16 23.65 16 23.25V14.75C16 14.35 15.65 14 15.25 14ZM23.25 14H18.75C18.35 14 18 14.35 18 14.75V23.25C18 23.65 18.35 24 18.75 24H23.25C23.65 24 24 23.65 24 23.25V14.75C24 14.35 23.65 14 23.25 14Z" fill="#706E6B"/>
</svg>
