<svg width="26" height="26" viewBox="0 0 26 26" fill="none" xmlns="http://www.w3.org/2000/svg">
<path fill-rule="evenodd" clip-rule="evenodd" d="M24.6 6.65078H21.35L22.75 1.30078V1.20078C22.75 1.00078 22.6 0.800781 22.35 0.800781H19.75C19.55 0.800781 19.4 0.950781 19.35 1.15078L17.95 6.70078H11.45L12.85 1.35078V1.20078C12.85 1.00078 12.7 0.800781 12.45 0.800781H9.85C9.65 0.800781 9.5 0.950781 9.45 1.15078L8 6.65078H4.4C4.2 6.65078 4.05 6.75078 4 6.95078L3.35 9.40078V9.50078C3.35 9.70078 3.5 9.90078 3.75 9.90078H7.15L5.55 16.1508H2.05C1.85 16.1508 1.7 16.2508 1.65 16.4508L1 18.8008V18.9008C1 19.1008 1.15 19.3008 1.4 19.3008H4.7L3.3 24.7508V24.8508C3.3 25.0508 3.45 25.2508 3.7 25.2508H6.3C6.5 25.2508 6.65 25.1508 6.7 24.9008L8.15 19.3008H14.6L13.2 24.7008V24.8008C13.2 25.0008 13.35 25.2008 13.6 25.2008H16.2C16.4 25.2008 16.55 25.1008 16.6 24.8508L18 19.2508H21.55C21.75 19.2508 21.9 19.1508 21.95 18.9008L22.6 16.4508V16.3508C22.6 16.1508 22.45 15.9508 22.2 15.9508H18.85L20.5 9.70078H23.95C24.15 9.70078 24.3 9.60078 24.35 9.35078L25 6.90078V6.80078C25 6.80078 24.8 6.65078 24.6 6.65078ZM15.45 16.1508H9L10.6 9.90078H17.05L15.45 16.1508Z" fill="#706E6B"/>
</svg>
