<svg width="26" height="26" viewBox="0 0 26 26" fill="none" xmlns="http://www.w3.org/2000/svg">
<path fill-rule="evenodd" clip-rule="evenodd" d="M18.95 14.8278L14.85 13.4278C14.55 13.3278 14.3 13.0278 14.3 12.6778V7.22782C14.3 6.37782 13.6 5.72782 12.75 5.72782H12.6C11.75 5.72782 11.05 6.42781 11.05 7.22782V17.9778C11.05 18.8778 9.9 19.2778 9.4 18.4778L8.35 16.2778C7.8 15.3278 6.55 15.0778 5.65 15.7278L5 16.2278L8.45 24.3778C8.6 24.7278 8.95 24.9278 9.35 24.9278H18.4C18.85 24.9278 19.2 24.6278 19.3 24.2278L20.9 18.5278C21.3 16.9278 20.4 15.3778 18.95 14.8278ZM8.65 11.4278V7.12782C8.75 5.07782 10.4 3.42782 12.45 3.32782H12.85C14.9 3.42782 16.55 5.07782 16.65 7.12782V11.4278C16.65 11.7778 17.1 11.9278 17.35 11.7278C18.45 10.5778 19.1 9.02781 19.1 7.37782C19.1 3.67782 15.9 0.677815 12.1 1.02782C9.2 1.32782 6.8 3.52782 6.35 6.37782C6.05 8.37782 6.65 10.3278 8 11.7278C8.2 11.9278 8.65 11.7778 8.65 11.4278Z" fill="#706E6B"/>
</svg>
