<svg width="26" height="26" viewBox="0 0 26 26" fill="none" xmlns="http://www.w3.org/2000/svg">
<path fill-rule="evenodd" clip-rule="evenodd" d="M22.7 16.6508H24L23.4 14.6008L24 12.5508H21.8C21.4 11.3508 20.85 10.1508 20.05 8.95078C19.3 7.85078 18.4 6.80078 17.25 5.80078C16.1 4.85078 14.7 4.00078 13.05 3.35078L12.95 3.30078L12.85 3.35078C12.85 3.35078 12.2 3.50078 11.3 3.95078C10.6 4.30078 9.75 4.80078 8.85 5.50078C7.5 6.55078 6.05 8.05078 4.95 10.2008C4.6 10.9008 4.25 11.7008 4 12.5508H2L2.6 14.6008L2 16.6508H3.2C3.15 17.3008 3.1 17.9508 3.1 18.6008C3.1 18.9508 3.1 19.3508 3.15 19.7508V19.9508L3.3 20.0508C3.3 20.0508 4.35 20.6508 6.05 21.2008C7.8 21.8008 10.2 22.3508 13.1 22.3508C15.4 22.3508 17.95 22.0008 20.65 20.9508C21.3 20.7008 22 20.4008 22.65 20.0508L22.8 19.9508H22.85V18.6008C22.85 18.1008 22.8 17.4508 22.7 16.6508ZM2.95 15.9508L3.35 14.6008L2.95 13.2508H23.05L22.65 14.6008L23.05 15.9508H2.95ZM6.55 12.5508L8 10.1008L8.05 10.0508L9.3 8.00078L11.4 10.6508L12.65 9.40078L14 11.0008L16.05 8.00078L19.4 12.5508H6.55ZM5.25 11.2008C5.5 10.6508 5.8 10.1008 6.1 9.60078C6.15 9.50078 6.2 9.45078 6.25 9.35078C6.3 9.30078 6.35 9.20078 6.4 9.15078C9 5.15078 12.8 4.00078 12.85 4.00078L12.95 3.95078L13.05 4.00078C15.75 5.10078 17.65 6.75078 19 8.60078C19.45 9.15078 19.8 9.75078 20.15 10.3508C20.55 11.0508 20.85 11.8008 21.1 12.5008H20.3C19.2 9.60078 17.05 6.45078 12.95 4.70078C12.1 4.95078 7.55 6.70078 5.5 12.5008H4.7C4.85 12.1008 5.05 11.6508 5.25 11.2008ZM22.15 19.3508V19.5508L21.95 19.6508C18.8 21.2008 15.8 21.7508 13.1 21.7508C8.2 21.7508 4.55 20.0008 4 19.7008C3.9 19.6508 3.85 19.6008 3.8 19.6008H3.75V19.4008C3.75 18.4508 3.75 17.6008 3.85 16.7508H4.6C4.5 17.4008 4.45 18.2008 4.5 19.1008C5.2 19.4508 7.8 20.6008 11.3 20.9008C12.1 20.4508 12.65 19.5508 11.35 18.4508H11.25L11.2 18.4008L11.15 18.3508L11.1 18.3008V18.2508L11.05 18.2008V18.1508L11 18.1008V18.0008C10.8 17.6008 11 17.2008 12.2 17.1008C12.55 17.0508 13.75 17.1508 13.3 16.7008H13.9C14.25 17.1008 14.25 17.6008 12.45 17.8008C12.2 17.8008 12.1 17.9508 12.15 18.0508H12.2C14.05 18.5008 14.5 19.8508 14.35 20.8008C16.5 20.6508 18.85 20.1008 21.2 18.9508C21.2 18.5508 21.2 17.7008 21.05 16.5508H21.8C21.8 16.7508 21.85 16.9508 21.85 17.1508C22.2 18.5008 22.15 19.3008 22.15 19.3508Z" fill="#706E6B"/>
</svg>
