<svg width="26" height="26" viewBox="0 0 26 26" fill="none" xmlns="http://www.w3.org/2000/svg">
<path d="M24.5681 15.1896C24.572 15.4191 24.4348 15.6274 24.2225 15.7145C24.0102 15.8015 23.7662 15.7494 23.608 15.5832L21.0304 13.0008L15.0736 18.1128C14.7663 18.4369 14.3394 18.6204 13.8928 18.6204C13.4462 18.6204 13.0193 18.4369 12.712 18.1128L9.1168 14.0136L2.7136 19.6296C2.61118 19.7376 2.46886 19.7988 2.32 19.7988C2.17114 19.7988 2.02882 19.7376 1.9264 19.6296L1.6432 19.3464C1.53518 19.244 1.474 19.1017 1.474 18.9528C1.474 18.804 1.53518 18.6616 1.6432 18.5592L7.9408 9.96722C8.24807 9.64315 8.67502 9.45961 9.1216 9.45961C9.56818 9.45961 9.99513 9.64315 10.3024 9.96722L13.8976 13.5624L17.5504 9.34802L15.1888 7.21202C15.0322 7.04226 14.9859 6.7981 15.0696 6.5828C15.1532 6.36749 15.3522 6.21865 15.5824 6.19922H23.4448C23.745 6.21288 24.0273 6.34572 24.2291 6.56829C24.4309 6.79086 24.5357 7.08476 24.52 7.38482L24.5681 15.1896Z" fill="#706E6B"/>
</svg>
