<svg width="26" height="26" viewBox="0 0 26 26" fill="none" xmlns="http://www.w3.org/2000/svg">
<path fill-rule="evenodd" clip-rule="evenodd" d="M21.3 8.90078C22.5 8.90078 24.9 7.90078 24.9 4.70078C24.9 1.50078 22.6 1.30078 21.85 1.30078C20.45 1.30078 19.05 2.30078 17.8 4.45078C16.55 6.65078 15.15 9.00078 15.15 9.00078H15.1C14.8 7.45078 14.55 6.20078 14.45 5.65078C14.2 4.30078 12.65 1.45078 9.50002 1.45078C6.30002 1.45078 3.40002 3.30078 3.40002 3.30078C2.90002 3.65078 2.55002 4.25078 2.55002 4.95078C2.55002 6.00078 3.40002 6.90078 4.50002 6.90078C4.80002 6.90078 5.10002 6.80078 5.35002 6.70078C5.35002 6.70078 7.75002 5.35078 8.30002 6.70078C8.45002 7.10078 8.60002 7.55078 8.75002 8.05078C9.35002 10.1508 9.95002 12.6008 10.4 14.8008L8.30002 17.8008C8.30002 17.8008 5.95002 16.9508 4.75002 16.9508C3.55002 16.9508 1.15002 17.9508 1.15002 21.1508C1.15002 24.3508 3.45002 24.5508 4.20002 24.5508C5.60002 24.5508 7.00002 23.5508 8.25002 21.4008C9.50002 19.2008 10.9 16.8508 10.9 16.8508C11.3 18.8508 11.65 20.4008 11.85 21.1008C12.65 23.3508 14.5 24.7008 16.9 24.7008C16.9 24.7008 19.4 24.7008 22.35 23.0508C23.05 22.7508 23.55 22.0508 23.55 21.2508C23.55 20.2008 22.7 19.3008 21.6 19.3008C21.3 19.3008 21 19.4008 20.75 19.5008C20.75 19.5008 18.65 20.7008 17.95 19.7508C17.45 18.7508 17 17.4508 16.65 15.8508C16.35 14.4508 16 12.7508 15.65 11.1008L17.8 8.00078C17.75 8.05078 20.1 8.90078 21.3 8.90078Z" fill="#706E6B"/>
</svg>
