<svg width="26" height="26" viewBox="0 0 26 26" fill="none" xmlns="http://www.w3.org/2000/svg">
<path fill-rule="evenodd" clip-rule="evenodd" d="M12.3 1.30751L6 9.00751H3C1.9 9.00751 1 9.90751 1 11.0075V15.0075C1 16.1075 1.9 17.0075 3 17.0075H6L12.3 24.7075C12.95 25.3575 14 24.9075 14 24.0075V2.00751C14 1.10751 12.9 0.657512 12.3 1.30751ZM22.4 13.0075L24.85 10.5575C25.05 10.3575 25.05 10.0575 24.85 9.85751L24.15 9.15751C23.95 8.95751 23.65 8.95751 23.45 9.15751L21 11.6075L18.55 9.15751C18.35 8.95751 18.05 8.95751 17.85 9.15751L17.15 9.85751C16.95 10.0575 16.95 10.3575 17.15 10.5575L19.6 13.0075L17.15 15.4575C16.95 15.6575 16.95 15.9575 17.15 16.1575L17.85 16.8575C18.05 17.0575 18.35 17.0575 18.55 16.8575L21 14.4075L23.45 16.8575C23.65 17.0575 23.95 17.0575 24.15 16.8575L24.85 16.1575C25.05 15.9575 25.05 15.6575 24.85 15.4575L22.4 13.0075Z" fill="#706E6B"/>
</svg>
