<svg width="48" height="48" viewBox="0 0 48 48" fill="none" xmlns="http://www.w3.org/2000/svg">
<rect width="48" height="48" rx="4" fill="#7E8BE4"/>
<mask id="mask0_1518_27463" style="mask-type:luminance" maskUnits="userSpaceOnUse" x="0" y="0" width="48" height="48">
<rect width="48" height="48" rx="4" fill="white"/>
</mask>
<g mask="url(#mask0_1518_27463)">
<path fill-rule="evenodd" clip-rule="evenodd" d="M40.1082 17.9247C38.4918 11.2919 31.5246 7.27881 23.8328 7.27881C14.5246 7.27881 7 14.7477 7 24.0001C7 33.2526 14.5246 40.7214 23.8885 40.7214C36.8197 40.7214 35.8164 34.1444 31.6918 31.5804C29.2393 30.0198 27.9016 26.5083 30.3541 24.0001C32.3231 21.9582 34.8221 22.2274 36.8432 22.4451C39.4566 22.7266 41.2711 22.922 40.1082 17.9247ZM14.6361 29.5739C12.6852 29.5739 11.1246 28.0132 11.1246 26.1182C11.1246 24.2231 12.6852 22.6624 14.6361 22.6624C16.5869 22.6624 18.0918 24.2231 18.0918 26.1182C18.0918 28.0132 16.5869 29.5739 14.6361 29.5739ZM18.8164 12.8526C16.9213 12.8526 15.3607 14.3575 15.3607 16.3083C15.3607 18.3149 16.8656 19.8198 18.8164 19.7641C20.7115 19.7641 22.2721 18.2034 22.2721 16.3083C22.2721 14.4132 20.7672 12.8526 18.8164 12.8526ZM22.9967 36.5411C21.0459 36.5411 19.541 34.9804 19.541 33.0854C19.541 31.1903 21.1016 29.6296 22.9967 29.6296C24.9475 29.6296 26.4525 31.1903 26.4525 33.0854C26.4525 34.9804 24.9475 36.5411 22.9967 36.5411ZM25.8393 14.9706C25.8393 16.8657 27.3443 18.4263 29.2951 18.4263C31.2459 18.4263 32.7508 16.8657 32.7508 14.9706C32.7508 13.0755 31.2459 11.5149 29.2951 11.5149C27.4 11.5149 25.8393 13.0755 25.8393 14.9706Z" fill="white"/>
</g>
</svg>
