<svg width="48" height="48" viewBox="0 0 48 48" fill="none" xmlns="http://www.w3.org/2000/svg">
<rect width="48" height="48" rx="4" fill="#7DC37D"/>
<mask id="mask0_1518_27465" style="mask-type:luminance" maskUnits="userSpaceOnUse" x="0" y="0" width="48" height="48">
<rect width="48" height="48" rx="4" fill="white"/>
</mask>
<g mask="url(#mask0_1518_27465)">
<path d="M21.2598 16.2866H22.8836C23.3404 16.2866 23.6956 16.6418 23.6956 17.0986V24.203C23.6956 24.406 23.5941 24.609 23.4926 24.812L18.9254 29.3792C18.6209 29.6836 18.1135 29.6836 17.809 29.3792L16.6926 28.2627C16.3881 27.9583 16.3881 27.4508 16.6926 27.1463L20.4986 23.2896V17.1493C20.4478 16.7433 20.7523 16.3374 21.209 16.2866C21.209 16.2866 21.209 16.2866 21.2598 16.2866Z" fill="white"/>
<path d="M39.7314 23.3403H37.2956C37.2956 23.1881 37.2448 22.9851 37.2448 22.7821C36.5851 14.4598 29.3284 8.21796 21.006 8.82691C12.6836 9.48662 6.44184 16.7433 7.05079 25.0657C7.65975 32.9314 14.1045 38.9702 21.9702 39.0717C26.2329 39.1732 30.3433 37.3971 33.2359 34.3015C33.4896 34.0478 33.7433 33.7941 33.4389 33.4896L32.1194 31.9165C31.6627 31.3583 31.2568 31.612 30.9015 31.9672C28.3642 34.7583 24.609 36.1792 20.8538 35.7732C15.6269 35.2657 10.7553 30.3941 10.1971 25.2687C9.53736 18.7224 14.3075 12.8359 20.8538 12.1762C27.4 11.5165 33.2866 16.2866 33.9463 22.8329H33.8956C33.9463 23.0359 33.9463 23.1881 33.9463 23.3911H31.5612C31.1045 23.3911 30.7493 23.7463 30.7493 24.203C30.7493 24.406 30.8 24.5583 30.9015 24.7105L34.9612 29.6329C35.3165 29.9881 35.8747 29.9881 36.2299 29.6329L40.2896 24.7105C40.5941 24.406 40.5941 23.8986 40.2896 23.5941C40.1374 23.4418 39.9344 23.3403 39.7314 23.3403Z" fill="white"/>
</g>
</svg>
