<svg width="40" height="40" viewBox="0 0 40 40" fill="none" xmlns="http://www.w3.org/2000/svg">
<rect width="40" height="40" rx="20" fill="#54698D"/>
<mask id="mask0_1518_28074" style="mask-type:luminance" maskUnits="userSpaceOnUse" x="0" y="0" width="40" height="40">
<rect width="40" height="40" rx="20" fill="white"/>
</mask>
<g mask="url(#mask0_1518_28074)">
<path fill-rule="evenodd" clip-rule="evenodd" d="M20 8C13.35 8 8 13.35 8 20C8 26.65 13.35 32 20 32C26.65 32 32 26.65 32 20C32 13.35 26.65 8 20 8ZM20 14.05C20.85 14.05 21.5 14.7 21.5 15.55C21.5 16.4 20.85 17.05 20 17.05C19.15 17.05 18.5 16.4 18.5 15.55C18.5 14.7 19.15 14.05 20 14.05ZM22 25C22.3 25 22.5 24.8 22.5 24.55V23.55C22.5 23.25 22.25 23 22 23C21.7 23 21.5 22.8 21.5 22.55V18.55C21.5 18.25 21.25 18 21 18H18C17.7 18 17.5 18.3 17.5 18.55V19.55C17.5 19.85 17.75 20 18 20C18.3 20 18.5 20.3 18.5 20.55V22.55C18.5 22.85 18.25 23 18 23C17.7 23 17.5 23.3 17.5 23.55V24.55C17.5 24.85 17.75 25 18 25H19H20.5H22Z" fill="white"/>
</g>
</svg>
