<svg width="40" height="40" viewBox="0 0 40 40" fill="none" xmlns="http://www.w3.org/2000/svg">
<rect width="40" height="40" rx="20" fill="#9895EE"/>
<mask id="mask0_1518_28066" style="mask-type:luminance" maskUnits="userSpaceOnUse" x="0" y="0" width="40" height="40">
<rect width="40" height="40" rx="20" fill="white"/>
</mask>
<g mask="url(#mask0_1518_28066)">
<path d="M21.7142 8.73463L20.2448 15.8857C20.2448 16.1795 20.4408 16.3265 20.6857 16.3265H28.3265C28.8653 16.3265 29.2081 16.9632 28.9632 17.453L20.6367 31.1183C20.2938 31.804 19.2653 31.5591 19.2653 30.7754L20.7346 22.351C20.7346 22.0571 20.4897 22.155 20.1959 22.155H12.1632C11.6244 22.155 11.2326 21.3714 11.5265 20.8816L20.3428 8.39178C20.6857 7.75504 21.7142 7.95096 21.7142 8.73463Z" fill="white"/>
</g>
</svg>
