<svg width="40" height="40" viewBox="0 0 40 40" fill="none" xmlns="http://www.w3.org/2000/svg">
<rect width="40" height="40" rx="20" fill="#0079BC"/>
<mask id="mask0_1518_28070" style="mask-type:luminance" maskUnits="userSpaceOnUse" x="0" y="0" width="40" height="40">
<rect width="40" height="40" rx="20" fill="white"/>
</mask>
<g mask="url(#mask0_1518_28070)">
<path d="M31.472 12.608C30.464 10.64 27.92 6.99195 23.216 9.15195C20.288 10.496 18.6559 11.264 18.6559 11.264L14.4319 13.088C13.2319 13.664 10.6399 12.848 9.15195 12.32C8.71995 12.176 8.33595 12.608 8.52795 13.04C9.53595 15.008 12.0799 18.656 16.7839 16.496C19.712 15.152 25.5679 12.608 25.5679 12.608C26.768 12.032 29.3599 12.848 30.8479 13.376C31.2799 13.472 31.6639 13.04 31.472 12.608Z" fill="white"/>
<path d="M21.344 18.7519C20.816 19.0399 18.704 19.9999 18.704 19.9999L16.592 20.9119C15.536 21.4879 13.28 20.7199 11.936 20.1919C11.552 19.9999 11.216 20.4799 11.408 20.8639C12.272 22.7839 14.528 26.2399 18.656 24.1279C21.248 22.8319 23.408 21.9679 23.408 21.9679C24.464 21.3919 26.72 22.1599 28.064 22.6879C28.448 22.8319 28.784 22.3999 28.592 21.9679C27.728 20.0959 25.472 16.6399 21.344 18.7519Z" fill="white"/>
<path d="M19.8079 27.248C19.3759 27.488 18.6559 27.92 18.6559 27.92C17.8399 28.448 16.1599 27.776 15.1519 27.296C14.8639 27.152 14.6239 27.584 14.7679 27.968C15.3919 29.696 17.0719 32.816 20.1919 30.896C21.3439 30.176 21.3439 30.224 21.3439 30.224C22.2079 29.792 23.8399 30.368 24.8479 30.848C25.1359 30.992 25.3759 30.56 25.2319 30.176C24.6079 28.448 23.0239 25.472 19.8079 27.248Z" fill="white"/>
</g>
</svg>
