<svg width="26" height="26" viewBox="0 0 26 26" fill="none" xmlns="http://www.w3.org/2000/svg">
<path fill-rule="evenodd" clip-rule="evenodd" d="M20.825 15.475L14.075 22.275C13.775 22.575 13.275 22.575 12.975 22.275L6.225 15.475C5.925 15.175 5.925 14.675 6.225 14.375L7.325 13.275C7.625 12.975 8.125 12.975 8.425 13.275L12.975 17.975C13.275 18.275 13.775 18.275 14.075 17.975L18.625 13.325C18.925 13.025 19.425 13.025 19.725 13.325L20.825 14.425C21.075 14.725 21.075 15.175 20.825 15.475ZM20.825 6.425L14.075 13.325C13.775 13.625 13.275 13.625 12.975 13.325L6.225 6.425C5.925 6.125 5.925 5.625 6.225 5.325L7.325 4.225C7.625 3.925 8.125 3.925 8.425 4.225L12.975 8.925C13.275 9.225 13.775 9.225 14.075 8.925L18.625 4.275C18.925 3.975 19.425 3.975 19.725 4.275L20.825 5.375C21.075 5.675 21.075 6.175 20.825 6.425Z" fill="#706E6B"/>
</svg>
