<svg width="26" height="26" viewBox="0 0 26 26" fill="none" xmlns="http://www.w3.org/2000/svg">
<path fill-rule="evenodd" clip-rule="evenodd" d="M24 3.75C24 3.35 23.65 3 23.25 3H2.75C2.35 3 2 3.35 2 3.75V5.25C2 5.65 2.35 6 2.75 6H23.25C23.65 6 24 5.65 24 5.25V3.75ZM24 9.75C24 9.35 23.65 9 23.25 9H2.75C2.35 9 2 9.35 2 9.75V11.25C2 11.65 2.35 12 2.75 12H23.25C23.65 12 24 11.65 24 11.25V9.75ZM24 21.75C24 21.35 23.65 21 23.25 21H2.75C2.35 21 2 21.35 2 21.75V23.25C2 23.65 2.35 24 2.75 24H23.25C23.65 24 24 23.65 24 23.25V21.75ZM24 15.75C24 15.35 23.65 15 23.25 15H2.75C2.35 15 2 15.35 2 15.75V17.25C2 17.65 2.35 18 2.75 18H23.25C23.65 18 24 17.65 24 17.25V15.75Z" fill="#706E6B"/>
</svg>
