<svg width="26" height="26" viewBox="0 0 26 26" fill="none" xmlns="http://www.w3.org/2000/svg">
<path fill-rule="evenodd" clip-rule="evenodd" d="M22.2 11.35H15.95L13.95 13.35H22V16.35H4V13.35H8.05L6.05 11.35H3.8C2.8 11.35 2 12.15 2 13.15V22.85C2 23.7 2.65 24.35 3.5 24.35H22.5C23.35 24.35 24 23.7 24 22.85V13.15C24 12.15 23.2 11.35 22.2 11.35ZM10.3 12.75C10.7 13.15 11.3 13.15 11.7 12.75L21.2 3.25C21.4 3.05 21.4 2.75 21.2 2.55L19.8 1.15C19.6 0.95 19.3 0.95 19.1 1.15L11 9.25L7.65 5.9C7.45 5.7 7.15 5.7 6.95 5.9L5.55 7.3C5.35 7.5 5.35 7.8 5.55 8L10.3 12.75Z" fill="#706E6B"/>
</svg>
