<svg width="26" height="26" viewBox="0 0 26 26" fill="none" xmlns="http://www.w3.org/2000/svg">
<path fill-rule="evenodd" clip-rule="evenodd" d="M22.2 12H19.3C19.1 12.75 18.75 13.4 18.25 14H22V17H4V14H7V12H3.8C2.8 12 2 12.8 2 13.8V23.5C2 24.35 2.65 25 3.5 25H22.5C23.35 25 24 24.35 24 23.5V13.8C24 12.8 23.2 12 22.2 12ZM17.5 5.45C17.5 3.5 15.8 2 13.9 2H9.75C9.35 2 9 2.35 9 2.75V13.25C9 13.65 9.35 14 9.75 14H14C15.95 14 17.5 12.4 17.45 10.45C17.45 9.5 17.05 8.65 16.4 8.05C17.1 7.35 17.5 6.45 17.5 5.45ZM11 4H14C14.8 4 15.5 4.65 15.5 5.5C15.5 6.3 14.85 7 14 7H11V4ZM15.5 10.5C15.5 11.3 14.85 12 14 12H11V9H14C14.85 9 15.5 9.65 15.5 10.5Z" fill="#706E6B"/>
</svg>
