<svg width="26" height="26" viewBox="0 0 26 26" fill="none" xmlns="http://www.w3.org/2000/svg">
<path fill-rule="evenodd" clip-rule="evenodd" d="M24.75 8.65C23.6 3.9 18.6 1 13.1 1C6.4 1 1 6.35 1 13C1 19.65 6.4 25 13.1 25C22.4 25 21.65 20.3 18.7 18.45C16.95 17.35 16 14.8 17.75 13C21 9.65 26.25 15 24.75 8.65ZM6.5 17C5.1 17 4 15.9 4 14.5C4 13.1 5.1 12 6.5 12C7.9 12 9 13.1 9 14.5C9 15.9 7.9 17 6.5 17ZM7 7.5C7 6.1 8.1 5 9.5 5C10.9 5 12 6.1 12 7.5C12 8.9 10.9 10 9.5 10C8.1 10 7 8.9 7 7.5ZM12.5 22C11.1 22 10 20.9 10 19.5C10 18.1 11.1 17 12.5 17C13.9 17 15 18.1 15 19.5C15 20.9 13.9 22 12.5 22ZM17 9C15.6 9 14.5 7.9 14.5 6.5C14.5 5.1 15.6 4 17 4C18.4 4 19.5 5.1 19.5 6.5C19.5 7.9 18.4 9 17 9Z" fill="#706E6B"/>
</svg>
