<svg width="26" height="26" viewBox="0 0 26 26" fill="none" xmlns="http://www.w3.org/2000/svg">
<path fill-rule="evenodd" clip-rule="evenodd" d="M8.75 6H17.25C17.65 6 18 5.65 18 5.25V3C18 1.9 17.1 1 16 1H10C8.9 1 8 1.9 8 3V5.25C8 5.65 8.35 6 8.75 6ZM22 3H20.75C20.35 3 20 3.35 20 3.75V6C20 7.1 19.1 8 18 8H8C6.9 8 6 7.1 6 6V3.75C6 3.35 5.65 3 5.25 3H4C2.9 3 2 3.9 2 5V23C2 24.1 2.9 25 4 25H22C23.1 25 24 24.1 24 23V5C24 3.9 23.1 3 22 3ZM19 20.5C19 20.8 18.8 21 18.5 21H7.5C7.2 21 7 20.8 7 20.5V19.5C7 19.2 7.2 19 7.5 19H18.5C18.8 19 19 19.2 19 19.5V20.5ZM19 16.5C19 16.8 18.8 17 18.5 17H7.5C7.2 17 7 16.8 7 16.5V15.5C7 15.2 7.2 15 7.5 15H18.5C18.8 15 19 15.2 19 15.5V16.5ZM19 12.5C19 12.8 18.8 13 18.5 13H7.5C7.2 13 7 12.8 7 12.5V11.5C7 11.2 7.2 11 7.5 11H18.5C18.8 11 19 11.2 19 11.5V12.5Z" fill="#706E6B"/>
</svg>
