<svg width="26" height="26" viewBox="0 0 26 26" fill="none" xmlns="http://www.w3.org/2000/svg">
<path fill-rule="evenodd" clip-rule="evenodd" d="M3.45005 16.8492H1.85005C1.40005 16.8492 1.05005 17.1992 1.05005 17.6492V19.2492C1.05005 19.6992 1.40005 20.0492 1.85005 20.0492H3.50005C3.95005 19.9992 4.25005 19.6492 4.20005 19.2492V17.6492C4.25005 17.1992 3.90005 16.8492 3.45005 16.8492ZM8.25005 5.89922H24.05C24.5 5.89922 24.85 5.54922 24.85 5.09922V3.49922C24.85 3.04922 24.5 2.69922 24.05 2.69922H8.25005C7.80005 2.69922 7.45005 3.04922 7.45005 3.49922V5.09922C7.45005 5.54922 7.80005 5.89922 8.25005 5.89922ZM8.25005 12.9992H24.05C24.5 12.9992 24.85 12.6492 24.85 12.1992V10.5992C24.85 10.1492 24.5 9.79922 24.05 9.79922H8.25005C7.80005 9.79922 7.45005 10.1492 7.45005 10.5992V12.1992C7.45005 12.5992 7.80005 12.9992 8.25005 12.9992ZM3.45005 2.69922H1.85005C1.40005 2.69922 1.05005 3.04922 1.05005 3.49922V5.09922C1.05005 5.54922 1.40005 5.89922 1.85005 5.89922H3.50005C3.95005 5.84922 4.25005 5.49922 4.20005 5.09922V3.44922C4.25005 3.04922 3.90005 2.69922 3.45005 2.69922ZM3.45005 9.74922H1.85005C1.40005 9.74922 1.05005 10.0992 1.05005 10.5492V12.1492C1.05005 12.5992 1.40005 12.9492 1.85005 12.9492H3.50005C3.95005 12.8992 4.25005 12.5492 4.20005 12.1492V10.5492C4.25005 10.1492 3.90005 9.74922 3.45005 9.74922ZM10.45 19.8492C10.45 18.9492 10.75 18.0492 11.3 17.3492V16.7992H8.25005C7.80005 16.7992 7.45005 17.1492 7.45005 17.5992V19.1992C7.45005 19.6492 7.80005 19.9992 8.25005 19.9992H10.45V19.8492ZM17.6 15.6992C18 15.2992 18.55 15.0492 19.2 15.0492C20.05 15.0492 20.75 15.4992 21.15 16.1492C21.45 16.0492 21.85 15.8992 22.25 15.8992C23.7 15.8992 24.95 17.1492 24.95 18.5492C24.95 19.9992 23.7 21.1992 22.25 21.1992C22.1 21.1992 21.9 21.1992 21.75 21.1492C21.45 21.7492 20.75 22.1492 20.05 22.1492C19.75 22.1492 19.45 22.0492 19.2 21.9492C18.85 22.7492 18.05 23.2992 17.15 23.2992C16.15 23.2992 15.35 22.6992 15.05 21.8492C14.95 21.8492 14.75 21.8992 14.6 21.8992C13.45 21.8992 12.5 20.9992 12.5 19.8492C12.5 19.0992 12.9 18.3992 13.55 18.0492C13.45 17.7492 13.35 17.4492 13.35 17.0992C13.35 15.7992 14.45 14.6992 15.75 14.6992C16.45 14.7492 17.2 15.0992 17.6 15.6992Z" fill="#706E6B"/>
</svg>
