<svg width="26" height="26" viewBox="0 0 26 26" fill="none" xmlns="http://www.w3.org/2000/svg">
<path fill-rule="evenodd" clip-rule="evenodd" d="M24.15 7.45H8.20005C7.75005 7.45 7.40005 7.1 7.40005 6.65V5.05C7.40005 4.6 7.75005 4.25 8.20005 4.25H24.15C24.6 4.25 24.95 4.6 24.95 5.05V6.65C24.95 7.1 24.6 7.45 24.15 7.45ZM24.15 14.6H8.20005C7.75005 14.6 7.40005 14.25 7.40005 13.8V12.2C7.40005 11.75 7.75005 11.4 8.20005 11.4H24.15C24.6 11.4 24.95 11.75 24.95 12.2V13.8C24.95 14.25 24.6 14.6 24.15 14.6ZM3.45005 14.6H1.85005C1.40005 14.6 1.05005 14.25 1.05005 13.8V12.2C1.05005 11.75 1.40005 11.4 1.85005 11.4H3.45005C3.90005 11.4 4.25005 11.75 4.25005 12.2V13.8C4.25005 14.25 3.90005 14.6 3.45005 14.6ZM3.45005 7.45H1.85005C1.40005 7.45 1.05005 7.1 1.05005 6.65V5.05C1.05005 4.6 1.40005 4.25 1.85005 4.25H3.45005C3.90005 4.25 4.25005 4.6 4.25005 5.05V6.65C4.25005 7.1 3.90005 7.45 3.45005 7.45ZM3.45005 21.75H1.85005C1.40005 21.75 1.05005 21.4 1.05005 20.95V19.35C1.05005 18.9 1.40005 18.55 1.85005 18.55H3.45005C3.90005 18.55 4.25005 18.9 4.25005 19.35V20.95C4.25005 21.4 3.90005 21.75 3.45005 21.75ZM24.15 21.75H8.20005C7.75005 21.75 7.40005 21.4 7.40005 20.95V19.35C7.40005 18.9 7.75005 18.55 8.20005 18.55H24.15C24.6 18.55 24.95 18.9 24.95 19.35V20.95C24.95 21.4 24.6 21.75 24.15 21.75Z" fill="#706E6B"/>
</svg>
