<svg width="26" height="26" viewBox="0 0 26 26" fill="none" xmlns="http://www.w3.org/2000/svg">
<path fill-rule="evenodd" clip-rule="evenodd" d="M24.575 7.775L17.825 1.025C17.125 0.325 16.025 0.325 15.325 1.025C14.625 1.725 14.625 2.825 15.325 3.525L15.675 3.875L7.575 9.225L7.325 8.975C6.625 8.275 5.525 8.275 4.825 8.975C4.125 9.675 4.125 10.775 4.825 11.475L8.425 15.075L1.025 22.475C0.325 23.175 0.325 24.325 1.025 25.025C1.725 25.725 2.875 25.725 3.575 25.025L10.975 17.575L14.125 20.725C14.825 21.425 15.925 21.425 16.625 20.725C17.325 20.025 17.325 18.925 16.625 18.225L16.375 17.975L21.675 9.825L22.025 10.175C22.725 10.875 23.825 10.875 24.525 10.175C25.225 9.575 25.225 8.475 24.575 7.775Z" fill="#706E6B"/>
</svg>
