<svg width="26" height="26" viewBox="0 0 26 26" fill="none" xmlns="http://www.w3.org/2000/svg">
<path fill-rule="evenodd" clip-rule="evenodd" d="M21.5 4.8C23.1 6.6 24 8.95 24 11.4C24 14.1 22.95 16.6 21.05 18.5C20.65 18.9 20 18.9 19.6 18.5C19.2 18.1 19.2 17.45 19.6 17.05C21.1 15.6 21.95 13.55 21.95 11.45C21.9 6.8 17.9 3 13 3C10.45 3 8.1 4 6.45 5.7C6.45 5.75 6.4 5.8 6.35 5.85C6.12312 6.03151 5.9786 6.21301 5.80432 6.43189L5.75 6.5C4.7 7.9 4.05 9.6 4.05 11.45C4.05 13.55 4.9 15.6 6.35 17.05C6.75 17.45 6.75 18.1 6.35 18.5C5.95 18.9 5.35 18.9 4.95 18.5C3.05 16.6 2 14.05 2 11.4C2 8.75 3.05 6.2 4.9 4.3H4.95C6.95 2.3 9.85 1 13 1C16.3 1 19.3 2.4 21.3 4.6L21.5 4.8ZM13 4.95C16.75 4.95 19.8 7.85 19.8 11.45C19.8 13 19.2 14.45 18.1 15.55C17.7 15.95 17.1 15.95 16.7 15.55C16.3 15.15 16.3 14.5 16.7 14.1C17.4 13.4 17.8 12.45 17.8 11.45C17.8 9.05 15.55 7.05 13 7.05C10.45 7.05 8.2 9 8.2 11.45C8.2 12.45 8.6 13.4 9.3 14.1C9.7 14.5 9.7 15.15 9.3 15.55C8.9 15.95 8.25 15.95 7.85 15.55C6.75 14.45 6.15 12.95 6.15 11.4C6.15 10.75 6.25 10.15 6.45 9.55C7.3 6.9 9.9 4.95 13 4.95ZM11.9 16.2C11.05 16.2 10.3 16.9 10.3 17.8V23.45C10.3 24.3 11 25.05 11.9 25.05H14.1C14.95 25.05 15.7 24.35 15.7 23.45V17.75C15.7 16.9 14.95 16.2 14.1 16.2H11.9ZM15.7 11.6C15.7 13.0912 14.4912 14.3 13 14.3C11.5088 14.3 10.3 13.0912 10.3 11.6C10.3 10.1088 11.5088 8.9 13 8.9C14.4912 8.9 15.7 10.1088 15.7 11.6Z" fill="#706E6B"/>
</svg>
