<svg width="26" height="26" viewBox="0 0 26 26" fill="none" xmlns="http://www.w3.org/2000/svg">
<path fill-rule="evenodd" clip-rule="evenodd" d="M17.1953 3.85C16.8453 3.7 16.4953 3.95 16.4953 4.3V6.2C16.4953 6.55 16.6953 6.9 16.9953 7.05C19.6453 8.55 21.3453 11.55 20.9453 14.9C20.5453 18.55 17.5953 21.55 13.8953 21.95C9.0953 22.5 4.9953 18.7 4.9953 14C4.9953 11.05 6.5953 8.45 8.9953 7.05C9.2953 6.9 9.4953 6.55 9.4953 6.2V4.3C9.4953 3.95 9.1453 3.7 8.7953 3.85C4.5453 5.6 1.5953 10 2.0453 15C2.4953 20.15 6.5953 24.35 11.7453 24.95C18.3453 25.65 23.9953 20.5 23.9953 14C23.9953 9.4 21.1953 5.5 17.1953 3.85ZM14.4953 1.75C14.4953 1.35 14.1453 1 13.7453 1H12.2453C11.8453 1 11.4953 1.35 11.4953 1.75V10.25C11.4953 10.65 11.8453 11 12.2453 11H13.7453C14.1453 11 14.4953 10.65 14.4953 10.25V1.75Z" fill="#706E6B"/>
</svg>
