<svg width="26" height="26" viewBox="0 0 26 26" fill="none" xmlns="http://www.w3.org/2000/svg">
<path fill-rule="evenodd" clip-rule="evenodd" d="M17.8627 19.9C17.5127 17.85 15.4127 16.8 13.7127 16.05C12.9627 15.7 11.9127 15.3 11.6127 14.4C11.4127 13.9 11.5127 13.4 11.7627 12.95C12.2127 12.5 12.6127 12.1 12.9627 11.55C13.0627 11.4 13.1127 11.3 13.2127 11.15C14.2127 9.7 14.3627 7.7 13.7627 6.05C13.1627 4.25 11.5627 3.05 9.61267 3H9.31267C7.36267 3.05 5.76267 4.25 5.16267 6.05C4.56267 7.75 4.71267 9.7 5.71267 11.15C5.76267 11.3 5.86267 11.4 5.96267 11.55C6.31267 12.1 6.76267 12.5 7.16267 12.95C7.36267 13.4 7.46267 13.9 7.31267 14.4C7.01267 15.3 5.96267 15.7 5.21267 16.05C3.51267 16.8 1.41267 17.85 1.06267 19.9C0.712671 21.6 1.86267 23.3 3.66267 23.3H15.4627C17.0627 23.3 18.2127 21.6 17.8627 19.9ZM20.7127 5.1C22.7627 5 24.4127 6.6 24.4127 8.65C24.4127 8.8 24.3127 8.85 24.2127 8.85H23.3127C23.1627 8.85 23.1127 8.8 23.1127 8.65V8.7C23.1127 7.5 22.2127 6.5 21.0627 6.4C19.7627 6.3 18.7127 7.35 18.7127 8.6C18.7127 8.75 18.6127 8.8 18.5127 8.8H17.6127C17.5127 8.8 17.4127 8.7 17.4127 8.6C17.4127 6.8 18.8627 5.2 20.7127 5.1ZM24.4127 9.75H17.3627C16.8627 9.75 16.4627 10.15 16.4627 10.65V14.85C16.4627 15.35 16.8627 15.75 17.3627 15.75H24.4127C24.9127 15.75 25.3127 15.35 25.3127 14.85V10.65C25.3127 10.15 24.9127 9.75 24.4127 9.75ZM21.9127 14.1C21.9627 14.25 21.8627 14.4 21.7127 14.4H20.0627C19.9127 14.4 19.8127 14.25 19.8627 14.1L20.2627 12.8C19.9127 12.6 19.7127 12.2 19.8127 11.75C19.9127 11.35 20.2127 11 20.6627 10.9C21.3627 10.75 21.9627 11.25 21.9627 11.95C21.9627 12.3 21.7627 12.65 21.5127 12.8L21.9127 14.1Z" fill="#706E6B"/>
</svg>
