<svg width="26" height="26" viewBox="0 0 26 26" fill="none" xmlns="http://www.w3.org/2000/svg">
<path d="M23.5 2.25H2.5C1.65 2.25 1 2.9 1 3.75V19.05C1 19.9 1.65 20.55 2.5 20.55H9.75L11.55 23.15C12.05 23.85 12.95 24 13.65 23.5C13.75 23.4 13.85 23.3 13.95 23.2L16.05 20.55H23.5C24.35 20.55 25 19.9 25 19.05V3.75C25 2.9 24.35 2.25 23.5 2.25ZM10.65 16C10.55 16.1 10.5 16.15 10.4 16.15L7.9 16.75C7.65 16.8 7.45 16.6 7.5 16.35L8.1 13.85C8.1 13.8 8.15 13.7 8.2 13.65L8.25 13.6C8.3 13.55 8.45 13.55 8.55 13.6L10.65 15.7C10.7 15.8 10.7 15.95 10.65 16ZM16.7 9.85L11.55 15C11.45 15.1 11.3 15.1 11.25 15L9.2 12.95C9.1 12.9 9.1 12.75 9.2 12.65L14.3 7.5C14.4 7.4 14.55 7.4 14.6 7.5L16.65 9.55C16.75 9.65 16.75 9.75 16.7 9.85ZM18.25 8.35L17.65 8.95C17.55 9.05 17.4 9.05 17.35 8.95L15.3 6.9C15.2 6.8 15.2 6.65 15.3 6.6L15.85 6C16.2 5.65 16.8 5.65 17.15 6L18.25 7.1C18.6 7.45 18.6 8 18.25 8.35Z" fill="#706E6B"/>
</svg>
