<svg width="26" height="26" viewBox="0 0 26 26" fill="none" xmlns="http://www.w3.org/2000/svg">
<path d="M24.25 16C24.4447 16.0129 24.628 16.0961 24.766 16.234C24.9039 16.372 24.9871 16.5553 25 16.75V21.175C25 22.725 24.25 23.5 22.75 23.5H18.25C18.0445 23.5 17.8473 23.4183 17.702 23.273C17.5567 23.1277 17.475 22.9305 17.475 22.725C17.475 22.5195 17.5567 22.3223 17.702 22.177C17.8473 22.0317 18.0445 21.95 18.25 21.95H22.375C23.205 21.95 23.5 21.645 23.5 20.79V16.75C23.5129 16.5553 23.5961 16.372 23.734 16.234C23.872 16.0961 24.0553 16.0129 24.25 16ZM1.75 16C1.94467 16.0129 2.12803 16.0961 2.26598 16.234C2.40394 16.372 2.4871 16.5553 2.5 16.75V20.79C2.5 21.645 2.795 21.95 3.625 21.95H7.75C7.95554 21.95 8.15267 22.0317 8.29801 22.177C8.44335 22.3223 8.525 22.5195 8.525 22.725C8.525 22.9305 8.44335 23.1277 8.29801 23.273C8.15267 23.4183 7.95554 23.5 7.75 23.5H3.25C1.75 23.5 1 22.725 1 21.175V16.75C1.0129 16.5553 1.09606 16.372 1.23402 16.234C1.37197 16.0961 1.55533 16.0129 1.75 16ZM10.085 7C10.45 7 10.75 7.225 10.75 7.5V18.5C10.75 18.775 10.45 19 10.085 19H8.415C8.05 19 7.75 18.775 7.75 18.5V7.5C7.75 7.225 8.05 7 8.415 7H10.085ZM5.75 7C5.88261 7 6.00979 7.05268 6.10355 7.14645C6.19732 7.24021 6.25 7.36739 6.25 7.5V18.5C6.25 18.6326 6.19732 18.7598 6.10355 18.8536C6.00979 18.9473 5.88261 19 5.75 19H5.25C5.11739 19 4.99021 18.9473 4.89645 18.8536C4.80268 18.7598 4.75 18.6326 4.75 18.5V7.5C4.75 7.36739 4.80268 7.24021 4.89645 7.14645C4.99021 7.05268 5.11739 7 5.25 7H5.75ZM13.25 7C13.3826 7 13.5098 7.05268 13.6036 7.14645C13.6973 7.24021 13.75 7.36739 13.75 7.5V18.5C13.75 18.6326 13.6973 18.7598 13.6036 18.8536C13.5098 18.9473 13.3826 19 13.25 19H12.75C12.6174 19 12.4902 18.9473 12.3964 18.8536C12.3027 18.7598 12.25 18.6326 12.25 18.5V7.5C12.25 7.36739 12.3027 7.24021 12.3964 7.14645C12.4902 7.05268 12.6174 7 12.75 7H13.25ZM20.75 7C20.8826 7 21.0098 7.05268 21.1036 7.14645C21.1973 7.24021 21.25 7.36739 21.25 7.5V18.5C21.25 18.6326 21.1973 18.7598 21.1036 18.8536C21.0098 18.9473 20.8826 19 20.75 19H20.25C20.1174 19 19.9902 18.9473 19.8964 18.8536C19.8027 18.7598 19.75 18.6326 19.75 18.5V7.5C19.75 7.36739 19.8027 7.24021 19.8964 7.14645C19.9902 7.05268 20.1174 7 20.25 7H20.75ZM17.585 7C17.95 7 18.25 7.225 18.25 7.5V18.5C18.25 18.775 17.95 19 17.585 19H15.915C15.55 19 15.25 18.775 15.25 18.5V7.5C15.25 7.225 15.55 7 15.915 7H17.585ZM22.75 2.5C24.25 2.5 25 3.275 25 4.825V9.25C25 9.44891 24.921 9.63968 24.7803 9.78033C24.6397 9.92098 24.4489 10 24.25 10C24.0511 10 23.8603 9.92098 23.7197 9.78033C23.579 9.63968 23.5 9.44891 23.5 9.25V5.21C23.5 4.355 23.205 4.05 22.375 4.05H18.25C18.0445 4.05 17.8473 3.96835 17.702 3.82301C17.5567 3.67767 17.475 3.48054 17.475 3.275C17.475 3.06946 17.5567 2.87233 17.702 2.72699C17.8473 2.58165 18.0445 2.5 18.25 2.5H22.75ZM7.75 2.5C7.95554 2.5 8.15267 2.58165 8.29801 2.72699C8.44335 2.87233 8.525 3.06946 8.525 3.275C8.525 3.48054 8.44335 3.67767 8.29801 3.82301C8.15267 3.96835 7.95554 4.05 7.75 4.05H3.625C2.795 4.05 2.5 4.355 2.5 5.21V9.25C2.4871 9.44467 2.40394 9.62803 2.26598 9.76598C2.12803 9.90394 1.94467 9.9871 1.75 10C1.55533 9.9871 1.37197 9.90394 1.23402 9.76598C1.09606 9.62803 1.0129 9.44467 1 9.25V4.825C1 3.275 1.75 2.5 3.25 2.5H7.75Z" fill="#706E6B"/>
</svg>
