<svg width="26" height="26" viewBox="0 0 26 26" fill="none" xmlns="http://www.w3.org/2000/svg">
<path d="M21.8 17.0008C22.65 17.0008 23.4 17.7008 23.4 18.6008V22.6008C23.4 23.5008 22.7 24.2008 21.8 24.2008H4.2C3.3 24.2008 2.6 23.5008 2.6 22.6008V18.6008C2.6 17.7008 3.3 17.0008 4.2 17.0008H21.8ZM20.6 19.4008H5.4C5.2 19.4008 5 19.6008 5 19.8008V21.4008C5 21.6008 5.2 21.8008 5.4 21.8008H20.6C20.8 21.8008 21 21.6008 21 21.4008V19.8008C21 19.6008 20.8 19.4008 20.6 19.4008ZM23.8 11.4008C24.45 11.4008 25 11.9508 25 12.6008V13.4008C25 14.0508 24.45 14.6008 23.8 14.6008H19.8C19.15 14.6008 18.6 14.0508 18.6 13.4008V12.6008C18.6 11.9508 19.15 11.4008 19.8 11.4008H23.8ZM15 11.4008C15.65 11.4008 16.2 11.9508 16.2 12.6008V13.4008C16.2 14.0508 15.65 14.6008 15 14.6008H11C10.35 14.6008 9.8 14.0508 9.8 13.4008V12.6008C9.8 11.9508 10.35 11.4008 11 11.4008H15ZM6.2 11.4008C6.85 11.4008 7.4 11.9508 7.4 12.6008V13.4008C7.4 14.0508 6.85 14.6008 6.2 14.6008H2.2C1.5 14.6008 1 14.0508 1 13.4008V12.6008C1 11.9508 1.55 11.4008 2.2 11.4008H6.2ZM21.8 1.80078C22.65 1.80078 23.4 2.50078 23.4 3.40078V7.40078C23.4 8.30078 22.7 9.00078 21.8 9.00078H4.2C3.3 9.00078 2.6 8.30078 2.6 7.40078V3.40078C2.6 2.50078 3.3 1.80078 4.2 1.80078H21.8ZM20.6 4.20078H5.4C5.2 4.20078 5 4.40078 5 4.60078V6.20078C5 6.40078 5.2 6.60078 5.4 6.60078H20.6C20.8 6.60078 21 6.40078 21 6.20078V4.60078C21 4.40078 20.8 4.20078 20.6 4.20078Z" fill="#706E6B"/>
</svg>
