<svg width="26" height="26" viewBox="0 0 26 26" fill="none" xmlns="http://www.w3.org/2000/svg">
<path fill-rule="evenodd" clip-rule="evenodd" d="M13 1C6.4 1 1 6.4 1 13.05C1 19.7 6.4 25.1 13 25.1C19.6 25.1 25 19.7 25 13.05C25 6.4 19.6 1 13 1ZM8.5 7.5C9.35 7.5 10 8.4 10 9.5C10 10.6 9.35 11.5 8.5 11.5C7.65 11.5 7 10.6 7 9.5C7 8.4 7.65 7.5 8.5 7.5ZM7 19.35C7.25 16.3 9.5 13.75 13.05 13.75C16.55 13.75 18.75 16.3 19 19.35H7ZM17.5 11.5C16.65 11.5 16 10.6 16 9.5C16 8.4 16.65 7.5 17.5 7.5C18.35 7.5 19 8.4 19 9.5C19 10.6 18.35 11.5 17.5 11.5Z" fill="#706E6B"/>
</svg>
