<svg width="26" height="26" viewBox="0 0 26 26" fill="none" xmlns="http://www.w3.org/2000/svg">
<path fill-rule="evenodd" clip-rule="evenodd" d="M13.1706 9.5C11.2206 9.5 9.67065 11.05 9.67065 13C9.67065 14.95 11.2206 16.5 13.1706 16.5C15.1206 16.5 16.6706 14.95 16.6706 13C16.6706 11.05 15.1206 9.5 13.1706 9.5ZM23.6706 16.15L21.8206 14.6C21.9206 14.05 21.9706 13.45 21.9706 12.9C21.9706 12.35 21.9206 11.75 21.8206 11.2L23.6706 9.65C24.2706 9.15 24.4706 8.25 24.0706 7.55L23.2706 6.15C22.9706 5.65 22.4206 5.35 21.8206 5.35C21.6206 5.35 21.4206 5.4 21.2706 5.45L18.9706 6.3C18.0706 5.5 17.0706 4.95 16.0206 4.6L15.6206 2.25C15.4706 1.45 14.7706 1 13.9706 1H12.3706C11.5706 1 10.8706 1.45 10.7206 2.25L10.3206 4.55C9.22065 4.9 8.22065 5.5 7.32065 6.25L5.02065 5.4C4.82065 5.35 4.67065 5.3 4.47065 5.3C3.87065 5.3 3.32065 5.6 3.02065 6.1L2.22065 7.5C1.82065 8.2 1.97065 9.1 2.62065 9.6L4.47065 11.15C4.37065 11.7 4.32065 12.3 4.32065 12.85C4.32065 13.45 4.37065 14 4.47065 14.55L2.62065 16.1C2.02065 16.6 1.82065 17.5 2.22065 18.2L3.02065 19.6C3.32065 20.1 3.87065 20.4 4.47065 20.4C4.67065 20.4 4.87065 20.35 5.02065 20.3L7.32065 19.45C8.22065 20.25 9.22065 20.8 10.2706 21.15L10.6706 23.55C10.8206 24.35 11.4706 24.9 12.3206 24.9H13.9206C14.7206 24.9 15.4206 24.3 15.5706 23.5L15.9706 21.1C17.1206 20.7 18.1706 20.1 19.0706 19.25L21.2206 20.1C21.4206 20.15 21.6206 20.2 21.8206 20.2C22.4206 20.2 22.9706 19.9 23.2706 19.4L24.0206 18.1C24.4706 17.55 24.2706 16.65 23.6706 16.15ZM13.1706 18.5C10.1206 18.5 7.67065 16.05 7.67065 13C7.67065 9.95 10.1206 7.5 13.1706 7.5C16.2206 7.5 18.6706 9.95 18.6706 13C18.6706 16.05 16.2206 18.5 13.1706 18.5Z" fill="#706E6B"/>
</svg>
