<svg width="26" height="26" viewBox="0 0 26 26" fill="none" xmlns="http://www.w3.org/2000/svg">
<path fill-rule="evenodd" clip-rule="evenodd" d="M23.4206 16.2L21.5706 14.65C21.6706 14.1 21.7206 13.5 21.7206 12.95C21.7206 12.4 21.6706 11.8 21.5706 11.25L23.4206 9.7C24.0206 9.2 24.2206 8.3 23.8206 7.6L23.0206 6.15C22.7206 5.65 22.1706 5.35 21.5706 5.35C21.3706 5.35 21.1706 5.4 21.0206 5.45L18.7706 6.3C17.8706 5.5 16.8706 4.95 15.8706 4.6L15.4706 2.25C15.3206 1.45 14.6206 1 13.8206 1H12.2206C11.4206 1 10.7206 1.45 10.5706 2.25L10.1706 4.55C9.07065 4.9 8.12065 5.5 7.22065 6.25L5.02065 5.4C4.82065 5.35 4.67065 5.3 4.47065 5.3C3.87065 5.3 3.32065 5.6 3.02065 6.1L2.22065 7.5C1.82065 8.2 1.97065 9.1 2.62065 9.6L4.47065 11.15C4.37065 11.7 4.32065 12.3 4.32065 12.85C4.32065 13.45 4.37065 14 4.47065 14.55L2.62065 16.1C2.02065 16.6 1.82065 17.5 2.22065 18.2L3.02065 19.7C3.32065 20.2 3.87065 20.5 4.47065 20.5C4.67065 20.5 4.87065 20.45 5.02065 20.4L7.27065 19.55C8.17065 20.35 9.17065 20.9 10.1706 21.25L10.5706 23.65C10.7206 24.45 11.3706 25 12.2206 25H13.8206C14.6206 25 15.3206 24.4 15.4706 23.6L15.8706 21.2C17.0206 20.8 18.0206 20.2 18.9206 19.35L21.0206 20.2C21.2206 20.25 21.4206 20.3 21.6206 20.3C22.2206 20.3 22.7706 20 23.0706 19.5L23.8206 18.2C24.2206 17.6 24.0206 16.7 23.4206 16.2ZM13.0706 18.55C10.0706 18.55 7.62065 16.1 7.62065 13.05C7.62065 10 10.0206 7.55 13.0706 7.55C16.1206 7.55 18.5206 10 18.5206 13.05C18.5206 16.1 16.0706 18.55 13.0706 18.55ZM14.5206 9H12.2206C11.8706 9 11.5706 9.2 11.4706 9.5L10.0706 13.1C9.97065 13.35 10.1706 13.65 10.4706 13.65H12.8206L11.9706 16.65C11.8706 16.95 12.2206 17.1 12.4206 16.9L15.9706 12.75C16.2206 12.5 16.0206 12.1 15.6706 12.1H13.9206L15.4706 9.65C15.6206 9.4 15.4206 9.05 15.1206 9.05H14.5206V9Z" fill="#706E6B"/>
</svg>
