<svg width="26" height="26" viewBox="0 0 26 26" fill="none" xmlns="http://www.w3.org/2000/svg">
<path fill-rule="evenodd" clip-rule="evenodd" d="M5.75 12.45C5.75 12.25 5.5 12.15 5.35 12.25L3.1 14.1C3 14.2 3 14.35 3 14.5V22.45C3 22.95 3.7 23.2 4.15 22.85L7.8 20C7.9 19.9 7.95 19.8 7.85 19.65C6.95 18.3 6.05 16.05 5.75 12.45ZM10.6 19.9C10.7 19.95 10.8 20 10.9 20H15.05C15.15 20 15.25 19.95 15.35 19.9C15.95 19.5 18.35 17.5 18.35 10.7C18.35 7.55 17.45 5.35 16.4 3.85C14.85 1.65 13 1 13 1C13 1 11.1 1.65 9.55 3.9C8.5 5.4 7.65 7.55 7.65 10.7C7.65 17.5 10 19.5 10.6 19.9ZM12.95 6.5C14.6 6.5 15.95 7.85 15.95 9.5C15.95 11.15 14.6 12.5 12.95 12.5C11.3 12.5 9.95 11.15 9.95 9.5C9.95 7.85 11.3 6.5 12.95 6.5ZM22.85 14.1L20.65 12.25C20.5 12.1 20.25 12.2 20.25 12.45C19.95 16.05 19.05 18.3 18.2 19.7C18.15 19.8 18.15 19.95 18.25 20.05L21.9 22.9C22.35 23.25 23 23 23 22.5V14.5C23 14.35 23 14.2 22.85 14.1ZM16.1 22.25C16 22.1 15.85 22 15.7 22H10.2C10.05 22 9.85 22.1 9.8 22.25C9.6 22.55 9.3 23.1 9.1 23.8C8.95 24.4 9.45 25 10.1 25H15.8C16.45 25 16.95 24.4 16.8 23.8C16.6 23.05 16.3 22.5 16.1 22.25Z" fill="#706E6B"/>
</svg>
