<svg width="26" height="26" viewBox="0 0 26 26" fill="none" xmlns="http://www.w3.org/2000/svg">
<path fill-rule="evenodd" clip-rule="evenodd" d="M24.25 1H1.75C1.35 1 1 1.35 1 1.75V17.95C1 18.35 1.35 18.7 1.75 18.7H24.25C24.65 18.7 25 18.35 25 17.95V1.75C25 1.35 24.65 1 24.25 1ZM10 20.9996C11.104 20.9996 12 21.8956 12 22.9996C12 24.1036 11.104 24.9996 10 24.9996C8.896 24.9996 8 24.1036 8 22.9996C8 21.8956 8.896 20.9996 10 20.9996ZM6 22.9996C6 21.8956 5.104 20.9996 4 20.9996C2.896 20.9996 2 21.8956 2 22.9996C2 24.1036 2.896 24.9996 4 24.9996C5.104 24.9996 6 24.1036 6 22.9996ZM16 20.9996C14.9 20.9996 14 21.8996 14 22.9996C14 24.1006 14.9 24.9996 16 24.9996C17.1 24.9996 18 24.1006 18 22.9996C18 21.8996 17.1 20.9996 16 20.9996ZM16 21.9996C16.55 21.9996 17 22.4496 17 22.9996C17 23.5496 16.55 23.9996 16 23.9996C15.45 23.9996 15 23.5496 15 22.9996C15 22.4496 15.45 21.9996 16 21.9996ZM24 22.9996C24 21.8956 23.104 20.9996 22 20.9996C20.896 20.9996 20 21.8956 20 22.9996C20 24.1036 20.896 24.9996 22 24.9996C23.104 24.9996 24 24.1036 24 22.9996Z" fill="#706E6B"/>
</svg>
