<svg width="26" height="26" viewBox="0 0 26 26" fill="none" xmlns="http://www.w3.org/2000/svg">
<path fill-rule="evenodd" clip-rule="evenodd" d="M24.25 15.025H22.75C22.35 15.025 22 15.375 22 15.775V21.275C22 21.675 21.65 22.025 21.25 22.025H4.75C4.35 22.025 4 21.675 4 21.275V10.775C4 10.375 4.35 10.025 4.75 10.025H6.75C7.15 10.025 7.5 9.675 7.5 9.275V7.775C7.5 7.375 7.15 7.025 6.75 7.025H3C1.9 7.025 1 7.925 1 9.025V23.025C1 24.125 1.9 25.025 3 25.025H23C24.1 25.025 25 24.125 25 23.025V15.775C25 15.375 24.65 15.025 24.25 15.025ZM17 7.025C12 7.025 7.45 11.475 7.05 16.725C7 17.125 7.35 17.525 7.8 17.525H9.3C9.7 17.525 10 17.225 10.05 16.875C10.4 13.125 13.6 10.025 17.5 10.025H18.3C18.75 10.025 18.95 10.575 18.65 10.875L15.9 13.675C15.6 13.975 15.6 14.425 15.9 14.725L16.95 15.775C17.25 16.075 17.7 16.075 18 15.775L24.8 9.025C25.1 8.725 25.1 8.275 24.8 7.975L18.05 1.225C17.75 0.925 17.3 0.925 17 1.225L15.95 2.275C15.65 2.575 15.6 3.025 15.9 3.325L18.7 6.125C19 6.425 18.8 6.975 18.35 6.975L17 7.025Z" fill="#706E6B"/>
</svg>
