<svg width="26" height="26" viewBox="0 0 26 26" fill="none" xmlns="http://www.w3.org/2000/svg">
<path fill-rule="evenodd" clip-rule="evenodd" d="M21 25.4125C22.1 25.4125 23 24.5125 23 23.4125V9.9625C23 8.8625 22.1 7.9625 21 7.9625H17.25C16.85 7.9625 16.5 8.3125 16.5 8.7125V10.2125C16.5 10.6125 16.85 10.9625 17.25 10.9625H19.25C19.65 10.9625 20 11.3125 20 11.7125V21.6625C20 22.0625 19.65 22.4125 19.25 22.4125H6.75C6.35 22.4125 6 22.0625 6 21.6625V11.7125C6 11.3125 6.35 10.9625 6.75 10.9625H8.75C9.15 10.9625 9.5 10.6125 9.5 10.2125V8.7125C9.5 8.3125 9.15 7.9625 8.75 7.9625H5C3.9 7.9625 3 8.8625 3 9.9625V23.4125C3 24.5125 3.9 25.4125 5 25.4125H21ZM14.5 15.6625V5.9625H17.45C17.95 5.9625 18.2 5.5125 17.9 5.2625L13.4 1.1125C13.2 0.9625 12.9 0.9625 12.7 1.1125L8.2 5.2625C7.9 5.5625 8.15 5.9625 8.65 5.9625H11.5V15.6625C11.5 16.0625 11.85 16.4625 12.25 16.4625H13.75C14.15 16.4625 14.5 16.0625 14.5 15.6625Z" fill="#706E6B"/>
</svg>
