<svg width="26" height="26" viewBox="0 0 26 26" fill="none" xmlns="http://www.w3.org/2000/svg">
<path fill-rule="evenodd" clip-rule="evenodd" d="M25 13.05C25 19.7 19.6 25.1 13 25.1C6.4 25.1 1 19.7 1 13.05C1 6.4 6.4 1 13 1C19.6 1 25 6.4 25 13.05ZM8.5 7.5C7.65 7.5 7 8.4 7 9.5C7 10.6 7.65 11.5 8.5 11.5C9.35 11.5 10 10.6 10 9.5C10 8.4 9.35 7.5 8.5 7.5ZM17.5 7.5C16.65 7.5 16 8.4 16 9.5C16 10.6 16.65 11.5 17.5 11.5C18.35 11.5 19 10.6 19 9.5C19 8.4 18.35 7.5 17.5 7.5ZM5.5 14.5C5.8 18.3 8.6 21.5 12.95 21.5C17.35 21.5 20.2 18.3 20.5 14.5H5.5Z" fill="#706E6B"/>
</svg>
