<svg width="26" height="26" viewBox="0 0 26 26" fill="none" xmlns="http://www.w3.org/2000/svg">
<path fill-rule="evenodd" clip-rule="evenodd" d="M12.9822 2C6.33224 2 1.03224 6.9 1.03224 12.95C1.03224 14.85 1.58224 16.65 2.48224 18.25C2.63224 18.5 2.68224 18.8 2.58224 19.1L1.03224 23.35C0.882242 23.75 1.28224 24.1 1.68224 24L5.98224 22.35C6.23224 22.25 6.53224 22.3 6.83224 22.45C8.63224 23.45 10.7822 24.05 13.0822 24.05C19.6322 24 24.9822 19.1 24.9822 13.05C24.9322 6.9 19.5822 2 12.9822 2ZM8.18224 14.8C8.03224 15.05 7.88224 15.3 7.68224 15.45C7.48224 15.6 7.23224 15.75 6.93224 15.85C6.68224 15.95 6.38224 15.95 6.08224 15.95C5.68224 15.95 5.33224 15.9 4.98224 15.75C4.63224 15.6 4.28224 15.4 4.03224 15.1L3.93224 15C3.88224 14.95 3.93224 14.85 4.03224 14.75L4.83224 14C4.93224 13.9 5.03224 13.9 5.08224 13.95C5.13224 14 5.18224 14.1 5.18224 14.1C5.28224 14.25 5.43224 14.35 5.58224 14.45C5.83224 14.6 6.08224 14.6 6.38224 14.55C6.48224 14.55 6.53224 14.5 6.63224 14.45L6.78224 14.3C6.83224 14.25 6.83224 14.15 6.83224 14.1C6.83224 13.9 6.78224 13.85 6.73224 13.8C6.63224 13.7 6.48224 13.6 6.28224 13.55C6.08224 13.5 5.88224 13.4 5.63224 13.35C5.38224 13.25 5.13224 13.15 4.93224 13.05C4.68224 12.9 4.53224 12.7 4.38224 12.5C4.23224 12.25 4.13224 11.95 4.13224 11.55C4.13224 11.2 4.18224 10.9 4.33224 10.65C4.48224 10.4 4.63224 10.2 4.88224 10.05C5.08224 9.9 5.33224 9.75 5.63224 9.7C6.23224 9.55 6.83224 9.55 7.43224 9.75C7.73224 9.85 8.03224 10.05 8.18224 10.15L8.33224 10.25C8.43224 10.3 8.38224 10.45 8.28224 10.55L7.53224 11.3C7.43224 11.4 7.28224 11.4 7.18224 11.3C7.08224 11.25 7.03224 11.15 6.98224 11.15C6.73224 11 6.38224 10.95 6.08224 11C5.98224 11 5.93224 11.05 5.88224 11.1L5.73224 11.25C5.68224 11.3 5.68224 11.35 5.68224 11.45C5.68224 11.6 5.73224 11.65 5.78224 11.7C5.88224 11.8 6.03224 11.85 6.23224 11.95C6.43224 12 6.63224 12.1 6.88224 12.15C7.13224 12.25 7.38224 12.35 7.58224 12.45C7.83224 12.6 7.98224 12.8 8.13224 13C8.28224 13.25 8.38224 13.55 8.38224 13.95C8.38224 14.25 8.33224 14.55 8.18224 14.8ZM16.4822 15.5C16.4822 15.8 16.2322 16 15.9322 16H15.4322C15.1322 16 14.9822 15.8 14.9822 15.5V12.55C14.9822 12.25 14.5822 12.2 14.4822 12.45L13.6322 14.7C13.5822 14.9 13.3822 15 13.1822 15H12.8322C12.6322 15 12.4322 14.85 12.3822 14.7L11.4822 12.45C11.3822 12.2 10.9822 12.25 10.9822 12.55V15.5C10.9822 15.8 10.7322 16 10.4322 16H9.93224C9.63224 16 9.48224 15.8 9.48224 15.5V10C9.48224 9.7 9.68224 9.5 9.93224 9.5H11.2322C11.4322 9.5 11.6322 9.65 11.6822 9.8L12.6822 12.4C12.7822 12.6 13.0822 12.6 13.1322 12.4L14.1322 9.8C14.1822 9.6 14.3822 9.5 14.5822 9.5H15.9322C16.2322 9.5 16.4822 9.7 16.4822 10V15.5ZM21.7322 14.85C21.5822 15.1 21.4322 15.35 21.1822 15.5C20.9822 15.65 20.7322 15.8 20.4322 15.9C20.1322 16 19.8822 16 19.5822 16C19.1822 16 18.8322 15.95 18.4822 15.8C18.1322 15.65 17.7822 15.45 17.5322 15.15L17.4322 15.05C17.3822 15 17.4322 14.9 17.5322 14.8L18.3322 14.05C18.4322 13.95 18.5322 13.95 18.5822 14C18.6322 14.05 18.6822 14.15 18.6822 14.15C18.7822 14.3 18.9322 14.4 19.0822 14.5C19.3322 14.65 19.6322 14.65 19.8822 14.6C19.9822 14.55 20.0822 14.55 20.1322 14.5L20.2822 14.35C20.2822 14.35 20.3322 14.2 20.3322 14.15C20.3322 13.95 20.2822 13.9 20.2322 13.85C20.1322 13.75 19.9822 13.65 19.7822 13.6C19.5822 13.55 19.3822 13.45 19.1322 13.4C18.8822 13.3 18.6322 13.2 18.4322 13.1C18.1822 12.95 17.9822 12.75 17.8322 12.55C17.6822 12.3 17.5822 12 17.5822 11.6C17.5822 11.25 17.6322 10.95 17.7822 10.7C17.9322 10.45 18.0822 10.25 18.3322 10.1C18.5322 9.95 18.8322 9.8 19.0822 9.75C19.6822 9.6 20.2822 9.6 20.8822 9.8C21.1822 9.9 21.4822 10.1 21.6322 10.25L21.7822 10.4C21.8822 10.45 21.8322 10.6 21.7322 10.7L20.9822 11.45C20.8822 11.55 20.7322 11.55 20.6322 11.45C20.5322 11.4 20.4822 11.3 20.4322 11.3C20.1822 11.15 19.8322 11.1 19.5322 11.15C19.4322 11.15 19.3822 11.2 19.3322 11.25L19.1822 11.4C19.1322 11.45 19.1322 11.55 19.1322 11.6C19.1322 11.75 19.1822 11.8 19.2322 11.85C19.3322 11.95 19.4822 12 19.6822 12.1C19.8822 12.15 20.0822 12.25 20.3322 12.3C20.5822 12.4 20.8322 12.5 21.0322 12.6C21.2822 12.75 21.4322 12.95 21.6322 13.15C21.7822 13.4 21.8822 13.7 21.8822 14.1C21.9322 14.25 21.8822 14.6 21.7322 14.85Z" fill="#706E6B"/>
</svg>
