<svg width="26" height="26" viewBox="0 0 26 26" fill="none" xmlns="http://www.w3.org/2000/svg">
<path fill-rule="evenodd" clip-rule="evenodd" d="M3.15002 2.15039H5.15002C2.75002 7.45039 2.75002 11.4504 5.15002 16.7504H3.15002C0.350018 10.6504 0.400018 8.25039 3.15002 2.15039ZM11.85 11.2004C12.05 12.1004 12.2 12.8504 12.3 13.1504C12.45 13.6004 12.7 13.9504 13 14.2004C13.75 13.6004 14.7 13.2504 15.7 13.2504C16.35 13.2504 16.95 13.4004 17.5 13.6504C17.6 13.5004 17.65 13.3504 17.65 13.2004C17.65 12.7004 17.25 12.3004 16.75 12.3004C16.6 12.3004 16.5 12.3504 16.35 12.4004C16.35 12.4004 15.4 12.9504 15.05 12.5004C14.8 12.0504 14.6 11.4504 14.45 10.7504C14.3 10.1004 14.15 9.35039 14 8.60039L14.95 7.20039C14.95 7.20039 16.05 7.60039 16.6 7.60039C17.15 7.60039 18.25 7.15039 18.25 5.70039C18.25 4.25039 17.2 4.15039 16.85 4.15039C16.2 4.15039 15.55 4.60039 15 5.60039C14.45 6.60039 13.8 7.70039 13.8 7.70039C13.65 7.00039 13.55 6.45039 13.5 6.20039C13.4 5.60039 12.7 4.25039 11.25 4.25039C9.80002 4.25039 8.45002 5.10039 8.45002 5.10039C8.20002 5.25039 8.05002 5.55039 8.05002 5.85039C8.05002 6.35039 8.45002 6.75039 8.95002 6.75039C9.10002 6.75039 9.20002 6.70039 9.35002 6.65039C9.35002 6.65039 10.45 6.05039 10.7 6.65039C10.75 6.85039 10.85 7.05039 10.9 7.25039C11.2 8.20039 11.45 9.30039 11.65 10.3504L10.7 11.7004C10.7 11.7004 9.60002 11.3004 9.05002 11.3004C8.50002 11.3004 7.40002 11.7504 7.40002 13.2004C7.40002 14.6504 8.45002 14.7504 8.80002 14.7504C9.45002 14.7504 10.1 14.3004 10.65 13.3004C11.2 12.3004 11.85 11.2004 11.85 11.2004ZM21.75 14.4004C21.8 14.4004 21.8 14.4504 21.85 14.4504H22.3C22.8 14.4504 23.3 14.5504 23.75 14.7004C25.55 10.0004 25.25 7.50039 22.8 2.15039H20.8C22.85 6.65039 23.15 10.2004 21.75 14.4004ZM17.65 16.2004C18.05 15.8004 18.6 15.5504 19.25 15.5504C20.05 15.5504 20.8 16.0004 21.2 16.6504C21.55 16.5004 21.9 16.4004 22.3 16.4004C23.8 16.4004 25 17.6004 25 19.1004C25 20.6004 23.8 21.8004 22.3 21.8004C22.1 21.8004 21.95 21.8004 21.75 21.7504C21.4 22.3504 20.75 22.7504 20.05 22.7504C19.75 22.7504 19.45 22.6504 19.2 22.5504C18.85 23.3504 18.05 23.9004 17.15 23.9004C16.15 23.9004 15.35 23.3004 15.05 22.4504C14.9 22.4504 14.8 22.5004 14.6 22.5004C13.45 22.5004 12.5 21.6004 12.5 20.4504C12.5 19.7004 12.9 19.0004 13.55 18.6504C13.4 18.3504 13.35 18.0504 13.35 17.7004C13.35 16.4004 14.45 15.3004 15.75 15.3004C16.5 15.2504 17.2 15.6504 17.65 16.2004Z" fill="#706E6B"/>
</svg>
