<svg width="26" height="26" viewBox="0 0 26 26" fill="none" xmlns="http://www.w3.org/2000/svg">
<path fill-rule="evenodd" clip-rule="evenodd" d="M6.79998 7.55078C5.09998 11.3008 5.09998 12.8008 6.79998 16.6008H8.04998C6.54998 13.3008 6.54998 10.8508 7.99998 7.55078H6.79998ZM18.45 14.7008C18.7 14.6508 18.95 14.6008 19.2 14.6008C19.4 14.6008 19.55 14.6008 19.75 14.6508C20.6 12.1008 20.4 10.6008 19 7.50078H17.75C18.95 10.2008 19.2 12.3008 18.45 14.7008ZM11.15 19.2008H4.04998C3.49998 19.2008 3.04998 18.7508 3.04998 18.2008V5.10078H22.75V15.5508C23.5 15.6508 24.15 15.9008 24.75 16.2508V3.05078C24.75 1.95078 23.85 1.05078 22.75 1.05078H3.09998C1.99998 1.05078 1.09998 1.95078 1.09998 3.05078V19.2008C1.09998 20.3008 1.99998 21.2008 3.09998 21.2008H10.5C10.55 20.5008 10.75 19.8008 11.15 19.2008ZM17.65 17.3008C18.05 16.9008 18.6 16.6508 19.25 16.6508C20.1 16.6508 20.8 17.1008 21.2 17.7508C21.5 17.6508 21.9 17.5008 22.3 17.5008C23.75 17.5008 25 18.7008 25 20.1508C25 21.6008 23.8 22.8008 22.3 22.8008C22.15 22.8008 21.95 22.8008 21.8 22.7508C21.5 23.3508 20.8 23.7508 20.1 23.7508C19.8 23.7508 19.5 23.6508 19.25 23.5508C18.9 24.3508 18.1 24.9008 17.2 24.9008C16.2 24.9008 15.4 24.3008 15.1 23.5008C15 23.5008 14.8 23.5508 14.65 23.5508C13.5 23.5508 12.55 22.6508 12.55 21.5008C12.55 20.7508 12.95 20.1008 13.6 19.7008C13.5 19.4008 13.4 19.1008 13.4 18.7508C13.4 17.4508 14.5 16.4008 15.8 16.4008C16.55 16.3508 17.2 16.7508 17.65 17.3008ZM11.5 14.4508C11.85 13.8508 12.25 13.2008 12.25 13.2008C12.35 13.7508 12.45 14.2008 12.55 14.4008C12.65 14.7508 12.9 15.0508 13.2 15.2508C13.9 14.7508 14.8 14.4508 15.75 14.4508H15.85C15.85 14.1508 15.6 13.9008 15.3 13.9008C15.2 13.9008 15.15 13.9508 15.05 13.9508C15.05 13.9508 14.45 14.2508 14.25 14.0508C14.1 13.7508 13.95 13.4008 13.9 12.9508C13.8 12.5508 13.7 12.1008 13.6 11.6008L14.2 10.7508C14.2 10.7508 14.85 11.0008 15.2 11.0008C15.55 11.0008 16.25 10.7008 16.25 9.80078C16.25 8.90078 15.6 8.85078 15.4 8.85078C15 8.85078 14.6 9.15078 14.25 9.70078C13.9 10.3008 13.5 10.9508 13.5 10.9508C13.4 10.5008 13.35 10.1508 13.3 10.0008C13.2 9.65078 12.8 8.80078 11.9 8.80078C11 8.80078 10.2 9.30078 10.2 9.30078C10.05 9.40078 9.94998 9.60078 9.94998 9.75078C9.94998 10.0508 10.2 10.3008 10.5 10.3008C10.6 10.3008 10.65 10.2508 10.75 10.2508C10.75 10.2508 11.4 9.85078 11.6 10.2508C11.65 10.3508 11.7 10.5008 11.7 10.6508C11.85 11.2508 12 11.9008 12.15 12.5508L11.55 13.4008C11.55 13.4008 10.9 13.1508 10.55 13.1508C10.2 13.1508 9.49998 13.4508 9.49998 14.3508C9.49998 15.2508 10.15 15.3008 10.35 15.3008C10.8 15.3508 11.2 15.0508 11.5 14.4508Z" fill="#706E6B"/>
</svg>
