<svg width="26" height="26" viewBox="0 0 26 26" fill="none" xmlns="http://www.w3.org/2000/svg">
<path fill-rule="evenodd" clip-rule="evenodd" d="M8 13.75V12.25C8 11.85 7.65 11.5 7.25 11.5H1.75C1.35 11.5 1 11.85 1 12.25V13.75C1 14.15 1.35 14.5 1.75 14.5H7.25C7.65 14.5 8 14.15 8 13.75ZM8.95 16C8.65 15.7 8.2 15.7 7.9 16L4 19.9C3.7 20.2 3.7 20.65 4 20.95L5.05 22C5.35 22.3 5.8 22.3 6.1 22L10 18.1C10.3 17.8 10.3 17.35 10 17.05L8.95 16ZM17.05 10C17.35 10.3 17.8 10.3 18.1 10L22 6.1C22.3 5.8 22.3 5.35 22 5.05L20.95 4C20.65 3.7 20.2 3.7 19.9 4L16 7.85C15.7 8.15 15.7 8.6 16 8.9L17.05 10ZM6.1 4C5.8 3.7 5.35 3.7 5.05 4L4 5.05C3.7 5.35 3.7 5.8 4 6.1L7.9 10C8.2 10.3 8.65 10.3 8.95 10L10 8.95C10.3 8.65 10.3 8.2 10 7.9L6.1 4ZM18.15 16C17.85 15.7 17.4 15.7 17.1 16L16 17.05C15.7 17.35 15.7 17.8 16 18.1L19.9 22C20.2 22.3 20.65 22.3 20.95 22L22 20.95C22.3 20.65 22.3 20.2 22 19.9L18.15 16ZM13.75 18H12.25C11.85 18 11.5 18.35 11.5 18.75V24.25C11.5 24.65 11.85 25 12.25 25H13.75C14.15 25 14.5 24.65 14.5 24.25V18.75C14.5 18.35 14.15 18 13.75 18ZM24.25 11.5H18.75C18.35 11.5 18 11.85 18 12.25V13.75C18 14.15 18.35 14.5 18.75 14.5H24.25C24.65 14.5 25 14.15 25 13.75V12.25C25 11.85 24.65 11.5 24.25 11.5ZM13.75 1H12.25C11.85 1 11.5 1.35 11.5 1.75V7.25C11.5 7.65 11.85 8 12.25 8H13.75C14.15 8 14.5 7.65 14.5 7.25V1.75C14.5 1.35 14.15 1 13.75 1Z" fill="#706E6B"/>
</svg>
