<svg width="26" height="26" viewBox="0 0 26 26" fill="none" xmlns="http://www.w3.org/2000/svg">
<path fill-rule="evenodd" clip-rule="evenodd" d="M5.8 13.0008C5.8 16.9508 9.05 20.2008 13 20.2008C16.95 20.2008 20.15 16.9508 20.15 13.0008C20.15 9.05078 16.95 5.80078 13 5.80078C9.05 5.80078 5.8 9.05078 5.8 13.0008ZM17.75 13.0008C17.75 15.6508 15.6 17.8008 12.95 17.8008C10.3 17.8008 8.15 15.6508 8.15 13.0008C8.15 10.3508 10.3 8.20078 12.95 8.20078C15.6 8.20078 17.75 10.3508 17.75 13.0008ZM2.7 14.7008C3.63888 14.7008 4.4 13.9397 4.4 13.0008C4.4 12.0619 3.63888 11.3008 2.7 11.3008C1.76112 11.3008 1 12.0619 1 13.0008C1 13.9397 1.76112 14.7008 2.7 14.7008ZM14.65 13.0008C14.65 13.9397 13.8889 14.7008 12.95 14.7008C12.0111 14.7008 11.25 13.9397 11.25 13.0008C11.25 12.0619 12.0111 11.3008 12.95 11.3008C13.8889 11.3008 14.65 12.0619 14.65 13.0008ZM25.05 13.0008C25.05 13.9397 24.2889 14.7008 23.35 14.7008C22.4111 14.7008 21.65 13.9397 21.65 13.0008C21.65 12.0619 22.4111 11.3008 23.35 11.3008C24.2889 11.3008 25.05 12.0619 25.05 13.0008Z" fill="#706E6B"/>
</svg>
