<svg width="26" height="26" viewBox="0 0 26 26" fill="none" xmlns="http://www.w3.org/2000/svg">
<path fill-rule="evenodd" clip-rule="evenodd" d="M23.7 19.475L14.3 24.825C13.8 25.125 13.15 25.125 12.65 24.825L3.3 19.475C2.9 19.275 2.9 18.775 3.3 18.575L5.5 17.325C5.65 17.225 5.85 17.225 6 17.325L11.7 20.575C12.25 20.875 12.85 21.025 13.5 21.025C14.15 21.025 14.75 20.875 15.3 20.575L21 17.325C21.15 17.225 21.35 17.225 21.5 17.325L23.7 18.575C24.1 18.775 24.1 19.275 23.7 19.475ZM23.7 13.475L14.3 18.825C13.8 19.125 13.15 19.125 12.65 18.825L3.3 13.475C2.9 13.275 2.9 12.775 3.3 12.575L5.5 11.325C5.65 11.225 5.85 11.225 6 11.325L11.7 14.575C12.25 14.875 12.85 15.025 13.5 15.025C14.15 15.025 14.75 14.875 15.3 14.575L21 11.325C21.15 11.225 21.35 11.225 21.5 11.325L23.7 12.575C24.1 12.775 24.1 13.275 23.7 13.475ZM12.75 12.825L3.35 7.475C2.95 7.275 2.95 6.775 3.35 6.575L12.75 1.225C13.25 0.925 13.9 0.925 14.4 1.225L23.8 6.575C24.2 6.775 24.2 7.275 23.8 7.475L14.4 12.825C13.9 13.075 13.25 13.075 12.75 12.825Z" fill="#706E6B"/>
</svg>
