<svg width="26" height="26" viewBox="0 0 26 26" fill="none" xmlns="http://www.w3.org/2000/svg">
<path d="M6.75 13.85C6.75 13.85 7 13.65 7.25 13.85C7.25 13.9 7.3 13.9 7.35 13.95C8.1 14.55 9 14.85 10 14.85C11.05 14.85 11.95 14.55 12.75 13.9C12.75 13.9 12.95 13.7 13.25 13.9C14.05 14.5 14.9 14.8 15.95 14.8C16.95 14.8 17.8 14.5 18.55 13.95L18.6 13.9C18.75 13.85 19 13.7 19.3 13.95C19.35 13.95 19.35 13.95 19.4 14C20 14.45 20.65 14.65 21.45 14.75H21.55C21.75 14.8 21.95 14.9 21.9 15.3V22.5C21.9 23.05 21.5 23.15 21.4 23.15H20C19.9 23.15 19.5 23.05 19.5 22.5V17.5C19.5 17.15 19.35 17.05 19.2 17H14.75C14.35 17 14.3 17.15 14.25 17.3V22.6C14.25 22.75 14.2 23.1 13.7 23.2H4.45C4 23.1 3.9 22.75 3.9 22.6V15.15C3.9 14.8 4.2 14.8 4.2 14.8C5.15 14.75 6 14.45 6.75 13.85ZM11.15 16.95L6.86686 16.9508C6.69844 16.9596 6.35 17.0467 6.35 17.7V20.75C6.4 20.95 6.5 21.15 6.95 21.15H11C11.5 21.15 11.6 20.85 11.6 20.65L11.6008 19.7867C11.6031 19.0719 11.6125 18.35 11.65 17.6C11.65 17.05 11.3 16.95 11.15 16.95ZM20.592 2.75041C20.7253 2.7537 21.0167 2.78333 21.15 3.05C22.3 5.2 23.45 7.35 24.65 9.5C24.75 9.7 24.85 9.95 24.95 10.2V10.3C24.85 10.95 24.5 11.55 24 12.05C23.2 12.85 22.25 13.05 21.15 12.75H20.95C20.2 12.55 19.7 12.15 19.3 11.5C19.1 11.2 18.65 11.2 18.4 11.5C18.2 11.85 17.9 12.15 17.55 12.4C16.9 12.8 16.2 13 15.5 12.9C14.75 12.8 14.1 12.45 13.6 11.85C13.5 11.75 13.45 11.6 13.35 11.5C13.15 11.15 12.65 11.2 12.45 11.5C12.1 12.1 11.6 12.55 10.95 12.75C9.95 13.05 9 12.95 8.15 12.3C7.85 12.1 7.6 11.8 7.4 11.5C7.2 11.25 6.9 11.2 6.65 11.35L6.5 11.5C6.1 12.1 5.65 12.5 5 12.75C3.8 13.15 2.8 12.95 1.9 12.15C1.4 11.7 1.1 11.1 1 10.4V10.3C1 10 1.1 9.7 1.2 9.5C2.35 7.4 3.5 5.2 4.7 3.05C4.85 2.75 5.3 2.75 5.3 2.75L20.592 2.75041Z" fill="#706E6B"/>
</svg>
