<svg width="26" height="26" viewBox="0 0 26 26" fill="none" xmlns="http://www.w3.org/2000/svg">
<path fill-rule="evenodd" clip-rule="evenodd" d="M23.45 9.35H19.4C18.5 9.35 17.8 10.05 17.8 10.95V11.95H14.05V4.05C14.05 3.8 13.8 3.55 13.55 3.55H8.30005V2.6C8.30005 1.7 7.60005 1 6.70005 1H2.65005C1.80005 1 1.05005 1.7 1.05005 2.6V6.65C1.05005 7.55 1.75005 8.25 2.65005 8.25H6.70005C7.60005 8.25 8.30005 7.55 8.30005 6.65V5.7H12V11.95H8.30005V11C8.30005 10.1 7.60005 9.4 6.70005 9.4H2.65005C1.75005 9.4 1.05005 10.1 1.05005 11V15C1.05005 15.9 1.75005 16.6 2.65005 16.6H6.70005C7.60005 16.6 8.30005 15.9 8.30005 15V14.05H12V20.3H8.30005V19.4C8.30005 18.5 7.60005 17.8 6.70005 17.8H2.65005C1.75005 17.8 1.05005 18.5 1.05005 19.4V23.45C1.05005 24.35 1.75005 25.05 2.65005 25.05H6.70005C7.60005 25.05 8.30005 24.35 8.30005 23.45V22.5H13.6C13.9 22.5 14.1 22.2 14.1 22V14.1H17.85V15C17.85 15.9 18.55 16.6 19.45 16.6H23.5C24.4 16.6 25.1 15.9 25.1 15V10.95C25.05 10.05 24.35 9.35 23.45 9.35ZM6.25005 6.2H3.10005V3H6.25005V6.2ZM6.25005 11.4V14.55H3.10005V11.4H6.25005ZM6.25005 23H3.10005V19.85H6.25005V23ZM23.05 11.4V14.55H19.9V11.4H23.05Z" fill="#706E6B"/>
</svg>
