<svg width="48" height="48" viewBox="0 0 48 48" fill="none" xmlns="http://www.w3.org/2000/svg">
<rect width="48" height="48" rx="4" fill="#7F8DE1"/>
<mask id="mask0_1518_27417" style="mask-type:luminance" maskUnits="userSpaceOnUse" x="0" y="0" width="48" height="48">
<rect width="48" height="48" rx="4" fill="white"/>
</mask>
<g mask="url(#mask0_1518_27417)">
<path fill-rule="evenodd" clip-rule="evenodd" d="M40.4237 24.6338C40.4814 23.4236 39.6169 23.0779 39.2712 23.0779H26.7085C25.6136 23.0779 25.4407 24.2304 25.4407 24.3457V37.8304H40.4237V24.6338ZM31.7797 34.3152C31.7797 34.9491 31.261 35.4677 30.6271 35.4677H29.4746C28.8407 35.4677 28.322 34.9491 28.322 34.3152V33.1626C28.322 32.5287 28.8407 32.0101 29.4746 32.0101H30.6271C31.261 32.0101 31.7797 32.5287 31.7797 33.1626V34.3152ZM30.6271 29.5897C31.261 29.5897 31.7797 29.0711 31.7797 28.4372V27.2847C31.7797 26.6508 31.261 26.1321 30.6271 26.1321H29.4746C28.8407 26.1321 28.322 26.6508 28.322 27.2847V28.4372C28.322 29.0711 28.8407 29.5897 29.4746 29.5897H30.6271ZM37.5424 34.3152C37.5424 34.9491 37.0237 35.4677 36.3898 35.4677H35.2373C34.6034 35.4677 34.0847 34.9491 34.0847 34.3152V33.1626C34.0847 32.5287 34.6034 32.0101 35.2373 32.0101H36.3898C37.0237 32.0101 37.5424 32.5287 37.5424 33.1626V34.3152ZM36.3898 29.5897C37.0237 29.5897 37.5424 29.0711 37.5424 28.4372V27.2847C37.5424 26.6508 37.0237 26.1321 36.3898 26.1321H35.2373C34.6034 26.1321 34.0847 26.6508 34.0847 27.2847V28.4372C34.0847 29.0711 34.6034 29.5897 35.2373 29.5897H36.3898Z" fill="white"/>
<path fill-rule="evenodd" clip-rule="evenodd" d="M28.8983 11.7254V18.4101C28.8983 18.8711 28.4373 19.5627 27.8034 19.5627H23.2508C21.9831 19.5627 21.9831 20.9457 21.9831 20.9457V37.8305H7V11.4372C7 11.322 7.17288 10.1694 8.2678 10.1694H27.7458C28.0915 10.1694 28.9559 10.5152 28.8983 11.7254ZM12.1864 34.8915C12.8203 34.8915 13.339 34.3728 13.339 33.7389V32.5864C13.339 31.9525 12.8203 31.4338 12.1864 31.4338H11.0339C10.4 31.4338 9.88136 31.9525 9.88136 32.5864V33.7389C9.88136 34.3728 10.4 34.8915 11.0339 34.8915H12.1864ZM13.339 27.8033C13.339 28.4372 12.8203 28.9559 12.1864 28.9559H11.0339C10.4 28.9559 9.88136 28.4372 9.88136 27.8033V26.6508C9.88136 26.0169 10.4 25.4982 11.0339 25.4982H12.1864C12.8203 25.4982 13.339 26.0169 13.339 26.6508V27.8033ZM12.1864 23.0779C12.8203 23.0779 13.339 22.5593 13.339 21.9254V20.7728C13.339 20.1389 12.8203 19.6203 12.1864 19.6203H11.0339C10.4 19.6203 9.88136 20.1389 9.88136 20.7728V21.9254C9.88136 22.5593 10.4 23.0779 11.0339 23.0779H12.1864ZM13.339 16.0474C13.339 16.6813 12.8203 17.1999 12.1864 17.1999H11.0339C10.4 17.1999 9.88136 16.6813 9.88136 16.0474V14.8949C9.88136 14.261 10.4 13.7423 11.0339 13.7423H12.1864C12.8203 13.7423 13.339 14.261 13.339 14.8949V16.0474ZM18.5254 34.8915C19.1593 34.8915 19.678 34.3728 19.678 33.7389V32.5864C19.678 31.9525 19.1593 31.4338 18.5254 31.4338H17.3729C16.739 31.4338 16.2203 31.9525 16.2203 32.5864V33.7389C16.2203 34.3728 16.739 34.8915 17.3729 34.8915H18.5254ZM19.678 27.8033C19.678 28.4372 19.1593 28.9559 18.5254 28.9559H17.3729C16.739 28.9559 16.2203 28.4372 16.2203 27.8033V26.6508C16.2203 26.0169 16.739 25.4982 17.3729 25.4982H18.5254C19.1593 25.4982 19.678 26.0169 19.678 26.6508V27.8033ZM18.5254 23.0779C19.1593 23.0779 19.678 22.5593 19.678 21.9254V20.7728C19.678 20.1389 19.1593 19.6203 18.5254 19.6203H17.3729C16.739 19.6203 16.2203 20.1389 16.2203 20.7728V21.9254C16.2203 22.5593 16.739 23.0779 17.3729 23.0779H18.5254ZM19.678 16.0474C19.678 16.6813 19.1593 17.1999 18.5254 17.1999H17.3729C16.739 17.1999 16.2203 16.6813 16.2203 16.0474V14.8949C16.2203 14.261 16.739 13.7423 17.3729 13.7423H18.5254C19.1593 13.7423 19.678 14.261 19.678 14.8949V16.0474ZM24.8644 17.1999C25.4983 17.1999 26.0169 16.6813 26.0169 16.0474V14.8949C26.0169 14.261 25.4983 13.7423 24.8644 13.7423H23.7119C23.078 13.7423 22.5593 14.261 22.5593 14.8949V16.0474C22.5593 16.6813 23.078 17.1999 23.7119 17.1999H24.8644Z" fill="white"/>
</g>
</svg>
