<svg width="26" height="26" viewBox="0 0 26 26" fill="none" xmlns="http://www.w3.org/2000/svg">
<path fill-rule="evenodd" clip-rule="evenodd" d="M15 14.5H23.25C23.65 14.5 24 14.15 24 13.75V12.25C24 11.85 23.65 11.5 23.25 11.5H15C14.7 11.5 14.5 11.3 14.5 11V2.75C14.5 2.35 14.15 2 13.75 2H12.25C11.85 2 11.5 2.35 11.5 2.75V11C11.5 11.3 11.3 11.5 11 11.5H2.75C2.35 11.5 2 11.85 2 12.25V13.75C2 14.15 2.35 14.5 2.75 14.5H11C11.3 14.5 11.5 14.7 11.5 15V23.25C11.5 23.65 11.85 24 12.25 24H13.75C14.15 24 14.5 23.65 14.5 23.25V15C14.5 14.7 14.7 14.5 15 14.5Z" fill="#706E6B"/>
</svg>
