<svg width="26" height="26" viewBox="0 0 26 26" fill="none" xmlns="http://www.w3.org/2000/svg">
<path fill-rule="evenodd" clip-rule="evenodd" d="M6.5 2H3.5C2.65 2 2 2.65 2 3.5V6.5C2 7.35 2.65 8 3.5 8H6.5C7.35 8 8 7.35 8 6.5V3.5C8 2.65 7.35 2 6.5 2ZM6.5 18H3.5C2.65 18 2 18.65 2 19.5V22.5C2 23.35 2.65 24 3.5 24H6.5C7.35 24 8 23.35 8 22.5V19.5C8 18.65 7.35 18 6.5 18ZM6.5 10H3.5C2.65 10 2 10.65 2 11.5V14.5C2 15.35 2.65 16 3.5 16H6.5C7.35 16 8 15.35 8 14.5V11.5C8 10.65 7.35 10 6.5 10ZM14.5 2H11.5C10.65 2 10 2.65 10 3.5V6.5C10 7.35 10.65 8 11.5 8H14.5C15.35 8 16 7.35 16 6.5V3.5C16 2.65 15.35 2 14.5 2ZM14.5 18H11.5C10.65 18 10 18.65 10 19.5V22.5C10 23.35 10.65 24 11.5 24H14.5C15.35 24 16 23.35 16 22.5V19.5C16 18.65 15.35 18 14.5 18ZM14.5 10H11.5C10.65 10 10 10.65 10 11.5V14.5C10 15.35 10.65 16 11.5 16H14.5C15.35 16 16 15.35 16 14.5V11.5C16 10.65 15.35 10 14.5 10ZM22.5 2H19.5C18.65 2 18 2.65 18 3.5V6.5C18 7.35 18.65 8 19.5 8H22.5C23.35 8 24 7.35 24 6.5V3.5C24 2.65 23.35 2 22.5 2ZM22.5 18H19.5C18.65 18 18 18.65 18 19.5V22.5C18 23.35 18.65 24 19.5 24H22.5C23.35 24 24 23.35 24 22.5V19.5C24 18.65 23.35 18 22.5 18ZM22.5 10H19.5C18.65 10 18 10.65 18 11.5V14.5C18 15.35 18.65 16 19.5 16H22.5C23.35 16 24 15.35 24 14.5V11.5C24 10.65 23.35 10 22.5 10Z" fill="#706E6B"/>
</svg>
