<svg width="40" height="40" viewBox="0 0 40 40" fill="none" xmlns="http://www.w3.org/2000/svg">
<rect width="40" height="40" rx="20" fill="#0DC2D9"/>
<mask id="mask0_1518_28032" style="mask-type:luminance" maskUnits="userSpaceOnUse" x="0" y="0" width="40" height="40">
<rect width="40" height="40" rx="20" fill="white"/>
</mask>
<g mask="url(#mask0_1518_28032)">
<path d="M31.2653 18.7755H15.0041C14.5633 18.7755 14.3674 18.2367 14.6613 17.9428L19.3633 13.2408C19.6572 12.9469 19.6572 12.5061 19.3633 12.2122L18.2857 11.1347C17.9919 10.8408 17.551 10.8408 17.2572 11.1347L8.68574 19.7061C8.39186 20 8.39186 20.4408 8.68574 20.7347L17.2572 29.3061C17.551 29.6 17.9919 29.6 18.2857 29.3061L19.3143 28.2775C19.6082 27.9837 19.6082 27.5428 19.3143 27.249L14.6123 22.5469C14.3184 22.2531 14.5143 21.7143 14.9551 21.7143H31.2164C31.6082 21.7143 31.951 21.3714 31.951 20.9796V19.5102C32 19.1184 31.6572 18.7755 31.2653 18.7755Z" fill="white"/>
</g>
</svg>
