<svg width="26" height="26" viewBox="0 0 26 26" fill="none" xmlns="http://www.w3.org/2000/svg">
<path fill-rule="evenodd" clip-rule="evenodd" d="M23.25 5H17V3C17 1.9 16.1 1 15 1H12C10.9 1 10 1.9 10 3V5H3.75C3.35 5 3 5.35 3 5.75V7.25C3 7.65 3.35 8 3.75 8H23.25C23.65 8 24 7.65 24 7.25V5.75C24 5.35 23.65 5 23.25 5ZM12 3.5C12 3.2 12.2 3 12.5 3H14.5C14.8 3 15 3.2 15 3.5V5H12V3.5ZM21.25 10H5.75C5.35 10 5 10.35 5 10.75V22.5C5 23.9 6.1 25 7.5 25H19.5C20.9 25 22 23.9 22 22.5V10.75C22 10.35 21.65 10 21.25 10ZM12 21C12 21.3 11.8 21.5 11.5 21.5H10.5C10.2 21.5 10 21.3 10 21V14C10 13.7 10.2 13.5 10.5 13.5H11.5C11.8 13.5 12 13.7 12 14V21ZM17 21C17 21.3 16.8 21.5 16.5 21.5H15.5C15.2 21.5 15 21.3 15 21V14C15 13.7 15.2 13.5 15.5 13.5H16.5C16.8 13.5 17 13.7 17 14V21Z" fill="#706E6B"/>
</svg>
