<svg preserveAspectRatio="none" width="100%" height="100%" overflow="visible" style="display: block;" viewBox="0 0 11.0603 11.0603" fill="none" xmlns="http://www.w3.org/2000/svg">
<path id="Icon" fill-rule="evenodd" clip-rule="evenodd" d="M1.71417 7.24615L3.76802 9.3C3.86032 9.39231 3.99879 9.39231 4.09109 9.3L9.21417 4.15385C9.30648 4.06154 9.30648 3.92308 9.21417 3.83077L7.1834 1.8C7.09109 1.70769 6.95263 1.70769 6.86032 1.8L1.71417 6.94615C1.62186 7.03846 1.62186 7.17692 1.71417 7.24615V7.24615ZM7.85263 0.853846C7.76032 0.946154 7.76032 1.08462 7.85263 1.17692L9.8834 3.20769C9.97571 3.3 10.1142 3.3 10.2065 3.20769L10.7834 2.63077C11.1526 2.28462 11.1526 1.73077 10.7834 1.36154L9.69879 0.276923C9.32956 -0.0923077 8.75263 -0.0923077 8.3834 0.276923L7.85263 0.853846V0.853846ZM0.00647882 10.6615C-0.039675 10.8923 0.168017 11.1 0.398787 11.0538L2.91417 10.4538C3.00648 10.4308 3.07571 10.3846 3.12186 10.3385L3.16802 10.2923C3.21417 10.2462 3.23725 10.0846 3.14494 9.99231L1.06802 7.91539C0.97571 7.82308 0.814171 7.84615 0.768017 7.89231L0.721863 7.93846C0.652633 8.00769 0.629556 8.07692 0.606479 8.14615L0.00647882 10.6615V10.6615Z" fill="var(--fill-0, #B0ADAB)"/>
</svg>
