<svg width="26" height="26" viewBox="0 0 26 26" fill="none" xmlns="http://www.w3.org/2000/svg">
<path fill-rule="evenodd" clip-rule="evenodd" d="M13.7067 1.55067L16.0067 9.05067C16.1067 9.35067 16.4067 9.50067 16.7067 9.50067H24.2067C24.9567 9.50067 25.2567 10.5007 24.6567 10.9507L18.5567 15.4507C18.3067 15.6507 18.2067 16.0007 18.3067 16.3007L21.2067 24.0007C21.4067 24.7007 20.6567 25.3007 20.0567 24.8507L13.5067 19.9507C13.2567 19.7507 12.9067 19.7507 12.6067 19.9507L6.00667 24.8507C5.40667 25.3007 4.60667 24.7007 4.85667 24.0007L7.65667 16.3007C7.75667 16.0007 7.65667 15.6507 7.40667 15.4507L1.30667 10.9507C0.706673 10.5007 1.05667 9.50067 1.75667 9.50067H9.25667C9.60667 9.50067 9.85667 9.40067 9.95667 9.05067L12.3067 1.50067C12.5067 0.800669 13.5067 0.850669 13.7067 1.55067Z" fill="#706E6B"/>
</svg>
