<svg width="26" height="26" viewBox="0 0 26 26" fill="none" xmlns="http://www.w3.org/2000/svg">
<path fill-rule="evenodd" clip-rule="evenodd" d="M14.1548 19.0522H11.6548C11.2548 19.0522 10.9548 18.7522 10.9548 18.3522V17.6022C10.9548 15.5022 12.3048 13.6022 14.3048 12.9022C14.9048 12.7022 15.4548 12.3522 15.9048 11.8522C18.4048 8.85221 16.1048 5.25221 13.1048 5.15221C12.0048 5.10221 10.9548 5.50221 10.1548 6.25221C9.50476 6.85221 9.10476 7.60221 9.00476 8.45221C8.95476 8.75221 8.65476 9.00221 8.25476 9.00221H5.75476C5.30476 9.00221 4.95476 8.65221 5.00476 8.20221C5.20476 6.30221 6.05476 4.60221 7.40476 3.25221C9.00476 1.75221 11.0548 0.95221 13.2548 1.00221C17.4048 1.15221 20.8048 4.55221 20.9548 8.70221C21.1048 12.2022 18.9548 15.3522 15.7048 16.5522C15.2548 16.7522 14.9548 17.1022 14.9548 17.5522V18.3022C14.9548 18.7522 14.5548 19.0522 14.1548 19.0522ZM14.9548 24.3022C14.9548 24.7022 14.6048 25.0522 14.2048 25.0522H11.7048C11.3048 25.0522 10.9548 24.7022 10.9548 24.3022V21.8022C10.9548 21.4022 11.3048 21.0522 11.7048 21.0522H14.2048C14.6048 21.0522 14.9548 21.4022 14.9548 21.8022V24.3022Z" fill="#706E6B"/>
</svg>
