<svg preserveAspectRatio="none" width="100%" height="100%" overflow="visible" style="display: block;" viewBox="0 0 11.0769 11.0769" fill="none" xmlns="http://www.w3.org/2000/svg">
<path id="Icon" fill-rule="evenodd" clip-rule="evenodd" d="M5.53846 0C2.46923 0 0 2.46923 0 5.53846C0 8.60769 2.46923 11.0769 5.53846 11.0769C8.60769 11.0769 11.0769 8.60769 11.0769 5.53846C11.0769 2.46923 8.60769 0 5.53846 0ZM5.53846 2.79231C5.93077 2.79231 6.23077 3.09231 6.23077 3.48462C6.23077 3.87692 5.93077 4.17692 5.53846 4.17692C5.14615 4.17692 4.84615 3.87692 4.84615 3.48462C4.84615 3.09231 5.14615 2.79231 5.53846 2.79231V2.79231ZM6.69231 7.63846C6.69231 7.75385 6.6 7.84615 6.46154 7.84615H4.61538C4.5 7.84615 4.38462 7.77692 4.38462 7.63846V7.17692C4.38462 7.06154 4.47692 6.92308 4.61538 6.92308C4.73077 6.92308 4.84615 6.85385 4.84615 6.71538V5.79231C4.84615 5.67692 4.75385 5.53846 4.61538 5.53846C4.5 5.53846 4.38462 5.46923 4.38462 5.33077V4.86923C4.38462 4.75385 4.47692 4.61538 4.61538 4.61538H6C6.11538 4.61538 6.23077 4.73077 6.23077 4.86923V6.71538C6.23077 6.83077 6.32308 6.92308 6.46154 6.92308C6.57692 6.92308 6.69231 7.03846 6.69231 7.17692V7.63846Z" fill="var(--fill-0, #706E6B)"/>
</svg>
