<svg width="26" height="26" viewBox="0 0 26 26" fill="none" xmlns="http://www.w3.org/2000/svg">
<path fill-rule="evenodd" clip-rule="evenodd" d="M24.35 1H14.8C14.4 1 14 1.25 14 1.65V3.15C14 3.55 14.35 4 14.8 4H18.75C19.2 4 19.45 4.5 19.1 4.8L10.6 13.3C10.3 13.6 10.3 14.05 10.6 14.35L11.65 15.4C11.95 15.7 12.4 15.7 12.7 15.4L21.2 6.9C21.5 6.6 22 6.8 22 7.25V11.2C22 11.6 22.4 12.05 22.8 12.05H24.25C24.65 12.05 25 11.6 25 11.2V1.7C25 1.25 24.75 1 24.35 1ZM18.15 12.75L16.45 14.5C16.15 14.8 16 15.15 16 15.55V21.25C16 21.65 15.65 22 15.25 22H4.75C4.35 22 4 21.65 4 21.25V10.75C4 10.35 4.35 10 4.75 10H10.5C10.9 10 11.3 9.85 11.55 9.55L13.25 7.85C13.55 7.55 13.35 7 12.9 7H3C1.9 7 1 7.9 1 9V23C1 24.1 1.9 25 3 25H17C18.1 25 19 24.1 19 23V13.1C19 12.65 18.45 12.45 18.15 12.75Z" fill="#706E6B"/>
</svg>
