<svg width="26" height="26" viewBox="0 0 26 26" fill="none" xmlns="http://www.w3.org/2000/svg">
<path fill-rule="evenodd" clip-rule="evenodd" d="M23 16.5078H22.75C21.8 16.5078 21 15.7078 21 14.7578V9.00784C21 4.45784 17.2 0.807845 12.6 1.00784C8.3 1.20784 5 4.90785 5 9.25784V14.8078C5 15.7578 4.2 16.5078 3.25 16.5078H3C1.9 16.5078 1 17.4578 1 18.5578V19.3078C1 19.6578 1.35 20.0078 1.75 20.0078H24.25C24.65 20.0078 25 19.6578 25 19.2578V18.5078C25 17.4078 24.1 16.5078 23 16.5078ZM15.45 22.0078H10.55C10.25 22.0078 10 22.3078 10.05 22.6078C10.3 24.0078 11.55 25.0078 13 25.0078C14.45 25.0078 15.7 23.9578 15.95 22.6078C16 22.3078 15.75 22.0078 15.45 22.0078Z" fill="#706E6B"/>
</svg>
