<svg width="26" height="26" viewBox="0 0 26 26" fill="none" xmlns="http://www.w3.org/2000/svg">
<path fill-rule="evenodd" clip-rule="evenodd" d="M22.2 9.5H16.6C15.3 9.5 14.5 8.7 14.5 7.4V1.8C14.5 1.35 14.15 1 13.7 1H5.4C4.1 1 3 2.1 3 3.4V22.6C3 23.9 4.1 25 5.4 25H20.6C21.9 25 23 23.9 23 22.6V10.3C23 9.85 22.65 9.5 22.2 9.5ZM22.85 6.45L17.55 1.15C17.45 1.05 17.25 1 17.1 1C16.8 1 16.5 1.25 16.5 1.55V5.8C16.5 6.7 17.3 7.5 18.2 7.5H22.45C22.75 7.5 23 7.2 23 6.9C23 6.75 22.95 6.55 22.85 6.45Z" fill="#706E6B"/>
</svg>
