<svg width="48" height="48" viewBox="0 0 48 48" fill="none" xmlns="http://www.w3.org/2000/svg">
<rect width="48" height="48" rx="4" fill="#59BCAB"/>
<mask id="mask0_1518_27391" style="mask-type:luminance" maskUnits="userSpaceOnUse" x="0" y="0" width="48" height="48">
<rect width="48" height="48" rx="4" fill="white"/>
</mask>
<g mask="url(#mask0_1518_27391)">
<path d="M37.0333 7H18.9C17.03 7 15.5 8.53 15.5 10.4V10.9667C15.5 11.25 15.7267 11.5333 16.0667 11.5333H32.5C34.37 11.5333 35.9 13.0633 35.9 14.9333V32.5C35.9 32.7833 36.1267 33.0667 36.4667 33.0667C38.62 33.0667 40.4333 31.31 40.4333 29.1V10.4C40.4333 8.53 38.9033 7 37.0333 7Z" fill="white"/>
<path fill-rule="evenodd" clip-rule="evenodd" d="M10.9667 14.9333C9.09665 14.9333 7.56665 16.4633 7.56665 18.3333V37.6C7.56665 39.47 9.09665 41 10.9667 41H29.1C30.97 41 32.5 39.47 32.5 37.6V18.3333C32.5 16.4633 30.97 14.9333 29.1 14.9333H10.9667ZM15.5 22.8667C15.5 23.49 14.99 24 14.3667 24H13.2333C12.61 24 12.1 23.49 12.1 22.8667V21.7333C12.1 21.11 12.61 20.6 13.2333 20.6H14.3667C14.99 20.6 15.5 21.11 15.5 21.7333V22.8667ZM26.8333 24C27.4566 24 27.9667 23.49 27.9667 22.8667V21.7333C27.9667 21.11 27.4566 20.6 26.8333 20.6H18.9C18.2767 20.6 17.7667 21.11 17.7667 21.7333V22.8667C17.7667 23.49 18.2767 24 18.9 24H26.8333ZM15.5 28.5333C15.5 29.1567 14.99 29.6667 14.3667 29.6667H13.2333C12.61 29.6667 12.1 29.1567 12.1 28.5333V27.4C12.1 26.7767 12.61 26.2667 13.2333 26.2667H14.3667C14.99 26.2667 15.5 26.7767 15.5 27.4V28.5333ZM26.8333 29.6667C27.4566 29.6667 27.9667 29.1567 27.9667 28.5333V27.4C27.9667 26.7767 27.4566 26.2667 26.8333 26.2667H18.9C18.2767 26.2667 17.7667 26.7767 17.7667 27.4V28.5333C17.7667 29.1567 18.2767 29.6667 18.9 29.6667H26.8333ZM15.5 34.2C15.5 34.8233 14.99 35.3333 14.3667 35.3333H13.2333C12.61 35.3333 12.1 34.8233 12.1 34.2V33.0667C12.1 32.4433 12.61 31.9333 13.2333 31.9333H14.3667C14.99 31.9333 15.5 32.4433 15.5 33.0667V34.2ZM26.8333 35.3333C27.4566 35.3333 27.9667 34.8233 27.9667 34.2V33.0667C27.9667 32.4433 27.4566 31.9333 26.8333 31.9333H18.9C18.2767 31.9333 17.7667 32.4433 17.7667 33.0667V34.2C17.7667 34.8233 18.2767 35.3333 18.9 35.3333H26.8333Z" fill="white"/>
</g>
</svg>
