<svg width="200" height="32" viewBox="0 0 200 32" fill="none" xmlns="http://www.w3.org/2000/svg">
<g clip-path="url(#clip0_1542_9945)">
<path d="M0.0479167 23.2473V18.9953H0.0729167C2.70833 20.3723 5.49896 21.1244 7.87604 21.1244C9.90625 21.1244 10.9448 20.5703 10.9448 19.6025C10.9448 18.6348 10.1698 18.3223 6.42708 17.6953C2.97188 17.1317 0 16.0661 0 12.69C0 9.68692 2.56042 7.13171 7.91667 7.13171C10.1422 7.13953 12.3387 7.63744 14.35 8.59005V12.8109H14.326C12.3479 11.6275 9.76146 10.8817 7.58542 10.8817C5.40938 10.8817 4.54167 11.4578 4.54167 12.3755C4.54167 13.5588 6.16042 13.6796 8.98646 14.1869C12.4417 14.79 15.4615 15.7578 15.4615 19.3828C15.4615 21.8015 13.8427 24.8661 7.73125 24.8661C5.08389 24.8817 2.46393 24.3298 0.0479167 23.2473V23.2473Z" fill="#22333B"/>
<path d="M18.2053 7.13171H22.8397V24.8661H18.2053V7.13171Z" fill="#22333B"/>
<path d="M31.8594 11.2369H25.551L25.7292 7.13171H42.651L42.8042 11.2369H36.4958V24.8661H31.8594V11.2369Z" fill="#22333B"/>
<path d="M45.5447 7.13171H60.6999L60.8749 11.0536H50.1561V13.8911H58.6718V17.6244H50.1561V20.9442H61.2051L61.052 24.8661H45.5447V7.13171Z" fill="#22333B"/>
<path d="M70.2697 11.2369H63.9583L64.1364 7.13171H81.0614L81.2135 11.2369H74.9051V24.8661H70.2697V11.2369Z" fill="#22333B"/>
<path d="M83.9583 7.13171H93.8645C98.501 7.13171 100.754 9.31088 100.754 13.3588C100.754 16.2494 99.5135 18.1723 97.1332 19.0348L101.49 24.8609H96.1458L92.6239 19.9255H88.5926V24.8661H83.9583V7.13171ZM93.4583 16.1265C95.4103 16.1265 96.0926 15.0359 96.0926 13.5671C96.0926 12.0984 95.401 11.0598 93.4583 11.0598H88.5926V16.1338L93.4583 16.1265Z" fill="#22333B"/>
<path d="M113.92 7.13171L123.521 24.8661L113.92 20.4713V7.13171Z" fill="#22333B"/>
<path d="M113.92 7.13171L104.318 24.8661L113.92 20.4692V7.13171Z" fill="#798488"/>
<path d="M124.85 16.0713C124.85 11.1432 128.278 7.13274 134.509 7.13274C136.764 7.10188 138.972 7.7684 140.833 9.04107V13.3223H140.808C138.951 12.0911 137.163 11.0307 134.652 11.0307C131.319 11.0307 129.34 13.114 129.34 16.0557C129.34 18.9296 131.222 20.9807 134.617 20.9807C137.13 20.9807 138.992 20.0879 140.8 18.7359H140.824V23.0588C139.602 23.9046 137.259 24.8682 134.217 24.8682C127.821 24.8661 124.85 20.9567 124.85 16.0713Z" fill="#22333B"/>
<path d="M164.062 7.13171H179.215L179.393 11.0536H168.677V13.8911H177.202V17.6244H168.677V20.9442H179.726L179.573 24.8661H164.062V7.13171Z" fill="#22333B"/>
<path d="M182.467 7.13171H192.373C197.01 7.13171 199.264 9.31088 199.264 13.3588C199.264 16.2494 198.023 18.1723 195.64 19.0348L200 24.8609H194.647L191.131 19.9255H187.104V24.8661H182.467V7.13171ZM191.969 16.1265C193.918 16.1265 194.603 15.0359 194.603 13.5671C194.603 12.0984 193.911 11.0598 191.969 11.0598H187.104V16.1338L191.969 16.1265Z" fill="#22333B"/>
<path d="M148.193 24.8567H143.555V7.13171H148.193V24.8567Z" fill="#22333B"/>
<path d="M148.442 15.9057L155.658 7.13171H160.954V7.15671L153.91 15.6442L161.333 24.84V24.8661H155.811L148.442 15.9057Z" fill="#22333B"/>
</g>
<defs>
<clipPath id="clip0_1542_9945">
<rect width="200" height="32" fill="white"/>
</clipPath>
</defs>
</svg>
