<svg width="26" height="26" viewBox="0 0 26 26" fill="none" xmlns="http://www.w3.org/2000/svg">
<path fill-rule="evenodd" clip-rule="evenodd" d="M23.25 1H2.75C2.35 1 2 1.35 2 1.75V4.25C2 4.65 2.35 5 2.75 5H23.25C23.65 5 24 4.65 24 4.25V1.75C24 1.35 23.65 1 23.25 1ZM7.25 7H2.75C2.35 7 2 7.35 2 7.75V9.25C2 9.65 2.35 10 2.75 10H7.25C7.65 10 8 9.65 8 9.25V7.75C8 7.35 7.65 7 7.25 7ZM15.25 7H10.75C10.35 7 10 7.35 10 7.75V9.25C10 9.65 10.35 10 10.75 10H15.25C15.65 10 16 9.65 16 9.25V7.75C16 7.35 15.65 7 15.25 7ZM23.25 7H18.75C18.35 7 18 7.35 18 7.75V9.25C18 9.65 18.35 10 18.75 10H23.25C23.65 10 24 9.65 24 9.25V7.75C24 7.35 23.65 7 23.25 7ZM7.25 12H2.75C2.35 12 2 12.35 2 12.75V14.25C2 14.65 2.35 15 2.75 15H7.25C7.65 15 8 14.65 8 14.25V12.75C8 12.35 7.65 12 7.25 12ZM15.25 12H10.75C10.35 12 10 12.35 10 12.75V14.25C10 14.65 10.35 15 10.75 15H15.25C15.65 15 16 14.65 16 14.25V12.75C16 12.35 15.65 12 15.25 12ZM23.25 12H18.75C18.35 12 18 12.35 18 12.75V14.25C18 14.65 18.35 15 18.75 15H23.25C23.65 15 24 14.65 24 14.25V12.75C24 12.35 23.65 12 23.25 12ZM7.25 17H2.75C2.35 17 2 17.35 2 17.75V19.25C2 19.65 2.35 20 2.75 20H7.25C7.65 20 8 19.65 8 19.25V17.75C8 17.35 7.65 17 7.25 17ZM15.25 17H10.75C10.35 17 10 17.35 10 17.75V19.25C10 19.65 10.35 20 10.75 20H15.25C15.65 20 16 19.65 16 19.25V17.75C16 17.35 15.65 17 15.25 17ZM23.25 17H18.75C18.35 17 18 17.35 18 17.75V19.25C18 19.65 18.35 20 18.75 20H23.25C23.65 20 24 19.65 24 19.25V17.75C24 17.35 23.65 17 23.25 17ZM7.25 22H2.75C2.35 22 2 22.35 2 22.75V24.25C2 24.65 2.35 25 2.75 25H7.25C7.65 25 8 24.65 8 24.25V22.75C8 22.35 7.65 22 7.25 22ZM15.25 22H10.75C10.35 22 10 22.35 10 22.75V24.25C10 24.65 10.35 25 10.75 25H15.25C15.65 25 16 24.65 16 24.25V22.75C16 22.35 15.65 22 15.25 22ZM23.25 22H18.75C18.35 22 18 22.35 18 22.75V24.25C18 24.65 18.35 25 18.75 25H23.25C23.65 25 24 24.65 24 24.25V22.75C24 22.35 23.65 22 23.25 22Z" fill="#706E6B"/>
</svg>
