<svg width="48" height="48" viewBox="0 0 48 48" fill="none" xmlns="http://www.w3.org/2000/svg">
<rect width="48" height="48" rx="4" fill="#969492"/>
<mask id="mask0_1518_27890" style="mask-type:luminance" maskUnits="userSpaceOnUse" x="0" y="0" width="48" height="48">
<rect width="48" height="48" rx="4" fill="white"/>
</mask>
<g mask="url(#mask0_1518_27890)">
<path fill-rule="evenodd" clip-rule="evenodd" d="M40.4426 32.3609C40.4426 34.6462 40.4983 36.9872 40.6656 39.2724C40.6656 39.3633 40.6715 39.4483 40.6775 39.5351C40.6901 39.7144 40.7031 39.9013 40.6656 40.1642C40.6042 40.1642 40.4347 40.1669 40.2077 40.1705C39.4039 40.1834 37.8787 40.2077 37.8787 40.1642C37.7557 39.5084 37.693 39.0033 37.6463 38.6267C37.6295 38.4912 37.6147 38.3724 37.6 38.2691H37.4885C36.9311 39.0495 36.2065 39.6068 35.3705 39.997C34.5344 40.3872 33.4197 40.5544 32.0819 40.5544C30.577 40.5544 29.2951 40.1085 28.2918 39.2167C27.2885 38.3249 26.7869 37.0429 26.7869 35.4265C26.7869 33.2527 27.5672 31.7478 29.0721 30.856C30.6328 30.0199 32.8065 29.574 35.7049 29.574C36.1364 29.574 36.5085 29.5938 36.8097 29.6098C37.0142 29.6207 37.186 29.6298 37.3213 29.6298V28.7937C37.3213 27.0101 36.2065 26.1183 33.9213 26.1183C32.4721 26.1183 31.0229 26.5085 29.5738 27.1773C29.5698 27.1537 29.5659 27.1297 29.5619 27.1056C29.5096 26.788 29.4505 26.4291 29.2951 26.1183L28.5705 24.3347C29.2393 24.0003 30.0197 23.7216 30.8 23.4986C31.9147 23.2199 33.0295 23.0527 34.1442 23.0527C36.318 23.0527 39.3278 23.4986 40.2197 25.7839C40.5388 26.6044 40.5223 27.4623 40.5057 28.3269C40.502 28.5194 40.4983 28.7123 40.4983 28.9052C40.4426 30.0757 40.4426 31.1904 40.4426 32.3609ZM37.1541 34.8134C37.3213 34.4232 37.377 34.0331 37.377 33.6429V32.3609L36.1508 32.3052C34.7574 32.3052 33.141 32.3052 31.7475 32.7511C31.2459 32.9183 30.7442 33.197 30.4098 33.6429C29.8524 34.3675 29.741 35.5937 30.2426 36.374C30.5213 36.8757 31.0787 37.1544 31.636 37.2658C32.3606 37.3773 33.0295 37.4331 33.7541 37.3216C34.8688 37.0986 36.0393 36.597 36.7082 35.6495C36.9311 35.3708 37.0426 35.0921 37.1541 34.8134Z" fill="white"/>
<path fill-rule="evenodd" clip-rule="evenodd" d="M18.8164 7.61311L26.7311 27.2328C26.9541 27.6229 26.6197 28.0689 26.1738 28.0689H23.4426C23.0524 28.0689 22.6623 27.7344 22.5508 27.3443L20.4885 22.2164H13.3541L11.5147 27.3443C11.4033 27.7344 11.0131 28.0689 10.6229 28.0689H7.83606C7.44589 28.0689 7.1672 27.6229 7.33442 27.2328L14.5803 7.61311C14.6918 7.27869 15.082 7 15.4721 7H17.9803C18.3705 7 18.7049 7.22295 18.8164 7.61311ZM16.8656 13.0197L14.8033 18.3705H19.1508L16.8656 13.0197Z" fill="white"/>
</g>
</svg>
