<svg width="48" height="48" viewBox="0 0 48 48" fill="none" xmlns="http://www.w3.org/2000/svg">
<rect width="48" height="48" rx="4" fill="#2A739E"/>
<mask id="mask0_1518_27682" style="mask-type:luminance" maskUnits="userSpaceOnUse" x="0" y="0" width="48" height="48">
<rect width="48" height="48" rx="4" fill="white"/>
</mask>
<g mask="url(#mask0_1518_27682)">
<path d="M32.7509 15.3603H37.1542C37.6558 15.3603 38.1017 14.9144 38.1017 14.4127C38.1017 14.1898 37.9902 13.9111 37.823 13.7439L31.5246 7.55701C31.3574 7.3898 31.1345 7.27832 30.9115 7.27832C30.4099 7.27832 29.964 7.72422 29.964 8.22586V12.6291C30.0755 14.1341 31.246 15.3046 32.7509 15.3603Z" fill="white"/>
<path fill-rule="evenodd" clip-rule="evenodd" d="M29.8525 19.2619H36.6525C37.4328 19.2619 38.0459 19.9308 37.9902 20.6554V36.7636C37.9344 38.9931 36.1508 40.7767 33.9213 40.7767H13.7443C11.5148 40.7767 9.67542 38.9931 9.67542 36.7636V11.2914C9.73115 9.06193 11.5148 7.27832 13.7443 7.27832H24.5016H24.6689C25.3377 7.33406 25.8393 7.89144 25.7836 8.56029V15.2488C25.8393 17.4783 27.623 19.2619 29.8525 19.2619ZM31.1344 37.098C31.8033 37.098 32.3607 36.875 32.8066 36.4291C33.6984 35.5373 33.6984 34.0882 32.8066 33.1964L25.1148 25.4488C25.282 24.9472 25.4492 24.4455 25.5049 23.8882C25.5607 23.6652 25.5607 23.4423 25.5607 23.2193C25.5049 19.9308 22.8853 17.3111 19.5967 17.3111C19.0393 17.3111 18.4262 17.4226 17.8689 17.5341C17.8452 17.5341 17.8316 17.5341 17.8194 17.5383C17.8031 17.5441 17.7894 17.5577 17.7574 17.5898C17.6459 17.757 17.6459 17.98 17.7574 18.0914L21.1016 21.4357C21.1574 21.4357 21.1574 21.4914 21.1574 21.4914C21.3803 21.7144 21.3803 22.1603 21.1016 22.3832L18.7607 24.7242C18.7607 24.78 18.7049 24.78 18.7049 24.78C18.482 25.0029 18.0361 25.0029 17.8131 24.7242L14.4689 21.38C14.2459 21.2127 13.9672 21.2685 13.9115 21.4914C13.6885 22.2718 13.5771 23.1078 13.6885 23.9439C14.0787 27.1767 16.9771 29.5177 20.2098 29.1275C20.7672 29.0718 21.2689 28.9603 21.7705 28.7373L29.4623 36.4291C29.9082 36.875 30.5213 37.098 31.1344 37.098Z" fill="white"/>
</g>
</svg>
