<svg width="48" height="48" viewBox="0 0 48 48" fill="none" xmlns="http://www.w3.org/2000/svg">
<rect width="48" height="48" rx="4" fill="#34BECD"/>
<mask id="mask0_1518_27690" style="mask-type:luminance" maskUnits="userSpaceOnUse" x="0" y="0" width="48" height="48">
<rect width="48" height="48" rx="4" fill="white"/>
</mask>
<g mask="url(#mask0_1518_27690)">
<path fill-rule="evenodd" clip-rule="evenodd" d="M40.4984 24.0001C40.4426 15.3608 32.9738 8.39355 23.7213 8.39355C14.4689 8.39355 7 15.3608 7 24.0001C7 26.787 7.78033 29.3509 9.11803 31.6362C9.28525 31.9149 9.34098 32.2493 9.22951 32.528L7.66885 37.4886C7.39016 38.3804 8.22623 39.1608 9.11803 38.8821L14.023 37.1542C14.3574 37.0427 14.6918 37.0985 14.9705 37.2657C17.5344 38.7706 20.5443 39.6067 23.7771 39.6067C33.0295 39.6067 40.4984 32.6395 40.4984 24.0001ZM31.5246 20.6558C31.5246 20.9903 31.3016 21.2132 30.9672 21.2132H16.4754C16.141 21.2132 15.918 20.9903 15.918 20.6558V17.3116C15.918 16.9772 16.141 16.7542 16.4754 16.7542H30.9672C31.3016 16.7542 31.5246 16.9772 31.5246 17.3116V20.6558ZM19.8197 32.3608C20.1541 32.3608 20.377 32.1378 20.377 31.8034V25.1149C20.377 24.7804 20.1541 24.5575 19.8197 24.5575H16.4754C16.141 24.5575 15.918 24.7804 15.918 25.1149V31.8034C15.918 32.1378 16.141 32.3608 16.4754 32.3608H19.8197ZM31.5246 31.8034C31.5246 32.1378 31.3016 32.3608 30.9672 32.3608H24.2787C23.9443 32.3608 23.7213 32.1378 23.7213 31.8034V25.1149C23.7213 24.7804 23.9443 24.5575 24.2787 24.5575H30.9672C31.3016 24.5575 31.5246 24.7804 31.5246 25.1149V31.8034Z" fill="white"/>
</g>
</svg>
