<svg width="40" height="40" viewBox="0 0 40 40" fill="none" xmlns="http://www.w3.org/2000/svg">
<rect width="40" height="40" rx="20" fill="#54698D"/>
<mask id="mask0_1518_28346" style="mask-type:luminance" maskUnits="userSpaceOnUse" x="0" y="0" width="40" height="40">
<rect width="40" height="40" rx="20" fill="white"/>
</mask>
<g mask="url(#mask0_1518_28346)">
<path d="M30.8 22.4004H29.36C28.976 22.4004 28.64 22.7844 28.64 23.1204V27.9204C28.64 28.3044 28.304 28.6404 27.92 28.6404H12.08C11.696 28.6404 11.36 28.3044 11.36 27.9204V23.1204C11.36 22.7844 11.024 22.4004 10.64 22.4004H9.19998C8.81598 22.4004 8.47998 22.7844 8.47998 23.1204V29.6004C8.47998 30.6564 9.34398 31.5204 10.4 31.5204H29.6C30.656 31.5204 31.52 30.6564 31.52 29.6004V23.1204C31.52 22.7844 31.184 22.4004 30.8 22.4004Z" fill="white"/>
<path d="M20.48 8.67205C20.192 8.38405 19.76 8.38405 19.472 8.67205L12.992 15.1521C12.704 15.4401 12.704 15.8721 12.992 16.1601L14 17.1681C14.288 17.4561 14.72 17.4561 15.008 17.1681L17.696 14.4801C17.984 14.1921 18.56 14.3841 18.56 14.8161V24.9921C18.56 25.3761 18.848 25.7121 19.232 25.7121H20.672C21.056 25.7121 21.44 25.3281 21.44 24.9921V14.8641C21.44 14.4321 21.92 14.2401 22.256 14.5281L24.944 17.2161C25.232 17.5041 25.664 17.5041 25.952 17.2161L26.96 16.2081C27.248 15.9201 27.248 15.4881 26.96 15.2001L20.48 8.67205Z" fill="white"/>
</g>
</svg>
