<svg width="40" height="40" viewBox="0 0 40 40" fill="none" xmlns="http://www.w3.org/2000/svg">
<rect width="40" height="40" rx="20" fill="#65CAE4"/>
<mask id="mask0_1518_28350" style="mask-type:luminance" maskUnits="userSpaceOnUse" x="0" y="0" width="40" height="40">
<rect width="40" height="40" rx="20" fill="white"/>
</mask>
<g mask="url(#mask0_1518_28350)">
<path d="M24.25 22.2998C24.5 22.1499 24.75 22.15 25 22.25C25.1 22.3 25.1998 22.3504 25.2998 22.4004C28.5998 23.8004 32 25.55 32 28.5V29.5996C32 30.8996 30.8996 32 29.5996 32H10.4004C9.10039 32 8 30.8996 8 29.5996V28.5C8 25.6001 11.3997 23.8004 14.5996 22.4004L14.9004 22.25C15.1503 22.1501 15.4005 22.1499 15.6504 22.2998C16.9503 23.1497 18.4003 23.5996 19.9502 23.5996C21.5001 23.5996 23.0001 23.0998 24.25 22.2998ZM20 8C23.2999 8 25.95 10.9498 25.9502 14.5996C25.9502 18.2496 23.3 21.2002 20 21.2002C16.7 21.2002 14.0498 18.2496 14.0498 14.5996C14.05 10.9498 16.7001 8 20 8Z" fill="white"/>
</g>
</svg>
