<svg width="26" height="26" viewBox="0 0 26 26" fill="none" xmlns="http://www.w3.org/2000/svg">
<path fill-rule="evenodd" clip-rule="evenodd" d="M24.275 11.025H7.675C7.225 11.025 7.025 10.475 7.325 10.175L12.125 5.375C12.425 5.075 12.425 4.625 12.125 4.325L11.025 3.225C10.725 2.925 10.275 2.925 9.975 3.225L1.225 12.025C0.925 12.325 0.925 12.775 1.225 13.075L9.975 21.825C10.275 22.125 10.725 22.125 11.025 21.825L12.075 20.775C12.375 20.475 12.375 20.025 12.075 19.725L7.275 14.925C6.975 14.575 7.175 14.025 7.625 14.025H24.225C24.625 14.025 24.975 13.725 24.975 13.325V11.825C24.975 11.425 24.675 11.025 24.275 11.025Z" fill="#706E6B"/>
</svg>
