<svg width="26" height="26" viewBox="0 0 26 26" fill="none" xmlns="http://www.w3.org/2000/svg">
<path fill-rule="evenodd" clip-rule="evenodd" d="M10.9722 18.5015C10.9722 17.1515 11.4222 15.6015 12.1222 14.4015C12.9722 12.9015 13.9222 12.3015 14.6722 11.2015C15.9222 9.3515 16.1722 6.7015 15.3722 4.7015C14.5722 2.6515 12.6722 1.4515 10.4722 1.5015C8.27222 1.5515 6.47222 2.9015 5.77222 4.9515C4.97222 7.2015 5.32222 9.9015 7.12222 11.6015C7.87222 12.3015 8.57222 13.4015 8.17222 14.4515C7.82222 15.4515 6.62222 15.9015 5.77222 16.3015C3.82222 17.1515 1.47222 18.3515 1.07222 20.6515C0.672217 22.5515 1.97222 24.5015 4.02222 24.5015H12.5222C12.9222 24.5015 13.1722 24.0015 12.9222 23.7015C11.6722 22.2515 10.9722 20.4015 10.9722 18.5015ZM23.2222 14.2515C20.8722 11.9015 17.0722 11.9015 14.7222 14.2515C12.3722 16.6015 12.3722 20.4015 14.7222 22.7515C17.0722 25.1015 20.8722 25.1015 23.2222 22.7515C25.5722 20.4015 25.5722 16.6015 23.2222 14.2515ZM16.1222 15.6515C17.4722 14.3015 19.4722 14.1015 21.0222 15.0515L15.5222 20.5515C14.5722 19.0015 14.7722 17.0015 16.1222 15.6515ZM21.8222 21.3515C20.4722 22.6515 18.4722 22.8515 16.9222 22.0015L22.4222 16.5015C23.3222 18.0015 23.1222 20.0015 21.8222 21.3515Z" fill="#706E6B"/>
</svg>
