<svg width="26" height="26" viewBox="0 0 26 26" fill="none" xmlns="http://www.w3.org/2000/svg">
<path fill-rule="evenodd" clip-rule="evenodd" d="M4.2 16.7375C2.15 14.6875 1 11.9375 1 9.0375C1 6.1375 2.15 3.3875 4.2 1.3375C4.65 0.8875 5.3 0.8875 5.75 1.3375C6.2 1.7875 6.2 2.4875 5.75 2.9375C4.15 4.5375 3.25 6.7375 3.25 9.0375C3.25 11.3375 4.15 13.5375 5.75 15.1375C6.2 15.5875 6.2 16.2875 5.75 16.7375C5.3 17.1875 4.65 17.1875 4.2 16.7375ZM8.95 13.5375C8.5 13.9875 7.8 13.9875 7.35 13.5375C6.15 12.3375 5.5 10.7375 5.5 9.0375C5.5 7.3375 6.15 5.7375 7.35 4.5375C7.8 4.0875 8.5 4.0875 8.95 4.5375C9.4 4.9875 9.4 5.6875 8.95 6.1375C8.15 6.9375 7.75 7.9375 7.75 9.0375C7.75 10.1375 8.2 11.1875 8.95 11.9375C9.4 12.3875 9.4 13.0875 8.95 13.5375ZM20.15 1.3375C20.6 0.8875 21.3 0.8875 21.75 1.3375C23.8 3.3875 24.95 6.1375 24.95 9.0375C24.95 11.9375 23.8 14.6875 21.75 16.7375C21.3 17.1875 20.6 17.1875 20.15 16.7375C19.7 16.2875 19.7 15.5875 20.15 15.1375C21.8 13.5375 22.7 11.3375 22.7 9.0375C22.7 6.7375 21.75 4.5375 20.15 2.9375C19.7 2.4875 19.7 1.7875 20.15 1.3375ZM20.45 9.0375C20.4 7.3375 19.75 5.7375 18.55 4.5375C18.1 4.0875 17.45 4.0875 17 4.5375C16.55 4.9875 16.55 5.6875 17 6.1375C17.75 6.9375 18.2 7.9375 18.2 9.0375C18.2 10.1375 17.75 11.1875 17 11.9375C16.55 12.3875 16.55 13.0875 17 13.5375C17.45 13.9875 18.1 13.9875 18.55 13.5375C19.75 12.3375 20.4 10.7375 20.4 9.0375H20.45ZM10.05 8.9875C10.05 10.2375 10.75 11.2875 11.85 11.7375V13.0375V23.4875C11.85 23.7875 12.1 24.0375 12.4 24.0375H13.5C13.8 24.0875 14.1 23.7875 14.1 23.4875V13.0875V11.6875C15.15 11.2375 15.9 10.2375 15.9 8.9875C15.9 7.3875 14.55 6.0875 12.95 6.0875C11.35 6.0875 10.05 7.3875 10.05 8.9875Z" fill="#706E6B"/>
</svg>
