<svg width="26" height="26" viewBox="0 0 26 26" fill="none" xmlns="http://www.w3.org/2000/svg">
<path fill-rule="evenodd" clip-rule="evenodd" d="M25 5.5C25 2.4 20.1 1 15.5 1C10.9 1 6 2.4 6 5.5V5.7C1.7 7 1 9.75 1 11.3C1 12.8 1.75 14.35 3.05 15.45C4.2 16.4 5.6 16.95 7 17H7.4C10.65 16.9 13.85 15.85 14.75 14.05C14.3 13.7 14 13.1 14 12.5C14 11.4 14.9 10.5 16 10.5C17.1 10.5 18 11.4 18 12.5C18 13.35 17.5 14.05 16.75 14.35C15.75 17.15 11.75 19 7 19V22C7 23.65 10.8 25 15.5 25C20.2 25 24 23.65 24 22V7.65C24.65 7.05 25 6.35 25 5.5ZM15.5 4C18.8 4 20.9 4.75 21.7 5.3C21.85 5.4 21.85 5.6 21.7 5.7C20.9 6.25 18.8 7 15.5 7C12.2 7 10.1 6.25 9.3 5.7C9.15 5.6 9.15 5.4 9.3 5.3C10.1 4.75 12.2 4 15.5 4ZM4.35 13.9C3.5 13.2 3 12.25 3 11.3C3 9.05 5.05 8 6.85 7.55L7 7.7V15C6.05 14.95 5.1 14.55 4.35 13.9Z" fill="#706E6B"/>
</svg>
