<svg width="26" height="26" viewBox="0 0 26 26" fill="none" xmlns="http://www.w3.org/2000/svg">
<path fill-rule="evenodd" clip-rule="evenodd" d="M5.75 8.5H1.75C1.35 8.5 1 8.85 1 9.25V22C1 23.1 1.9 24 3 24H5.75C6.15 24 6.5 23.65 6.5 23.25V9.25C6.5 8.85 6.15 8.5 5.75 8.5ZM24.25 8.5H9.25C8.85 8.5 8.5 8.85 8.5 9.25V23.25C8.5 23.65 8.85 24 9.25 24H23C24.1 24 25 23.1 25 22V9.25C25 8.85 24.65 8.5 24.25 8.5ZM23 2H3C1.9 2 1 2.9 1 4V5.75C1 6.15 1.35 6.5 1.75 6.5H24.25C24.65 6.5 25 6.15 25 5.75V4C25 2.9 24.1 2 23 2Z" fill="#706E6B"/>
</svg>
