<svg width="26" height="26" viewBox="0 0 26 26" fill="none" xmlns="http://www.w3.org/2000/svg">
<path d="M6.2154 13.8776C6.2154 13.6468 6.30771 13.3699 6.76925 13.4622L11.7077 15.1237C12.4923 15.4007 13.2769 15.4007 14.1077 15.1237C15.7231 14.5699 17.4308 14.0622 19.0462 13.5084C19.2308 13.4622 19.6923 13.3699 19.6923 14.016C19.6923 15.1699 19.6923 16.3237 19.6462 17.4314C19.6923 17.7545 19.6 17.9853 19.3692 18.216C19.0462 18.5853 18.5846 18.816 18.1231 19.0468C17.0616 19.5084 15.9077 19.8314 14.7539 19.9699C12.9539 20.2007 11.2 20.1084 9.44617 19.6468C8.56925 19.416 7.69233 19.093 6.95386 18.5853C6.86156 18.493 6.7231 18.4007 6.63079 18.3084C6.35386 18.0314 6.2154 17.8007 6.2154 17.3853V13.8776ZM22.8308 12.2622C22.9231 12.216 23.1077 12.1699 23.1077 12.4007V15.816C23.1077 15.9084 23.1077 16.093 23.2 16.1853C23.4769 16.7391 23.7539 17.293 23.8923 17.9391C23.9846 18.3545 23.9385 18.816 23.6616 19.1853C23.5693 19.3237 23.4308 19.416 23.3385 19.5084C23.1077 19.693 22.8308 19.8776 22.5077 19.8314C22.3231 19.7853 22.0923 19.7391 21.9539 19.6007C21.8154 19.5084 21.6308 19.3699 21.5385 19.2314C21.1693 18.8622 21.0769 18.3084 21.2616 17.8007C21.4462 17.2468 21.6769 16.693 21.9077 16.1391C21.9539 16.0468 22 15.9084 22 15.816V12.6776C22 12.493 22.0462 12.4468 22.1846 12.4007L22.8308 12.2622ZM14.1077 6.21605C17.2 7.13912 20.2923 8.0622 23.3846 8.98528C23.5693 9.07758 23.7539 9.12374 23.9385 9.2622C24.1693 9.40066 24.1693 9.63143 23.9385 9.76989C23.8 9.8622 23.6616 9.95451 23.4769 10.0007C20.3846 11.016 17.2923 12.0776 14.1539 13.093C13.7385 13.2776 13.3692 13.3237 12.9077 13.3237C12.3539 13.3699 11.8462 13.1391 11.2923 12.9545C8.38463 11.9853 5.43079 11.016 2.5231 10.0468C2.33848 9.95451 2.20002 9.90835 2.06156 9.76989C1.87694 9.63143 1.87694 9.44682 2.06156 9.30835C2.20002 9.21605 2.38463 9.07758 2.56925 9.03143C5.70771 8.10835 8.80002 7.18528 11.9385 6.21605C12.6308 5.98528 13.3693 5.98528 14.1077 6.21605Z" fill="#706E6B"/>
</svg>
