<svg width="26" height="26" viewBox="0 0 26 26" fill="none" xmlns="http://www.w3.org/2000/svg">
<path fill-rule="evenodd" clip-rule="evenodd" d="M25.1 13.05C25.1 19.7 19.7 25.1 13.05 25.1C6.4 25.1 1 19.7 1 13.05C1 6.4 6.4 1 13.05 1C19.7 1 25.1 6.4 25.1 13.05ZM9.2 7.95C8 7.95 7.05 8.9 7.05 10.1C7.05 11.3 8 12.25 9.2 12.25C10.4 12.25 11.35 11.3 11.35 10.1C11.35 8.9 10.4 7.95 9.2 7.95ZM16.95 7.95C15.75 7.95 14.8 8.9 14.8 10.1C14.8 11.3 15.75 12.25 16.95 12.25C18.15 12.25 19.1 11.3 19.1 10.1C19.1 8.9 18.15 7.95 16.95 7.95ZM16.85 16.3C15.85 17.2 14.5 17.7 13.05 17.7C11.65 17.7 10.35 17.2 9.3 16.35L8.85 15.95C8.7 15.85 8.6 15.8 8.3 15.8C7.75 15.8 7.35 16.25 7.35 16.75C7.35 17 7.45 17.25 7.65 17.45L8 17.75C9.35 18.95 11.15 19.65 13.05 19.65C15 19.65 16.8 18.9 18.15 17.7L18.4 17.45C18.6 17.25 18.7 17 18.7 16.75C18.7 16.2 18.25 15.8 17.75 15.8C17.5 15.8 17.3 15.9 17.15 16L16.85 16.3Z" fill="#706E6B"/>
</svg>
