<svg width="26" height="26" viewBox="0 0 26 26" fill="none" xmlns="http://www.w3.org/2000/svg">
<path fill-rule="evenodd" clip-rule="evenodd" d="M24.35 2.78459L23.3 1.73459C23 1.43459 22.45 1.48459 22.1 1.88459L10.35 13.6346L7.85 10.8346C7.55 10.5346 7.55 10.1346 7.75 9.78459L9.65 7.18459C10.2 6.48459 10.15 5.48459 9.6 4.78459L7.15 1.73459C6.4 0.834591 5.05 0.734591 4.2 1.58459L1.6 4.18459C1.2 4.58459 1 5.13459 1 5.68459C1.25 10.2846 3.1 14.6846 6 17.9846L2 21.9846C1.65 22.3346 1.6 22.8846 1.85 23.1846L2.9 24.2346C3.2 24.5346 3.75 24.4846 4.1 24.0846L24.2 3.98459C24.6 3.63459 24.65 3.08459 24.35 2.78459ZM24.35 18.9346L21.3 16.4846C20.6 15.9346 19.6 15.8846 18.9 16.4346L16.3 18.3346C16 18.5846 15.55 18.5346 15.25 18.2346L14.05 17.1346L9.8 21.3846C12.85 23.4346 16.5 24.7846 20.3 24.9846C20.85 25.0346 21.4 24.7846 21.8 24.3846L24.4 21.7846C25.35 21.0346 25.3 19.6346 24.35 18.9346Z" fill="#706E6B"/>
</svg>
