<svg width="26" height="26" viewBox="0 0 26 26" fill="none" xmlns="http://www.w3.org/2000/svg">
<path fill-rule="evenodd" clip-rule="evenodd" d="M23.25 10H2.75C2.35 10 2 10.35 2 10.75V23C2 24.1 2.9 25 4 25H22C23.1 25 24 24.1 24 23V10.75C24 10.35 23.65 10 23.25 10ZM9.5 21C9.5 21.3 9.3 21.5 9 21.5H7C6.7 21.5 6.5 21.3 6.5 21V19C6.5 18.7 6.7 18.5 7 18.5H9C9.3 18.5 9.5 18.7 9.5 19V21ZM9.5 16C9.5 16.3 9.3 16.5 9 16.5H7C6.7 16.5 6.5 16.3 6.5 16V14C6.5 13.7 6.7 13.5 7 13.5H9C9.3 13.5 9.5 13.7 9.5 14V16ZM14.5 21C14.5 21.3 14.3 21.5 14 21.5H12C11.7 21.5 11.5 21.3 11.5 21V19C11.5 18.7 11.7 18.5 12 18.5H14C14.3 18.5 14.5 18.7 14.5 19V21ZM14.5 16C14.5 16.3 14.3 16.5 14 16.5H12C11.7 16.5 11.5 16.3 11.5 16V14C11.5 13.7 11.7 13.5 12 13.5H14C14.3 13.5 14.5 13.7 14.5 14V16ZM19.5 21C19.5 21.3 19.3 21.5 19 21.5H17C16.7 21.5 16.5 21.3 16.5 21V19C16.5 18.7 16.7 18.5 17 18.5H19C19.3 18.5 19.5 18.7 19.5 19V21ZM19.5 16C19.5 16.3 19.3 16.5 19 16.5H17C16.7 16.5 16.5 16.3 16.5 16V14C16.5 13.7 16.7 13.5 17 13.5H19C19.3 13.5 19.5 13.7 19.5 14V16ZM22 3.5H19.5V2.5C19.5 1.7 18.85 1 18 1C17.2 1 16.5 1.65 16.5 2.5V3.5H9.5V2.5C9.5 1.7 8.85 1 8 1C7.2 1 6.5 1.65 6.5 2.5V3.5H4C2.9 3.5 2 4.4 2 5.5V6.75C2 7.15 2.35 7.5 2.75 7.5H23.25C23.65 7.5 24 7.15 24 6.75V5.5C24 4.4 23.1 3.5 22 3.5Z" fill="#706E6B"/>
</svg>
