<svg width="40" height="40" viewBox="0 0 40 40" fill="none" xmlns="http://www.w3.org/2000/svg">
<rect width="40" height="40" rx="20" fill="#54698D"/>
<mask id="mask0_1518_28312" style="mask-type:luminance" maskUnits="userSpaceOnUse" x="0" y="0" width="40" height="40">
<rect width="40" height="40" rx="20" fill="white"/>
</mask>
<g mask="url(#mask0_1518_28312)">
<path fill-rule="evenodd" clip-rule="evenodd" d="M15.1021 18.7756H27.8368C28.9143 18.7756 29.7959 19.6572 29.7959 20.7347V30.0409C29.7959 31.1184 28.9143 32.0001 27.8368 32.0001H12.1633C11.0857 32.0001 10.2041 31.1184 10.2041 30.0409V20.7347C10.2041 19.6572 11.0857 18.7756 12.1633 18.7756V16.5225V16.3756C12.2612 12.2613 15.4449 8.68577 19.6082 8.48985C23.5755 8.29393 26.9061 11.0368 27.6898 14.7592C27.7388 15.0531 27.4939 15.347 27.2 15.347H25.1919C24.947 15.347 24.751 15.1511 24.7021 14.9552C24.0653 12.8001 22.0572 11.2817 19.6572 11.4286C17.0612 11.5756 15.1021 13.8776 15.1021 16.4735V18.7756ZM21.7633 29.0613C22.1061 29.0613 22.351 28.7184 22.2531 28.4245L21.4204 25.4858C22.0572 25.0939 22.449 24.3592 22.449 23.5756C22.449 22.1062 21.0776 20.9796 19.5102 21.2735C18.5306 21.4694 17.7959 22.2041 17.6 23.1347C17.4041 24.1143 17.8449 24.996 18.5796 25.4858L17.698 28.4245C17.6 28.7674 17.8449 29.0613 18.1878 29.0613H21.7633Z" fill="white"/>
</g>
</svg>
