<svg width="40" height="40" viewBox="0 0 40 40" fill="none" xmlns="http://www.w3.org/2000/svg">
<rect width="40" height="40" rx="20" fill="#7F8DE1"/>
<mask id="mask0_1518_28314" style="mask-type:luminance" maskUnits="userSpaceOnUse" x="0" y="0" width="40" height="40">
<rect width="40" height="40" rx="20" fill="white"/>
</mask>
<g mask="url(#mask0_1518_28314)">
<path fill-rule="evenodd" clip-rule="evenodd" d="M20 12.4443C25.0222 12.4443 29.3778 15.3777 31.4667 19.5999C31.6 19.8666 31.6 20.1332 31.4667 20.3999C29.3778 24.6221 25.0222 27.5554 20 27.5554C14.9778 27.5554 10.6222 24.6221 8.53335 20.3999C8.40002 20.1777 8.40002 19.8666 8.53335 19.5999C10.6222 15.3777 14.9778 12.4443 20 12.4443ZM15.1111 19.9999C15.1111 22.711 17.2889 24.8888 20 24.8888C22.7111 24.8888 24.8889 22.711 24.8889 19.9999C24.8889 17.2888 22.7111 15.111 20 15.111C17.2889 15.111 15.1111 17.2888 15.1111 19.9999Z" fill="white"/>
<path d="M20 16.8887C18.2667 16.8887 16.8889 18.2664 16.8889 19.9998C16.8889 21.7331 18.2667 23.1109 20 23.1109C21.7334 23.1109 23.1111 21.7331 23.1111 19.9998C23.1111 18.2664 21.7334 16.8887 20 16.8887Z" fill="white"/>
</g>
</svg>
