<svg width="48" height="48" viewBox="0 0 48 48" fill="none" xmlns="http://www.w3.org/2000/svg">
<rect width="48" height="48" rx="4" fill="#6CA1E9"/>
<mask id="mask0_1518_27778" style="mask-type:luminance" maskUnits="userSpaceOnUse" x="0" y="0" width="48" height="48">
<rect width="48" height="48" rx="4" fill="white"/>
</mask>
<g mask="url(#mask0_1518_27778)">
<path d="M14.0698 22.6514C14.0158 23.0291 14.0158 23.353 14.0158 23.7307H10.7777C10.7777 23.353 10.7777 23.0291 10.8317 22.6514H14.0698Z" fill="white"/>
<path d="M26.6983 16.1748H25.0793C24.6476 16.1748 24.2698 16.5526 24.2698 16.9843V24.0542C24.2698 24.27 24.3777 24.4859 24.4856 24.6478L29.019 29.1812C29.3428 29.505 29.8285 29.505 30.1523 29.1812L31.2856 28.0478C31.6095 27.724 31.6095 27.2383 31.2856 26.9145L27.5079 23.0827V16.9843C27.5079 16.5526 27.1301 16.1748 26.6983 16.1748Z" fill="white"/>
<path d="M25.8888 8.61914C17.9015 8.61914 11.3714 14.8255 10.8317 22.6509C10.8317 22.8128 10.7777 23.0287 10.7777 23.1906H8.34916C7.64758 23.1906 7.2698 24.0001 7.70154 24.4858L11.7492 29.3969C12.073 29.7747 12.6666 29.7747 12.9904 29.3969L17.0381 24.4858C17.4698 23.9461 17.092 23.1906 16.3904 23.1906H14.0158C14.0158 23.0287 14.0158 22.8128 14.0158 22.6509C14.5555 16.6064 19.6825 11.8572 25.8349 11.8572C32.8507 11.8572 38.4095 17.9556 37.6539 25.0795C37.1142 30.2064 32.2571 35.0636 27.0761 35.5493C23.2444 35.9271 19.6285 34.5239 17.092 31.7715C16.7682 31.3937 16.3365 31.1779 15.9047 31.7176L14.6095 33.2826C14.3396 33.6064 14.5555 33.8223 14.8254 34.0922C17.7396 37.1683 21.7333 38.8953 26.0507 38.8414C33.8222 38.7334 40.3523 32.581 40.892 24.8096C41.5936 16.0128 34.5777 8.61914 25.8888 8.61914Z" fill="white"/>
</g>
</svg>
