<svg width="48" height="48" viewBox="0 0 48 48" fill="none" xmlns="http://www.w3.org/2000/svg">
<rect width="48" height="48" rx="4" fill="#EB7092"/>
<mask id="mask0_1518_27782" style="mask-type:luminance" maskUnits="userSpaceOnUse" x="0" y="0" width="48" height="48">
<rect width="48" height="48" rx="4" fill="white"/>
</mask>
<g mask="url(#mask0_1518_27782)">
<path d="M17.7666 13.8H30.2333C30.8566 13.8 31.3666 13.29 31.3666 12.6667V10.4C31.3666 8.53 29.8366 7 27.9666 7H20.0333C18.1633 7 16.6333 8.53 16.6333 10.4V12.6667C16.6333 13.29 17.1433 13.8 17.7666 13.8Z" fill="white"/>
<path fill-rule="evenodd" clip-rule="evenodd" d="M36.4666 9.83301H35.3333C34.9933 9.83301 34.7666 10.0597 34.7666 10.3997V12.6663C34.7666 15.1597 32.7266 17.1997 30.2333 17.1997H17.7666C15.2733 17.1997 13.2333 15.1597 13.2333 12.6663V10.3997C13.2333 10.0597 13.0066 9.83301 12.6666 9.83301H11.5333C9.6633 9.83301 8.1333 11.363 8.1333 13.233V37.5997C8.1333 39.4697 9.6633 40.9997 11.5333 40.9997H36.4666C38.3366 40.9997 39.8666 39.4697 39.8666 37.5997V13.233C39.8666 11.363 38.3366 9.83301 36.4666 9.83301ZM29.8933 35.673C29.8933 36.6363 29.1566 37.4297 28.1366 37.4297H19.8633C18.9 37.4297 18.1066 36.693 18.1066 35.673V28.3063C18.1066 28.023 18.3333 27.7963 18.6166 27.7963H29.3833C29.6666 27.7963 29.8933 28.023 29.8933 28.3063V35.673ZM30.7433 25.5863C31.0266 25.5863 31.2533 25.3597 31.2533 25.0763H31.1966V24.0563C31.1966 23.773 30.97 23.5463 30.6866 23.5463H26.38V22.1863C26.38 21.4497 25.7566 20.8263 25.02 20.8263H22.9233C22.1866 20.8263 21.5633 21.4497 21.5633 22.1863V23.5463H17.2566C16.9733 23.5463 16.7466 23.773 16.7466 24.0563V25.0763C16.7466 25.3597 16.9733 25.5863 17.2566 25.5863H30.7433Z" fill="white"/>
<path d="M22.64 30.2334H21.96C21.7333 30.2334 21.62 30.3467 21.62 30.5734V34.5967C21.62 34.8234 21.7333 34.9367 21.96 34.9367H22.64C22.8667 34.9367 22.98 34.8234 22.98 34.5967V30.5734C22.98 30.3467 22.81 30.2334 22.64 30.2334Z" fill="white"/>
<path d="M26.0967 30.2334H25.4167C25.19 30.2334 25.0767 30.3467 25.0767 30.5734V34.5967C25.0767 34.8234 25.19 34.9367 25.4167 34.9367H26.0967C26.3233 34.9367 26.4367 34.8234 26.4367 34.5967V30.5734C26.4367 30.3467 26.2667 30.2334 26.0967 30.2334Z" fill="white"/>
<path d="M24.68 22.1299H23.32C23.0933 22.1299 22.98 22.2432 22.98 22.4699V23.4899H25.0766V22.4699C25.02 22.2432 24.9066 22.1299 24.68 22.1299Z" fill="white"/>
</g>
</svg>
