<svg width="48" height="48" viewBox="0 0 48 48" fill="none" xmlns="http://www.w3.org/2000/svg">
<rect width="48" height="48" rx="4" fill="#EB7092"/>
<mask id="mask0_1518_27786" style="mask-type:luminance" maskUnits="userSpaceOnUse" x="0" y="0" width="48" height="48">
<rect width="48" height="48" rx="4" fill="white"/>
</mask>
<g mask="url(#mask0_1518_27786)">
<path d="M17.7666 13.8H30.2333C30.8566 13.8 31.3666 13.29 31.3666 12.6667V10.4C31.3666 8.53 29.8366 7 27.9666 7H20.0333C18.1633 7 16.6333 8.53 16.6333 10.4V12.6667C16.6333 13.29 17.1433 13.8 17.7666 13.8Z" fill="white"/>
<path fill-rule="evenodd" clip-rule="evenodd" d="M36.4666 9.83301H35.3333C34.9933 9.83301 34.7666 10.0597 34.7666 10.3997V12.6663C34.7666 15.1597 32.7266 17.1997 30.2333 17.1997H17.7666C15.2733 17.1997 13.2333 15.1597 13.2333 12.6663V10.3997C13.2333 10.0597 13.0066 9.83301 12.6666 9.83301H11.5333C9.6633 9.83301 8.1333 11.363 8.1333 13.233V37.5997C8.1333 39.4697 9.6633 40.9997 11.5333 40.9997H36.4666C38.3366 40.9997 39.8666 39.4697 39.8666 37.5997V13.233C39.8666 11.363 38.3366 9.83301 36.4666 9.83301ZM29.6666 27.1163L20.6 36.183H20.6566L16.69 37.3163C16.2933 37.4297 15.9533 37.033 16.0666 36.6363L17.2 32.7263L26.2666 23.6597C26.38 23.5463 26.6066 23.5463 26.7766 23.6597L29.6666 26.663C29.78 26.7763 29.78 27.003 29.6666 27.1163ZM31.14 25.643L32.2733 24.5097C32.84 23.943 32.84 23.093 32.2166 22.5263L30.7433 21.053C30.1766 20.4863 29.3266 20.4863 28.8166 21.053L27.6833 22.1863C27.57 22.3563 27.57 22.583 27.6833 22.6963L30.63 25.643C30.8 25.7563 31.0266 25.7563 31.14 25.643Z" fill="white"/>
</g>
</svg>
