<svg width="48" height="48" viewBox="0 0 48 48" fill="none" xmlns="http://www.w3.org/2000/svg">
<rect width="48" height="48" rx="4" fill="#EB7092"/>
<mask id="mask0_1518_27780" style="mask-type:luminance" maskUnits="userSpaceOnUse" x="0" y="0" width="48" height="48">
<rect width="48" height="48" rx="4" fill="white"/>
</mask>
<g mask="url(#mask0_1518_27780)">
<path d="M17.7666 13.8H30.2333C30.8566 13.8 31.3666 13.29 31.3666 12.6667V10.4C31.3666 8.53 29.8366 7 27.9666 7H20.0333C18.1633 7 16.6333 8.53 16.6333 10.4V12.6667C16.6333 13.29 17.1433 13.8 17.7666 13.8Z" fill="white"/>
<path fill-rule="evenodd" clip-rule="evenodd" d="M35.3333 9.83301H36.4666C38.3366 9.83301 39.8666 11.363 39.8666 13.233V37.5997C39.8666 39.4697 38.3366 40.9997 36.4666 40.9997H11.5333C9.6633 40.9997 8.1333 39.4697 8.1333 37.5997V13.233C8.1333 11.363 9.6633 9.83301 11.5333 9.83301H12.6666C13.0066 9.83301 13.2333 10.0597 13.2333 10.3997V12.6663C13.2333 15.1597 15.2733 17.1997 17.7666 17.1997H30.2333C32.7266 17.1997 34.7666 15.1597 34.7666 12.6663V10.3997C34.7666 10.0597 34.9933 9.83301 35.3333 9.83301ZM31.7633 30.3463C32.0466 30.3463 32.33 30.063 32.33 29.7797V28.6463C32.33 28.363 32.0466 28.0797 31.7633 28.0797H25.53C25.3033 28.0797 25.1333 27.9097 25.1333 27.683V21.4497C25.1333 21.1663 24.85 20.883 24.5666 20.883H23.4333C23.15 20.883 22.8666 21.1663 22.8666 21.4497V27.683C22.8666 27.9097 22.6966 28.0797 22.47 28.0797H16.2366C15.9533 28.0797 15.67 28.363 15.67 28.6463V29.7797C15.67 30.063 15.9533 30.3463 16.2366 30.3463H22.47C22.6966 30.3463 22.8666 30.5163 22.8666 30.743V36.9763C22.8666 37.2597 23.15 37.543 23.4333 37.543H24.5666C24.85 37.543 25.1333 37.2597 25.1333 36.9763V30.743C25.1333 30.5163 25.3033 30.3463 25.53 30.3463H31.7633Z" fill="white"/>
</g>
</svg>
