<svg width="48" height="48" viewBox="0 0 48 48" fill="none" xmlns="http://www.w3.org/2000/svg">
<g clip-path="url(#clip0_1518_27974)">
<mask id="mask0_1518_27974" style="mask-type:alpha" maskUnits="userSpaceOnUse" x="0" y="0" width="48" height="48">
<path d="M44 0H4C1.79086 0 0 1.79086 0 4V44C0 46.2091 1.79086 48 4 48H44C46.2091 48 48 46.2091 48 44V4C48 1.79086 46.2091 0 44 0Z" fill="white"/>
</mask>
<g mask="url(#mask0_1518_27974)">
<path d="M44 0H4C1.79086 0 0 1.79086 0 4V44C0 46.2091 1.79086 48 4 48H44C46.2091 48 48 46.2091 48 44V4C48 1.79086 46.2091 0 44 0Z" fill="#F88965"/>
<path d="M23.5541 24.7811C23.3507 24.8215 23.1865 24.9716 23.128 25.1705C23.0695 25.3695 23.1263 25.5845 23.2754 25.7287L26.341 28.85C26.5012 29.0025 26.5918 29.214 26.5918 29.4352C26.5918 29.6564 26.5012 29.8679 26.341 30.0205L25.1705 31.191C25.018 31.3511 24.8065 31.4418 24.5853 31.4418C24.3641 31.4418 24.1526 31.3511 24 31.191L16.4754 23.6664C16.3153 23.5138 16.2246 23.3023 16.2246 23.0811C16.2246 22.8599 16.3153 22.6484 16.4754 22.4959L24 14.9713C24.1526 14.8111 24.3641 14.7205 24.5853 14.7205C24.8065 14.7205 25.018 14.8111 25.1705 14.9713L26.341 16.1975C26.5012 16.3501 26.5918 16.5616 26.5918 16.7828C26.5918 17.0039 26.5012 17.2155 26.341 17.368L23.2197 20.4893C22.8853 20.8237 23.4984 21.4369 23.4984 21.4369C30.2868 21.557 36.1649 26.182 37.8787 32.7516C39.78 30.2501 40.8167 27.1985 40.8328 24.0565C40.7771 15.4172 33.3082 8.61719 24.0558 8.61719C14.8033 8.61719 7.33445 15.4729 7.33445 23.8893C7.36485 26.4904 8.05528 29.0411 9.34101 31.3024C9.56199 31.6506 9.62288 32.0768 9.50822 32.4729L7.33445 38.4369C7.24281 38.6909 7.30622 38.975 7.49718 39.1659C7.68813 39.3569 7.97223 39.4203 8.22625 39.3287L14.2459 37.0434C14.6403 36.908 15.0757 36.9702 15.4164 37.2106C18.0973 38.6833 21.1085 39.4505 24.1672 39.4402C28.1188 39.4125 31.9466 38.0581 35.0361 35.5942C34.4129 29.6447 29.5303 25.0466 23.5541 24.7811Z" fill="white"/>
</g>
</g>
<defs>
<clipPath id="clip0_1518_27974">
<rect width="48" height="48" fill="white"/>
</clipPath>
</defs>
</svg>
