<svg width="48" height="48" viewBox="0 0 48 48" fill="none" xmlns="http://www.w3.org/2000/svg">
<rect width="48" height="48" rx="4" fill="#2ECBBE"/>
<mask id="mask0_1518_27792" style="mask-type:luminance" maskUnits="userSpaceOnUse" x="0" y="0" width="48" height="48">
<rect width="48" height="48" rx="4" fill="white"/>
</mask>
<g mask="url(#mask0_1518_27792)">
<path d="M17.7666 13.8H30.2333C30.8566 13.8 31.3666 13.29 31.3666 12.6667V10.4C31.3666 8.53 29.8366 7 27.9666 7H20.0333C18.1633 7 16.6333 8.53 16.6333 10.4V12.6667C16.6333 13.29 17.1433 13.8 17.7666 13.8Z" fill="white"/>
<path fill-rule="evenodd" clip-rule="evenodd" d="M35.3333 9.83301H36.4666C38.3366 9.83301 39.8666 11.363 39.8666 13.233V37.5997C39.8666 39.4697 38.3366 40.9997 36.4666 40.9997H11.5333C9.6633 40.9997 8.1333 39.4697 8.1333 37.5997V13.233C8.1333 11.363 9.6633 9.83301 11.5333 9.83301H12.6666C13.0066 9.83301 13.2333 10.0597 13.2333 10.3997V12.6663C13.2333 15.1597 15.2733 17.1997 17.7666 17.1997H30.2333C32.7266 17.1997 34.7666 15.1597 34.7666 12.6663V10.3997C34.7666 10.0597 34.9933 9.83301 35.3333 9.83301ZM18.9 34.1997C19.5233 34.1997 20.0333 33.6897 20.0333 33.0663V27.3997C20.0333 26.7763 19.5233 26.2663 18.9 26.2663H17.7666C17.1433 26.2663 16.6333 26.7763 16.6333 27.3997V33.0663C16.6333 33.6897 17.1433 34.1997 17.7666 34.1997H18.9ZM25.7 33.0663C25.7 33.6897 25.19 34.1997 24.5666 34.1997H23.4333C22.81 34.1997 22.3 33.6897 22.3 33.0663V22.2997C22.3 21.6763 22.81 21.1663 23.4333 21.1663H24.5666C25.19 21.1663 25.7 21.6763 25.7 22.2997V33.0663ZM30.2333 34.1997C30.8566 34.1997 31.3666 33.6897 31.3666 33.0663V24.5663C31.3666 23.943 30.8566 23.433 30.2333 23.433H29.1C28.4766 23.433 27.9666 23.943 27.9666 24.5663V33.0663C27.9666 33.6897 28.4766 34.1997 29.1 34.1997H30.2333Z" fill="white"/>
</g>
</svg>
