<svg width="48" height="48" viewBox="0 0 48 48" fill="none" xmlns="http://www.w3.org/2000/svg">
<rect width="48" height="48" rx="4" fill="#45C173"/>
<mask id="mask0_1518_27800" style="mask-type:luminance" maskUnits="userSpaceOnUse" x="0" y="0" width="48" height="48">
<rect width="48" height="48" rx="4" fill="white"/>
</mask>
<g mask="url(#mask0_1518_27800)">
<path fill-rule="evenodd" clip-rule="evenodd" d="M20.6273 21.499C20.6273 23.3268 22.109 24.8085 23.9368 24.8085C25.7646 24.8085 27.2464 23.3268 27.2464 21.499C27.2464 19.6712 25.7646 18.1895 23.9368 18.1895C22.109 18.1895 20.6273 19.6712 20.6273 21.499Z" fill="white"/>
<path fill-rule="evenodd" clip-rule="evenodd" d="M23.9506 7.54838C18.3111 7.49957 13.1987 10.8562 11.0016 16.0503C8.80441 21.2444 9.95614 27.2508 13.9187 31.2638C17.8814 35.2768 23.8728 36.5043 29.0942 34.3729C34.3156 32.2415 37.7366 27.1719 37.759 21.5322C37.759 13.97 31.5951 7.54838 23.9506 7.54838ZM33.0428 26.0235L32.4067 27.0819C32.1423 27.4695 31.7076 27.7062 31.2387 27.7181C31.0751 27.7088 30.9141 27.6736 30.7616 27.6139L29.0122 26.9229C28.2645 27.5707 27.3986 28.0679 26.4622 28.3871L26.1441 30.3503C26.0189 30.985 25.464 31.4437 24.817 31.4471H23.4954C22.8485 31.4437 22.2935 30.985 22.1683 30.3503L21.8503 28.3871C20.9475 28.1088 20.1152 27.6393 19.4099 27.0106L17.5564 27.7016C17.4039 27.7614 17.2428 27.7966 17.0793 27.8058C16.5959 27.7957 16.1529 27.5336 15.9112 27.1148L15.2751 26.0181C14.9474 25.4523 15.0826 24.7319 15.5932 24.3235L17.1287 23.0513C17.0263 22.581 16.973 22.1013 16.9696 21.62C16.9733 21.1568 17.0266 20.6953 17.1287 20.2435L15.5932 18.9713C15.0783 18.5655 14.9424 17.8417 15.2751 17.2768L15.9112 16.18C16.1427 15.7512 16.5921 15.4854 17.0793 15.489C17.2428 15.4983 17.4039 15.5334 17.5564 15.5932L19.4099 16.2842C20.1263 15.6581 20.9542 15.1726 21.8503 14.8529L22.1683 12.9993C22.2715 12.3563 22.8454 11.8962 23.4954 11.9355H24.8225C25.4543 11.8948 26.0199 12.3248 26.1496 12.9445L26.4677 14.8529C27.361 15.1528 28.1892 15.6199 28.908 16.2293L30.7616 15.5384C30.9141 15.4786 31.0751 15.4434 31.2387 15.4342C31.7221 15.4443 32.1651 15.7063 32.4067 16.1252L33.0428 17.2219C33.3432 17.7921 33.2115 18.494 32.7248 18.9164L31.1893 20.1887C31.2945 20.6585 31.3478 21.1385 31.3483 21.62C31.3447 22.0832 31.2914 22.5446 31.1893 22.9964L32.7248 24.2687C33.2446 24.6978 33.379 25.4393 33.0428 26.0235Z" fill="white"/>
<path fill-rule="evenodd" clip-rule="evenodd" d="M10.8387 31.793H10.1422C8.71002 31.799 7.55134 32.9601 7.54834 34.3923V37.8526C7.54834 39.2861 8.70877 40.449 10.1422 40.452H37.8577C39.2899 40.446 40.4486 39.2848 40.4516 37.8526V34.3923C40.4516 32.9589 39.2911 31.796 37.8577 31.793H37.0132C33.8823 35.8459 29.05 38.2192 23.9287 38.2192C18.8073 38.2192 13.975 35.8459 10.8441 31.793L10.8387 31.793Z" fill="white"/>
</g>
</svg>
