<svg width="48" height="48" viewBox="0 0 48 48" fill="none" xmlns="http://www.w3.org/2000/svg">
<rect width="48" height="48" rx="4" fill="#45C173"/>
<mask id="mask0_1518_27798" style="mask-type:luminance" maskUnits="userSpaceOnUse" x="0" y="0" width="48" height="48">
<rect width="48" height="48" rx="4" fill="white"/>
</mask>
<g mask="url(#mask0_1518_27798)">
<path fill-rule="evenodd" clip-rule="evenodd" d="M23.9506 7.54838C18.3111 7.49957 13.1987 10.8562 11.0016 16.0503C8.80441 21.2444 9.95614 27.2508 13.9187 31.2638C17.8814 35.2768 23.8728 36.5043 29.0942 34.3729C34.3156 32.2415 37.7366 27.1719 37.759 21.5322C37.759 13.97 31.5951 7.54838 23.9506 7.54838ZM18.0993 27.241C18.0209 28.0761 17.291 28.6966 16.4541 28.6393H15.4122C15.091 28.6551 14.816 28.4117 14.7925 28.091V20.0681C14.816 19.7473 15.091 19.5039 15.4122 19.5197H17.4796C17.8008 19.5039 18.0759 19.7473 18.0993 20.0681V27.241ZM32.988 25.6452C32.988 28.6887 30.1364 28.9684 27.0325 28.9684C24.0987 28.9684 23.1445 28.0252 20.3312 27.921C20.1802 27.93 20.0321 27.8763 19.922 27.7725C19.8119 27.6686 19.7497 27.5239 19.7499 27.3726V20.419C19.7734 20.0983 20.0484 19.8549 20.3696 19.8706C22.3352 19.7827 23.8838 18.164 23.8848 16.1964V14.129C23.9082 13.8083 24.1833 13.5649 24.5045 13.5806H25.5409C26.3778 13.5234 27.1077 14.1438 27.1861 14.979V18.5161C27.2644 19.3513 27.9943 19.9717 28.8312 19.9145H31.3099C32.1468 19.8573 32.8767 20.4777 32.9551 21.3129L32.988 25.6452Z" fill="white"/>
<path fill-rule="evenodd" clip-rule="evenodd" d="M10.8387 31.793H10.1422C8.71002 31.799 7.55134 32.9601 7.54834 34.3923V37.8526C7.54834 39.2861 8.70877 40.449 10.1422 40.452H37.8577C39.2899 40.446 40.4486 39.2848 40.4516 37.8526V34.3923C40.4516 32.9589 39.2911 31.796 37.8577 31.793H37.0132C33.8823 35.8459 29.05 38.2192 23.9287 38.2192C18.8073 38.2192 13.975 35.8459 10.8441 31.793L10.8387 31.793Z" fill="white"/>
</g>
</svg>
