<svg width="48" height="48" viewBox="0 0 48 48" fill="none" xmlns="http://www.w3.org/2000/svg">
<rect width="48" height="48" rx="4" fill="#45C173"/>
<mask id="mask0_1518_27796" style="mask-type:luminance" maskUnits="userSpaceOnUse" x="0" y="0" width="48" height="48">
<rect width="48" height="48" rx="4" fill="white"/>
</mask>
<g mask="url(#mask0_1518_27796)">
<path fill-rule="evenodd" clip-rule="evenodd" d="M23.9506 7.54838C18.3111 7.49957 13.1987 10.8562 11.0016 16.0503C8.80441 21.2444 9.95614 27.2508 13.9187 31.2638C17.8814 35.2768 23.8728 36.5043 29.0942 34.3729C34.3156 32.2415 37.7366 27.1719 37.759 21.5322C37.759 13.97 31.5951 7.54838 23.9506 7.54838ZM33.6516 22.0422H23.6106V11.3871C23.6106 11.3871 27.378 11.1568 30.7999 14.7103C34.2219 18.2639 33.6516 22.0422 33.6516 22.0422Z" fill="white"/>
<path fill-rule="evenodd" clip-rule="evenodd" d="M10.8387 31.793H10.1422C8.71002 31.799 7.55134 32.9601 7.54834 34.3923V37.8526C7.54834 39.2861 8.70877 40.449 10.1422 40.452H37.8577C39.2899 40.446 40.4486 39.2848 40.4516 37.8526V34.3923C40.4516 32.9589 39.2911 31.796 37.8577 31.793H37.0132C33.8823 35.8459 29.05 38.2192 23.9287 38.2192C18.8073 38.2192 13.975 35.8459 10.8441 31.793L10.8387 31.793Z" fill="white"/>
</g>
</svg>
