<svg width="48" height="48" viewBox="0 0 48 48" fill="none" xmlns="http://www.w3.org/2000/svg">
<rect width="48" height="48" rx="4" fill="#009688"/>
<mask id="mask0_1518_27393" style="mask-type:luminance" maskUnits="userSpaceOnUse" x="0" y="0" width="48" height="48">
<rect width="48" height="48" rx="4" fill="white"/>
</mask>
<g mask="url(#mask0_1518_27393)">
<path fill-rule="evenodd" clip-rule="evenodd" d="M8.78366 8.72791H29.4066C30.0755 8.72791 30.6886 9.28528 30.6886 9.95413V12.5738C30.6886 13.2427 30.1312 13.8558 29.4624 13.8558H8.8394C8.17055 13.8558 7.55743 13.2984 7.55743 12.6295V10.0099C7.50169 9.34102 8.05907 8.72791 8.78366 8.72791ZM37.1542 8.72791H39.7181C40.3869 8.72791 41.0001 9.28528 41.0001 9.95413V12.5738C41.0001 13.2427 40.4427 13.8558 39.7738 13.8558H37.1542C36.4853 13.8558 35.8722 13.2984 35.8722 12.6295V10.0099C35.8164 9.34102 36.3181 8.78364 36.9869 8.72791H37.1542ZM19.8197 31.4132C25.7837 34.3115 34.7574 31.3574 38.5476 24.8361C38.8263 24.3345 38.882 23.2197 38.3804 22.9968L37.4328 22.105C36.9312 21.882 35.9279 21.9935 35.6492 22.4394C32.8624 27.0656 25.7837 29.4066 21.1574 27.1213L20.2099 26.6754C20.0427 26.6197 19.9312 26.4525 19.8755 26.2853C19.764 25.8951 19.9312 25.505 20.3214 25.3935L25.3378 23.3869C25.8951 23.2197 26.1738 22.6066 26.0066 22.0492L25.3935 20.0984C25.3935 20.0705 25.3796 20.0427 25.3656 20.0148C25.3517 19.9869 25.3378 19.9591 25.3378 19.9312C25.1148 19.4853 24.6132 19.2623 24.1673 19.4853L11.905 24.2787C11.3476 24.4459 11.0689 25.0591 11.2361 25.6164L15.0263 38.2689C15.0263 38.2968 15.0402 38.3246 15.0542 38.3525C15.0681 38.3804 15.082 38.4082 15.082 38.4361C15.305 38.882 15.8066 39.105 16.2525 38.882L18.1476 38.1574C18.6492 37.9345 18.9837 37.3771 18.8164 36.8197L17.2558 31.5804C17.0886 31.023 17.646 30.4099 18.2033 30.6886L19.8197 31.4132Z" fill="white"/>
</g>
</svg>
