<svg width="48" height="48" viewBox="0 0 48 48" fill="none" xmlns="http://www.w3.org/2000/svg">
<rect width="48" height="48" rx="4" fill="#E9696E"/>
<mask id="mask0_1518_27802" style="mask-type:luminance" maskUnits="userSpaceOnUse" x="0" y="0" width="48" height="48">
<rect width="48" height="48" rx="4" fill="white"/>
</mask>
<g mask="url(#mask0_1518_27802)">
<path fill-rule="evenodd" clip-rule="evenodd" d="M34.7667 17.7667C34.7667 18.6055 34.2062 19.3366 33.6569 20.053C33.3157 20.498 32.9788 20.9373 32.7834 21.3933C32.5853 21.8777 32.5069 22.4475 32.4286 23.0165C32.3054 23.9121 32.1825 24.8056 31.5934 25.36C31.043 25.9104 30.1585 26.0431 29.2695 26.1766C28.694 26.2629 28.1166 26.3496 27.6267 26.55C27.1707 26.7454 26.7314 27.0823 26.2864 27.4235C25.57 27.9728 24.8389 28.5333 24.0001 28.5333C23.1612 28.5333 22.4301 27.9728 21.7137 27.4235C21.2687 27.0823 20.8294 26.7454 20.3734 26.55C19.8891 26.3519 19.3192 26.2735 18.7502 26.1952C17.8546 26.072 16.9611 25.9491 16.4067 25.36C15.8563 24.8096 15.7236 23.9251 15.5902 23.0361C15.5038 22.4606 15.4171 21.8832 15.2167 21.3933C15.0213 20.9373 14.6844 20.498 14.3432 20.053C13.7939 19.3366 13.2334 18.6055 13.2334 17.7667C13.2334 16.9278 13.7939 16.1967 14.3432 15.4804C14.6844 15.0353 15.0213 14.596 15.2167 14.14C15.4149 13.6557 15.4933 13.0858 15.5715 12.5168C15.6947 11.6212 15.8176 10.7278 16.4067 10.1733C16.9571 9.62294 17.8416 9.4902 18.7306 9.35677C19.3061 9.2704 19.8835 9.18374 20.3734 8.98333C20.8294 8.78791 21.2687 8.45104 21.7137 8.10982C22.4301 7.56055 23.1612 7 24.0001 7C24.8389 7 25.57 7.56055 26.2864 8.10982C26.7314 8.45104 27.1707 8.78791 27.6267 8.98333C28.1111 9.18147 28.6809 9.25986 29.2499 9.33814C30.1455 9.46135 31.039 9.58426 31.5934 10.1733C32.1438 10.7237 32.2765 11.6082 32.41 12.4972C32.4963 13.0727 32.583 13.6501 32.7834 14.14C32.9788 14.596 33.3157 15.0353 33.6569 15.4804C34.2062 16.1967 34.7667 16.9278 34.7667 17.7667ZM20.0334 17.7667C20.0334 15.5567 21.7901 13.8 24.0001 13.8C26.2101 13.8 27.9667 15.5567 27.9667 17.7667C27.9667 19.9767 26.2101 21.7333 24.0001 21.7333C21.7901 21.7333 20.0334 19.9767 20.0334 17.7667ZM22.1301 31.5933L15.5001 41L13.8001 36.4667H9.26672L15.0467 28.59C15.9892 29.1555 16.9708 29.3291 17.7635 29.4693L17.7637 29.4693L17.7639 29.4693L17.7642 29.4694C17.9245 29.4978 18.0771 29.5247 18.2201 29.5533C18.5034 29.61 18.8434 29.6667 19.0134 29.6667C19.1267 29.7233 19.4101 29.95 19.5801 30.12C19.7099 30.2065 19.8459 30.3013 19.9881 30.4005L19.9881 30.4005L19.9881 30.4005L19.9881 30.4005C20.5908 30.8206 21.3048 31.3182 22.1301 31.5933ZM32.9534 28.59C32.0109 29.1555 31.0293 29.3291 30.2366 29.4693C30.076 29.4977 29.9232 29.5247 29.7801 29.5533C29.4967 29.61 29.1001 29.6667 28.9301 29.6667C28.8167 29.7233 28.5334 29.95 28.3634 30.12C28.2688 30.1888 28.1703 30.2628 28.0674 30.3401C27.4927 30.7719 26.7833 31.3049 25.8701 31.5933L32.5001 41L34.2001 36.4667H38.7334L32.9534 28.59ZM24.0001 10.4C28.0801 10.4 31.3667 13.6867 31.3667 17.7667C31.3667 21.8467 28.0801 25.1333 24.0001 25.1333C19.9201 25.1333 16.6334 21.8467 16.6334 17.7667C16.6334 13.6867 19.9201 10.4 24.0001 10.4Z" fill="white"/>
</g>
</svg>
