<svg width="48" height="48" viewBox="0 0 48 48" fill="none" xmlns="http://www.w3.org/2000/svg">
<rect width="48" height="48" rx="4" fill="#47CFD2"/>
<mask id="mask0_1518_27804" style="mask-type:luminance" maskUnits="userSpaceOnUse" x="0" y="0" width="48" height="48">
<rect width="48" height="48" rx="4" fill="white"/>
</mask>
<g mask="url(#mask0_1518_27804)">
<path d="M30.1359 7.92969C24.2284 7.92969 19.394 12.5197 19.394 18.1828C19.3945 19.9513 19.8657 21.6877 20.7594 23.2137C20.8612 23.3905 20.8952 23.5982 20.855 23.7981L19.8297 27.0706C19.7355 27.3353 19.8021 27.6306 20.0007 27.8293C20.1994 28.0279 20.4947 28.0945 20.7594 28.0003L23.8831 26.8794C24.0769 26.8205 24.2858 26.8376 24.4675 26.9272C26.1841 27.9333 28.1409 28.4564 30.1306 28.4412C36.0381 28.4412 40.8725 23.8512 40.8725 18.1881C40.8725 12.525 36.0434 7.92969 30.1359 7.92969Z" fill="white"/>
<path d="M21.7687 37.9239V38.6092C21.7659 39.0004 21.6074 39.3744 21.3283 39.6485C21.0492 39.9227 20.6724 40.0744 20.2812 40.0701H8.59369C7.78511 40.0672 7.13036 39.4125 7.12744 38.6039V37.9239C7.12744 36.1442 9.20463 35.0658 11.1543 34.2051C11.2242 34.1833 11.2905 34.151 11.3509 34.1095C11.4933 34.0247 11.6707 34.0247 11.8131 34.1095C12.5991 34.6355 13.5235 34.9165 14.4693 34.917C15.4108 34.9134 16.3319 34.6426 17.1256 34.1361C17.268 34.0513 17.4454 34.0513 17.5878 34.1361C17.6577 34.1579 17.7239 34.1902 17.7843 34.2317C19.6915 35.0658 21.7687 36.1389 21.7687 37.9239Z" fill="white"/>
<path d="M14.4428 33.4776C16.4526 33.4776 18.0818 31.6747 18.0818 29.4507C18.0818 27.2267 16.4526 25.4238 14.4428 25.4238C12.433 25.4238 10.8037 27.2267 10.8037 29.4507C10.8037 31.6747 12.433 33.4776 14.4428 33.4776Z" fill="white"/>
</g>
</svg>
