<svg width="48" height="48" viewBox="0 0 48 48" fill="none" xmlns="http://www.w3.org/2000/svg">
<rect width="48" height="48" rx="4" fill="#0EB58A"/>
<mask id="mask0_1518_27720" style="mask-type:luminance" maskUnits="userSpaceOnUse" x="0" y="0" width="48" height="48">
<rect width="48" height="48" rx="4" fill="white"/>
</mask>
<g mask="url(#mask0_1518_27720)">
<path d="M28.2501 14.9333H33.5767C33.9734 14.9333 34.3134 14.5933 34.3134 14.1967C34.3134 14.0267 34.2568 13.8567 34.1434 13.6867L27.4567 7.17C27.2867 7.05667 27.1167 7 26.9467 7C26.5501 7 26.2101 7.34 26.2101 7.73667V12.95C26.2667 14.0267 27.1734 14.9333 28.2501 14.9333Z" fill="white"/>
<path d="M18.1067 32.5C18.1067 30.5167 19.2401 28.76 21.0534 28.08C22.5267 27.5133 24.0001 27.1733 25.5867 27.1733C27.8534 27.1733 29.7801 27.7967 31.5367 28.3067C32.5001 28.59 33.4067 28.8733 34.2567 29.0433L34.3701 18.8433C34.3701 18.3333 33.9167 17.88 33.4067 17.88H26.2667C24.5667 17.88 23.3201 16.52 23.3201 14.9333V7.96333C23.3201 7.45333 22.8667 7 22.3001 7H12.2134C10.5701 7 9.26672 8.36 9.26672 9.94667V33.7467C9.26672 35.39 10.6267 36.6933 12.2134 36.6933H18.1067V32.5Z" fill="white"/>
<path fill-rule="evenodd" clip-rule="evenodd" d="M30.4368 31.8184C32.6537 32.5083 34.8382 33.188 37.2601 32.4428C37.9967 32.2728 38.7334 32.7828 38.7334 33.5195V39.3562C38.7334 39.8095 38.3934 40.2062 37.9967 40.3762C35.2883 41.512 32.9092 40.7769 30.4747 40.0247C28.1722 39.3132 25.8202 38.5865 23.0934 39.4128C22.4134 39.6395 21.7334 39.1862 21.7334 38.3928V32.4995C21.7334 32.0462 21.9601 31.6495 22.4134 31.4795C25.3886 30.2474 27.9334 31.0393 30.4368 31.8184ZM28.1934 35.7295C28.1934 36.9762 29.2134 37.9395 30.4034 37.9395C31.6501 37.9395 32.6134 36.9762 32.6134 35.7295C32.6134 34.4828 31.6501 33.5195 30.4034 33.5195C29.1567 33.5195 28.1934 34.5395 28.1934 35.7295Z" fill="white"/>
</g>
</svg>
