<svg width="48" height="48" viewBox="0 0 48 48" fill="none" xmlns="http://www.w3.org/2000/svg">
<rect width="48" height="48" rx="4" fill="#969492"/>
<mask id="mask0_1518_27728" style="mask-type:luminance" maskUnits="userSpaceOnUse" x="0" y="0" width="48" height="48">
<rect width="48" height="48" rx="4" fill="white"/>
</mask>
<g mask="url(#mask0_1518_27728)">
<path fill-rule="evenodd" clip-rule="evenodd" d="M10.4 41H37.6C39.47 41 41 39.47 41 37.6V10.4C41 8.53 39.47 7 37.6 7H10.4C8.53 7 7 8.53 7 10.4V37.6C7 39.47 8.53 41 10.4 41ZM11.59 35.3333V12.6667C11.59 12.0433 12.1 11.5333 12.7233 11.5333H35.3333C35.9567 11.5333 36.4667 12.0433 36.4667 12.6667V35.3333C36.4667 35.9567 35.9567 36.4667 35.3333 36.4667H12.7233C12.1 36.4667 11.59 35.9567 11.59 35.3333Z" fill="white"/>
<path d="M33.2366 22.4702L32.5566 20.3168C32.3866 19.7502 31.7066 19.4102 31.1399 19.5802L26.2099 21.1668V16.2935C26.2099 15.6702 25.6999 15.1602 25.0766 15.1602H22.8099C22.1866 15.1602 21.6766 15.6702 21.6766 16.2935V21.1668L16.8599 19.5802C16.2933 19.4102 15.6133 19.7502 15.4433 20.3168L14.7633 22.4702C14.5933 23.0368 14.9333 23.7168 15.4999 23.8868L19.9766 25.3602L16.7466 29.7802C16.4066 30.2902 16.5199 31.0268 17.0299 31.3668L18.8999 32.6702C19.4099 33.0102 20.1466 32.8968 20.4866 32.3868L24.0566 27.4568L27.6266 32.3868C27.9666 32.8968 28.7033 33.0102 29.2133 32.6702L31.0833 31.3668C31.5933 31.0268 31.7066 30.2902 31.3666 29.7802L28.1366 25.3035L32.5566 23.8868C33.0666 23.6602 33.4066 23.0368 33.2366 22.4702Z" fill="white"/>
</g>
</svg>
