<svg width="48" height="48" viewBox="0 0 48 48" fill="none" xmlns="http://www.w3.org/2000/svg">
<rect width="48" height="48" rx="4" fill="#34BECD"/>
<mask id="mask0_1518_27732" style="mask-type:luminance" maskUnits="userSpaceOnUse" x="0" y="0" width="48" height="48">
<rect width="48" height="48" rx="4" fill="white"/>
</mask>
<g mask="url(#mask0_1518_27732)">
<path d="M41 36.0129V37.5996C41 39.4696 39.47 40.9996 37.6 40.9996H10.4C8.53 40.9996 7 39.4696 7 37.5996V36.0129C7 31.8763 11.8167 29.3829 16.35 27.3996C16.52 27.3429 16.6333 27.2863 16.8033 27.1729C17.1433 27.0029 17.54 27.0029 17.88 27.2296C19.6933 28.4196 21.79 29.0996 24 29.0996C26.21 29.0996 28.3067 28.4196 30.12 27.2863C30.46 27.0596 30.8567 27.0596 31.1967 27.2296C31.3667 27.2863 31.48 27.3429 31.65 27.4563C36.1833 29.3829 41 31.8763 41 36.0129Z" fill="white"/>
<path d="M24 25.7C28.6631 25.7 32.4433 21.5139 32.4433 16.35C32.4433 11.1861 28.6631 7 24 7C19.3369 7 15.5566 11.1861 15.5566 16.35C15.5566 21.5139 19.3369 25.7 24 25.7Z" fill="white"/>
</g>
</svg>
