<svg width="48" height="48" viewBox="0 0 48 48" fill="none" xmlns="http://www.w3.org/2000/svg">
<rect width="48" height="48" rx="4" fill="#F8B156"/>
<mask id="mask0_1518_27734" style="mask-type:luminance" maskUnits="userSpaceOnUse" x="0" y="0" width="48" height="48">
<rect width="48" height="48" rx="4" fill="white"/>
</mask>
<g mask="url(#mask0_1518_27734)">
<path d="M12.6666 7H11.5333C9.6633 7 8.1333 8.7 8.1333 10.4V12.6667V17.2V21.7333V26.2667V30.8V35.3333V37.6C8.1333 39.3 9.6633 41 11.5333 41H12.6666C13.29 41 13.8 40.49 13.8 39.8667V8.13333C13.8 7.51 13.29 7 12.6666 7Z" fill="white"/>
<path fill-rule="evenodd" clip-rule="evenodd" d="M18.3333 7H36.4666C38.3366 7 39.8666 8.53 39.8666 10.4V37.6C39.8666 39.47 38.3366 41 36.4666 41H18.3333C17.71 41 17.2 40.49 17.2 39.8667V8.13333C17.2 7.51 17.71 7 18.3333 7ZM32.2733 25.19L35.22 22.1867C35.4466 21.96 35.3333 21.62 34.88 21.5633L30.8 20.94C30.6866 20.8833 30.5733 20.8267 30.5166 20.7133L28.7033 16.8033C28.59 16.52 28.1933 16.52 28.08 16.8033L26.2666 20.7133C26.21 20.8267 26.0966 20.94 25.9833 20.94L21.9033 21.5633C21.62 21.62 21.5066 21.96 21.7333 22.1867L24.68 25.19C24.7933 25.3033 24.7933 25.4167 24.7933 25.53L24.1133 29.78C24.0566 30.0633 24.34 30.29 24.6233 30.1767L28.3066 28.1367C28.42 28.08 28.5333 28.08 28.6466 28.1367L32.33 30.1767C32.6133 30.29 32.8966 30.0633 32.84 29.78L32.16 25.53C32.16 25.4167 32.2166 25.2467 32.2733 25.19Z" fill="white"/>
</g>
</svg>
