<svg width="48" height="48" viewBox="0 0 48 48" fill="none" xmlns="http://www.w3.org/2000/svg">
<rect width="48" height="48" rx="4" fill="#54698D"/>
<mask id="mask0_1518_27371" style="mask-type:luminance" maskUnits="userSpaceOnUse" x="0" y="0" width="48" height="48">
<rect width="48" height="48" rx="4" fill="white"/>
</mask>
<g mask="url(#mask0_1518_27371)">
<path d="M10.7839 29.5935H8.5903C7.98708 29.5935 7.49353 30.0871 7.49353 30.6903V32.8838C7.49353 33.4871 7.98708 33.9806 8.5903 33.9806H10.7839H10.8935C11.4968 33.9258 11.9355 33.4322 11.8806 32.8838V30.6903C11.8806 30.0871 11.3871 29.5935 10.7839 29.5935Z" fill="white"/>
<path d="M17.4193 14.4032H39.2999C39.9032 14.4032 40.3967 13.9097 40.3967 13.3064V11.1129C40.3967 10.5097 39.9032 10.0161 39.2999 10.0161H17.4193C16.8161 10.0161 16.3225 10.5097 16.3225 11.1129V13.3064C16.3225 13.9097 16.8161 14.4032 17.4193 14.4032Z" fill="white"/>
<path d="M17.4193 24.2194H39.2999C39.9032 24.2194 40.3967 23.7258 40.3967 23.1226V20.929C40.3967 20.3258 39.9032 19.8323 39.2999 19.8323H17.4193C16.8161 19.8323 16.3225 20.3258 16.3225 20.929V23.1226C16.3225 23.7258 16.8161 24.2194 17.4193 24.2194Z" fill="white"/>
<path d="M10.7839 9.9613H8.5903C7.98708 9.9613 7.49353 10.4549 7.49353 11.0581V13.2516C7.49353 13.8549 7.98708 14.3484 8.5903 14.3484H10.7839H10.8935C11.4968 14.2936 11.9355 13.8 11.8806 13.2516V11.0581C11.8806 10.4549 11.3871 9.9613 10.7839 9.9613Z" fill="white"/>
<path d="M10.7839 19.7774H8.5903C7.98708 19.7774 7.49353 20.271 7.49353 20.8742V23.0677C7.49353 23.671 7.98708 24.1645 8.5903 24.1645H10.7839H10.8935C11.4968 24.1097 11.9355 23.6161 11.8806 23.0677V20.8742C11.8806 20.271 11.3871 19.7774 10.7839 19.7774Z" fill="white"/>
<path d="M20.4903 33.7612C20.4903 32.5 20.929 31.2935 21.6419 30.3064C21.6419 30.1967 21.6419 30.0871 21.6419 29.9774C21.6419 29.8677 21.6419 29.758 21.6419 29.5935H17.4193C16.8161 29.5935 16.3225 30.0871 16.3225 30.6903V32.8838C16.3225 33.4871 16.8161 33.9806 17.4193 33.9806H20.4903C20.4903 33.9258 20.4903 33.8161 20.4903 33.7612Z" fill="white"/>
<path d="M30.4161 28.0033C30.9645 27.4549 31.7323 27.071 32.6097 27.071C33.7613 27.071 34.7484 27.6742 35.2968 28.6065C35.7355 28.442 36.2839 28.2775 36.8323 28.2775C38.8613 28.2775 40.5613 29.9775 40.5613 31.9517C40.5613 33.9807 38.8613 35.6258 36.8323 35.6258C36.6129 35.6258 36.3387 35.6258 36.1194 35.571C35.6807 36.3936 34.7484 36.942 33.7613 36.942C33.3226 36.942 32.9387 36.8323 32.5549 36.6678C32.0613 37.7646 30.9645 38.5323 29.7032 38.5323C28.3323 38.5323 27.2355 37.7097 26.7968 36.5581C26.6323 36.5581 26.4129 36.6129 26.1936 36.6129C24.6032 36.6129 23.2871 35.3517 23.2871 33.7613C23.2871 32.7194 23.8355 31.7871 24.7129 31.2936C24.5484 30.9097 24.4387 30.471 24.4387 29.9775C24.4387 28.1678 25.9742 26.6871 27.7839 26.6871C28.8258 26.6871 29.8129 27.1807 30.4161 28.0033Z" fill="white"/>
</g>
</svg>
