<svg width="48" height="48" viewBox="0 0 48 48" fill="none" xmlns="http://www.w3.org/2000/svg">
<rect width="48" height="48" rx="4" fill="#969492"/>
<mask id="mask0_1518_27373" style="mask-type:luminance" maskUnits="userSpaceOnUse" x="0" y="0" width="48" height="48">
<rect width="48" height="48" rx="4" fill="white"/>
</mask>
<g mask="url(#mask0_1518_27373)">
<path d="M39.8666 16.0667H17.2C16.5767 16.0667 16.0667 15.5567 16.0667 14.9333V12.6667C16.0667 12.0433 16.5767 11.5333 17.2 11.5333H39.8666C40.49 11.5333 41 12.0433 41 12.6667V14.9333C41 15.5567 40.49 16.0667 39.8666 16.0667Z" fill="white"/>
<path d="M39.8666 26.2666H17.2C16.5767 26.2666 16.0667 25.7566 16.0667 25.1333V22.8666C16.0667 22.2433 16.5767 21.7333 17.2 21.7333H39.8666C40.49 21.7333 41 22.2433 41 22.8666V25.1333C41 25.7566 40.49 26.2666 39.8666 26.2666Z" fill="white"/>
<path d="M10.4 26.2666H8.13333C7.51 26.2666 7 25.7566 7 25.1333V22.8666C7 22.2433 7.51 21.7333 8.13333 21.7333H10.4C11.0233 21.7333 11.5333 22.2433 11.5333 22.8666V25.1333C11.5333 25.7566 11.0233 26.2666 10.4 26.2666Z" fill="white"/>
<path d="M10.4 16.0667H8.13333C7.51 16.0667 7 15.5567 7 14.9333V12.6667C7 12.0433 7.51 11.5333 8.13333 11.5333H10.4C11.0233 11.5333 11.5333 12.0433 11.5333 12.6667V14.9333C11.5333 15.5567 11.0233 16.0667 10.4 16.0667Z" fill="white"/>
<path d="M10.4 36.4667H8.13333C7.51 36.4667 7 35.9567 7 35.3333V33.0667C7 32.4433 7.51 31.9333 8.13333 31.9333H10.4C11.0233 31.9333 11.5333 32.4433 11.5333 33.0667V35.3333C11.5333 35.9567 11.0233 36.4667 10.4 36.4667Z" fill="white"/>
<path d="M39.8666 36.4667H17.2C16.5767 36.4667 16.0667 35.9567 16.0667 35.3333V33.0667C16.0667 32.4433 16.5767 31.9333 17.2 31.9333H39.8666C40.49 31.9333 41 32.4433 41 33.0667V35.3333C41 35.9567 40.49 36.4667 39.8666 36.4667Z" fill="white"/>
</g>
</svg>
