<svg width="48" height="48" viewBox="0 0 48 48" fill="none" xmlns="http://www.w3.org/2000/svg">
<rect width="48" height="48" rx="4" fill="#7A9AE6"/>
<mask id="mask0_1518_27375" style="mask-type:luminance" maskUnits="userSpaceOnUse" x="0" y="0" width="48" height="48">
<rect width="48" height="48" rx="4" fill="white"/>
</mask>
<g mask="url(#mask0_1518_27375)">
<path d="M34.2 23.4899C34.2 24.1133 33.69 24.6233 33.0666 24.6233H22.5266C21.9033 24.6233 21.3933 24.1133 21.3933 23.4899V21.7899C21.3933 21.1666 21.9033 20.6566 22.5266 20.6566H33.0666C33.69 20.6566 34.2 21.1666 34.2 21.7899V23.4899Z" fill="white"/>
<path d="M17.9934 23.4899C17.9934 24.1133 17.4834 24.6233 16.86 24.6233H14.9334C14.31 24.6233 13.8 24.1133 13.8 23.4899V21.7899C13.8 21.1666 14.31 20.6566 14.9334 20.6566H16.86C17.4834 20.6566 17.9934 21.1666 17.9934 21.7899V23.4899Z" fill="white"/>
<path fill-rule="evenodd" clip-rule="evenodd" d="M37.4867 7H10.5133C8.58667 7 7 8.58667 7 10.5133V37.4867C7 39.4133 8.58667 41 10.5133 41H37.4867C39.4133 41 41 39.4133 41 37.4867V10.5133C41 8.58667 39.4133 7 37.4867 7ZM22.5267 11.1933C22.5267 10.74 22.98 10.4 23.4333 10.4H36.6933C37.1467 10.4 37.4867 10.8533 37.4867 11.3067V13.0067C37.4867 13.46 37.0333 13.8 36.58 13.8H23.32C22.8667 13.8 22.5267 13.3467 22.5267 12.8933V11.1933ZM19.6933 12.1C19.6933 11.1367 18.9567 10.4 17.9933 10.4C17.03 10.4 16.2933 11.1367 16.2933 12.1C16.2933 13.0633 17.03 13.8 17.9933 13.8C18.9567 13.8 19.6933 13.0633 19.6933 12.1ZM12.1 10.4C13.0633 10.4 13.8 11.1367 13.8 12.1C13.8 13.0633 13.0633 13.8 12.1 13.8C11.1367 13.8 10.4 13.0633 10.4 12.1C10.4 11.1367 11.1367 10.4 12.1 10.4ZM36.6933 37.6C37.1467 37.6 37.6 37.26 37.6 36.8067V18.1067C37.6 17.6533 37.26 17.2 36.8067 17.2H11.3067C10.8533 17.2 10.4 17.54 10.4 17.9933V36.6933C10.4 37.1467 10.74 37.6 11.1933 37.6H13.8V29.1567C13.8 28.5333 14.31 28.0233 14.9333 28.0233H33.0667C33.69 28.0233 34.2 28.5333 34.2 29.1567V37.6H36.6933Z" fill="white"/>
</g>
</svg>
