<svg width="48" height="48" viewBox="0 0 48 48" fill="none" xmlns="http://www.w3.org/2000/svg">
<rect width="48" height="48" rx="4" fill="#AEC770"/>
<mask id="mask0_1518_27744" style="mask-type:luminance" maskUnits="userSpaceOnUse" x="0" y="0" width="48" height="48">
<rect width="48" height="48" rx="4" fill="white"/>
</mask>
<g mask="url(#mask0_1518_27744)">
<path fill-rule="evenodd" clip-rule="evenodd" d="M10.6429 7H37.3571C39.3607 7 41 8.63929 41 10.6429V37.3571C41 39.3607 39.3607 41 37.3571 41H10.6429C8.63929 41 7 39.3607 7 37.3571V10.6429C7 8.63929 8.63929 7 10.6429 7ZM28.3107 33.1071C29.0393 33.1071 29.6464 32.3786 29.4643 31.65L27.4607 24.9107C29.0393 23.8179 30.0714 21.9964 30.0714 19.8714C30.0714 16.0464 26.6714 13.0714 22.8464 13.8607C20.4179 14.2857 18.5357 16.2286 18.05 18.6571C17.5643 21.2679 18.6571 23.6357 20.5393 24.9714L18.5964 31.65C18.4143 32.3786 18.9607 33.1071 19.75 33.1071H28.3107Z" fill="white"/>
</g>
</svg>
