<svg width="48" height="48" viewBox="0 0 48 48" fill="none" xmlns="http://www.w3.org/2000/svg">
<rect width="48" height="48" rx="4" fill="#65CAE4"/>
<mask id="mask0_1518_27746" style="mask-type:luminance" maskUnits="userSpaceOnUse" x="0" y="0" width="48" height="48">
<rect width="48" height="48" rx="4" fill="white"/>
</mask>
<g mask="url(#mask0_1518_27746)">
<path d="M23.8328 8.50488C14.5803 8.50488 7.11145 15.4721 7.11145 24.1114C7.11145 26.8983 7.89178 29.4623 9.22948 31.7475C9.3967 32.0262 9.45243 32.3606 9.34096 32.6393L7.7803 37.6C7.50161 38.4918 8.33768 39.2721 9.22948 38.9934L14.1344 37.2655C14.4688 37.1541 14.8033 37.2098 15.0819 37.377C17.6459 38.8819 20.6557 39.718 23.8885 39.718C33.141 39.718 40.6098 32.7508 40.6098 24.1114C40.4983 15.4721 33.0295 8.50488 23.8328 8.50488Z" fill="white"/>
</g>
</svg>
