<svg width="48" height="48" viewBox="0 0 48 48" fill="none" xmlns="http://www.w3.org/2000/svg">
<rect width="48" height="48" rx="4" fill="#55BC9C"/>
<mask id="mask0_1518_27752" style="mask-type:luminance" maskUnits="userSpaceOnUse" x="0" y="0" width="48" height="48">
<rect width="48" height="48" rx="4" fill="white"/>
</mask>
<g mask="url(#mask0_1518_27752)">
<path fill-rule="evenodd" clip-rule="evenodd" d="M24.0362 32.6316C23.7589 32.6316 23.4938 32.5174 23.3033 32.316L13.8948 22.9186C13.6933 22.728 13.5791 22.463 13.5791 22.1856C13.5791 21.9083 13.6933 21.6432 13.8948 21.4527L15.3607 19.9199C15.5512 19.7184 15.8163 19.6043 16.0936 19.6043C16.3709 19.6043 16.636 19.7184 16.8266 19.9199L20.7282 23.8215C20.9274 24.019 21.2255 24.0778 21.4847 23.9707C21.7439 23.8636 21.9137 23.6115 21.9154 23.3311V8.56056C21.9271 7.98892 22.3861 7.52746 22.9577 7.5127H25.0479C25.6124 7.56803 26.0695 7.99543 26.1626 8.55499V23.3868C26.1644 23.6672 26.3341 23.9193 26.5933 24.0264C26.8525 24.1335 27.1507 24.0747 27.3498 23.8773L31.2515 19.9756C31.4419 19.776 31.7057 19.663 31.9816 19.663C32.2575 19.663 32.5214 19.776 32.7118 19.9756L34.1721 21.4415C34.3736 21.6321 34.4878 21.8972 34.4878 22.1745C34.4878 22.4518 34.3736 22.7169 34.1721 22.9074L24.7692 32.316C24.5786 32.5174 24.3135 32.6316 24.0362 32.6316ZM37.5889 27.7176H39.679C40.2402 27.7316 40.6952 28.1769 40.7213 28.7376V38.1684C40.7213 39.7076 39.4736 40.9553 37.9344 40.9553H10.0656C8.52642 40.9553 7.27869 39.7076 7.27869 38.1684V28.7376C7.29346 28.166 7.75491 27.707 8.32656 27.6953H10.4223C10.9918 27.71 11.4499 28.1681 11.4646 28.7376V35.7104C11.4792 36.2799 11.9374 36.738 12.5069 36.7527H35.4987C36.0703 36.7379 36.5293 36.2765 36.541 35.7048V28.7376C36.5673 28.1748 37.0255 27.7287 37.5889 27.7176Z" fill="white"/>
</g>
</svg>
