<svg width="48" height="48" viewBox="0 0 48 48" fill="none" xmlns="http://www.w3.org/2000/svg">
<rect width="48" height="48" rx="4" fill="#F88962"/>
<mask id="mask0_1518_27756" style="mask-type:luminance" maskUnits="userSpaceOnUse" x="0" y="0" width="48" height="48">
<rect width="48" height="48" rx="4" fill="white"/>
</mask>
<g mask="url(#mask0_1518_27756)">
<path fill-rule="evenodd" clip-rule="evenodd" d="M37.512 7.31641H39.5931C40.1618 7.3319 40.6184 7.79101 40.6306 8.35985V21.655C40.6475 22.1202 40.292 22.5147 39.8275 22.5461H27.1889C26.608 22.536 26.1291 22.0875 26.081 21.5085V19.4274C26.1291 18.8484 26.608 18.3999 27.1889 18.3899H32.0427C32.7344 18.3899 33.3617 17.7685 32.5293 16.7954C29.8378 13.6847 25.6845 12.2569 21.6493 13.0554C21.5417 13.0869 21.4338 13.1181 21.3264 13.1491C20.9543 13.2567 20.5889 13.3624 20.2658 13.4716C19.3225 13.8725 18.4179 14.3592 17.5634 14.9254C17.1461 15.1975 16.5949 15.1388 16.2444 14.7847L14.7906 13.3309C14.5915 13.1035 14.494 12.8047 14.5205 12.5036C14.5471 12.2025 14.6955 11.9254 14.9313 11.7364C15.661 11.1726 16.4467 10.6855 17.2762 10.2826C18.8653 9.43295 20.6102 8.91445 22.4055 8.75848C27.2794 8.24639 32.1023 10.1092 35.3665 13.7647C35.7827 14.2454 36.4744 13.8292 36.4744 13.2078V8.35399C36.4898 7.78743 36.9455 7.33177 37.512 7.31641ZM32.5586 31.537C32.8334 31.537 33.0962 31.6499 33.2855 31.8492L34.6689 33.303C34.8682 33.4922 34.9811 33.755 34.9811 34.0299C34.9811 34.3047 34.8682 34.5675 34.6689 34.7568C33.5137 35.9112 32.1795 36.8713 30.7179 37.5999C29.1288 38.4495 27.3838 38.968 25.5886 39.124C20.7159 39.6533 15.8879 37.795 12.6275 34.1354C12.2113 33.6547 11.5196 34.0709 11.5196 34.6923V39.5461C11.5042 40.1126 11.0486 40.5683 10.482 40.5836H8.40099C7.83443 40.5683 7.37877 40.1126 7.3634 39.5461V26.2392C7.37277 25.7445 7.77151 25.3458 8.26616 25.3364H20.8872C21.4538 25.3518 21.9094 25.8074 21.9248 26.374V28.455C21.9094 29.0216 21.4538 29.4773 20.8872 29.4926H16.0334C15.3417 29.4926 14.7144 30.114 15.5469 31.0871C18.2383 34.1978 22.3917 35.6255 26.4269 34.8271C26.5344 34.7956 26.6423 34.7644 26.7496 34.7334C27.1218 34.6258 27.4872 34.5201 27.8103 34.4109C29.3205 33.8584 30.6927 32.9844 31.8317 31.8492C32.0209 31.6499 32.2837 31.537 32.5586 31.537Z" fill="white"/>
</g>
</svg>
