<svg width="48" height="48" viewBox="0 0 48 48" fill="none" xmlns="http://www.w3.org/2000/svg">
<rect width="48" height="48" rx="4" fill="#88C651"/>
<mask id="mask0_1518_27381" style="mask-type:luminance" maskUnits="userSpaceOnUse" x="0" y="0" width="48" height="48">
<rect width="48" height="48" rx="4" fill="white"/>
</mask>
<g mask="url(#mask0_1518_27381)">
<path d="M39.2164 38.9933H18.5935C17.9246 38.9933 17.3115 38.436 17.3115 37.7671V37.7114V35.1474C17.3115 34.4786 17.8689 33.8655 18.5378 33.8655H18.5935H39.1607C39.8296 33.8655 40.4427 34.4229 40.4427 35.0917V35.1474V37.7114C40.4984 38.3802 39.941 38.9933 39.2164 38.9933Z" fill="white"/>
<path d="M10.8459 38.9933H8.28197C7.61311 38.9933 7 38.436 7 37.7671V37.7114V35.1474C7 34.4786 7.55738 33.8655 8.22623 33.8655H8.28197H10.8459C11.5148 33.8655 12.1279 34.4229 12.1279 35.0917V35.1474V37.7114C12.1836 38.3802 11.682 38.9376 11.0131 38.9933C10.9574 38.9933 10.9016 38.9933 10.8459 38.9933Z" fill="white"/>
<path d="M9.45247 22.8852C13.2426 16.3639 22.2164 13.4098 28.1803 16.3081L29.7967 17.0327C30.3541 17.3114 30.9115 16.6983 30.7443 16.1409L29.1836 10.9016C29.0164 10.3442 29.3508 9.78684 29.8525 9.56389L31.7476 8.8393C32.1935 8.61634 32.6951 8.8393 32.918 9.2852C32.918 9.34094 32.9738 9.39667 32.9738 9.45241L36.7639 22.1049C36.9312 22.6622 36.6525 23.2754 36.0951 23.4426L23.8328 28.236C23.3869 28.459 22.8853 28.236 22.6623 27.7901C22.6623 27.7344 22.6066 27.6786 22.6066 27.6229L21.9935 25.6721C21.8262 25.1147 22.1049 24.5016 22.6623 24.3344L27.6787 22.3278C28.0689 22.2163 28.2361 21.8262 28.1246 21.436C28.0689 21.2688 27.9574 21.1016 27.7902 21.0459L26.8426 20.6C22.2164 18.3147 15.1377 20.6557 12.3508 25.2819C12.0721 25.7278 11.0689 25.8393 10.5672 25.6163L9.61968 24.7245C9.11804 24.5016 9.17378 23.3868 9.45247 22.8852Z" fill="white"/>
</g>
</svg>
