<svg width="48" height="48" viewBox="0 0 48 48" fill="none" xmlns="http://www.w3.org/2000/svg">
<rect width="48" height="48" rx="4" fill="#3C97DD"/>
<mask id="mask0_1518_27760" style="mask-type:luminance" maskUnits="userSpaceOnUse" x="0" y="0" width="48" height="48">
<rect width="48" height="48" rx="4" fill="white"/>
</mask>
<g mask="url(#mask0_1518_27760)">
<path d="M10.2867 30.0068H7.73667C7.34 30.0068 7 30.3468 7 30.7435V39.8668C7 40.2635 7.34 40.6035 7.73667 40.6035H8.98333C10.1167 40.6035 11.0233 39.6968 11.0233 38.5635V30.8002C11.08 30.3468 10.6833 30.0068 10.2867 30.0068Z" fill="white"/>
<path d="M40.9434 34.9939C40.5467 34.0872 39.81 33.1239 38.7334 33.0105C38.1667 32.9539 37.6 33.1805 37.09 33.3505C35.05 34.0872 33.01 34.7672 30.97 35.5039C29.6667 35.9572 28.3067 36.4105 26.89 36.5239C25.9267 36.5805 24.9634 36.5239 24 36.5239C23.49 36.5239 23.0367 36.1272 23.0367 35.5605C23.0367 34.9939 23.4334 34.5972 24 34.5972H29.1567C30.12 34.5972 30.8567 33.8039 30.8567 32.8972C30.8567 31.9905 30.0634 31.1972 29.1567 31.1972H25.19C25.02 31.1972 23.9434 31.1405 23.2634 30.8572C22.5267 30.5172 21.5634 30.4605 21.5634 30.5172C21.5634 30.5172 21.5634 30.5172 21.5067 30.5172H14.5934C13.7434 30.5172 13.0634 31.1972 13.0634 32.0472V38.4505C13.0634 39.1872 13.63 39.8105 14.3667 39.9239C14.4234 39.9239 14.48 39.9239 14.5367 39.9239C15.84 39.9239 17.1434 40.2072 18.4467 40.4339C19.75 40.7172 20.9967 40.8872 22.3567 40.8872C24.0567 40.9439 25.8134 40.6605 27.4567 40.2639C29.1 39.8105 30.6867 39.1872 32.2734 38.6772C34.9934 37.7705 37.77 36.8072 40.49 35.9005C40.83 35.7305 41.1134 35.4472 40.9434 34.9939Z" fill="white"/>
<path fill-rule="evenodd" clip-rule="evenodd" d="M28.5333 18.3904V26.8904C28.5333 27.1737 28.8167 27.2871 29.0433 27.2304C30.6867 26.2671 35.7867 23.4337 35.7867 23.4337C36.4667 23.0371 36.8633 22.3571 36.8633 21.5637V13.9137C36.8633 13.6304 36.58 13.5171 36.3533 13.5737L28.8733 17.7671C28.7033 17.9371 28.5333 18.1637 28.5333 18.3904Z" fill="white"/>
<path fill-rule="evenodd" clip-rule="evenodd" d="M27.8534 16.0671L35.3334 11.8738C35.56 11.7604 35.56 11.4204 35.3334 11.3071C33.69 10.3437 28.5334 7.45375 28.5334 7.45375C27.8534 7.05708 27.06 7.05708 26.38 7.45375C26.38 7.45375 21.28 10.3437 19.58 11.3071C19.3534 11.4204 19.3534 11.7604 19.58 11.8738L27.1734 16.0671C27.3434 16.1804 27.6267 16.1804 27.8534 16.0671Z" fill="white"/>
<path fill-rule="evenodd" clip-rule="evenodd" d="M26.0967 17.8236L18.6167 13.6302C18.39 13.5169 18.1067 13.6869 18.1067 13.9702V21.5636C18.1067 22.3002 18.5034 23.0369 19.1834 23.4336C19.1834 23.4336 24.2834 26.3236 25.9267 27.2302C26.1534 27.3436 26.4367 27.1736 26.4367 26.8902V18.3902C26.4367 18.1636 26.3234 17.9369 26.0967 17.8236Z" fill="white"/>
</g>
</svg>
