<svg width="40" height="40" viewBox="0 0 40 40" fill="none" xmlns="http://www.w3.org/2000/svg">
<rect width="40" height="40" rx="20" fill="#81B4D6"/>
<mask id="mask0_1518_28344" style="mask-type:luminance" maskUnits="userSpaceOnUse" x="0" y="0" width="40" height="40">
<rect width="40" height="40" rx="20" fill="white"/>
</mask>
<g mask="url(#mask0_1518_28344)">
<path fill-rule="evenodd" clip-rule="evenodd" d="M8 20C8 13.35 13.35 8 20 8C26.65 8 32 13.35 32 20C32 26.65 26.65 32 20 32C13.35 32 8 26.65 8 20ZM23.75 16.5C24.15 16.5 24.5 16.15 24.5 15.75V14.25C24.5 13.85 24.15 13.5 23.75 13.5H21.5V12.5C21.5 11.95 21.05 11.5 20.5 11.5C19.95 11.5 19.5 11.95 19.5 12.5V13.5H19C17.05 13.5 15.5 15.05 15.5 17V18C15.5 19.95 17.05 21.5 19 21.5H21C21.3 21.5 21.5 21.7 21.5 22V23C21.5 23.3 21.3 23.5 21 23.5H16.25C15.85 23.5 15.5 23.85 15.5 24.25V25.75C15.5 26.15 15.85 26.5 16.25 26.5H19.5V27.5C19.5 28.05 19.95 28.5 20.5 28.5C21.05 28.5 21.5 28.05 21.5 27.5V26.5H21C22.95 26.5 24.5 24.95 24.5 23V22C24.5 20.05 22.95 18.5 21 18.5H19C18.7 18.5 18.5 18.3 18.5 18V17C18.5 16.7 18.7 16.5 19 16.5H23.75Z" fill="white"/>
</g>
</svg>
