<svg width="40" height="40" viewBox="0 0 40 40" fill="none" xmlns="http://www.w3.org/2000/svg">
<rect width="40" height="40" rx="20" fill="#1EC7BE"/>
<mask id="mask0_1518_28384" style="mask-type:luminance" maskUnits="userSpaceOnUse" x="0" y="0" width="40" height="40">
<rect width="40" height="40" rx="20" fill="white"/>
</mask>
<g mask="url(#mask0_1518_28384)">
<path fill-rule="evenodd" clip-rule="evenodd" d="M21.6163 22.2526L22.4 23.0363C22.5959 23.2322 22.8898 23.2322 23.0857 23.0363L25.3388 20.7343C25.5347 20.5384 25.6327 20.2935 25.6327 20.0486V11.1833C25.6327 10.3506 24.9959 9.71387 24.1633 9.71387H9.46939C8.63673 9.71387 8 10.3506 8 11.1833V21.9588C8 22.7914 8.63673 23.4282 9.46939 23.4282H16.1796C16.4245 23.4282 16.6694 23.3302 16.8653 23.1343L17.698 22.3016C18.0898 21.9098 18.5796 21.6159 19.1184 21.5179C20 21.322 20.9306 21.6159 21.6163 22.2526ZM11.9184 14.122C11.9184 13.8282 12.1143 13.6322 12.4082 13.6322H21.2245C21.5184 13.6322 21.7143 13.8282 21.7143 14.122V15.1016C21.7143 15.3955 21.5184 15.5914 21.2245 15.5914H12.4082C12.1143 15.5914 11.9184 15.3955 11.9184 15.1016V14.122ZM11.9184 19.02C11.9184 19.3139 12.1143 19.5098 12.4082 19.5098H19.2653C19.5592 19.5098 19.7551 19.3139 19.7551 19.02V18.0404C19.7551 17.7465 19.5592 17.5506 19.2653 17.5506H12.4082C12.1143 17.5506 11.9184 17.7465 11.9184 18.0404V19.02Z" fill="white"/>
<path d="M31.2653 20.8321L30.1878 19.7546C29.8939 19.4607 29.4041 19.4607 29.1102 19.7546L23.0857 25.8281C22.8898 26.024 22.547 26.024 22.351 25.8281L20.1959 23.624C19.9021 23.3301 19.4123 23.3301 19.1184 23.624L18.0408 24.7015C17.747 24.9954 17.747 25.4852 18.0408 25.7791L22.2041 29.9913C22.498 30.2852 22.9878 30.2852 23.2817 29.9913L31.2653 21.9587C31.6082 21.6158 31.6082 21.126 31.2653 20.8321Z" fill="white"/>
</g>
</svg>
