<svg width="40" height="40" viewBox="0 0 40 40" fill="none" xmlns="http://www.w3.org/2000/svg">
<rect width="40" height="40" rx="20" fill="#54698D"/>
<mask id="mask0_1518_28348" style="mask-type:luminance" maskUnits="userSpaceOnUse" x="0" y="0" width="40" height="40">
<rect width="40" height="40" rx="20" fill="white"/>
</mask>
<g mask="url(#mask0_1518_28348)">
<path d="M20.72 15.2001C21.008 14.9121 21.008 14.4801 20.72 14.1921L15.248 8.67205C14.96 8.38405 14.528 8.38405 14.24 8.67205L8.72003 14.1921C8.43203 14.4801 8.43203 14.9121 8.72003 15.2001L9.72803 16.2081C10.016 16.4961 10.448 16.4961 10.736 16.2081L12.464 14.4801C12.752 14.1921 13.28 14.3841 13.28 14.8161V24.9921C13.28 25.3761 13.616 25.7601 14 25.7601H15.44C15.824 25.7601 16.16 25.3281 16.16 24.9921V14.8161C16.16 14.3841 16.688 14.1921 16.976 14.4801L18.704 16.2081C18.992 16.4961 19.424 16.4961 19.712 16.2081L20.72 15.2001Z" fill="white"/>
<path d="M31.2801 24.8002L30.2721 23.8402C29.9841 23.5522 29.5521 23.5522 29.2641 23.8402L27.5361 25.5682C27.2481 25.8562 26.7201 25.6642 26.7201 25.2322V14.9602C26.7201 14.5762 26.3841 14.2402 26.0001 14.2402H24.5601C24.1761 14.2402 23.8401 14.6242 23.8401 14.9602V25.1362C23.8401 25.5682 23.3121 25.7602 23.0241 25.4722L21.2961 23.7442C21.0081 23.4562 20.5761 23.4562 20.2881 23.7442L19.2801 24.8002C18.9921 25.0882 18.9921 25.5202 19.2801 25.8082L24.8001 31.3282C25.0881 31.6162 25.5201 31.6162 25.8081 31.3282L31.3281 25.8082C31.5681 25.5202 31.5681 25.0402 31.2801 24.8002Z" fill="white"/>
<path d="M15.2 29.5997H14.24C13.712 29.5997 13.28 29.1677 13.28 28.6397V27.6797C13.28 27.1517 13.712 26.7197 14.24 26.7197H15.2C15.728 26.7197 16.16 27.1517 16.16 27.6797V28.6397C16.16 29.1677 15.728 29.5997 15.2 29.5997Z" fill="white"/>
<path d="M25.7601 13.2804H24.8001C24.2721 13.2804 23.8401 12.8484 23.8401 12.3204V11.3604C23.8401 10.8324 24.2721 10.4004 24.8001 10.4004H25.7601C26.2881 10.4004 26.7201 10.8324 26.7201 11.3604V12.3204C26.7201 12.8484 26.2881 13.2804 25.7601 13.2804Z" fill="white"/>
</g>
</svg>
