<svg width="40" height="40" viewBox="0 0 40 40" fill="none" xmlns="http://www.w3.org/2000/svg">
<rect width="40" height="40" rx="20" fill="#54698D"/>
<mask id="mask0_1518_28084" style="mask-type:luminance" maskUnits="userSpaceOnUse" x="0" y="0" width="40" height="40">
<rect width="40" height="40" rx="20" fill="white"/>
</mask>
<g mask="url(#mask0_1518_28084)">
<path fill-rule="evenodd" clip-rule="evenodd" d="M10.5 8H29.5C30.9 8 32 9.1 32 10.5V29.5C32 30.9 30.85 32 29.5 32H10.5C9.1 32 8 30.85 8 29.5V10.5C8 9.1 9.1 8 10.5 8ZM11.3 29.5H28.7C29.15 29.5 29.5 29.15 29.5 28.7V11.3C29.5 10.85 29.15 10.5 28.7 10.5H11.3C10.85 10.5 10.5 10.85 10.5 11.3V28.7C10.5 29.15 10.85 29.5 11.3 29.5Z" fill="white"/>
<path d="M17.95 12.95H13.8C13.35 12.95 12.95 13.3 12.95 13.8V17.95C12.95 18.4 13.3 18.8 13.8 18.8H17.95C18.4 18.8 18.8 18.45 18.8 17.95V13.8C18.75 13.35 18.4 12.95 17.95 12.95Z" fill="white"/>
<path d="M26.2 12.95H22.05C21.6 12.95 21.2 13.3 21.2 13.8V17.95C21.2 18.4 21.55 18.8 22.05 18.8H26.2C26.65 18.8 27.05 18.45 27.05 17.95V13.8C27.05 13.35 26.65 12.95 26.2 12.95Z" fill="white"/>
<path d="M17.95 21.25H13.8C13.35 21.25 12.95 21.6 12.95 22.1V26.25C12.95 26.7 13.3 27.1 13.8 27.1H17.95C18.4 27.1 18.8 26.75 18.8 26.25V22.1C18.75 21.6 18.4 21.25 17.95 21.25Z" fill="white"/>
<path d="M26.2 21.25H22.05C21.6 21.25 21.2 21.6 21.2 22.1V26.25C21.2 26.7 21.55 27.1 22.05 27.1H26.2C26.65 27.1 27.05 26.75 27.05 26.25V22.1C27.05 21.6 26.65 21.25 26.2 21.25Z" fill="white"/>
</g>
</svg>
