<svg width="48" height="48" viewBox="0 0 48 48" fill="none" xmlns="http://www.w3.org/2000/svg">
<rect width="48" height="48" rx="4" fill="#F88962"/>
<mask id="mask0_1518_27359" style="mask-type:luminance" maskUnits="userSpaceOnUse" x="0" y="0" width="48" height="48">
<rect width="48" height="48" rx="4" fill="white"/>
</mask>
<g mask="url(#mask0_1518_27359)">
<path d="M17.2566 31.82H39.8666C40.49 31.82 41 32.33 41 32.9533V35.22C41 35.8433 40.49 36.3533 39.8666 36.3533H17.2566C16.6333 36.3533 16.1233 35.8433 16.1233 35.22V32.9533C16.1233 32.33 16.6333 31.82 17.2566 31.82Z" fill="white"/>
<path d="M10.4 36.3533H8.13333C7.51 36.3533 7 35.8433 7 35.22V32.9533C7 32.33 7.51 31.82 8.13333 31.82H10.4C11.0233 31.82 11.5333 32.33 11.5333 32.9533V35.22C11.59 35.7867 11.1367 36.2967 10.5133 36.3533C10.4567 36.3533 10.4 36.3533 10.4 36.3533Z" fill="white"/>
<path d="M10.4 26.21H8.13333C7.51 26.21 7 25.7 7 25.0766V22.81C7 22.1866 7.51 21.6766 8.13333 21.6766H10.4C11.0233 21.6766 11.5333 22.1866 11.5333 22.81V25.0766C11.59 25.6433 11.1367 26.1533 10.5133 26.21C10.4567 26.21 10.4 26.21 10.4 26.21Z" fill="white"/>
<path d="M10.4 16.0667H8.13333C7.51 16.0667 7 15.5567 7 14.9333V12.6667C7 12.0433 7.51 11.5333 8.13333 11.5333H10.4C11.0233 11.5333 11.5333 12.0433 11.5333 12.6667V14.9333C11.59 15.5 11.1367 16.01 10.5133 16.0667C10.4567 16.0667 10.4 16.0667 10.4 16.0667Z" fill="white"/>
<path d="M17.2566 21.6766H37.1466C37.77 21.6766 38.28 22.1866 38.28 22.81V25.0766C38.28 25.7 37.77 26.21 37.1466 26.21H17.2566C16.6333 26.21 16.1233 25.7 16.1233 25.0766V22.81C16.1233 22.1866 16.6333 21.6766 17.2566 21.6766Z" fill="white"/>
<path d="M17.2566 11.59H39.8666C40.49 11.59 41 12.1 41 12.7233V14.99C41 15.6133 40.49 16.1233 39.8666 16.1233H17.2566C16.6333 16.1233 16.1233 15.6133 16.1233 14.99V12.7233C16.1233 12.1 16.6333 11.59 17.2566 11.59Z" fill="white"/>
</g>
</svg>
