<svg width="48" height="48" viewBox="0 0 48 48" fill="none" xmlns="http://www.w3.org/2000/svg">
<rect width="48" height="48" rx="4" fill="#F88962"/>
<mask id="mask0_1518_27658" style="mask-type:luminance" maskUnits="userSpaceOnUse" x="0" y="0" width="48" height="48">
<rect width="48" height="48" rx="4" fill="white"/>
</mask>
<g mask="url(#mask0_1518_27658)">
<path d="M24.0001 17.1454C26.7259 17.1454 28.9355 14.9357 28.9355 12.2099C28.9355 9.48411 26.7259 7.27441 24.0001 7.27441C21.2743 7.27441 19.0646 9.48411 19.0646 12.2099C19.0646 14.9357 21.2743 17.1454 24.0001 17.1454Z" fill="white"/>
<path d="M39.3549 20.4355H24H8.64518C7.54841 20.4355 7.1097 21.8065 8.04196 22.4097L16.0484 27.5646C16.4323 27.8388 16.6516 28.3323 16.4871 28.771L13.471 38.8065C13.142 39.9033 14.5678 40.671 15.3903 39.8484L23.1774 31.6226C23.6161 31.1291 24.3839 31.1291 24.8226 31.6226L32.6097 39.8484C33.3774 40.671 34.8032 39.9033 34.5291 38.8065L31.5129 28.771C31.4032 28.3323 31.5678 27.8388 31.9516 27.5646L39.9581 22.4097C40.8903 21.8065 40.4516 20.4355 39.3549 20.4355Z" fill="white"/>
</g>
</svg>
