<svg width="48" height="48" viewBox="0 0 48 48" fill="none" xmlns="http://www.w3.org/2000/svg">
<rect width="48" height="48" rx="4" fill="#3C97DD"/>
<mask id="mask0_1518_27660" style="mask-type:luminance" maskUnits="userSpaceOnUse" x="0" y="0" width="48" height="48">
<rect width="48" height="48" rx="4" fill="white"/>
</mask>
<g mask="url(#mask0_1518_27660)">
<path fill-rule="evenodd" clip-rule="evenodd" d="M37.4867 7H10.5133C8.58667 7 7 8.58667 7 10.5133V37.4867C7 39.4133 8.58667 41 10.5133 41H37.4867C39.4133 41 41 39.4133 41 37.4867V10.5133C41 8.58667 39.4133 7 37.4867 7ZM35.9 34.8233C35.9 35.2767 35.4467 35.6167 34.9933 35.6167H12.95C12.4967 35.6167 12.1567 35.1633 12.1567 34.71V29.61C12.1567 29.1567 12.61 28.8167 13.0633 28.8167H35.1067C35.56 28.8167 35.9 29.27 35.9 29.7233V34.8233ZM34.9933 19.07C35.4467 19.07 35.9 18.73 35.9 18.2767V13.1767C35.9 12.7233 35.56 12.27 35.1067 12.27H13.0633C12.61 12.27 12.1567 12.61 12.1567 13.0633V18.1633C12.1567 18.6167 12.4967 19.07 12.95 19.07H34.9933Z" fill="white"/>
</g>
</svg>
