<svg width="48" height="48" viewBox="0 0 48 48" fill="none" xmlns="http://www.w3.org/2000/svg">
<rect width="48" height="48" rx="4" fill="#F88960"/>
<mask id="mask0_1518_27670" style="mask-type:luminance" maskUnits="userSpaceOnUse" x="0" y="0" width="48" height="48">
<rect width="48" height="48" rx="4" fill="white"/>
</mask>
<g mask="url(#mask0_1518_27670)">
<path fill-rule="evenodd" clip-rule="evenodd" d="M7.27873 23.8883C7.27873 15.4719 14.6918 8.61621 24 8.61621C33.2525 8.61621 40.7214 15.4162 40.7771 24.0556C40.7771 32.5834 33.3082 39.3277 24.1673 39.4392C20.9345 39.4392 17.9246 38.6031 15.4164 37.2097C15.0263 36.9867 14.5804 36.8752 14.2459 37.0424L8.17053 39.3277C7.61316 39.4949 7.05578 38.9933 7.27873 38.4359L9.4525 32.4719C9.56398 32.0818 9.50824 31.6359 9.28529 31.3015C8.05906 29.0719 7.27873 26.5638 7.27873 23.8883ZM12.8525 23.9998C12.8525 25.5047 14.0787 26.7867 15.6394 26.7867C17.1443 26.7867 18.4263 25.5047 18.4263 23.9998C18.4263 22.4949 17.2 21.2129 15.6394 21.2129C14.1345 21.2129 12.8525 22.4392 12.8525 23.9998ZM24 26.7867C22.4394 26.7867 21.2132 25.5047 21.2132 23.9998C21.2132 22.4392 22.4951 21.2129 24 21.2129C25.5607 21.2129 26.7869 22.4949 26.7869 23.9998C26.7869 25.5047 25.5607 26.7867 24 26.7867ZM29.6295 23.9998C29.6295 25.5047 30.8558 26.7867 32.4164 26.7867C33.9214 26.7867 35.2033 25.5047 35.2033 23.9998C35.2033 22.4949 33.9214 21.2129 32.4164 21.2129C30.9115 21.2129 29.6295 22.4392 29.6295 23.9998Z" fill="white"/>
</g>
</svg>
